<?xml version="1.0" standalone="no"?>
<!DOCTYPE svg PUBLIC "-//W3C//DTD SVG 1.1//EN" "http://www.w3.org/Graphics/SVG/1.1/DTD/svg11.dtd" >
<svg xmlns="http://www.w3.org/2000/svg">
<metadata>
Created by FontPrep 20130207 at Mon Aug 19 19:11:05 2013
 By Fabien Postif
Copyright (c) Agfa Monotype Corporation, 2002. All rights reserved. ITC Conduit is designed by Mark van Bronkhorst, MvB Design. ITC Conduit is a trademark of International Typeface Corporation.
</metadata>
<defs>
<font id="8c8b5740a6b1e8f518e6d88a1457a200" >
  <font-face 
    font-family="ConduitITCMedium-Italic"
    font-weight="400"
    font-style="italic"
    font-stretch="normal"
    units-per-em="2048"
    panose-1="2 0 6 6 4 0 0 2 0 4"
    ascent="1638"
    descent="-410"
    x-height="920"
    cap-height="1290"
    bbox="-350 -481.009 1743 1878"
    underline-thickness="122"
    underline-position="-106"
    slope="-11"
    unicode-range="U+0020-FB04"
  />
<missing-glyph horiz-adv-x="362" 
 />
    <glyph glyph-name="ff" unicode="ff" horiz-adv-x="1122" 
d="M780 1047q0 9 -17 31t-57 46t-102 23q-62 0 -125 -54t-78 -130l-16 -91q-4 -20 -4 -31t16 -12h314q23 0 24 21l17 92q6 37 17 67t11 38zM1172 1311q122 0 122 -23q0 -4 -12 -28l-53 -103q-6 -14 -21 -14l-51 4q-76 0 -139 -54t-78 -130l-16 -91q-4 -20 -4 -31t16 -12h143
q18 0 19 -14q0 -4 -4 -24l-19 -105q-2 -20 -24 -20h-144q-20 0 -22 -21l-119 -665q-29 -154 -154 -262t-278 -107q-107 0 -109 22q0 6 13 31l53 100q6 14 20 15l51 -4q76 0 140 54q63 54 78 130l112 645q8 45 8 47q0 14 -18 15h-313q-20 0 -23 -21l-135 -758
q-29 -153 -154 -261t-278 -107q-49 0 -96 8q-22 4 0 45l53 100q6 14 20 15l51 -4q76 0 140 54q63 54 78 130l129 737q8 45 8 47q0 14 -19 15h-51q-16 0 -16 14q0 6 4 31l18 98q2 20 23 20h51q23 0 25 21l16 92q29 154 155 262t278 107q152 0 239 -82q16 -17 22 -17t27 15
q116 84 238 84z" />
    <glyph glyph-name="fi" unicode="fi" horiz-adv-x="1009" 
d="M162 651q0 14 -19 15h-51q-16 0 -16 14q0 6 4 31l18 98q2 20 23 20h51q23 0 25 21l16 92q35 199 221 305q44 27 104 44t82 17t23 -14q0 -14 -8 -51l-14 -78q-2 -16 -19 -20q-78 -11 -133 -63t-68 -119l-16 -91q-4 -20 -4 -31t16 -12h144q18 0 18 -14q0 -4 -4 -24
l-18 -105q-2 -20 -25 -20h-143q-20 0 -23 -21l-135 -758q-29 -153 -154 -261t-278 -107q-49 0 -96 8q-22 4 0 45l53 100q6 14 20 15l51 -4q76 0 140 54q63 54 78 130l129 737q8 45 8 47zM936 909q0 -12 -10 -59l-146 -830q-2 -20 -24 -20h-144q-18 0 -18 14q0 2 12 64
l146 823q2 20 22 21h144q18 -1 18 -13zM910 1311q48 1 74 -25t26 -73t-41 -87t-89 -41q-48 0 -74 26t-26 73t41 87t89 40z" />
    <glyph glyph-name="fl" unicode="fl" horiz-adv-x="1015" 
d="M162 651q0 14 -19 15h-51q-16 0 -16 14q0 6 4 31l18 98q2 20 23 20h51q23 0 25 21l12 72q27 154 153 262t281 106h334q18 0 18 -14l-221 -1256q-2 -20 -24 -20h-144q-18 0 -18 14q0 7 6 34t8 42l168 959q12 61 12 63q0 14 -18 14h-150q-76 0 -139 -54t-78 -130l-12 -70
q-4 -20 -4 -31t16 -12h144q18 0 18 -14q0 -4 -4 -24l-18 -105q-2 -20 -25 -20h-143q-20 0 -23 -21l-135 -758q-29 -153 -154 -261t-278 -107q-49 0 -96 8q-22 4 0 45l53 100q6 14 20 15l51 -4q76 0 140 54q63 54 78 130l129 737q8 45 8 47z" />
    <glyph glyph-name="ffi" unicode="ffi" horiz-adv-x="1538" 
d="M780 1047q0 9 -17 31t-57 46t-102 23q-62 0 -125 -54t-78 -130l-16 -91q-4 -20 -4 -31t16 -12h314q23 0 24 21l17 92q6 37 17 67t11 38zM162 651q0 14 -19 15h-51q-16 0 -16 14q0 6 4 31l18 98q2 20 23 20h51q23 0 25 21l16 92q29 154 155 262t282 107q156 0 237 -84
q14 -15 20 -15t27 15q115 82 231 82q17 -1 17 -15l-6 -39l-17 -90q-2 -16 -18 -20q-78 -11 -133 -63t-68 -119l-16 -91q-4 -20 -4 -31t16 -12h143q18 0 19 -14q0 -4 -4 -24l-19 -105q-2 -20 -24 -20h-144q-20 0 -22 -21l-119 -665q-29 -154 -154 -262t-278 -107
q-107 0 -109 22q0 6 13 31l53 100q6 14 20 15l51 -4q76 0 140 54q63 54 78 130l112 645q8 45 8 47q0 14 -18 15h-313q-20 0 -23 -21l-135 -758q-29 -153 -154 -261t-278 -107q-49 0 -96 8q-22 4 0 45l53 100q6 14 20 15l51 -4q76 0 140 54q63 54 78 130l129 737q8 45 8 47z
M1462 909q0 -12 -10 -59l-145 -830q-2 -20 -25 -20h-143q-18 0 -19 14q0 2 13 64l145 823q2 20 22 21h144q18 -1 18 -13zM1437 1311q99 0 99 -98q0 -47 -41 -87t-89 -41q-48 0 -74 26t-26 73t42 87q41 40 89 40z" />
    <glyph glyph-name="ffl" unicode="ffl" horiz-adv-x="1558" 
d="M782 1042v5q-20 45 -66 73t-110 27q-64 0 -127 -54t-78 -130l-20 -113v-6q0 -14 16 -15h314q23 0 24 21l13 72q10 60 22 86t12 34zM362 -225q76 0 140 54q63 54 78 130l120 686v6q0 14 -18 15h-313q-20 0 -23 -21l-135 -758q-29 -153 -154 -261t-278 -107q-49 0 -96 8
q-20 3 -9 27l62 118q6 14 20 15h2q41 -4 49 -4q76 0 140 54q63 54 78 130l137 778v6q0 14 -19 15h-51q-16 0 -16 14v6l22 123q2 20 23 20h51q23 0 25 21l16 92q29 154 155 262t292 107q166 0 245 -103q9 -8 13 -8t14 6q123 84 250 84h334q18 0 18 -14q0 -2 -2 -6l-219 -1250
q-2 -20 -25 -20h-143q-18 0 -19 14v2l2 4l191 1086v2q2 2 2 4q0 14 -18 14h-150q-76 0 -139 -54t-78 -130l-16 -92v-6q0 -14 16 -15h143q18 0 19 -14v-6l-23 -123q-2 -20 -24 -20h-144q-20 0 -22 -21l-119 -665q-29 -154 -154 -262t-278 -107q-107 0 -109 22q0 4 4 13
l62 118q6 14 20 15h2q41 -4 49 -4z" />
    <glyph glyph-name=".notdef" horiz-adv-x="362" 
 />
    <glyph glyph-name=".null" horiz-adv-x="0" 
 />
    <glyph glyph-name="nonmarkingreturn" horiz-adv-x="681" 
 />
    <glyph glyph-name="space" unicode=" " horiz-adv-x="362" 
 />
    <glyph glyph-name="exclam" unicode="!" horiz-adv-x="600" 
d="M222 205q48 1 74 -25t26 -73t-41 -87t-89 -40t-74 26t-26 72q0 47 41 87t89 40zM346 1290h143q19 0 19 -12t-8 -49l-86 -488l-107 -354q-6 -18 -22 -18h-56q-18 0 -18 16l18 356l93 529q2 20 24 20z" />
    <glyph glyph-name="quotedbl" unicode="&#x22;" horiz-adv-x="634" 
d="M354 1290q19 0 19 -12t-15 -51l-86 -287q-6 -18 -24 -18h-55q-16 0 -17 16l14 330q0 23 25 22h139zM641 1290q16 0 16 -14q0 -4 -12 -49l-86 -287q-6 -18 -24 -18h-56q-16 0 -16 16l14 330q0 23 25 22h139z" />
    <glyph glyph-name="numbersign" unicode="#" horiz-adv-x="1148" 
d="M664 532q16 0 20 17l43 153q2 6 4 16t4 14q2 5 2 9q0 16 -22 17h-230q-18 0 -20 -13l-47 -163l-8 -31q0 -18 22 -19h232zM934 922h125q16 -1 16 -13l-35 -131q-6 -20 -26 -20h-140q-18 0 -20 -13l-47 -163q-8 -25 -8 -31q0 -18 22 -19h144q16 0 16 -12l-35 -131
q-6 -20 -26 -20h-156q-18 0 -21 -13l-98 -342q-2 -14 -20 -14h-68q-23 0 -22 18l81 295q10 31 10 43t-22 13h-231q-18 0 -21 -13l-96 -342q-2 -14 -20 -14h-68q-23 0 -23 18l84 295q10 37 11 39q0 16 -23 17h-127q-16 0 -16 12q8 28 8 31l27 100q6 20 26 20h139q16 0 21 17
l45 153q10 31 10 39q0 16 -22 17h-144q-16 0 -16 9t8 34l27 100q6 20 26 21h158q16 0 21 16l96 338q2 14 20 14h68q23 0 22 -18l-84 -301q-8 -25 -8 -31q0 -18 23 -18h229q16 0 21 16l98 338q2 14 20 14h68q23 0 23 -18q0 -8 -11 -39l-82 -293q0 -18 23 -18z" />
    <glyph glyph-name="dollar" unicode="$" 
d="M684 368q0 64 -70 119q-37 29 -51 29t-18 -22l-51 -297l-7 -35q0 -14 23 -14t61 24q49 29 81 81q32 51 32 115zM389 936q0 -55 53 -102q38 -31 52 -31t18 22l45 254l6 41q1 14 -19 14t-65 -32q-90 -66 -90 -166zM975 1105q0 -11 -14 -18l-119 -55q-29 -14 -35 -14
q-12 0 -14 12q-15 51 -55 82t-59 31t-24 -23l-53 -307q-2 -15 -6 -33t-4 -25t10 -14q112 -57 170 -106q103 -87 100 -225q0 -174 -112 -293t-289 -135q-16 -2 -18 -21l-13 -63q-2 -20 -24 -21h-51q-16 0 -17 14q0 10 2 19l8 41q2 6 2 17t-12 12q-184 2 -262 116
q-39 58 -39 80t14 29l121 57q20 10 32 10t13 -12q19 -55 59 -86t87 -31q20 0 22 21l64 356q6 31 6 42t-8 18q-113 58 -164 102q-92 81 -92 209q0 163 105 281t269 135q23 4 25 20l12 66q2 20 25 20h51q16 0 17 -14q0 -12 -3 -19l-6 -34q-4 -16 -4 -23q0 -14 15 -14
q191 -17 255 -162q14 -31 13 -42z" />
    <glyph glyph-name="percent" unicode="%" 
d="M675 127q21 0 43 17t25 40l29 164q8 37 8 51q0 13 -15 29t-38 16t-42 -17t-23 -42l-37 -211q0 -20 14 -34t36 -13zM310 848q22 0 44 17t25 40l29 164q8 37 8 51t-16 30t-38 15q-22 0 -41 -17t-24 -42l-37 -211q0 -19 14 -33t36 -14zM918 422q0 -12 -5 -37l-34 -201
q-15 -82 -77 -133t-146 -51t-127 40q-44 40 -44 107q0 12 4 37l35 201q14 82 76 133t146 51q84 1 128 -39t44 -108zM940 1290q18 0 18 -11t-4 -17l-755 -1250q-6 -12 -21 -12h-80q-18 0 -18 11t4 18l756 1249q6 12 20 12h80zM553 1143q0 -12 -4 -37l-35 -201
q-14 -82 -76 -133t-145 -51q-84 0 -128 40t-44 107q0 12 4 37l35 199q14 82 76 134t146 52q83 0 127 -40t44 -107z" />
    <glyph glyph-name="ampersand" unicode="&#x26;" horiz-adv-x="1269" 
d="M666 272q0 8 -38 72q-62 106 -200 199q-23 14 -31 14t-32 -14q-87 -57 -103 -141t-16 -105q0 -66 43 -110t110 -44h62q104 0 184 97q21 24 21 32zM570 1147q-74 0 -143 -66q-69 -67 -69 -151t109 -174q23 -23 45 -23t45 10q63 23 109 73q45 50 55 106l10 71q0 66 -43 110
q-44 44 -118 44zM1190 553h-53q-70 0 -126 -45t-87 -119l-19 -43q-10 -23 4 -39q100 -117 215 -141q14 -4 14 -12t-3 -24q-4 -16 -5 -24l-18 -104q-2 -20 -22 -20q-54 0 -136 30t-141 90q-27 27 -35 27t-28 -25q-117 -125 -318 -124h-61q-147 0 -230 74q-82 75 -82 219
t80 258q53 75 109 110q14 7 14 17t-20 34q-76 86 -76 187q0 29 6 59q29 170 145 271q117 101 277 101t242 -75q82 -76 82 -211q0 -49 -14 -121q-14 -71 -74 -149q-62 -78 -144 -109q-20 -6 -20 -24q0 -6 10 -17q18 -14 90 -102q6 -10 17 -10t20 18q53 109 152 168t229 59h37
q18 0 18 -14l-27 -150q-2 -20 -22 -20z" />
    <glyph glyph-name="quotesingle" unicode="'" horiz-adv-x="348" 
d="M354 1290q19 0 19 -12t-15 -51l-86 -287q-6 -18 -24 -18h-55q-16 0 -17 16l14 330q0 23 25 22h139z" />
    <glyph glyph-name="parenleft" unicode="(" horiz-adv-x="819" 
d="M762 1493q16 0 16 -11t-4 -32l-18 -100q-2 -16 -21 -21q-78 -12 -132 -63t-66 -119l-199 -1122q-10 -51 -10 -92t37 -83t102 -53q12 -2 12 -14q0 -2 -6 -39l-16 -90q-2 -20 -23 -21q-96 0 -174 50q-119 76 -119 235q0 25 9 82l198 1126q41 236 240 326q90 41 174 41z" />
    <glyph glyph-name="parenright" unicode=")" horiz-adv-x="819" 
d="M350 1493q96 0 174 -49q119 -76 119 -236q0 -25 -8 -82l-199 -1126q-37 -209 -200 -305q-106 -61 -213 -62q-16 0 -17 15l6 39l17 90q2 16 20 20q78 11 132 63t67 120l198 1126q10 68 11 72q0 57 -37 99t-103 52q-12 2 -12 14l6 39l17 91q2 20 22 20z" />
    <glyph glyph-name="asterisk" unicode="*" horiz-adv-x="794" 
d="M586 1065q0 -12 12 -18l178 -82q12 -5 12 -13t-6 -16l-69 -90q-7 -10 -17 -10t-28 14l-113 88q-31 25 -39 25q-20 0 -20 -25l-13 -205q0 -23 -24 -22h-107q-18 0 -18 14q0 4 8 29l49 164l8 30q0 14 -11 14t-21 -6l-185 -116q-10 -6 -16 -6t-12 12l-33 82l-6 18
q0 14 16 21l203 80q18 6 18 18t-12 18l-172 84q-12 5 -12 13t6 16l69 90q9 12 17 12t14 -6l141 -121q8 -6 15 -6q16 0 20 25l15 203q0 23 24 22h107q18 0 18 -14l-53 -187q-8 -24 -8 -36t10 -12t20 5l189 121q10 6 17 6t14 -12l32 -80l6 -18q0 -14 -16 -21l-209 -84
q-18 -6 -18 -18z" />
    <glyph glyph-name="plus" unicode="+" 
d="M567 566q0 -14 19 -13h327q17 0 17 -14l-15 -88q-2 -20 -24 -21h-328q-23 0 -24 -20l-58 -328q-2 -20 -24 -21h-82q-17 -1 -17 11t4 32l56 312q0 14 -19 14h-327q-18 0 -19 14l17 88q2 20 24 21h328q20 0 22 20l60 328q2 20 22 21h82q18 0 19 -15l-56 -311q-4 -16 -4 -30
z" />
    <glyph glyph-name="comma" unicode="," horiz-adv-x="450" 
d="M66 10q0 22 -17 23h-26q-18 0 -19 14q0 4 6 35l21 119q2 20 24 20h185q18 0 18 -14l-25 -133q-37 -197 -172 -293q-68 -47 -83 -47t-17 14l-18 66q0 12 12 18q55 31 83 94q28 62 28 84z" />
    <glyph glyph-name="hyphen" unicode="-" horiz-adv-x="552" 
d="M420 553q16 0 16 -14q0 -4 -6 -41l-18 -109q-2 -20 -25 -20h-328q-18 0 -18 14l27 149q2 20 24 21h328z" />
    <glyph glyph-name="period" unicode="." horiz-adv-x="450" 
d="M140 205q48 1 74 -25t26 -73t-41 -87t-89 -40t-74 26t-26 72q0 47 41 87t89 40z" />
    <glyph glyph-name="slash" unicode="/" horiz-adv-x="665" 
d="M745 1290q19 0 19 -11t-4 -17l-756 -1250q-6 -12 -20 -12h-70q-18 0 -18 11t4 18l755 1249q6 12 21 12h69z" />
    <glyph glyph-name="zero" unicode="0" 
d="M793 993q0 66 -43 110t-111 44h-61q-76 0 -140 -54t-78 -130l-106 -601q-8 -45 -8 -65q0 -66 43 -110t110 -44h62q76 1 139 55t78 130l106 602q9 40 9 63zM981 1032q0 -33 -6 -69l-113 -635q-30 -156 -146 -252t-284 -96h-61q-147 0 -231 75q-83 76 -83 203q0 33 6 70
l113 635q29 155 146 251t284 97h62q147 0 230 -76t83 -203z" />
    <glyph glyph-name="one" unicode="1" 
d="M358 164q23 0 25 20l121 686q2 12 4 26t4 22t2 12q0 16 -12 16t-21 -8l-116 -100q-15 -15 -29 0l-64 73q-16 21 -16 27t10 16l379 322q18 14 29 14h67q18 0 19 -14q0 -4 -4 -22t-8 -48l-173 -977q-8 -45 -8 -55t17 -10h204q19 0 19 -14l-23 -130q-2 -20 -24 -20h-635
q-18 0 -19 14l9 41l14 88q2 20 25 21h204z" />
    <glyph glyph-name="two" unicode="2" 
d="M754 0h-697q-18 0 -18 14q0 4 2 12t4 21q2 12 4 21l29 170q27 169 138 271q110 103 205 154q96 50 126 68q30 19 62 37t46 30t41 32q27 21 55 66q27 44 27 104q0 59 -43 103t-110 44h-78q-113 0 -191 -115q-8 -12 -16 -12t-33 12l-98 55q-10 7 -10 19t59 76
q125 129 317 129h78q147 0 231 -76t83 -211q0 -135 -91 -261q-34 -46 -108 -102t-193 -119q-226 -120 -274 -202q-47 -82 -47 -162q0 -14 16 -14h512q18 0 19 -14l-23 -130q-2 -20 -24 -20z" />
    <glyph glyph-name="three" unicode="3" 
d="M948 1024q0 -28 -12 -100t-62 -141t-108 -103q-14 -10 -14 -18t8 -15q36 -33 62 -92t26 -98t-12 -113q-29 -168 -147 -266t-288 -98h-61q-180 0 -258 110q-43 64 -43 86t14 29l117 55q29 14 35 14q12 0 14 -14q14 -55 55 -86t95 -31h61q76 1 139 55t79 133t16 99
q0 66 -44 110t-112 44h-164q-16 0 -16 13t6 42l16 88q2 20 23 21h164q76 0 139 54q86 74 86 191q0 66 -43 110t-111 44h-61q-113 0 -191 -115q-8 -12 -16 -12t-29 10l-102 57q-10 7 -10 21t63 78q125 125 313 125h62q147 0 229 -77t82 -210z" />
    <glyph glyph-name="four" unicode="4" 
d="M666 952q0 18 -15 19q-12 0 -20 -13l-393 -464q-8 -8 -9 -19q0 -14 21 -14h309q20 0 23 20l71 402q13 61 13 69zM735 1290h154q18 0 18 -14q0 -4 -4 -24t-8 -46l-119 -680q-10 -47 -10 -51q0 -14 18 -14h144q16 -1 16 -16t-6 -39l-16 -89q-2 -20 -23 -20h-143
q-23 0 -25 -21l-45 -256q-2 -20 -24 -20h-144q-18 0 -18 14l41 228l6 41q0 14 -17 14h-512q-18 0 -18 14l31 150l686 821q8 8 18 8z" />
    <glyph glyph-name="five" unicode="5" 
d="M426 748h143q147 0 231 -75t83 -208q0 -43 -15 -121q-28 -168 -146 -266t-288 -98h-61q-182 0 -260 110q-41 55 -41 96q0 12 14 19l123 57q25 12 29 12q12 0 14 -14q14 -55 55 -86t94 -31h62q76 1 139 55q62 54 78 135t16 97q0 66 -44 110t-111 44h-328q-16 0 -16 13
t6 42l110 631q2 20 25 20h655q19 0 19 -14q0 -4 -6 -35l-17 -94q-2 -20 -24 -21h-471q-23 0 -25 -20l-53 -303l-6 -41q0 -14 16 -14z" />
    <glyph glyph-name="six" unicode="6" 
d="M696 440q0 66 -44 110t-111 44h-62q-76 0 -139 -54q-62 -54 -78 -141t-16 -102q0 -66 43 -110t110 -44h62q76 1 139 55t78 130q2 20 10 62t8 50zM973 1118q0 -24 -15 -31l-114 -53q-33 -16 -39 -16q-12 0 -14 14q-31 115 -152 115h-61q-76 0 -140 -54t-78 -130l-36 -209
q-8 -41 -8 -53q0 -13 8 -13q10 0 22 8q84 61 182 62h62q129 0 211 -78t82 -203q0 -41 -21 -149q-30 -156 -146 -252t-284 -96h-61q-147 0 -231 75q-83 76 -83 203q0 33 6 70l113 635q29 155 146 251t284 97h62q176 0 260 -109q45 -60 45 -84z" />
    <glyph glyph-name="seven" unicode="7" 
d="M305 1290h696q19 0 19 -14l-39 -223q-32 -187 -156 -297q-67 -59 -107 -88t-112 -72q-197 -119 -237 -189q-20 -36 -29 -79l-53 -308q-2 -20 -25 -20h-143q-18 0 -19 14q0 17 9 41l47 273q26 150 110 238t237 178q153 91 217 155t81 179q2 14 4 22t2 12q0 14 -19 14h-512
q-18 0 -18 15l23 129q2 20 24 20z" />
    <glyph glyph-name="eight" unicode="8" 
d="M692 420q0 66 -44 110t-111 43h-62q-76 0 -138 -54q-63 -54 -77 -137t-14 -85q0 -66 43 -110t110 -44h62q76 1 139 55q64 54 78 137t14 85zM793 993q0 66 -43 110t-111 44h-61q-76 0 -140 -54q-64 -53 -76 -117t-12 -85q0 -66 43 -110t111 -44h61q75 1 139 55t76 122
t13 79zM877 440q0 -46 -11 -96q-28 -168 -146 -266t-288 -98h-61q-147 0 -230 74q-82 75 -82 208q-1 36 13 114t66 150t110 111q14 10 14 18t-8 15q-39 31 -66 87q-26 56 -26 97t10 88q31 170 149 269t285 100h62q147 0 229 -76t82 -219t-76 -243q-51 -69 -108 -103
q-26 -19 -7 -33q37 -33 63 -92t26 -105z" />
    <glyph glyph-name="nine" unicode="9" 
d="M793 993q0 66 -43 110t-111 44h-61q-76 0 -140 -54t-78 -130l-24 -136q-6 -29 -6 -49q0 -66 44 -110t111 -43h62q77 0 141 54t76 130l22 131q7 43 7 53zM981 1032q0 -33 -6 -69l-113 -635q-30 -156 -146 -252t-284 -96h-61q-182 0 -260 110q-41 55 -41 96q0 12 14 19
l123 57q25 12 29 12q12 0 14 -14q14 -55 55 -86t94 -31h62q76 1 139 55t78 130l27 149q6 31 6 35q0 18 -15 18q-6 0 -18 -8q-84 -61 -180 -61h-62q-129 0 -211 78t-82 202q0 47 9 86l24 136q29 155 146 251t284 97h62q147 0 230 -76t83 -203z" />
    <glyph glyph-name="colon" unicode=":" horiz-adv-x="450" 
d="M140 205q48 1 74 -25t26 -73t-41 -87t-89 -40t-74 26t-26 72q0 47 41 87t89 40zM236 758q100 0 100 -98q0 -48 -40 -88t-88 -40t-74 26t-26 73t40 87t88 40z" />
    <glyph glyph-name="semicolon" unicode=";" horiz-adv-x="450" 
d="M66 10q0 22 -17 23h-26q-18 0 -19 14q0 4 6 35l21 119q2 20 24 20h185q18 0 18 -14l-25 -133q-37 -197 -172 -293q-68 -47 -83 -47t-17 14l-18 66q0 12 12 18q55 31 83 94q28 62 28 84zM236 758q100 0 100 -98q0 -48 -40 -88t-88 -40t-74 26t-26 73t40 87t88 40z" />
    <glyph glyph-name="less" unicode="&#x3c;" 
d="M248 495q0 -11 10 -18l498 -319q8 -6 8 -12t-6 -17l-56 -70q-10 -12 -16 -12t-39 21l-545 350q-8 8 -8 14l23 121q4 12 12 18l676 357q29 16 37 16t14 -12l25 -60l6 -20q0 -10 -15 -18l-608 -320q-16 -8 -16 -19z" />
    <glyph glyph-name="equal" unicode="=" 
d="M897 354q0 -6 -4 -30l-10 -58q-2 -20 -25 -20h-819q-16 0 -16 14q0 4 4 29l10 59q2 20 24 21h820q16 -1 16 -15zM963 723q0 -6 -5 -31l-10 -57q-2 -20 -24 -21h-820q-16 0 -16 15q0 4 4 28l10 60q2 20 25 20h819q17 0 17 -14z" />
    <glyph glyph-name="greater" unicode="&#x3e;" 
d="M737 496q0 12 -10 18l-498 320q-8 6 -8 12t6 16l56 70q8 12 15 12t40 -20l545 -351q8 -8 8 -14l-23 -121q-4 -12 -12 -18l-676 -357q-29 -16 -37 -16t-14 12l-25 60l-6 20q0 10 15 19l608 319q16 7 16 19z" />
    <glyph glyph-name="question" unicode="?" 
d="M376 205q99 0 99 -98q0 -47 -41 -87t-89 -40t-74 26q-25 26 -25 72q0 47 41 87t89 40zM659 1311q147 0 231 -76t83 -213q0 -137 -80 -242q-29 -38 -76 -72t-71 -44q-118 -49 -159 -73q-91 -53 -106 -136q-4 -33 -4 -60t-24 -26h-142q-18 0 -18 16q0 137 48 203
q15 23 25 39q9 16 33 35q25 18 34 27q16 16 144 75t167 110q40 51 40 118t-43 111t-110 44h-78q-113 0 -191 -115q-10 -12 -18 -12t-41 18l-88 49q-10 5 -10 17t51 70q127 137 326 137h77z" />
    <glyph glyph-name="at" unicode="@" horiz-adv-x="1445" 
d="M756 848q-54 0 -100 -38t-56 -93l-25 -133q-10 -56 22 -96t87 -40t102 42q47 40 58 94l24 133q10 55 -23 93q-34 38 -89 38zM993 317q-86 0 -135 54q-14 16 -39 -2q-74 -51 -176 -51t-163 68q-60 69 -40 183l29 164q20 113 104 181t205 67q59 0 107 -29q23 -14 26 13
q4 16 21 16h92q20 0 18 -20l-79 -445q-4 -29 12 -48t45 -19h22q29 0 52 20t26 47l74 416q18 100 -37 162t-166 63h-356q-113 0 -192 -62t-95 -163l-100 -574q-16 -100 39 -162t166 -63h534q20 0 19 -20l-17 -93q-2 -20 -24 -20h-535q-172 0 -258 99t-57 259l100 574
q29 160 150 259t292 99h357q170 0 256 -99t57 -259l-74 -426q-16 -84 -79 -136t-156 -53h-25z" />
    <glyph glyph-name="A" unicode="A" horiz-adv-x="921" 
d="M557 485q0 16 -4 54l-27 333q-2 8 -4 46t-4 45h-8q-35 -87 -41 -93l-152 -346q-18 -45 -18 -49q0 -14 18 -14h215q25 -1 25 24zM805 23q0 -23 -25 -23h-153q-16 0 -19 14l-26 271q-2 12 -19 12h-332q-18 0 -22 -12l-125 -271q-6 -14 -23 -14h-153q-18 0 -18 11t18 48
l586 1217q6 14 22 14h111q16 0 18 -14l156 -1210q4 -29 4 -43z" />
    <glyph glyph-name="B" unicode="B" horiz-adv-x="1064" 
d="M270 164h226q76 0 139 54t75 118t13 84q0 66 -44 110t-112 43h-225q-20 0 -23 -20l-59 -334l-6 -41q0 -14 16 -14zM596 737q76 1 139 55t73 114t11 67q0 65 -43 109t-110 44h-226q-23 0 -24 -20l-56 -313l-6 -41q0 -14 17 -15h225zM285 1290h409q148 0 230 -76t82 -210
q0 -50 -10 -106t-62 -125q-51 -69 -109 -103q-14 -10 -14 -18q1 -8 23 -28t48 -79t26 -97t-9 -83q-29 -168 -145 -267q-117 -98 -287 -98h-410q-18 0 -18 14l221 1256q2 20 25 20z" />
    <glyph glyph-name="C" unicode="C" horiz-adv-x="952" 
d="M668 1311q210 1 288 -157q16 -34 17 -47q0 -13 -17 -20l-120 -55q-29 -12 -33 -12q-12 0 -15 12q-39 115 -149 115h-61q-76 0 -140 -54t-78 -130l-104 -590q-10 -51 -10 -76q0 -66 43 -110t110 -44h62q113 0 194 119q9 12 17 12t33 -14l98 -55q8 -6 8 -11t-6 -16
q-133 -199 -373 -198h-61q-147 0 -231 75q-83 76 -83 203q0 33 6 70l113 635q29 155 146 251t284 97h62z" />
    <glyph glyph-name="D" unicode="D" horiz-adv-x="1075" 
d="M819 973q0 65 -43 109t-110 44h-226q-23 0 -24 -20l-154 -877q-8 -41 -8 -53t16 -12h226q76 0 139 54t78 130l100 572q6 43 6 53zM1006 1004q0 -25 -9 -82l-96 -553q-29 -170 -146 -270q-118 -99 -288 -99h-410q-18 0 -18 14q0 4 2 12t4 19q2 12 4 23l211 1202
q2 20 25 20h409q148 0 230 -76t82 -210z" />
    <glyph glyph-name="E" unicode="E" horiz-adv-x="940" 
d="M631 584h-164q-76 0 -139 -54q-64 -54 -78 -129q-14 -74 -14 -104q0 -66 43 -110t110 -44h62q53 0 104 31t86 86q7 14 19 14t32 -14l99 -55q8 -6 8 -11t-6 -16q-129 -199 -371 -198h-62q-147 0 -229 74t-82 208q1 43 15 123t66 152t110 110q12 9 12 19t-6 14
q-39 31 -66 87q-26 55 -26 95t8 80q29 168 146 268q118 100 288 101h61q178 0 256 -107q48 -66 48 -88t-15 -29l-119 -55q-25 -12 -35 -12t-14 12q-37 115 -149 115h-62q-76 0 -139 -54q-86 -74 -86 -192q0 -65 43 -109t111 -44h163q18 0 19 -15l-23 -129q-2 -20 -24 -20z
" />
    <glyph glyph-name="F" unicode="F" horiz-adv-x="931" 
d="M342 573q-20 0 -23 -20l-94 -533q-2 -20 -24 -20h-144q-18 0 -18 14q0 4 4 21t8 43l209 1192q2 20 25 20h696q18 0 18 -14q0 -4 -6 -35l-16 -94q-2 -20 -25 -21h-512q-23 0 -24 -20l-58 -326q-4 -16 -4 -29t17 -14h420q18 0 18 -14l-23 -129q-2 -20 -24 -21h-420z" />
    <glyph glyph-name="G" unicode="G" 
d="M432 -20h-61q-147 0 -231 75q-83 76 -83 203q0 33 6 70l113 635q29 155 146 251t284 97h99q178 0 256 -107q47 -66 47 -88t-15 -29l-119 -55q-26 -12 -36 -12t-13 12q-37 115 -149 115h-98q-76 0 -140 -54t-78 -130l-108 -613q-6 -27 -6 -53q0 -66 43 -110t110 -44h62
q76 1 139 55t78 130l20 114q4 20 4 25q0 14 -18 14h-205q-16 0 -16 15q0 2 8 51l14 78q2 20 25 20h389q16 0 16 -14l-53 -303q-30 -156 -146 -252t-284 -96z" />
    <glyph glyph-name="H" unicode="H" horiz-adv-x="1136" 
d="M791 737q23 0 24 21l90 512q2 20 25 20h143q19 0 19 -14l-222 -1256q-2 -20 -24 -20h-144q-18 0 -18 14q0 4 2 12t4 19q2 12 4 23l86 491q0 14 -18 14h-420q-20 0 -23 -20l-94 -533q-2 -20 -24 -20h-144q-18 0 -18 14q0 4 2 12q3 10 219 1244q2 20 25 20h143q18 0 18 -14
l-86 -483l-6 -41q0 -14 17 -15h420z" />
    <glyph glyph-name="I" unicode="I" horiz-adv-x="491" 
d="M201 0h-144q-18 0 -18 14q0 5 5 30t7 36l209 1190q2 20 25 20h143q18 0 18 -14l-221 -1256q-2 -20 -24 -20z" />
    <glyph glyph-name="J" unicode="J" horiz-adv-x="860" 
d="M846 1276q0 -2 -8 -47l-156 -881q-29 -154 -155 -262t-271 -106q-145 0 -246 104q-24 24 -46 58t-21 44q0 10 18 21l117 53q29 12 37 12t10 -12q35 -117 151 -117q76 1 140 55t78 130l165 942q2 20 25 20h143q19 0 19 -14z" />
    <glyph glyph-name="K" unicode="K" horiz-adv-x="1075" 
d="M1102 1290q20 0 20 -11t-10 -22l-465 -469q-20 -24 -20 -30t12 -31l291 -653q4 -10 13 -29t9 -25q0 -20 -24 -20h-183q-10 0 -14 10l-250 565q-14 31 -37 9l-147 -152l-72 -412q-2 -20 -24 -20h-144q-18 0 -18 10t10 58l211 1202q2 20 25 20h143q18 0 18 -14q0 -4 -6 -35
l-84 -475q-6 -29 -6 -44t15 -15q8 0 20 12l528 563q8 8 19 8h170z" />
    <glyph glyph-name="L" unicode="L" horiz-adv-x="931" 
d="M270 164h512q19 0 19 -14l-23 -130q-2 -20 -24 -20h-697q-18 0 -18 14l221 1256q2 20 25 20h143q18 0 18 -14l-186 -1057l-6 -41q0 -14 16 -14z" />
    <glyph glyph-name="M" unicode="M" horiz-adv-x="1323" 
d="M1128 1290h132q18 0 18 -14q0 -4 -2 -13t-4 -23t-4 -23l-211 -1197q-2 -20 -25 -20h-143q-18 0 -19 14q0 4 9 41l55 322q39 225 102 475l-6 2q-53 -109 -76 -143l-321 -514q-10 -12 -21 -13h-69q-14 0 -17 13l-141 514q-8 31 -15 86t-8 57l-10 -2q-16 -199 -65 -475
l-62 -357q-2 -20 -24 -20h-144q-18 0 -18 14q0 4 2 12q3 12 219 1244q2 20 25 20h131q14 0 16 -12l180 -731l11 -82h6q14 41 41 82l438 731q6 12 20 12z" />
    <glyph glyph-name="N" unicode="N" horiz-adv-x="1136" 
d="M846 0h-131q-12 0 -17 10l-297 793q-14 35 -24 74l-8 -3q-6 -68 -78 -475l-66 -379q-2 -20 -24 -20h-144q-18 0 -18 14q0 2 10 54l211 1202q2 20 25 20h131q12 0 16 -10l297 -795q10 -27 23 -73l10 2q6 68 78 475l65 381q2 20 25 20h143q19 0 19 -14l-222 -1256
q-2 -20 -24 -20z" />
    <glyph glyph-name="O" unicode="O" 
d="M793 993q0 66 -43 110t-111 44h-61q-76 0 -140 -54t-78 -130l-106 -601q-8 -41 -8 -65q0 -66 43 -110t110 -44h62q76 1 139 55t78 130l108 612q7 49 7 53zM981 1032q0 -33 -6 -69l-113 -635q-30 -156 -146 -252t-284 -96h-61q-147 0 -231 75q-83 76 -83 203q0 33 6 70
l113 635q29 155 146 251t284 97h62q147 0 230 -76t83 -203z" />
    <glyph glyph-name="P" unicode="P" horiz-adv-x="993" 
d="M819 973q0 65 -43 109t-110 44h-226q-23 0 -24 -20l-56 -313q-6 -37 -6 -41q0 -14 17 -15h225q76 1 139 55t73 114t11 67zM1006 1004q0 -37 -9 -82q-27 -152 -145 -250t-285 -99h-225q-20 0 -23 -20l-94 -533q-2 -20 -24 -20h-144q-18 0 -18 14q0 4 4 22t6 32l211 1202
q2 20 25 20h409q148 0 230 -76t82 -210z" />
    <glyph glyph-name="Q" unicode="Q" 
d="M793 993q0 66 -43 110t-111 44h-61q-76 0 -140 -54t-78 -130l-104 -590q-10 -66 -10 -78q0 -53 32 -95t52 -42q22 0 26 22l15 84q2 20 24 21h123q24 0 12 -39l-8 -47q-4 -16 -4 -25q0 -16 20 -16t74 49q53 49 66 121l106 600q9 53 9 65zM981 1032q0 -33 -6 -69l-113 -635
q-25 -136 -122 -230t-238 -114q-18 -2 -21 -21l-22 -127q-2 -20 -25 -20h-123q-16 0 -16 14q0 6 4 31l14 80q4 20 4 29t-16 14q-115 16 -179 89t-65 183q0 35 6 72l113 635q29 155 146 251t284 97h62q147 0 230 -76t83 -203z" />
    <glyph glyph-name="R" unicode="R" 
d="M819 973q0 65 -43 109t-110 44h-226q-23 0 -24 -20l-56 -313q-6 -27 -6 -41t17 -15h225q76 1 139 55t73 114t11 67zM1006 1004q0 -31 -12 -107t-86 -160q-73 -84 -140 -112q-16 -6 -16 -21q0 -4 2 -12t4 -22t4 -23l78 -455q2 -12 5 -28l5 -28q2 -11 2 -16q0 -20 -25 -20
h-157q-12 0 -17 14l-94 547q-2 12 -14 12h-203q-20 0 -23 -20l-94 -533q-2 -20 -24 -20h-144q-18 0 -18 14q0 4 8 41l213 1215q2 20 25 20h409q148 0 230 -76t82 -210z" />
    <glyph glyph-name="S" unicode="S" horiz-adv-x="917" 
d="M903 1108q0 -14 -16 -21l-117 -53q-33 -14 -41 -14t-10 12q-39 115 -150 115h-32q-86 0 -153 -68t-67 -143q0 -34 19 -64t37 -42q18 -13 28 -20t34 -19q24 -11 34 -17t38 -20l38 -19q194 -95 235 -207q20 -53 21 -118q0 -186 -125 -308t-314 -122h-86q-170 0 -249 98
q-51 63 -52 108q0 12 15 19l114 53q33 16 41 16t11 -14q14 -55 55 -86t94 -31h86q84 0 153 67q68 67 68 147t-66 128q-46 35 -128 75q-80 40 -116 62q-119 74 -151 150q-22 51 -22 117q0 170 119 296t317 126h33q168 0 250 -97q55 -67 55 -106z" />
    <glyph glyph-name="T" unicode="T" horiz-adv-x="819" 
d="M172 1290h696q19 0 19 -12t-6 -37l-17 -94q-2 -20 -24 -21h-236q-23 0 -24 -20l-191 -1086q-2 -20 -24 -20h-144q-18 0 -18 14q0 4 2 12t4 21q2 12 4 21l176 1003l8 41q0 14 -18 14h-236q-18 0 -18 15l22 129q2 20 25 20z" />
    <glyph glyph-name="U" unicode="U" 
d="M432 -20h-61q-147 0 -231 75q-83 76 -83 203q0 33 6 70l166 942q2 20 25 20h143q19 0 19 -10t-10 -61l-154 -867q-6 -49 -6 -55q0 -66 43 -110t110 -44h62q76 1 139 55t78 130l166 942q2 20 24 20h144q18 0 18 -14l-168 -948q-30 -156 -146 -252t-284 -96z" />
    <glyph glyph-name="V" unicode="V" horiz-adv-x="921" 
d="M289 1290q18 0 18 -14l84 -854q6 -24 6 -84h11q2 6 34 82l389 856q6 14 23 14h154q20 0 20 -14q0 -4 -18 -41l-588 -1221q-6 -14 -23 -14h-110q-16 0 -19 14l-153 1203l-6 51q0 23 24 22h154z" />
    <glyph glyph-name="W" unicode="W" horiz-adv-x="1366" 
d="M1278 1290h156q18 0 18 -14q0 -4 -20 -57l-474 -1203q-6 -16 -22 -16h-111q-16 0 -18 14l-84 725q-6 24 -6 90h-8q-12 -33 -37 -90l-342 -725q-6 -14 -23 -14h-110q-18 0 -19 16l-49 1252q0 23 25 22h155q18 0 19 -16l12 -768q0 -78 2 -94h10q20 57 39 92l348 776
q6 14 23 14h63q18 0 19 -14l74 -776q0 -68 6 -92h10q16 48 39 94l282 768q6 16 23 16z" />
    <glyph glyph-name="X" unicode="X" horiz-adv-x="940" 
d="M1014 1276q0 -8 -17 -31l-385 -567q-18 -27 -18 -36t10 -36l176 -543q12 -35 13 -43q0 -20 -25 -20h-172q-14 0 -16 12l-125 432q-4 16 -15 17q-12 0 -22 -17l-287 -432q-8 -12 -20 -12h-170q-21 0 -21 9t14 32l398 577q14 23 14 28t-10 42l-178 533q-14 47 -15 49
q0 20 25 20h168q12 0 16 -12l135 -438q6 -16 17 -17q10 0 20 17l281 438q10 12 20 12h170q19 0 19 -14z" />
    <glyph glyph-name="Y" unicode="Y" horiz-adv-x="921" 
d="M1001 1290q21 0 21 -10t-23 -43l-458 -645l-101 -572q-2 -20 -24 -20h-144q-18 0 -18 10t8 43l94 539l-225 631q-7 21 -12 32q-4 10 -4 15q0 20 26 20h168q12 0 17 -12l143 -467q6 -16 16 -16t21 16l307 467q8 12 21 12h167z" />
    <glyph glyph-name="Z" unicode="Z" horiz-adv-x="901" 
d="M213 1290h686q19 0 19 -14q0 -2 -21 -39l-643 -1026q-16 -27 -16 -33q0 -14 18 -14h455q18 0 18 -11t-4 -28l-18 -105q-2 -20 -25 -20h-729q-37 0 -2 47l645 1032q16 23 16 35t-18 12h-410q-18 0 -18 15l22 129q2 20 25 20z" />
    <glyph glyph-name="bracketleft" unicode="[" horiz-adv-x="806" 
d="M481 -205q19 0 19 -10t-4 -27l-19 -106q-2 -20 -24 -21h-328q-16 -1 -16 13t8 55l313 1776q2 20 25 20h327q17 0 17 -11t-4 -32l-19 -100q-2 -20 -22 -21h-144q-23 0 -24 -20l-258 -1461l-6 -40q0 -14 16 -15h143z" />
    <glyph glyph-name="backslash" unicode="\" horiz-adv-x="665" 
d="M543 20q0 -20 -25 -20h-69q-14 0 -17 12l-299 1188q-2 12 -9 36t-7 34q0 20 24 20h70q14 0 16 -12l301 -1196q15 -52 15 -62z" />
    <glyph glyph-name="bracketright" unicode="]" horiz-adv-x="811" 
d="M451 1331h-144q-18 0 -18 15q0 4 4 24l18 105q2 20 25 20h328q16 0 16 -14l-322 -1829q-2 -20 -24 -21h-328q-16 0 -16 15l6 41l16 88q2 20 23 20h143q23 0 25 21l258 1460l6 41q0 14 -16 14z" />
    <glyph glyph-name="underscore" unicode="_" horiz-adv-x="450" 
d="M299 -369q18 0 18 -13t-10 -58q-2 -20 -24 -21h-430q-17 -1 -17 17q-2 75 33 75h430z" />
    <glyph glyph-name="grave" unicode="`" horiz-adv-x="1024" 
d="M694 1055q0 -20 -24 -21h-70q-27 0 -45 23l-188 223q-18 18 -19 31q0 20 25 20h153q37 0 49 -24l109 -228q2 -4 4 -9t4 -9t2 -6z" />
    <glyph glyph-name="a" unicode="a" horiz-adv-x="972" 
d="M483 758q-73 0 -137 -54t-76 -131l-34 -202q-6 -27 -7 -54q0 -65 43 -109t115 -44t135 54t78 130l35 197l8 59q0 66 -44 110t-116 44zM354 0q-147 0 -230 76t-83 203q0 33 6 69l39 225q27 156 144 252q118 96 286 97q61 0 121 -33q8 -5 27 -21t28 -16q16 0 21 25l6 24
q2 20 22 21h123q19 -1 19 -15q0 -6 -4 -23t-5 -24l-147 -840q-2 -20 -25 -20h-122q-18 0 -19 14l6 37q0 34 -32 10q-84 -61 -181 -61z" />
    <glyph glyph-name="b" unicode="b" horiz-adv-x="972" 
d="M674 604q0 66 -44 110t-116 44t-136 -54t-77 -131l-37 -213q-4 -29 -4 -43q0 -65 43 -109t115 -44t135 54t78 130l37 207q6 43 6 49zM367 852q6 0 18 8q83 62 197 62t196 -78t82 -203q0 -35 -6 -68l-39 -225q-27 -156 -145 -252t-285 -96q-96 0 -162 61q-12 8 -14 9
q-16 0 -21 -25l-4 -25q-2 -20 -24 -20h-123q-18 0 -19 14q0 4 7 29l215 1227q2 20 24 20h144q18 0 18 -13t-4 -26l-62 -346l-6 -37q0 -16 13 -16z" />
    <glyph glyph-name="c" unicode="c" horiz-adv-x="876" 
d="M825 739q0 -14 -16 -20l-113 -51q-33 -16 -41 -17q-12 0 -14 13q-39 115 -149 114q-76 0 -140 -54t-78 -130l-43 -244q-6 -35 -6 -53q0 -66 43 -110t111 -44q113 0 194 119q7 12 15 12t37 -16l96 -53q8 -6 8 -11t-6 -16q-133 -199 -373 -198q-147 0 -230 76t-83 202
q0 33 6 70l47 266q29 156 146 252q116 96 286 96t250 -98q53 -64 53 -105z" />
    <glyph glyph-name="d" unicode="d" horiz-adv-x="972" 
d="M643 604q0 66 -44 110t-116 44q-73 0 -137 -54t-76 -131l-34 -202q-6 -49 -7 -54q0 -65 43 -109t115 -44t135 54t78 130l33 187q10 61 10 69zM354 0q-147 0 -230 76t-83 203q0 33 6 69l39 225q27 152 144 250q118 98 266 99q88 0 144 -48q25 -22 32 -22q16 0 20 25
l70 393q2 20 24 20h144q18 0 18 -10t-8 -51l-213 -1209q-2 -20 -25 -20h-122q-18 0 -19 14l6 37q0 34 -32 10q-84 -61 -181 -61z" />
    <glyph glyph-name="e" unicode="e" horiz-adv-x="942" 
d="M645 632q0 58 -43 102t-110 44q-109 0 -179 -96q-39 -53 -39 -94q0 -14 17 -15h327q27 1 27 59zM831 645q0 -31 -8 -76l-20 -118q-2 -20 -25 -21h-512q-23 0 -24 -20l-11 -60q-6 -27 -6 -53q0 -66 43 -110t111 -44q113 0 194 119q9 12 15 12t30 -12l103 -57q8 -6 8 -11
t-6 -16q-133 -199 -373 -198q-147 0 -230 76t-83 202q0 33 6 70l47 266q23 131 147 240q124 108 275 108t235 -88t84 -209z" />
    <glyph glyph-name="f" unicode="f" horiz-adv-x="583" 
d="M647 1311q109 0 109 -23q0 -4 -13 -28l-53 -103q-6 -14 -20 -14l-52 4q-76 0 -139 -54t-78 -130l-16 -91q-4 -20 -4 -31t16 -12h144q18 0 18 -14q0 -4 -4 -24l-18 -105q-2 -20 -25 -20h-143q-20 0 -23 -21l-135 -758q-29 -153 -154 -261t-278 -107q-49 0 -96 8
q-22 4 0 45l53 100q6 14 20 15l51 -4q76 0 140 54q63 54 78 130l129 737q8 45 8 47q0 14 -19 15h-51q-16 0 -16 14q0 6 4 31l18 98q2 20 23 20h51q23 0 25 21l16 92q29 154 155 262t279 107z" />
    <glyph glyph-name="g" unicode="g" horiz-adv-x="972" 
d="M643 604q0 66 -44 110t-116 44q-73 0 -137 -54t-76 -131l-34 -202q-6 -27 -7 -54q0 -65 43 -109t115 -44t135 54t78 130l37 207q6 43 6 49zM883 907q0 -4 -2 -12q-2 -7 -4 -21t-5 -26l-170 -961q-30 -166 -142 -267t-288 -101t-258 102q-49 59 -49 100q0 14 15 21l122 57
q25 11 33 11t12 -13q37 -115 152 -114q77 0 141 54t76 130l27 156q4 25 4 28q0 18 -15 19q-6 0 -18 -9q-84 -61 -196 -61t-195 78q-82 78 -82 203q0 35 6 67l39 225q27 156 144 252q118 96 286 97q61 0 121 -33q12 -5 28 -21t27 -16q16 0 21 25l6 24q2 20 22 21h123
q19 -1 19 -15z" />
    <glyph glyph-name="h" unicode="h" horiz-adv-x="960" 
d="M355 852q9 0 22 8q85 62 199 62t195 -78t81 -203q0 -35 -6 -68l-96 -553q-2 -20 -25 -20h-143q-18 0 -19 14q0 4 2 12t4 19q2 12 4 23l82 464q10 66 11 72q0 66 -44 110t-116 44t-135 -54t-78 -131l-96 -553q-2 -20 -25 -20h-143q-18 0 -19 14q0 4 2 12t5 24q3 15 6 28
l208 1192q2 20 25 20h143q18 0 19 -14l-66 -371l-6 -37q0 -16 9 -16z" />
    <glyph glyph-name="i" unicode="i" horiz-adv-x="434" 
d="M360 909q0 -12 -10 -59l-145 -830q-2 -20 -25 -20h-143q-18 0 -19 14q0 2 13 64l145 823q2 20 23 21h143q18 -1 18 -13zM335 1311q99 0 99 -98q0 -47 -41 -87t-89 -41q-48 0 -74 26t-26 73t42 87q41 40 89 40z" />
    <glyph glyph-name="j" unicode="j" horiz-adv-x="450" 
d="M360 907q0 -4 -2 -12q-2 -7 -4 -21t-4 -24l-170 -965q-18 -102 -80 -184t-159 -132q-96 -50 -174 -50q-16 0 -17 14l23 129q2 16 20 21q78 12 132 63t67 119l184 1036q2 20 23 21h143q18 -1 18 -15zM335 1311q99 0 99 -98q0 -47 -41 -87t-89 -41q-48 0 -74 26t-26 73
t42 87q41 40 89 40z" />
    <glyph glyph-name="k" unicode="k" horiz-adv-x="919" 
d="M879 908q0 -13 -13 -21l-303 -262q-20 -15 -20 -23t10 -29l225 -507q18 -41 19 -46q0 -20 -27 -20h-180q-12 0 -17 10l-184 426q-12 25 -33 4l-92 -80l-59 -340q-2 -20 -25 -20h-143q-18 0 -19 14q0 3 4 23t7 31l211 1202q2 20 24 20h144q18 0 18 -12t-8 -49l-107 -604
q0 -16 15 -17q10 0 18 8l322 295q10 10 20 11h172q21 -1 21 -14z" />
    <glyph glyph-name="l" unicode="l" horiz-adv-x="442" 
d="M422 1276q0 -2 -10 -57l-211 -1199q-2 -20 -25 -20h-143q-19 0 -19 11t6 33t7 34l209 1192q2 20 24 20h143q19 0 19 -14z" />
    <glyph glyph-name="m" unicode="m" horiz-adv-x="1474" 
d="M343 850q9 0 22 8q91 64 197 64t173 -72q29 -29 34 -29t34 25q90 76 229 76t219 -77t80 -202q0 -33 -6 -70l-96 -553q-2 -20 -25 -20h-143q-18 0 -19 14q0 4 2 12t5 19q2 12 4 23l86 487q6 43 6 51q0 64 -40 108t-96 44q-55 0 -119 -56t-77 -129l-96 -553q-2 -20 -25 -20
h-143q-18 0 -19 14q0 4 2 12t5 19q2 12 4 23l86 487q6 49 6 51q0 64 -40 108t-97 44q-56 0 -118 -56t-77 -129l-96 -553q-2 -20 -25 -20h-143q-19 0 -19 10t6 32q5 22 7 36l145 823q2 20 23 21h123q18 0 18 -15l-6 -41q0 -16 9 -16z" />
    <glyph glyph-name="n" unicode="n" horiz-adv-x="995" 
d="M343 852q9 0 22 8q84 61 182 62q147 0 231 -76t84 -203q0 -20 -8 -70l-96 -553q-2 -20 -25 -20h-143q-18 0 -19 14q0 5 9 41l88 502q6 43 6 47q0 66 -44 110t-116 44t-135 -54t-78 -131l-96 -553q-2 -20 -25 -20h-143q-18 0 -19 14l158 887q2 20 23 21h123q18 0 18 -15
l-6 -39q0 -16 9 -16z" />
    <glyph glyph-name="o" unicode="o" horiz-adv-x="950" 
d="M653 625q0 65 -43 109q-42 44 -114 44t-136 -54t-77 -130l-43 -242q-6 -27 -7 -55q0 -66 43 -110t115 -44q72 1 135 55t78 130l43 243q6 27 6 54zM842 664q0 -33 -6 -70l-48 -266q-30 -156 -146 -252t-274 -96t-240 76q-83 76 -83 202q0 33 6 70l47 266q29 156 146 252
t274 96q156 0 240 -76t84 -202z" />
    <glyph glyph-name="p" unicode="p" horiz-adv-x="972" 
d="M674 604q0 66 -44 110t-116 44t-136 -54t-77 -131l-37 -213q-4 -29 -4 -43q0 -65 43 -109t115 -44t135 54t78 130l37 207q6 43 6 49zM343 852q9 0 22 8q84 61 182 62q147 0 231 -76t84 -203q0 -20 -8 -70l-39 -225q-27 -152 -145 -250t-264 -98q-96 0 -162 61
q-12 8 -15 9q-16 0 -20 -25l-86 -485q-2 -20 -25 -21h-143q-16 0 -16 15l237 1347q2 20 23 21h123q18 0 18 -15l-6 -39q0 -16 9 -16z" />
    <glyph glyph-name="q" unicode="q" horiz-adv-x="972" 
d="M643 604q0 66 -44 110t-116 44q-73 0 -137 -54t-76 -131l-34 -202q-6 -27 -7 -54q0 -65 43 -109t115 -44t135 54t78 130l37 207q6 43 6 49zM883 907q0 -6 -9 -47l-229 -1300q-2 -20 -24 -21h-144q-16 0 -16 15q0 8 8 53l70 393q8 45 8 51q0 18 -15 19q-6 0 -18 -9
q-84 -61 -196 -61t-195 78q-82 78 -82 203q0 35 6 67l39 225q27 156 144 252q118 96 286 97q63 0 127 -37l20 -15q11 -8 17 -13t12 -5q16 0 21 25l6 24q2 20 22 21h123q19 -1 19 -15z" />
    <glyph glyph-name="r" unicode="r" horiz-adv-x="626" 
d="M339 811q11 -1 31 21t76 56t92 34q78 0 78 -19q0 -6 -6 -31l-24 -137q-4 -18 -19 -18l-55 10q-82 0 -140 -44t-73 -130l-94 -533q-2 -20 -25 -20h-143q-18 0 -19 14q0 2 11 54l147 833q2 20 23 21h123q18 0 18 -15l-12 -78q0 -18 11 -18z" />
    <glyph glyph-name="s" unicode="s" horiz-adv-x="901" 
d="M825 754q0 -26 -16 -33l-102 -47q-33 -16 -39 -17q-8 0 -13 13q-16 49 -59 82t-96 32h-62q-92 0 -132 -39t-40 -77t20 -57q20 -20 39 -27q19 -8 29 -12t34 -10t42 -10t74 -14q185 -35 229 -116q20 -37 21 -86q0 -125 -102 -241t-296 -115h-61q-178 0 -254 104
q-45 62 -45 86t16 31l113 51q25 12 32 12t11 -12q16 -49 59 -82t97 -33h61q84 0 131 44t47 81t-13 50t-26 24t-60 23t-62 16t-73 14q-182 32 -231 116q-20 36 -20 87q0 131 105 241t282 109h61q180 0 258 -106q41 -56 41 -82z" />
    <glyph glyph-name="t" unicode="t" horiz-adv-x="645" 
d="M424 922h143q19 -1 19 -12t-4 -27l-19 -105q-2 -20 -24 -20h-144q-23 0 -24 -21l-66 -375q-8 -53 -8 -65q0 -57 37 -99t102 -53q20 -3 6 -53l-16 -90q-2 -20 -23 -20q-111 0 -203 70t-91 206q0 33 6 70l63 358q2 10 4 22t4 21q2 8 2 14q0 14 -18 15h-113q-16 0 -16 14
l4 25l12 53l273 244q16 12 26 12h60q18 0 18 -14l-20 -115l-6 -41q0 -14 16 -14z" />
    <glyph glyph-name="u" unicode="u" horiz-adv-x="983" 
d="M590 0q-18 0 -18 20t6 33q0 17 -10 17t-23 -9q-84 -61 -180 -61q-147 0 -231 76q-83 76 -83 203q0 33 6 69l99 553q2 20 22 21h144q18 0 18 -12t-8 -50l-82 -467q-10 -51 -10 -76q0 -65 43 -109t115 -44t134 54q63 54 78 130l99 553q2 20 22 21h143q19 -1 19 -15
l-156 -887q-2 -20 -24 -20h-123z" />
    <glyph glyph-name="v" unicode="v" horiz-adv-x="880" 
d="M918 911q0 -10 -19 -43l-498 -856q-6 -12 -20 -12h-115q-12 0 -16 12l-184 809q-18 78 -19 80q0 20 25 21h153q12 0 17 -13l118 -551q8 -41 9 -79h8q12 39 37 79l311 551q6 12 20 13h154q19 -1 19 -11z" />
    <glyph glyph-name="w" unicode="w" horiz-adv-x="1243" 
d="M1264 907q0 -4 -17 -37l-411 -856q-6 -14 -23 -14h-111q-16 0 -18 14l-59 518q0 4 -7 80h-8q-8 -20 -37 -80l-243 -518q-6 -14 -23 -14h-110q-16 0 -19 14l-104 817q-8 49 -8 70t24 21h154q18 0 18 -15l39 -487q6 -54 6 -80h8q0 2 35 80l221 487q6 14 23 15h145
q18 0 19 -15l47 -485q0 -24 8 -80h8q6 16 20 42q13 26 19 40l207 483q6 14 23 15h153q21 -1 21 -15z" />
    <glyph glyph-name="x" unicode="x" horiz-adv-x="835" 
d="M866 913q0 -8 -22 -39l-320 -382q-18 -20 -18 -26t10 -34l172 -364q20 -45 21 -48q0 -20 -25 -20h-168q-12 0 -16 10l-129 291q-7 14 -17 14t-20 -14l-232 -291q-6 -10 -20 -10h-164q-18 0 -18 11t30 48l314 379q14 18 14 28t-10 30l-174 362q-18 37 -19 43q0 20 25 21
h166q10 0 14 -11l131 -293q5 -12 13 -12t18 12l235 293q6 10 19 11h170q20 -1 20 -9z" />
    <glyph glyph-name="y" unicode="y" horiz-adv-x="983" 
d="M893 907q0 -7 -4 -25q-4 -17 -6 -32l-170 -963q-29 -166 -142 -267t-287 -101q-218 0 -292 154q-16 34 -17 48q0 14 15 21l119 55q25 13 35 13t14 -13q37 -115 151 -114q76 0 141 54t76 130l23 133q6 29 6 45t-12 16t-21 -8q-68 -53 -157 -53q-147 0 -231 76
q-83 76 -83 203q0 33 6 69l99 553q2 20 22 21h144q18 0 18 -15q0 -6 -8 -47l-86 -487q-6 -29 -6 -56q0 -65 43 -109t115 -44t134 54q63 54 78 130l99 553q2 20 22 21h143q19 -1 19 -15z" />
    <glyph glyph-name="z" unicode="z" horiz-adv-x="880" 
d="M836 905q0 -8 -7 -16l-540 -694q-8 -12 -8 -17q0 -14 20 -14h397q18 0 18 -10t-3 -27l-19 -107q-2 -20 -24 -20h-715q-20 0 -21 14q0 4 9 17l536 694q8 12 8 16q0 14 -20 15h-358q-16 0 -17 14q0 2 4 31l17 98q2 20 24 21h678q21 -1 21 -15z" />
    <glyph glyph-name="braceleft" unicode="{" horiz-adv-x="897" 
d="M856 1493q16 0 16 -12t-6 -43l-16 -88q-2 -16 -21 -21q-78 -12 -132 -63t-66 -119l-60 -338q-10 -59 -61 -128t-109 -103q-14 -10 -14 -18q1 -8 23 -28t54 -91t13 -162l-49 -279q-6 -29 -6 -51q0 -57 37 -99t102 -53q12 -2 12 -14t-6 -39l-16 -90q-2 -20 -23 -21
q-82 0 -151 37q-141 72 -141 248q0 37 8 82l47 268q8 41 8 60q0 57 -37 99t-102 52q-19 6 -6 56l16 92q2 16 20 20q78 11 132 63t67 119l53 297q45 254 273 338q78 29 141 29z" />
    <glyph glyph-name="braceright" unicode="}" horiz-adv-x="897" 
d="M289 1341q0 10 6 41l16 91q2 20 23 20q80 0 155 -39q137 -72 138 -246q0 -25 -9 -82l-47 -268q-8 -45 -8 -59q0 -57 37 -99t102 -53q13 -4 13 -14l-6 -41l-17 -92q-2 -16 -20 -21q-78 -12 -132 -63t-67 -119l-53 -297q-41 -238 -244 -328q-86 -39 -170 -39q-16 0 -16 15
q0 8 4 28l18 101q2 16 21 20q78 11 132 63t66 120l58 323q10 59 62 131t110 111q14 10 14 18t-8 15q-39 31 -66 87q-27 55 -27 93t9 80l49 280l8 60q0 57 -37 99t-102 52q-12 2 -12 12z" />
    <glyph glyph-name="nbspace" unicode="&#xa0;" 
 />
    <glyph glyph-name="exclamdown" unicode="&#xa1;" horiz-adv-x="600" 
d="M41 -369q-18 1 -18 13t8 49l86 487l106 355q6 18 23 18h55q18 0 18 -16l-18 -357l-92 -528q-2 -20 -25 -21h-143zM339 942q99 0 99 -98q0 -47 -41 -87t-89 -40q-48 -1 -74 25t-26 73t42 87q41 40 89 40z" />
    <glyph glyph-name="cent" unicode="&#xa2;" 
d="M516 784q4 42 -67 -4q-82 -57 -97 -145l-47 -266q-14 -82 39 -140q31 -31 50 -31t22 21zM629 803q-16 0 -23 -21l-98 -561q-2 -20 12 -20q25 -1 62 29t67 71q11 12 19 12t34 -14l95 -53q10 -4 9 -18t-58 -76q-106 -111 -259 -127q-18 -2 -20 -21l-23 -127q-2 -20 -22 -20
h-51q-20 0 -19 20l23 127q2 16 -17 21q-137 18 -200 111t-39 233l47 266q25 139 121 232t239 112q23 4 25 20l22 127q2 20 25 21h51q18 0 17 -21l-23 -127q-2 -18 12 -20q147 -16 215 -131q33 -60 30 -72t-15 -16l-109 -51q-39 -17 -46 -17t-16 28t-40 56t-47 27z" />
    <glyph glyph-name="sterling" unicode="&#xa3;" 
d="M240 573h-52q-16 0 -16 15q0 8 4 28l19 101q2 20 22 20h51q23 0 25 21l33 184q28 154 154 262t291 107q203 0 279 -161q15 -34 15 -45t-16 -18l-113 -51q-33 -16 -42 -16t-13 12q-39 115 -150 115q-76 0 -139 -54t-78 -130l-31 -172q-6 -31 -6 -39q0 -14 17 -15h143
q18 0 18 -14l-22 -129q-2 -20 -25 -21h-143q-20 0 -23 -20l-41 -225q-10 -63 -63 -133q-8 -12 -8 -17q0 -14 20 -14h463q18 0 18 -14l-22 -130q-2 -20 -25 -20h-880q-18 0 -19 14l23 129q2 20 24 21h95q72 10 127 62t67 122l31 174l6 37q0 14 -18 14z" />
    <glyph glyph-name="currency" unicode="&#xa4;" 
d="M674 1169q-84 0 -154 -58t-84 -142l-10 -66q-4 -20 16 -20h306q18 0 16 -21l-16 -90q-2 -20 -23 -20h-305q-20 0 -25 -21l-30 -174q-4 -20 16 -20h305q23 0 16 -21l-14 -88q-2 -20 -24 -20h-306q-20 0 -24 -21l-10 -65q-12 -84 34 -143q47 -58 129 -58h64q117 0 203 117
q16 16 28 8l99 -56q16 -8 4 -26q-53 -74 -137 -130t-222 -54h-63q-164 0 -244 94t-57 248l10 65q4 20 -16 21h-123q-18 0 -17 20l15 88q6 20 24 21h123q20 0 25 20l30 174q4 20 -16 21h-123q-20 0 -18 20l16 90q2 20 25 21h123q20 0 24 20l10 66q23 153 141 247t283 95h64
q152 0 231 -80q37 -38 62 -101q8 -16 -15 -28l-118 -53q-16 -8 -23 8q-49 113 -162 112h-63z" />
    <glyph glyph-name="yen" unicode="&#xa5;" 
d="M352 676q27 0 27 18q0 2 -19 58l-163 456q-20 57 -21 62q0 20 27 20h168q12 0 16 -12l143 -467q6 -16 16 -16t21 16l307 467q8 12 21 12h168q20 0 20 -10t-22 -41l-377 -532q-8 -11 -8 -21t20 -10h248q18 0 19 -14q0 -16 -7 -35l-12 -74q-2 -20 -24 -21h-308
q-23 0 -24 -20l-23 -129l-6 -41q0 -14 16 -14h308q18 0 18 -15l-18 -108q-2 -20 -25 -21h-307q-23 0 -25 -20l-24 -144q-2 -20 -25 -20h-143q-18 0 -18 10t6 39l14 80q6 27 6 41t-16 14h-308q-18 0 -18 15l18 108q2 20 25 21h307q23 0 25 20l22 129q6 31 6 43t-16 12h-307
q-18 0 -19 15l19 108q2 20 24 21h248z" />
    <glyph glyph-name="brokenbar" unicode="&#xa6;" horiz-adv-x="491" 
d="M305 -369h-123v746h123v-746zM305 750h-123v745h123v-745z" />
    <glyph glyph-name="section" unicode="&#xa7;" 
d="M634 244q8 0 28 32t20 84q0 50 -34 92t-66 61t-73 39q-40 20 -45 21q-11 4 -51 26q-41 22 -50 23t-15 -10q-39 -53 -39 -120t68 -111q68 -43 117 -65q48 -22 78 -40t42 -25t20 -7zM973 1108q0 -14 -17 -21l-116 -53q-33 -14 -41 -14t-11 12q-39 115 -149 115h-33
q-86 0 -152 -66t-67 -134q0 -68 50 -110t121 -75q72 -33 142 -73q70 -41 120 -111t50 -168q0 -156 -86 -263q-2 -4 -12 -14t-10 -15q0 -4 7 -22q23 -57 24 -127q0 -186 -125 -308t-314 -122h-86q-212 0 -286 158q-16 35 -16 47t16 18l112 54q33 14 41 14t12 -12
q37 -115 150 -115h86q84 0 153 67q68 67 68 140q0 72 -50 120t-121 81t-141 71t-121 105q-50 68 -50 162q0 156 92 266q18 23 18 29t-6 16q-28 54 -28 127q0 172 121 298q122 126 317 126h33q172 0 254 -101q51 -65 51 -102z" />
    <glyph glyph-name="dieresis" unicode="&#xa8;" horiz-adv-x="1024" 
d="M456 1278q42 0 66 -24t23 -66q0 -41 -37 -78t-79 -37t-67 26q-24 25 -24 65t38 77t80 37zM777 1278q41 0 65 -24t24 -66q0 -41 -37 -78t-79 -37t-66 26q-24 25 -25 65q0 40 38 77t80 37z" />
    <glyph glyph-name="copyright" unicode="&#xa9;" horiz-adv-x="1474" 
d="M886 680q-8 0 -14 10q-39 76 -110 76q-72 0 -124 -43t-63 -107l-34 -202q-10 -61 26 -107q37 -45 107 -45t137 80q10 10 17 10t22 -10l45 -27q30 -12 -43 -80q-74 -67 -198 -67t-182 68t-40 178l35 202q18 109 101 176q83 66 205 66t177 -72q29 -41 27 -53t-12 -18
l-47 -23q-24 -12 -32 -12zM991 1055h-368q-125 0 -213 -71t-109 -185l-104 -594q-20 -115 43 -186t188 -70h369q125 1 213 71t108 185l105 594q20 115 -43 185t-189 71zM780 -143h-368q-168 0 -252 96t-56 252l105 594q29 156 145 252q117 96 285 96h369q168 0 252 -96
t55 -252l-105 -594q-30 -156 -146 -252t-284 -96z" />
    <glyph glyph-name="ordfeminine" unicode="&#xaa;" horiz-adv-x="679" 
d="M339 774q48 0 90 34t50 81l29 172q4 12 4 24q2 43 -27 71t-77 28t-88 -33t-50 -80l-30 -172l-2 -25q-4 -44 24 -72t77 -28zM479 649q-12 0 -12 13l10 55q0 6 -7 9t-15 -5q-69 -72 -167 -72t-155 50t-57 145q0 39 4 57l29 164q20 113 101 179q80 66 186 67q106 0 155 -70
q17 -21 22 6l9 49q4 14 18 15h96q17 -1 13 -13q0 -2 -9 -51l-102 -583q-2 -14 -16 -15h-103z" />
    <glyph glyph-name="guillemotleft" unicode="&#xab;" horiz-adv-x="1134" 
d="M594 942q10 0 10 -14l-22 -123q-4 -14 -17 -23l-305 -194q-14 -10 -14 -18t8 -15l231 -190q15 -13 15 -21t-4 -29l-17 -92q-4 -23 -20 -22q-6 0 -27 16l-334 270q-12 8 -12 21l20 123q2 12 13 16l438 279q27 16 37 16zM688 570q0 -8 8 -15l232 -190q14 -13 14 -21t-4 -29
l-16 -92q-4 -23 -21 -22q-6 0 -27 16l-333 270q-16 11 -12 33q5 22 6 29l14 82q2 12 12 16l438 279q27 16 33 16q15 0 15 -14l-23 -123q-4 -14 -16 -23l-306 -194q-14 -10 -14 -18z" />
    <glyph glyph-name="logicalnot" unicode="&#xac;" 
d="M889 246h-92q-23 0 -17 20l58 328q2 20 -17 20h-686q-20 0 -18 21l14 82q6 20 25 20h819q22 0 16 -20l-78 -451q-6 -20 -24 -20z" />
    <glyph glyph-name="registered" unicode="&#xae;" horiz-adv-x="901" 
d="M520 928q34 0 56 24t22 54q0 59 -53 59h-66q-23 0 -24 -21l-15 -79q-4 -16 -4 -23q0 -14 19 -14h65zM426 1122h129q51 0 80 -26t29 -74q0 -84 -74 -129q-12 -6 -12 -19l30 -96q6 -18 6 -20q0 -20 -26 -21h-33q-10 0 -14 13l-29 108q-4 12 -16 12h-52q-23 0 -24 -20
l-17 -92q-2 -20 -24 -21h-23q-16 0 -16 15l61 350q2 20 25 20zM817 999q0 105 -71 167t-191 63h-8q-139 0 -237 -79q-98 -78 -116 -186t-18 -120q0 -104 71 -166t191 -64h8q139 0 238 79q98 79 121 208q12 73 12 98zM879 1012q0 -45 -13 -111q-30 -156 -146 -252t-284 -96
h-8q-147 0 -231 76t-84 202q0 39 14 111q29 156 145 252q117 96 285 96h8q147 0 231 -76t83 -202z" />
    <glyph glyph-name="macron" unicode="&#xaf;" horiz-adv-x="1024" 
d="M799 1106h-430q-17 0 -17 10t4 35l19 98q2 20 22 21h430q19 -1 19 -15l-23 -129q-2 -20 -24 -20z" />
    <glyph glyph-name="degree" unicode="&#xb0;" horiz-adv-x="563" 
d="M310 848q22 0 44 17t25 40l29 164q8 37 8 51t-16 30t-38 15q-22 0 -41 -17t-24 -42l-37 -211q0 -19 14 -33t36 -14zM553 1143q0 -12 -4 -37l-35 -201q-14 -82 -76 -133t-145 -51q-84 0 -128 40t-44 107q0 12 4 37l35 199q14 82 76 134t146 52q83 0 127 -40t44 -107z" />
    <glyph glyph-name="plusminus" unicode="&#xb1;" 
d="M834 0h-820q-18 0 -16 20l14 82q2 20 25 21h819q18 -1 16 -21l-14 -82q-2 -20 -24 -20zM614 614q-20 0 -22 -20l-60 -328q-2 -20 -22 -20h-82q-20 0 -18 20l59 328q2 20 -18 20h-328q-18 0 -17 21l15 82q2 20 24 20h328q18 0 25 21l57 327q2 20 25 21h82q18 0 16 -21
l-57 -327q-6 -20 16 -21h328q18 0 16 -20l-14 -82q-2 -20 -25 -21h-328z" />
    <glyph glyph-name="twosuperior" unicode="&#xb2;" horiz-adv-x="690" 
d="M258 641h328q12 0 10 -10l-18 -105q-2 -12 -15 -12h-481q-12 0 -10 12l16 92q25 131 99 178q74 48 124 61q51 13 78 21t35 11q8 2 28 9t26 13q7 6 23 19t20 47q5 35 -17 61t-72 27h-53q-59 0 -123 -74q-10 -14 -18 -8l-97 49q-10 6 -4 19q106 141 262 141h56
q115 0 171 -64t39 -164q-17 -101 -101 -141q-83 -41 -153 -59q-69 -18 -92 -28q-66 -27 -71 -70l-2 -13q0 -12 12 -12z" />
    <glyph glyph-name="threesuperior" unicode="&#xb3;" horiz-adv-x="690" 
d="M303 432h-39q-88 0 -137 34t-76 105q-4 12 8 23l113 47q12 4 18 -6q35 -76 101 -76h35q47 0 84 31t45 76l8 47q8 43 -19 73t-73 29h-115q-10 0 -10 14l18 101q2 12 15 12h114q49 0 85 32t46 86t-16 84q-27 30 -74 30h-35q-68 0 -127 -74q-12 -14 -20 -6l-96 49
q-10 6 0 20q100 139 262 140h39q117 1 175 -67t38 -179l-4 -23q-8 -47 -44 -88t-75 -57q-10 -6 -2 -10q33 -21 55 -65t10 -97l-8 -41q-22 -112 -102 -178t-197 -66z" />
    <glyph glyph-name="acute" unicode="&#xb4;" horiz-adv-x="1024" 
d="M903 1331q21 0 21 -12t-13 -23l-284 -239q-31 -23 -54 -23h-69q-18 0 -19 13q0 12 7 18l200 242q18 25 58 24h153z" />
    <glyph glyph-name="mu" unicode="&#xb5;" horiz-adv-x="983" 
d="M711 0h-123q-18 0 -17 20l4 25q4 25 -14 25q-6 0 -18 -9q-83 -61 -173 -61t-165 31q-20 10 -25 -15l-55 -323q-2 -20 -25 -21h-143q-18 0 -16 21l213 1208q2 20 22 21h143q20 0 19 -21l-98 -553q-14 -76 30 -130t121 -54q76 0 139 54t78 130l99 553q2 20 22 21h143
q21 -1 19 -21l-156 -881q-2 -20 -24 -20z" />
    <glyph glyph-name="paragraph" unicode="&#xb6;" horiz-adv-x="1259" 
d="M449 184h-41q-145 0 -230 78q-84 78 -84 203q0 35 6 67l68 390q29 168 147 268q119 100 287 100h594q18 0 18 -14q0 -6 -2 -14t-5 -26t-7 -40l-289 -1636q-2 -20 -24 -21h-144q-16 1 -16 15t8 51l256 1454l4 24q2 13 4 19t2 10q0 14 -18 14h-143q-23 0 -25 -20
l-272 -1546q-2 -20 -25 -21h-143q-16 0 -17 15q0 16 9 53l92 522l6 41q0 14 -16 14z" />
    <glyph glyph-name="periodcentered" unicode="&#xb7;" 
d="M502 381q-47 0 -74 33t-18 80q8 48 47 80t86 32t73 -32t19 -80q-8 -47 -47 -80t-86 -33z" />
    <glyph glyph-name="cedilla" unicode="&#xb8;" horiz-adv-x="1024" 
d="M481 -215q0 -124 -80 -185t-168 -61h-98q-16 0 -16 15q0 8 4 28l10 60q2 20 25 20h98q28 0 56 23t28 74q0 52 -53 63l-37 6q-18 4 -18 12t10 25l116 176q10 12 16 12t36 -6l57 -12q14 -3 14 -13t-12 -26l-47 -72q-8 -12 -8 -18t22 -23q45 -32 45 -98z" />
    <glyph glyph-name="onesuperior" unicode="&#xb9;" horiz-adv-x="690" 
d="M557 514h-446q-10 0 -11 12l19 103q4 12 14 12h135q16 0 17 14l49 275q2 8 -3 11t-14 -3l-71 -57q-12 -6 -19 0l-61 69q-8 8 2 19l268 219q12 4 17 4h61q10 0 8 -14l-92 -523q0 -14 14 -14h136q14 0 10 -12l-19 -103q0 -12 -14 -12z" />
    <glyph glyph-name="ordmasculine" unicode="&#xba;" horiz-adv-x="659" 
d="M413 1180q-55 0 -95 -33t-50 -88l-32 -187q-8 -55 20 -90q28 -34 82 -34q53 0 96 36t51 88l33 187q8 55 -21 88q-30 33 -84 33zM436 1311q124 1 188 -69t44 -183l-33 -187q-21 -112 -109 -182t-212 -70t-185 70t-41 182l33 187q20 115 106 183t209 69z" />
    <glyph glyph-name="guillemotright" unicode="&#xbb;" horiz-adv-x="1134" 
d="M160 798q0 8 4 29l16 93q4 23 21 22q6 0 26 -16l334 -271q12 -8 12 -20l-20 -123q-2 -12 -12 -16l-439 -279q-27 -16 -32 -16q-14 0 -15 14l23 123q4 14 16 22l305 195q14 10 15 18q0 8 -8 15l-232 190q-14 12 -14 20zM856 573q0 8 -8 15l-232 190q-14 12 -14 20t4 29
l17 93q4 23 20 22q6 0 27 -16l334 -271q12 -8 12 -20l-6 -41l-15 -82q-2 -12 -12 -16l-438 -279q-27 -16 -37 -16t-10 14l22 123q4 14 17 22l305 195q14 10 14 18z" />
    <glyph glyph-name="onequarter" unicode="&#xbc;" horiz-adv-x="1953" 
d="M1288 139q14 0 17 13l53 307q2 4 -5 7t-10 -1l-243 -305q-16 -20 4 -21h184zM678 514h-445q-12 0 -12 12l19 103q2 12 16 12h133q18 0 19 14l49 275q2 8 -3 11t-14 -3l-73 -57q-10 -8 -19 0l-59 69q-8 8 2 19l268 219q12 4 16 4h62q10 0 8 -14l-92 -523q0 -14 14 -14h133
q13 0 11 -12l-19 -103q0 -12 -14 -12zM1440 16q-10 0 -15 -12l-28 -168q-4 -12 -17 -12h-120q-14 0 -11 12l29 168q4 12 -12 12h-336q-12 0 -12 13l20 108l457 518q6 6 16 7h117q14 0 12 -13l-86 -489q-2 -14 10 -15h95q14 0 10 -12l-19 -104q0 -12 -16 -13h-94zM616 0h-49
q-31 0 -14 29l756 1249q10 12 20 12h49q31 1 15 -28l-756 -1250q-6 -12 -21 -12z" />
    <glyph glyph-name="onehalf" unicode="&#xbd;" horiz-adv-x="1953" 
d="M678 514h-445q-12 0 -12 12l19 103q2 12 16 12h133q18 0 19 14l49 275q2 8 -3 11t-14 -3l-73 -57q-10 -8 -19 0l-59 69q-8 8 2 19l268 219q12 4 16 4h62q10 0 8 -14l-92 -523q0 -14 14 -14h133q13 0 11 -12l-19 -103q0 -12 -14 -12zM616 0h-49q-31 0 -14 29l756 1249
q10 12 20 12h49q31 1 15 -28l-756 -1250q-6 -12 -21 -12zM1212 127h326q6 0 10 -2t2 -8l-18 -105q-2 -12 -16 -12h-480q-12 0 -10 12l16 92q25 131 99 179t124 60q51 13 73 21t30 9q8 2 26 8t25 10t19 11t21 21t15 44q5 31 -18 57t-74 27h-51q-59 0 -123 -74q-4 -14 -18 -8
l-94 49q-16 6 -4 19q102 141 260 141h53q117 0 173 -62t41 -149q-15 -86 -42 -111q-29 -26 -43 -38t-46 -25q-32 -12 -54 -21t-88 -26q-106 -35 -129 -62q-36 -57 -5 -57z" />
    <glyph glyph-name="threequarters" unicode="&#xbe;" horiz-adv-x="1953" 
d="M1288 139q14 0 17 13l53 307q2 4 -5 7t-10 -1l-243 -305q-16 -20 4 -21h184zM459 432h-39q-164 0 -211 139q-4 14 8 23l111 47q12 6 20 -6q31 -76 98 -76h35q47 0 84 31t45 76l8 47q8 43 -18 73t-74 29h-114q-10 0 -11 14l19 101q2 12 14 12h115q49 0 85 32t46 86t-16 84
q-27 30 -74 30h-35q-70 0 -125 -74q-10 -14 -22 -6l-95 49q-10 6 0 20q98 139 260 140h39q117 1 176 -67t39 -179l-4 -23q-8 -47 -44 -88t-77 -57q-10 -6 -2 -10q33 -21 56 -65t12 -97l-8 -41q-23 -112 -104 -178t-197 -66zM1440 16q-10 0 -15 -12l-28 -168q-4 -12 -17 -12
h-120q-14 0 -11 12l29 168q4 12 -12 12h-336q-12 0 -12 13l20 108l457 518q6 6 16 7h117q14 0 12 -13l-86 -489q-2 -14 10 -15h95q14 0 10 -12l-19 -104q0 -12 -16 -13h-94zM616 0h-49q-31 0 -14 29l756 1249q10 12 20 12h49q31 1 15 -28l-756 -1250q-6 -12 -21 -12z" />
    <glyph glyph-name="questiondown" unicode="&#xbf;" 
d="M770 -183q0 -11 -51 -69q-127 -137 -326 -137h-78q-147 0 -230 76q-83 77 -83 213t80 241q29 39 76 73q46 34 70 44t82 36t88 43t65 58t35 135q0 23 24 23h142q18 0 18 -16q0 -131 -48 -203q-14 -22 -24 -39t-35 -35t-33 -28t-41 -25q-32 -15 -38 -19t-42 -20
q-149 -66 -190 -119t-41 -120t43 -111t111 -43h78q113 0 190 114q10 13 18 13t42 -19l88 -49q10 -6 10 -17zM630 942q99 0 99 -98q0 -47 -41 -87t-89 -40q-48 -1 -74 25q-25 26 -25 73t41 87t89 40z" />
    <glyph glyph-name="Agrave" unicode="&#xc0;" horiz-adv-x="921" 
d="M557 485q0 16 -4 54l-27 333q-2 8 -4 46t-4 45h-8q-35 -87 -41 -93l-152 -346q-18 -45 -18 -49q0 -14 18 -14h215q25 -1 25 24zM805 23q0 -23 -25 -23h-153q-18 0 -19 14l-26 271q0 12 -19 12h-332q-18 0 -22 -12l-125 -271q-6 -14 -23 -14h-153q-18 0 -18 11t18 48
l586 1217q6 14 22 14h111q16 0 18 -14l156 -1210q4 -29 4 -43zM692 1418q0 -11 -16 -11h-101q-14 0 -30 12l-215 199q-31 31 4 33h211q16 0 24 -15l113 -192q10 -15 10 -26z" />
    <glyph glyph-name="Aacute" unicode="&#xc1;" horiz-adv-x="921" 
d="M557 485q0 16 -4 54l-27 333q-2 8 -4 46t-4 45h-8q-35 -87 -41 -93l-152 -346q-18 -45 -18 -49q0 -14 18 -14h215q25 -1 25 24zM805 23q0 -23 -25 -23h-153q-18 0 -19 14l-26 271q0 12 -19 12h-332q-18 0 -22 -12l-125 -271q-6 -14 -23 -14h-153q-18 0 -18 11t18 48
l586 1217q6 14 22 14h111q16 0 18 -14l156 -1210q4 -29 4 -43zM946 1639q0 -11 -10 -17l-291 -203q-18 -12 -35 -12h-100q-12 0 -12 6t16 27l184 196q14 14 29 15h207q12 -1 12 -12z" />
    <glyph glyph-name="Acircumflex" unicode="&#xc2;" horiz-adv-x="921" 
d="M557 485q0 16 -4 54l-27 333q-2 8 -4 46t-4 45h-8q-35 -87 -41 -93l-152 -346q-18 -45 -18 -49q0 -14 18 -14h215q25 -1 25 24zM805 23q0 -23 -25 -23h-153q-18 0 -19 14l-26 271q0 12 -19 12h-332q-18 0 -22 -12l-125 -271q-6 -14 -23 -14h-153q-18 0 -18 11t18 48
l586 1217q6 14 22 14h111q16 0 18 -14l156 -1210q4 -29 4 -43zM827 1417q0 -14 -18 -14h-109q-12 0 -18 12l-53 111q-7 10 -13 10t-16 -10l-94 -111q-12 -12 -23 -12h-108q-15 0 -15 6t15 25l198 221q10 10 23 10h86q12 0 18 -10l113 -207q14 -25 14 -31z" />
    <glyph glyph-name="Atilde" unicode="&#xc3;" horiz-adv-x="921" 
d="M557 485q0 16 -4 54l-27 333q-2 8 -4 46t-4 45h-8q-35 -87 -41 -93l-152 -346q-18 -45 -18 -49q0 -14 18 -14h215q25 -1 25 24zM805 23q0 -23 -25 -23h-153q-18 0 -19 14l-26 271q0 12 -19 12h-332q-18 0 -22 -12l-125 -271q-6 -14 -23 -14h-153q-18 0 -18 11t18 48
l586 1217q6 14 22 14h111q16 0 18 -14l156 -1210q4 -29 4 -43zM901 1574q0 -5 -6 -15q-100 -127 -205 -127q-41 0 -96 34t-95 35q-40 0 -91 -53q-8 -10 -16 -10t-13 4l-45 39q-6 6 -6 12t6 12q96 123 198 123q44 0 98 -33t83 -32q51 0 106 55q15 10 19 10t12 -4l45 -39
q6 -6 6 -11z" />
    <glyph glyph-name="Adieresis" unicode="&#xc4;" horiz-adv-x="921" 
d="M557 485q0 16 -4 54l-27 333q-2 8 -4 46t-4 45h-8q-35 -87 -41 -93l-152 -346q-18 -45 -18 -49q0 -14 18 -14h215q25 -1 25 24zM805 23q0 -23 -25 -23h-153q-18 0 -19 14l-26 271q0 12 -19 12h-332q-18 0 -22 -12l-125 -271q-6 -14 -23 -14h-153q-18 0 -18 11t18 48
l586 1217q6 14 22 14h111q16 0 18 -14l156 -1210q4 -29 4 -43zM557 1547q0 -42 -35 -79q-35 -36 -77 -36q-43 0 -65 24t-22 65q0 43 35 77t77 34q87 0 87 -85zM864 1546q0 -41 -36 -78q-36 -36 -78 -36t-64 24t-22 65q0 43 34 77t78 34q88 0 88 -86z" />
    <glyph glyph-name="Aring" unicode="&#xc5;" horiz-adv-x="921" 
d="M557 485q0 16 -4 54l-27 333q-2 8 -4 46t-4 45h-8q-35 -87 -41 -93l-152 -346q-18 -45 -18 -49q0 -14 18 -14h215q25 -1 25 24zM612 1528q-36 0 -68 -28t-38 -64l-12 -76q0 -34 22 -56t58 -22q34 0 67 28t39 64l12 76q0 34 -22 56t-58 22zM805 23q0 -23 -25 -23h-153
q-18 0 -19 14l-26 271q0 12 -19 12h-332q-18 0 -22 -12l-125 -271q-6 -14 -23 -14h-153q-18 0 -18 11t18 48l536 1117q12 24 12 36t-12 23q-45 39 -45 104q1 33 15 104t72 119t138 48t120 -38t40 -102l-12 -96q-16 -94 -98 -143q-18 -13 -18 -29t6 -59l139 -1077
q4 -29 4 -43z" />
    <glyph glyph-name="AE" unicode="&#xc6;" horiz-adv-x="1429" 
d="M307 472q0 -12 21 -11h217q20 0 22 20l29 158q45 250 59 307l-6 2q-45 -66 -51 -74l-285 -382q-6 -8 -6 -20zM516 297h-334q-18 0 -26 -14l-201 -273q-8 -10 -21 -10h-149q-20 0 -21 12q0 10 9 19l956 1249q10 10 23 10h675q17 0 17 -14l-6 -43l-15 -86q-2 -20 -24 -21
h-512q-23 0 -25 -20l-53 -303q-2 -11 -4 -23l-3 -18t-1 -10q0 -14 16 -15h420q18 0 18 -16l-22 -127q-2 -20 -25 -21h-420q-20 0 -22 -20l-55 -311q-10 -51 -11 -64q0 -14 17 -14h512q16 0 16 -14l-20 -130q-2 -20 -25 -20h-696q-16 0 -17 14q0 4 9 54l30 174l6 41
q0 14 -16 14z" />
    <glyph glyph-name="Ccedilla" unicode="&#xc7;" horiz-adv-x="952" 
d="M668 1311q210 1 288 -157q16 -34 17 -47q0 -13 -17 -20l-120 -55q-29 -12 -33 -12q-12 0 -15 12q-39 115 -149 115h-61q-76 0 -140 -54t-78 -130l-104 -590q-10 -51 -10 -76q0 -66 43 -110t110 -44h62q113 0 194 119q9 12 17 12t33 -14l98 -55q8 -6 8 -11t-6 -16
q-133 -199 -373 -198q-16 0 -33 -23l-22 -33q-8 -12 -8 -18t22 -23q45 -33 45 -98q0 -124 -80 -185t-168 -61h-98q-16 0 -16 15q0 8 4 28l10 60q2 20 25 20h98q29 0 57 23t27 74q0 52 -53 63l-37 6q-19 4 -19 12t11 25l61 94q8 11 8 21t-16 16q-92 26 -142 96t-51 166
q0 33 6 70l113 635q29 155 146 251t284 97h62z" />
    <glyph glyph-name="Egrave" unicode="&#xc8;" horiz-adv-x="940" 
d="M631 584h-164q-76 0 -139 -54q-64 -54 -78 -129q-14 -74 -14 -104q0 -66 43 -110t110 -44h62q53 0 104 31t86 86q7 14 19 14t32 -14l99 -55q8 -6 8 -11t-6 -16q-129 -199 -371 -198h-62q-147 0 -229 74t-82 208q1 43 15 123t66 152t110 110q12 9 12 19t-6 14
q-39 31 -66 87q-26 55 -26 95t8 80q29 168 146 268q118 100 288 101h61q178 0 256 -107q48 -66 48 -88t-15 -29l-119 -55q-25 -12 -35 -12t-14 12q-37 115 -149 115h-62q-76 0 -139 -54q-86 -74 -86 -192q0 -65 43 -109t111 -44h163q18 0 19 -15l-23 -129q-2 -20 -24 -20z
M797 1418q0 -11 -17 -11h-100q-16 0 -31 12l-215 199q-12 12 -12 18q0 14 16 15h211q16 0 25 -15l112 -192q11 -15 11 -26z" />
    <glyph glyph-name="Eacute" unicode="&#xc9;" horiz-adv-x="940" 
d="M631 584h-164q-76 0 -139 -54q-64 -54 -78 -129q-14 -74 -14 -104q0 -66 43 -110t110 -44h62q53 0 104 31t86 86q7 14 19 14t32 -14l99 -55q8 -6 8 -11t-6 -16q-129 -199 -371 -198h-62q-147 0 -229 74t-82 208q1 43 15 123t66 152t110 110q12 9 12 19t-6 14
q-39 31 -66 87q-26 55 -26 95t8 80q29 168 146 268q118 100 288 101h61q178 0 256 -107q48 -66 48 -88t-15 -29l-119 -55q-25 -12 -35 -12t-14 12q-37 115 -149 115h-62q-76 0 -139 -54q-86 -74 -86 -192q0 -65 43 -109t111 -44h163q18 0 19 -15l-23 -129q-2 -20 -24 -20z
M1049 1639q0 -11 -11 -17l-290 -203q-18 -12 -35 -12h-101q-12 0 -12 6t16 27l185 196q14 14 28 15h207q13 -1 13 -12z" />
    <glyph glyph-name="Ecircumflex" unicode="&#xca;" horiz-adv-x="940" 
d="M631 584h-164q-76 0 -139 -54q-64 -54 -78 -129q-14 -74 -14 -104q0 -66 43 -110t110 -44h62q53 0 104 31t86 86q7 14 19 14t32 -14l99 -55q8 -6 8 -11t-6 -16q-129 -199 -371 -198h-62q-147 0 -229 74t-82 208q1 43 15 123t66 152t110 110q12 9 12 19t-6 14
q-39 31 -66 87q-26 55 -26 95t8 80q29 168 146 268q118 100 288 101h61q178 0 256 -107q48 -66 48 -88t-15 -29l-119 -55q-25 -12 -35 -12t-14 12q-37 115 -149 115h-62q-76 0 -139 -54q-86 -74 -86 -192q0 -65 43 -109t111 -44h163q18 0 19 -15l-23 -129q-2 -20 -24 -20z
M911 1417q0 -14 -18 -14h-109q-12 0 -18 12l-53 111q-7 10 -13 10t-16 -10l-94 -111q-12 -12 -23 -12h-108q-15 0 -15 6t15 25l198 221q10 10 23 10h86q12 0 18 -10l113 -207q14 -25 14 -31z" />
    <glyph glyph-name="Edieresis" unicode="&#xcb;" horiz-adv-x="940" 
d="M631 584h-164q-76 0 -139 -54q-64 -54 -78 -129q-14 -74 -14 -104q0 -66 43 -110t110 -44h62q53 0 104 31t86 86q7 14 19 14t32 -14l99 -55q8 -6 8 -11t-6 -16q-129 -199 -371 -198h-62q-147 0 -229 74t-82 208q1 43 15 123t66 152t110 110q12 9 12 19t-6 14
q-39 31 -66 87q-26 55 -26 95t8 80q29 168 146 268q118 100 288 101h61q178 0 256 -107q48 -66 48 -88t-15 -29l-119 -55q-25 -12 -35 -12t-14 12q-37 115 -149 115h-62q-76 0 -139 -54q-86 -74 -86 -192q0 -65 43 -109t111 -44h163q18 0 19 -15l-23 -129q-2 -20 -24 -20z
M552 1632q87 0 87 -85q0 -42 -35 -79q-35 -36 -77 -36q-43 0 -65 24t-22 65q0 43 35 77t77 34zM946 1546q0 -41 -36 -78q-36 -36 -78 -36t-64 24t-23 65q0 43 35 77t78 34q88 0 88 -86z" />
    <glyph glyph-name="Igrave" unicode="&#xcc;" horiz-adv-x="491" 
d="M201 0h-144q-18 0 -18 14q0 5 5 30t7 36l209 1190q2 20 25 20h143q18 0 18 -14l-221 -1256q-2 -20 -24 -20zM475 1418q0 -11 -16 -11h-101q-14 0 -30 12l-215 199q-31 31 4 33h211q16 0 24 -15l113 -192q10 -15 10 -26z" />
    <glyph glyph-name="Iacute" unicode="&#xcd;" horiz-adv-x="491" 
d="M201 0h-144q-18 0 -18 14q0 5 5 30t7 36l209 1190q2 20 25 20h143q18 0 18 -14l-221 -1256q-2 -20 -24 -20zM729 1639q0 -11 -10 -17l-291 -203q-18 -12 -35 -12h-100q-12 0 -12 6t16 27l184 196q14 14 29 15h207q12 -1 12 -12z" />
    <glyph glyph-name="Icircumflex" unicode="&#xce;" horiz-adv-x="491" 
d="M201 0h-144q-18 0 -18 14q0 5 5 30t7 36l209 1190q2 20 25 20h143q18 0 18 -14l-221 -1256q-2 -20 -24 -20zM610 1417q0 -14 -18 -14h-109q-12 0 -18 12l-53 111q-6 10 -12 10t-17 -10l-94 -111q-12 -12 -23 -12h-108q-14 0 -14 6t14 25l198 221q10 10 23 10h86
q12 0 18 -10l113 -207q14 -25 14 -31z" />
    <glyph glyph-name="Idieresis" unicode="&#xcf;" horiz-adv-x="491" 
d="M201 0h-144q-18 0 -18 14q0 5 5 30t7 36l209 1190q2 20 25 20h143q18 0 18 -14l-221 -1256q-2 -20 -24 -20zM260 1632q82 0 82 -85q0 -42 -35 -79q-35 -36 -77 -36t-64 24t-23 65q0 43 35 77t82 34zM649 1546q0 -41 -36 -78q-36 -36 -78 -36q-43 0 -65 24t-22 65
q0 43 36 77q34 34 77 34q88 0 88 -86z" />
    <glyph glyph-name="Eth" unicode="&#xd0;" horiz-adv-x="1075" 
d="M270 164h226q76 0 139 54t78 130l100 570q6 49 6 55q0 65 -43 109t-110 44h-226q-23 0 -24 -20l-60 -342q-4 -16 -4 -28t15 -13h137q18 0 18 -11t-4 -28l-18 -100q-2 -20 -25 -21h-137q-16 0 -21 -16l-57 -328l-6 -41q0 -14 16 -14zM147 723q18 0 21 16l92 531
q2 20 25 20h409q148 0 230 -76t82 -210q0 -25 -9 -82l-96 -553q-29 -170 -146 -270q-118 -99 -288 -99h-410q-18 0 -18 14l90 510q4 20 4 30t-14 9h-84q-16 0 -17 15l7 34l14 90q2 20 24 21h84z" />
    <glyph glyph-name="Ntilde" unicode="&#xd1;" horiz-adv-x="1136" 
d="M846 0h-131q-12 0 -17 10l-297 793q-14 35 -24 74l-8 -3q-6 -68 -78 -475l-66 -379q-2 -20 -24 -20h-144q-18 0 -18 14q0 2 10 54l211 1202q2 20 25 20h131q12 0 16 -10l297 -795q10 -27 23 -73l10 2q6 68 78 475l65 381q2 20 25 20h143q19 0 19 -14l-222 -1256
q-2 -20 -24 -20zM1008 1574q0 -5 -7 -15q-100 -127 -204 -127q-41 0 -97 34t-95 35q-40 0 -91 -53q-8 -10 -16 -10t-13 4l-45 39q-6 6 -6 12t6 12q96 123 199 123q45 0 98 -33t82 -32q51 0 107 55q14 10 18 10t12 -4l45 -39q7 -6 7 -11z" />
    <glyph glyph-name="Ograve" unicode="&#xd2;" 
d="M793 993q0 66 -43 110t-111 44h-61q-76 0 -140 -54t-78 -130l-106 -601q-8 -41 -8 -65q0 -66 43 -110t110 -44h62q76 1 139 55t78 130l108 612q7 49 7 53zM981 1032q0 -33 -6 -69l-113 -635q-30 -156 -146 -252t-284 -96h-61q-147 0 -231 75q-83 76 -83 203q0 33 6 70
l113 635q29 155 146 251t284 97h62q147 0 230 -76t83 -203zM752 1418q0 -11 -17 -11h-100q-16 0 -31 12l-215 199q-12 12 -12 18q0 14 16 15h211q16 0 25 -15l112 -192q11 -15 11 -26z" />
    <glyph glyph-name="Oacute" unicode="&#xd3;" 
d="M793 993q0 66 -43 110t-111 44h-61q-76 0 -140 -54t-78 -130l-106 -601q-8 -41 -8 -65q0 -66 43 -110t110 -44h62q76 1 139 55t78 130l108 612q7 49 7 53zM981 1032q0 -33 -6 -69l-113 -635q-30 -156 -146 -252t-284 -96h-61q-147 0 -231 75q-83 76 -83 203q0 33 6 70
l113 635q29 155 146 251t284 97h62q147 0 230 -76t83 -203zM1006 1639q0 -11 -11 -17l-290 -203q-18 -12 -35 -12h-101q-12 0 -12 6t16 27l185 196q14 14 28 15h207q13 -1 13 -12z" />
    <glyph glyph-name="Ocircumflex" unicode="&#xd4;" 
d="M793 993q0 66 -43 110t-111 44h-61q-76 0 -140 -54t-78 -130l-106 -601q-8 -41 -8 -65q0 -66 43 -110t110 -44h62q76 1 139 55t78 130l108 612q7 49 7 53zM981 1032q0 -33 -6 -69l-113 -635q-30 -156 -146 -252t-284 -96h-61q-147 0 -231 75q-83 76 -83 203q0 33 6 70
l113 635q29 155 146 251t284 97h62q147 0 230 -76t83 -203zM887 1417q0 -14 -19 -14h-108q-12 0 -19 12l-53 111q-6 10 -12 10t-17 -10l-94 -111q-12 -12 -22 -12h-109q-14 0 -14 10q0 2 14 21l199 221q10 10 22 10h86q12 0 19 -10l112 -207q15 -25 15 -31z" />
    <glyph glyph-name="Otilde" unicode="&#xd5;" 
d="M793 993q0 66 -43 110t-111 44h-61q-76 0 -140 -54t-78 -130l-106 -601q-8 -41 -8 -65q0 -66 43 -110t110 -44h62q76 1 139 55t78 130l108 612q7 49 7 53zM981 1032q0 -33 -6 -69l-113 -635q-30 -156 -146 -252t-284 -96h-61q-147 0 -231 75q-83 76 -83 203q0 33 6 70
l113 635q29 155 146 251t284 97h62q147 0 230 -76t83 -203zM961 1574q0 -5 -7 -15q-100 -127 -204 -127q-40 0 -96 34t-96 35q-40 0 -91 -53q-8 -10 -16 -10t-13 4l-45 39q-6 6 -6 12t6 12q96 123 199 123q45 0 98 -33t82 -32q51 0 107 55q14 10 18 10t12 -4l45 -39
q7 -6 7 -11z" />
    <glyph glyph-name="Odieresis" unicode="&#xd6;" 
d="M793 993q0 66 -43 110t-111 44h-61q-76 0 -140 -54t-78 -130l-106 -601q-8 -41 -8 -65q0 -66 43 -110t110 -44h62q76 1 139 55t78 130l108 612q7 49 7 53zM981 1032q0 -33 -6 -69l-113 -635q-30 -156 -146 -252t-284 -96h-61q-147 0 -231 75q-83 76 -83 203q0 33 6 70
l113 635q29 155 146 251t284 97h62q147 0 230 -76t83 -203zM532 1632q86 0 86 -85q0 -42 -34 -79q-34 -36 -77 -36q-42 0 -65 24q-22 24 -22 65q0 43 35 77t77 34zM838 1632q88 0 88 -86q0 -41 -36 -78q-36 -36 -78 -36t-64 24t-23 65q0 43 35 77t78 34z" />
    <glyph glyph-name="multiply" unicode="&#xd7;" 
d="M938 795q12 -12 -6 -29l-314 -266q-18 -14 -6 -29l215 -260q10 -14 -4 -29l-51 -45q-16 -16 -29 0l-215 262q-12 12 -28 0l-318 -270q-16 -16 -28 0l-48 59q-12 12 7 29l311 266q18 14 6 29l-215 260q-14 16 4 29l57 47q16 14 29 0l215 -262q12 -12 29 0l313 268
q16 16 29 0z" />
    <glyph glyph-name="Oslash" unicode="&#xd8;" 
d="M780 975q-10 0 -24 -25l-439 -729q-18 -29 -18 -36t20 -23t80 -19h62q76 1 139 55t78 130l113 633q-1 14 -11 14zM257 305q9 0 17 12l453 744q18 29 18 39q0 16 -30 32q-31 15 -76 15h-61q-76 0 -140 -54t-78 -130l-106 -605l-6 -41q0 -12 9 -12zM981 1032q0 -33 -6 -69
l-113 -635q-30 -156 -146 -252t-284 -96h-61q-147 0 -231 75q-83 76 -83 203q0 33 6 70l113 635q29 155 146 251t284 97h62q147 0 230 -76t83 -203z" />
    <glyph glyph-name="Ugrave" unicode="&#xd9;" 
d="M432 -20h-61q-147 0 -231 75q-83 76 -83 203q0 33 6 70l166 942q2 20 25 20h143q19 0 19 -10t-10 -61l-154 -867q-6 -49 -6 -55q0 -66 43 -110t110 -44h62q76 1 139 55t78 130l166 942q2 20 24 20h144q18 0 18 -14l-168 -948q-30 -156 -146 -252t-284 -96zM752 1418
q0 -11 -17 -11h-100q-16 0 -31 12l-215 199q-12 12 -12 18q0 14 16 15h211q16 0 25 -15l112 -192q11 -15 11 -26z" />
    <glyph glyph-name="Uacute" unicode="&#xda;" 
d="M432 -20h-61q-147 0 -231 75q-83 76 -83 203q0 33 6 70l166 942q2 20 25 20h143q19 0 19 -10t-10 -61l-154 -867q-6 -49 -6 -55q0 -66 43 -110t110 -44h62q76 1 139 55t78 130l166 942q2 20 24 20h144q18 0 18 -14l-168 -948q-30 -156 -146 -252t-284 -96zM1006 1639
q0 -11 -11 -17l-290 -203q-18 -12 -35 -12h-101q-12 0 -12 6t16 27l185 196q14 14 28 15h207q13 -1 13 -12z" />
    <glyph glyph-name="Ucircumflex" unicode="&#xdb;" 
d="M432 -20h-61q-147 0 -231 75q-83 76 -83 203q0 33 6 70l166 942q2 20 25 20h143q19 0 19 -10t-10 -61l-154 -867q-6 -49 -6 -55q0 -66 43 -110t110 -44h62q76 1 139 55t78 130l166 942q2 20 24 20h144q18 0 18 -14l-168 -948q-30 -156 -146 -252t-284 -96zM887 1417
q0 -14 -19 -14h-108q-12 0 -19 12l-53 111q-6 10 -12 10t-17 -10l-94 -111q-12 -12 -22 -12h-109q-14 0 -14 10q0 2 14 21l199 221q10 10 22 10h86q12 0 19 -10l112 -207q15 -25 15 -31z" />
    <glyph glyph-name="Udieresis" unicode="&#xdc;" 
d="M432 -20h-61q-147 0 -231 75q-83 76 -83 203q0 33 6 70l166 942q2 20 25 20h143q19 0 19 -10t-10 -61l-154 -867q-6 -49 -6 -55q0 -66 43 -110t110 -44h62q76 1 139 55t78 130l166 942q2 20 24 20h144q18 0 18 -14l-168 -948q-30 -156 -146 -252t-284 -96zM532 1632
q86 0 86 -85q0 -42 -34 -79q-34 -36 -77 -36q-42 0 -65 24q-22 24 -22 65q0 43 35 77t77 34zM838 1632q88 0 88 -86q0 -41 -36 -78q-36 -36 -78 -36t-64 24t-23 65q0 43 35 77t78 34z" />
    <glyph glyph-name="Yacute" unicode="&#xdd;" horiz-adv-x="921" 
d="M1001 1290q21 0 21 -10t-23 -43l-458 -645l-101 -572q-2 -20 -24 -20h-144q-18 0 -18 10t8 43l94 539l-225 631q-7 21 -12 32q-4 10 -4 15q0 20 26 20h168q12 0 17 -12l143 -467q6 -16 16 -16t21 16l307 467q8 12 21 12h167zM946 1639q0 -11 -10 -17l-291 -203
q-18 -12 -35 -12h-100q-12 0 -12 6t16 27l184 196q14 14 29 15h207q12 -1 12 -12z" />
    <glyph glyph-name="Thorn" unicode="&#xde;" horiz-adv-x="993" 
d="M776 727q0 66 -43 110t-110 44h-226q-23 0 -24 -21l-54 -301q-8 -41 -8 -54t17 -13h225q76 0 139 54q84 72 84 181zM963 758q0 -41 -9 -82q-28 -152 -146 -250t-284 -98h-225q-23 0 -25 -21l-49 -287q-2 -20 -24 -20h-144q-18 0 -18 14q0 6 4 24t6 30l211 1202
q2 20 25 20h143q18 0 18 -14q0 -2 -10 -57l-20 -115q-8 -37 -8 -43q0 -16 22 -17h221q147 0 230 -76q82 -77 82 -210z" />
    <glyph glyph-name="germandbls" unicode="&#xdf;" horiz-adv-x="966" 
d="M-242 -481q-108 0 -108 19q0 9 12 34l53 100q6 14 21 15l51 -4q76 0 139 54t78 130l189 1075q29 154 155 262t276 107q150 0 232 -77t82 -220t-75 -241q-52 -69 -109 -103q-27 -19 -6 -33q36 -33 62 -92t26 -94t-11 -107q-20 -131 -99 -220t-200 -124q-68 -18 -114 -18
q-16 0 -17 14l6 39l17 90q2 16 20 20q76 11 130 63t68 124t15 88q0 57 -37 99t-102 52q-12 2 -12 15l6 41l16 92q2 16 21 20q76 12 139 73t70 181q0 66 -43 110t-118 44t-135 -53t-75 -131l-191 -1076q-30 -153 -154 -261t-278 -107z" />
    <glyph glyph-name="agrave" unicode="&#xe0;" horiz-adv-x="972" 
d="M483 758q-73 0 -137 -54t-76 -131l-34 -202q-6 -27 -7 -54q0 -65 43 -109t115 -44t135 54t78 130l35 197l8 59q0 66 -44 110t-116 44zM354 0q-147 0 -230 76t-83 203q0 33 6 69l39 225q27 156 144 252q118 96 286 97q61 0 121 -33q8 -5 27 -21t30 -16q12 0 19 25l6 24
q6 20 22 21h123q19 -1 19 -15q0 -6 -4 -23t-5 -24l-147 -840q-2 -20 -25 -20h-122q-18 0 -19 14l6 37q0 34 -32 10q-84 -61 -181 -61zM614 1055q0 -20 -24 -21h-70q-27 0 -45 23l-188 223q-18 18 -19 31q0 20 25 20h153q37 0 50 -24l108 -228q2 -4 4 -9t4 -9t2 -6z" />
    <glyph glyph-name="aacute" unicode="&#xe1;" horiz-adv-x="972" 
d="M483 758q-73 0 -137 -54t-76 -131l-34 -202q-6 -27 -7 -54q0 -65 43 -109t115 -44t135 54t78 130l35 197l8 59q0 66 -44 110t-116 44zM354 0q-147 0 -230 76t-83 203q0 33 6 69l39 225q27 156 144 252q118 96 286 97q61 0 121 -33q8 -5 27 -21t30 -16q12 0 19 25l6 24
q6 20 22 21h123q19 -1 19 -15q0 -6 -4 -23t-5 -24l-147 -840q-2 -20 -25 -20h-122q-18 0 -19 14l6 37q0 34 -32 10q-84 -61 -181 -61zM868 1331q21 0 21 -12t-12 -23l-285 -239q-31 -23 -53 -23h-70q-18 0 -18 12t6 19l200 242q18 25 58 24h153z" />
    <glyph glyph-name="acircumflex" unicode="&#xe2;" horiz-adv-x="972" 
d="M483 758q-73 0 -137 -54t-76 -131l-34 -202q-6 -27 -7 -54q0 -65 43 -109t115 -44t135 54t78 130l35 197l8 59q0 66 -44 110t-116 44zM354 0q-147 0 -230 76t-83 203q0 33 6 69l39 225q27 156 144 252q118 96 286 97q61 0 121 -33q8 -5 27 -21t30 -16q12 0 19 25l6 24
q6 20 22 21h123q19 -1 19 -15q0 -6 -4 -23t-5 -24l-147 -840q-2 -20 -25 -20h-122q-18 0 -19 14l6 37q0 34 -32 10q-84 -61 -181 -61zM774 1051q0 -16 -26 -17h-99q-10 0 -14 10l-66 140q-6 12 -13 12t-17 -12l-113 -140q-8 -10 -18 -10h-99q-20 0 -20 13q0 6 10 20l227 256
q8 8 19 8h73q10 0 15 -8l137 -256q4 -8 4 -16z" />
    <glyph glyph-name="atilde" unicode="&#xe3;" horiz-adv-x="972" 
d="M483 758q-73 0 -137 -54t-76 -131l-34 -202q-6 -27 -7 -54q0 -65 43 -109t115 -44t135 54t78 130l35 197l8 59q0 66 -44 110t-116 44zM354 0q-147 0 -230 76t-83 203q0 33 6 69l39 225q27 156 144 252q118 96 286 97q61 0 121 -33q8 -5 27 -21t30 -16q12 0 19 25l6 24
q6 20 22 21h123q19 -1 19 -15q0 -6 -4 -23t-5 -24l-147 -840q-2 -20 -25 -20h-122q-18 0 -19 14l6 37q0 34 -32 10q-84 -61 -181 -61zM893 1208q0 -8 -33 -47q-88 -104 -174 -104q-53 0 -119 51l-37 29q-80 65 -174 -31q-8 -8 -17 -8t-17 8l-35 29q-6 6 -6 14t41 55
q86 92 160 92t124 -49l33 -30q25 -25 75 -25t107 59q15 15 37 -2l29 -26q6 -7 6 -15z" />
    <glyph glyph-name="adieresis" unicode="&#xe4;" horiz-adv-x="972" 
d="M483 758q-73 0 -137 -54t-76 -131l-34 -202q-6 -27 -7 -54q0 -65 43 -109t115 -44t135 54t78 130l35 197l8 59q0 66 -44 110t-116 44zM354 0q-147 0 -230 76t-83 203q0 33 6 69l39 225q27 156 144 252q118 96 286 97q61 0 121 -33q8 -5 27 -21t30 -16q12 0 19 25l6 24
q6 20 22 21h123q19 -1 19 -15q0 -6 -4 -23t-5 -24l-147 -840q-2 -20 -25 -20h-122q-18 0 -19 14l6 37q0 34 -32 10q-84 -61 -181 -61zM403 1278q41 0 65 -24t24 -66q0 -41 -37 -78t-79 -37t-67 26q-25 25 -25 65t39 77q38 37 80 37zM724 1278q42 0 66 -24t23 -66
q0 -41 -37 -78t-79 -37q-43 0 -67 26q-24 25 -24 65t38 77t80 37z" />
    <glyph glyph-name="aring" unicode="&#xe5;" horiz-adv-x="972" 
d="M483 758q-73 0 -137 -54t-76 -131l-34 -202q-6 -27 -7 -54q0 -65 43 -109t115 -44t135 54t78 130l35 197l8 59q0 66 -44 110t-116 44zM580 1362q-34 0 -68 -28q-33 -28 -39 -64l-12 -76q1 -34 23 -56t57 -22t67 28t39 64l12 76q-1 34 -23 56t-56 22zM354 0
q-147 0 -230 76t-83 203q0 33 6 69l39 225q27 156 144 252q118 96 286 97q61 0 121 -33q8 -5 27 -21t30 -16q12 0 19 25l6 24q6 20 22 21h123q19 -1 19 -15q0 -6 -4 -23t-5 -24l-147 -840q-2 -20 -25 -20h-122q-18 0 -19 14l6 37q0 34 -32 10q-84 -61 -181 -61zM530 1034
q-80 0 -122 38t-41 86q0 48 14 118q15 72 73 120t137 48t120 -38t41 -101l-13 -97q-14 -78 -72 -126q-57 -48 -137 -48z" />
    <glyph glyph-name="ae" unicode="&#xe6;" horiz-adv-x="1495" 
d="M600 354q0 14 -16 15h-256q-37 0 -77 -35t-40 -113q-1 -33 21 -55t55 -23h102q55 0 109 43q53 43 88 101q14 53 14 67zM1198 632q0 58 -43 102t-111 44q-109 0 -178 -96q-39 -53 -39 -94q0 -14 17 -15h327q27 1 27 59zM1384 645q0 -31 -8 -76l-20 -118q-2 -20 -25 -21
h-512q-23 0 -24 -20l-11 -60q-6 -27 -6 -53q0 -66 43 -110t111 -44q113 0 194 119q8 12 14 12t31 -12l103 -57q8 -6 8 -15t-41 -59q-125 -151 -327 -151t-277 116q-6 10 -14 10t-19 -10q-45 -51 -119 -84t-125 -32h-102q-104 0 -170 57t-65 151q0 20 12 88q23 113 110 175
q88 61 207 61h256q23 0 25 20q12 80 12 89q0 65 -43 109t-110 44q-113 0 -191 -115q-10 -12 -18 -12t-33 15l-96 53q-10 6 -10 17t44 63q129 147 332 147q156 0 238 -86q22 -22 26 -22t33 22q117 86 258 86t225 -88t84 -209z" />
    <glyph glyph-name="ccedilla" unicode="&#xe7;" horiz-adv-x="876" 
d="M825 739q0 -14 -16 -20l-113 -51q-33 -16 -41 -17q-12 0 -14 13q-39 115 -149 114q-76 0 -140 -54t-78 -130l-43 -244q-6 -35 -6 -53q0 -66 43 -110t111 -44q113 0 194 119q7 12 15 12t37 -16l96 -53q8 -6 8 -11t-6 -16q-119 -178 -328 -196l-37 -58q-8 -12 -8 -18
t23 -23q45 -33 45 -98q0 -124 -80 -185t-168 -61h-98q-16 -1 -16 11t3 32l11 60q2 20 24 20h99q29 0 56 22t27 75q0 52 -53 63l-37 6q-18 4 -18 12t10 25l82 123q-106 23 -165 94q-58 72 -58 176q0 33 6 70l47 266q29 156 146 252q116 96 286 96t250 -98q53 -64 53 -105z
" />
    <glyph glyph-name="egrave" unicode="&#xe8;" horiz-adv-x="942" 
d="M645 632q0 58 -43 102t-110 44q-109 0 -179 -96q-39 -53 -39 -94q0 -14 17 -15h327q27 1 27 59zM831 645q0 -31 -8 -76l-20 -118q-2 -20 -25 -21h-512q-23 0 -24 -20l-11 -60q-6 -27 -6 -53q0 -66 43 -110t111 -44q113 0 194 119q9 12 15 12t30 -12l103 -57q8 -6 8 -11
t-6 -16q-133 -199 -373 -198q-147 0 -230 76t-83 202q0 33 6 70l47 266q23 131 147 240q124 108 275 108t235 -88t84 -209zM629 1055q0 -20 -25 -21h-69q-27 0 -46 23l-188 223q-18 18 -18 31q0 20 24 20h154q37 0 49 -24l108 -228q11 -22 11 -24z" />
    <glyph glyph-name="eacute" unicode="&#xe9;" horiz-adv-x="942" 
d="M645 632q0 58 -43 102t-110 44q-109 0 -179 -96q-39 -53 -39 -94q0 -14 17 -15h327q27 1 27 59zM831 645q0 -31 -8 -76l-20 -118q-2 -20 -25 -21h-512q-23 0 -24 -20l-11 -60q-6 -27 -6 -53q0 -66 43 -110t111 -44q113 0 194 119q9 12 15 12t30 -12l103 -57q8 -6 8 -11
t-6 -16q-133 -199 -373 -198q-147 0 -230 76t-83 202q0 33 6 70l47 266q23 131 147 240q124 108 275 108t235 -88t84 -209zM883 1331q20 0 20 -12t-12 -23l-285 -239q-31 -23 -53 -23h-70q-18 0 -18 12t6 19l201 242q18 25 57 24h154z" />
    <glyph glyph-name="ecircumflex" unicode="&#xea;" horiz-adv-x="942" 
d="M645 632q0 58 -43 102t-110 44q-109 0 -179 -96q-39 -53 -39 -94q0 -14 17 -15h327q27 1 27 59zM831 645q0 -31 -8 -76l-20 -118q-2 -20 -25 -21h-512q-23 0 -24 -20l-11 -60q-6 -27 -6 -53q0 -66 43 -110t111 -44q113 0 194 119q9 12 15 12t30 -12l103 -57q8 -6 8 -11
t-6 -16q-133 -199 -373 -198q-147 0 -230 76t-83 202q0 33 6 70l47 266q23 131 147 240q124 108 275 108t235 -88t84 -209zM788 1051q0 -16 -26 -17h-98q-10 0 -15 10l-65 140q-6 12 -14 12t-17 -12l-113 -140q-8 -10 -18 -10h-98q-35 0 -11 33l228 256q8 8 18 8h74
q10 0 14 -8l137 -256q4 -8 4 -16z" />
    <glyph glyph-name="edieresis" unicode="&#xeb;" horiz-adv-x="942" 
d="M645 632q0 58 -43 102t-110 44q-109 0 -179 -96q-39 -53 -39 -94q0 -14 17 -15h327q27 1 27 59zM831 645q0 -31 -8 -76l-20 -118q-2 -20 -25 -21h-512q-23 0 -24 -20l-11 -60q-6 -27 -6 -53q0 -66 43 -110t111 -44q113 0 194 119q9 12 15 12t30 -12l103 -57q8 -6 8 -11
t-6 -16q-133 -199 -373 -198q-147 0 -230 76t-83 202q0 33 6 70l47 266q23 131 147 240q124 108 275 108t235 -88t84 -209zM417 1278q41 0 65 -24t24 -66q0 -41 -37 -78t-79 -37t-66 26q-24 25 -25 65q0 40 38 77t80 37zM738 1278q42 0 66 -24t23 -66q-1 -41 -37 -78
t-78 -37t-67 26q-25 25 -25 65t38 77t80 37z" />
    <glyph glyph-name="igrave" unicode="&#xec;" horiz-adv-x="434" 
d="M360 909q0 -12 -10 -59l-145 -830q-2 -20 -25 -20h-143q-18 0 -19 14q0 2 13 64l145 823q2 20 23 21h143q18 -1 18 -13zM375 1055q0 -20 -25 -21h-69q-27 0 -45 23l-189 223q-18 18 -18 31q0 20 24 20h154q37 0 49 -24l109 -228q2 -4 4 -9t4 -9t2 -6z" />
    <glyph glyph-name="iacute" unicode="&#xed;" horiz-adv-x="434" 
d="M360 909q0 -12 -10 -59l-145 -830q-2 -20 -25 -20h-143q-18 0 -19 14q0 2 13 64l145 823q2 20 23 21h143q18 -1 18 -13zM629 1331q20 0 20 -12t-12 -23l-285 -239q-31 -23 -53 -23h-70q-18 0 -18 12t6 19l201 242q18 25 57 24h154z" />
    <glyph glyph-name="icircumflex" unicode="&#xee;" horiz-adv-x="434" 
d="M360 909q0 -12 -10 -59l-145 -830q-2 -20 -25 -20h-143q-18 0 -19 14q0 2 13 64l145 823q2 20 23 21h143q18 -1 18 -13zM535 1051q0 -16 -27 -17h-98q-10 0 -15 10l-65 140q-6 12 -14 12t-17 -12l-113 -140q-8 -10 -18 -10h-98q-35 0 -11 33l228 256q8 8 18 8h74
q10 0 14 -8l137 -256q5 -8 5 -16z" />
    <glyph glyph-name="idieresis" unicode="&#xef;" horiz-adv-x="434" 
d="M360 909q0 -12 -10 -59l-145 -830q-2 -20 -25 -20h-143q-18 0 -19 14q0 2 13 64l145 823q2 20 23 21h143q18 -1 18 -13zM163 1278q41 0 65 -24t24 -66q0 -41 -37 -78t-79 -37t-66 26q-24 25 -25 65q0 40 38 77t80 37zM484 1278q42 0 66 -24t23 -66q-1 -41 -37 -78
t-78 -37t-67 26q-25 25 -25 65t38 77t80 37z" />
    <glyph glyph-name="eth" unicode="&#xf0;" horiz-adv-x="950" 
d="M500 778q-76 0 -140 -54t-77 -130l-47 -266q-14 -76 30 -130t121 -54q76 0 139 54t78 130l47 266q14 76 -30 130q-45 54 -121 54zM358 -20q-168 0 -252 96t-55 252l47 266q27 146 131 240t258 106l-81 96l-211 -82q-12 -4 -21 -1q-8 3 -6 12l8 53q8 29 19 33l149 57
l-129 156q-8 8 2 17t25 9h151q6 0 17 -14l88 -107l227 91q8 4 18 0t9 -13l-11 -59q-4 -20 -20 -27l-162 -63l217 -246q89 -98 60 -258l-48 -266q-30 -156 -146 -252t-284 -96z" />
    <glyph glyph-name="ntilde" unicode="&#xf1;" horiz-adv-x="995" 
d="M343 852q9 0 22 8q84 61 182 62q147 0 231 -76t84 -203q0 -20 -8 -70l-96 -553q-2 -20 -25 -20h-143q-18 0 -19 14q0 5 9 41l88 502q6 43 6 47q0 66 -44 110t-116 44t-135 -54t-78 -131l-96 -553q-2 -20 -25 -20h-143q-18 0 -19 14l158 887q2 20 23 21h123q18 0 18 -15
l-6 -39q0 -16 9 -16zM907 1208q0 -8 -33 -47q-88 -104 -174 -104q-53 0 -118 51l-37 29q-81 66 -174 -31q-7 -8 -17 -8t-18 8l-35 29q-6 6 -6 14t41 55q86 92 160 92t125 -49l32 -30q25 -25 75 -25t108 59q15 15 36 -2l29 -26q6 -7 6 -15z" />
    <glyph glyph-name="ograve" unicode="&#xf2;" horiz-adv-x="950" 
d="M653 625q0 65 -43 109q-42 44 -114 44t-136 -54t-77 -130l-43 -242q-6 -27 -7 -55q0 -66 43 -110t115 -44q72 1 135 55t78 130l43 243q6 27 6 54zM842 664q0 -33 -6 -70l-48 -266q-30 -156 -146 -252t-274 -96t-240 76q-83 76 -83 202q0 33 6 70l47 266q29 156 146 252
t274 96q156 0 240 -76t84 -202zM637 1055q0 -20 -25 -21h-69q-27 0 -45 23l-189 223q-18 18 -18 31q0 20 24 20h154q37 0 49 -24l109 -228q2 -4 4 -9t4 -9t2 -6z" />
    <glyph glyph-name="oacute" unicode="&#xf3;" horiz-adv-x="950" 
d="M653 625q0 65 -43 109q-42 44 -114 44t-136 -54t-77 -130l-43 -242q-6 -27 -7 -55q0 -66 43 -110t115 -44q72 1 135 55t78 130l43 243q6 27 6 54zM842 664q0 -33 -6 -70l-48 -266q-30 -156 -146 -252t-274 -96t-240 76q-83 76 -83 202q0 33 6 70l47 266q29 156 146 252
t274 96q156 0 240 -76t84 -202zM891 1331q20 0 20 -12t-12 -23l-285 -239q-31 -23 -53 -23h-69q-18 0 -19 13q0 12 6 18l201 242q18 25 57 24h154z" />
    <glyph glyph-name="ocircumflex" unicode="&#xf4;" horiz-adv-x="950" 
d="M653 625q0 65 -43 109q-42 44 -114 44t-136 -54t-77 -130l-43 -242q-6 -27 -7 -55q0 -66 43 -110t115 -44q72 1 135 55t78 130l43 243q6 27 6 54zM842 664q0 -33 -6 -70l-48 -266q-30 -156 -146 -252t-274 -96t-240 76q-83 76 -83 202q0 33 6 70l47 266q29 156 146 252
t274 96q156 0 240 -76t84 -202zM797 1051q0 -16 -27 -17h-98q-10 0 -15 10l-65 140q-6 12 -14 12t-17 -12l-112 -140q-8 -10 -19 -10h-98q-36 0 -10 33l227 256q8 8 18 8h74q10 0 14 -8l138 -256q4 -8 4 -16z" />
    <glyph glyph-name="otilde" unicode="&#xf5;" horiz-adv-x="950" 
d="M653 625q0 65 -43 109q-42 44 -114 44t-136 -54t-77 -130l-43 -242q-6 -27 -7 -55q0 -66 43 -110t115 -44q72 1 135 55t78 130l43 243q6 27 6 54zM842 664q0 -33 -6 -70l-48 -266q-30 -156 -146 -252t-274 -96t-240 76q-83 76 -83 202q0 33 6 70l47 266q29 156 146 252
t274 96q156 0 240 -76t84 -202zM874 1208q0 -8 -32 -47q-88 -104 -174 -104q-53 0 -119 51l-37 29q-81 66 -174 -31q-8 -8 -18 -8t-17 8l-35 29q-6 6 -6 14t41 55q86 92 160 92t125 -49l33 -30q25 -25 75 -25t107 59q14 14 37 -2l28 -26q6 -7 6 -15z" />
    <glyph glyph-name="odieresis" unicode="&#xf6;" horiz-adv-x="950" 
d="M653 625q0 65 -43 109q-42 44 -114 44t-136 -54t-77 -130l-43 -242q-6 -27 -7 -55q0 -66 43 -110t115 -44q72 1 135 55t78 130l43 243q6 27 6 54zM842 664q0 -33 -6 -70l-48 -266q-30 -156 -146 -252t-274 -96t-240 76q-83 76 -83 202q0 33 6 70l47 266q29 156 146 252
t274 96q156 0 240 -76t84 -202zM425 1278q41 0 65 -24t24 -66q0 -41 -37 -78t-79 -37t-66 26q-24 25 -25 65q0 40 38 77t80 37zM747 1278q41 0 65 -24t24 -66q0 -41 -37 -78t-79 -37t-67 26q-25 25 -25 65t39 77q38 37 80 37z" />
    <glyph glyph-name="divide" unicode="&#xf7;" 
d="M446 61q-48 0 -74 33t-18 80t46 80t85 33t75 -33t19 -80t-47 -80t-86 -33zM102 430q-20 0 -18 21l16 81q2 20 23 21h819q21 -1 19 -21l-17 -81q-2 -20 -22 -21h-820zM559 696q-47 0 -75 33t-19 80q10 47 48 80t85 33q48 0 74 -33t18 -80t-46 -80t-85 -33z" />
    <glyph glyph-name="oslash" unicode="&#xf8;" horiz-adv-x="950" 
d="M655 637q0 53 -24 53q-12 0 -21 -14l-272 -459q-23 -35 -23 -47q0 -27 74 -27q74 1 137 55t78 130l47 266q4 25 4 43zM565 754q-1 24 -71 24t-134 -54t-77 -130l-47 -266q-15 -74 16 -74q12 0 20 14l275 449q18 33 18 37zM842 664q0 -33 -6 -70l-48 -266
q-30 -156 -146 -252t-274 -96t-240 76q-83 76 -83 202q0 33 6 70l47 266q29 156 146 252t274 96q156 0 240 -76t84 -202z" />
    <glyph glyph-name="ugrave" unicode="&#xf9;" horiz-adv-x="983" 
d="M590 0q-18 0 -18 20t6 33q0 17 -10 17t-23 -9q-84 -61 -180 -61q-147 0 -231 76q-83 76 -83 203q0 33 6 69l99 553q2 20 22 21h144q18 0 18 -12t-8 -50l-82 -467q-10 -51 -10 -76q0 -65 43 -109t115 -44t134 54q63 54 78 130l99 553q2 20 22 21h143q19 -1 19 -15
l-156 -887q-2 -20 -24 -20h-123zM631 1055q0 -20 -25 -21h-69q-27 0 -45 23l-189 223q-18 18 -18 31q0 20 24 20h154q37 0 49 -24l109 -228q2 -4 4 -9t4 -9t2 -6z" />
    <glyph glyph-name="uacute" unicode="&#xfa;" horiz-adv-x="983" 
d="M590 0q-18 0 -18 20t6 33q0 17 -10 17t-23 -9q-84 -61 -180 -61q-147 0 -231 76q-83 76 -83 203q0 33 6 69l99 553q2 20 22 21h144q18 0 18 -12t-8 -50l-82 -467q-10 -51 -10 -76q0 -65 43 -109t115 -44t134 54q63 54 78 130l99 553q2 20 22 21h143q19 -1 19 -15
l-156 -887q-2 -20 -24 -20h-123zM885 1331q20 0 20 -12t-12 -23l-285 -239q-31 -23 -53 -23h-70q-18 0 -18 12t6 19l201 242q18 25 57 24h154z" />
    <glyph glyph-name="ucircumflex" unicode="&#xfb;" horiz-adv-x="983" 
d="M590 0q-18 0 -18 20t6 33q0 17 -10 17t-23 -9q-84 -61 -180 -61q-147 0 -231 76q-83 76 -83 203q0 33 6 69l99 553q2 20 22 21h144q18 0 18 -12t-8 -50l-82 -467q-10 -51 -10 -76q0 -65 43 -109t115 -44t134 54q63 54 78 130l99 553q2 20 22 21h143q19 -1 19 -15
l-156 -887q-2 -20 -24 -20h-123zM791 1051q0 -16 -27 -17h-98q-10 0 -15 10l-65 140q-6 12 -14 12t-17 -12l-113 -140q-8 -10 -18 -10h-98q-35 0 -11 33l228 256q8 8 18 8h74q10 0 14 -8l137 -256q5 -8 5 -16z" />
    <glyph glyph-name="udieresis" unicode="&#xfc;" horiz-adv-x="983" 
d="M590 0q-18 0 -18 20t6 33q0 17 -10 17t-23 -9q-84 -61 -180 -61q-147 0 -231 76q-83 76 -83 203q0 33 6 69l99 553q2 20 22 21h144q18 0 18 -12t-8 -50l-82 -467q-10 -51 -10 -76q0 -65 43 -109t115 -44t134 54q63 54 78 130l99 553q2 20 22 21h143q19 -1 19 -15
l-156 -887q-2 -20 -24 -20h-123zM419 1278q41 0 65 -24t24 -66q0 -41 -37 -78t-79 -37t-66 26q-24 25 -25 65q0 40 38 77t80 37zM740 1278q42 0 66 -24t23 -66q-1 -41 -37 -78t-78 -37t-67 26q-25 25 -25 65t38 77t80 37z" />
    <glyph glyph-name="yacute" unicode="&#xfd;" horiz-adv-x="983" 
d="M893 907q0 -7 -4 -25q-4 -17 -6 -32l-170 -963q-29 -166 -142 -267t-287 -101q-218 0 -292 154q-16 34 -17 48q0 14 15 21l119 55q25 13 35 13t14 -13q37 -115 151 -114q76 0 141 54t76 130l23 133q6 29 6 45t-12 16t-21 -8q-68 -53 -157 -53q-147 0 -231 76
q-83 76 -83 203q0 33 6 69l99 553q2 20 22 21h144q18 0 18 -15q0 -6 -8 -47l-86 -487q-6 -29 -6 -56q0 -65 43 -109t115 -44t134 54q63 54 78 130l99 553q2 20 22 21h143q19 -1 19 -15zM885 1331q20 0 20 -12t-12 -23l-285 -239q-31 -23 -53 -23h-70q-18 0 -18 12t6 19
l201 242q18 25 57 24h154z" />
    <glyph glyph-name="thorn" unicode="&#xfe;" horiz-adv-x="972" 
d="M674 604q0 66 -44 110t-116 44t-136 -54t-77 -131l-35 -202q-6 -27 -6 -54q0 -65 43 -109t115 -44t135 54t78 130l37 207q6 29 6 49zM343 852q9 0 22 8q84 61 182 62q147 0 231 -76t84 -203q0 -20 -8 -70l-39 -225q-27 -152 -145 -250t-264 -98q-96 0 -162 61
q-12 8 -15 9q-16 0 -20 -25l-86 -485q-2 -20 -25 -21h-143q-16 0 -16 15l301 1716q2 20 24 20h123q18 0 19 -14l-66 -371l-6 -37q0 -16 9 -16z" />
    <glyph glyph-name="ydieresis" unicode="&#xff;" horiz-adv-x="983" 
d="M893 907q0 -7 -4 -25q-4 -17 -6 -32l-170 -963q-29 -166 -142 -267t-287 -101q-218 0 -292 154q-16 34 -17 48q0 14 15 21l119 55q25 13 35 13t14 -13q37 -115 151 -114q76 0 141 54t76 130l23 133q6 29 6 45t-12 16t-21 -8q-68 -53 -157 -53q-147 0 -231 76
q-83 76 -83 203q0 33 6 69l99 553q2 20 22 21h144q18 0 18 -15q0 -6 -8 -47l-86 -487q-6 -29 -6 -56q0 -65 43 -109t115 -44t134 54q63 54 78 130l99 553q2 20 22 21h143q19 -1 19 -15zM419 1278q41 0 65 -24t24 -66q0 -41 -37 -78t-79 -37t-66 26q-24 25 -25 65q0 40 38 77
t80 37zM740 1278q42 0 66 -24t23 -66q-1 -41 -37 -78t-78 -37t-67 26q-25 25 -25 65t38 77t80 37z" />
    <glyph glyph-name="dotlessi" unicode="&#x131;" horiz-adv-x="434" 
d="M360 909q0 -12 -10 -59l-145 -830q-2 -20 -25 -20h-143q-18 0 -19 14q0 2 13 64l145 823q2 20 23 21h143q18 -1 18 -13z" />
    <glyph glyph-name="Lslash" unicode="&#x141;" horiz-adv-x="931" 
d="M270 164h512q19 0 19 -14l-23 -130q-2 -20 -24 -20h-697q-18 0 -18 12t8 43l62 353q6 31 6 34q0 23 -27 2l-33 -28q-6 -6 -15 -6t-20 14l-53 61q-12 11 -12 23t8 18l172 146q25 23 31 59l94 539q2 20 25 20h143q18 0 18 -14l-57 -326q-2 -6 -3 -14t-3 -18t-2 -13
q0 -12 9 -12t18 8l61 53q14 14 35 -6l51 -63q12 -15 12 -25t-8 -16l-197 -166q-27 -20 -32 -57l-70 -402l-6 -41q0 -14 16 -14z" />
    <glyph glyph-name="lslash" unicode="&#x142;" horiz-adv-x="442" 
d="M356 905q0 -12 10 -12t17 8l61 53q15 15 35 -6l51 -63q13 -17 13 -26t-8 -15l-197 -166q-27 -20 -33 -57l-104 -601q-2 -20 -25 -20h-143q-18 0 -19 14q0 17 9 41l61 353q6 30 6 38t-8 9q-4 0 -19 -11l-32 -28q-5 -6 -15 -6t-20 14l-53 61q-26 26 -4 41l172 146
q25 23 30 59l95 539q2 20 24 20h143q18 0 19 -14l-57 -326q-1 -6 -3 -14t-4 -18t-2 -13z" />
    <glyph glyph-name="OE" unicode="&#x152;" horiz-adv-x="1566" 
d="M793 993q0 66 -43 110t-111 44h-61q-76 0 -140 -54t-78 -130l-106 -601q-8 -41 -8 -65q0 -66 43 -110t110 -44h62q76 1 139 55t78 130l108 612q7 49 7 53zM1337 0h-764q-78 -20 -141 -20h-61q-145 0 -230 74q-84 75 -84 202q0 35 6 72l113 635q29 159 146 253t284 95h62
q70 0 125 -21h772q16 0 16 -14l-20 -129q-2 -20 -25 -21h-537q-23 0 -22 -22l4 -70q0 -35 -6 -71l-29 -160q-8 -49 -8 -51q0 -14 16 -15h420q18 0 18 -12t-8 -53l-14 -78q-2 -20 -24 -21h-420q-20 0 -23 -20l-41 -225q-11 -71 -31 -110q-20 -38 -20 -46t18 -8h537
q16 0 16 -14l-6 -44l-14 -86q-2 -20 -25 -20z" />
    <glyph glyph-name="oe" unicode="&#x153;" horiz-adv-x="1503" 
d="M653 625q0 65 -43 109q-42 44 -114 44t-136 -54t-77 -130l-43 -242q-6 -27 -7 -55q0 -66 43 -110t115 -44q72 1 135 55t78 130l43 243q6 27 6 54zM1206 632q0 58 -43 102t-110 44q-123 0 -211 -143l-6 -47q0 -14 16 -15h328q26 1 26 59zM1393 645q0 -31 -9 -76l-20 -118
q-2 -20 -25 -21h-512q-23 0 -24 -20l-15 -82q-6 -31 -8 -39q16 -59 56 -103t104 -43q113 0 195 119q8 12 15 12t28 -12l100 -55q10 -5 10 -19t-51 -71q-123 -137 -326 -137q-152 0 -237 81q-16 17 -24 17t-25 -15q-113 -83 -263 -83t-234 76q-83 76 -83 202q0 33 6 70
l47 266q29 156 146 252q116 96 282 96t250 -90q14 -14 16 -14t27 16q119 88 262 88t227 -88t85 -209z" />
    <glyph glyph-name="Scaron" unicode="&#x160;" horiz-adv-x="917" 
d="M903 1108q0 -14 -16 -21l-117 -53q-33 -14 -41 -14t-10 12q-39 115 -150 115h-32q-86 0 -153 -68t-67 -143q0 -34 19 -64t37 -42q18 -13 28 -20t34 -19q24 -11 34 -17t38 -20l38 -19q194 -95 235 -207q20 -53 21 -118q0 -186 -125 -308t-314 -122h-86q-170 0 -249 98
q-51 63 -52 108q0 12 15 19l114 53q33 16 41 16t11 -14q14 -55 55 -86t94 -31h86q84 0 153 67q68 67 68 147t-66 128q-46 35 -128 75q-80 40 -116 62q-119 74 -151 150q-22 51 -22 117q0 170 119 296t317 126h33q168 0 250 -97q55 -67 55 -106zM868 1655q0 -2 -14 -21
l-199 -221q-10 -10 -22 -10h-86q-12 0 -19 10l-112 207q-14 25 -14 35t18 10h108q12 0 19 -12l53 -111q6 -10 12 -10t17 10l94 111q12 12 22 12h109q14 0 14 -10z" />
    <glyph glyph-name="scaron" unicode="&#x161;" horiz-adv-x="901" 
d="M825 754q0 -26 -16 -33l-102 -47q-33 -16 -39 -17q-8 0 -13 13q-16 49 -59 82t-96 32h-62q-92 0 -132 -39t-40 -77t20 -57q20 -20 39 -27q19 -8 29 -12t34 -10t42 -10t74 -14q185 -35 229 -116q20 -37 21 -86q0 -125 -102 -241t-296 -115h-61q-178 0 -254 104
q-45 62 -45 86t16 31l113 51q25 12 32 12t11 -12q16 -49 59 -82t97 -33h61q84 0 131 44t47 81t-13 50t-26 24t-60 23t-62 16t-73 14q-182 32 -231 116q-20 36 -20 87q0 131 105 241t282 109h61q180 0 258 -106q41 -56 41 -82zM797 1331q20 0 20 -11t-8 -22l-227 -256
q-8 -8 -19 -8h-74q-10 0 -14 8l-137 256q-4 8 -4 15q0 18 24 18h99q10 0 14 -10l66 -139q12 -24 30 0l113 139q6 10 18 10h99z" />
    <glyph glyph-name="Ydieresis" unicode="&#x178;" horiz-adv-x="921" 
d="M1001 1290q21 0 21 -10t-23 -43l-458 -645l-101 -572q-2 -20 -24 -20h-144q-18 0 -18 10t8 43l94 539l-225 631q-7 21 -12 32q-4 10 -4 15q0 20 26 20h168q12 0 17 -12l143 -467q6 -16 16 -16t21 16l307 467q8 12 21 12h167zM450 1632q87 0 87 -85q0 -42 -35 -79
q-35 -36 -77 -36t-65 24q-22 24 -22 65q0 43 35 77t77 34zM756 1632q88 0 88 -86q0 -41 -36 -78q-36 -36 -78 -36t-64 24t-23 65q0 43 35 77t78 34z" />
    <glyph glyph-name="Zcaron" unicode="&#x17d;" horiz-adv-x="901" 
d="M213 1290h686q19 0 19 -14q0 -2 -21 -39l-643 -1026q-16 -27 -16 -33q0 -14 18 -14h455q18 0 18 -11t-4 -28l-18 -105q-2 -20 -25 -20h-729q-37 0 -2 47l645 1032q16 23 16 35t-18 12h-410q-18 0 -18 15l22 129q2 20 25 20zM803 1655q0 -2 -15 -21l-198 -221
q-10 -10 -23 -10h-86q-12 0 -18 10l-113 207q-14 25 -14 31q0 14 18 14h109q12 0 18 -12l54 -111q6 -10 12 -10t16 10l94 111q12 12 23 12h108q15 0 15 -10z" />
    <glyph glyph-name="zcaron" unicode="&#x17e;" horiz-adv-x="880" 
d="M836 905q0 -8 -7 -16l-540 -694q-8 -12 -8 -17q0 -14 20 -14h397q18 0 18 -10t-3 -27l-19 -107q-2 -20 -24 -20h-715q-20 0 -21 14q0 4 9 17l536 694q8 12 8 16q0 14 -20 15h-358q-16 0 -17 14q0 2 4 31l17 98q2 20 24 21h678q21 -1 21 -15zM733 1331q21 0 21 -11t-9 -22
l-227 -256q-8 -8 -18 -8h-74q-10 0 -14 8l-138 256q-4 8 -4 15q0 18 25 18h98q10 0 15 -10l65 -139q13 -26 31 0l112 139q6 10 19 10h98z" />
    <glyph glyph-name="florin" unicode="&#x192;" 
d="M877 1311q108 0 108 -23q0 -4 -4 -12l-61 -119q-6 -14 -21 -14h-4q-41 4 -47 4q-76 0 -139 -54t-78 -130l-31 -175v-6q0 -14 16 -14h144q18 0 18 -14v-2q-2 -2 -2 -4l-20 -123q-2 -20 -25 -21h-143q-23 0 -25 -20l-123 -697q-30 -153 -154 -261t-278 -107q-49 0 -96 8
q-12 2 -12 14q0 4 4 13l61 118q6 14 21 15h2q41 -4 49 -4q76 0 139 54t78 130l125 717q0 2 1 11t-18 9h-51q-18 0 -18 14l2 3v4l20 123q2 20 25 20h51q23 0 25 20l26 154q27 154 154 262t281 107z" />
    <glyph glyph-name="circumflex" unicode="&#x2c6;" horiz-adv-x="1024" 
d="M827 1051q0 -16 -26 -17h-99q-10 0 -14 10l-65 140q-5 12 -13 12t-18 -12l-113 -140q-8 -10 -18 -10h-99q-20 0 -20 13q0 6 10 20l228 256q8 8 18 8h74q10 0 14 -8l137 -256q4 -8 4 -16z" />
    <glyph glyph-name="caron" unicode="&#x2c7;" horiz-adv-x="1024" 
d="M852 1331q20 0 20 -11t-8 -22l-227 -256q-8 -8 -19 -8h-73q-10 0 -15 8l-137 256q-4 8 -4 15q0 18 25 18h98q10 0 14 -10l66 -139q13 -26 31 0l112 139q6 10 19 10h98z" />
    <glyph glyph-name="breve" unicode="&#x2d8;" horiz-adv-x="1024" 
d="M569 1159h93q38 0 70 28t38 64l10 62q2 20 25 20h51q18 0 18 -14l-20 -109q-16 -78 -74 -126t-141 -48h-92q-74 0 -115 38t-41 102q0 2 6 51l15 86q2 20 24 20h51q18 0 19 -14l-14 -82q0 -33 22 -55t55 -23z" />
    <glyph glyph-name="dotaccent" unicode="&#x2d9;" horiz-adv-x="1024" 
d="M640 1325q52 -1 80 -25t28 -56t-12 -88t-50 -87q-39 -31 -91 -31t-80 25t-28 57q1 32 11 87q10 56 50 87t92 31z" />
    <glyph glyph-name="ring" unicode="&#x2da;" horiz-adv-x="1024" 
d="M628 1362q-34 0 -67 -28t-39 -64l-12 -76q0 -34 22 -56t58 -22t68 28t38 64l13 76q0 34 -23 56q-24 22 -58 22zM578 1034q-80 0 -120 38q-42 38 -42 86t14 118q14 72 72 120t138 48q79 0 120 -38t41 -92t-13 -106q-14 -78 -72 -126t-138 -48z" />
    <glyph glyph-name="ogonek" unicode="&#x2db;" horiz-adv-x="1024" 
d="M543 -351q0 -11 -4 -24l-13 -63q-4 -20 -22 -21q-43 0 -94 27q-119 61 -119 196q0 35 10 86l35 191q2 20 22 20h99q18 0 18 -10t-8 -51l-29 -164q-8 -37 -8 -59q0 -94 98 -113q15 -4 15 -15z" />
    <glyph glyph-name="tilde" unicode="&#x2dc;" horiz-adv-x="1024" 
d="M907 1208q0 -8 -33 -47q-88 -104 -174 -104q-53 0 -118 51l-37 29q-81 66 -174 -31q-7 -8 -17 -8t-18 8l-35 29q-6 6 -6 14t41 55q86 92 160 92t125 -49l32 -30q25 -25 75 -25t108 59q15 15 36 -2l29 -26q6 -7 6 -15z" />
    <glyph glyph-name="hungarumlaut" unicode="&#x2dd;" horiz-adv-x="1024" 
d="M682 1331q20 0 20 -11t-16 -32l-182 -244q-8 -10 -21 -10h-43q-16 0 -16 13q0 2 10 28l125 242q6 14 21 14h102zM909 1331q21 0 21 -11t-17 -32l-182 -244q-8 -10 -20 -10h-43q-16 0 -17 13q0 2 11 28l124 242q8 14 21 14h102z" />
    <glyph glyph-name="pi" unicode="&#x3c0;" horiz-adv-x="1124" 
d="M643 354q0 145 43 467h-231q-45 -502 -95 -719q-35 -141 -133 -141q-45 0 -77 33t-33 78q0 45 72 129q73 84 81 151l60 469h-97q-45 0 -79 -20q-34 -19 -52 -39q-16 -20 -47 -70h-35q45 130 87 191q79 116 198 114h764v-176h-258q-25 -240 -25 -481q0 -70 34 -127t98 -57
t98 56q14 24 19 57q5 32 7 40h43q-4 -127 -66 -235t-178 -107q-116 0 -175 174q-23 68 -23 213z" />
    <glyph glyph-name="endash" unicode="&#x2013;" horiz-adv-x="1136" 
d="M59 430q-18 0 -18 14v2l2 5l14 81q2 20 25 21h922q16 0 16 -14v-7l-14 -81q-2 -20 -25 -21h-922z" />
    <glyph glyph-name="emdash" unicode="&#x2014;" horiz-adv-x="1689" 
d="M59 430q-18 0 -18 14v2l2 5l14 81q2 20 25 21h1474q16 0 17 -14v-7l-14 -81q-2 -20 -25 -21h-1475z" />
    <glyph glyph-name="quoteleft" unicode="&#x2018;" horiz-adv-x="362" 
d="M309 1092h23q18 0 18 -15l-2 -2v-4l-24 -137q-2 -20 -23 -21h-154q-18 0 -18 15v6l23 119q26 131 78 205t137 114q4 2 13 2t13 -12l17 -55v-4l2 -5q0 -12 -15 -18q-78 -41 -104 -168q0 -2 -1 -11t17 -9z" />
    <glyph glyph-name="quoteright" unicode="&#x2019;" horiz-adv-x="362" 
d="M389 1276v-2l-2 -4l-20 -119q-39 -229 -211 -317q-8 -4 -13 -5q-12 0 -16 13l-18 55v6q0 14 14 21q76 45 102 168v6q0 14 -16 14h-23q-18 0 -18 14v2q2 2 2 5l23 137q2 20 24 20h154q18 0 18 -14z" />
    <glyph glyph-name="quotesinglbase" unicode="&#x201a;" horiz-adv-x="362" 
d="M-80 -157q0 7 12 14q80 53 105 170v2l2 4q0 14 -19 14h-22q-16 0 -16 14v7l24 137q2 20 23 20h153q18 0 19 -14v-6l-23 -119q-25 -131 -77 -204t-136 -115q-23 -12 -26 10l-17 55v2q-2 2 -2 9z" />
    <glyph glyph-name="quotedblleft" unicode="&#x201c;" horiz-adv-x="645" 
d="M309 1092h23q18 0 18 -15l-2 -2v-4l-24 -137q-2 -20 -23 -21h-154q-18 0 -18 15v6l23 119q26 131 78 205t137 114q4 2 13 2t13 -12l17 -55v-4l2 -5q0 -12 -15 -18q-78 -41 -104 -168q0 -2 -1 -11t17 -9zM592 1092h22q18 0 19 -15l-2 -2v-4l-25 -137q-2 -20 -22 -21h-154
q-18 0 -18 15v6l22 119q25 131 78 205t137 114q3 2 13 2t14 -12l16 -55v-4l2 -5q0 -12 -14 -18q-78 -41 -105 -168q0 -2 -1 -11t18 -9z" />
    <glyph glyph-name="quotedblright" unicode="&#x201d;" horiz-adv-x="645" 
d="M389 1276v-2l-2 -4l-20 -119q-39 -229 -211 -317q-8 -4 -13 -5q-12 0 -16 13l-18 55v6q0 14 14 21q76 45 102 168v6q0 14 -16 14h-23q-18 0 -18 14v2q2 2 2 5l23 137q2 20 24 20h154q18 0 18 -14zM672 1276v-2l-2 -4l-21 -119q-39 -229 -211 -317q-22 -11 -28 8l-19 55v6
q0 14 15 21q76 45 102 168v6q0 14 -16 14h-23q-18 0 -18 14v2q2 2 2 5l22 137q2 20 25 20h153q19 0 19 -14z" />
    <glyph glyph-name="quotedblbase" unicode="&#x201e;" horiz-adv-x="645" 
d="M-80 -157q0 7 12 14q80 53 105 170v2l2 4q0 14 -19 14h-22q-16 0 -16 14v7l24 137q2 20 23 20h153q18 0 19 -14v-6l-23 -119q-25 -131 -77 -204t-136 -115q-23 -12 -26 10l-17 55v2q-2 2 -2 9zM203 -157q0 7 12 14q80 53 104 170v2l3 4q0 14 -19 14h-22q-16 0 -17 14v7
l25 137q2 20 22 20h154q18 0 18 -14v-6l-22 -119q-25 -131 -77 -204t-136 -115q-23 -11 -27 10l-16 55v2q-2 2 -2 9z" />
    <glyph glyph-name="dagger" unicode="&#x2020;" horiz-adv-x="839" 
d="M614 1276l-84 -332q0 -14 18 -14t50 4l215 18q33 4 51 4t17 -14q0 -4 -3 -16t-4 -19l-18 -104q-2 -20 -22 -21q-8 0 -54 4l-196 17l-56 4q-20 0 -20 -23l-4 -133l-232 -1091q-2 -20 -24 -21h-49q-17 1 -17 11t11 81l143 1020l35 105q12 33 12 39q0 12 -13 12t-59 -4
l-205 -17q-37 -4 -54 -4t-17 15l6 41l18 98q4 20 23 20q12 0 49 -4l209 -18q25 -4 47 -4t27 22l30 316q4 23 25 22h127q18 0 18 -14z" />
    <glyph glyph-name="daggerdbl" unicode="&#x2021;" horiz-adv-x="839" 
d="M547 930h4l309 26h4q16 0 17 -14v-6l-25 -133q-2 -20 -22 -21h-5l-297 25h-4q-20 0 -20 -23l-4 -129l-33 -137v-6l-2 -2q0 -14 16 -14h4l295 26h4q14 0 15 -14v-6l-23 -133q-2 -20 -24 -21h-2l-291 25h-2q-23 0 -25 -21l-164 -792q-2 -20 -24 -21h-49q-16 0 -17 15v6
l115 792l2 2v2q0 16 -16 17h-4l-302 -25h-2q-18 0 -18 14q0 2 2 7l23 133q4 20 22 20h4l289 -26h4q18 0 23 22l12 135l45 131q2 4 2 14t-16 9h-7l-307 -25h-2q-16 0 -16 15v6l24 133q4 20 23 20h2l303 -26h4q18 0 23 22l30 316q4 23 25 22h127q18 0 18 -14l-82 -324v-6
l-2 -2q0 -14 17 -14z" />
    <glyph glyph-name="bullet" unicode="&#x2022;" horiz-adv-x="1024" 
d="M829 723q0 -33 -12 -98q-23 -129 -121 -208t-237 -79h-8q-121 0 -192 62t-71 167q0 33 13 99q23 130 121 208t237 78h8q121 0 192 -62q70 -63 70 -167z" />
    <glyph glyph-name="ellipsis" unicode="&#x2026;" horiz-adv-x="2048" 
d="M526 92q0 -47 -32 -80q-32 -32 -80 -32q-47 0 -80 32t-33 80q0 47 33 80t80 33q48 0 80 -33t32 -80zM1135 92q0 -47 -33 -80q-33 -32 -80 -32t-80 32t-33 80q0 47 33 80t80 33t80 -33t33 -80zM1743 92q0 -47 -33 -80q-33 -32 -80 -32t-80 32t-32 80q0 47 32 80
q33 33 80 33t80 -33t33 -80z" />
    <glyph glyph-name="perthousand" unicode="&#x2030;" horiz-adv-x="1519" 
d="M675 127q21 0 43 17t25 40l29 164q8 37 8 51q0 13 -15 29t-38 16t-42 -17t-23 -42l-37 -211q0 -20 14 -34t36 -13zM310 848q22 0 44 17t25 40l29 164q8 37 8 51t-16 30t-38 15q-22 0 -41 -17t-24 -42l-37 -211q0 -19 14 -33t36 -14zM1164 127q22 0 44 17t25 40l29 164
q8 37 8 51q0 13 -16 29t-38 16t-41 -17t-24 -42l-37 -211q0 -20 14 -34t36 -13zM918 422q0 -12 -5 -37l-34 -201q-15 -82 -77 -133t-146 -51t-127 40q-44 40 -44 107q0 12 4 37l35 201q14 82 76 133t146 51q84 1 128 -39t44 -108zM940 1290q18 0 18 -11t-4 -17l-755 -1250
q-6 -12 -21 -12h-80q-18 0 -18 11t4 18l756 1249q6 12 20 12h80zM553 1143q0 -12 -4 -37l-35 -201q-14 -82 -76 -133t-145 -51q-84 0 -128 40t-44 107q0 12 4 37l35 199q14 82 76 134t146 52q83 0 127 -40t44 -107zM1407 422q0 -12 -4 -37l-35 -201q-14 -82 -76 -133
t-146 -51q-83 0 -127 40t-44 107q0 12 4 37l35 201q14 82 76 133t146 51q83 1 127 -39t44 -108z" />
    <glyph glyph-name="guilsinglleft" unicode="&#x2039;" horiz-adv-x="692" 
d="M594 942q10 0 10 -14l-22 -123q-4 -14 -17 -23l-305 -194q-14 -10 -14 -18t8 -15l231 -190q15 -13 15 -21t-4 -29l-17 -92q-4 -23 -20 -22q-6 0 -27 16l-334 270q-12 8 -12 21l20 123q2 12 13 16l438 279q27 16 37 16z" />
    <glyph glyph-name="guilsinglright" unicode="&#x203a;" horiz-adv-x="692" 
d="M160 798q0 8 4 29l16 93q4 23 21 22q6 0 26 -16l334 -271q12 -8 12 -20l-20 -123q-2 -12 -12 -16l-439 -279q-27 -16 -32 -16q-14 0 -15 14l23 123q4 14 16 22l305 195q14 10 15 18q0 8 -8 15l-232 190q-14 12 -14 20z" />
    <glyph glyph-name="fraction" unicode="&#x2044;" horiz-adv-x="315" 
d="M567 1290q19 0 19 -11t-4 -17l-756 -1250q-6 -12 -21 -12h-49q-18 0 -18 11t4 18l756 1249q6 12 20 12h49z" />
    <glyph glyph-name="Euro" unicode="&#x20ac;" 
d="M674 1169q-84 0 -154 -58t-84 -142l-10 -66q-4 -20 16 -20h306q18 0 16 -21l-16 -90q-2 -20 -23 -20h-305q-20 0 -25 -21l-30 -174q-4 -20 16 -20h305q23 0 16 -21l-14 -88q-2 -20 -24 -20h-306q-20 0 -24 -21l-10 -65q-12 -84 34 -143q47 -58 129 -58h64q117 0 203 117
q16 16 28 8l99 -56q16 -8 4 -26q-53 -74 -137 -130t-222 -54h-63q-164 0 -244 94t-57 248l10 65q4 20 -16 21h-123q-18 0 -17 20l15 88q6 20 24 21h123q20 0 25 20l30 174q4 20 -16 21h-123q-20 0 -18 20l16 90q2 20 25 21h123q20 0 24 20l10 66q23 153 141 247t283 95h64
q152 0 231 -80q37 -38 62 -101q8 -16 -15 -28l-118 -53q-16 -8 -23 8q-49 113 -162 112h-63z" />
    <glyph glyph-name="trademark" unicode="&#x2122;" horiz-adv-x="835" 
d="M397 1108q0 -49 -28 -49h-56q-23 0 -24 -21l-49 -280q-2 -20 -25 -21h-25q-16 0 -16 15q0 4 4 28l41 236q4 25 4 28q0 14 -16 15h-55q-16 0 -17 14q0 16 4 29q2 20 25 20h217q16 0 16 -14zM831 1108q0 -14 -6 -41l-55 -309q-2 -20 -25 -21h-24q-16 0 -16 15q0 8 4 28
l18 103q4 16 4 31q0 16 -11 16t-26 -15l-65 -84q-6 -10 -21 -10h-8q-10 0 -14 10l-41 84q-9 15 -23 15t-16 -25l-27 -147q-2 -20 -24 -21h-25q-16 0 -16 15q0 4 4 28l57 322q2 20 25 20h24q12 0 17 -10l65 -166q8 -14 18 -14t19 14l127 166q6 10 21 10h24q16 0 16 -14z" />
    <glyph glyph-name="Omega" unicode="&#x2126;" horiz-adv-x="1572" 
d="M1507 0h-604l33 311q104 45 149 88t93 151t49 273q0 231 -108 375t-331 145q-222 0 -330 -144t-108 -376q0 -166 48 -273q48 -106 94 -150t149 -89l33 -311h-604v332h30q16 -72 42 -99t94 -26h323l-4 57q-121 35 -201 84t-141 139q-102 154 -102 328q0 274 198 434
q199 160 479 160t480 -160q199 -160 198 -434q0 -174 -102 -328q-61 -90 -141 -139t-201 -84l-4 -57h323q68 1 94 27t42 98h30v-332z" />
    <glyph glyph-name="partialdiff" unicode="&#x2202;" horiz-adv-x="1011" 
d="M332 633q-102 -137 -102 -330t94 -256q41 -29 83 -29q41 0 97 24t104 90q80 109 117 322q13 68 25 158q-17 17 -43 48q-71 83 -183 83t-192 -110zM946 805q0 -123 -30 -278t-76 -258t-91 -161q-44 -58 -129 -104t-180 -47q-166 0 -276 118q-110 119 -111 287
q0 168 114 314t279 147q126 0 216 -61q33 -23 104 -78q40 220 3 407q-19 95 -48 161t-91 118q-62 51 -136 60q-20 2 -76 2t-94 -16t-68 -30q-29 -14 -43 -20l-80 102q307 130 526 -18q115 -78 189 -209q98 -174 98 -436z" />
    <glyph glyph-name="Delta" unicode="&#x2206;" horiz-adv-x="1253" 
d="M991 100l-397 959l-447 -959h844zM1245 0h-1233l656 1409z" />
    <glyph glyph-name="product" unicode="&#x220f;" horiz-adv-x="1685" 
d="M1645 -207h-627v47q102 0 149 34t47 132v1419h-733v-1419q0 -98 48 -132t151 -34v-47h-629v47q102 0 151 34q48 34 48 132v1282q0 203 -195 203v47h1583v-47q-193 0 -192 -203v-1282q0 -98 48 -132t151 -34v-47z" />
    <glyph glyph-name="summation" unicode="&#x2211;" horiz-adv-x="1460" 
d="M246 1526h1018l12 -326h-41q-31 100 -43 125q-59 109 -270 109h-539l559 -734l-602 -694h760q66 0 108 12q70 20 123 116q18 34 45 104h47q-63 -258 -88 -459q-141 23 -157 22h-1031q-18 0 -58 -3t-60 -3l714 815l-710 930q126 -14 213 -14z" />
    <glyph glyph-name="minus" unicode="&#x2212;" 
d="M913 553q17 0 17 -14l-15 -88q-2 -20 -24 -21h-819q-18 0 -19 14l17 88q2 20 24 21h819z" />
    <glyph glyph-name="radical" unicode="&#x221a;" horiz-adv-x="1124" 
d="M1055 1868l-307 -1946l-498 1028l-197 -96l-33 68l299 147l404 -825l260 1634z" />
    <glyph glyph-name="infinity" unicode="&#x221e;" horiz-adv-x="1460" 
d="M340 721q-76 0 -130 -57q-54 -56 -54 -132t59 -128t127 -52t102 18q35 18 46 23q11 3 33 21t29 23t31 25q25 20 27 25q2 4 27 28t27 26q-24 24 -47 41q-23 16 -49 36t-37 28t-35 22q-24 16 -39 22q-16 6 -45 18t-72 13zM1114 352q74 0 134 52t59 127t-55 133t-116 57
q-62 0 -109 -20q-48 -20 -70 -36q-23 -15 -51 -37t-37 -29t-38 -32t-32 -26q117 -115 179 -152t136 -37zM1411 545q0 -115 -82 -203t-194 -88q-184 0 -367 183q-23 24 -37 36q-14 -12 -37 -36q-175 -183 -366 -183q-113 0 -195 88t-82 203t87 199t204 83q72 0 152 -41
q80 -42 118 -74t119 -104q80 72 119 105t119 73t151 41q117 1 204 -83t87 -199z" />
    <glyph glyph-name="integral" unicode="&#x222b;" horiz-adv-x="561" 
d="M246 1157q0 389 53 567q18 60 60 106q41 46 97 46t98 -31t42 -77t-33 -72t-69 -25q-36 0 -63 25q-28 25 -44 24q-37 0 -37 -57q0 -4 20 -260t19 -391v-13l-2 -442q0 -187 -29 -415t-100 -310q-18 -20 -59 -36t-79 -15q-38 0 -77 38t-39 79q0 40 29 68t59 28t66 -34
q35 -34 47 -34q53 0 53 201v25l-12 610v395z" />
    <glyph glyph-name="approxequal" unicode="&#x2248;" horiz-adv-x="1124" 
d="M791 287q-35 0 -76 10l-307 88q-49 14 -104 14q-54 1 -94 -27t-93 -96l-88 56q121 162 295 162q47 0 104 -15l309 -86q25 -6 69 -6t104 31t94 80l75 -49q-45 -76 -123 -119t-165 -43zM791 596q-35 0 -76 10l-307 88q-130 36 -198 -13q-40 -28 -93 -95l-88 55
q121 162 295 162q47 0 104 -15l309 -86q25 -6 69 -6t104 31t94 80l75 -49q-45 -76 -123 -119t-165 -43z" />
    <glyph glyph-name="notequal" unicode="&#x2260;" horiz-adv-x="1124" 
d="M1106 279h-621l-184 -330l-100 57l151 273h-321v112h385l157 285h-542v112h606l186 336l101 -57l-156 -279h338v-112h-399l-160 -285h559v-112z" />
    <glyph glyph-name="lessequal" unicode="&#x2264;" horiz-adv-x="1124" 
d="M1077 0h-1018v113h1018v-113zM1077 240l-1018 471v127l1018 471v-127l-887 -408l887 -407v-127z" />
    <glyph glyph-name="greaterequal" unicode="&#x2265;" horiz-adv-x="1124" 
d="M1077 0h-1018v113h1018v-113zM1077 711l-1018 -471v127l887 407l-887 408v127l1018 -471v-127z" />
    <glyph glyph-name="lozenge" unicode="&#x25ca;" horiz-adv-x="1011" 
d="M831 772l-335 643l-336 -643l336 -661zM954 772l-397 -772h-123l-397 772l397 754h123z" />
    <glyph glyph-name="E.alt" unicode="&#xe001;" horiz-adv-x="983" 
d="M285 1290h696q18 0 18 -14l-22 -129q-2 -20 -25 -21h-512q-23 0 -24 -20l-56 -313q-6 -35 -6 -41q0 -14 17 -15h420q18 0 18 -14l-23 -129q-2 -20 -24 -21h-420q-20 0 -23 -20l-61 -344q-4 -21 -4 -33t16 -12h512q18 0 19 -14l-23 -130q-2 -20 -24 -20h-697q-18 0 -18 14
l221 1256q2 20 25 20z" />
    <glyph glyph-name="zero.oldstyle" unicode="&#xf730;" 
d="M586 850h-62q-76 0 -139 -54t-78 -130l-59 -338q-14 -76 31 -130t120 -55h62q76 1 139 55t78 130l59 338q14 76 -30 130q-45 54 -121 54zM432 -20h-61q-168 0 -252 96t-56 252l60 338q29 156 145 252q117 96 285 96h61q168 0 252 -96t56 -252l-60 -338
q-30 -156 -146 -252t-284 -96z" />
    <glyph glyph-name="one.oldstyle" unicode="&#xf731;" 
d="M754 0h-635q-18 0 -17 20l21 123q6 20 24 21h205q23 0 25 20l82 463q4 15 -7 21t-26 -6l-117 -101q-16 -14 -28 0l-74 88q-12 14 4 29l389 330q6 6 14 6h72q20 0 19 -21l-144 -809q-2 -20 17 -20h204q23 -1 17 -21l-21 -123q-2 -20 -24 -20z" />
    <glyph glyph-name="two.oldstyle" unicode="&#xf732;" 
d="M272 164h519q20 0 18 -19l-25 -129q-2 -16 -22 -16h-709q-22 0 -18 16l24 131q32 171 154 251q102 67 236 108q16 6 62 20t61 20q14 6 48 20q34 13 64 39t38 45q9 19 13 44q12 72 -30 114q-43 42 -138 42h-80q-111 0 -188 -119q-10 -16 -29 -8l-114 68q-18 10 -4 28
q137 195 366 195h84q172 0 255 -89t56 -239q-18 -99 -69 -149q-29 -29 -60 -56t-229 -93t-243 -102q-46 -36 -56 -87l-4 -21q-2 -8 3 -11t17 -3z" />
    <glyph glyph-name="three.oldstyle" unicode="&#xf733;" 
d="M354 -317h-61q-242 0 -301 198q-6 18 12 27l141 65q20 10 27 -10q14 -55 55 -86t95 -31h61q77 0 141 54t76 131l12 71q12 76 -31 130q-44 54 -120 55h-164q-20 0 -18 20l22 123q2 20 25 21h163q76 0 142 55t76 129l4 31q10 76 -34 130t-118 54h-61q-113 0 -191 -115
q-12 -18 -31 -10l-116 66q-16 10 -2 28q131 195 368 195h62q170 0 254 -102t51 -267l-6 -31q-11 -61 -63 -129t-107 -102q-27 -16 -6 -33q43 -38 69 -110t17 -131l-11 -62q-26 -168 -144 -266t-288 -98z" />
    <glyph glyph-name="four.oldstyle" unicode="&#xf734;" 
d="M209 164h309q23 0 25 20l82 463q5 19 -9 23t-26 -11l-391 -462q-12 -14 -10 -24q3 -9 20 -9zM858 0h-143q-23 0 -25 -20l-45 -259q-2 -20 -24 -20h-144q-18 0 -16 20l45 259q2 20 -17 20h-512q-18 0 -16 20l29 144l688 819q8 8 16 8h154q20 0 18 -20l-139 -787
q-2 -20 16 -20h144q22 -1 16 -21l-20 -123q-2 -20 -25 -20z" />
    <glyph glyph-name="five.oldstyle" unicode="&#xf735;" 
d="M432 827q-18 0 -24 -20l-60 -338q-2 -20 19 -20h143q168 1 249 -97t54 -268l-6 -39q-27 -168 -145 -266t-289 -98h-62q-240 0 -299 198q-6 18 13 27l141 65q20 10 27 -10q14 -55 55 -86t94 -31h61q75 0 137 54t78 131l15 71q14 76 -31 130t-121 55h-327q-20 0 -19 20
l119 666q2 20 22 20h656q20 0 18 -20l-22 -123q-2 -20 -25 -21h-471z" />
    <glyph glyph-name="six.oldstyle" unicode="&#xf736;" 
d="M557 594h-61q-76 0 -140 -54t-77 -130l-15 -82q-14 -76 31 -130t121 -55h61q76 1 139 55t78 130l15 82q14 76 -31 130t-121 54zM655 1147h-61q-76 0 -139 -54t-78 -130l-45 -250q-4 -15 6 -21t24 4q84 61 183 62h61q146 0 230 -98t57 -250l-14 -82q-27 -156 -145 -252
t-285 -96h-62q-168 0 -252 96t-55 252l113 635q29 155 145 251t285 97h61q240 0 303 -195q6 -18 -12 -29l-141 -65q-20 -8 -27 10q-31 115 -152 115z" />
    <glyph glyph-name="seven.oldstyle" unicode="&#xf737;" 
d="M209 -299h-143q-18 0 -17 20l53 308q18 102 76 186t114 126q56 43 183 119t176 124q78 76 92 170l9 53q6 20 -17 20h-512q-18 0 -16 21l22 123q2 20 23 20h696q21 0 19 -20l-39 -217q-32 -185 -157 -298q-65 -58 -107 -87t-112 -72q-196 -119 -237 -189q-20 -36 -28 -79
l-54 -308q-2 -20 -24 -20z" />
    <glyph glyph-name="eight.oldstyle" unicode="&#xf738;" 
d="M537 573h-62q-74 0 -136 -54t-79 -130l-12 -61q-14 -76 31 -130t120 -55h62q76 1 138 55t79 130l12 61q14 74 -32 129t-121 55zM639 1147h-61q-76 0 -138 -54t-80 -130l-8 -41q-14 -76 31 -130t121 -55h61q76 1 138 55t79 130l9 41q14 76 -31 130t-121 54zM432 -20h-61
q-168 0 -250 97t-53 267l8 51q8 59 61 131t111 111q27 16 6 33q-43 36 -70 104t-18 127l6 41q27 170 145 269q119 99 289 100h62q168 -1 249 -99t54 -270l-6 -41q-9 -59 -61 -128t-109 -103q-27 -16 -7 -33q43 -37 69 -109t17 -133l-8 -51q-28 -168 -146 -266t-288 -98z" />
    <glyph glyph-name="nine.oldstyle" unicode="&#xf739;" 
d="M569 850h-61q-76 0 -139 -54t-78 -130l-27 -154q-14 -76 31 -130t121 -54h61q76 0 139 54t78 130l27 154q14 76 -31 130t-121 54zM365 -317h-62q-242 0 -301 198q-6 18 12 27l142 65q20 10 26 -10q31 -117 150 -117h61q76 0 141 54t76 131l31 178q4 16 -6 21t-27 -5
q-84 -61 -180 -61h-61q-147 0 -231 98q-83 98 -56 250l26 154q27 156 145 252t286 96h61q168 0 251 -96t56 -252l-110 -635q-27 -156 -145 -252t-285 -96z" />
    <glyph glyph-name="apple" unicode="&#xf8ff;" horiz-adv-x="1617" 
d="M1096 -4q-52 0 -132 33q-81 33 -126 33t-125 -34t-125 -34q-207 0 -389 393q-84 182 -84 389q0 43 6 84q76 410 446 410q51 0 79 -7t88 -33t104 -26t103 26q60 26 88 33t81 7q166 0 270 -82q23 -16 78 -78q-53 -39 -82 -67t-55 -72q-53 -90 -53 -212t90 -220
q10 -13 17 -21t19 -17t16 -13q6 -4 20 -13q14 -7 26 -15t45 -24q-2 -2 -17 -37q-14 -35 -18 -40t-19 -37t-21 -39q-6 -8 -19 -35q-15 -27 -23 -38t-22 -34t-38 -51t-54 -53q-29 -25 -33 -29t-15 -13q-10 -10 -18 -12t-32 -12t-76 -10zM1159 1593q0 -131 -74 -204
q-57 -61 -139 -109q-20 -12 -115 -18q-2 12 -2 40t26 96t58 109q96 123 246 148v-62z" />
    </font>
</defs>
</svg>
