<?xml version="1.0" standalone="no"?>
<!DOCTYPE svg PUBLIC "-//W3C//DTD SVG 1.1//EN" "http://www.w3.org/Graphics/SVG/1.1/DTD/svg11.dtd" >
<svg xmlns="http://www.w3.org/2000/svg">
<metadata>
Created by FontPrep 20130207 at Mon Aug 19 20:13:37 2013
 By Fabien Postif
Copyright (c) Agfa Monotype Corporation, 2002. All rights reserved. ITC Conduit is designed by Mark van Bronkhorst, MvB Design. ITC Conduit is a trademark of International Typeface Corporation.
</metadata>
<defs>
<font id="b83e755fbb9db7235a2d05363e57750f" >
  <font-face 
    font-family="ConduitITCLight-Italic"
    font-weight="400"
    font-style="italic"
    font-stretch="normal"
    units-per-em="2048"
    panose-1="2 0 5 6 4 0 0 2 0 4"
    ascent="1638"
    descent="-410"
    x-height="903"
    cap-height="1288"
    bbox="-340.694 -481 1745 1878"
    underline-thickness="96"
    underline-position="-135"
    slope="-11"
    unicode-range="U+0020-FB04"
  />
<missing-glyph horiz-adv-x="356" 
 />
    <glyph glyph-name="ff" unicode="ff" horiz-adv-x="1105" 
d="M803 1071q0 8 -21 39q-57 82 -151 82t-169 -62t-91 -155l-23 -123q-4 -16 -4 -30t18 -13h361q20 0 22 20l23 125q8 49 22 79t13 38zM1188 1311q80 0 80 -17q0 -8 -13 -28l-30 -62q-8 -14 -23 -14l-35 2q-90 0 -166 -62t-92 -155l-22 -123q-4 -16 -4 -30t18 -13h152
q16 0 16 -14t-4 -27l-10 -55q-2 -20 -23 -21h-151q-23 0 -25 -20l-125 -705q-27 -150 -147 -253t-269 -103q-80 0 -82 16q0 8 13 29l33 61q8 14 20 15l37 -2q90 0 164 62t90 155l119 667q10 61 10 64q0 14 -17 14h-360q-23 0 -25 -20l-141 -797q-28 -150 -148 -253
t-268 -103q-80 0 -82 16q0 8 13 29l33 61q6 14 20 15l37 -2q90 0 164 62t90 155l135 759q10 61 10 64q0 14 -16 14h-55q-18 0 -19 15q0 6 4 26l10 55q2 20 25 21h55q20 0 23 20l22 125q27 150 149 253t266 103t228 -89q23 -23 28 -23t28 19q125 94 260 94z" />
    <glyph glyph-name="fi" unicode="fi" horiz-adv-x="995" 
d="M182 678q0 14 -16 14h-55q-18 0 -19 15q0 6 4 26l10 55q2 20 25 21h55q20 0 23 20l22 125q23 132 124 230t243 123h8q14 0 15 -15v-6l-15 -78q-4 -16 -20 -20q-84 -18 -142 -76t-71 -137l-23 -123q-4 -16 -4 -30t19 -13h151q16 0 16 -14t-4 -27l-10 -55q-2 -20 -22 -21
h-152q-23 0 -25 -20l-141 -797q-28 -150 -148 -253t-268 -103q-81 0 -81 16q0 8 12 29l33 61q8 14 20 15l37 -2q90 0 164 62t90 155l135 759q10 61 10 64zM891 891q0 -6 -12 -76l-140 -795q-2 -20 -24 -20h-99q-18 0 -18 12t6 38t8 40l140 795q2 20 24 20h98q17 0 17 -14z
M892 1311q38 -1 60 -21t21 -57q0 -37 -35 -71t-72 -34t-57 20q-21 20 -21 58q0 37 33 71t71 34z" />
    <glyph glyph-name="fl" unicode="fl" horiz-adv-x="1001" 
d="M182 678q0 14 -16 14h-55q-18 0 -19 15q0 6 4 26l10 55q2 20 25 21h55q20 0 23 20l18 105q27 146 149 250t269 104h303q17 0 17 -14q0 -4 -7 -41l-213 -1213q-2 -20 -24 -20h-98q-18 0 -19 14q0 2 12 64l181 1026q8 49 8 53q0 14 -17 14h-163q-90 0 -165 -63t-91 -154
l-19 -102q-4 -16 -4 -30t19 -13h151q16 0 16 -14t-4 -27l-10 -55q-2 -20 -22 -21h-152q-23 0 -25 -20l-141 -797q-28 -150 -148 -253t-268 -103q-81 0 -81 16q0 8 12 29l33 61q8 14 20 15l37 -2q90 0 164 62t90 155l135 759q10 61 10 64z" />
    <glyph glyph-name="ffi" unicode="ffi" horiz-adv-x="1517" 
d="M803 1071q0 8 -21 39q-57 82 -151 82t-169 -62t-91 -155l-23 -123q-4 -16 -4 -30t18 -13h361q20 0 22 20l23 125q8 49 22 79t13 38zM180 678q0 14 -16 14h-55q-18 0 -19 15q0 6 4 26l10 55q2 20 25 21h55q20 0 23 20l22 125q27 150 149 253t266 103t228 -89
q23 -23 26 -23t15 8q90 74 222 101h8q14 0 14 -15v-6l-14 -80q-4 -16 -21 -20q-84 -16 -141 -74t-72 -137l-22 -123q-4 -16 -4 -30t18 -13h152q16 0 16 -14t-4 -27l-10 -55q-2 -20 -23 -21h-151q-23 0 -25 -20l-125 -705q-27 -150 -147 -253t-269 -103q-80 0 -82 16
q0 8 13 29l33 61q8 14 20 15l37 -2q90 0 164 62t90 155l119 667q10 61 10 64q0 14 -17 14h-360q-23 0 -25 -20l-141 -797q-28 -150 -148 -253t-268 -103q-80 0 -82 16q0 8 13 29l33 61q6 14 20 15l37 -2q90 0 164 62t90 155l135 759q10 61 10 64zM1413 891q0 -6 -12 -76
l-139 -795q-2 -20 -25 -20h-98q-18 0 -19 14q0 10 6 36t9 40l139 795q2 20 24 20h99q16 0 16 -14zM1388 1128q-77 0 -77 78q0 37 32 71q33 34 71 34q38 -1 60 -21t21 -57q0 -37 -35 -71t-72 -34z" />
    <glyph glyph-name="ffl" unicode="ffl" horiz-adv-x="1538" 
d="M805 1065q0 6 -14 31q-57 96 -155 96t-174 -62q-75 -62 -91 -155l-23 -123q-4 -16 -4 -30t18 -13h361q20 0 22 20l19 105q12 57 26 91t15 40zM180 678q0 14 -16 14h-55q-18 0 -19 15q0 6 4 26l10 55q2 20 25 21h55q20 0 23 20l22 125q27 150 149 253t270 103t231 -96
q25 -28 27 -28t34 22q115 80 244 80h301q16 0 16 -14q0 -2 -10 -64l-209 -1190q-2 -20 -25 -20h-96q-18 0 -18 14q0 4 2 12t4 20q2 11 4 20l186 1062q4 20 4 32t-16 11h-164q-90 0 -166 -63t-92 -154l-18 -102q-4 -16 -4 -30t18 -13h152q16 0 16 -14t-4 -27l-10 -55
q-2 -20 -23 -21h-151q-23 0 -25 -20l-125 -705q-27 -150 -147 -253t-269 -103q-80 0 -82 16q0 8 13 29l33 61q8 14 20 15l37 -2q90 0 164 62t90 155l119 667q10 61 10 64q0 14 -17 14h-360q-23 0 -25 -20l-141 -797q-28 -150 -148 -253t-268 -103q-80 0 -82 16q0 8 13 29
l33 61q6 14 20 15l37 -2q90 0 164 62t90 155l135 759q10 61 10 64z" />
    <glyph glyph-name=".notdef" horiz-adv-x="356" 
 />
    <glyph glyph-name=".null" horiz-adv-x="0" 
 />
    <glyph glyph-name="nonmarkingreturn" horiz-adv-x="681" 
 />
    <glyph glyph-name="space" unicode=" " horiz-adv-x="356" 
 />
    <glyph glyph-name="exclam" unicode="!" horiz-adv-x="587" 
d="M210 170q42 0 66 -24t23 -65q0 -42 -37 -77t-79 -35q-43 0 -67 25q-24 24 -24 64t38 76t80 36zM256 383h-10q-16 0 -16 17t3 87l11 261l92 520q2 20 24 20h99q16 0 16 -14l-90 -524l-104 -349q-6 -18 -25 -18z" />
    <glyph glyph-name="quotedbl" unicode="&#x22;" horiz-adv-x="577" 
d="M330 1298q18 0 18 -11t-8 -32l-88 -288q-6 -18 -23 -19h-30q-19 0 -19 21t4 90l9 217q0 23 24 22h113zM586 1298q18 0 18 -11t-8 -32l-88 -288q-6 -18 -23 -19h-30q-19 0 -19 21t4 90l9 217q0 23 24 22h113z" />
    <glyph glyph-name="numbersign" unicode="#" horiz-adv-x="1153" 
d="M735 788h-250q-18 0 -20 -12l-72 -258q0 -18 23 -18h250q16 0 20 16l72 256q0 16 -23 16zM893 788q-18 0 -21 -12l-71 -258q0 -18 22 -18h127q16 0 17 -13l-23 -84q-6 -20 -26 -20h-142q-18 0 -20 -12l-101 -357q-2 -14 -20 -14h-68q-23 0 -22 18l98 349q0 16 -22 16
h-250q-18 0 -21 -12l-102 -357q-2 -14 -21 -14h-67q-23 0 -23 18l96 349q0 16 -22 16h-105q-16 0 -16 12l23 84q6 20 26 21h117q16 0 20 16l74 256q0 16 -22 16h-123q-16 0 -17 13l23 84q6 20 27 20h135q16 0 20 17l103 354q2 14 20 14h68q23 0 22 -18l-98 -348
q0 -18 22 -19h250q16 0 21 17l102 354q2 14 21 14h67q23 0 23 -18l-99 -348q0 -18 23 -19h109q16 0 16 -12l-23 -84q-6 -20 -26 -21h-121z" />
    <glyph glyph-name="dollar" unicode="$" 
d="M719 362q0 78 -101 152q-33 25 -43 25q-16 0 -20 -23l-59 -342q-15 -68 2 -70q31 0 80 31q63 33 102 91t39 136zM358 935q0 -69 84 -132q41 -27 47 -27q16 0 21 23l55 315l8 51q-1 17 -21 17t-74 -34t-87 -89t-33 -124zM367 -127q-16 0 -17 14l12 78q0 14 -16 15
q-170 0 -246 96q-39 50 -39 72t17 28l80 37q16 8 23 8t14 -10q27 -53 73 -84t99 -31q20 0 22 21l76 428q6 37 6 44t-8 13q-121 61 -183 126t-63 175q0 159 102 269t265 137q14 2 18 20l12 68q2 20 25 20h55q18 0 19 -14l-15 -78q0 -12 15 -14q131 -16 200 -97q43 -50 43 -70
t-16 -28l-76 -35q-26 -10 -32 -10t-9 8q-33 57 -75 82q-37 25 -58 25q-16 0 -20 -23l-68 -385l-8 -49q0 -8 10 -14q123 -61 191 -131t67 -191q0 -169 -108 -279t-277 -132q-16 -2 -18 -21l-13 -67q-2 -20 -24 -21h-55z" />
    <glyph glyph-name="percent" unicode="%" horiz-adv-x="1003" 
d="M766 396q0 24 -20 44t-50 20q-32 0 -60 -24q-28 -25 -34 -57l-39 -217q1 -29 21 -49q20 -21 51 -21t59 25t35 57l35 191q2 7 2 31zM436 1136q0 22 -20 42t-51 20t-60 -24t-35 -58l-30 -174q-6 -36 -6 -54t18 -38q20 -20 51 -20t59 24q28 25 35 57l35 191q4 12 4 34z
M870 414q0 -23 -2 -35l-37 -205q-14 -78 -72 -126q-57 -48 -137 -48t-122 38t-41 101q0 10 4 35l37 205q14 78 72 126t138 48t120 -38t40 -101zM905 1290q19 0 19 -11t-4 -17l-756 -1250q-6 -12 -21 -12h-49q-18 0 -18 11t4 18l756 1249q6 12 20 12h49zM541 1151
q0 -10 -4 -35l-37 -205q-14 -78 -72 -126t-138 -48q-79 0 -120 38t-41 102q0 23 2 34l37 205q14 78 72 126t138 48q79 0 121 -38t42 -101z" />
    <glyph glyph-name="ampersand" unicode="&#x26;" horiz-adv-x="1280" 
d="M709 266q0 4 -19 31q-94 143 -143 186q-15 14 -75 57q-60 44 -68 44t-29 -13q-127 -70 -150 -192q-16 -88 -16 -103q0 -76 51 -128t131 -52h64q57 0 123 37t98 83t33 50zM770 1014q0 78 -52 128t-148 50t-170 -80t-74 -180t145 -215q10 -8 23 -8q68 0 156 62t108 163
q12 62 12 80zM1239 696q0 -2 -6 -39l-12 -61q-2 -20 -23 -21h-31q-147 0 -258 -217l-18 -36q-12 -20 4 -41q102 -121 229 -158q17 -6 14 -19q-3 -14 -8 -34l-14 -68q-4 -20 -22 -20q-43 0 -124 36t-149 111q-16 23 -25 23t-20 -11q-135 -162 -342 -161h-63q-141 0 -221 72
t-80 219q0 146 86 252q57 73 135 106q18 6 18 20q0 6 -16 23q-115 111 -115 223q0 154 113 285t315 131q141 0 221 -74t80 -203q0 -283 -274 -377q-23 -6 -23 -22q0 -8 8 -14q66 -53 164 -179q6 -10 18 -10t19 19q125 262 387 262h15q18 -1 18 -17z" />
    <glyph glyph-name="quotesingle" unicode="'" horiz-adv-x="321" 
d="M330 1298q18 0 18 -11t-8 -32l-88 -288q-6 -18 -23 -19h-30q-19 0 -19 21t4 90l9 217q0 23 24 22h113z" />
    <glyph glyph-name="parenleft" unicode="(" horiz-adv-x="770" 
d="M270 -88q0 -62 37 -110t105 -62q12 -2 12 -16l-14 -84q-2 -20 -21 -21q-68 0 -135 45q-121 74 -121 236q0 35 6 75l207 1172q39 223 238 313q84 39 137 39q14 0 14 -16l-16 -84q-4 -18 -19 -21q-84 -16 -140 -74t-71 -137l-215 -1214q-4 -29 -4 -41z" />
    <glyph glyph-name="parenright" unicode=")" horiz-adv-x="770" 
d="M604 1223q0 -35 -6 -76l-207 -1172q-37 -211 -217 -307q-94 -49 -158 -49q-14 0 -14 14l14 86q4 16 21 21q84 18 141 76t72 137l215 1214q2 12 2 57q0 44 -37 92t-104 62q-14 4 -15 17l15 84q2 20 22 20q66 0 141 -49q115 -73 115 -227z" />
    <glyph glyph-name="asterisk" unicode="*" horiz-adv-x="786" 
d="M551 1082q0 -12 12 -19l203 -92q10 -5 10 -13t-6 -16l-51 -65q-7 -11 -17 -11t-14 4l-170 134q-6 6 -14 6q-20 0 -21 -25l-12 -233q0 -23 -25 -23h-79q-18 0 -19 19l64 210q10 25 10 38t-14 14q-10 0 -19 -6l-209 -134q-8 -6 -16 -6t-14 13l-29 71q0 18 18 25l228 90
q18 6 18 18t-12 19l-195 96q-12 6 -12 13t6 16l51 65q19 23 33 6l158 -137q6 -6 14 -6q16 0 21 25l16 229q0 23 24 23h78q18 0 19 -17l-60 -203q-10 -37 -10 -47t10 -10t21 6l217 137q18 14 29 -6l28 -69q0 -18 -16 -25l-236 -96q-18 -6 -18 -18z" />
    <glyph glyph-name="plus" unicode="+" 
d="M551 545q0 -12 18 -13h342q17 0 17 -16l-10 -59q-2 -20 -23 -21h-342q-23 0 -25 -20l-61 -342q-2 -20 -23 -21h-53q-18 1 -18 13t8 49l45 256q8 41 8 53t-16 12h-344q-18 0 -19 17l11 59q2 20 24 20h344q23 0 25 21l59 342q2 20 25 20h53q16 0 16 -14l-53 -307
q-8 -37 -8 -49z" />
    <glyph glyph-name="comma" unicode="," horiz-adv-x="428" 
d="M51 186h160q18 0 18 -14q0 -2 -6 -33l-16 -88q-33 -184 -152 -278q-59 -49 -75 -49t-23 10l-18 41q-1 11 25 29t64 85t42 121q0 14 -19 15h-28q-16 0 -17 14l6 41l15 86q2 20 24 20z" />
    <glyph glyph-name="hyphen" unicode="-" horiz-adv-x="534" 
d="M406 508q0 -14 -5 -31l-12 -74q-2 -20 -24 -20h-289q-18 0 -19 14q0 10 4 35l13 70q2 20 24 20h289q19 0 19 -14z" />
    <glyph glyph-name="period" unicode="." horiz-adv-x="428" 
d="M124 170q42 0 66 -24t23 -65q0 -42 -37 -77t-79 -35q-41 0 -65 25q-24 24 -24 64t37 76t79 36z" />
    <glyph glyph-name="slash" unicode="/" horiz-adv-x="624" 
d="M725 1290q18 0 18 -11t-4 -17l-755 -1250q-6 -12 -21 -12h-69q-18 0 -19 12q0 10 4 17l756 1249q6 12 20 12h70z" />
    <glyph glyph-name="zero" unicode="0" 
d="M834 1014q0 78 -52 128t-133 50h-63q-92 0 -166 -62t-90 -155l-117 -660q-4 -25 -4 -39q0 -76 51 -128t131 -52h64q90 0 167 66t91 153l116 660q5 25 5 39zM975 1042q0 -35 -6 -67l-117 -660q-28 -151 -142 -243t-276 -92h-63q-141 0 -223 72q-81 73 -80 196q0 31 6 67
l116 660q27 150 141 243t275 93h64q143 0 224 -73t81 -196z" />
    <glyph glyph-name="one" unicode="1" 
d="M555 117h215q18 -1 18 -17l-14 -80q-2 -20 -24 -20h-609q-18 0 -18 18l14 78q2 20 25 21h215q23 0 24 20l154 873q0 16 -12 16t-21 -8l-160 -135q-17 -17 -32 6l-33 45q-8 12 -8 19t8 16l354 301q18 18 31 18h39q16 0 16 -14q0 -8 -10 -66l-180 -1024l-8 -53
q0 -14 16 -14z" />
    <glyph glyph-name="two" unicode="2" 
d="M819 1013q0 79 -52 129t-132 50h-82q-117 0 -211 -111q-10 -10 -16 -10t-31 14l-57 31q-10 6 -10 16t34 50q119 129 311 129h82q143 0 225 -73q82 -72 81 -182q0 -205 -139 -326q-106 -92 -253 -169q-14 -6 -20 -10q-143 -78 -222 -150t-98 -180l-14 -86q0 -18 16 -18
h533q18 0 18 -17l-14 -80q-2 -20 -25 -20h-671q-18 0 -19 14l37 207q18 113 85 203t140 142t171 105q98 54 114 64l62 40q46 30 64 50q17 20 55 64q38 45 38 124z" />
    <glyph glyph-name="three" unicode="3" 
d="M940 1032q0 -28 -15 -114t-88 -157t-149 -91l-2 -8q53 -18 102 -80t50 -144q0 -20 -15 -106q-29 -162 -143 -257t-279 -95h-63q-178 0 -250 102q-35 52 -35 70t17 24l75 35q27 10 31 10t10 -10q53 -115 172 -115h64q88 0 165 65t93 153t16 112q0 78 -52 129t-132 51h-143
q-16 0 -17 15l13 81q2 20 24 21h143q92 1 167 65t92 156q10 55 10 70q0 78 -52 128t-133 50h-63q-119 0 -213 -113q-10 -10 -18 -10t-21 8l-68 39q-8 6 -8 12t6 17q123 166 342 166h64q141 0 222 -75t81 -204z" />
    <glyph glyph-name="four" unicode="4" 
d="M704 1075q-12 0 -22 -12l-510 -604q-8 -9 -8 -21t20 -12h402q20 0 22 20l99 553q10 48 10 62q-1 14 -13 14zM565 309h-534q-18 0 -19 17l25 120l696 834q8 8 19 8h122q16 0 17 -14q0 -16 -10 -64l-125 -712q-2 -10 -4 -24t-4 -21t-2 -17t18 -10h151q17 0 17 -16l-14 -80
q-2 -20 -23 -21h-152q-23 0 -24 -20l-47 -269q-2 -20 -25 -20h-96q-18 0 -19 14l41 228q8 37 9 53q0 14 -17 14z" />
    <glyph glyph-name="five" unicode="5" 
d="M354 1290h629q16 0 16 -18l-12 -78q-2 -20 -24 -20h-492q-23 0 -25 -21l-57 -330q-14 -72 -14 -85t16 -13h176q143 0 225 -74t80 -200q0 -35 -14 -117q-26 -162 -142 -257t-280 -95h-63q-170 0 -246 96q-39 52 -39 72t14 26l74 35q29 12 34 12t11 -10q27 -53 73 -84
t99 -31h64q88 0 165 65t93 153t16 110q0 78 -52 130t-132 52h-314q-16 0 -16 13l113 649q2 20 24 20z" />
    <glyph glyph-name="six" unicode="6" 
d="M729 438q0 78 -52 129t-132 51h-62q-90 0 -164 -63t-91 -159t-17 -117q0 -79 50 -131t130 -52h62q90 0 167 66t93 158t16 118zM588 735q125 0 204 -75t78 -195q0 -43 -20 -150q-28 -151 -142 -243t-276 -92h-61q-141 0 -221 72t-80 194q0 33 6 69l117 660q27 150 139 243
q113 93 274 93h62q170 0 245 -97q41 -50 41 -70t-16 -28l-72 -33q-26 -12 -32 -12t-13 10q-55 111 -174 111h-61q-90 0 -165 -62t-91 -155l-51 -291l-11 -57q0 -16 15 -17q12 0 20 11q113 115 223 114h62z" />
    <glyph glyph-name="seven" unicode="7" 
d="M850 1157q0 14 -16 14h-535q-16 0 -16 17l12 80q2 20 24 20h674q17 0 17 -14q0 -4 -2 -14t-4 -22t-3 -17l-26 -152q-32 -185 -159 -297q-68 -59 -108 -87q-40 -29 -144 -91t-173 -125q-68 -63 -82 -154l-51 -295q-2 -20 -25 -20h-98q-18 0 -18 14l53 301q28 156 128 254
q75 73 181 137q107 64 139 86t91 68q107 85 127 209q14 82 14 88z" />
    <glyph glyph-name="eight" unicode="8" 
d="M727 416q0 78 -52 129t-132 51h-64q-92 0 -166 -62t-89 -150t-15 -108q0 -76 51 -128t131 -52h64q88 0 165 65t92 147t15 108zM834 1014q0 78 -52 128t-133 50h-63q-92 0 -166 -62q-95 -80 -101 -237q1 -78 51 -129t130 -51h63q92 1 167 65t91 156q13 57 13 80zM973 1032
q-1 -27 -17 -119q-16 -93 -89 -163t-148 -91l-2 -8q53 -17 102 -79t49 -144q0 -10 -12 -96q-26 -162 -142 -257t-280 -95h-63q-141 0 -221 72t-80 202q0 41 16 132t87 161t161 100l2 10q-56 15 -108 73t-52 140q0 29 10 84q29 164 144 260t276 97h64q141 0 222 -75t81 -204z
" />
    <glyph glyph-name="nine" unicode="9" 
d="M831 1014q0 78 -52 128t-132 50h-61q-90 0 -165 -62t-91 -155l-29 -160q-2 -12 -2 -37q0 -78 50 -130t130 -52h62q90 0 167 66t91 153l28 160q4 25 4 39zM746 608q-14 0 -23 -10q-113 -119 -223 -119h-62q-124 0 -202 75t-78 196q0 31 6 65l29 160q27 150 139 243
q113 93 274 93h62q143 0 224 -73t81 -196q0 -35 -6 -67l-117 -660q-28 -151 -142 -243t-276 -92h-61q-172 0 -246 98q-39 52 -39 72t16 26l76 35q27 10 29 10q10 0 14 -10q51 -115 170 -115h62q90 0 167 66t91 153l49 277q0 16 -14 16z" />
    <glyph glyph-name="colon" unicode=":" horiz-adv-x="428" 
d="M124 170q42 0 66 -24t23 -65q0 -42 -37 -77t-79 -35q-41 0 -65 25q-24 24 -24 64t37 76t79 36zM313 658q0 -41 -37 -78q-38 -37 -78 -37q-40 -1 -64 25t-24 66t36 76t78 36t66 -24q24 -23 23 -64z" />
    <glyph glyph-name="semicolon" unicode=";" horiz-adv-x="428" 
d="M51 186h160q18 0 18 -14q0 -2 -6 -33l-16 -88q-33 -184 -152 -278q-59 -49 -75 -49t-23 10l-18 41q-1 11 25 29t64 85t42 121q0 14 -19 15h-28q-16 0 -17 14l6 41l15 86q2 20 24 20zM313 658q0 -41 -37 -78q-38 -37 -78 -37q-40 -1 -64 25t-24 66t36 76t78 36t66 -24
q24 -23 23 -64z" />
    <glyph glyph-name="less" unicode="&#x3c;" 
d="M203 490q0 -12 10 -17l528 -342q19 -14 2 -31l-36 -43q-11 -10 -15 -10t-39 21l-549 350q-8 6 -8 16l21 107q4 12 12 18l690 363q25 12 31 12t12 -12l23 -52q0 -14 -17 -20l-649 -340q-16 -8 -16 -20z" />
    <glyph glyph-name="equal" unicode="=" 
d="M860 246h-821q-18 0 -19 16l13 57q2 20 22 21h822q18 0 18 -16l-10 -58q-2 -20 -25 -20zM928 629h-822q-18 0 -18 16l12 57q2 20 23 21h821q19 0 19 -16l-11 -58q-2 -20 -24 -20z" />
    <glyph glyph-name="greater" unicode="&#x3e;" 
d="M137 47q-6 0 -12 12l-23 52q0 14 17 20l649 342q16 7 16 19t-10 18l-528 340q-8 6 -8 15t6 16l37 43q10 10 17 10t36 -21l547 -356q8 -6 8 -16l-19 -101q-4 -12 -12 -18l-690 -363q-25 -12 -31 -12z" />
    <glyph glyph-name="question" unicode="?" horiz-adv-x="1011" 
d="M337 170q41 0 65 -24t24 -65q0 -42 -37 -77t-79 -35t-66 25q-24 24 -25 64q0 40 38 76t80 36zM932 1036q0 -129 -76 -233q-29 -39 -75 -73q-45 -34 -69 -44q-155 -66 -201 -101q-93 -71 -93 -179q0 -23 -25 -23h-98q-19 0 -19 10q0 9 2 23t6 34q20 127 78 180
q25 22 35 32t44 28t42 22t47 22q160 70 211 135t51 144t-52 129t-132 50h-82q-119 0 -213 -113q-10 -10 -18 -10t-25 10l-63 37q-8 6 -8 12t6 17q123 166 342 166h82q141 0 222 -73t81 -202z" />
    <glyph glyph-name="at" unicode="@" horiz-adv-x="1441" 
d="M765 868q-61 0 -115 -44t-64 -105l-25 -137q-10 -64 26 -108t98 -44t117 45q54 45 64 107l25 137q10 63 -27 106t-99 43zM1032 324h-24q-94 0 -140 61q-12 18 -34 2q-82 -63 -182 -63t-159 68q-58 68 -40 175l28 168q17 109 101 175t200 65q55 0 115 -41q29 -20 33 8
l2 14q2 18 24 19h64q18 0 16 -21l-78 -440q-6 -36 14 -60t56 -24h23q33 0 63 25t35 59l76 424q20 110 -40 178t-181 68h-365q-121 0 -205 -68t-104 -178l-105 -586q-20 -110 41 -178t183 -68h532q18 0 16 -20l-10 -66q-2 -20 -24 -20h-533q-170 0 -255 98t-56 254l104 586
q29 158 148 255t286 97h365q168 0 253 -98t56 -254l-78 -434q-14 -80 -74 -130t-147 -50z" />
    <glyph glyph-name="A" unicode="A" horiz-adv-x="917" 
d="M250 440q0 -14 18 -14h295q25 0 25 25l-45 528q0 14 -8 80h-9q-10 -25 -37 -80l-227 -504q-12 -29 -12 -35zM760 0h-105q-18 0 -18 14l-29 283q0 12 -18 12h-385q-18 0 -23 -12l-131 -283q-6 -14 -22 -14h-105q-18 0 -18 14q0 8 20 49l582 1211q6 14 22 14h78
q16 0 19 -14l151 -1194l6 -57q0 -23 -24 -23z" />
    <glyph glyph-name="B" unicode="B" horiz-adv-x="1067" 
d="M229 117h260q92 0 168 63q103 85 103 236q0 78 -52 129t-135 51h-260q-20 0 -22 -21l-70 -393l-8 -51q0 -14 16 -14zM862 991q0 78 -52 129t-134 51h-260q-23 0 -25 -20l-65 -371q-8 -49 -9 -53q0 -14 17 -14h260q92 1 168 65t92 156q8 37 8 57zM899 446
q0 -225 -150 -350q-116 -96 -280 -96h-397q-18 0 -18 11t12 67l208 1190q2 20 25 20h397q143 0 223 -74t80 -203q0 -130 -79 -234q-55 -73 -125 -103q-21 -8 -21 -20t10 -17q47 -27 81 -83t34 -108z" />
    <glyph glyph-name="C" unicode="C" horiz-adv-x="950" 
d="M956 1142q0 -20 -16 -26l-76 -35q-26 -10 -30 -10t-11 8q-63 113 -174 113h-63q-92 0 -166 -62t-90 -155l-117 -660q-4 -25 -4 -39q0 -76 51 -128t131 -52h64q115 0 215 117q8 8 16 8t29 -12l59 -33q10 -6 10 -15t-4 -14q-127 -168 -346 -167h-63q-141 0 -223 72
q-81 73 -80 196q0 31 6 67l116 660q27 150 141 243t275 93h64q168 0 245 -99q41 -50 41 -70z" />
    <glyph glyph-name="D" unicode="D" horiz-adv-x="1077" 
d="M862 991q0 78 -52 129t-134 51h-260q-23 0 -25 -20l-168 -956q-10 -55 -10 -67t16 -11h260q92 0 168 63t93 156l108 618q4 25 4 37zM999 1012q0 -25 -8 -78l-100 -576q-29 -164 -143 -261t-279 -97h-397q-18 0 -19 14q0 2 13 64l208 1190q2 20 25 20h397q143 0 223 -74
t80 -202z" />
    <glyph glyph-name="E" unicode="E" horiz-adv-x="907" 
d="M659 1311q205 0 271 -136q14 -30 14 -41t-14 -18l-78 -37q-16 -10 -26 -10t-15 10q-53 113 -172 113h-64q-89 0 -165 -62t-90 -145q-14 -82 -13 -90q0 -80 51 -131t131 -51h144q18 0 18 -17l-14 -80q-2 -20 -25 -20h-143q-88 0 -164 -64t-91 -146q-15 -83 -15 -107
q0 -79 51 -131t131 -52h63q117 0 213 115q11 10 19 10t20 -8l66 -37q10 -6 10 -15t-4 -14q-121 -168 -344 -167h-64q-143 0 -223 72t-80 202q1 37 17 132t94 170t147 95l2 8q-61 19 -107 77t-46 134q0 33 10 84q29 162 143 259q115 97 279 98h63z" />
    <glyph glyph-name="F" unicode="F" horiz-adv-x="927" 
d="M416 1171q-23 0 -25 -20l-63 -360q-10 -51 -11 -64q0 -14 17 -14h438q18 0 19 -19l-15 -78q-2 -20 -24 -20h-439q-20 0 -22 -21l-98 -555q-2 -20 -25 -20h-96q-18 0 -19 14q0 4 15 76l206 1178q2 20 25 20h672q16 0 16 -18l-12 -78q-2 -20 -25 -21h-534z" />
    <glyph glyph-name="G" unicode="G" 
d="M434 -20h-63q-141 0 -223 72q-81 73 -80 196q0 31 6 67l116 660q27 150 141 243t275 93h103q164 0 239 -92q45 -55 45 -75t-16 -28l-76 -35q-25 -10 -32 -10t-9 8q-25 53 -72 83t-100 30h-102q-92 0 -166 -62t-90 -155l-117 -660q-4 -25 -4 -39q0 -76 51 -128t131 -52h64
q90 0 167 66t91 153l22 127q8 32 8 44t-18 14h-215q-16 0 -16 18l12 80q2 20 24 20h355q16 0 16 -16l-49 -287q-28 -151 -142 -243t-276 -92z" />
    <glyph glyph-name="H" unicode="H" horiz-adv-x="1140" 
d="M1083 1274q0 -2 -12 -76l-207 -1178q-2 -20 -24 -20h-99q-18 0 -18 14q0 4 2 12t5 27q3 18 7 37l78 445q8 45 8 47q0 14 -18 14h-492q-20 0 -22 -21l-98 -555q-2 -20 -25 -20h-96q-18 0 -19 14q0 2 19 99l202 1155q2 20 25 20h96q16 0 17 -14q0 -11 -6 -38t-7 -38
l-71 -407q-10 -51 -11 -64q0 -14 17 -14h491q23 0 25 20l94 535q2 20 25 20h98q16 0 16 -14z" />
    <glyph glyph-name="I" unicode="I" horiz-adv-x="471" 
d="M168 0h-96q-18 0 -18 11t6 44q7 34 12 60l202 1153q2 20 25 20h96q17 0 17 -12q0 -15 -17 -100l-202 -1156q-2 -20 -25 -20z" />
    <glyph glyph-name="J" unicode="J" horiz-adv-x="854" 
d="M827 1274q0 -6 -10 -64l-153 -874q-27 -148 -151 -252t-264 -104t-241 104q-53 52 -53 68t16 26l76 35q27 10 31 10t10 -10q27 -53 74 -85t100 -32q90 0 167 66t91 153l168 953q2 20 25 20h98q16 0 16 -14z" />
    <glyph glyph-name="K" unicode="K" horiz-adv-x="1060" 
d="M1065 1288q20 0 20 -11t-10 -22l-442 -448q-33 -35 -33 -40t3 -11t8 -18t10 -21l270 -615q35 -80 35 -82q0 -20 -27 -20h-123q-12 0 -16 10l-266 613q-6 14 -16 14t-19 -10l-195 -201l-71 -406q-2 -20 -25 -20h-96q-18 0 -19 14q0 20 17 88l204 1166q2 20 25 20h96
q17 0 17 -11t-15 -89l-82 -465q-12 -74 -12 -76q0 -18 11 -18t24 12l600 639q8 8 18 8h109z" />
    <glyph glyph-name="L" unicode="L" horiz-adv-x="911" 
d="M743 0h-671q-18 0 -18 10t5 38l215 1220q2 20 25 20h96q17 0 17 -12t-11 -66l-178 -1013q-2 -11 -4 -27t-4 -26t-2 -13q0 -14 16 -14h535q16 -1 16 -19l-12 -78q-2 -20 -25 -20z" />
    <glyph glyph-name="M" unicode="M" horiz-adv-x="1335" 
d="M1260 1288q16 0 16 -13t-14 -89l-205 -1166q-2 -20 -25 -20h-96q-18 0 -18 14q0 4 4 21t10 55l74 418q39 225 102 475l-8 2q-43 -88 -80 -145l-393 -635q-8 -12 -21 -12h-41q-12 0 -16 12l-170 635q-2 8 -13 72t-14 73l-8 -2q-16 -199 -65 -475l-86 -488q-2 -20 -25 -20
h-96q-18 0 -18 12t18 103l202 1153q2 20 25 20h94q12 0 17 -12l198 -778q8 -25 15 -82h6q2 2 45 80l469 780q6 12 20 12h97z" />
    <glyph glyph-name="N" unicode="N" horiz-adv-x="1140" 
d="M1067 1288q16 0 16 -13t-20 -124l-199 -1131q-2 -20 -24 -20h-97q-12 0 -16 10l-340 901q-10 23 -22 74l-9 -2q-6 -68 -77 -475l-86 -488q-2 -20 -25 -20h-96q-18 0 -18 11t6 44l214 1213q2 20 25 20h94q12 0 17 -10l338 -911q10 -27 22 -74l8 2q6 68 78 475l88 498
q2 20 25 20h98z" />
    <glyph glyph-name="O" unicode="O" 
d="M834 1014q0 78 -52 128t-133 50h-63q-92 0 -166 -62t-90 -155l-117 -660q-4 -25 -4 -39q0 -76 51 -128t131 -52h64q90 0 167 66t91 153l116 660q5 25 5 39zM975 1042q0 -35 -6 -67l-117 -660q-28 -151 -142 -243t-276 -92h-63q-141 0 -223 72q-81 73 -80 196q0 31 6 67
l116 660q27 150 141 243t275 93h64q143 0 224 -73t81 -196z" />
    <glyph glyph-name="P" unicode="P" horiz-adv-x="991" 
d="M862 991q0 78 -52 129t-134 51h-260q-23 0 -25 -20l-65 -371q-8 -37 -9 -53q0 -14 17 -14h260q92 1 168 65t92 156q8 37 8 57zM999 1012q0 -195 -149 -320q-117 -96 -277 -96h-260q-20 0 -22 -21l-98 -555q-2 -20 -25 -20h-96q-18 0 -18 10t8 51q8 42 12 64l200 1143
q2 20 25 20h397q141 0 222 -74t81 -202z" />
    <glyph glyph-name="Q" unicode="Q" 
d="M834 1014q0 78 -52 128t-133 50h-63q-92 0 -166 -62t-90 -155l-117 -660q-4 -25 -4 -39q0 -80 55 -127q56 -47 80 -47t27 21l16 100q2 20 25 21h75q16 0 17 -17l-19 -108q0 -12 13 -13q39 0 106 46q88 59 109 163l116 660q5 25 5 39zM975 1042q0 -35 -6 -67l-117 -660
q-23 -131 -123 -222t-252 -111q-16 -2 -18 -21l-25 -133q-2 -20 -24 -21h-76q-16 0 -17 19l25 135q0 18 -18 21q-125 18 -191 89t-65 177q0 35 6 67l116 660q27 150 141 243t275 93h64q143 0 224 -73t81 -196z" />
    <glyph glyph-name="R" unicode="R" 
d="M862 991q0 78 -52 129t-134 51h-260q-23 0 -25 -20l-74 -422q0 -16 17 -16h260q92 1 168 65t92 156q8 37 8 57zM999 1012q0 -43 -13 -111q-13 -69 -86 -149t-155 -111q-14 -6 -14 -14q0 -7 2 -19t5 -28t5 -27l74 -438q5 -37 10 -63q6 -27 7 -32q0 -20 -25 -20h-111
q-12 0 -16 14l-96 570q-4 12 -15 12h-258q-20 0 -22 -21l-98 -555q-2 -20 -25 -20h-96q-18 0 -18 10t8 51q8 42 12 64l200 1143q2 20 25 20h397q143 0 223 -74t80 -202z" />
    <glyph glyph-name="S" unicode="S" horiz-adv-x="946" 
d="M899 1142q0 -18 -16 -26l-76 -35q-19 -10 -29 -10t-12 8q-53 113 -174 113h-33q-106 0 -182 -78t-76 -168q0 -51 40 -96t82 -70q41 -26 111 -60q124 -62 196 -127q71 -66 73 -200q0 -168 -116 -291t-310 -122h-88q-182 0 -254 108q-31 40 -31 60t14 26l84 41q12 6 20 6
t19 -18q57 -106 168 -107h88q104 0 185 78q80 78 80 172t-73 150q-52 39 -139 83q-88 44 -120 63t-81 58q-93 76 -91 203q0 170 117 289q118 119 305 119h32q176 0 252 -105q35 -46 35 -64z" />
    <glyph glyph-name="T" unicode="T" horiz-adv-x="811" 
d="M586 1171q-23 0 -25 -20l-199 -1131q-2 -20 -24 -20h-96q-16 0 -17 18l187 1063q12 70 12 76q0 14 -16 14h-248q-16 0 -17 17l13 80q2 20 24 20h674q16 0 16 -16l-12 -80q-2 -20 -24 -21h-248z" />
    <glyph glyph-name="U" unicode="U" 
d="M1020 1274q0 -14 -14 -88l-154 -871q-28 -151 -142 -243t-276 -92h-63q-141 0 -223 72q-81 73 -80 196q0 31 6 67l168 953q2 20 24 20h99q16 0 16 -13t-19 -110l-149 -850q-4 -25 -4 -39q0 -76 51 -128t131 -52h64q90 0 167 66t91 153l168 953q2 20 24 20h99q16 0 16 -14
z" />
    <glyph glyph-name="V" unicode="V" horiz-adv-x="917" 
d="M1006 1274q0 -2 -37 -82l-568 -1178q-6 -14 -22 -14h-74q-16 0 -18 14l-148 1145q-2 20 -8 59t-6 48q0 23 27 22h104q16 0 18 -14l103 -961q6 -24 6 -82h10q2 6 35 82l432 961q6 14 23 14h104q19 0 19 -14z" />
    <glyph glyph-name="W" unicode="W" horiz-adv-x="1380" 
d="M1454 1274q0 -4 -27 -74l-469 -1184q-6 -16 -22 -16h-74q-16 0 -18 14l-96 826q-5 15 -5 90h-8q-2 -8 -19 -47t-20 -43l-391 -826q-6 -14 -22 -14h-74q-18 0 -19 16l-49 1250q0 23 25 22h106q18 0 19 -16l16 -877q0 -59 4 -92h11q7 28 38 90l406 885q6 14 22 14h29
q18 0 19 -14l88 -887q6 -24 6 -92h10q2 4 17 44t20 50l330 879q6 16 22 16h107q18 0 18 -14z" />
    <glyph glyph-name="X" unicode="X" horiz-adv-x="935" 
d="M979 1274q0 -4 -6 -14l-389 -574q-25 -35 -25 -41t14 -45l162 -500q25 -74 25 -80q0 -20 -25 -20h-114q-14 0 -17 12l-139 488q-4 16 -15 16t-22 -16l-326 -488q-8 -12 -20 -12h-115q-20 0 -20 9t8 22l399 585q18 27 19 33q0 6 -15 45l-178 541q-10 31 -10 33q0 20 27 20
h112q12 0 17 -12l153 -490q7 -16 17 -16t20 16l311 490q8 12 21 12h113q18 0 18 -14z" />
    <glyph glyph-name="Y" unicode="Y" horiz-adv-x="917" 
d="M993 1274q0 -6 -20 -35l-457 -643l-100 -576q-2 -20 -25 -20h-98q-19 0 -19 10t11 68l90 518l-217 618q-4 18 -12 34q-7 16 -7 20q0 20 27 20h117q12 0 16 -12l160 -516q6 -16 16 -17q10 0 21 17l340 516q8 12 20 12h117q20 0 20 -14z" />
    <glyph glyph-name="Z" unicode="Z" horiz-adv-x="897" 
d="M887 1274q0 -6 -25 -45l-676 -1084q-6 -10 -6 -14q0 -14 19 -14h491q18 0 19 -17l-15 -80q-2 -20 -24 -20h-693q-18 0 -18 14q0 4 14 29l682 1100q21 28 -12 28h-440q-18 0 -19 17l15 80q2 20 24 20h645q19 0 19 -14z" />
    <glyph glyph-name="bracketleft" unicode="[" horiz-adv-x="753" 
d="M549 1384q-23 0 -25 -20l-272 -1552q-10 -50 -10 -64t16 -14h150q16 0 16 -17l-12 -79q-2 -20 -25 -21h-289q-18 0 -18 14q0 1 6 27t10 61l310 1762q2 20 24 20h289q18 0 18 -16l-14 -80q-2 -20 -25 -21h-149z" />
    <glyph glyph-name="backslash" unicode="\" horiz-adv-x="624" 
d="M498 0h-70q-14 0 -16 12l-299 1188q-16 66 -17 70q0 20 25 20h69q14 0 17 -12l297 -1180l18 -78q0 -20 -24 -20z" />
    <glyph glyph-name="bracketright" unicode="]" horiz-adv-x="737" 
d="M-12 -383q-16 0 -17 16l13 80q2 20 24 21h152q23 0 24 20l275 1559q2 10 4 23q2 14 4 22t2 12q0 14 -18 14h-152q-16 0 -16 17l12 80q2 20 24 20h289q19 0 19 -14l-326 -1849q-2 -20 -25 -21h-288z" />
    <glyph glyph-name="underscore" unicode="_" horiz-adv-x="409" 
d="M-174 -461q-16 0 -16 17l8 55q2 20 24 20h430q19 0 19 -16l-10 -55q-2 -20 -25 -21h-430z" />
    <glyph glyph-name="grave" unicode="`" horiz-adv-x="1024" 
d="M649 1036q0 -18 -26 -18h-41q-14 0 -23 10l-194 209q-6 6 -7 14q0 20 27 21h135q12 0 21 -12l96 -191q12 -25 12 -33z" />
    <glyph glyph-name="a" unicode="a" horiz-adv-x="970" 
d="M676 608q0 78 -52 129t-137 51t-161 -63t-90 -154l-41 -235q-4 -25 -5 -37q0 -78 52 -130t136 -52q85 -1 162 65t91 154l41 235q4 25 4 37zM866 891q0 -14 -12 -76l-139 -795q-2 -20 -25 -20h-76q-16 0 -16 16l16 99q0 16 -14 16t-22 -10q-115 -121 -226 -121
q-141 0 -221 74t-80 194q0 35 6 68l41 235q27 150 140 242t274 92q111 0 184 -119q4 -10 17 -10q18 0 22 23l15 86q2 20 24 20h76q16 0 16 -14z" />
    <glyph glyph-name="b" unicode="b" horiz-adv-x="970" 
d="M709 608q-1 78 -53 129t-137 51t-161 -63t-90 -154l-41 -235q-4 -25 -4 -37q0 -78 51 -130q50 -52 136 -52q86 -1 162 65t92 154l41 235q4 25 4 37zM850 635q0 -29 -6 -64l-41 -235q-27 -150 -141 -243t-277 -93q-111 0 -182 117q-6 10 -17 10q-18 0 -22 -23l-14 -84
q-2 -20 -25 -20h-76q-18 0 -18 14q0 4 3 16t6 31q3 18 5 29l207 1178q2 20 24 20h99q16 0 16 -14q0 -4 -8 -53l-64 -365q-2 -10 -4 -24t-4 -24q-2 -9 -2 -11q-1 -15 11 -15t22 11q114 113 232 113t197 -76q79 -74 79 -195z" />
    <glyph glyph-name="c" unicode="c" horiz-adv-x="870" 
d="M803 760q0 -20 -17 -27l-69 -33q-25 -12 -35 -12t-12 8q-27 51 -74 82t-100 31q-90 1 -166 -63t-90 -154l-50 -277q-2 -12 -2 -36q0 -79 50 -131t131 -52q115 0 215 117q8 8 15 8t28 -10l61 -35q10 -6 10 -20t-51 -62q-115 -115 -299 -114q-141 0 -221 72t-80 194
q0 33 6 69l49 277q27 150 140 242q112 92 278 92t242 -97q41 -49 41 -69z" />
    <glyph glyph-name="d" unicode="d" horiz-adv-x="970" 
d="M676 608q0 78 -52 129t-137 51t-161 -63t-90 -154l-41 -235q-4 -25 -5 -37q0 -78 52 -130t136 -52q85 -1 162 65t91 154l41 235q4 25 4 37zM934 1274q0 -4 -4 -22t-8 -54l-207 -1178q-2 -20 -25 -20h-76q-16 0 -16 16l16 99q0 16 -14 16t-22 -10q-115 -121 -226 -121
q-141 0 -221 74t-80 194q0 35 6 68l41 235q27 145 139 239t255 95q113 0 182 -117q6 -10 16 -10q18 0 23 23l82 467q2 20 24 20h99q16 0 16 -14z" />
    <glyph glyph-name="e" unicode="e" horiz-adv-x="937" 
d="M680 629q0 78 -52 129t-137 51q-85 1 -161 -63t-90 -154q-6 -31 -7 -33q0 -16 19 -16h395q20 0 23 20q10 56 10 66zM819 641q0 -16 -4 -49l-22 -125q-2 -20 -25 -21h-535q-20 0 -22 -20l-18 -100q-4 -25 -5 -47q0 -79 50 -131t131 -52q115 0 215 117q8 8 15 8t24 -8
l65 -37q10 -6 10 -18t-45 -58q-117 -121 -305 -120q-141 0 -221 72t-80 194q0 33 6 69l49 277q23 127 142 230q119 104 265 104t228 -85t82 -200z" />
    <glyph glyph-name="f" unicode="f" horiz-adv-x="548" 
d="M729 1294q0 -6 -8 -22l-35 -68q-6 -14 -22 -14l-35 2q-90 0 -165 -62t-91 -155l-27 -152q0 -14 19 -14h151q16 0 16 -16l-14 -80q-2 -20 -22 -21h-152q-23 0 -25 -20l-141 -797q-28 -150 -148 -253t-268 -103q-81 0 -81 16q0 4 12 29l33 61q8 14 20 15l37 -2q90 0 164 62
t90 155l135 759q10 50 10 64t-16 14h-55q-18 0 -19 17l14 79q2 20 25 21h55q20 0 23 20l22 125q27 150 149 253t269 104q80 0 80 -17z" />
    <glyph glyph-name="g" unicode="g" horiz-adv-x="970" 
d="M676 608q0 78 -52 129t-137 51t-161 -63t-90 -154l-41 -235q-4 -25 -5 -37q0 -78 52 -130t136 -52q85 -1 162 65t91 154l41 235q4 25 4 37zM866 891q0 -2 -14 -88l-164 -926q-28 -162 -138 -260t-283 -98t-249 104q-36 51 -36 69t16 23l80 37q16 8 23 8t14 -10
q27 -53 73 -84t101 -31q92 -1 167 63t91 157l39 217q6 37 6 41q0 16 -13 16t-22 -10q-113 -119 -231 -119t-197 75q-78 75 -78 195q0 33 6 66l41 235q27 150 140 242t274 92q111 0 184 -119q4 -10 17 -10q18 0 22 23l15 86q2 20 24 20h76q16 0 16 -14z" />
    <glyph glyph-name="h" unicode="h" horiz-adv-x="991" 
d="M850 635q0 -29 -6 -64l-96 -551q-2 -20 -25 -20h-98q-18 0 -19 14q0 4 4 22t8 44l87 491q4 25 4 37q-1 78 -53 129t-137 51t-161 -63t-90 -154l-96 -551q-2 -20 -25 -20h-98q-18 0 -18 14q0 2 16 88l205 1166q2 20 24 20h99q16 0 16 -14t-10 -66l-59 -340q-3 -21 -8 -43
t-5 -26q-1 -17 11 -17t22 11q114 113 232 113t197 -76q79 -74 79 -195z" />
    <glyph glyph-name="i" unicode="i" horiz-adv-x="428" 
d="M324 891q0 -6 -13 -76l-139 -795q-2 -20 -25 -20h-98q-18 0 -18 12t6 38t8 40l139 795q2 20 25 20h98q17 0 17 -14zM325 1311q37 -1 59 -21t22 -57t-35 -71t-72 -34t-57 20t-20 58q0 37 32 71q33 34 71 34z" />
    <glyph glyph-name="j" unicode="j" horiz-adv-x="428" 
d="M307 905q17 0 17 -11t-13 -79l-166 -942q-16 -96 -78 -177q-63 -81 -153 -129t-143 -48q-14 0 -15 14l15 84q4 16 20 21q84 18 140 76t71 136l182 1035q2 20 25 20h98zM297 1128q-35 0 -60 26t-14 67q6 35 38 63t67 27q34 -1 56 -21t22 -53q-10 -54 -42 -81
q-32 -28 -67 -28z" />
    <glyph glyph-name="k" unicode="k" horiz-adv-x="899" 
d="M803 905q20 0 20 -12t-12 -23l-285 -243q-22 -19 -22 -25t18 -47l207 -467q18 -42 23 -52q6 -11 6 -16q0 -20 -27 -20h-117q-12 0 -16 10l-201 467q-6 12 -15 12t-17 -8l-132 -114l-61 -347q-2 -20 -25 -20h-98q-18 0 -18 14q0 4 6 33t10 53l205 1168q2 20 24 20h99
q16 0 16 -14q0 -4 -2 -13t-4 -23l-4 -28l-100 -571q-15 -82 -15 -92t12 -10t21 8l383 354q6 6 16 6h105z" />
    <glyph glyph-name="l" unicode="l" horiz-adv-x="428" 
d="M375 1288q16 0 16 -15t-14 -87l-205 -1166q-2 -20 -25 -20h-98q-18 0 -18 14q0 4 6 30t14 81l201 1143q2 20 24 20h99z" />
    <glyph glyph-name="m" unicode="m" horiz-adv-x="1492" 
d="M1339 637q0 -31 -6 -66l-96 -551q-2 -20 -25 -20h-98q-18 0 -18 15t16 87l82 469q4 25 4 35q0 76 -50 129t-116 53t-142 -66t-89 -151l-96 -551q-2 -20 -25 -20h-98q-18 0 -18 10t16 92l82 469q4 25 4 35q0 76 -50 129t-118 53q-66 0 -141 -66t-89 -151l-96 -551
q-2 -20 -25 -20h-98q-18 0 -18 14q0 6 18 99l135 772q2 20 25 20h76q16 0 16 -16l-14 -92q0 -18 12 -19q10 0 20 10q61 62 123 90t103 27q145 0 209 -121q6 -10 14 -10t18 10q112 121 254 121q142 1 220 -73t79 -195z" />
    <glyph glyph-name="n" unicode="n" horiz-adv-x="1003" 
d="M850 637q0 -31 -6 -66l-96 -551q-2 -20 -25 -20h-98q-19 0 -19 8t17 94l82 469q4 25 4 37q-1 78 -53 129t-137 51t-161 -63t-90 -154l-96 -551q-2 -20 -25 -20h-98q-18 0 -18 14q0 2 16 88l137 783q2 20 25 20h76q16 0 16 -16l-14 -92q0 -16 14 -17q12 0 21 11
q113 115 223 114q143 1 224 -73t81 -195z" />
    <glyph glyph-name="o" unicode="o" horiz-adv-x="937" 
d="M680 629q0 78 -52 129t-137 51q-85 1 -161 -63t-90 -154l-50 -277q-2 -12 -2 -36q0 -79 50 -131t136 -52q85 0 162 66t91 153l49 277q4 25 4 37zM821 659q0 -33 -6 -67l-49 -277q-28 -151 -142 -243t-266 -92t-231 72q-80 72 -80 194q0 33 6 69l49 277q27 150 140 242
t265 92t233 -72t81 -195z" />
    <glyph glyph-name="p" unicode="p" horiz-adv-x="970" 
d="M709 608q-1 78 -53 129t-137 51t-161 -63t-90 -154l-41 -235q-4 -25 -4 -37q0 -78 51 -130q50 -52 136 -52q86 -1 162 65t92 154l41 235q4 25 4 37zM850 637q0 -31 -6 -66l-41 -235q-27 -145 -140 -241q-114 -95 -257 -95q-106 0 -183 117q-6 10 -16 10q-18 0 -21 -25
l-96 -542q-2 -20 -24 -21h-99q-16 0 -16 15q0 2 18 110l215 1221q2 20 25 20h76q16 0 16 -16l-14 -92q0 -16 14 -17q12 0 21 11q113 115 223 114q143 1 224 -73t81 -195z" />
    <glyph glyph-name="q" unicode="q" horiz-adv-x="970" 
d="M676 608q0 78 -52 129t-137 51t-161 -63t-90 -154l-41 -235q-4 -25 -5 -37q0 -78 52 -130t136 -52q85 -1 162 65t91 154l41 235q4 25 4 37zM510 -461q-16 0 -16 15q0 6 16 98l68 385q2 11 5 29l5 30t2 17q0 16 -14 16t-21 -10q-113 -119 -231 -119t-195 75
q-78 75 -78 195q0 33 6 66l41 235q27 150 140 242t274 92q111 0 184 -119q4 -10 17 -10q18 0 22 23l15 86q2 20 24 20h76q16 0 16 -14l-233 -1331q-2 -20 -25 -21h-98z" />
    <glyph glyph-name="r" unicode="r" horiz-adv-x="593" 
d="M551 764h-31q-92 0 -167 -62t-89 -151l-92 -531q-2 -20 -25 -20h-98q-18 0 -18 14q0 4 5 26t11 62l137 783q2 20 25 20h76q16 0 16 -16l-18 -113q0 -16 13 -16t21 10q133 135 228 135h35q16 0 16 -16l-16 -105q-2 -20 -29 -20z" />
    <glyph glyph-name="s" unicode="s" horiz-adv-x="897" 
d="M803 760q0 -14 -19 -23l-65 -30q-19 -11 -27 -11t-14 11q-25 49 -74 79t-104 31h-64q-108 0 -158 -48t-50 -114t80 -96q81 -29 185 -51t153 -48q89 -49 89 -143q0 -125 -103 -231t-280 -106h-63q-166 0 -242 94q-43 50 -43 70t19 28l71 33q20 8 28 8t11 -10
q23 -51 70 -83t106 -32h64q102 0 159 56q58 56 58 116t-67 89q-67 31 -159 49t-128 28q-98 28 -131 86q-19 35 -19 82q0 127 101 229t270 103h63q170 0 246 -101q37 -51 37 -65z" />
    <glyph glyph-name="t" unicode="t" horiz-adv-x="630" 
d="M371 788q-23 0 -25 -20l-80 -453q-4 -29 -4 -41q0 -63 37 -110t104 -62q12 -4 13 -16l-15 -84q-5 -20 -31 -20t-73 18q-176 63 -176 248q0 31 6 67l68 383q12 66 12 78t-17 12h-118q-16 0 -17 17l6 43l275 244q6 6 16 6h33q16 0 16 -17l-26 -159q0 -16 16 -17h150
q16 0 16 -16l-12 -80q-2 -20 -25 -21h-149z" />
    <glyph glyph-name="u" unicode="u" horiz-adv-x="980" 
d="M860 905q17 0 17 -12t-13 -78l-139 -795q-2 -20 -25 -20h-75q-16 0 -17 16l17 99q-1 16 -15 16t-22 -10q-115 -121 -226 -121q-141 0 -221 74t-80 194q0 35 7 68l96 549q2 20 24 20h97q16 0 16 -11t-16 -101l-80 -457q-4 -25 -4 -37q0 -78 51 -130t137 -52t162 63t92 156
l96 549q2 20 25 20h96z" />
    <glyph glyph-name="v" unicode="v" horiz-adv-x="874" 
d="M872 905q19 0 19 -10t-6 -18l-502 -865q-6 -12 -21 -12h-81q-14 0 -17 12l-198 873q0 20 24 20h100q14 0 17 -12l135 -621q10 -55 10 -79h8q16 49 35 79l355 621q6 12 20 12h102z" />
    <glyph glyph-name="w" unicode="w" horiz-adv-x="1251" 
d="M817 231q0 2 35 80l252 580q6 14 22 14h107q18 0 18 -14q0 -4 -34 -78l-386 -799q-6 -14 -22 -14h-74q-16 0 -18 14l-72 611q-2 8 -6 80h-8q-12 -37 -35 -80l-291 -611q-6 -14 -22 -14h-74q-16 0 -19 14l-112 869q0 23 26 22h107q18 0 18 -14l47 -580l7 -80h8q0 2 35 80
l264 580q6 14 22 14h115q18 0 18 -14l58 -580q0 -38 6 -80h8z" />
    <glyph glyph-name="x" unicode="x" horiz-adv-x="827" 
d="M807 905q18 0 18 -11t-8 -20l-309 -372q-33 -39 -33 -47t27 -64l141 -301q31 -68 31 -70q0 -20 -25 -20h-112q-12 0 -17 10l-147 332q-5 10 -15 10t-18 -10l-264 -332q-6 -10 -19 -10h-114q-18 0 -19 12q0 10 8 19l328 397q20 23 20 30t-16 44l-158 327q-25 49 -24 56
q0 20 24 20h111q10 0 14 -10l150 -330q4 -10 15 -10t20 10l262 330q6 10 18 10h111z" />
    <glyph glyph-name="y" unicode="y" horiz-adv-x="980" 
d="M201 299q0 -78 51 -130t143 -52q92 -1 163 69t85 150l96 549q2 20 25 20h96q17 0 17 -14t-15 -86l-164 -928q-28 -162 -138 -260t-282 -98t-247 100q-39 51 -39 71t16 25l82 37q16 8 22 8t13 -10q27 -53 74 -84t100 -31q92 -1 167 63t91 157l37 202q8 37 8 50t-14 14
q-12 0 -21 -10q-104 -111 -205 -111q-141 0 -221 74t-80 194q0 39 9 80l94 537q2 20 24 20h97q16 0 16 -14l-90 -520q-10 -61 -10 -72z" />
    <glyph glyph-name="z" unicode="z" horiz-adv-x="858" 
d="M786 889q0 -4 -8 -17l-551 -725q-8 -12 -8 -16q0 -14 21 -14h436q18 0 18 -17l-14 -80q-2 -20 -25 -20h-659q-20 0 -21 14q0 4 9 17l546 725q8 12 9 16q0 14 -21 14h-393q-18 0 -19 17l15 80q2 20 24 20h621q20 0 20 -14z" />
    <glyph glyph-name="braceleft" unicode="{" horiz-adv-x="860" 
d="M426 346q0 -47 -2 -57l-59 -336q-4 -29 -5 -41q0 -62 37 -110t105 -62q12 -2 12 -16l-14 -84q-2 -20 -21 -21q-66 0 -135 45q-121 74 -121 236q0 35 6 75l54 308q4 29 4 39q0 63 -37 110t-105 62q-12 2 -12 18l17 92q4 16 20 21q84 18 140 76t71 137l55 309
q39 217 226 309q86 43 149 43q12 0 12 -14l-14 -86q-4 -18 -18 -21q-85 -16 -141 -74t-70 -137l-64 -352q-12 -67 -74 -143t-137 -105l-2 -8q55 -25 89 -95t34 -118z" />
    <glyph glyph-name="braceright" unicode="}" horiz-adv-x="860" 
d="M18 -381q-16 0 -16 14l16 86q4 16 21 21q84 18 140 76t71 137l59 336q12 67 78 155t139 115l2 8q-57 23 -93 87t-36 130q0 20 2 31l64 352q2 14 2 59q0 46 -36 92t-103 60q-14 4 -15 19l15 82q2 20 20 20t64 -14t77 -35q117 -76 117 -229q0 -33 -6 -74l-55 -309
q-4 -29 -4 -41q0 -63 37 -111t104 -61q12 -3 12 -17l-16 -94q-4 -16 -21 -20q-84 -18 -140 -76t-71 -135l-53 -308q-37 -215 -225 -311q-90 -45 -150 -45z" />
    <glyph glyph-name="nbspace" unicode="&#xa0;" 
 />
    <glyph glyph-name="exclamdown" unicode="&#xa1;" horiz-adv-x="587" 
d="M258 522h10q17 0 17 -17t-4 -87l-11 -260l-92 -520q-2 -20 -24 -21h-99q-16 0 -16 14l90 525l104 348q6 18 25 18zM331 936q43 0 67 -24t24 -65q0 -40 -38 -76t-80 -36t-66 24q-24 23 -23 65q0 42 37 77t79 35z" />
    <glyph glyph-name="cent" unicode="&#xa2;" 
d="M378 147q17 0 19 21l115 645q2 20 -14 21q-23 0 -72 -31q-98 -63 -117 -172l-47 -277q-18 -117 68 -182q31 -25 48 -25zM752 723q-6 0 -13 10q-23 43 -57 72t-55 29q-20 0 -23 -25l-115 -641q-1 -18 15 -18t59 24t69 56t36 32q8 0 24 -10l66 -39q14 -6 10 -16
q-4 -23 -68 -78q-90 -80 -221 -99q-16 -4 -18 -20l-23 -133q-6 -20 -24 -21h-52q-23 0 -16 21l23 135q4 16 -13 21q-135 27 -195 113t-38 218l47 277q23 129 115 217t237 115q16 4 21 20l22 133q2 20 25 21h51q18 0 16 -21l-22 -133q-2 -18 10 -20q137 -20 201 -117
q28 -48 25 -59t-15 -15l-78 -39q-20 -10 -26 -10z" />
    <glyph glyph-name="sterling" unicode="&#xa3;" 
d="M1051 1142q0 -18 -17 -26l-73 -35q-21 -10 -31 -10t-12 8q-25 53 -72 83t-101 30q-91 0 -165 -62t-91 -155l-34 -195q-8 -49 -9 -53q0 -14 17 -14h149q18 0 19 -17l-15 -80q-2 -20 -24 -20h-150q-20 0 -22 -21l-47 -260q-9 -52 -82 -146q-23 -28 -23 -36q0 -16 21 -16
h508q16 0 16 -17l-12 -80q-2 -20 -25 -20h-864q-16 0 -16 16l12 80q2 20 24 21h76q84 13 150 75t80 144l30 176q12 68 13 70q0 14 -19 14h-55q-16 0 -17 16l15 80q2 20 22 21h56q23 0 24 20l39 221q27 150 149 253q123 103 283 103t234 -98q39 -52 39 -70z" />
    <glyph glyph-name="currency" unicode="&#xa4;" 
d="M770 1192h-63q-92 0 -166 -62t-90 -155l-15 -80q-4 -20 17 -21h323q20 0 19 -20l-15 -76q-2 -20 -24 -20h-324q-20 0 -24 -21l-31 -184q-4 -20 16 -21h324q18 0 16 -20l-12 -74q-2 -20 -25 -20h-323q-20 0 -25 -21l-14 -82q-16 -91 35 -155t143 -64h63q115 0 216 117
q10 12 26 6l78 -43q18 -10 6 -29q-131 -169 -346 -167h-63q-162 0 -243 93t-54 242l14 82q4 20 -16 21h-127q-18 0 -17 20l12 74q2 20 25 20h127q20 0 25 21l30 184q4 20 -16 21h-127q-18 0 -16 20l14 76q2 20 22 20h127q20 0 25 21l14 80q27 150 141 243t275 93h64
q213 0 286 -166q6 -18 -16 -29l-94 -43q-16 -6 -23 6q-63 113 -174 113z" />
    <glyph glyph-name="yen" unicode="&#xa5;" 
d="M1036 1288q21 0 21 -9t-8 -22l-408 -577q-8 -12 -8 -21t20 -10h279q16 0 16 -16l-12 -80q-2 -20 -25 -21h-319q-23 0 -25 -20l-24 -137l-8 -53q0 -14 16 -15h319q18 0 19 -16l-15 -78q-2 -20 -22 -20h-320q-23 0 -24 -21l-27 -152q-2 -20 -24 -20h-99q-16 0 -16 14
l27 164q0 14 -17 15h-321q-18 0 -19 16l15 78q2 20 22 20h322q23 0 24 21l25 137q8 39 8 53t-16 14h-322q-16 0 -16 17l12 80q2 20 25 20h276q27 0 27 21q0 4 -8 24t-15 41l-186 522q-2 4 -2 11q0 20 26 20h117q12 0 16 -12l160 -516q6 -16 17 -17q10 0 20 17l340 516
q8 12 21 12h116z" />
    <glyph glyph-name="brokenbar" unicode="&#xa6;" horiz-adv-x="491" 
d="M293 -383h-94v754h94v-754zM293 748h-94v753h94v-753z" />
    <glyph glyph-name="section" unicode="&#xa7;" 
d="M719 341q0 52 -16 86q-30 67 -218 164q-70 36 -92 48l-33 16q-8 0 -26 -22q-58 -72 -58 -146t66 -123q66 -48 146 -89q81 -42 113 -62t43 -20t26 22q49 74 49 126zM958 1140q0 -17 -16 -24l-68 -31q-30 -14 -36 -14t-13 8q-63 113 -174 113h-35q-110 0 -184 -81t-74 -151
t52 -115q52 -44 127 -79q73 -35 147 -76t126 -115t52 -176q0 -158 -102 -278q-18 -25 -18 -29t6 -15t8 -20q25 -70 24 -125q0 -170 -118 -290t-306 -121h-90q-164 0 -239 90q-47 57 -47 77t18 29l78 37q20 8 26 8t13 -10q27 -53 73 -84t99 -30h90q102 0 181 80t79 159
q0 80 -51 129t-125 84t-149 75q-75 39 -126 109t-51 168q0 162 111 285q14 15 14 23t-14 28q-29 55 -29 125q0 164 114 286t306 122h35q172 0 248 -101q38 -53 38 -70z" />
    <glyph glyph-name="dieresis" unicode="&#xa8;" horiz-adv-x="1024" 
d="M434 1233q82 0 82 -77q0 -38 -33 -71t-71 -33t-59 22t-21 60t32 68q32 31 70 31zM766 1233q84 0 84 -76q0 -37 -35 -71t-72 -34t-57 21q-20 20 -20 58t30 70q31 32 70 32z" />
    <glyph glyph-name="copyright" unicode="&#xa9;" horiz-adv-x="1433" 
d="M862 672q-8 0 -10 8q-44 76 -114 76t-122 -43t-63 -107l-35 -203q-10 -61 27 -106t107 -45t139 80q6 10 12 10t26 -10l43 -27q10 -6 11 -16q-4 -16 -41 -51q-80 -80 -206 -80t-185 68t-41 177l34 203q18 110 102 176t204 66q121 0 170 -65t22 -78l-51 -25q-21 -8 -29 -8z
M600 1044q-125 0 -213 -70t-108 -186l-105 -593q-20 -115 43 -186t189 -70h368q125 1 213 71t109 185l104 593q20 115 -43 186t-188 70h-369zM389 -154q-168 0 -252 96t-55 253l104 593q29 156 146 252t284 97h369q168 -1 252 -97t55 -252l-104 -593q-29 -156 -146 -252
t-284 -97h-369z" />
    <glyph glyph-name="ordfeminine" unicode="&#xaa;" horiz-adv-x="679" 
d="M338 762q55 0 105 41t59 96l28 170q2 7 3 41t-32 66q-34 32 -89 32q-54 0 -102 -39t-58 -96l-31 -170l-2 -24q-2 -49 31 -83t88 -34zM494 659q-12 0 -13 13l13 63q0 9 -8 13t-17 -7q-80 -82 -170 -82q-90 1 -148 53t-59 140q0 4 6 53l29 166q18 109 99 175t198 65
q86 0 135 -78q18 -22 25 8l10 57q4 12 16 13h74q12 -1 11 -14t-9 -50l-100 -573q-2 -14 -17 -15h-75z" />
    <glyph glyph-name="guillemotleft" unicode="&#xab;" horiz-adv-x="1138" 
d="M211 568q0 -10 14 -21l242 -201q16 -12 16 -24l-16 -86q-4 -23 -17 -23t-28 14l-320 260q-14 10 -14 23l18 108q4 18 19 27l407 258q33 20 41 21q15 -1 15 -15l-19 -92q-4 -12 -20 -24l-326 -207q-12 -8 -12 -18zM672 568q0 -10 14 -21l242 -201q16 -12 16 -24l-16 -86
q-4 -23 -18 -23t-27 14l-320 260q-14 10 -14 23l18 108q4 18 19 27l407 258q33 20 41 21q15 -1 15 -15l-19 -92q-4 -12 -20 -24l-326 -207q-12 -8 -12 -18z" />
    <glyph glyph-name="logicalnot" unicode="&#xac;" 
d="M860 246h-61q-18 0 -17 20l62 342q2 20 -19 21h-719q-18 0 -16 20l10 53q2 20 25 21h821q19 -1 17 -21l-78 -436q-2 -20 -25 -20z" />
    <glyph glyph-name="registered" unicode="&#xae;" horiz-adv-x="860" 
d="M500 928q34 0 56 26t22 53q0 58 -54 58h-65q-23 0 -25 -21l-18 -102q0 -14 18 -14h66zM643 1022q0 -78 -74 -129q-12 -10 -12 -21l35 -110q0 -25 -25 -25h-32q-10 0 -15 13l-28 108q-4 12 -17 12h-51q-23 0 -25 -20l-16 -92q-2 -20 -25 -21h-22q-16 0 -17 15q0 2 11 63
l51 287q2 20 25 20h129q51 0 79 -26t29 -74zM797 999q0 105 -71 167t-191 63h-9q-139 0 -237 -80t-121 -207q-12 -61 -12 -98q0 -104 70 -167q71 -62 192 -63h8q139 0 238 80q98 80 120 207q13 73 13 98zM858 1012q0 -37 -12 -111q-27 -156 -145 -252t-285 -96h-8
q-147 0 -232 76q-84 76 -84 202q0 35 14 111q27 156 145 252t286 96h8q147 0 230 -76t83 -202z" />
    <glyph glyph-name="macron" unicode="&#xaf;" horiz-adv-x="1024" 
d="M782 1096h-397q-16 0 -16 16l14 80q2 20 23 20h397q18 0 18 -16l-14 -80q-2 -20 -25 -20z" />
    <glyph glyph-name="degree" unicode="&#xb0;" horiz-adv-x="546" 
d="M436 1156q0 22 -20 42t-51 20t-60 -24q-29 -25 -35 -57l-30 -174q-6 -37 -6 -55t18 -38q20 -20 51 -20t59 24t35 58l35 190q4 12 4 34zM541 1171q0 -10 -4 -34l-37 -205q-14 -78 -72 -126t-138 -48q-79 0 -120 38t-41 101q0 23 2 35l37 205q14 78 72 126t138 48
q79 -1 121 -39t42 -101z" />
    <glyph glyph-name="plusminus" unicode="&#xb1;" 
d="M842 0h-822q-20 0 -18 20l10 56q2 20 25 20h821q18 0 16 -20l-10 -56q-2 -20 -22 -20zM600 575q-18 0 -25 -20l-59 -342q-2 -20 -24 -20h-54q-18 0 -16 20l59 342q6 20 -16 20h-344q-18 0 -17 21l11 55q2 20 22 21h344q23 0 25 20l61 342q2 20 23 21h53q20 0 19 -21
l-62 -342q-2 -20 16 -20h342q21 -1 19 -21l-10 -55q-2 -20 -25 -21h-342z" />
    <glyph glyph-name="twosuperior" unicode="&#xb2;" horiz-adv-x="690" 
d="M223 612h340q12 0 10 -10l-14 -78q-2 -10 -14 -10h-459q-12 0 -10 10l14 84q26 142 168 202q60 25 131 46q71 20 88 32q16 13 33 26t22 55q6 41 -20 71t-88 31h-53q-70 0 -131 -74q-12 -12 -17 -4l-71 35q-12 6 -7 19q96 125 244 124h53q111 1 163 -59t36 -156
q-9 -53 -44 -97q-35 -43 -122 -72q-86 -29 -92 -31q-119 -43 -143 -69t-27 -48q-4 -23 -1 -25t11 -2z" />
    <glyph glyph-name="threesuperior" unicode="&#xb3;" horiz-adv-x="690" 
d="M270 434q-154 0 -196 121q-6 14 10 20l84 37q10 6 14 -6q35 -76 109 -76h39q51 0 95 38t54 91l8 46q8 51 -22 88q-31 37 -84 36h-105q-10 0 -8 15l13 71q2 12 14 13h104q53 0 97 37q43 37 55 100t-19 100t-83 37h-39q-78 0 -136 -74q-10 -14 -18 -6l-70 37q-10 8 -2 21
q88 121 240 120h41q111 0 166 -66t35 -171l-4 -23q-10 -53 -52 -97t-90 -58v-6q37 -15 65 -63t17 -107l-6 -39q-16 -109 -94 -172t-191 -64h-41z" />
    <glyph glyph-name="acute" unicode="&#xb4;" horiz-adv-x="1024" 
d="M881 1258q0 -13 -13 -21l-270 -209q-12 -10 -25 -10h-41q-20 0 -20 9t10 24l178 209q12 12 25 12h135q21 -1 21 -14z" />
    <glyph glyph-name="mu" unicode="&#xb5;" horiz-adv-x="980" 
d="M700 0h-75q-18 0 -17 20l15 89q4 23 -15 22q-10 0 -20 -10q-115 -121 -226 -121t-184 45q-23 12 -26 -12l-60 -340q-2 -20 -24 -21h-97q-18 0 -16 21l209 1192q2 20 24 20h97q18 0 16 -20l-96 -549q-16 -90 37 -155t143 -65t166 64q76 63 92 156l96 549q2 20 25 20h96
q19 0 17 -20l-152 -865q-2 -20 -25 -20z" />
    <glyph glyph-name="paragraph" unicode="&#xb6;" horiz-adv-x="1269" 
d="M1208 1274q0 -2 -14 -88l-287 -1626q-2 -20 -24 -21h-97q-16 1 -16 15t12 75l258 1465q10 61 11 63q0 14 -17 14h-205q-23 0 -24 -20l-281 -1591q-2 -20 -24 -21h-99q-16 1 -16 13t14 88l82 462q13 62 13 76t-17 15h-69q-141 0 -223 74q-81 75 -81 196q0 43 5 65l71 406
q29 162 144 258t276 96h592q16 0 16 -14z" />
    <glyph glyph-name="periodcentered" unicode="&#xb7;" 
d="M505 590q43 0 67 -24t24 -64q0 -41 -38 -78t-79 -37t-65 26q-24 25 -23 65q0 40 36 76t78 36z" />
    <glyph glyph-name="cedilla" unicode="&#xb8;" horiz-adv-x="1024" 
d="M457 25q0 -10 -11 -25l-77 -119q-7 -8 -7 -18t9 -13q72 -35 71 -102q0 -116 -84 -179q-63 -48 -143 -48h-74q-16 0 -16 16l4 37q2 20 25 20h73q41 0 81 34t40 100q0 57 -88 82q-12 2 -12 12t8 20l123 191q10 12 20 12l43 -8q15 -2 15 -12z" />
    <glyph glyph-name="onesuperior" unicode="&#xb9;" horiz-adv-x="690" 
d="M553 514h-418q-10 0 -10 12l14 74q0 12 15 12h137q16 0 18 15l58 325q3 10 -5 14t-16 -5l-90 -74q-10 -8 -18 0l-41 51q-8 8 2 18l254 211q8 4 10 4h43q12 0 10 -14l-94 -530q-2 -14 12 -15h137q11 0 11 -12l-15 -74q0 -12 -14 -12z" />
    <glyph glyph-name="ordmasculine" unicode="&#xba;" horiz-adv-x="657" 
d="M545 1112q0 49 -35 83t-90 34q-56 0 -104 -41t-58 -101l-35 -192q-2 -8 -2 -25q0 -51 34 -85q34 -33 88 -33t104 42t61 101l35 192q2 9 2 25zM666 1137q0 -16 -4 -50l-35 -192q-21 -111 -105 -179t-193 -67q-109 0 -168 53q-58 53 -59 142q0 33 4 51l35 192
q21 111 103 178t192 67t170 -53q60 -52 60 -142z" />
    <glyph glyph-name="guillemotright" unicode="&#xbb;" horiz-adv-x="1138" 
d="M74 213q-14 0 -15 14l19 92q4 12 20 25l326 207q12 10 12 18t-14 21l-242 201q-16 12 -16 24l16 86q4 23 18 23t27 -15l320 -260q14 -10 14 -22l-18 -109q-4 -18 -19 -26l-407 -259q-33 -20 -41 -20zM535 213q-14 0 -15 14l19 92q4 12 20 25l326 207q12 10 12 18t-14 21
l-242 201q-16 12 -16 24l16 86q4 23 17 23t28 -15l320 -260q14 -10 14 -22l-19 -109q-4 -18 -18 -26l-408 -259q-33 -20 -40 -20z" />
    <glyph glyph-name="onequarter" unicode="&#xbc;" horiz-adv-x="1912" 
d="M1274 104q16 0 18 15l62 348q2 8 -6 11t-15 -3l-295 -350q-16 -20 6 -21h230zM592 1171q12 0 10 -14l-94 -530q-2 -14 12 -15h137q11 0 11 -12l-15 -74q0 -12 -14 -12h-416q-12 0 -12 12l14 74q0 12 17 12h137q14 0 16 15l58 325q2 10 -4 14t-15 -5l-92 -74q-10 -8 -18 0
l-41 51q-6 10 2 18l254 211q2 0 10 4h43zM1493 8h-96q-14 0 -17 -14l-30 -178q-2 -12 -17 -13h-88q-12 0 -10 13l31 178q4 14 -11 14h-342q-16 0 -12 12l17 91l454 524q4 6 12 6h97q14 0 12 -12l-90 -510q0 -14 10 -15h96q15 0 13 -12l-13 -72q-2 -12 -16 -12zM596 0h-49
q-31 0 -15 29l756 1249q10 12 21 12h49q30 1 14 -28l-756 -1250q-6 -12 -20 -12z" />
    <glyph glyph-name="onehalf" unicode="&#xbd;" horiz-adv-x="1912" 
d="M592 1171q12 0 10 -14l-94 -530q-2 -14 12 -15h137q11 0 11 -12l-15 -74q0 -12 -14 -12h-416q-12 0 -12 12l14 74q0 12 17 12h137q14 0 16 15l58 325q2 10 -4 14t-15 -5l-92 -74q-10 -8 -18 0l-41 51q-6 10 2 18l254 211q2 0 10 4h43zM596 0h-49q-31 0 -15 29l756 1249
q10 12 21 12h49q30 1 14 -28l-756 -1250q-6 -12 -20 -12zM1489 98q12 0 12 -10l-14 -78q-2 -10 -14 -10h-457q-6 0 -10 2t-2 8l14 84q20 110 98 161q78 50 148 70q70 21 98 31t35 15q8 6 21 14q32 20 39 65t-18 76q-26 31 -85 31h-56q-70 0 -131 -74q-10 -10 -18 -4l-72 35
q-10 10 -2 18q94 125 242 125h55q111 1 162 -59t35 -156q-9 -53 -44 -96t-121 -72q-88 -30 -150 -52t-86 -46t-27 -53l-4 -14q0 -10 14 -11h338z" />
    <glyph glyph-name="threequarters" unicode="&#xbe;" horiz-adv-x="1912" 
d="M1274 104q16 0 18 15l62 348q2 8 -6 11t-15 -3l-295 -350q-16 -20 6 -21h230zM657 881q0 -2 2 -2q37 -15 65 -63t17 -107l-6 -39q-16 -109 -95 -172t-191 -64h-39q-154 0 -197 121q-8 14 10 20l82 37q14 6 14 -6q37 -76 111 -76h37q53 0 97 38t54 91l9 46q8 51 -24 88
t-85 36h-102q-10 0 -8 15l12 71q2 12 14 13h103q55 0 98 37t55 100t-19 100q-32 37 -85 37h-37q-76 0 -137 -74q-8 -14 -17 -6l-69 37q-12 8 -2 21q88 121 239 120h39q111 0 167 -66t36 -171l-4 -23q-10 -53 -52 -97t-90 -58q-2 -2 -2 -4zM1493 8h-96q-14 0 -17 -14
l-30 -178q-2 -12 -17 -13h-88q-12 0 -10 13l31 178q4 14 -11 14h-342q-16 0 -12 12l17 91l454 524q4 6 12 6h97q14 0 12 -12l-90 -510q0 -14 10 -15h96q15 0 13 -12l-13 -72q-2 -12 -16 -12zM596 0h-49q-31 0 -15 29l756 1249q10 12 21 12h49q30 1 14 -28l-756 -1250
q-6 -12 -20 -12z" />
    <glyph glyph-name="questiondown" unicode="&#xbf;" horiz-adv-x="1011" 
d="M741 -223q0 -6 -6 -17q-123 -166 -342 -166h-82q-141 0 -222 73t-81 202t76 233q29 39 75 73q45 34 69 44q155 66 201 101q93 71 93 180q0 23 25 22h98q18 0 19 -14l-13 -80q-19 -103 -73 -153q-25 -21 -35 -31q-24 -23 -160 -85q-136 -61 -186 -125q-49 -63 -49 -142
t52 -129t132 -50h82q119 0 213 113q10 10 19 10t24 -10l63 -37q8 -6 8 -12zM630 936q42 0 66 -24t25 -65q0 -40 -38 -76t-80 -36q-41 0 -65 24q-24 23 -24 65t37 77t79 35z" />
    <glyph glyph-name="Agrave" unicode="&#xc0;" horiz-adv-x="917" 
d="M250 440q0 -14 18 -14h295q25 0 25 25l-45 528q0 14 -8 80h-9q-10 -25 -37 -80l-227 -504q-12 -29 -12 -35zM760 0h-105q-18 0 -18 14l-29 283q0 12 -18 12h-385q-18 0 -23 -12l-131 -283q-6 -14 -22 -14h-105q-18 0 -18 14q0 8 20 49l582 1211q6 14 22 14h78
q16 0 19 -14l151 -1194l6 -57q0 -23 -24 -23zM674 1419q0 -12 -17 -12h-55q-12 0 -27 10l-194 164q-14 14 -14 21q0 14 16 14h162q18 0 24 -12l97 -166q8 -17 8 -19z" />
    <glyph glyph-name="Aacute" unicode="&#xc1;" horiz-adv-x="917" 
d="M250 440q0 -14 18 -14h295q25 0 25 25l-45 528q0 14 -8 80h-9q-10 -25 -37 -80l-227 -504q-12 -29 -12 -35zM760 0h-105q-18 0 -18 14l-29 283q0 12 -18 12h-385q-18 0 -23 -12l-131 -283q-6 -14 -22 -14h-105q-18 0 -18 14q0 8 20 49l582 1211q6 14 22 14h78
q16 0 19 -14l151 -1194l6 -57q0 -23 -24 -23zM862 1616q15 0 15 -10t-21 -23l-256 -166q-16 -10 -31 -10h-51q-12 0 -12 12q0 2 18 25l148 160q12 12 28 12h162z" />
    <glyph glyph-name="Acircumflex" unicode="&#xc2;" horiz-adv-x="917" 
d="M250 440q0 -14 18 -14h295q25 0 25 25l-45 528q0 14 -8 80h-9q-10 -25 -37 -80l-227 -504q-12 -29 -12 -35zM760 0h-105q-18 0 -18 14l-29 283q0 12 -18 12h-385q-18 0 -23 -12l-131 -283q-6 -14 -22 -14h-105q-18 0 -18 14q0 8 20 49l582 1211q6 14 22 14h78
q16 0 19 -14l151 -1194l6 -57q0 -23 -24 -23zM803 1409q0 -6 -17 -6h-88q-12 0 -18 12l-53 113q-1 8 -9 8t-16 -8l-94 -113q-12 -12 -25 -12h-84q-12 0 -12 6t14 25l156 172q8 10 25 10h98q16 0 20 -10l93 -170q10 -21 10 -27z" />
    <glyph glyph-name="Atilde" unicode="&#xc3;" horiz-adv-x="917" 
d="M250 440q0 -14 18 -14h295q25 0 25 25l-45 528q0 14 -8 80h-9q-10 -25 -37 -80l-227 -504q-12 -29 -12 -35zM760 0h-105q-18 0 -18 14l-29 283q0 12 -18 12h-385q-18 0 -23 -12l-131 -283q-6 -14 -22 -14h-105q-18 0 -18 14q0 8 20 49l582 1211q6 14 22 14h78
q16 0 19 -14l151 -1194l6 -57q0 -23 -24 -23zM868 1549q0 -7 -8 -15q-98 -115 -174 -115q-45 0 -99 38t-91 38t-93 -47q-10 -10 -20 -10t-14 6l-21 22q-8 8 -8 13l10 16q90 104 164 104q45 1 100 -35t94 -36t101 55q14 10 17 10t12 -8l22 -20q8 -9 8 -16z" />
    <glyph glyph-name="Adieresis" unicode="&#xc4;" horiz-adv-x="917" 
d="M250 440q0 -14 18 -14h295q25 0 25 25l-45 528q0 14 -8 80h-9q-10 -25 -37 -80l-227 -504q-12 -29 -12 -35zM760 0h-105q-18 0 -18 14l-29 283q0 12 -18 12h-385q-18 0 -23 -12l-131 -283q-6 -14 -22 -14h-105q-18 0 -18 14q0 8 20 49l582 1211q6 14 22 14h78
q16 0 19 -14l151 -1194l6 -57q0 -23 -24 -23zM539 1522q0 -35 -32 -67t-67 -32q-69 0 -69 70q0 41 27 72q28 31 65 31t57 -20q20 -19 19 -54zM848 1522q0 -35 -32 -67t-67 -32q-69 0 -69 70q0 39 29 71t63 32t56 -20q20 -19 20 -54z" />
    <glyph glyph-name="Aring" unicode="&#xc5;" horiz-adv-x="917" 
d="M250 440q0 -14 18 -14h295q25 0 25 25l-45 528q0 14 -8 80h-9q-10 -25 -37 -80l-227 -504q-12 -29 -12 -35zM702 1446q0 74 -92 74q-47 0 -83 -29t-48 -145q0 -76 88 -76q103 0 124 108q11 58 11 68zM760 0h-105q-18 0 -18 14l-29 283q0 12 -18 12h-385q-18 0 -23 -12
l-131 -283q-6 -14 -22 -14h-105q-18 0 -18 14q0 8 20 49l537 1119q12 26 12 34t-12 19q-45 33 -45 96q0 14 14 90t66 118t121 42t107 -33t38 -90q0 -8 -15 -95t-94 -130q-18 -11 -18 -23t4 -45l137 -1085l6 -57q0 -23 -24 -23z" />
    <glyph glyph-name="AE" unicode="&#xc6;" horiz-adv-x="1445" 
d="M264 426h303q20 0 23 20l24 136q71 393 91 475l-9 2q-8 -18 -49 -72l-397 -530q0 -7 -4 -15q-8 -16 18 -16zM879 1171q-23 0 -25 -20l-74 -418q-2 -20 17 -20h438q20 0 18 -21l-14 -76q-2 -20 -25 -20h-438q-20 0 -22 -21l-78 -438q-2 -20 16 -20h535q23 0 16 -21
l-12 -76q-2 -20 -25 -20h-674q-18 0 -16 20l47 269q2 20 -16 20h-393q-18 0 -31 -18l-205 -281q-10 -10 -20 -10h-95q-20 0 -20 16q4 8 8 15l957 1247q10 10 20 10h666q18 0 16 -20l-12 -76q-6 -20 -25 -21h-534z" />
    <glyph glyph-name="Ccedilla" unicode="&#xc7;" horiz-adv-x="950" 
d="M956 1142q0 -20 -16 -26l-76 -35q-26 -10 -30 -10t-11 8q-63 113 -174 113h-63q-92 0 -166 -62t-90 -155l-117 -660q-4 -25 -4 -39q0 -76 51 -128t131 -52h64q115 0 215 117q8 8 16 8t29 -12l59 -33q10 -6 10 -15t-4 -14q-127 -168 -346 -167q-27 0 -39 -23l-49 -76
q-6 -8 -6 -18t8 -13q72 -35 72 -102q0 -116 -84 -179q-63 -48 -143 -48h-74q-16 0 -17 16l4 37q2 20 25 20h74q41 0 81 34t40 100q0 57 -88 82q-12 2 -13 12q0 10 8 20l70 109q8 10 8 20t-16 15q-109 18 -168 88t-59 174q0 31 6 67l116 660q27 150 141 243t275 93h64
q168 0 245 -99q41 -50 41 -70z" />
    <glyph glyph-name="Egrave" unicode="&#xc8;" horiz-adv-x="907" 
d="M659 1311q205 0 271 -136q14 -30 14 -41t-14 -18l-78 -37q-16 -10 -26 -10t-15 10q-53 113 -172 113h-64q-89 0 -165 -62t-90 -145q-14 -82 -13 -90q0 -80 51 -131t131 -51h144q18 0 18 -17l-14 -80q-2 -20 -25 -20h-143q-88 0 -164 -64t-91 -146q-15 -83 -15 -107
q0 -79 51 -131t131 -52h63q117 0 213 115q11 10 19 10t20 -8l66 -37q10 -6 10 -15t-4 -14q-121 -168 -344 -167h-64q-143 0 -223 72t-80 202q1 37 17 132t94 170t147 95l2 8q-61 19 -107 77t-46 134q0 33 10 84q29 162 143 259q115 97 279 98h63zM721 1419q0 -12 -16 -12
h-56q-12 0 -26 10l-195 164q-14 14 -14 21q0 14 16 14h162q18 0 24 -12l97 -166q8 -17 8 -19z" />
    <glyph glyph-name="Eacute" unicode="&#xc9;" horiz-adv-x="907" 
d="M659 1311q205 0 271 -136q14 -30 14 -41t-14 -18l-78 -37q-16 -10 -26 -10t-15 10q-53 113 -172 113h-64q-89 0 -165 -62t-90 -145q-14 -82 -13 -90q0 -80 51 -131t131 -51h144q18 0 18 -17l-14 -80q-2 -20 -25 -20h-143q-88 0 -164 -64t-91 -146q-15 -83 -15 -107
q0 -79 51 -131t131 -52h63q117 0 213 115q11 10 19 10t20 -8l66 -37q10 -6 10 -15t-4 -14q-121 -168 -344 -167h-64q-143 0 -223 72t-80 202q1 37 17 132t94 170t147 95l2 8q-61 19 -107 77t-46 134q0 33 10 84q29 162 143 259q115 97 279 98h63zM924 1616q14 0 14 -10
t-20 -23l-256 -166q-16 -10 -31 -10h-51q-12 0 -13 12q0 2 19 25l147 160q12 12 29 12h162z" />
    <glyph glyph-name="Ecircumflex" unicode="&#xca;" horiz-adv-x="907" 
d="M659 1311q205 0 271 -136q14 -30 14 -41t-14 -18l-78 -37q-16 -10 -26 -10t-15 10q-53 113 -172 113h-64q-89 0 -165 -62t-90 -145q-14 -82 -13 -90q0 -80 51 -131t131 -51h144q18 0 18 -17l-14 -80q-2 -20 -25 -20h-143q-88 0 -164 -64t-91 -146q-15 -83 -15 -107
q0 -79 51 -131t131 -52h63q117 0 213 115q11 10 19 10t20 -8l66 -37q10 -6 10 -15t-4 -14q-121 -168 -344 -167h-64q-143 0 -223 72t-80 202q1 37 17 132t94 170t147 95l2 8q-61 19 -107 77t-46 134q0 33 10 84q29 162 143 259q115 97 279 98h63zM858 1409q0 -6 -16 -6h-88
q-12 0 -19 12l-53 113q-2 8 -9 8t-16 -8l-94 -113q-12 -12 -24 -12h-84q-22 0 2 31l155 172q8 10 25 10h98q14 0 21 -10l92 -170q10 -21 10 -27z" />
    <glyph glyph-name="Edieresis" unicode="&#xcb;" horiz-adv-x="907" 
d="M659 1311q205 0 271 -136q14 -30 14 -41t-14 -18l-78 -37q-16 -10 -26 -10t-15 10q-53 113 -172 113h-64q-89 0 -165 -62t-90 -145q-14 -82 -13 -90q0 -80 51 -131t131 -51h144q18 0 18 -17l-14 -80q-2 -20 -25 -20h-143q-88 0 -164 -64t-91 -146q-15 -83 -15 -107
q0 -79 51 -131t131 -52h63q117 0 213 115q11 10 19 10t20 -8l66 -37q10 -6 10 -15t-4 -14q-121 -168 -344 -167h-64q-143 0 -223 72t-80 202q1 37 17 132t94 170t147 95l2 8q-61 19 -107 77t-46 134q0 33 10 84q29 162 143 259q115 97 279 98h63zM592 1522q0 -35 -32 -67
t-67 -32q-69 0 -69 70q0 41 28 72t64 31t56 -20q20 -19 20 -54zM901 1522q0 -35 -32 -67q-33 -32 -67 -32q-67 0 -69 70q0 39 29 71q30 32 64 32t54 -20q20 -19 21 -54z" />
    <glyph glyph-name="Igrave" unicode="&#xcc;" horiz-adv-x="471" 
d="M168 0h-96q-18 0 -18 11t6 44q7 34 12 60l202 1153q2 20 25 20h96q17 0 17 -12q0 -15 -17 -100l-202 -1156q-2 -20 -25 -20zM449 1419q0 -12 -17 -12h-55q-12 0 -27 10l-194 164q-14 15 -14 25t16 10h161q18 0 25 -12l96 -166q9 -17 9 -19z" />
    <glyph glyph-name="Iacute" unicode="&#xcd;" horiz-adv-x="471" 
d="M168 0h-96q-18 0 -18 11t6 44q7 34 12 60l202 1153q2 20 25 20h96q17 0 17 -12q0 -15 -17 -100l-202 -1156q-2 -20 -25 -20zM653 1616q15 0 15 -10t-21 -23l-256 -166q-16 -10 -31 -10h-51q-12 0 -12 12q0 2 18 25l148 160q12 12 29 12h161z" />
    <glyph glyph-name="Icircumflex" unicode="&#xce;" horiz-adv-x="471" 
d="M168 0h-96q-18 0 -18 11t6 44q7 34 12 60l202 1153q2 20 25 20h96q17 0 17 -12q0 -15 -17 -100l-202 -1156q-2 -20 -25 -20zM578 1409q0 -6 -17 -6h-88q-12 0 -18 12l-54 113q-2 8 -9 8t-15 -8l-94 -113q-12 -12 -25 -12h-84q-12 0 -12 6t14 25l156 172q8 10 24 10h99
q16 0 20 -10l92 -170q11 -21 11 -27z" />
    <glyph glyph-name="Idieresis" unicode="&#xcf;" horiz-adv-x="471" 
d="M168 0h-96q-18 0 -18 11t6 44q7 34 12 60l202 1153q2 20 25 20h96q17 0 17 -12q0 -15 -17 -100l-202 -1156q-2 -20 -25 -20zM311 1522q1 -35 -31 -67t-67 -32q-68 0 -70 70q0 41 28 72t64 31t56 -20q20 -19 20 -54zM621 1522q0 -35 -32 -67t-67 -32q-69 0 -69 70
q0 39 28 71q29 32 65 32t56 -20q20 -19 19 -54z" />
    <glyph glyph-name="Eth" unicode="&#xd0;" horiz-adv-x="1077" 
d="M862 991q0 78 -52 129t-134 51h-260q-23 0 -25 -20l-76 -434q0 -14 15 -15h159q18 0 19 -16l-14 -82q-2 -20 -25 -20h-160q-16 0 -20 -17l-76 -436q0 -14 16 -14h260q92 0 168 63t93 156l104 596q8 41 8 59zM999 1012q0 -43 -10 -94l-98 -560q-29 -164 -143 -261
t-279 -97h-397q-18 0 -19 16l99 553q0 14 -13 15h-90q-14 0 -14 16l12 82q2 20 23 20h88q16 0 20 19l96 547q2 20 25 20h397q143 0 223 -74t80 -202z" />
    <glyph glyph-name="Ntilde" unicode="&#xd1;" horiz-adv-x="1140" 
d="M1067 1288q16 0 16 -13t-20 -124l-199 -1131q-2 -20 -24 -20h-97q-12 0 -16 10l-340 901q-10 23 -22 74l-9 -2q-6 -68 -77 -475l-86 -488q-2 -20 -25 -20h-96q-18 0 -18 11t6 44l214 1213q2 20 25 20h94q12 0 17 -10l338 -911q10 -27 22 -74l8 2q6 68 78 475l88 498
q2 20 25 20h98zM981 1549q0 -7 -8 -15q-98 -115 -174 -115q-45 0 -99 38t-92 38q-37 0 -92 -47q-10 -10 -20 -10t-15 6l-20 22q-8 8 -8 13l10 16q90 104 164 104q45 1 100 -35t94 -36t101 55l16 10q4 0 12 -8l23 -20q8 -9 8 -16z" />
    <glyph glyph-name="Ograve" unicode="&#xd2;" 
d="M834 1014q0 78 -52 128t-133 50h-63q-92 0 -166 -62t-90 -155l-117 -660q-4 -25 -4 -39q0 -76 51 -128t131 -52h64q90 0 167 66t91 153l116 660q5 25 5 39zM975 1042q0 -35 -6 -67l-117 -660q-28 -151 -142 -243t-276 -92h-63q-141 0 -223 72q-81 73 -80 196q0 31 6 67
l116 660q27 150 141 243t275 93h64q143 0 224 -73t81 -196zM733 1419q0 -12 -16 -12h-55q-12 0 -27 10l-195 164q-14 14 -14 21q0 14 16 14h162q18 0 25 -12l96 -166q8 -17 8 -19z" />
    <glyph glyph-name="Oacute" unicode="&#xd3;" 
d="M834 1014q0 78 -52 128t-133 50h-63q-92 0 -166 -62t-90 -155l-117 -660q-4 -25 -4 -39q0 -76 51 -128t131 -52h64q90 0 167 66t91 153l116 660q5 25 5 39zM975 1042q0 -35 -6 -67l-117 -660q-28 -151 -142 -243t-276 -92h-63q-141 0 -223 72q-81 73 -80 196q0 31 6 67
l116 660q27 150 141 243t275 93h64q143 0 224 -73t81 -196zM938 1616q14 0 14 -10t-20 -23l-256 -166q-16 -10 -31 -10h-51q-12 0 -12 12q0 2 18 25l148 160q12 12 28 12h162z" />
    <glyph glyph-name="Ocircumflex" unicode="&#xd4;" 
d="M834 1014q0 78 -52 128t-133 50h-63q-92 0 -166 -62t-90 -155l-117 -660q-4 -25 -4 -39q0 -76 51 -128t131 -52h64q90 0 167 66t91 153l116 660q5 25 5 39zM975 1042q0 -35 -6 -67l-117 -660q-28 -151 -142 -243t-276 -92h-63q-141 0 -223 72q-81 73 -80 196q0 31 6 67
l116 660q27 150 141 243t275 93h64q143 0 224 -73t81 -196zM862 1409q0 -6 -16 -6h-88q-12 0 -19 12l-53 113q-2 8 -9 8t-15 -8l-95 -113q-12 -12 -24 -12h-84q-22 0 2 31l155 172q8 10 25 10h98q14 0 21 -10l92 -170q10 -21 10 -27z" />
    <glyph glyph-name="Otilde" unicode="&#xd5;" 
d="M834 1014q0 78 -52 128t-133 50h-63q-92 0 -166 -62t-90 -155l-117 -660q-4 -25 -4 -39q0 -76 51 -128t131 -52h64q90 0 167 66t91 153l116 660q5 25 5 39zM975 1042q0 -35 -6 -67l-117 -660q-28 -151 -142 -243t-276 -92h-63q-141 0 -223 72q-81 73 -80 196q0 31 6 67
l116 660q27 150 141 243t275 93h64q143 0 224 -73t81 -196zM928 1549q0 -7 -8 -15q-98 -115 -175 -115q-45 0 -99 38t-91 38t-92 -47q-11 -10 -21 -10t-14 6l-20 22q-8 8 -9 13l11 16q90 104 163 104q45 1 101 -35t94 -36q39 0 100 55q14 10 18 10t11 -8l23 -20q8 -9 8 -16z
" />
    <glyph glyph-name="Odieresis" unicode="&#xd6;" 
d="M834 1014q0 78 -52 128t-133 50h-63q-92 0 -166 -62t-90 -155l-117 -660q-4 -25 -4 -39q0 -76 51 -128t131 -52h64q90 0 167 66t91 153l116 660q5 25 5 39zM975 1042q0 -35 -6 -67l-117 -660q-28 -151 -142 -243t-276 -92h-63q-141 0 -223 72q-81 73 -80 196q0 31 6 67
l116 660q27 150 141 243t275 93h64q143 0 224 -73t81 -196zM598 1522q0 -35 -32 -67t-66 -32q-70 0 -70 70q0 41 28 72t64 31t56 -20q20 -19 20 -54zM907 1522q1 -35 -31 -67t-67 -32q-68 0 -70 70q0 39 29 71t65 32t55 -20q19 -19 19 -54z" />
    <glyph glyph-name="multiply" unicode="&#xd7;" 
d="M932 799q10 -14 -4 -29l-320 -270q-18 -16 -4 -31l221 -270q14 -14 -4 -29l-33 -29q-18 -14 -30 0l-223 271q-12 14 -29 0l-330 -281q-16 -14 -29 0l-32 39q-10 14 4 29l334 280q18 16 4 31l-221 270q-14 14 4 29l30 29q18 14 31 0l223 -271q12 -14 29 0l317 271
q16 14 29 0z" />
    <glyph glyph-name="Oslash" unicode="&#xd8;" 
d="M834 1022q0 18 -14 18t-25 -16l-510 -842q-23 -39 -11 -47q45 -39 117 -39h64q90 0 167 66t91 153l116 660q5 29 5 47zM770 1144q0 7 -6 13q-45 35 -115 35h-63q-92 0 -166 -62t-90 -155l-117 -660q-4 -20 -4 -36t16 -17q12 0 23 17l502 825q20 33 20 40zM975 1042
q0 -35 -6 -67l-117 -660q-28 -151 -142 -243t-276 -92h-63q-141 0 -223 72q-81 73 -80 196q0 31 6 67l116 660q27 150 141 243t275 93h64q143 0 224 -73t81 -196z" />
    <glyph glyph-name="Ugrave" unicode="&#xd9;" 
d="M1020 1274q0 -14 -14 -88l-154 -871q-28 -151 -142 -243t-276 -92h-63q-141 0 -223 72q-81 73 -80 196q0 31 6 67l168 953q2 20 24 20h99q16 0 16 -13t-19 -110l-149 -850q-4 -25 -4 -39q0 -76 51 -128t131 -52h64q90 0 167 66t91 153l168 953q2 20 24 20h99q16 0 16 -14
zM707 1419q0 -12 -17 -12h-55q-12 0 -27 10l-194 164q-14 15 -14 25t16 10h162q18 0 24 -12l96 -166q9 -17 9 -19z" />
    <glyph glyph-name="Uacute" unicode="&#xda;" 
d="M1020 1274q0 -14 -14 -88l-154 -871q-28 -151 -142 -243t-276 -92h-63q-141 0 -223 72q-81 73 -80 196q0 31 6 67l168 953q2 20 24 20h99q16 0 16 -13t-19 -110l-149 -850q-4 -25 -4 -39q0 -76 51 -128t131 -52h64q90 0 167 66t91 153l168 953q2 20 24 20h99q16 0 16 -14
zM911 1616q15 0 15 -10t-21 -23l-256 -166q-16 -10 -31 -10h-51q-12 0 -12 12q0 2 18 25l148 160q12 12 29 12h161z" />
    <glyph glyph-name="Ucircumflex" unicode="&#xdb;" 
d="M1020 1274q0 -14 -14 -88l-154 -871q-28 -151 -142 -243t-276 -92h-63q-141 0 -223 72q-81 73 -80 196q0 31 6 67l168 953q2 20 24 20h99q16 0 16 -13t-19 -110l-149 -850q-4 -25 -4 -39q0 -76 51 -128t131 -52h64q90 0 167 66t91 153l168 953q2 20 24 20h99q16 0 16 -14
zM836 1409q0 -6 -17 -6h-88q-12 0 -18 12l-54 113q-2 8 -9 8t-15 -8l-94 -113q-12 -12 -25 -12h-84q-12 0 -12 6t14 25l156 172q8 10 24 10h99q16 0 20 -10l92 -170q11 -21 11 -27z" />
    <glyph glyph-name="Udieresis" unicode="&#xdc;" 
d="M1020 1274q0 -14 -14 -88l-154 -871q-28 -151 -142 -243t-276 -92h-63q-141 0 -223 72q-81 73 -80 196q0 31 6 67l168 953q2 20 24 20h99q16 0 16 -13t-19 -110l-149 -850q-4 -25 -4 -39q0 -76 51 -128t131 -52h64q90 0 167 66t91 153l168 953q2 20 24 20h99q16 0 16 -14
zM571 1522q1 -35 -31 -67t-67 -32q-68 0 -70 70q0 41 28 72t65 31t56 -20q19 -19 19 -54zM881 1522q0 -35 -32 -67t-67 -32q-69 0 -69 70q0 39 28 71q29 32 64 32t55 -20q20 -19 21 -54z" />
    <glyph glyph-name="Yacute" unicode="&#xdd;" horiz-adv-x="917" 
d="M993 1274q0 -6 -20 -35l-457 -643l-100 -576q-2 -20 -25 -20h-98q-19 0 -19 10t11 68l90 518l-217 618q-4 18 -12 34q-7 16 -7 20q0 20 27 20h117q12 0 16 -12l160 -516q6 -16 16 -17q10 0 21 17l340 516q8 12 20 12h117q20 0 20 -14zM874 1616q15 0 15 -10t-21 -23
l-256 -166q-16 -10 -30 -10h-52q-12 0 -12 12q0 2 19 25l147 160q12 12 29 12h161z" />
    <glyph glyph-name="Thorn" unicode="&#xde;" horiz-adv-x="991" 
d="M291 467h260q109 1 189 85t79 178q0 94 -52 144q-52 51 -134 52h-260q-23 0 -25 -21l-74 -424q0 -14 17 -14zM956 766q0 -176 -124 -296t-302 -120h-260q-23 0 -24 -20l-53 -310q-2 -20 -25 -20h-96q-18 0 -19 14q0 4 10 52l211 1202q2 20 25 20h96q16 0 17 -14
q0 -4 -4 -29l-25 -141q-8 -37 -8 -45q0 -16 20 -17h258q141 0 223 -73q80 -74 80 -203z" />
    <glyph glyph-name="germandbls" unicode="&#xdf;" horiz-adv-x="976" 
d="M-262 -479q-18 0 -64 4q-23 2 -10 29l41 75q9 13 27 11t26 -2q90 0 167 64t91 155l193 1097q27 150 148 253q122 103 279 103t238 -96q81 -98 50 -260l-9 -43q-14 -69 -69 -137t-127 -100q-39 -18 -6 -37q59 -33 90 -106t20 -146l-8 -53q-21 -144 -121 -236t-252 -114
q-10 -2 -15 4t-3 16l14 80q4 16 21 20q84 18 140 76t73 137l12 64q16 78 -22 135q-39 57 -117 76q-16 4 -13 20l15 88q4 16 20 21q85 19 141 77t72 138l8 41q18 90 -35 153q-53 64 -147 64t-166 -62t-88 -155l-194 -1096q-27 -156 -148 -257t-272 -101z" />
    <glyph glyph-name="agrave" unicode="&#xe0;" horiz-adv-x="970" 
d="M676 608q0 78 -52 129t-137 51t-161 -63t-90 -154l-41 -235q-4 -25 -5 -37q0 -78 52 -130t136 -52q85 -1 162 65t91 154l41 235q4 25 4 37zM866 891q0 -14 -12 -76l-139 -795q-2 -20 -25 -20h-76q-16 0 -16 16l16 99q0 16 -14 16t-22 -10q-115 -121 -226 -121
q-141 0 -221 74t-80 194q0 31 6 68l41 235q27 150 140 242t274 92q111 0 184 -119q4 -10 17 -10q18 0 22 23l15 86q2 20 24 20h76q16 0 16 -14zM602 1038q0 -18 -27 -18h-40q-14 0 -23 10l-195 209q-6 6 -6 14q0 20 27 21h135q12 0 21 -12l96 -191q12 -25 12 -33z" />
    <glyph glyph-name="aacute" unicode="&#xe1;" horiz-adv-x="970" 
d="M676 608q0 78 -52 129t-137 51t-161 -63t-90 -154l-41 -235q-4 -25 -5 -37q0 -78 52 -130t136 -52q85 -1 162 65t91 154l41 235q4 25 4 37zM866 891q0 -14 -12 -76l-139 -795q-2 -20 -25 -20h-76q-16 0 -16 16l16 99q0 16 -14 16t-22 -10q-115 -121 -226 -121
q-141 0 -221 74t-80 194q0 31 6 68l41 235q27 150 140 242t274 92q111 0 184 -119q4 -10 17 -10q18 0 22 23l15 86q2 20 24 20h76q16 0 16 -14zM827 1274q21 0 21 -12t-12 -23l-271 -209q-12 -10 -24 -10h-41q-33 0 -11 33l179 209q12 12 24 12h135z" />
    <glyph glyph-name="acircumflex" unicode="&#xe2;" horiz-adv-x="970" 
d="M676 608q0 78 -52 129t-137 51t-161 -63t-90 -154l-41 -235q-4 -25 -5 -37q0 -78 52 -130t136 -52q85 -1 162 65t91 154l41 235q4 25 4 37zM866 891q0 -14 -12 -76l-139 -795q-2 -20 -25 -20h-76q-16 0 -16 16l16 99q0 16 -14 16t-22 -10q-115 -121 -226 -121
q-141 0 -221 74t-80 194q0 31 6 68l41 235q27 150 140 242t274 92q111 0 184 -119q4 -10 17 -10q18 0 22 23l15 86q2 20 24 20h76q16 0 16 -14zM758 1038q0 -20 -27 -20h-72q-10 0 -14 8l-67 127q-6 10 -14 10t-19 -10l-119 -127q-8 -8 -18 -8h-70q-18 0 -19 14q0 10 9 19
l202 215q8 8 17 8h63q12 0 17 -8l127 -215q4 -9 4 -13z" />
    <glyph glyph-name="atilde" unicode="&#xe3;" horiz-adv-x="970" 
d="M676 608q0 78 -52 129t-137 51t-161 -63t-90 -154l-41 -235q-4 -25 -5 -37q0 -78 52 -130t136 -52q85 -1 162 65t91 154l41 235q4 25 4 37zM866 891q0 -14 -12 -76l-139 -795q-2 -20 -25 -20h-76q-16 0 -16 16l16 99q0 16 -14 16t-22 -10q-115 -121 -226 -121
q-141 0 -221 74t-80 194q0 31 6 68l41 235q27 150 140 242t274 92q111 0 184 -119q4 -10 17 -10q18 0 22 23l15 86q2 20 24 20h76q16 0 16 -14zM848 1172q0 -6 -6 -13q-96 -123 -185 -123q-43 0 -116 54l-37 26q-41 31 -87 31t-110 -53q-13 -10 -26 -2l-19 14q-6 6 -6 13
t6 14q92 121 180 120q59 0 113 -47l37 -32q35 -31 87 -31t118 55q12 8 17 8t11 -6l15 -14q8 -8 8 -14z" />
    <glyph glyph-name="adieresis" unicode="&#xe4;" horiz-adv-x="970" 
d="M676 608q0 78 -52 129t-137 51t-161 -63t-90 -154l-41 -235q-4 -25 -5 -37q0 -78 52 -130t136 -52q85 -1 162 65t91 154l41 235q4 25 4 37zM866 891q0 -14 -12 -76l-139 -795q-2 -20 -25 -20h-76q-16 0 -16 16l16 99q0 16 -14 16t-22 -10q-115 -121 -226 -121
q-141 0 -221 74t-80 194q0 31 6 68l41 235q27 150 140 242t274 92q111 0 184 -119q4 -10 17 -10q18 0 22 23l15 86q2 20 24 20h76q16 0 16 -14zM400 1233q82 0 81 -77q-1 -38 -33 -71t-70 -33t-60 22t-22 60t33 68q33 31 71 31zM732 1233q84 0 83 -76q0 -37 -35 -71
q-36 -34 -72 -34q-78 1 -77 79q0 38 31 70q32 32 70 32z" />
    <glyph glyph-name="aring" unicode="&#xe5;" horiz-adv-x="970" 
d="M676 608q0 78 -52 129t-137 51t-161 -63t-90 -154l-41 -235q-4 -25 -5 -37q0 -78 52 -130t136 -52q85 -1 162 65t91 154l41 235q4 25 4 37zM676 1255q0 74 -92 74q-100 -1 -120 -109q-11 -60 -11 -65q0 -76 88 -76q103 0 124 109q11 57 11 67zM866 891q0 -14 -12 -76
l-139 -795q-2 -20 -25 -20h-76q-16 0 -16 16l16 99q0 16 -14 16t-22 -10q-115 -121 -226 -121q-141 0 -221 74t-80 194q0 31 6 68l41 235q27 150 140 242t274 92q111 0 184 -119q4 -10 17 -10q18 0 22 23l15 86q2 20 24 20h76q16 0 16 -14zM592 1391q70 0 108 -33t37 -75
q0 -156 -81 -222q-52 -43 -122 -43t-106 34t-37 74q1 40 15 110t65 113q51 42 121 42z" />
    <glyph glyph-name="ae" unicode="&#xe6;" horiz-adv-x="1513" 
d="M623 403h-295q-51 0 -94 -34q-42 -35 -52 -101t-10 -69q0 -43 29 -73t71 -30h107q65 0 133 54t106 124l21 111q0 18 -16 18zM1255 629q0 78 -52 129t-137 51q-85 1 -161 -63t-90 -154q-6 -31 -6 -33q0 -16 18 -16h396q20 0 22 20q10 56 10 66zM1395 641q0 -16 -4 -49
l-23 -125q-2 -20 -25 -21h-534q-20 0 -23 -20l-18 -100q-4 -25 -4 -47q0 -79 50 -131t130 -52q115 0 215 117q7 8 15 8t24 -8l66 -37q10 -6 10 -18t-45 -58q-117 -120 -306 -120t-274 149q-6 10 -16 10t-19 -12q-55 -72 -129 -110t-127 -37h-106q-96 0 -158 53
q-61 53 -61 141q0 18 16 116t99 153q83 56 196 57h295q23 0 25 20l12 68q2 12 2 37q0 78 -52 129t-132 51q-117 0 -211 -113q-11 -10 -19 -10t-28 12l-60 35q-10 6 -10 17t51 63q113 113 291 113t270 -111q8 -8 14 -8t15 8q133 115 279 115t227 -85q82 -85 82 -200z" />
    <glyph glyph-name="ccedilla" unicode="&#xe7;" horiz-adv-x="870" 
d="M803 760q0 -20 -17 -27l-69 -33q-25 -12 -35 -12t-12 8q-27 51 -74 82t-100 31q-90 1 -166 -63t-90 -154l-50 -277q-2 -12 -2 -36q0 -79 50 -131t131 -52q115 0 215 117q8 8 15 8t28 -10l61 -35q10 -6 10 -20t-51 -62q-98 -98 -252 -112q-29 -4 -47 -31l-45 -70
q-6 -8 -6 -18t8 -13q72 -35 72 -102q0 -116 -84 -179q-63 -48 -143 -48h-74q-16 0 -17 16l4 37q2 20 25 20h74q41 0 81 34t40 100q0 57 -88 82q-12 2 -13 12q0 10 8 20l70 107q12 20 12 28t-18 13q-98 20 -153 89q-54 69 -54 167q0 33 6 69l49 277q27 150 140 242
q112 92 278 92t242 -97q41 -49 41 -69z" />
    <glyph glyph-name="egrave" unicode="&#xe8;" horiz-adv-x="937" 
d="M680 629q0 78 -52 129t-137 51q-85 1 -161 -63t-90 -154q-6 -31 -7 -33q0 -16 19 -16h395q20 0 23 20q10 56 10 66zM819 641q0 -16 -4 -49l-22 -125q-2 -20 -25 -21h-535q-20 0 -22 -20l-18 -100q-4 -25 -5 -47q0 -79 50 -131t131 -52q115 0 215 117q8 8 15 8t24 -8
l65 -37q10 -6 10 -18t-45 -58q-117 -121 -305 -120q-141 0 -221 72t-80 194q0 33 6 69l49 277q23 127 142 230q119 104 265 104t228 -85t82 -200zM596 1038q0 -18 -27 -18h-41q-14 0 -22 10l-195 209q-6 6 -6 14q0 20 27 21h135q12 0 20 -12l97 -191q12 -25 12 -33z" />
    <glyph glyph-name="eacute" unicode="&#xe9;" horiz-adv-x="937" 
d="M680 629q0 78 -52 129t-137 51q-85 1 -161 -63t-90 -154q-6 -31 -7 -33q0 -16 19 -16h395q20 0 23 20q10 56 10 66zM819 641q0 -16 -4 -49l-22 -125q-2 -20 -25 -21h-535q-20 0 -22 -20l-18 -100q-4 -25 -5 -47q0 -79 50 -131t131 -52q115 0 215 117q8 8 15 8t24 -8
l65 -37q10 -6 10 -18t-45 -58q-117 -121 -305 -120q-141 0 -221 72t-80 194q0 33 6 69l49 277q23 127 142 230q119 104 265 104t228 -85t82 -200zM821 1274q21 0 21 -12t-13 -23l-270 -209q-12 -10 -24 -10h-41q-33 0 -11 33l179 209q12 12 24 12h135z" />
    <glyph glyph-name="ecircumflex" unicode="&#xea;" horiz-adv-x="937" 
d="M680 629q0 78 -52 129t-137 51q-85 1 -161 -63t-90 -154q-6 -31 -7 -33q0 -16 19 -16h395q20 0 23 20q10 56 10 66zM819 641q0 -16 -4 -49l-22 -125q-2 -20 -25 -21h-535q-20 0 -22 -20l-18 -100q-4 -25 -5 -47q0 -79 50 -131t131 -52q115 0 215 117q8 8 15 8t24 -8
l65 -37q10 -6 10 -18t-45 -58q-117 -121 -305 -120q-141 0 -221 72t-80 194q0 33 6 69l49 277q23 127 142 230q119 104 265 104t228 -85t82 -200zM752 1038q0 -20 -27 -20h-72q-10 0 -14 8l-68 127q-6 10 -14 10t-18 -10l-119 -127q-8 -8 -19 -8h-69q-18 0 -19 14q0 10 9 19
l202 215q8 8 17 8h63q12 0 17 -8l127 -215q4 -9 4 -13z" />
    <glyph glyph-name="edieresis" unicode="&#xeb;" horiz-adv-x="937" 
d="M680 629q0 78 -52 129t-137 51q-85 1 -161 -63t-90 -154q-6 -31 -7 -33q0 -16 19 -16h395q20 0 23 20q10 56 10 66zM819 641q0 -16 -4 -49l-22 -125q-2 -20 -25 -21h-535q-20 0 -22 -20l-18 -100q-4 -25 -5 -47q0 -79 50 -131t131 -52q115 0 215 117q8 8 15 8t24 -8
l65 -37q10 -6 10 -18t-45 -58q-117 -121 -305 -120q-141 0 -221 72t-80 194q0 33 6 69l49 277q23 127 142 230q119 104 265 104t228 -85t82 -200zM394 1233q82 0 81 -77q0 -38 -33 -71q-32 -33 -70 -33t-60 22t-22 60t33 68q33 31 71 31zM725 1233q84 0 84 -76
q0 -37 -35 -71t-72 -34t-57 21q-20 20 -20 58t30 70q31 32 70 32z" />
    <glyph glyph-name="igrave" unicode="&#xec;" horiz-adv-x="428" 
d="M324 891q0 -6 -13 -76l-139 -795q-2 -20 -25 -20h-98q-18 0 -18 12t6 38t8 40l139 795q2 20 25 20h98q17 0 17 -14zM342 1038q0 -18 -27 -18h-41q-14 0 -22 10l-195 209q-6 6 -6 14q0 20 27 21h135q12 0 20 -12l97 -191q12 -25 12 -33z" />
    <glyph glyph-name="iacute" unicode="&#xed;" horiz-adv-x="428" 
d="M324 891q0 -6 -13 -76l-139 -795q-2 -20 -25 -20h-98q-18 0 -18 12t6 38t8 40l139 795q2 20 25 20h98q17 0 17 -14zM567 1274q21 0 21 -12t-13 -23l-270 -209q-12 -10 -24 -10h-41q-33 0 -11 33l179 209q12 12 24 12h135z" />
    <glyph glyph-name="icircumflex" unicode="&#xee;" horiz-adv-x="428" 
d="M324 891q0 -6 -13 -76l-139 -795q-2 -20 -25 -20h-98q-18 0 -18 12t6 38t8 40l139 795q2 20 25 20h98q17 0 17 -14zM498 1038q0 -20 -27 -20h-72q-10 0 -14 8l-68 127q-6 10 -14 10t-18 -10l-119 -127q-8 -8 -19 -8h-69q-18 0 -19 14q0 10 9 19l202 215q8 8 17 8h63
q12 0 17 -8l127 -215q4 -9 4 -13z" />
    <glyph glyph-name="idieresis" unicode="&#xef;" horiz-adv-x="428" 
d="M324 891q0 -6 -13 -76l-139 -795q-2 -20 -25 -20h-98q-18 0 -18 12t6 38t8 40l139 795q2 20 25 20h98q17 0 17 -14zM140 1233q82 0 81 -77q0 -38 -33 -71q-32 -33 -70 -33t-60 22t-22 60t33 68q33 31 71 31zM471 1233q84 0 84 -76q0 -37 -35 -71t-72 -34t-57 21
q-20 20 -20 58t30 70q31 32 70 32z" />
    <glyph glyph-name="eth" unicode="&#xf0;" horiz-adv-x="937" 
d="M496 809q-90 1 -166 -63t-90 -154l-50 -277q-16 -91 37 -155t143 -64t166 66q77 66 91 153l49 277q14 88 -38 152t-142 65zM348 -20q-162 0 -242 93t-53 242l49 277q27 150 140 242t274 92h2l-96 116l-203 -84q-29 -10 -29 11l9 39q4 29 18 32l154 64l-129 158q-8 8 1 17
t23 9h107q4 0 18 -14l98 -121l224 92q10 4 19 0t7 -12l-8 -45q-4 -20 -20 -27l-170 -69l245 -297q52 -82 29 -203l-49 -277q-28 -151 -142 -243t-276 -92z" />
    <glyph glyph-name="ntilde" unicode="&#xf1;" horiz-adv-x="1003" 
d="M850 637q0 -31 -6 -66l-96 -551q-2 -20 -25 -20h-98q-19 0 -19 8t17 94l82 469q4 25 4 37q-1 78 -53 129t-137 51t-161 -63t-90 -154l-96 -551q-2 -20 -25 -20h-98q-18 0 -18 14q0 2 16 88l137 783q2 20 25 20h76q16 0 16 -16l-14 -92q0 -16 14 -17q12 0 21 11
q113 115 223 114q143 1 224 -73t81 -195zM828 1206q6 0 20 -14t14 -20t-6 -13q-94 -123 -184 -123q-43 0 -117 54l-37 26q-41 31 -87 31t-109 -53q-15 -9 -27 -2l-19 14q-6 6 -6 13t6 14q92 121 181 120q59 0 112 -47l37 -32q35 -31 87 -31t118 55q12 8 17 8z" />
    <glyph glyph-name="ograve" unicode="&#xf2;" horiz-adv-x="937" 
d="M680 629q0 78 -52 129t-137 51q-85 1 -161 -63t-90 -154l-50 -277q-2 -12 -2 -36q0 -79 50 -131t136 -52q85 0 162 66t91 153l49 277q4 25 4 37zM821 659q0 -33 -6 -67l-49 -277q-28 -151 -142 -243t-266 -92t-231 72q-80 72 -80 194q0 33 6 69l49 277q27 150 140 242
t265 92t233 -72t81 -195zM596 1038q0 -18 -27 -18h-41q-14 0 -22 10l-195 209q-6 6 -6 14q0 20 27 21h135q12 0 20 -12l97 -191q12 -25 12 -33z" />
    <glyph glyph-name="oacute" unicode="&#xf3;" horiz-adv-x="937" 
d="M680 629q0 78 -52 129t-137 51q-85 1 -161 -63t-90 -154l-50 -277q-2 -12 -2 -36q0 -79 50 -131t136 -52q85 0 162 66t91 153l49 277q4 25 4 37zM821 659q0 -33 -6 -67l-49 -277q-28 -151 -142 -243t-266 -92t-231 72q-80 72 -80 194q0 33 6 69l49 277q27 150 140 242
t265 92t233 -72t81 -195zM821 1274q21 0 21 -12t-13 -23l-270 -209q-12 -10 -24 -10h-41q-33 0 -11 33l179 209q12 12 24 12h135z" />
    <glyph glyph-name="ocircumflex" unicode="&#xf4;" horiz-adv-x="937" 
d="M680 629q0 78 -52 129t-137 51q-85 1 -161 -63t-90 -154l-50 -277q-2 -12 -2 -36q0 -79 50 -131t136 -52q85 0 162 66t91 153l49 277q4 25 4 37zM821 659q0 -33 -6 -67l-49 -277q-28 -151 -142 -243t-266 -92t-231 72q-80 72 -80 194q0 33 6 69l49 277q27 150 140 242
t265 92t233 -72t81 -195zM752 1038q0 -20 -27 -20h-72q-10 0 -14 8l-68 127q-6 10 -14 10t-18 -10l-119 -127q-8 -8 -19 -8h-69q-18 0 -19 14q0 10 9 19l202 215q8 8 17 8h63q12 0 17 -8l127 -215q4 -9 4 -13z" />
    <glyph glyph-name="otilde" unicode="&#xf5;" horiz-adv-x="937" 
d="M680 629q0 78 -52 129t-137 51q-85 1 -161 -63t-90 -154l-50 -277q-2 -12 -2 -36q0 -79 50 -131t136 -52q85 0 162 66t91 153l49 277q4 25 4 37zM821 659q0 -33 -6 -67l-49 -277q-28 -151 -142 -243t-266 -92t-231 72q-80 72 -80 194q0 33 6 69l49 277q27 150 140 242
t265 92t233 -72t81 -195zM842 1172q0 -6 -6 -13q-94 -123 -185 -123q-43 0 -116 54l-37 26q-41 31 -87 31t-110 -53q-15 -9 -27 -2l-18 14q-6 6 -6 13t6 14q92 121 180 120q59 0 113 -47l37 -32q35 -31 87 -31t118 55q12 8 17 8t11 -6l15 -14q8 -8 8 -14z" />
    <glyph glyph-name="odieresis" unicode="&#xf6;" horiz-adv-x="937" 
d="M680 629q0 78 -52 129t-137 51q-85 1 -161 -63t-90 -154l-50 -277q-2 -12 -2 -36q0 -79 50 -131t136 -52q85 0 162 66t91 153l49 277q4 25 4 37zM821 659q0 -33 -6 -67l-49 -277q-28 -151 -142 -243t-266 -92t-231 72q-80 72 -80 194q0 33 6 69l49 277q27 150 140 242
t265 92t233 -72t81 -195zM394 1233q82 0 81 -77q0 -38 -33 -71q-32 -33 -70 -33t-60 22t-22 60t33 68q33 31 71 31zM725 1233q84 0 84 -76q0 -37 -35 -71t-72 -34t-57 21q-20 20 -20 58t30 70q31 32 70 32z" />
    <glyph glyph-name="divide" unicode="&#xf7;" 
d="M447 53q-41 0 -65 31t-15 72q6 40 41 70q36 30 76 30t66 -28t17 -71q-8 -42 -44 -73t-76 -31zM104 436q-23 0 -16 21l8 55q6 20 25 20h821q22 0 16 -20l-8 -55q-6 -20 -24 -21h-822zM666 887q24 -29 17 -71t-43 -73t-76 -31t-64 32q-24 30 -19 71q8 41 43 71t76 30
t66 -29z" />
    <glyph glyph-name="oslash" unicode="&#xf8;" horiz-adv-x="937" 
d="M188 281q0 -70 23 -70q12 0 20 14l310 508q28 45 28 53q1 23 -81 23q-82 1 -158 -63t-90 -154l-50 -277q-2 -10 -2 -34zM678 636q0 32 -11 60t-21 27q-10 0 -21 -16l-322 -535q-20 -35 -20 -43t10 -14q37 -18 76 -19q90 0 167 66t91 153l49 277q2 12 2 44zM821 659
q0 -33 -6 -67l-49 -277q-28 -151 -142 -243t-266 -92t-231 72q-80 72 -80 194q0 33 6 69l49 277q27 150 140 242t265 92t233 -72t81 -195z" />
    <glyph glyph-name="ugrave" unicode="&#xf9;" horiz-adv-x="980" 
d="M860 905q17 0 17 -12t-13 -78l-139 -795q-2 -20 -25 -20h-75q-16 0 -17 16l17 99q-1 16 -15 16t-22 -10q-115 -121 -226 -121q-141 0 -221 74t-80 194q0 35 7 68l96 549q2 20 24 20h97q16 0 16 -11t-16 -101l-80 -457q-4 -25 -4 -37q0 -78 51 -130t137 -52t162 63t92 156
l96 549q2 20 25 20h96zM610 1038q0 -18 -26 -18h-41q-14 0 -23 10l-194 209q-6 6 -7 14q0 20 27 21h135q12 0 21 -12l96 -191q12 -25 12 -33z" />
    <glyph glyph-name="uacute" unicode="&#xfa;" horiz-adv-x="980" 
d="M860 905q17 0 17 -12t-13 -78l-139 -795q-2 -20 -25 -20h-75q-16 0 -17 16l17 99q-1 16 -15 16t-22 -10q-115 -121 -226 -121q-141 0 -221 74t-80 194q0 35 7 68l96 549q2 20 24 20h97q16 0 16 -11t-16 -101l-80 -457q-4 -25 -4 -37q0 -78 51 -130t137 -52t162 63t92 156
l96 549q2 20 25 20h96zM836 1274q20 0 20 -12t-12 -23l-271 -209q-12 -10 -24 -10h-41q-34 0 -10 33l178 209q12 12 24 12h136z" />
    <glyph glyph-name="ucircumflex" unicode="&#xfb;" horiz-adv-x="980" 
d="M860 905q17 0 17 -12t-13 -78l-139 -795q-2 -20 -25 -20h-75q-16 0 -17 16l17 99q-1 16 -15 16t-22 -10q-115 -121 -226 -121q-141 0 -221 74t-80 194q0 35 7 68l96 549q2 20 24 20h97q16 0 16 -11t-16 -101l-80 -457q-4 -25 -4 -37q0 -78 51 -130t137 -52t162 63t92 156
l96 549q2 20 25 20h96zM766 1038q0 -20 -27 -20h-71q-10 0 -15 8l-67 127q-6 10 -14 10t-19 -10l-119 -127q-8 -8 -18 -8h-70q-18 0 -18 12t8 21l203 215q8 8 16 8h63q12 0 17 -8l127 -215q4 -9 4 -13z" />
    <glyph glyph-name="udieresis" unicode="&#xfc;" horiz-adv-x="980" 
d="M860 905q17 0 17 -12t-13 -78l-139 -795q-2 -20 -25 -20h-75q-16 0 -17 16l17 99q-1 16 -15 16t-22 -10q-115 -121 -226 -121q-141 0 -221 74t-80 194q0 35 7 68l96 549q2 20 24 20h97q16 0 16 -11t-16 -101l-80 -457q-4 -25 -4 -37q0 -78 51 -130t137 -52t162 63t92 156
l96 549q2 20 25 20h96zM408 1233q81 0 81 -77q-1 -38 -33 -71t-70 -33t-60 22t-21 60q0 38 32 68q32 31 71 31zM740 1233q84 0 83 -76q0 -37 -35 -71q-36 -34 -72 -34q-78 1 -77 79q0 38 31 70q32 32 70 32z" />
    <glyph glyph-name="yacute" unicode="&#xfd;" horiz-adv-x="980" 
d="M201 299q0 -78 51 -130t143 -52q92 -1 163 69t85 150l96 549q2 20 25 20h96q17 0 17 -14t-15 -86l-164 -928q-28 -162 -138 -260t-282 -98t-247 100q-39 47 -39 69t16 27l82 37q16 8 22 8t13 -10q27 -53 74 -84t100 -31q92 -1 167 63t91 157l37 202q8 37 8 50t-14 14
q-12 0 -21 -10q-104 -111 -205 -111q-141 0 -221 74t-80 194q0 39 9 80l94 537q2 20 24 20h97q16 0 16 -14l-90 -520q-10 -61 -10 -72zM836 1274q20 0 20 -12t-12 -23l-271 -209q-12 -10 -24 -10h-41q-34 0 -10 33l178 209q12 12 24 12h136z" />
    <glyph glyph-name="thorn" unicode="&#xfe;" horiz-adv-x="970" 
d="M709 608q-1 78 -53 129t-137 51t-161 -63t-90 -154l-37 -211q-8 -57 -8 -61q0 -78 51 -130q50 -52 136 -52q86 -1 162 65t92 154l36 211l5 26q4 25 4 35zM850 637q0 -35 -10 -90l-37 -211q-27 -145 -140 -241q-114 -95 -257 -95q-106 0 -183 117q-6 10 -16 10
q-18 0 -21 -25l-96 -542q-2 -20 -24 -21h-99q-16 0 -16 15q0 4 2 13t4 24t4 26l291 1651q2 20 24 20h76q16 0 16 -10t-2 -24q-3 -14 -4 -21l-69 -395q-6 -37 -6 -41q0 -16 14 -17q12 0 21 11q113 115 223 114q143 1 224 -73t81 -195z" />
    <glyph glyph-name="ydieresis" unicode="&#xff;" horiz-adv-x="980" 
d="M201 299q0 -78 51 -130t143 -52q92 -1 163 69t85 150l96 549q2 20 25 20h96q17 0 17 -14t-15 -86l-164 -928q-28 -162 -138 -260t-282 -98t-247 100q-39 47 -39 69t16 27l82 37q16 8 22 8t13 -10q27 -53 74 -84t100 -31q92 -1 167 63t91 157l37 202q8 37 8 50t-14 14
q-12 0 -21 -10q-104 -111 -205 -111q-141 0 -221 74t-80 194q0 39 9 80l94 537q2 20 24 20h97q16 0 16 -14l-90 -520q-10 -61 -10 -72zM408 1233q81 0 81 -77q-1 -38 -33 -71t-70 -33t-60 22t-21 60q0 38 32 68q32 31 71 31zM740 1233q84 0 83 -76q0 -37 -35 -71
q-36 -34 -72 -34q-78 1 -77 79q0 38 31 70q32 32 70 32z" />
    <glyph glyph-name="dotlessi" unicode="&#x131;" horiz-adv-x="428" 
d="M324 891q0 -6 -13 -76l-139 -795q-2 -20 -25 -20h-98q-18 0 -18 12t6 38t8 40l139 795q2 20 25 20h98q17 0 17 -14z" />
    <glyph glyph-name="Lslash" unicode="&#x141;" horiz-adv-x="911" 
d="M227 117h535q18 -1 18 -19l-14 -78q-2 -20 -25 -20h-671q-18 0 -19 14q0 2 10 54l62 352q10 51 10 59t-7 8t-15 -6l-56 -47q-6 -6 -14 -6t-14 6l-35 43q-10 11 -10 21t8 16l147 123q29 23 37 70l98 561q2 20 25 20h96q16 0 17 -14q0 -16 -9 -53l-61 -353q-8 -37 -8 -44
t9 -7t17 8l66 56q6 6 14 6t15 -6l36 -45q17 -22 -2 -35l-161 -137q-27 -25 -33 -62l-76 -430l-6 -41q0 -14 16 -14z" />
    <glyph glyph-name="lslash" unicode="&#x142;" horiz-adv-x="428" 
d="M324 821q8 0 16 8l61 52q7 6 15 6t14 -6l35 -43q8 -9 8 -20t-8 -17l-158 -133q-27 -25 -33 -62l-102 -586q-2 -20 -25 -20h-98q-18 0 -18 14q0 4 4 23t8 41l61 352q8 41 8 55t-20 0l-61 -51q-7 -6 -15 -6t-14 6l-35 43q-10 11 -10 21t8 16l152 127q29 23 37 70l98 557
q2 20 24 20h99q16 0 16 -14l-65 -379q-10 -61 -10 -67t8 -7z" />
    <glyph glyph-name="OE" unicode="&#x152;" horiz-adv-x="1589" 
d="M586 1192q-92 0 -166 -62t-90 -155l-117 -660q-16 -91 35 -155t143 -64h64q90 0 167 66t91 153l116 660q16 92 -36 154q-53 62 -144 63h-63zM979 1171q-20 0 -25 -16q0 -1 14 -55t1 -125l-43 -242q-2 -20 16 -20h438q20 0 19 -21l-15 -76q-2 -20 -24 -20h-438
q-20 0 -23 -21l-47 -260q-8 -57 -42 -117t-36 -65q0 -16 19 -16h577q23 0 16 -21l-12 -76q-2 -20 -24 -20h-781q-66 -20 -135 -20h-63q-162 0 -243 93t-54 242l116 660q27 150 141 243t275 93h64q66 0 133 -23h774q18 0 16 -20l-12 -76q-6 -20 -25 -21h-577z" />
    <glyph glyph-name="oe" unicode="&#x153;" horiz-adv-x="1513" 
d="M680 629q0 78 -52 129t-137 51q-85 1 -161 -63t-90 -154l-50 -277q-2 -12 -2 -36q0 -79 50 -131t136 -52q85 0 162 66t91 153l49 277q4 25 4 37zM1255 629q0 78 -52 129t-133 51q-82 0 -146 -52t-103 -122q0 -10 -12 -78q0 -14 18 -14h396q20 0 22 20q10 52 10 66z
M1395 641q0 -16 -4 -49l-23 -125q-2 -20 -25 -21h-534q-20 0 -23 -20l-20 -111q-4 -16 -10 -43q18 -72 66 -124t122 -52q115 0 215 117q7 8 15 8t24 -8l66 -37q10 -6 10 -18t-45 -58q-117 -120 -292 -120t-265 108q-8 8 -12 8t-17 -8q-129 -108 -283 -108t-233 72
q-80 72 -80 194q0 33 6 69l49 277q27 150 140 242q112 92 276 92t260 -109q8 -8 14 -8t17 6q133 111 277 111t227 -85q82 -85 82 -200z" />
    <glyph glyph-name="Scaron" unicode="&#x160;" horiz-adv-x="946" 
d="M899 1142q0 -18 -16 -26l-76 -35q-19 -10 -29 -10t-12 8q-53 113 -174 113h-33q-106 0 -182 -78t-76 -168q0 -51 40 -96t82 -70q41 -26 111 -60q124 -62 196 -127q71 -66 73 -200q0 -168 -116 -291t-310 -122h-88q-182 0 -254 108q-31 40 -31 60t14 26l84 41q12 6 20 6
t19 -18q57 -106 168 -107h88q104 0 185 78q80 78 80 172t-73 150q-52 39 -139 83q-88 44 -120 63t-81 58q-93 76 -91 203q0 170 117 289q118 119 305 119h32q176 0 252 -105q35 -46 35 -64zM831 1616q13 0 13 -6t-15 -25l-155 -172q-8 -10 -25 -10h-98q-14 0 -21 10l-90 166
q-12 25 -12 27q0 10 14 10h88q12 0 19 -12l55 -113q2 -8 9 -8t16 8l92 113q8 12 24 12h86z" />
    <glyph glyph-name="scaron" unicode="&#x161;" horiz-adv-x="897" 
d="M803 760q0 -14 -19 -23l-65 -30q-19 -11 -27 -11t-14 11q-25 49 -74 79t-104 31h-64q-108 0 -158 -48t-50 -114t80 -96q81 -29 185 -51t153 -48q89 -49 89 -143q0 -125 -103 -231t-280 -106h-63q-166 0 -242 94q-43 50 -43 70t19 28l71 33q20 8 28 8t11 -10
q23 -51 70 -83t106 -32h64q102 0 159 56q58 56 58 116t-67 89q-67 31 -159 49t-128 28q-98 28 -131 86q-19 35 -19 82q0 127 101 229t270 103h63q170 0 246 -101q37 -51 37 -65zM745 1274q19 0 19 -12t-8 -21l-203 -215q-8 -8 -16 -8h-64q-12 0 -16 8l-127 215q-4 8 -4 12
q0 20 26 21h72q10 0 14 -8l68 -127q12 -21 33 0l118 127q8 8 19 8h69z" />
    <glyph glyph-name="Ydieresis" unicode="&#x178;" horiz-adv-x="917" 
d="M993 1274q0 -6 -20 -35l-457 -643l-100 -576q-2 -20 -25 -20h-98q-19 0 -19 10t11 68l90 518l-217 618q-4 18 -12 34q-7 16 -7 20q0 20 27 20h117q12 0 16 -12l160 -516q6 -16 16 -17q10 0 21 17l340 516q8 12 20 12h117q20 0 20 -14zM535 1522q0 -35 -32 -67t-67 -32
q-69 0 -69 70q0 41 27 72q28 31 65 31t57 -20q20 -19 19 -54zM844 1522q0 -35 -32 -67t-67 -32q-69 0 -69 70q0 39 29 71t63 32t56 -20q20 -19 20 -54z" />
    <glyph glyph-name="Zcaron" unicode="&#x17d;" horiz-adv-x="897" 
d="M887 1274q0 -6 -25 -45l-676 -1084q-6 -10 -6 -14q0 -14 19 -14h491q18 0 19 -17l-15 -80q-2 -20 -24 -20h-693q-18 0 -18 14q0 4 14 29l682 1100q21 28 -12 28h-440q-18 0 -19 17l15 80q2 20 24 20h645q19 0 19 -14zM762 1616q12 0 12 -6t-14 -25l-156 -172
q-8 -10 -24 -10h-99q-14 0 -20 10l-90 166q-13 25 -13 31t15 6h88q12 0 18 -12l56 -113q2 -8 9 -8t15 8l92 113q8 12 25 12h86z" />
    <glyph glyph-name="zcaron" unicode="&#x17e;" horiz-adv-x="858" 
d="M786 889q0 -4 -8 -17l-551 -725q-8 -12 -8 -16q0 -14 21 -14h436q18 0 18 -17l-14 -80q-2 -20 -25 -20h-659q-20 0 -21 14q0 4 9 17l546 725q8 12 9 16q0 14 -21 14h-393q-18 0 -19 17l15 80q2 20 24 20h621q20 0 20 -14zM688 1274q19 0 19 -12t-9 -21l-202 -215
q-8 -8 -17 -8h-63q-12 0 -17 8l-127 215q-4 8 -4 12q0 20 27 21h72q10 0 14 -8l68 -127q13 -21 32 0l119 127q8 8 18 8h70z" />
    <glyph glyph-name="florin" unicode="&#x192;" 
d="M965 1292q0 -8 -11 -24l-32 -64q-8 -14 -23 -14l-35 2q-92 0 -167 -62t-89 -155l-37 -211q0 -16 17 -16h151q18 0 19 -15l-15 -82q-2 -20 -24 -20h-152q-20 0 -22 -21l-131 -735q-27 -150 -148 -253t-268 -103q-80 0 -80 18q0 10 10 27l33 61q6 14 21 15l36 -2
q90 0 164 62t90 155l125 704q2 11 4 25t5 22q2 8 2 10q0 14 -19 15h-55q-16 0 -17 16l15 80q2 20 22 21h56q23 0 24 20l33 186q27 150 148 253q122 103 270 104q80 0 80 -19z" />
    <glyph glyph-name="circumflex" unicode="&#x2c6;" horiz-adv-x="1024" 
d="M803 1038q0 -20 -27 -20h-71q-10 0 -15 8l-67 127q-7 10 -15 10t-18 -10l-119 -127q-8 -8 -18 -8h-70q-18 0 -18 12t8 21l202 215q8 8 17 8h63q12 0 17 -8l127 -215q4 -9 4 -13z" />
    <glyph glyph-name="caron" unicode="&#x2c7;" horiz-adv-x="1024" 
d="M823 1274q19 0 19 -12t-8 -21l-203 -215q-8 -8 -17 -8h-63q-12 0 -16 8l-127 215q-4 8 -5 12q0 20 27 21h72q10 0 14 -8l68 -127q13 -21 32 0l119 127q8 8 19 8h69z" />
    <glyph glyph-name="breve" unicode="&#x2d8;" horiz-adv-x="1024" 
d="M623 1020h-95q-72 0 -110 33t-39 90q0 12 4 41l12 71q2 20 25 21h20q16 0 17 -16l-8 -64q1 -38 27 -62t69 -24h94q47 0 85 31t46 71l8 43q2 20 25 21h22q17 0 17 -16l-15 -86q-10 -68 -67 -111t-137 -43z" />
    <glyph glyph-name="dotaccent" unicode="&#x2d9;" horiz-adv-x="1024" 
d="M627 1268q41 0 65 -20t23 -42q0 -22 -2 -28l-11 -64q-6 -40 -40 -66t-75 -26q-91 0 -89 74q0 12 2 18l10 64q14 90 117 90z" />
    <glyph glyph-name="ring" unicode="&#x2da;" horiz-adv-x="1024" 
d="M715 1255q0 74 -92 74q-100 -1 -120 -109q-11 -60 -11 -65q0 -76 88 -76q102 0 124 109q12 57 11 67zM776 1283q0 -43 -14 -111t-66 -111t-123 -43t-107 34t-36 74t14 110t66 113q52 42 121 42t107 -33t38 -75z" />
    <glyph glyph-name="ogonek" unicode="&#x2db;" horiz-adv-x="1024" 
d="M478 -473q-28 0 -83 39q-86 61 -86 172q0 27 8 67l43 238q2 20 23 20h51q18 0 19 -16l-45 -256q-6 -49 -7 -55q0 -104 103 -133q10 -3 10 -15l-6 -41q-2 -20 -30 -20z" />
    <glyph glyph-name="tilde" unicode="&#x2dc;" horiz-adv-x="1024" 
d="M893 1172q0 -6 -6 -13q-96 -123 -185 -123q-43 0 -116 54l-37 26q-41 31 -87 31t-110 -53q-15 -9 -26 -2l-19 14q-6 6 -6 13t6 14q92 121 180 120q59 0 113 -47l37 -32q35 -31 87 -31t118 55q12 8 17 8t11 -6l15 -14q8 -8 8 -14z" />
    <glyph glyph-name="hungarumlaut" unicode="&#x2dd;" horiz-adv-x="1024" 
d="M647 1274q19 0 19 -11t-9 -20l-172 -215q-6 -10 -18 -10h-14q-18 0 -19 12q0 2 4 14l115 216q8 14 20 14h74zM856 1274q18 0 18 -11t-8 -20l-172 -215q-6 -10 -18 -10h-14q-18 0 -19 12q0 2 4 14l115 216q8 14 20 14h74z" />
    <glyph glyph-name="pi" unicode="&#x3c0;" horiz-adv-x="1124" 
d="M643 354q0 145 43 467h-231q-45 -502 -95 -719q-35 -141 -133 -141q-45 0 -77 33t-33 78q0 45 72 129q73 84 81 151l60 469h-97q-45 0 -79 -20q-34 -19 -52 -39q-16 -20 -47 -70h-35q45 130 87 191q79 116 198 114h764v-176h-258q-25 -240 -25 -481q0 -70 34 -127t98 -57
t98 56q14 24 19 57q5 32 7 40h43q-4 -127 -66 -235t-178 -107q-116 0 -175 174q-23 68 -23 213z" />
    <glyph glyph-name="endash" unicode="&#x2013;" horiz-adv-x="1165" 
d="M76 436q-18 0 -19 17l13 59q2 20 22 20h926q18 0 18 -16l-10 -59q-2 -20 -25 -21h-925z" />
    <glyph glyph-name="emdash" unicode="&#x2014;" horiz-adv-x="1740" 
d="M76 436q-18 0 -19 17l13 59q2 20 22 20h1501q19 0 19 -16l-10 -59q-2 -20 -25 -21h-1501z" />
    <glyph glyph-name="quoteleft" unicode="&#x2018;" horiz-adv-x="335" 
d="M266 1106q0 -14 17 -14h24q16 0 17 -15l-19 -116q-2 -20 -24 -21h-129q-16 0 -17 18l19 109q35 195 151 281q47 34 59 34t15 -12l10 -33q0 -14 -12 -22q-51 -33 -81 -104t-30 -105z" />
    <glyph glyph-name="quoteright" unicode="&#x2019;" horiz-adv-x="335" 
d="M138 856q-12 0 -15 12l-10 33q0 12 12 23q51 34 81 104t30 105q0 14 -17 14h-24q-16 0 -17 14l19 117q2 20 24 20h129q17 0 17 -18l-19 -109q-35 -195 -151 -280q-47 -35 -59 -35z" />
    <glyph glyph-name="quotesinglbase" unicode="&#x201a;" horiz-adv-x="335" 
d="M-58 -252q-11 0 -16 12l-10 33q0 14 12 23q51 34 81 104t30 105q0 14 -16 14h-25q-16 0 -16 14l18 117q2 20 25 20h129q16 0 16 -18l-18 -109q-35 -195 -152 -280q-47 -35 -58 -35z" />
    <glyph glyph-name="quotedblleft" unicode="&#x201c;" horiz-adv-x="600" 
d="M266 1106q0 -14 17 -14h24q16 0 17 -15l-19 -116q-2 -20 -24 -21h-129q-16 0 -17 18l19 109q35 195 151 281q47 34 59 34t15 -12l10 -33q0 -14 -12 -22q-51 -33 -81 -104t-30 -105zM528 1106q0 -14 17 -14h24q16 0 17 -15l-19 -116q-2 -20 -24 -21h-129q-16 0 -17 18
l19 109q35 195 151 281q47 34 59 34t15 -12l10 -33q0 -14 -12 -22q-51 -33 -81 -104t-30 -105z" />
    <glyph glyph-name="quotedblright" unicode="&#x201d;" horiz-adv-x="600" 
d="M138 856q-12 0 -15 12l-10 33q0 12 12 23q51 34 81 104t30 105q0 14 -17 14h-24q-16 0 -17 14l19 117q2 20 24 20h129q17 0 17 -18l-19 -109q-35 -195 -151 -280q-47 -35 -59 -35zM400 856q-12 0 -15 12l-10 33q0 12 12 23q51 34 81 104t30 105q0 14 -17 14h-24
q-16 0 -17 14l19 117q2 20 24 20h129q17 0 17 -18l-19 -109q-35 -195 -151 -280q-47 -35 -59 -35z" />
    <glyph glyph-name="quotedblbase" unicode="&#x201e;" horiz-adv-x="600" 
d="M-58 -252q-11 0 -16 12l-10 33q0 14 12 23q51 34 81 104t30 105q0 14 -16 14h-25q-16 0 -16 14l18 117q2 20 25 20h129q16 0 16 -18l-18 -109q-35 -195 -152 -280q-47 -35 -58 -35zM204 -252q-11 0 -16 12l-10 33q0 14 12 23q51 34 81 104t30 105q0 14 -16 14h-25
q-16 0 -16 14l18 117q2 20 25 20h129q16 0 16 -18l-18 -109q-35 -195 -152 -280q-47 -35 -58 -35z" />
    <glyph glyph-name="dagger" unicode="&#x2020;" horiz-adv-x="839" 
d="M207 -461q-16 0 -17 17l152 1099l57 172q0 12 -16 13l-336 -27q-16 0 -16 14l16 99q2 20 23 20l329 -26q19 -4 23 22l31 326q4 23 24 22h90q18 0 19 -16l-88 -340q0 -14 16 -14l338 26q16 0 16 -14l-16 -98q-2 -20 -25 -21l-325 27q-10 2 -16 -5t-7 -18l-2 -162
l-233 -1095q-2 -20 -25 -21h-12z" />
    <glyph glyph-name="daggerdbl" unicode="&#x2021;" horiz-adv-x="839" 
d="M479 817v-158l-43 -170q0 -14 17 -14l321 27q16 0 17 -15l-17 -98q-4 -25 -24 -20l-312 26q-20 4 -24 -20l-170 -815q-2 -20 -25 -21h-12q-16 0 -17 15l117 825q0 16 -14 16l-326 -26q-16 0 -16 14l16 98q4 25 25 21l313 -27q10 -2 16 4q5 6 7 19l16 159l55 168
q0 14 -16 15l-336 -27q-16 0 -16 14l16 99q2 20 23 20l329 -26q19 -4 23 22l31 326q4 23 24 22h90q18 0 19 -14l-88 -340q0 -16 16 -16l338 26q16 0 16 -14l-16 -98q-2 -20 -25 -21l-325 27q-10 2 -16 -5t-7 -18z" />
    <glyph glyph-name="bullet" unicode="&#x2022;" horiz-adv-x="1024" 
d="M819 721q1 -17 -17 -117t-112 -176t-225 -76h-8q-117 0 -185 60t-67 157q-1 20 17 120q18 101 111 175t226 74h8q117 0 185 -59q67 -60 67 -158z" />
    <glyph glyph-name="ellipsis" unicode="&#x2026;" horiz-adv-x="2048" 
d="M500 70q0 -43 -30 -72t-71 -29t-71 30t-29 71q0 40 30 70q31 30 71 30t70 -28t30 -72zM1122 70q0 -43 -30 -72t-70 -29q-41 0 -71 30t-29 71q0 40 30 70t70 30t70 -28t30 -72zM1745 70q0 -43 -30 -72t-71 -29q-40 0 -70 30t-30 71q0 40 30 70t70 30t71 -28q30 -28 30 -72
z" />
    <glyph glyph-name="perthousand" unicode="&#x2030;" horiz-adv-x="1478" 
d="M766 396q0 24 -20 44t-50 20q-32 0 -60 -24q-28 -25 -34 -57l-39 -217q1 -29 21 -49q20 -21 51 -21t59 25t35 57l35 191q2 7 2 31zM436 1136q0 22 -20 42t-51 20t-60 -24t-35 -58l-30 -174q-6 -36 -6 -54t18 -38q20 -20 51 -20t59 24q28 25 35 57l35 191q4 12 4 34z
M1241 396q0 24 -19 44t-50 20t-60 -24q-29 -25 -35 -57l-30 -174l-9 -43q0 -29 20 -49q20 -21 52 -21t60 25t34 57l35 191q2 7 2 31zM870 414q0 -23 -2 -35l-37 -205q-14 -78 -72 -126q-57 -48 -137 -48t-122 38t-41 101q0 10 4 35l37 205q14 78 72 126t138 48t120 -38
t40 -101zM905 1290q19 0 19 -11t-4 -17l-756 -1250q-6 -12 -21 -12h-49q-18 0 -18 11t4 18l756 1249q6 12 20 12h49zM541 1151q0 -10 -4 -35l-37 -205q-14 -78 -72 -126t-138 -48q-79 0 -120 38t-41 102q0 23 2 34l37 205q14 78 72 126t138 48q79 0 121 -38t42 -101z
M1346 414q0 -23 -3 -35l-36 -205q-15 -78 -73 -126t-137 -48t-121 38t-42 101q0 10 4 35l37 205q15 78 73 126t137 48t120 -38t41 -101z" />
    <glyph glyph-name="guilsinglleft" unicode="&#x2039;" horiz-adv-x="665" 
d="M211 568q0 -10 14 -21l242 -201q16 -12 16 -24l-16 -86q-4 -23 -17 -23t-28 14l-320 260q-14 10 -14 23l18 108q4 18 19 27l407 258q33 20 41 21q15 -1 15 -15l-19 -92q-4 -12 -20 -24l-326 -207q-12 -8 -12 -18z" />
    <glyph glyph-name="guilsinglright" unicode="&#x203a;" horiz-adv-x="665" 
d="M74 213q-14 0 -15 14l19 92q4 12 20 25l326 207q12 10 12 18t-14 21l-242 201q-16 12 -16 24l16 86q4 23 18 23t27 -15l320 -260q14 -10 14 -22l-18 -109q-4 -18 -19 -26l-407 -259q-33 -20 -41 -20z" />
    <glyph glyph-name="fraction" unicode="&#x2044;" horiz-adv-x="284" 
d="M557 1290q18 0 18 -10t-20 -43l-739 -1225q-6 -12 -21 -12h-49q-18 0 -18 12q0 6 26 51l733 1215q6 12 21 12h49z" />
    <glyph glyph-name="Euro" unicode="&#x20ac;" 
d="M770 1192h-63q-92 0 -166 -62t-90 -155l-15 -80q-4 -20 17 -21h323q20 0 19 -20l-15 -76q-2 -20 -24 -20h-324q-20 0 -24 -21l-31 -184q-4 -20 16 -21h324q18 0 16 -20l-12 -74q-2 -20 -25 -20h-323q-20 0 -25 -21l-14 -82q-16 -91 35 -155t143 -64h63q115 0 216 117
q10 12 26 6l78 -43q18 -10 6 -29q-131 -169 -346 -167h-63q-162 0 -243 93t-54 242l14 82q4 20 -16 21h-127q-18 0 -17 20l12 74q2 20 25 20h127q20 0 25 21l30 184q4 20 -16 21h-127q-18 0 -16 20l14 76q2 20 22 20h127q20 0 25 21l14 80q27 150 141 243t275 93h64
q213 0 286 -166q6 -18 -16 -29l-94 -43q-16 -6 -23 6q-63 113 -174 113z" />
    <glyph glyph-name="trademark" unicode="&#x2122;" horiz-adv-x="794" 
d="M131 1059q-16 0 -16 14l4 29q2 20 24 20h217q17 0 17 -14l-4 -29q-2 -20 -25 -20h-55q-23 0 -25 -21l-49 -280q-2 -20 -24 -21h-25q-16 1 -16 15t8 51l37 205l6 36q0 14 -19 15h-55zM811 1108q0 -14 -8 -51l-53 -299q-2 -20 -25 -21h-25q-16 0 -16 15q0 2 6 39l23 122
q-1 17 -13 17t-26 -15l-66 -84q-6 -10 -20 -10h-8q-10 0 -15 10l-41 84q-8 15 -22 15t-17 -25l-26 -147q-2 -20 -25 -21h-24q-16 0 -17 15q0 4 2 13t5 27t6 33l49 277q2 20 24 20h25q12 0 16 -10l66 -166q8 -14 17 -14t20 14l127 166q6 10 20 10h25q16 0 16 -14z" />
    <glyph glyph-name="Omega" unicode="&#x2126;" horiz-adv-x="1572" 
d="M1507 0h-604l33 311q104 45 149 88t93 151t49 273q0 231 -108 375t-331 145q-222 0 -330 -144t-108 -376q0 -166 48 -273q48 -106 94 -150t149 -89l33 -311h-604v332h30q16 -72 42 -99t94 -26h323l-4 57q-121 35 -201 84t-141 139q-102 154 -102 328q0 274 198 434
q199 160 479 160t480 -160q199 -160 198 -434q0 -174 -102 -328q-61 -90 -141 -139t-201 -84l-4 -57h323q68 1 94 27t42 98h30v-332z" />
    <glyph glyph-name="partialdiff" unicode="&#x2202;" horiz-adv-x="1011" 
d="M332 633q-102 -137 -102 -330t94 -256q41 -29 83 -29q41 0 97 24t104 90q80 109 117 322q13 68 25 158q-17 17 -43 48q-71 83 -183 83t-192 -110zM946 805q0 -123 -30 -278t-76 -258t-91 -161q-44 -58 -129 -104t-180 -47q-166 0 -276 118q-110 119 -111 287
q0 168 114 314t279 147q126 0 216 -61q33 -23 104 -78q40 220 3 407q-19 95 -48 161t-91 118q-62 51 -136 60q-20 2 -76 2t-94 -16t-68 -30q-29 -14 -43 -20l-80 102q307 130 526 -18q115 -78 189 -209q98 -174 98 -436z" />
    <glyph glyph-name="Delta" unicode="&#x2206;" horiz-adv-x="1253" 
d="M991 100l-397 959l-447 -959h844zM1245 0h-1233l656 1409z" />
    <glyph glyph-name="product" unicode="&#x220f;" horiz-adv-x="1685" 
d="M1645 -207h-627v47q102 0 149 34t47 132v1419h-733v-1419q0 -98 48 -132t151 -34v-47h-629v47q102 0 151 34q48 34 48 132v1282q0 203 -195 203v47h1583v-47q-193 0 -192 -203v-1282q0 -98 48 -132t151 -34v-47z" />
    <glyph glyph-name="summation" unicode="&#x2211;" horiz-adv-x="1460" 
d="M246 1526h1018l12 -326h-41q-31 100 -43 125q-59 109 -270 109h-539l559 -734l-602 -694h760q66 0 108 12q70 20 123 116q18 34 45 104h47q-63 -258 -88 -459q-141 23 -157 22h-1031q-18 0 -58 -3t-60 -3l714 815l-710 930q126 -14 213 -14z" />
    <glyph glyph-name="minus" unicode="&#x2212;" 
d="M74 436q-18 0 -19 17l11 59q2 20 24 20h821q17 0 17 -16l-10 -59q-2 -20 -23 -21h-821z" />
    <glyph glyph-name="radical" unicode="&#x221a;" horiz-adv-x="1124" 
d="M1055 1868l-307 -1946l-498 1028l-197 -96l-33 68l299 147l404 -825l260 1634z" />
    <glyph glyph-name="infinity" unicode="&#x221e;" horiz-adv-x="1460" 
d="M340 721q-76 0 -130 -57q-54 -56 -54 -132t59 -128t127 -52t102 18q35 18 46 23q11 3 33 21t29 23t31 25q25 20 27 25q2 4 27 28t27 26q-24 24 -47 41q-23 16 -49 36t-37 28t-35 22q-24 16 -39 22q-16 6 -45 18t-72 13zM1114 352q74 0 134 52t59 127t-55 133t-116 57
q-62 0 -109 -20q-48 -20 -70 -36q-23 -15 -51 -37t-37 -29t-38 -32t-32 -26q117 -115 179 -152t136 -37zM1411 545q0 -115 -82 -203t-194 -88q-184 0 -367 183q-23 24 -37 36q-14 -12 -37 -36q-175 -183 -366 -183q-113 0 -195 88t-82 203t87 199t204 83q72 0 152 -41
q80 -42 118 -74t119 -104q80 72 119 105t119 73t151 41q117 1 204 -83t87 -199z" />
    <glyph glyph-name="integral" unicode="&#x222b;" horiz-adv-x="561" 
d="M246 1157q0 389 53 567q18 60 60 106q41 46 97 46t98 -31t42 -77t-33 -72t-69 -25q-36 0 -63 25q-28 25 -44 24q-37 0 -37 -57q0 -4 20 -260t19 -391v-13l-2 -442q0 -187 -29 -415t-100 -310q-18 -20 -59 -36t-79 -15q-38 0 -77 38t-39 79q0 40 29 68t59 28t66 -34
q35 -34 47 -34q53 0 53 201v25l-12 610v395z" />
    <glyph glyph-name="approxequal" unicode="&#x2248;" horiz-adv-x="1124" 
d="M791 287q-35 0 -76 10l-307 88q-49 14 -104 14q-54 1 -94 -27t-93 -96l-88 56q121 162 295 162q47 0 104 -15l309 -86q25 -6 69 -6t104 31t94 80l75 -49q-45 -76 -123 -119t-165 -43zM791 596q-35 0 -76 10l-307 88q-130 36 -198 -13q-40 -28 -93 -95l-88 55
q121 162 295 162q47 0 104 -15l309 -86q25 -6 69 -6t104 31t94 80l75 -49q-45 -76 -123 -119t-165 -43z" />
    <glyph glyph-name="notequal" unicode="&#x2260;" horiz-adv-x="1124" 
d="M1106 279h-621l-184 -330l-100 57l151 273h-321v112h385l157 285h-542v112h606l186 336l101 -57l-156 -279h338v-112h-399l-160 -285h559v-112z" />
    <glyph glyph-name="lessequal" unicode="&#x2264;" horiz-adv-x="1124" 
d="M1077 0h-1018v113h1018v-113zM1077 240l-1018 471v127l1018 471v-127l-887 -408l887 -407v-127z" />
    <glyph glyph-name="greaterequal" unicode="&#x2265;" horiz-adv-x="1124" 
d="M1077 0h-1018v113h1018v-113zM1077 711l-1018 -471v127l887 407l-887 408v127l1018 -471v-127z" />
    <glyph glyph-name="lozenge" unicode="&#x25ca;" horiz-adv-x="1011" 
d="M831 772l-335 643l-336 -643l336 -661zM954 772l-397 -772h-123l-397 772l397 754h123z" />
    <glyph glyph-name="E.alt" unicode="&#xe001;" horiz-adv-x="980" 
d="M416 1171q-23 0 -25 -20l-65 -371q-8 -49 -9 -53q0 -14 17 -14h438q18 0 19 -17l-15 -80q-2 -20 -24 -20h-439q-20 0 -22 -21l-68 -380q-2 -13 -4 -27t-4 -24t-2 -13q0 -14 16 -14h535q16 0 16 -17l-12 -80q-2 -20 -25 -20h-671q-18 0 -18 11t16 89l204 1168q2 20 25 20
h672q16 0 16 -14l-12 -82q-2 -20 -25 -21h-534z" />
    <glyph glyph-name="zero.oldstyle" unicode="&#xf730;" 
d="M590 866h-64q-92 0 -166 -62t-90 -155l-59 -334q-16 -91 35 -155t143 -64h64q90 0 167 66t91 153l59 334q16 93 -37 155t-143 62zM432 -20h-63q-162 0 -243 93t-54 242l59 334q27 150 140 243q114 93 276 93h63q162 0 244 -93t55 -243l-59 -334q-28 -151 -142 -243
t-276 -92z" />
    <glyph glyph-name="one.oldstyle" unicode="&#xf731;" 
d="M750 0h-609q-18 0 -16 20l12 76q6 20 25 21h215q23 0 24 20l99 563q4 16 -6 22t-25 -7l-160 -135q-16 -14 -28 0l-41 57q-12 14 4 29l368 313q6 6 17 6h39q18 0 16 -20l-145 -828q-2 -20 16 -20h215q22 -1 16 -21l-12 -76q-2 -20 -24 -20z" />
    <glyph glyph-name="two.oldstyle" unicode="&#xf732;" 
d="M236 117h534q10 0 15 -4t3 -13l-16 -84q-2 -16 -22 -16h-676q-23 0 -19 16l21 117q24 143 141 222q90 61 275 126t220 100q35 36 48 95q14 82 -30 136t-148 54h-84q-119 0 -215 -112q-14 -14 -27 -9l-78 43q-18 14 -8 29q129 168 348 168h84q166 0 243 -85t52 -226
q-13 -82 -78 -159q-23 -27 -69 -53t-121 -56q-74 -30 -119 -41q-174 -66 -226 -106t-65 -105l-4 -23q-2 -8 3 -11t18 -3z" />
    <glyph glyph-name="three.oldstyle" unicode="&#xf733;" 
d="M344 -346h-63q-221 0 -283 168q-8 16 14 28l94 44q16 8 23 -9q57 -115 172 -114h64q91 -1 167 65t91 154l12 73q14 88 -38 153t-142 65h-144q-18 0 -16 20l12 76q6 20 25 20h143q92 0 166 65t92 156l6 31q18 89 -36 153t-144 64h-63q-119 0 -213 -112q-14 -16 -29 -9
l-78 46q-16 10 -2 28q119 166 342 166h64q164 0 244 -97t50 -259l-6 -33q-16 -90 -89 -161t-148 -91l-2 -8q61 -20 111 -95t36 -171l-10 -64q-26 -162 -142 -257t-280 -95z" />
    <glyph glyph-name="four.oldstyle" unicode="&#xf734;" 
d="M137 117h402q23 0 24 20l103 588q4 19 -8 23t-27 -11l-504 -587q-12 -14 -9 -24t19 -9zM848 0h-152q-23 0 -24 -20l-49 -285q-6 -20 -25 -21h-96q-23 0 -17 21l50 285q2 20 -17 20h-534q-18 0 -17 20l25 117l692 817q12 8 18 9h123q18 0 17 -21l-142 -805q-2 -20 17 -20
h151q23 -1 17 -21l-13 -76q-2 -20 -24 -20z" />
    <glyph glyph-name="five.oldstyle" unicode="&#xf735;" 
d="M897 846h-491q-23 0 -25 -21l-72 -407q-2 -20 17 -21h176q162 0 242 -93t55 -257l-6 -41q-25 -162 -142 -257t-280 -95h-64q-219 0 -284 166q-6 20 14 28l94 46q16 10 25 -9q57 -115 172 -114h63q90 -1 167 65t91 154l13 73q14 88 -38 153t-143 65h-313q-18 0 -16 20
l112 641q2 20 25 21h629q18 -1 16 -21l-12 -76q-6 -20 -25 -20z" />
    <glyph glyph-name="six.oldstyle" unicode="&#xf736;" 
d="M496 618q-90 0 -164 -63t-90 -154l-17 -86q-16 -87 36 -153t142 -66h62q88 0 165 65t93 154l16 86q16 88 -38 153t-144 64h-61zM659 1192h-61q-90 0 -165 -62t-91 -155l-61 -342q-2 -19 10 -23t24 11q113 115 224 114h61q143 0 224 -94t55 -240l-17 -86
q-28 -151 -142 -243t-276 -92h-61q-162 0 -242 93t-53 242l117 660q27 150 139 243q113 93 274 93h62q213 0 287 -166q6 -18 -17 -29l-94 -43q-16 -6 -22 8q-55 111 -175 111z" />
    <glyph glyph-name="seven.oldstyle" unicode="&#xf737;" 
d="M74 -326q-23 0 -17 21l52 295q28 154 116 241t193 150q106 63 138 85t91 69q107 85 127 208l14 82q2 20 -16 21h-534q-23 0 -17 20l12 76q2 20 25 21h674q18 -1 16 -21l-35 -199q-32 -182 -158 -297q-67 -59 -108 -87t-145 -90q-104 -61 -172 -125t-82 -154l-51 -295
q-6 -20 -25 -21h-98z" />
    <glyph glyph-name="eight.oldstyle" unicode="&#xf738;" 
d="M541 596h-64q-92 0 -165 -62t-89 -155l-12 -64q-16 -91 35 -155t143 -64h64q89 0 165 65t93 154l12 64q16 89 -38 153t-144 64zM584 1192q-92 0 -165 -62t-91 -155l-9 -41q-18 -92 34 -157t145 -64h63q92 1 166 65t92 156l8 41q18 90 -35 153q-54 63 -145 64h-63z
M432 -20h-63q-162 0 -240 94t-53 258l8 53q14 92 85 162t163 100l2 10q-68 18 -122 87t-36 167l8 43q31 164 145 260t275 97h64q164 1 245 -97t50 -260l-9 -43q-16 -91 -89 -161t-148 -91l-2 -8q61 -20 111 -95t36 -171l-8 -53q-26 -162 -142 -257t-280 -95z" />
    <glyph glyph-name="nine.oldstyle" unicode="&#xf739;" 
d="M573 866h-61q-90 0 -165 -62t-91 -155l-29 -160q-16 -91 37 -155t142 -64h61q90 0 167 66t91 153l29 160q16 93 -37 155t-144 62zM358 -346h-61q-221 0 -283 168q-8 16 15 28l94 44q18 8 24 -9q51 -115 170 -114h62q90 -1 167 65t91 154l47 270q2 18 -9 22t-26 -10
q-111 -119 -223 -118h-61q-143 0 -223 95q-79 95 -52 240l29 160q27 150 139 243q113 93 274 93h62q162 0 244 -93t55 -243l-117 -659q-28 -150 -142 -243t-276 -93z" />
    <glyph glyph-name="apple" unicode="&#xf8ff;" horiz-adv-x="1617" 
d="M1096 -4q-52 0 -132 33q-81 33 -126 33t-125 -34t-125 -34q-207 0 -389 393q-84 182 -84 389q0 43 6 84q76 410 446 410q51 0 79 -7t88 -33t104 -26t103 26q60 26 88 33t81 7q166 0 270 -82q23 -16 78 -78q-53 -39 -82 -67t-55 -72q-53 -90 -53 -212t90 -220
q10 -13 17 -21t19 -17t16 -13q6 -4 20 -13q14 -7 26 -15t45 -24q-2 -2 -17 -37q-14 -35 -18 -40t-19 -37t-21 -39q-6 -8 -19 -35q-15 -27 -23 -38t-22 -34t-38 -51t-54 -53q-29 -25 -33 -29t-15 -13q-10 -10 -18 -12t-32 -12t-76 -10zM1159 1593q0 -131 -74 -204
q-57 -61 -139 -109q-20 -12 -115 -18q-2 12 -2 40t26 96t58 109q96 123 246 148v-62z" />
    </font>
</defs>
</svg>
