<?xml version="1.0" standalone="no"?>
<!DOCTYPE svg PUBLIC "-//W3C//DTD SVG 1.1//EN" "http://www.w3.org/Graphics/SVG/1.1/DTD/svg11.dtd" >
<svg xmlns="http://www.w3.org/2000/svg">
<metadata>
Created by FontPrep 20130207 at Thu Nov 14 22:27:45 2013
 By Fabien Postif
</metadata>
<defs>
<font id="5ca41e3d31d3674b03dba8a2855abe29" horiz-adv-x='1024' >
  <font-face 
    font-family="ConduitITC"
    font-weight="400"
    font-stretch="normal"
    units-per-em="2048"
    panose-1="2 0 6 6 4 0 0 2 0 4"
    ascent="1638"
    descent="-410"
    x-height="920"
    cap-height="1290"
    bbox="-121 -481.009 1913 1792"
    underline-thickness="122"
    underline-position="-168"
    unicode-range="U+0005-E000"
  />
<missing-glyph horiz-adv-x="366" 
 />
    <glyph glyph-name=".notdef" horiz-adv-x="366" 
 />
    <glyph glyph-name=".null" horiz-adv-x="0" 
 />
    <glyph glyph-name="nonmarkingreturn" horiz-adv-x="681" 
 />
    <glyph glyph-name="breve" horiz-adv-x="1024" 
d="M743 1208q0 -78 -49 -126t-135 -48h-92q-86 0 -135 48t-49 126v103q0 20 20 20h51q20 0 21 -20v-62q0 -37 27.5 -64.5t64.5 -27.5h92q37 0 64.5 27.5t27.5 64.5v62q0 20 21 20h51q20 0 20 -20v-103z" />
    <glyph glyph-name="dotaccent" horiz-adv-x="1024" 
d="M639 1147q0 -49 -33 -81t-90 -32t-90 31t-33 82v61q0 51 33 82t90 31t90 -32t33 -81v-61z" />
    <glyph glyph-name="ring" horiz-adv-x="1024" 
d="M592 1268q0 31 -22.5 54.5t-55.5 23.5t-55.5 -23t-22.5 -55v-58q0 -31 22.5 -54t55.5 -23t55.5 23.5t22.5 53.5v58zM698 1210q0 -78 -49 -127t-134 -49t-135 49.5t-50 126.5v58q0 78 50 127t135 49t134 -49t49 -127v-58z" />
    <glyph glyph-name="hungarumlaut" unicode="&#xa;" horiz-adv-x="1024" 
d="M369 1034q-21 0 -21 12t2 15l86 256l19 14h102q23 0 23 -16l-5 -15l-145 -256l-18 -10h-43zM596 1034q-20 0 -20 12t2 15l86 256q8 14 18 14h102q23 0 23 -16q0 -3 -4 -15l-146 -256l-18 -10h-43z" />
    <glyph glyph-name="ogonek" horiz-adv-x="1024" 
d="M719 -438q0 -20 -23 -21q-95 0 -174.5 81.5t-79.5 193.5v198h140v-213q0 -60 30 -84.5t90 -52.5q16 -6 17 -20v-82z" />
    <glyph glyph-name="caron" horiz-adv-x="1024" 
d="M295 1329h98l17 -10l88 -139q18 -27 30 0l90 139l17 10h98q23 0 23 -16q0 -9 -6 -17l-183 -256l-16 -8h-74l-16 8l-182 256q-7 8 -7 20t23 13z" />
    <glyph glyph-name="dotlessi" unicode="&#xd;" horiz-adv-x="450" 
d="M317 20q0 -20 -20 -20h-143q-20 0 -21 20v881q0 20 21 21h143q20 0 20 -21v-881z" />
    <glyph glyph-name="fraction" horiz-adv-x="636" 
d="M90 0h-45q-39 0 -39 35q0 8 4 20l500 1211q8 25 37 24h45q39 0 39 -35q0 -8 -4 -20l-500 -1210q-10 -25 -37 -25z" />
    <glyph glyph-name="fi" horiz-adv-x="1013" 
d="M532 686q0 -20 -20 -20h-143q-20 0 -21 -21v-625q0 -20 -20 -20h-144q-20 0 -20 20v625q0 20 -21 21h-51q-20 0 -20 20v123q0 20 20 20h51q20 0 21 21v92q0 136 99 252q99 117 237 117q33 0 32 -23v-123q0 -12 -26 -24q-88 -40 -123 -71.5t-35 -106.5v-113q0 -20 21 -21
h143q20 0 20 -20v-123zM881 20q0 -20 -21 -20h-143q-20 0 -21 20v881q0 20 21 21h143q20 0 21 -21v-881zM901 1198q0 -47 -32.5 -80t-80 -33t-80 32t-32.5 80t32.5 81t80 33t80 -33t32.5 -80z" />
    <glyph glyph-name="fl" horiz-adv-x="1019" 
d="M887 20q0 -20 -21 -20h-143q-20 0 -21 20v1086q0 20 -20 20h-150q-78 0 -131 -53t-53 -131v-92q0 -20 21 -21h143q20 0 20 -20v-123q0 -20 -20 -20h-143q-20 0 -21 -21v-625q0 -20 -20 -20h-144q-20 0 -20 20v625q0 20 -21 21h-51q-20 0 -20 20v123q0 20 20 20h51
q20 0 21 21v72q0 156 106.5 262t261.5 106h334q20 0 21 -20v-1250z" />
    <glyph glyph-name="Lslash" horiz-adv-x="931" 
d="M891 20q0 -20 -21 -20h-696q-20 0 -20 20v429q0 23 -17 22q-10 0 -18 -8l-31 -33q-8 -8 -12 -8t-17 8l-61 57q-8 5 -8 13t8 16l149 148l7 14v592q0 20 20 20h143q20 0 21 -20v-367q0 -23 16 -22q10 0 19 8l37 35q8 8 14 8t14 -8l56 -58q8 -12 8 -16t-8 -12l-150 -150
l-6 -14v-490q0 -20 20 -20h512q20 0 21 -21v-123z" />
    <glyph glyph-name="lslash" horiz-adv-x="450" 
d="M317 20q0 -20 -20 -20h-143q-20 0 -21 20v429q0 23 -18 22q-8 0 -17 -8l-30 -33q-8 -8 -12 -8t-17 8l-62 57q-8 8 -8 14.5t8 14.5l150 148l6 14v592q0 20 21 20h143q20 0 20 -20v-367q0 -23 17 -22q10 0 18 8l37 35q8 8 14.5 8t14.5 -8l55 -58q8 -12 8 -16t-8 -12
l-149 -150l-7 -14v-654z" />
    <glyph glyph-name="Zcaron" horiz-adv-x="901" 
d="M819 20q0 -20 -20 -20h-729q-23 0 -23 16q0 4 4 13l479 1069q4 8 5 12q0 16 -23 16h-410q-20 0 -20 21v123q0 20 20 20h686q23 0 23 -16q0 -4 -4 -12l-481 -1069q-4 -8 -4 -13q0 -16 22 -16h455q20 0 20 -21v-123zM215 1681q0 16 23 17h98l16 -10l88 -140q8 -12 16 -12
t15 12l90 140l17 10h98q23 0 22 -17q0 -8 -6 -16l-182 -256l-16 -8h-74l-17 8l-182 256q-6 8 -6 16z" />
    <glyph glyph-name="zcaron" horiz-adv-x="880" 
d="M807 20q0 -20 -21 -20h-714q-23 0 -23 16q0 6 4 15l416 694q4 8 4 14q0 16 -22 17h-359q-20 0 -20 20v123q0 20 20 21h678q23 0 23 -17q0 -6 -5 -14l-417 -694q-4 -3 -4 -17t22 -14h397q20 0 21 -21v-123zM201 1313q0 16 22 16h99l16 -10l88 -139q17 -26 31 0l90 139
l16 10h99q23 0 22 -16q0 -9 -6 -17l-182 -256l-17 -8h-73l-17 8l-182 256q-6 8 -6 17z" />
    <glyph glyph-name="space" unicode=" " horiz-adv-x="366" 
 />
    <glyph glyph-name="exclam" unicode="!" horiz-adv-x="552" 
d="M420 92q0 -47 -32 -79.5t-81 -32.5t-80.5 31.5t-31.5 80.5t32.5 81t79.5 32t80 -33t33 -80zM336 369h-55q-18 0 -21 18l-45 354v529q0 20 21 20h143q20 0 20 -20v-529l-43 -354q-4 -18 -20 -18z" />
    <glyph glyph-name="quotedbl" unicode="&#x22;" horiz-adv-x="634" 
d="M203 922h-56q-18 0 -20 18l-43 328v4q0 18 20 18h140q20 0 20 -18v-4l-41 -328q-4 -18 -20 -18zM489 922h-55q-18 0 -20 18l-43 328v4q0 18 20 18h139q20 0 21 -18v-4l-41 -328q-4 -18 -21 -18z" />
    <glyph glyph-name="numbersign" unicode="#" horiz-adv-x="1148" 
d="M485 758q-18 0 -20 -13l-53 -186l-2 -8q0 -18 22 -19h232q14 0 20 17l51 184l2 6q0 18 -22 19h-230zM1014 758h-140q-18 0 -20 -13l-53 -186l-2 -8q0 -18 22 -19h144q16 0 16 -12l-35 -131q-6 -20 -26 -20h-156q-18 0 -21 -13l-98 -342q-2 -14 -20 -14h-68q-26 0 -20 27
l88 317l2 6q0 18 -23 19h-231q-18 0 -21 -13l-96 -342q-2 -14 -20 -14h-68q-23 0 -23 18l93 326l2 6q0 18 -23 19h-127q-16 0 -16 12l35 131q6 20 26 20h139q14 0 21 17l53 184l2 6q0 18 -22 19h-144q-16 0 -16 12l35 131q6 20 26 21h158q14 0 21 16l96 338q6 14 20 14h68
q26 0 20 -26l-88 -316l-2 -8q0 -18 23 -18h229q14 0 21 16l98 338q2 14 20 14h68q23 0 23 -18l-91 -324l-2 -8q0 -18 23 -18h125q16 0 16 -13l-35 -131q-6 -20 -26 -20z" />
    <glyph glyph-name="dollar" unicode="$" 
d="M575 168q0 -20 23 -20q49 -1 95 53.5t46 110.5q0 86 -55.5 145t-93.5 59q-14 0 -15 -22v-326zM483 825v289q0 20 -14 21q-49 0 -90 -52t-41 -102q0 -49 22.5 -93t72.5 -72.5t50 9.5zM575 760q0 -20 37 -31.5t97 -46.5q215 -122 215 -344q0 -221 -195 -322
q-35 -18 -82 -25t-59.5 -11.5t-12.5 -18.5v-63q0 -20 -20 -21h-51q-20 0 -21 21v61q0 18 -14 21q-152 4 -217 55q-123 96 -123 155q0 8 12 15l129 65q4 2 12 2t32 -30t55.5 -64.5t85.5 -34.5q16 0 22 3.5t6 17.5v397q-4 20 -166.5 83.5t-162.5 318.5q0 215 180 309
q37 18 81 25.5t56 12.5t12 17v66q0 20 21 20h51q20 0 20 -20v-64q0 -18 12.5 -20.5l62.5 -12.5q103 -22 174 -82t71 -110q0 -12 -10 -17l-129 -65q-8 -4 -16 -4t-21 19.5t-35 49.5q-41 54 -90 54q-18 0 -19 -21v-360z" />
    <glyph glyph-name="percent" unicode="%" 
d="M825 174v205q0 31 -20.5 51.5t-52.5 20.5t-51 -20.5t-19 -51.5v-205q0 -31 19.5 -51.5t51.5 -20.5t52 20.5t20 51.5zM365 911v205q0 31 -20.5 51.5t-51.5 20.5t-51.5 -20.5t-20.5 -51.5v-205q0 -31 19.5 -51t51.5 -20t52.5 20t20.5 51zM938 174q0 -78 -49 -126t-135 -48
t-135.5 48t-49.5 126v205q0 78 49.5 126t135.5 48t135 -48t49 -126v-205zM231 0q-23 0 -22 14q0 2 4 15l535 1249q6 12 18 12h49q23 0 23 -16q0 -4 -4 -12l-535 -1250q-4 -10 -18 -12h-50zM477 911q0 -78 -49 -126t-135 -48t-135 48.5t-49 125.5v205q0 78 49 126t135 48
t135 -48t49 -126v-205z" />
    <glyph glyph-name="ampersand" unicode="&#x26;" horiz-adv-x="1269" 
d="M307 328q0 -78 53.5 -131.5t131.5 -53.5h61q108 0 182 123l-2 19q-136 179 -307 270l-20 2q-98 -68 -99 -168v-61zM676 922v41q0 76 -53.5 130t-131 54t-131 -53.5t-53.5 -122.5t45 -126t137 -116q92 23 139.5 73t47.5 120zM1229 2q0 -20 -23 -20q-90 0 -148.5 31
t-102.5 61t-59.5 42.5t-23.5 12.5t-25.5 -21.5t-55.5 -56.5q-82 -72 -238 -71h-61q-172 0 -270.5 98t-98.5 266v51q0 80 63 176q25 39 50.5 57.5t25.5 29t-12 22.5t-41 46t-57.5 81t-28.5 131q0 174 97.5 273.5t269.5 99.5t271 -99.5t99 -269.5v-41q0 -87 -76 -184
q-23 -29 -56.5 -48.5t-43.5 -26.5t-10 -17.5t12 -20.5t43 -38t51.5 -51t31.5 -23t28.5 37t58.5 93q85 114 272 115h37q20 0 21 -20v-144q0 -20 -21 -20h-53q-76 0 -130 -54.5t-54 -129.5v-41l6 -15q61 -70 122.5 -97.5t112.5 -49.5q16 -6 17 -21v-143z" />
    <glyph glyph-name="quotesingle" unicode="'" horiz-adv-x="348" 
d="M203 922h-56q-18 0 -20 18l-43 328v4q0 18 20 18h140q20 0 20 -18v-4l-41 -328q-4 -18 -20 -18z" />
    <glyph glyph-name="parenleft" unicode="(" horiz-adv-x="737" 
d="M553 -346q0 -14 -9 -17.5t-52 -3.5t-102.5 26t-132.5 104t-73 237v1126q0 160 97 263.5t231 103.5q23 0 32 -3t9 -17v-123q-1 -13 -27 -25q-90 -41 -123.5 -71.5t-33.5 -106.5v-1167q0 -109 86 -146.5t92 -42t6 -14.5v-123z" />
    <glyph glyph-name="parenright" unicode=")" horiz-adv-x="737" 
d="M553 0q0 -162 -98.5 -264.5t-231.5 -102.5q-23 0 -31 3.5t-8 17.5v123q0 10 4.5 13t62.5 29t73 44q45 57 45 117v1167q0 106 -65.5 136t-87.5 40t-27 13t-5 14v123q0 14 9 17t51 3t103 -25.5t133.5 -103t72.5 -238.5v-1126z" />
    <glyph glyph-name="asterisk" unicode="*" horiz-adv-x="794" 
d="M663.5 836q-10.5 0 -14.5 4l-170 116q-10 6 -16 7q-16 0 -17 -21v-4l25 -205v-4q0 -18 -20 -18h-107q-20 0 -20 18v4l24 205v4q0 20 -12 20t-21 -6l-163 -116q-10 -6 -18 -6t-13 12l-53 92q-4 8 -5 12q0 10 15 17l188 80q14 6 14.5 18t-14.5 18l-188 84q-22 10 -10 29
l53 90q6 12 13 12t18 -6l161 -121q8 -6 17 -6q16 0 16 21v4l-22 203v4q0 18 20 18h107q20 0 20 -18v-4l-22 -203v-4q0 -20 16 -21q6 0 16 6l168 121q9 6 17 6t14 -12l53 -90q4 -8 4 -15t-14 -14l-193 -84q-16 -6 -16 -18t16 -18l193 -82q14 -6 14 -17q0 -4 -4 -12l-53 -90
q-6 -10 -16.5 -10z" />
    <glyph glyph-name="plus" unicode="+" 
d="M952 451q0 -20 -20 -21h-328q-20 0 -20 -20v-328q0 -20 -21 -21h-82q-20 0 -20 21v328q0 20 -21 20h-327q-20 0 -21 21v81q0 20 21 21h327q20 0 21 20v328q0 20 20 21h82q20 0 21 -21v-328q0 -20 20 -20h328q20 0 20 -21v-81z" />
    <glyph glyph-name="comma" unicode="," horiz-adv-x="450" 
d="M180 0q0 33 -20 33h-27q-20 0 -20 20v148q0 20 20 20h184q20 0 21 -20v-127q0 -164 -78 -250q-41 -47 -74.5 -68.5t-45.5 -21.5t-17 14l-29 59l-2 7q0 10 44 52.5t44 133.5z" />
    <glyph glyph-name="hyphen" unicode="-" horiz-adv-x="552" 
d="M461 389q0 -20 -21 -20h-327q-20 0 -21 20v143q0 20 21 21h327q20 0 21 -21v-143z" />
    <glyph glyph-name="period" unicode="." horiz-adv-x="450" 
d="M338 92q0 -47 -32 -79.5t-81 -32.5t-80.5 31.5t-31.5 79.5t32.5 81t79.5 33t80 -33t33 -80z" />
    <glyph glyph-name="slash" unicode="/" horiz-adv-x="665" 
d="M109 0h-68q-33 0 -33 27q0 4 4 16l518 1229q6 18 27 18h68q33 0 32 -26q0 -4 -4 -17l-518 -1229q-6 -18 -26 -18z" />
    <glyph glyph-name="zero" unicode="0" 
d="M737 328v635q0 78 -53 131t-131 53h-61q-78 0 -131.5 -53.5t-53.5 -130.5v-635q0 -78 53.5 -131.5t131.5 -53.5h61q78 0 131 53.5t53 131.5zM922 328q0 -155 -100.5 -251.5t-268.5 -96.5h-61q-169 0 -269 96t-100 252v635q0 155 100 251.5t269 96.5h61q168 0 268.5 -97
t100.5 -251v-635z" />
    <glyph glyph-name="one" unicode="1" 
d="M897 20q0 -20 -20 -20h-635q-20 0 -21 20v123q0 20 21 21h204q20 0 21 20v740q0 23 -18 22q-8 0 -17 -8l-98 -100q-15 -15 -29 0l-90 88q-8 8 -8 14t8 14l330 330l14 6h72q20 0 20 -20v-1086q0 -20 21 -20h205q20 0 20 -21v-123z" />
    <glyph glyph-name="two" unicode="2" 
d="M539 1311q166 0 267 -97.5t101 -250.5q0 -186 -147 -310q-53 -45 -115.5 -81.5t-141.5 -85.5q-165 -102 -165 -248v-54q0 -20 20 -20h512q20 0 21 -21v-123q0 -20 -21 -20h-696q-20 0 -20 20v218q0 152 75.5 252t229.5 196q57 37 106 66.5t103.5 78t54.5 129.5t-55 134
t-129 53h-78q-61 0 -91 -24.5t-58 -63.5t-40 -39q-6 0 -10 2l-129 65q-12 6 -12 24t69.5 109t270.5 91h78z" />
    <glyph glyph-name="three" unicode="3" 
d="M891 344q0 -168 -98.5 -266t-270.5 -98h-61q-149 0 -215 53q-125 99 -125 157q0 8 12 15l129 65q8 4 14 4t19 -20q37 -52 70 -81.5t96 -29.5h61q76 0 130.5 53.5t54.5 131.5v71q0 78 -54.5 131.5t-130.5 53.5h-164q-20 0 -20 20v123q0 20 20 21h164q76 0 130.5 53
t54.5 131v31q0 78 -54.5 131t-130.5 53h-61q-61 0 -91 -24.5t-58 -63.5t-40 -39q-6 0 -10 2l-129 65q-12 6 -12 24t69.5 109t270.5 91h61q170 0 269.5 -99.5t99.5 -269.5v-31q0 -78 -64 -166q-27 -35 -51 -53t-24 -28.5t24.5 -30t50.5 -58.5q63 -94 64 -169v-62z" />
    <glyph glyph-name="four" unicode="4" 
d="M614 481v465q0 23 -16 23t-20 -11l-310 -464q-6 -10 -6 -17q0 -16 23 -16h309q20 0 20 20zM983 317q0 -20 -20 -20h-144q-20 0 -20 -21v-256q0 -20 -21 -20h-143q-20 0 -21 20v256q0 20 -20 21h-512q-18 0 -19 16v4l3 144l542 821l17 8h153q20 0 21 -20v-789
q0 -20 20 -20h144q20 0 20 -21v-123z" />
    <glyph glyph-name="five" unicode="5" 
d="M924 344q0 -168 -98.5 -266t-270.5 -98h-61q-148 0 -215 53q-125 98 -125 157q0 8 12 15l129 65q8 4 13 4q6 0 20 -20q42 -56 72.5 -83.5t93.5 -27.5h61q76 0 130 53.5t54 131.5v71q0 78 -54 131.5t-130 53.5h-328q-20 0 -20 20v666q0 20 20 20h656q20 0 20 -20v-123
q0 -20 -20 -21h-471q-20 0 -21 -20v-338q0 -20 21 -20h143q172 0 270.5 -98.5t98.5 -266.5v-39z" />
    <glyph glyph-name="six" unicode="6" 
d="M737 328v82q0 78 -53 131t-131 53h-61q-78 0 -131.5 -53.5t-53.5 -130.5v-82q0 -78 53.5 -131.5t131.5 -53.5h61q184 36 184 185zM922 328q0 -155 -100.5 -251.5t-268.5 -96.5h-61q-169 0 -269 96t-100 252v635q0 155 100 251.5t269 96.5h61q144 0 243 -72.5t99 -136.5
q0 -8 -12 -15l-129 -65q-8 -4 -14 -4t-19 20q-39 56 -72 82.5t-96 26.5h-61q-78 0 -131.5 -53.5t-53.5 -130.5v-250q0 -23 17 -23q6 0 54.5 34t133.5 34h61q153 0 251 -99.5t98 -248.5v-82z" />
    <glyph glyph-name="seven" unicode="7" 
d="M911 1053q0 -226 -116.5 -321t-176.5 -136q-130 -90 -174.5 -140.5t-44.5 -127.5v-308q0 -20 -20 -20h-143q-20 0 -21 20v308q0 195 99.5 279.5t159.5 126.5t156.5 110.5t96.5 208.5v53q0 20 -20 20h-512q-20 0 -21 21v123q0 20 21 20h696q20 0 20 -20v-217z" />
    <glyph glyph-name="eight" unicode="8" 
d="M737 328v61q0 76 -53 130t-131 54h-61q-78 0 -131.5 -54t-53.5 -130v-61q0 -78 53.5 -131.5t131.5 -53.5h61q78 0 131 53.5t53 131.5zM737 922v41q0 78 -53 131t-131 53h-61q-78 0 -131.5 -53.5t-53.5 -130.5v-41q0 -78 53.5 -131.5t131.5 -53.5h61q78 0 131 53.5
t53 131.5zM922 344q0 -168 -98.5 -266t-270.5 -98h-61q-172 0 -270.5 98t-98.5 266v51q0 80 61 170q27 41 52.5 59.5t25.5 29.5t-25.5 28.5t-50.5 52.5q-63 88 -63 166v41q0 170 99.5 269.5t269.5 99.5h61q170 0 269.5 -99.5t99.5 -269.5v-41q0 -78 -64 -166
q-25 -35 -50.5 -52t-25.5 -29t24.5 -30t51.5 -59q63 -94 64 -170v-51z" />
    <glyph glyph-name="nine" unicode="9" 
d="M737 809v154q0 78 -53 131t-131 53h-61q-78 0 -131.5 -53.5t-53.5 -130.5v-154q0 -76 53.5 -130t131.5 -54h61q78 0 131 54t53 130zM922 328q0 -155 -100.5 -251.5t-268.5 -96.5h-61q-148 0 -215 53q-125 98 -125 157q0 8 12 15l129 65q8 4 13 4t7.5 -4t14.5 -20
t45.5 -61.5t118.5 -45.5h61q78 0 131 53.5t53 131.5v178q0 22 -13 22t-68.5 -33.5t-123.5 -33.5h-61q-152 0 -250 98t-98 250v154q0 155 100 251.5t269 96.5h61q168 0 268.5 -97t100.5 -251v-635z" />
    <glyph glyph-name="colon" unicode=":" horiz-adv-x="450" 
d="M338 92q0 -47 -32 -79.5t-81 -32.5t-80.5 31.5t-31.5 79.5t32.5 81t79.5 33t80 -33t33 -80zM338 645q0 -47 -33 -80t-80 -33t-79.5 33t-32.5 81t32.5 80t79.5 32t80 -33t33 -80z" />
    <glyph glyph-name="semicolon" unicode=";" horiz-adv-x="450" 
d="M180 0q0 33 -20 33h-27q-20 0 -20 20v148q0 20 20 20h184q20 0 21 -20v-127q0 -164 -78 -250q-41 -47 -74.5 -68.5t-45.5 -21.5t-17 14l-29 59l-2 7q0 10 44 52.5t44 133.5zM338 645q0 -47 -33 -80t-80 -33t-79.5 33t-32.5 81t32.5 80t79.5 32t80 -33t33 -80z" />
    <glyph glyph-name="less" unicode="&#x3c;" 
d="M796 47q-7 0 -16 4l-635 367l-10 18v117l10 18l635 369q8 4 16 4t13 -12l41 -70q4 -8 4 -15t-12 -13l-551 -320q-27 -19 0 -37l553 -319q12 -6 12 -14t-4 -15l-43 -70q-6 -12 -13 -12z" />
    <glyph glyph-name="equal" unicode="=" 
d="M952 266q0 -20 -20 -20h-819q-20 0 -21 20v82q0 20 21 21h819q20 0 20 -21v-82zM952 635q0 -20 -20 -21h-819q-20 0 -21 21v82q0 20 21 20h819q20 0 20 -20v-82z" />
    <glyph glyph-name="greater" unicode="&#x3e;" 
d="M251 47q-7 0 -13 12l-43 70q-10 19 8 29l551 319q14 10 14 18.5t-14 18.5l-551 320q-19 10 -8 28l43 70q6 12 13 12t15 -4l633 -369l10 -18v-117l-10 -18l-633 -367q-8 -4 -15 -4z" />
    <glyph glyph-name="question" unicode="?" 
d="M573 92q0 -47 -31.5 -79.5t-80.5 -32.5t-81 31.5t-32 80.5t33 81t80 32t79.5 -33t32.5 -80zM362 369q-20 0 -24 25.5t-4 101.5q0 156 172 241q51 27 137 72t86 154q0 78 -55 131t-129 53h-78q-61 0 -91 -24.5t-58 -63.5t-37 -39q-8 0 -13 2l-129 65q-12 6 -12 25
t24.5 54.5t99 90t216.5 54.5h78q166 0 267 -97.5t101 -250.5q0 -113 -44 -185.5t-153 -126.5t-153.5 -89t-44.5 -107l6 -64q0 -23 -20 -22h-142z" />
    <glyph glyph-name="at" unicode="@" horiz-adv-x="1474" 
d="M872 717q0 55 -38 95t-96 40t-97 -41t-39 -94v-133q0 -59 38 -98.5t95.5 -39.5t97 41t39.5 97v133zM1094 317h-27q-96 0 -162 72q-94 -72 -190 -72t-169 70.5t-73 179.5v166q0 109 73 178.5t161 69.5t165 -47v6q0 41 41 41h48q39 0 38 -41l-2 -424q0 -29 20.5 -49.5
t51.5 -20.5h25q27 0 47 20.5t20 49.5v418q0 102 -66.5 164.5t-179.5 62.5h-356q-113 0 -179.5 -62.5t-66.5 -164.5v-578q0 -104 66.5 -165.5t179.5 -61.5h514q39 0 39 -39v-51q0 -39 -39 -39h-514q-170 0 -272.5 98.5t-102.5 257.5v578q0 159 102.5 257.5t272.5 98.5h356
q171 0 273 -98t102 -258v-428q0 -84 -53 -136.5t-143 -52.5z" />
    <glyph glyph-name="A" unicode="A" horiz-adv-x="921" 
d="M352 461h215q23 0 23 18l-101 393q-11 43 -24 91h-8l-127 -484q0 -18 22 -18zM897 0h-154q-18 0 -20 14l-76 271q-2 12 -20 12h-332q-18 0 -21 -12l-75 -271q-2 -14 -21 -14h-153q-23 0 -23 18l383 1258q2 14 21 14h110q14 0 21 -14l381 -1249l2 -9q0 -18 -23 -18z" />
    <glyph glyph-name="B" unicode="B" horiz-adv-x="1064" 
d="M768 348v41q0 76 -53 130t-131 54h-226q-20 0 -20 -20v-369q0 -20 20 -20h226q78 0 131 54t53 130zM768 922v20q0 78 -53 131t-131 53h-226q-20 0 -20 -20v-348q0 -20 20 -21h226q78 0 131 53.5t53 131.5zM952 365q0 -170 -98 -267.5t-270 -97.5h-410q-20 0 -20 20v1250
q0 20 20 20h410q170 0 269 -99t99 -269v-21q0 -78 -63 -166q-27 -37 -51.5 -54t-24.5 -27.5t24.5 -29t51.5 -59.5q63 -94 63 -170v-30z" />
    <glyph glyph-name="C" unicode="C" horiz-adv-x="952" 
d="M895 190q0 -10 -19.5 -45.5t-66.5 -78.5q-92 -86 -256 -86h-61q-169 0 -269 96t-100 252v635q0 155 100 251.5t269 96.5h61q139 0 239.5 -69.5t100.5 -137.5q0 -10 -12 -17l-131 -65q-4 -2 -12 -2t-28 30q-22 30 -57 63.5t-100 33.5h-61q-78 0 -131.5 -53.5t-53.5 -130.5
v-635q0 -78 53.5 -131.5t131.5 -53.5h61q71 0 108 42q38 42 54 65.5t23 23.5t16 -4l129 -65q12 -5 12 -15z" />
    <glyph glyph-name="D" unicode="D" horiz-adv-x="1075" 
d="M768 348v594q0 78 -53 131t-131 53h-226q-20 0 -20 -20v-922q0 -20 20 -20h226q78 0 131 54t53 130zM952 369q0 -172 -98 -270.5t-270 -98.5h-410q-20 0 -20 20v1250q0 20 20 20h410q170 0 269 -99t99 -269v-553z" />
    <glyph glyph-name="E" unicode="E" horiz-adv-x="983" 
d="M891 20q0 -20 -21 -20h-696q-20 0 -20 20v1250q0 20 20 20h696q20 0 21 -20v-123q0 -20 -21 -21h-512q-20 0 -20 -20v-348q0 -20 20 -21h420q20 0 21 -20v-123q0 -20 -21 -21h-420q-20 0 -20 -20v-369q0 -20 20 -20h512q20 0 21 -21v-123z" />
    <glyph glyph-name="F" unicode="F" horiz-adv-x="931" 
d="M891 1147q0 -20 -21 -21h-512q-20 0 -20 -20v-348q0 -20 20 -21h420q20 0 21 -20v-123q0 -20 -21 -21h-420q-20 0 -20 -20v-533q0 -20 -21 -20h-143q-20 0 -20 20v1250q0 20 20 20h696q20 0 21 -20v-123z" />
    <glyph glyph-name="G" unicode="G" 
d="M590 1311q139 0 239.5 -69.5t100.5 -137.5q0 -10 -12 -17l-132 -65q-4 -2 -11 -2t-29 30t-56.5 63.5t-99.5 33.5h-98q-78 0 -131.5 -53.5t-53.5 -130.5v-635q0 -78 53.5 -131.5t131.5 -53.5h61q78 0 131 53.5t53 131.5v133q0 20 -20 20h-205q-20 0 -20 21v123q0 20 20 20
h389q20 0 21 -20v-297q0 -155 -100.5 -251.5t-268.5 -96.5h-61q-169 0 -269 96t-100 252v635q0 155 100 251.5t269 96.5h98z" />
    <glyph glyph-name="H" unicode="H" horiz-adv-x="1136" 
d="M983 20q0 -20 -20 -20h-144q-20 0 -20 20v533q0 20 -21 20h-420q-20 0 -20 -20v-533q0 -20 -21 -20h-143q-20 0 -20 20v1250q0 20 20 20h143q20 0 21 -20v-512q0 -20 20 -21h420q20 0 21 21v512q0 20 20 20h144q20 0 20 -20v-1250z" />
    <glyph glyph-name="I" unicode="I" horiz-adv-x="491" 
d="M338 20q0 -20 -21 -20h-143q-20 0 -20 20v1250q0 20 20 20h143q20 0 21 -20v-1250z" />
    <glyph glyph-name="J" unicode="J" horiz-adv-x="860" 
d="M737 348q0 -145 -104 -257t-254 -111q-99 0 -189 50t-126.5 94t-36.5 69q0 6 14 14l129 63q4 2 10 2t17 -12q44 -61 77.5 -89t102.5 -28q70 0 123 54.5t53 130.5v942q0 20 20 20h144q20 0 20 -20v-922z" />
    <glyph glyph-name="K" unicode="K" horiz-adv-x="1075" 
d="M1065 16q0 -16 -21 -16h-182l-16 10l-369 596q-59 -70 -139 -176v-410q0 -20 -21 -20h-143q-20 0 -20 20v1250q0 20 20 20h143q20 0 21 -20v-539q0 -25 18 -24q8 0 19 12l430 563l16 8h170q23 0 23 -16q0 -8 -6 -17l-394 -483q-4 -4 -4 -11t2 -11l449 -721q4 -6 4 -15z
" />
    <glyph glyph-name="L" unicode="L" horiz-adv-x="931" 
d="M891 20q0 -20 -21 -20h-696q-20 0 -20 20v1250q0 20 20 20h143q20 0 21 -20v-1086q0 -20 20 -20h512q20 0 21 -21v-123z" />
    <glyph glyph-name="M" unicode="M" horiz-adv-x="1323" 
d="M1169 20q0 -20 -20 -20h-143q-20 0 -21 20l23 910l-293 -733q-4 -10 -19 -13h-69q-14 2 -19 13l-289 735l19 -912q0 -20 -21 -20h-143q-20 0 -20 20v1250q0 20 20 20h141q14 0 19 -12l323 -813h7l321 815l19 12l145 -2q20 0 20 -20v-1250z" />
    <glyph glyph-name="N" unicode="N" horiz-adv-x="1136" 
d="M983 20q0 -20 -20 -20h-132l-18 10l-487 920l12 -910q0 -20 -21 -20h-143q-20 0 -20 20v1250q0 20 20 20h131l19 -10l485 -918l-10 908q0 20 20 20h144q20 0 20 -20v-1250z" />
    <glyph glyph-name="O" unicode="O" 
d="M737 328v635q0 78 -53 131t-131 53h-61q-78 0 -131.5 -53.5t-53.5 -130.5v-635q0 -78 53.5 -131.5t131.5 -53.5h61q78 0 131 53.5t53 131.5zM922 328q0 -155 -100.5 -251.5t-268.5 -96.5h-61q-169 0 -269 96t-100 252v635q0 155 100 251.5t269 96.5h61q168 0 268.5 -97
t100.5 -251v-635z" />
    <glyph glyph-name="P" unicode="P" horiz-adv-x="993" 
d="M768 922v20q0 78 -53 131t-131 53h-226q-20 0 -20 -20v-348q0 -20 20 -21h226q78 0 131 53.5t53 131.5zM584 1290q170 0 269 -99t99 -261t-101.5 -259.5t-266.5 -97.5h-226q-20 0 -20 -20v-533q0 -20 -21 -20h-143q-20 0 -20 20v1250q0 20 20 20h410z" />
    <glyph glyph-name="Q" unicode="Q" 
d="M737 328v635q0 78 -53 131t-131 53h-61q-78 0 -131.5 -53.5t-53.5 -130.5v-635q0 -64 38.5 -116t80.5 -52q14 0 14 20v84q0 20 21 21h123q20 0 20 -21v-84q0 -20 14 -20q43 0 81 51.5t38 116.5zM922 328q0 -207 -177 -305q-37 -20 -77.5 -28.5t-52 -14t-11.5 -17.5v-127
q0 -20 -20 -20h-123q-20 0 -21 20v127q0 18 -57 29.5t-88 30.5q-172 94 -172 305v635q0 155 100 251.5t269 96.5h61q168 0 268.5 -97t100.5 -251v-635z" />
    <glyph glyph-name="R" unicode="R" 
d="M768 922v20q0 78 -53 131t-131 53h-226q-20 0 -20 -20v-348q0 -20 20 -21h226q78 0 131 53.5t53 131.5zM965 16q0 -16 -21 -16h-158l-18 14l-190 547l-17 12h-203q-20 0 -20 -20v-533q0 -20 -21 -20h-143q-20 0 -20 20v1250q0 20 20 20h410q170 0 269 -99t99 -269v-21
q0 -53 -28.5 -115.5t-72.5 -103.5t-66.5 -50t-22.5 -26q0 -4 2 -6l199 -573q2 -4 2 -11z" />
    <glyph glyph-name="S" unicode="S" horiz-adv-x="901" 
d="M451 1147q-75 0 -130 -53t-55 -131q0 -103 102 -151t174 -81q154 -71 232 -164.5t78 -243.5t-102 -246.5t-267 -96.5h-86q-147 0 -214 53q-126 98 -126 157q0 8 13 15l129 65q8 4 13 4t19 -20q39 -54 71 -82.5t95 -28.5h86q76 0 130.5 53.5t54.5 131.5q0 112 -95 162
t-165 84t-133.5 71t-106.5 81t-64.5 101.5t-21.5 174t100 213t269 96.5h32q141 0 240.5 -71t99.5 -136q0 -10 -12 -17l-131 -65q-4 -2 -11 -2t-29 30t-56.5 63.5t-100.5 33.5h-32z" />
    <glyph glyph-name="T" unicode="T" horiz-adv-x="819" 
d="M778 1147q0 -20 -20 -21h-236q-20 0 -20 -20v-1086q0 -20 -21 -20h-143q-20 0 -21 20v1086q0 20 -20 20h-236q-20 0 -20 21v123q0 20 20 20h697q20 0 20 -20v-123z" />
    <glyph glyph-name="U" unicode="U" 
d="M922 328q0 -155 -100.5 -251.5t-268.5 -96.5h-61q-169 0 -269 96t-100 252v942q0 20 20 20h144q20 0 20 -20v-942q0 -78 53.5 -131.5t131.5 -53.5h61q78 0 131 53.5t53 131.5v942q0 20 21 20h143q20 0 21 -20v-942z" />
    <glyph glyph-name="V" unicode="V" horiz-adv-x="921" 
d="M516 0h-110q-14 0 -21 14l-381 1250l-2 8q0 18 23 18h153q18 0 21 -14l266 -938l258 938q2 14 20 14h154q23 0 23 -18l-383 -1258q-6 -14 -21 -14z" />
    <glyph glyph-name="W" unicode="W" horiz-adv-x="1366" 
d="M1059 0h-117q-18 0 -20 14l-236 908l-242 -908q-2 -14 -20 -14h-117q-16 0 -20 16l-264 1250l-3 8q0 16 23 16h150q16 0 20 -16l178 -944l240 950q2 14 20 14h64q18 0 20 -14l244 -950l174 944q4 16 21 16h149q23 0 23 -16l-267 -1258q-4 -16 -20 -16z" />
    <glyph glyph-name="X" unicode="X" horiz-adv-x="940" 
d="M913 16q0 -16 -22 -16h-178q-14 2 -19 12l-200 432q-6 16 -18.5 16.5t-18.5 -16.5l-211 -432l-19 -12h-176q-23 0 -22 16q0 2 4 15l309 606v18l-309 605q-4 12 -4 14q0 16 22 16h174l19 -12l213 -438q6 -14 18 -14.5t19 14.5l202 438q6 12 19 12h176q23 0 22 -16
q0 -4 -4 -12l-305 -607v-18l305 -608q4 -8 4 -13z" />
    <glyph glyph-name="Y" unicode="Y" horiz-adv-x="921" 
d="M553 20q0 -20 -21 -20h-143q-20 0 -20 20v572l-357 668q-4 12 -4 14q0 16 23 16h168l18 -12l225 -467q6 -14 18.5 -14t18.5 14l226 467l18 12h168q23 0 22 -16q0 -2 -4 -14l-356 -668v-572z" />
    <glyph glyph-name="Z" unicode="Z" horiz-adv-x="901" 
d="M819 20q0 -20 -20 -20h-729q-23 0 -23 16q0 4 4 13l479 1069q4 8 5 12q0 16 -23 16h-410q-20 0 -20 21v123q0 20 20 20h686q23 0 23 -16q0 -4 -4 -12l-481 -1069q-4 -8 -4 -13q0 -16 22 -16h455q20 0 20 -21v-123z" />
    <glyph glyph-name="bracketleft" unicode="[" horiz-adv-x="737" 
d="M553 -348q0 -20 -21 -21h-327q-20 0 -21 21v1823q0 20 21 20h327q20 0 21 -20v-123q0 -20 -21 -21h-143q-20 0 -20 -20v-1495q0 -20 20 -21h143q20 0 21 -20v-123z" />
    <glyph glyph-name="backslash" unicode="\" horiz-adv-x="665" 
d="M625 0h-68q-20 0 -27 18l-518 1229q-4 12 -4 17q0 27 33 26h68q18 0 26 -18l518 -1229q4 -12 4 -16q1 -27 -32 -27z" />
    <glyph glyph-name="bracketright" unicode="]" horiz-adv-x="737" 
d="M553 -348q0 -20 -21 -21h-327q-20 0 -21 21v123q0 20 21 20h143q20 0 21 21v1495q0 20 -21 20h-143q-20 0 -21 21v123q0 20 21 20h327q20 0 21 -20v-1823z" />
    <glyph glyph-name="asciicircum" unicode="^" horiz-adv-x="1538" 
d="M702 942q0 56 11 98l-4 17q-87 90 -171 90t-137 -54.5t-53 -129.5v-113q0 -20 21 -21h313q20 0 20 21v92zM1071 686q0 -20 -20 -20h-144q-20 0 -20 -21v-625q0 -20 -21 -20h-143q-20 0 -21 20v625q0 20 -20 21h-313q-20 0 -21 -21v-625q0 -20 -20 -20h-144q-20 0 -20 20
v625q0 20 -21 21h-51q-20 0 -20 20v123q0 20 20 20h51q20 0 21 21v92q0 159 110.5 264t261.5 105t209 -49.5t67 -49.5t28.5 15.5t73 49.5t105.5 34t52 -23v-123q-1 -12 -27 -24q-90 -41 -123.5 -71.5t-33.5 -106.5v-113q0 -20 20 -21h144q20 0 20 -20v-123zM1419 20
q0 -20 -20 -20h-144q-20 0 -20 20v881q0 20 20 21h144q20 0 20 -21v-881zM1440 1198q0 -47 -33 -80t-80 -33t-80 32t-33 80t33 81t80 33t80 -33t33 -80z" />
    <glyph glyph-name="underscore" unicode="_" horiz-adv-x="450" 
d="M461 -440q0 -20 -21 -21h-430q-20 0 -20 21v51q0 20 20 20h430q20 0 21 -20v-51z" />
    <glyph glyph-name="grave" unicode="`" horiz-adv-x="1024" 
d="M610 1045q0 -12 -20 -13h-88l-15 6l-260 256q-8 8 -8 19q0 16 23 16h180l16 -10l168 -256q4 -6 4 -18z" />
    <glyph glyph-name="a" unicode="a" horiz-adv-x="972" 
d="M655 358q0 20 -20 21h-236q-39 0 -64.5 -25.5t-25.5 -64.5v-33q0 -41 25.5 -66.5t64.5 -25.5h80q121 0 174 147l2 39v8zM840 20q0 -20 -21 -20h-123q-20 0 -20 20v27q0 23 -13 23t-64.5 -35t-119.5 -35h-80q-119 0 -195.5 71t-76.5 185v12q0 112 76.5 183t195.5 71h236
q20 0 20 21l-2 57q-4 78 -54 129t-125 51t-113 -41t-53 -63.5t-22 -22.5t-16 4l-125 66q-12 6 -12 17t21.5 46t70.5 78q88 78 250 78t261.5 -94t101.5 -248l2 -270v-310z" />
    <glyph glyph-name="b" unicode="b" horiz-adv-x="972" 
d="M686 348v225q0 75 -53 130t-131 55t-131.5 -54.5t-53.5 -130.5v-225q0 -76 53.5 -130t131.5 -54t131 55t53 129zM870 348q0 -153 -99.5 -250.5t-256.5 -97.5q-77 0 -119.5 23.5t-57.5 34t-27 10.5t-13 -23v-25q0 -20 -21 -20h-122q-20 0 -21 20v1250q0 20 21 20h143
q20 0 20 -20v-393q0 -25 17 -25q6 0 21.5 11t60.5 35t116 24q139 0 238.5 -99.5t99.5 -249.5v-225z" />
    <glyph glyph-name="c" unicode="c" horiz-adv-x="876" 
d="M813 190q0 -10 -19.5 -45.5t-66.5 -78.5q-92 -86 -258 -86t-266.5 96.5t-100.5 251.5v266q0 155 100.5 251.5t268.5 96.5q94 0 175 -36t123 -87t42 -84q0 -10 -12 -16l-131 -66q-4 -2 -12 -2t-30 32t-56 63.5t-86 31.5q-92 0 -144.5 -54.5t-52.5 -129.5v-266
q0 -76 53 -130.5t130 -54.5q76 0 112 43q37 43 52 65.5t22 22.5t16 -4l129 -65q12 -5 12 -15z" />
    <glyph glyph-name="d" unicode="d" horiz-adv-x="972" 
d="M655 348v225q0 76 -53 130.5t-131 54.5t-131 -54.5t-53 -130.5v-225q0 -75 53 -129.5t131 -54.5t131 54t53 130zM840 20q0 -20 -21 -20h-123q-20 0 -20 20v25q0 23 -12 23t-29 -10.5t-59.5 -34t-119.5 -23.5q-154 0 -254 98t-100 250v225q0 151 99 250t250 99
q65 0 121.5 -34t69.5 -34t13 23v393q0 20 21 20h143q20 0 21 -20v-1250z" />
    <glyph glyph-name="e" unicode="e" horiz-adv-x="942" 
d="M635 573q14 0 17 8.5t3 34.5t-15 56t-41 54t-58.5 38t-89 14t-110.5 -54t-54 -120q0 -16 3 -23.5t17 -7.5h328zM840 451q0 -20 -21 -21h-512q-20 0 -20 -20v-82q0 -76 53 -130.5t130 -54.5q76 0 112 43q37 43 52 65.5t22 22.5t16 -4l129 -65q12 -5 12 -15t-19.5 -45.5
t-66.5 -78.5q-92 -86 -258 -86t-266.5 96.5t-100.5 251.5v266q0 142 109.5 245t259.5 103t259.5 -103t109.5 -245v-143z" />
    <glyph glyph-name="f" unicode="f" horiz-adv-x="583" 
d="M520 1147q-66 0 -119 -55t-53 -129v-113q0 -20 21 -21h143q20 0 20 -20v-123q0 -20 -20 -20h-143q-20 0 -21 -21v-625q0 -20 -20 -20h-144q-20 0 -20 20v625q0 20 -21 21h-51q-20 0 -20 20v123q0 20 20 20h51q20 0 21 21v92q0 150 106 260q98 109 262 109q113 0 113 -27
q0 -4 -2 -8l-41 -119q-6 -14 -20 -14q-35 4 -62 4z" />
    <glyph glyph-name="g" unicode="g" horiz-adv-x="942" 
d="M748 -205v21q0 37 -28 64.5t-65 27.5h-276q-37 0 -64.5 -27.5t-27.5 -64.5v-21q0 -37 26.5 -64.5t65.5 -27.5h276q37 0 65 27.5t28 64.5zM655 555v18q0 76 -53 130.5t-131 54.5t-131 -54.5t-53 -130.5v-18q0 -75 52.5 -129.5t130.5 -54.5q79 0 132 54t53 130zM501 207
q-50 0 -89 4q-54 -31 -54 -73t56 -66h241q124 0 200.5 -74.5t76.5 -181.5v-21q0 -107 -76.5 -181.5t-200.5 -74.5h-276q-123 0 -200 73t-77 183v21q0 80 48 133q35 35 55 52t20 29t-14 40t-14 81t19.5 83t19.5 38t-21.5 31t-51.5 61q-61 77 -61 191v18q0 147 105 248
t264 101q65 0 121.5 -34t70.5 -34q13 0 13 23v24q0 20 20 21h123q20 0 21 -21v-346q0 -147 -77 -221t-144.5 -100.5t-117.5 -26.5z" />
    <glyph glyph-name="h" unicode="h" horiz-adv-x="993" 
d="M870 20q0 -20 -20 -20h-143q-20 0 -21 20v553q0 75 -53 130t-131 55t-131.5 -54.5t-53.5 -130.5v-553q0 -20 -20 -20h-143q-20 0 -21 20v1250q0 20 21 20h143q20 0 20 -20v-393q0 -25 17 -25q6 0 21.5 11t62.5 35t117 24q138 0 236.5 -98.5t98.5 -250.5v-553z" />
    <glyph glyph-name="i" unicode="i" horiz-adv-x="450" 
d="M317 20q0 -20 -20 -20h-143q-20 0 -21 20v881q0 20 21 21h143q20 0 20 -21v-881zM338 1198q0 -47 -33 -80t-80 -33t-79.5 32t-32.5 80t32.5 81t79.5 33t80 -33t33 -80z" />
    <glyph glyph-name="j" unicode="j" horiz-adv-x="450" 
d="M317 -115q0 -131 -97 -248q-97 -118 -249 -118q-23 0 -22 20v123q0 10 4.5 13t26.5 13t87.5 40t65.5 137v1036q0 20 21 21h143q20 0 20 -21v-1016zM338 1198q0 -47 -33 -80t-80 -33t-79.5 32t-32.5 80t32.5 81t79.5 33t80 -33t33 -80z" />
    <glyph glyph-name="k" unicode="k" horiz-adv-x="919" 
d="M909 16q0 -16 -22 -16h-180l-19 10l-260 426q-6 12 -16.5 12.5t-16.5 -8.5l-78 -80v-340q0 -20 -20 -20h-143q-20 0 -21 20v1250q0 20 21 20h143q20 0 20 -20v-639q0 -23 19 -23q10 0 16 8l273 299l14 7h174q23 0 23 -17q0 -10 -9 -18l-266 -271q-8 -12 -8 -14t4 -10
l348 -561q4 -8 4 -15z" />
    <glyph glyph-name="l" unicode="l" horiz-adv-x="450" 
d="M317 20q0 -20 -20 -20h-143q-20 0 -21 20v1250q0 20 21 20h143q20 0 20 -20v-1250z" />
    <glyph glyph-name="m" unicode="m" horiz-adv-x="1474" 
d="M1341 20q0 -20 -20 -20h-143q-20 0 -21 20v553q0 76 -50.5 130.5t-113.5 54.5t-113.5 -57.5t-50.5 -127.5v-553q0 -20 -20 -20h-143q-20 0 -21 20v553q0 76 -50.5 130.5t-113 54.5t-113.5 -56t-51 -129v-553q0 -20 -20 -20h-143q-20 0 -21 20v881q0 20 21 21h122
q20 0 21 -21v-27q0 -23 14 -22q10 0 65.5 35t137.5 35t150 -48q35 -23 52 -39t24 -16t58.5 51.5t199.5 51.5t245.5 -97.5t97.5 -251.5v-553z" />
    <glyph glyph-name="n" unicode="n" horiz-adv-x="1003" 
d="M870 20q0 -20 -20 -20h-143q-20 0 -21 20v553q0 75 -53 130t-131 55t-131.5 -54.5t-53.5 -130.5v-553q0 -20 -20 -20h-143q-20 0 -21 20v881q0 20 21 21h122q20 0 21 -21v-24q0 -23 12 -23t28.5 10t60 34t120.5 24q152 0 252 -98t100 -251v-553z" />
    <glyph glyph-name="o" unicode="o" horiz-adv-x="942" 
d="M655 328v266q0 76 -53 130t-131 54t-131 -54t-53 -130v-266q0 -76 53 -130.5t131 -54.5t131 54.5t53 130.5zM840 328q0 -155 -100.5 -251.5t-268.5 -96.5t-268.5 96.5t-100.5 251.5v266q0 155 100.5 251.5t267.5 96.5t268.5 -97.5t101.5 -250.5v-266z" />
    <glyph glyph-name="p" unicode="p" horiz-adv-x="972" 
d="M686 348v225q0 75 -53 130t-131 55t-131.5 -54.5t-53.5 -130.5v-225q0 -76 53.5 -130t131.5 -54t131 55t53 129zM870 348q0 -152 -98 -250t-240 -98q-76 0 -118.5 23.5t-58 34t-21.5 10.5q-16 0 -17 -23v-485q0 -20 -20 -21h-143q-20 0 -21 21v1341q0 20 21 21h122
q20 0 21 -21v-24q0 -23 12 -23t28.5 10t60 34t120.5 24q152 0 252 -98t100 -251v-225z" />
    <glyph glyph-name="q" unicode="q" horiz-adv-x="972" 
d="M655 348v225q0 76 -53 130.5t-131 54.5t-131 -54.5t-53 -130.5v-225q0 -75 53 -129.5t131 -54.5t131 54t53 130zM840 -440q0 -20 -21 -21h-143q-20 0 -21 21v485q0 23 -12 23t-17 -2l-56 -34q-52 -32 -124 -32q-147 0 -245.5 98.5t-98.5 249.5v225q0 152 100.5 250.5
t254.5 98.5q74 0 117.5 -24t60.5 -34t29 -10t12 23v24q0 20 20 21h123q20 0 21 -21v-1341z" />
    <glyph glyph-name="r" unicode="r" horiz-adv-x="626" 
d="M614 741q0 -20 -13 -20t-36.5 7t-62.5 7q-86 0 -135.5 -48t-49.5 -134v-533q0 -20 -20 -20h-143q-20 0 -21 20v881q0 20 21 21h122q20 0 21 -21v-65q0 -25 18 -25q8 0 57 55.5t122 55.5t96.5 -4.5t23.5 -22.5v-154z" />
    <glyph glyph-name="s" unicode="s" horiz-adv-x="901" 
d="M416 784q-150 0 -150 -111q0 -56 55.5 -81t152.5 -44q189 -37 265 -91t76 -181q0 -126 -91 -211t-247 -85h-61q-144 0 -239 69t-95 137q0 8 12 15l119 59q8 4 11 4t16 -12q37 -47 72.5 -81t103.5 -34h61q72 0 114 35t42 76t-16.5 61.5t-54 35.5t-186.5 44
q-148 29 -219 83t-71 179t91 208t239 83h61q142 0 238 -69t96 -138q0 -8 -12 -14l-119 -59q-14 -7 -18 -1.5t-26 31.5t-57.5 59t-101.5 33h-61z" />
    <glyph glyph-name="t" unicode="t" horiz-adv-x="645" 
d="M543 2q0 -14 -8.5 -17t-50.5 -3t-102 25.5t-134 97t-74 223.5v409q0 20 -20 21h-113q-20 0 -21 20l5 72l235 250l14 6h64q20 0 20 -21v-143q0 -20 21 -20h143q20 0 21 -21v-123q0 -20 -21 -20h-143q-20 0 -21 -21v-409q0 -61 45 -119q15 -17 107 -57q32 -14 33 -27v-123z
" />
    <glyph glyph-name="u" unicode="u" horiz-adv-x="983" 
d="M850 20q0 -20 -21 -20h-122q-20 0 -21 20v25q0 23 -12 23t-28.5 -10.5t-59 -34t-120.5 -23.5q-154 0 -253.5 97.5t-99.5 250.5v553q0 20 20 21h143q20 0 21 -21v-553q0 -74 53 -129t131.5 -55t131.5 55t53 129v553q0 20 20 21h143q20 0 21 -21v-881z" />
    <glyph glyph-name="v" unicode="v" horiz-adv-x="880" 
d="M375 0q-12 0 -19 12l-348 881q-2 4 -2 12q0 16 21 17h153q8 -4 19 -13l239 -669l244 669q2 6 18 13h154q20 0 20 -17q0 -8 -2 -12l-348 -881q-10 -10 -18 -12h-131z" />
    <glyph glyph-name="w" unicode="w" horiz-adv-x="1243" 
d="M934 0h-115q-12 0 -20 14l-176 705l-179 -705q-2 -14 -20 -14h-119q-18 0 -20 14l-260 881l-2 8q0 18 22 19h150q8 0 20 -15l154 -657l163 657q12 14 21 15h137q18 0 21 -15l163 -657l152 657q4 14 23 15h149q23 0 23 -19l-267 -889q-6 -14 -20 -14z" />
    <glyph glyph-name="x" unicode="x" horiz-adv-x="835" 
d="M821 16q0 -16 -20 -16h-168l-19 10l-180 291q-10 14 -18 14t-19 -14l-180 -291l-18 -10h-164q-23 0 -23 16q0 4 6 15l273 420q4 12 4 16t-4 8l-273 416q-6 8 -6 14q0 16 23 17h166l16 -11l182 -293q8 -12 14.5 -12t16.5 12l184 293l17 11h170q20 0 20 -17q0 -10 -4 -14
l-274 -418v-20l274 -422q4 -8 4 -15z" />
    <glyph glyph-name="y" unicode="y" horiz-adv-x="983" 
d="M850 -113q0 -172 -97.5 -270t-257.5 -98t-228 52q-128 98 -128 157q0 8 13 14q129 65 139 70q8 0 22 -20q35 -50 70 -79.5t86 -29.5q92 0 144.5 54.5t52.5 129.5v170q0 23 -17 22q-10 0 -24.5 -9t-49.5 -29.5t-106 -20.5q-156 0 -256 96t-100 252v553q0 20 20 21h143
q20 0 21 -21v-553q0 -74 53 -129t131.5 -55t131.5 55t53 129v553q0 20 20 21h143q20 0 21 -21v-1014z" />
    <glyph glyph-name="z" unicode="z" horiz-adv-x="880" 
d="M807 20q0 -20 -21 -20h-714q-23 0 -23 16q0 6 4 15l416 694q4 8 4 14q0 16 -22 17h-359q-20 0 -20 20v123q0 20 20 21h678q23 0 23 -17q0 -6 -5 -14l-417 -694q-4 -3 -4 -17t22 -14h397q20 0 21 -21v-123z" />
    <glyph glyph-name="braceleft" unicode="{" horiz-adv-x="737" 
d="M553 -346q0 -14 -9 -17.5t-52 -3.5t-102.5 26t-132.5 104t-73 237v297q0 106 -64 136t-88 40t-28 13t-4 14v127q0 12 28 24q85 37 120.5 69.5t35.5 108.5v297q0 160 97 263.5t231 103.5q23 0 32 -3t9 -17v-123q-1 -13 -27 -25q-90 -41 -123.5 -71.5t-33.5 -106.5v-338
q0 -78 -64 -166q-25 -35 -50.5 -53.5t-25.5 -28.5t25 -28.5t51 -59.5q63 -94 64 -170v-323q0 -109 86 -146.5t92 -42t6 -14.5v-123z" />
    <glyph glyph-name="bar" unicode="|" horiz-adv-x="1558" 
d="M702 922q0 64 13 108v17q-81 100 -171 100t-143 -54.5t-53 -129.5v-113q0 -20 21 -21h313q20 0 20 21v72zM1425 20q0 -20 -20 -20h-143q-20 0 -21 20v1086q0 20 -20 20h-150q-76 0 -130 -53t-54 -131v-92q0 -20 20 -21h144q20 0 20 -20v-123q0 -20 -20 -20h-144
q-20 0 -20 -21v-625q0 -20 -21 -20h-143q-20 0 -21 20v625q0 20 -20 21h-313q-20 0 -21 -21v-625q0 -20 -20 -20h-144q-20 0 -20 20v625q0 20 -21 21h-51q-20 0 -20 20v123q0 20 20 20h51q20 0 21 21v92q0 159 110.5 264t276.5 105q113 0 190 -54q37 -25 56.5 -40t25.5 -15
t69.5 44t178.5 44h334q20 0 20 -20v-1250z" />
    <glyph glyph-name="braceright" unicode="}" horiz-adv-x="737" 
d="M737 500q-1 -13 -27 -25q-88 -40 -122.5 -71.5t-34.5 -106.5v-297q0 -162 -98.5 -264.5t-231.5 -102.5q-23 0 -31 3.5t-8 17.5v123q0 10 4.5 13t62.5 29t73 44q45 57 45 117v323q0 76 63 170q27 39 51.5 57.5t24.5 30.5t-25.5 29.5t-50.5 52.5q-63 88 -63 166v338
q0 106 -65.5 136t-87.5 40t-27 13t-5 14v123q0 14 9 17t51 3t103 -25.5t133.5 -103t72.5 -238.5v-297q0 -107 86.5 -145.5t92 -42.5t5.5 -14v-127z" />
    <glyph glyph-name="asciitilde" unicode="~" horiz-adv-x="1122" 
d="M702 942q0 56 11 98l-4 17q-87 90 -171 90t-137 -54.5t-53 -129.5v-113q0 -20 21 -21h313q20 0 20 21v92zM1071 1147q-78 0 -131 -54.5t-53 -129.5v-113q0 -20 20 -21h144q20 0 20 -20v-123q0 -20 -20 -20h-144q-20 0 -20 -21v-625q0 -20 -21 -20h-143q-20 0 -21 20v625
q0 20 -20 21h-313q-20 0 -21 -21v-625q0 -20 -20 -20h-144q-20 0 -20 20v625q0 20 -21 21h-51q-20 0 -20 20v123q0 20 20 20h51q20 0 21 21v92q0 159 110.5 264t261.5 105t209 -49.5t65 -49.5t19.5 9.5t31.5 20.5t39 23.5t60.5 29t131.5 16.5q92 0 92 -27q0 -4 -2 -8
l-41 -119q-6 -14 -21 -14q-36 4 -49 4z" />
    <glyph glyph-name="exclamdown" unicode="&#xa1;" horiz-adv-x="552" 
d="M338 -348q0 -20 -21 -21h-143q-20 0 -20 21v534l43 349q2 18 20 18h55q16 0 21 -18l45 -349v-534zM358 829.5q0 -47.5 -32.5 -80t-79.5 -32.5t-80 32.5t-33 80.5t33 80t80 32t79.5 -32.5t32.5 -80z" />
    <glyph glyph-name="cent" unicode="&#xa2;" 
d="M494 362v566q0 20 -15 20q-40 0 -81.5 -51.5t-41.5 -118.5v-266q0 -101 51.5 -135.5t71.5 -34.5q15 0 15 20zM586 147v-127q0 -20 -21 -20h-51q-20 0 -20 20v127q0 19 -54.5 27t-93.5 31q-174 96 -174 307v266q0 209 174 305q45 22 84 29.5t51.5 12.5t12.5 18v127
q0 20 20 20h51q20 0 21 -20v-127q0 -15 16 -21q102 -10 194 -80q36 -28 61.5 -64t25.5 -52t-13 -23l-129 -65q-4 -2 -12 -2q-7 0 -27 26t-43.5 55t-58.5 29q-14 0 -14 -20v-561q0 -20 14 -21q38 0 67 39q30 39 41 56.5t20 17.5t13 -2l129 -66q36 -18 -26 -96.5t-160 -101.5
t-98 -44z" />
    <glyph glyph-name="sterling" unicode="&#xa3;" 
d="M276 942q0 159 109 264t272 105q82 0 163 -36t123 -86t42 -85q0 -10 -12 -17l-131 -65q-4 -2 -12 -2t-30 30t-56 63.5t-86 33.5q-90 0 -143.5 -54.5t-53.5 -129.5v-205q0 -20 20 -21h144q20 0 20 -20v-123q0 -20 -20 -21h-144q-20 0 -20 -20v-225q0 -55 -22.5 -92
t-22.5 -58q0 -14 22 -14h463q20 0 21 -21v-123q0 -20 -21 -20h-881q-20 0 -20 20v123q0 20 20 21h95q162 47 161 184v205q0 20 -20 20h-51q-20 0 -21 21v123q0 20 21 20h51q20 0 20 21v184z" />
    <glyph glyph-name="currency" unicode="&#xa4;" horiz-adv-x="1241" 
d="M926 886q0 125 -87.5 214.5t-215.5 89.5t-216 -90t-88 -214t88 -214t216 -90t215.5 89.5t87.5 214.5zM203 880q0 144 84 257l-207 206l82 80l205 -204q113 86 254 86t256 -86l204 204l82 -80l-205 -206q82 -109 82 -252t-82 -252l205 -205l-82 -82l-204 205
q-111 -86 -254 -86t-256 86l-205 -205l-82 82l207 205q-84 103 -84 247z" />
    <glyph glyph-name="yen" unicode="&#xa5;" 
d="M672 692q0 -16 22 -16h248q20 0 21 -21v-102q0 -20 -21 -21h-307q-20 0 -21 -20v-164q0 -20 21 -20h307q20 0 21 -21v-102q0 -20 -21 -21h-307q-20 0 -21 -20v-144q0 -20 -20 -20h-143q-20 0 -21 20v144q0 20 -20 20h-308q-20 0 -20 21v102q0 20 20 21h308q20 0 20 20
v164q0 20 -20 20h-308q-20 0 -20 21v102q0 20 20 21h248q23 0 23 16q0 2 -4 15l-295 553q-4 6 -4 18t22 12h168l19 -12l225 -467q6 -14 18.5 -14t18.5 14l225 467q8 12 18 12h168q23 0 23 -16q0 -2 -4 -14l-295 -553q-4 -12 -4 -15z" />
    <glyph glyph-name="brokenbar" unicode="&#xa6;" horiz-adv-x="1024" 
d="M588 408v-758h-150v758h150zM588 1432v-758h-150v758h150z" />
    <glyph glyph-name="section" unicode="&#xa7;" 
d="M739 339q0 87 -114 165q-20 12 -131 65t-123 54q-10 0 -21.5 -27t-11.5 -72q0 -83 90 -141q123 -80 200 -109.5t84 -29.5t17 23.5t10 71.5zM555 -461h-86q-143 1 -212 53q-128 99 -128 156q0 8 12 14l129 66q4 2 12 2t21 -18q14 -18 29.5 -38t44 -45.5t92.5 -25.5h86
q76 0 130 53.5t54 117.5t-21.5 99t-59 64t-92 54.5t-124.5 60.5q-153 76 -220.5 155t-67.5 205t32.5 174.5t32.5 55t-10 20.5t-32.5 61.5t-22.5 132.5q0 161 100 258t268 97h33q139 0 239.5 -69.5t100.5 -137.5q0 -10 -12 -17l-131 -65q-4 -2 -12 -2t-28 30
q-22 30 -56.5 63.5t-100.5 33.5h-33q-74 0 -129 -53t-55 -132t59.5 -119t113.5 -64.5t120 -55.5q152 -72 222.5 -163t70.5 -218t-62 -215l2 -21q60 -98 60 -198q1 -173 -101 -271t-268 -98z" />
    <glyph glyph-name="dieresis" unicode="&#xa8;" horiz-adv-x="1024" 
d="M457 1171q0 -41 -30 -71.5t-73 -30.5t-72.5 29.5t-29.5 72.5t29.5 73t72.5 30t73 -31t30 -72zM776 1171q0 -41 -29.5 -71.5t-72.5 -30.5t-73 29.5t-30 72.5t30 73t73 30t72.5 -31t29.5 -72z" />
    <glyph glyph-name="copyright" unicode="&#xa9;" horiz-adv-x="1474" 
d="M475 557v203q0 111 69.5 176t176.5 65t175.5 -44t68.5 -85q0 -8 -11 -14l-59 -31q-8 -4 -13 -4t-41.5 43t-104.5 43q-67 0 -109.5 -43t-42.5 -106v-203q0 -61 44 -106t93 -45t73.5 14t41 30.5t27.5 31t17 14.5t15 -4l61 -33q26 -16 -22 -82t-210 -66q-108 0 -178.5 67.5
t-70.5 178.5zM1198 348v594q0 115 -74.5 185.5t-201.5 70.5h-369q-127 0 -202 -69.5t-75 -186.5v-594q0 -117 75 -186.5t202 -69.5h369q127 0 201.5 70.5t74.5 185.5zM1290 348q0 -156 -100 -252t-268 -96h-369q-168 0 -268.5 96.5t-100.5 251.5v594q0 155 100.5 251.5
t268.5 96.5h369q168 0 268 -96t100 -252v-594z" />
    <glyph glyph-name="ordfeminine" unicode="&#xaa;" horiz-adv-x="679" 
d="M279 895q-23 0 -37.5 -14.5t-14.5 -36.5v-25q0 -23 14.5 -38t37.5 -15h57q80 0 110 94l3 27v4l-5 4h-165zM598 655q0 -25 -25 -24h-86q-25 0 -24 24v19l-8 4q-66 -49 -119 -49h-57q-88 0 -144.5 54t-56.5 136v10q0 82 54 134.5t147 52.5h165l5 4l-3 41q-4 51 -36 84
t-90 33t-103 -76q-6 -12 -16 -12t-17 4l-86 45q-14 7 -14 23t17.5 42.5t71 66.5t166.5 40q112 0 183.5 -68.5t73.5 -181.5l2 -189v-217z" />
    <glyph glyph-name="guillemotleft" unicode="&#xab;" horiz-adv-x="1134" 
d="M557 223q0 -23 -16 -22q-8 0 -17 6l-403 287l-8 16v121l8 16l403 289q8 6 17 6q16 0 16 -22v-117l-8 -17l-277 -198q-10 -8 -10 -16.5t10 -16.5l277 -199l8 -16v-117zM999 223q0 -23 -16 -22q-8 0 -16 6l-406 287l-8 16v121l8 16l406 289q8 6 16 6q16 0 16 -22v-117
l-8 -17l-276 -198q-10 -8 -10 -16.5t10 -16.5l276 -199l8 -16v-117z" />
    <glyph glyph-name="logicalnot" unicode="&#xac;" horiz-adv-x="1705" 
d="M1452 860v-502h-137v363h-1061v139h1198z" />
    <glyph glyph-name="registered" unicode="&#xae;" horiz-adv-x="901" 
d="M537 993v6q0 29 -17.5 47.5t-46.5 18.5h-65q-20 0 -21 -21v-96q0 -20 21 -20h65q29 0 46.5 18t17.5 47zM602 985q0 -37 -30.5 -68t-30.5 -39t2 -10l51 -102q4 -8 4 -12q0 -16 -23 -17h-32q-14 2 -19 13l-47 108q-4 6 -18 12h-51q-20 0 -21 -20v-92q0 -20 -20 -21h-23
q-20 0 -20 21v344q0 20 20 20h129q59 0 94 -34.5t35 -94.5v-8zM762 901v41q0 129 -83 208t-224 79h-9q-141 0 -224 -79t-83 -208v-41q0 -129 83 -208t224 -79h9q141 0 224 79t83 208zM823 901q0 -156 -100 -252t-268 -96h-9q-168 0 -268 96t-100 252v41q0 156 100 252
t268 96h9q168 0 268 -96t100 -252v-41z" />
    <glyph glyph-name="macron" unicode="&#xaf;" horiz-adv-x="1024" 
d="M748 1126q0 -20 -21 -20h-430q-20 0 -21 20v123q0 20 21 21h430q20 0 21 -21v-123z" />
    <glyph glyph-name="degree" unicode="&#xb0;" horiz-adv-x="450" 
d="M303 1135q0 31 -22.5 54t-55 23t-55.5 -22.5t-23 -54.5v-58q0 -33 23 -55.5t55.5 -22.5t55 24t22.5 54v58zM410 1077q0 -78 -49.5 -127t-135.5 -49t-135 49t-49 127v58q0 80 49 128t135 48t135.5 -49.5t49.5 -126.5v-58z" />
    <glyph glyph-name="plusminus" unicode="&#xb1;" horiz-adv-x="1705" 
d="M1452 170v-141h-1198v141h1198zM924 1192v-340h528v-139h-528v-340h-142v340h-528v139h528v340h142z" />
    <glyph glyph-name="twosuperior" unicode="&#xb2;" horiz-adv-x="690" 
d="M356 1303q111 0 176.5 -57.5t65.5 -161.5q0 -137 -154 -215.5t-187.5 -120t-33.5 -89.5v-32q0 -12 15 -13h337q12 0 13 -12v-74q0 -12 -13 -12h-460q-12 0 -13 12v131q0 92 49.5 150.5t138.5 110.5t138 84t49 84t-35.5 84t-85.5 32h-51q-47 0 -68.5 -20.5t-43.5 -48.5
q-6 -6 -13 -7h-8l-84 41q-8 1 -8 13q0 30 78 86q50 35 147 35h51z" />
    <glyph glyph-name="threesuperior" unicode="&#xb3;" horiz-adv-x="690" 
d="M588 723q0 -102 -64.5 -160.5t-179.5 -58.5h-39q-102 0 -145 32q-80 59 -80 95q0 6 8 8l84 39q4 2 6 2h2q6 0 21 -18t36 -39t68 -21h39q51 0 87 32t36 79v43q0 47 -36 78.5t-87 31.5h-106q-14 0 -15 13v73q0 12 15 13h106q51 0 87 31.5t36 78.5v19q0 47 -36 78.5
t-87 31.5h-39q-47 0 -68.5 -20.5t-43.5 -48.5q-6 -6 -13 -7h-8l-84 41q-8 1 -8 13q0 30 78 86q50 35 147 35h39q113 0 178.5 -59.5t65.5 -162.5v-18q0 -47 -41 -100q-18 -20 -34.5 -30.5t-16.5 -18.5t16 -18.5t46 -49.5t30 -86v-37z" />
    <glyph glyph-name="acute" unicode="&#xb4;" horiz-adv-x="1024" 
d="M430 1032q-20 0 -20 17q0 8 4 14l168 256l16 10h180q23 0 23 -18q0 -9 -8 -17l-261 -256l-14 -6h-88z" />
    <glyph glyph-name="mu" unicode="&#xb5;" horiz-adv-x="1150" 
d="M448 -14q-169 0 -270 116l-110 -530h-181l318 1499h180l-129 -600q-14 -63 -14 -148t52 -138.5t148 -53.5q137 0 212 98.5t120 305.5l115 536h178l-156 -731q-22 -98 -22 -134t16.5 -51.5t40.5 -15.5h29q8 0 18 2l-30 -143q-151 -31 -195.5 9t-62.5 110
q-88 -131 -257 -131z" />
    <glyph glyph-name="paragraph" unicode="&#xb6;" horiz-adv-x="1259" 
d="M1106 -440q0 -20 -21 -21h-143q-20 0 -20 21v1546q0 20 -21 20h-143q-20 0 -21 -20v-1546q0 -20 -20 -21h-144q-20 0 -20 21v604q0 20 -21 20h-40q-166 0 -267.5 97.5t-101.5 250.5v390q0 170 99.5 269t269.5 99h593q20 0 21 -20v-1710z" />
    <glyph glyph-name="periodcentered" unicode="&#xb7;" horiz-adv-x="450" 
d="M338 647q0 -47 -33 -79.5t-80 -32.5t-79.5 31.5t-32.5 79.5t32.5 81t79.5 33t80 -33t33 -80z" />
    <glyph glyph-name="periodcentered" unicode="&#x2219;" horiz-adv-x="450" 
d="M338 647q0 -47 -33 -79.5t-80 -32.5t-79.5 31.5t-32.5 79.5t32.5 81t79.5 33t80 -33t33 -80z" />
    <glyph glyph-name="cedilla" unicode="&#xb8;" horiz-adv-x="1024" 
d="M639 -279q0 -82 -57.5 -136t-149.5 -54h-98q-20 0 -21 20v82q0 20 21 21h98q29 0 48.5 19.5t19.5 47.5v17q0 29 -19.5 49t-48.5 20h-39q-23 0 -22 17q0 4 4 12l80 178h143l-49 -104q-2 -4 -2.5 -10t19.5 -26t46.5 -49.5t26.5 -86.5v-17z" />
    <glyph glyph-name="onesuperior" unicode="&#xb9;" horiz-adv-x="690" 
d="M592 528q0 -12 -14 -12h-418q-14 0 -15 12v74q0 12 15 12h135q12 0 12 13v444q0 12 -9 12t-13 -4l-64 -61q-8 -4 -10 -4t-10 4l-60 53q-4 4 -4 9t4 10l219 196l9 4h47q14 0 14 -12v-651q0 -12 12 -13h136q14 0 14 -12v-74z" />
    <glyph glyph-name="ordmasculine" unicode="&#xba;" horiz-adv-x="659" 
d="M449 870v187q0 47 -35 83t-84 36t-84 -36t-35 -83v-187q0 -47 35 -82.5t84 -35.5t84 35.5t35 82.5zM598 870q0 -115 -72.5 -184.5t-195.5 -69.5t-196 70t-73 184v187q0 115 73 184.5t196 69.5t195.5 -70t72.5 -184v-187z" />
    <glyph glyph-name="guillemotright" unicode="&#xbb;" horiz-adv-x="1134" 
d="M150 201q-14 0 -15 22v117l8 16l277 199q10 6 10 16.5t-10 16.5l-277 198l-8 17v117q0 23 17 22q6 0 16 -6l405 -289l9 -16v-121l-9 -16l-405 -287q-10 -6 -18 -6zM594 201q-16 0 -16 22v117l8 16l276 199q10 6 10 16.5t-10 16.5l-276 198l-8 17v117q0 23 16 22
q6 0 16 -6l404 -289l8 -16v-121l-8 -16l-404 -287q-10 -6 -16 -6z" />
    <glyph glyph-name="onequarter" unicode="&#xbc;" horiz-adv-x="1953" 
d="M1681 270v260q0 12 -10 12t-12 -5l-195 -261q-4 -4 -4 -11t15 -7h194q12 0 12 12zM1913 178q0 -12 -12 -12h-91q-12 0 -12 -10v-144q0 -12 -14 -12h-90q-12 0 -13 12v144q0 10 -12 10h-323q-10 0 -11 10v82l342 461l11 4h96q14 0 14 -12v-441q0 -12 12 -12h91
q12 0 12 -12v-68zM748 0h-46q-39 0 -38 35q0 8 4 20l499 1211q8 25 37 24h45q39 0 39 -35q0 -8 -4 -20l-500 -1210q-10 -25 -36 -25zM565 580q0 -12 -12 -13h-401q-12 0 -13 13v67q0 12 13 12h129q14 0 14 11v415q0 13 -8 13t-15 -6l-61 -56q-4 -4 -9 -4t-9 4l-58 49
q-4 4 -4 8.5t4 8.5l209 184l8 4h45q12 0 13 -12v-608q0 -10 14 -11h129q12 0 12 -12v-67z" />
    <glyph glyph-name="onehalf" unicode="&#xbd;" horiz-adv-x="1953" 
d="M1634 733q104 0 168 -53t64 -150t-92 -163q-35 -27 -74 -47.5t-88 -48.5q-105 -60 -105 -138v-31q0 -10 13 -10h323q12 0 12 -12v-68q0 -12 -12 -12h-438q-14 0 -14 12v121q0 84 48 140.5t133 104.5t131 77t46 79t-34 79.5t-81 29.5h-49q-45 0 -65.5 -19.5t-33.5 -35.5
t-20 -17h-6l-82 37q-8 2 -8 8q0 35 76 84q45 33 139 33h49zM748 0h-46q-39 0 -38 35q0 8 4 20l499 1211q8 25 37 24h45q39 0 39 -35q0 -8 -4 -20l-500 -1210q-10 -25 -36 -25zM565 580q0 -12 -12 -13h-401q-12 0 -13 13v67q0 12 13 12h129q14 0 14 11v415q0 13 -8 13t-15 -6
l-61 -56q-4 -4 -9 -4t-9 4l-58 49q-4 4 -4 8.5t4 8.5l209 184l8 4h45q12 0 13 -12v-608q0 -10 14 -11h129q12 0 12 -12v-67z" />
    <glyph glyph-name="threequarters" unicode="&#xbe;" horiz-adv-x="1953" 
d="M1681 270v260q0 12 -10 12t-12 -5l-195 -261q-4 -4 -4 -11t15 -7h194q12 0 12 12zM1913 178q0 -12 -12 -12h-91q-12 0 -12 -10v-144q0 -12 -14 -12h-90q-12 0 -13 12v144q0 10 -12 10h-323q-10 0 -11 10v82l342 461l11 4h96q14 0 14 -12v-441q0 -12 12 -12h91
q12 0 12 -12v-68zM748 0h-46q-39 0 -38 35q0 8 4 20l499 1211q8 25 37 24h45q39 0 39 -35q0 -8 -4 -20l-500 -1210q-10 -25 -36 -25zM291 647h39q47 0 80.5 31t33.5 74v39q0 43 -33.5 73.5t-80.5 30.5h-105q-12 0 -12 10v70q0 10 12 10h105q47 0 80.5 31t33.5 74v16
q0 43 -33.5 73.5t-80.5 30.5h-39q-45 0 -65 -19.5t-34 -35.5t-20 -16h-6l-82 37q-8 2 -8 8q0 35 76 84q45 33 139 32h39q106 0 168.5 -55t62.5 -149v-19q1 -45 -27 -79t-44.5 -44t-16.5 -15t16.5 -17t44.5 -48t27 -79v-35q0 -94 -61.5 -149.5t-169.5 -55.5h-39
q-96 0 -137 30q-78 57 -78 89q0 6 8 8l82 37q2 0 7 1q5 2 19 -16t34 -37.5t65 -19.5z" />
    <glyph glyph-name="questiondown" unicode="&#xbf;" 
d="M541 553h141q18 0 23.5 -25.5t5.5 -101.5q0 -153 -170 -240q-51 -27 -138.5 -70.5t-87.5 -156.5q0 -78 54.5 -131t130.5 -53h78q82 0 124 53q29 33 40.5 54.5t21.5 21.5q2 0 10 -4l131 -66q33 -16 -16.5 -87.5t-142.5 -103.5t-168 -32h-78q-167 0 -268 95.5t-101 252.5
q0 104 44 187t172.5 138t153.5 95.5t25 87.5l-6 63q0 23 21 23zM696 829.5q0 -47.5 -32.5 -80t-79.5 -32.5t-80 32.5t-33 80.5t33 80t80 32t79.5 -32.5t32.5 -80z" />
    <glyph glyph-name="Agrave" unicode="&#xc0;" horiz-adv-x="921" 
d="M352 461h215q23 0 23 18l-101 393q-11 43 -24 91h-8l-127 -484q0 -18 22 -18zM897 0h-154q-18 0 -20 14l-76 271q-2 12 -20 12h-332q-18 0 -21 -12l-75 -271q-2 -14 -21 -14h-153q-23 0 -23 18l383 1258q2 14 21 14h110q14 0 21 -14l381 -1249l2 -9q0 -18 -23 -18z
M563 1414q0 -12 -20 -13h-88l-15 6l-260 256q-8 8 -8 18q0 16 23 17h180l16 -10l168 -256q4 -6 4 -18z" />
    <glyph glyph-name="Aacute" unicode="&#xc1;" horiz-adv-x="921" 
d="M352 461h215q23 0 23 18l-101 393q-11 43 -24 91h-8l-127 -484q0 -18 22 -18zM897 0h-154q-18 0 -20 14l-76 271q-2 12 -20 12h-332q-18 0 -21 -12l-75 -271q-2 -14 -21 -14h-153q-23 0 -23 18l383 1258q2 14 21 14h110q14 0 21 -14l381 -1249l2 -9q0 -18 -23 -18z
M383 1401q-21 0 -21 12t5 19l168 256l16 10h180q23 0 23 -19q-1 -8 -9 -16l-260 -256l-14 -6h-88z" />
    <glyph glyph-name="Acircumflex" unicode="&#xc2;" horiz-adv-x="921" 
d="M352 461h215q23 0 23 18l-101 393q-11 43 -24 91h-8l-127 -484q0 -18 22 -18zM897 0h-154q-18 0 -20 14l-76 271q-2 12 -20 12h-332q-18 0 -21 -12l-75 -271q-2 -14 -21 -14h-153q-23 0 -23 18l383 1258q2 14 21 14h110q14 0 21 -14l381 -1249l2 -9q0 -18 -23 -18z
M686 1403h-98l-17 10l-90 139q-13 27 -30 0l-89 -139l-16 -10h-98q-25 0 -25 16q0 4 8 17l183 256l16 8h74l16 -8l182 -256q20 -33 -16 -33z" />
    <glyph glyph-name="Atilde" unicode="&#xc3;" horiz-adv-x="921" 
d="M352 461h215q23 0 23 18l-101 393q-11 43 -24 91h-8l-127 -484q0 -18 22 -18zM897 0h-154q-18 0 -20 14l-76 271q-2 12 -20 12h-332q-18 0 -21 -12l-75 -271q-2 -14 -21 -14h-153q-23 0 -23 18l383 1258q2 14 21 14h110q14 0 21 -14l381 -1249l2 -9q0 -18 -23 -18z
M590 1430q-63 0 -129 53l-41 26q-41 27 -77 27t-61 -22q-24 -22 -37 -38q-13 -15 -24 -1l-45 32q-10 7 -10 17t15 35t40 49q62 60 127 61q66 0 127 -49l39 -31q31 -25 74 -24t68 23q26 24 35 34t17 10t11 -4l41 -33q8 -8 8 -15t-2 -11q-78 -139 -176 -139z" />
    <glyph glyph-name="Adieresis" unicode="&#xc4;" horiz-adv-x="921" 
d="M352 461h215q23 0 23 18l-101 393q-11 43 -24 91h-8l-127 -484q0 -18 22 -18zM897 0h-154q-18 0 -20 14l-76 271q-2 12 -20 12h-332q-18 0 -21 -12l-75 -271q-2 -14 -21 -14h-153q-23 0 -23 18l383 1258q2 14 21 14h110q14 0 21 -14l381 -1249l2 -9q0 -18 -23 -18z
M410 1540q0 -41 -30 -72q-30 -30 -73 -30t-73 30t-29 72q0 43 29 73q30 29 73 29t73 -30t30 -72zM729 1540q0 -41 -30 -72q-31 -30 -73 -30t-72 30t-30 72q0 43 30 73q30 29 73 29t73 -30t29 -72z" />
    <glyph glyph-name="Aring" unicode="&#xc5;" horiz-adv-x="921" 
d="M543 1616q0 31 -22.5 54.5t-55.5 23.5t-55.5 -23.5t-22.5 -54.5v-57q0 -31 22.5 -54.5t55.5 -23.5t55.5 23.5t22.5 54.5v57zM649 1559q0 -80 -49 -128.5t-135 -48.5t-135 48.5t-49 128.5v57q0 80 49 128t135 48t135 -48t49 -128v-57zM352 461h215q23 0 23 18l-101 393
q-11 43 -24 91h-8l-127 -484q0 -18 22 -18zM897 0h-154q-18 0 -20 14l-76 271q-2 12 -20 12h-332q-18 0 -21 -12l-75 -271q-2 -14 -21 -14h-153q-23 0 -23 18l383 1258q2 14 21 14h110q14 0 21 -14l381 -1249l2 -9q0 -18 -23 -18z" />
    <glyph glyph-name="AE" unicode="&#xc6;" horiz-adv-x="1429" 
d="M600 639q0 190 6 307l-8 2q-18 -43 -37 -74l-217 -382q-4 -6 -4 -15q0 -16 22 -16h218q20 0 20 20v158zM1337 20q0 -20 -20 -20h-696q-20 0 -21 20v256q0 20 -20 21h-334l-21 -8l-155 -279l-19 -10h-149q-23 0 -23 16q0 8 4 15l738 1249l18 10h678q20 0 20 -20v-123
q0 -20 -20 -21h-512q-20 0 -21 -20v-348q0 -20 21 -21h420q20 0 20 -20v-123q0 -20 -20 -21h-420q-20 0 -21 -20v-369q0 -20 21 -20h512q20 0 20 -21v-123z" />
    <glyph glyph-name="Ccedilla" unicode="&#xc7;" horiz-adv-x="952" 
d="M676 -279q0 -82 -57.5 -136t-149.5 -54h-98q-20 0 -21 20v82q0 20 21 21h98q29 0 48.5 19.5t19.5 47.5v17q0 29 -19.5 49t-48.5 20h-39q-23 0 -22 17q0 4 4 12l65 144q-170 10 -262 102t-92 246v635q0 155 100 251.5t269 96.5h61q139 0 239.5 -69.5t100.5 -137.5
q0 -10 -12 -17l-131 -65q-4 -2 -12 -2t-28 30q-22 30 -57 63.5t-100 33.5h-61q-78 0 -131.5 -53.5t-53.5 -130.5v-635q0 -78 53.5 -131.5t131.5 -53.5h61q71 0 108 42q38 42 54 65.5t23 23.5t16 -4l129 -65q12 -6 12 -23t-17.5 -46.5t-76 -77.5t-180.5 -74l-35 -74
q-2 -4 -2 -10t20 -26t46 -48.5t26 -87.5v-17z" />
    <glyph glyph-name="Egrave" unicode="&#xc8;" horiz-adv-x="983" 
d="M891 20q0 -20 -21 -20h-696q-20 0 -20 20v1250q0 20 20 20h696q20 0 21 -20v-123q0 -20 -21 -21h-512q-20 0 -20 -20v-348q0 -20 20 -21h420q20 0 21 -20v-123q0 -20 -21 -21h-420q-20 0 -20 -20v-369q0 -20 20 -20h512q20 0 21 -21v-123zM600 1401h-88l-14 6l-260 256
q-8 8 -8 21t22 14h180l17 -10l167 -256q4 -6 5 -17q0 -14 -21 -14z" />
    <glyph glyph-name="Eacute" unicode="&#xc9;" horiz-adv-x="983" 
d="M891 20q0 -20 -21 -20h-696q-20 0 -20 20v1250q0 20 20 20h696q20 0 21 -20v-123q0 -20 -21 -21h-512q-20 0 -20 -20v-348q0 -20 20 -21h420q20 0 21 -20v-123q0 -20 -21 -21h-420q-20 0 -20 -20v-369q0 -20 20 -20h512q20 0 21 -21v-123zM440 1401q-20 0 -20 16
q0 8 4 15l168 256l16 10h180q23 0 23 -19q0 -8 -8 -16l-260 -256l-15 -6h-88z" />
    <glyph glyph-name="Ecircumflex" unicode="&#xca;" horiz-adv-x="983" 
d="M891 20q0 -20 -21 -20h-696q-20 0 -20 20v1250q0 20 20 20h696q20 0 21 -20v-123q0 -20 -21 -21h-512q-20 0 -20 -20v-348q0 -20 20 -21h420q20 0 21 -20v-123q0 -20 -21 -21h-420q-20 0 -20 -20v-369q0 -20 20 -20h512q20 0 21 -21v-123zM766 1419q0 -16 -23 -16h-98
l-16 10l-90 139q-14 28 -31 0l-88 -139l-17 -10h-98q-25 0 -24 16q0 4 8 17l182 256l16 8h74l17 -8l182 -256q6 -10 6 -17z" />
    <glyph glyph-name="Edieresis" unicode="&#xcb;" horiz-adv-x="983" 
d="M891 20q0 -20 -21 -20h-696q-20 0 -20 20v1250q0 20 20 20h696q20 0 21 -20v-123q0 -20 -21 -21h-512q-20 0 -20 -20v-348q0 -20 20 -21h420q20 0 21 -20v-123q0 -20 -21 -21h-420q-20 0 -20 -20v-369q0 -20 20 -20h512q20 0 21 -21v-123zM467 1540q0 -41 -30 -72
q-31 -30 -73 -30t-72 30t-30 72q0 43 30 73q30 29 73 29t73 -30t29 -72zM786 1540q0 -41 -30 -72q-30 -30 -72 -30q-43 0 -73 30t-29 72q0 43 29 73q30 29 73 29t73 -30q29 -31 29 -72z" />
    <glyph glyph-name="Igrave" unicode="&#xcc;" horiz-adv-x="491" 
d="M338 20q0 -20 -21 -20h-143q-20 0 -20 20v1250q0 20 20 20h143q20 0 21 -20v-1250zM348 1414q0 -12 -20 -13h-88l-15 6l-260 256q-8 8 -8 18q0 16 23 17h180l16 -10l168 -256q4 -6 4 -18z" />
    <glyph glyph-name="Iacute" unicode="&#xcd;" horiz-adv-x="491" 
d="M338 20q0 -20 -21 -20h-143q-20 0 -20 20v1250q0 20 20 20h143q20 0 21 -20v-1250zM168 1401q-20 0 -20 12t4 19l167 256l17 10h180q23 0 23 -19q-1 -8 -9 -16l-260 -256l-14 -6h-88z" />
    <glyph glyph-name="Icircumflex" unicode="&#xce;" horiz-adv-x="491" 
d="M338 20q0 -20 -21 -20h-143q-20 0 -20 20v1250q0 20 20 20h143q20 0 21 -20v-1250zM33 1403q-25 0 -25 16q0 4 8 17l183 256l16 8h74l16 -8l182 -256q20 -33 -16 -33h-98l-17 10l-90 139q-13 27 -30 0l-89 -139l-16 -10h-98z" />
    <glyph glyph-name="Idieresis" unicode="&#xcf;" horiz-adv-x="491" 
d="M338 20q0 -20 -21 -20h-143q-20 0 -20 20v1250q0 20 20 20h143q20 0 21 -20v-1250zM195 1540q0 -41 -30 -72q-30 -30 -73 -30t-73 30t-29 72q0 43 29 73q30 29 73 29t73 -30t30 -72zM514 1540q0 -41 -30 -72q-30 -30 -72 -30t-73 30q-30 30 -30 72q0 43 30 73
q30 29 73 29q42 0 72 -30t30 -72z" />
    <glyph glyph-name="Eth" unicode="&#xd0;" horiz-adv-x="1075" 
d="M768 348v594q0 78 -53 131t-131 53h-226q-20 0 -20 -20v-348q0 -20 20 -21h174q20 0 21 -20v-144q0 -20 -21 -20h-174q-20 0 -20 -21v-348q0 -20 20 -20h226q78 0 131 54t53 130zM952 369q0 -172 -98 -270.5t-270 -98.5h-410q-20 0 -20 20v512q0 20 -21 21h-65
q-20 0 -21 20v144q0 20 21 20h65q20 0 21 21v512q0 20 20 20h410q170 0 269 -99t99 -269v-553z" />
    <glyph glyph-name="Ntilde" unicode="&#xd1;" horiz-adv-x="1136" 
d="M983 20q0 -20 -20 -20h-132l-18 10l-487 920l12 -910q0 -20 -21 -20h-143q-20 0 -20 20v1250q0 20 20 20h131l19 -10l485 -918l-10 908q0 20 20 20h144q20 0 20 -20v-1250zM694 1430q-63 0 -129 53l-41 26q-41 27 -77 27t-60 -22t-38 -37q-14 -14 -23 -2l-45 32
q-20 12 0 45q73 117 187 117q52 0 112 -49l38 -31q31 -25 74 -24t68 23q26 24 36 34t16 10q7 0 11 -4l41 -33q8 -8 8 -15t-2 -11q-78 -139 -176 -139z" />
    <glyph glyph-name="Ograve" unicode="&#xd2;" 
d="M737 328v635q0 78 -53 131t-131 53h-61q-78 0 -132 -53t-53 -131v-635q0 -78 53 -131t132 -54h61q78 -1 131 53t53 132zM922 328q0 -157 -102 -254q-102 -96 -267 -94h-61q-169 0 -269 96t-100 252v635q0 155 101 252q101 96 268 96h61q169 0 269 -97t100 -251v-635z
M602 1401h-88l-14 6l-260 256q-8 8 -8 21t22 14h180l17 -10l167 -256q4 -6 5 -17q0 -14 -21 -14z" />
    <glyph glyph-name="Oacute" unicode="&#xd3;" 
d="M737 328v635q0 78 -53 131t-131 53h-61q-78 0 -132 -53t-53 -131v-635q0 -78 53 -131t132 -54h61q78 -1 131 53t53 132zM922 328q0 -157 -102 -254q-102 -96 -267 -94h-61q-169 0 -269 96t-100 252v635q0 155 101 252q101 96 268 96h61q169 0 269 -97t100 -251v-635z
M442 1401q-20 0 -20 16q0 8 4 15l168 256l16 10h181q23 0 22 -19q0 -8 -8 -16l-260 -256l-15 -6h-88z" />
    <glyph glyph-name="Ocircumflex" unicode="&#xd4;" 
d="M737 328v635q0 78 -53 131t-131 53h-61q-78 0 -132 -53t-53 -131v-635q0 -78 53 -131t132 -54h61q78 -1 131 53t53 132zM922 328q0 -157 -102 -254q-102 -96 -267 -94h-61q-169 0 -269 96t-100 252v635q0 155 101 252q101 96 268 96h61q169 0 269 -97t100 -251v-635z
M768 1419q0 -16 -23 -16h-98l-16 10l-90 139q-14 28 -31 0l-88 -139l-16 -10h-99q-25 0 -24 16q0 4 8 17l182 256l16 8h74l17 -8l182 -256q6 -10 6 -17z" />
    <glyph glyph-name="Otilde" unicode="&#xd5;" 
d="M737 328v635q0 78 -53 131t-131 53h-61q-78 0 -132 -53t-53 -131v-635q0 -78 53 -131t132 -54h61q78 -1 131 53t53 132zM922 328q0 -157 -102 -254q-102 -96 -267 -94h-61q-169 0 -269 96t-100 252v635q0 155 101 252q101 96 268 96h61q169 0 269 -97t100 -251v-635z
M649 1430q-63 0 -129 53l-41 26q-41 27 -78 27t-60 -22t-37 -37q-14 -14 -23 -2l-45 32q-20 12 0 45q72 117 186 117q52 0 113 -49l38 -31q31 -25 74 -24t68 23q25 24 35 34t17 10t11 -4l41 -33q8 -8 8 -15t-2 -11q-78 -139 -176 -139z" />
    <glyph glyph-name="Odieresis" unicode="&#xd6;" 
d="M737 328v635q0 78 -53 131t-131 53h-61q-78 0 -132 -53t-53 -131v-635q0 -78 53 -131t132 -54h61q78 -1 131 53t53 132zM922 328q0 -157 -102 -254q-102 -96 -267 -94h-61q-169 0 -269 96t-100 252v635q0 155 101 252q101 96 268 96h61q169 0 269 -97t100 -251v-635z
M469 1540q0 -41 -30 -72q-31 -30 -73 -30t-72 30t-30 72q0 43 30 73q30 29 73 29t73 -30t29 -72zM788 1540q0 -41 -30 -72q-30 -30 -72 -30q-43 0 -73 30t-29 72q0 43 29 73q30 29 73 29t73 -30q29 -31 29 -72z" />
    <glyph glyph-name="multiply" unicode="&#xd7;" horiz-adv-x="1705" 
d="M860 709l469 469l98 -99l-469 -469l469 -469l-98 -96l-469 467l-469 -467l-98 96l469 469l-469 469l98 99z" />
    <glyph glyph-name="Oslash" unicode="&#xd8;" 
d="M737 328v630q0 23 -8 48l-344 -807q-2 -4 -2 -11q0 -16 30.5 -30.5t78.5 -14.5h61q78 0 131 53.5t53 131.5zM670 1094q0 14 -33 33.5t-84 19.5h-61q-78 0 -131.5 -53.5t-53.5 -130.5v-639q0 -18 12 -19q10 0 17 12l332 768q2 2 2 9zM922 328q0 -155 -100.5 -251.5
t-268.5 -96.5h-61q-169 0 -269 96t-100 252v635q0 155 100 251.5t269 96.5h61q168 0 268.5 -97t100.5 -251v-635z" />
    <glyph glyph-name="Ugrave" unicode="&#xd9;" 
d="M922 328q0 -157 -102 -254q-102 -96 -267 -94h-61q-169 0 -269 96t-100 252v942q0 20 20 20h144q20 0 20 -20v-942q0 -78 53 -131t132 -54h61q78 -1 131 53t53 132v942q0 20 21 20h143q20 0 21 -20v-942zM602 1401h-88l-14 6l-260 256q-8 8 -8 21t22 14h180l17 -10
l167 -256q4 -6 5 -17q0 -14 -21 -14z" />
    <glyph glyph-name="Uacute" unicode="&#xda;" 
d="M922 328q0 -157 -102 -254q-102 -96 -267 -94h-61q-169 0 -269 96t-100 252v942q0 20 20 20h144q20 0 20 -20v-942q0 -78 53 -131t132 -54h61q78 -1 131 53t53 132v942q0 20 21 20h143q20 0 21 -20v-942zM442 1401q-20 0 -20 16q0 8 4 15l168 256l16 10h181q23 0 22 -19
q0 -8 -8 -16l-260 -256l-15 -6h-88z" />
    <glyph glyph-name="Ucircumflex" unicode="&#xdb;" 
d="M922 328q0 -157 -102 -254q-102 -96 -267 -94h-61q-169 0 -269 96t-100 252v942q0 20 20 20h144q20 0 20 -20v-942q0 -78 53 -131t132 -54h61q78 -1 131 53t53 132v942q0 20 21 20h143q20 0 21 -20v-942zM768 1419q0 -16 -23 -16h-98l-16 10l-90 139q-14 28 -31 0
l-88 -139l-16 -10h-99q-25 0 -24 16q0 4 8 17l182 256l16 8h74l17 -8l182 -256q6 -10 6 -17z" />
    <glyph glyph-name="Udieresis" unicode="&#xdc;" 
d="M922 328q0 -157 -102 -254q-102 -96 -267 -94h-61q-169 0 -269 96t-100 252v942q0 20 20 20h144q20 0 20 -20v-942q0 -78 53 -131t132 -54h61q78 -1 131 53t53 132v942q0 20 21 20h143q20 0 21 -20v-942zM469 1540q0 -41 -30 -72q-31 -30 -73 -30t-72 30t-30 72
q0 43 30 73q30 29 73 29t73 -30t29 -72zM788 1540q0 -41 -30 -72q-30 -30 -72 -30q-43 0 -73 30t-29 72q0 43 29 73q30 29 73 29t73 -30q29 -31 29 -72z" />
    <glyph glyph-name="Yacute" unicode="&#xdd;" horiz-adv-x="921" 
d="M553 20q0 -20 -21 -20h-143q-20 0 -20 20v572l-357 668q-4 12 -4 14q0 16 23 16h168l18 -12l225 -467q6 -14 18 -14t19 14l226 467l18 12h168q23 0 22 -16q0 -2 -4 -14l-356 -668v-572zM383 1401q-21 0 -21 12t5 19l168 256l16 10h180q23 0 23 -19q-1 -8 -9 -16
l-260 -256l-14 -6h-88z" />
    <glyph glyph-name="Thorn" unicode="&#xde;" horiz-adv-x="993" 
d="M768 737v21q0 78 -53 131t-131 53h-226q-20 0 -20 -20v-349q0 -20 20 -20h226q78 0 131 53t53 131zM584 1106q170 0 269 -99.5t99 -261.5t-101 -259t-267 -97h-226q-20 0 -20 -20v-349q0 -20 -21 -20h-143q-20 0 -20 20v1250q0 20 20 20h143q20 0 21 -20v-144
q0 -20 20 -20h226z" />
    <glyph glyph-name="germandbls" unicode="&#xdf;" horiz-adv-x="987" 
d="M901 344q0 -163 -97.5 -262.5t-234.5 -99.5q-20 0 -28.5 3t-8.5 17v123q0 10 5 13t27 13q83 37 118 69t35 108v61q0 106 -65.5 136t-87.5 40t-27 13.5t-5 13.5v127q0 10 5 13t27 13q83 37 118 69t35 108v41q0 74 -53 129t-133 55q-81 0 -132 -53.5t-51 -130.5v-943
q0 -20 -20 -20h-144q-20 0 -20 20v625q0 20 -21 21h-51q-20 0 -20 20v123q0 20 20 20h51q20 0 21 21v92q0 158 109 263.5t269 105.5q161 0 260 -101t99 -268v-41q0 -78 -63 -166q-27 -37 -51.5 -54t-24.5 -27.5t24.5 -29t51.5 -59.5q63 -94 63 -170v-51z" />
    <glyph glyph-name="agrave" unicode="&#xe0;" horiz-adv-x="972" 
d="M655 358q0 20 -20 21h-236q-39 0 -65 -26t-25 -64v-33q0 -41 26 -67t64 -25h80q121 0 174 147l2 39v8zM840 20q0 -20 -21 -20h-123q-20 0 -20 20v27q0 23 -13 23t-37 -17t-68 -35t-79 -18h-80q-122 0 -197 72t-75 184v12q0 113 76 184q76 70 196 70h236q20 0 20 21l-2 57
q-4 78 -54 129t-125 51t-113 -41t-53 -63t-22 -23q-7 0 -16 4l-125 66q-12 6 -12 17t22 46t70 78q88 78 250 78t261 -94t102 -248l2 -270v-310zM586 1045q0 -12 -21 -13h-88l-14 6l-260 256q-8 8 -8 19q0 16 22 16h180l17 -10l168 -256q4 -6 4 -18z" />
    <glyph glyph-name="aacute" unicode="&#xe1;" horiz-adv-x="972" 
d="M655 358q0 20 -20 21h-236q-39 0 -65 -26t-25 -64v-33q0 -41 26 -67t64 -25h80q121 0 174 147l2 39v8zM840 20q0 -20 -21 -20h-123q-20 0 -20 20v27q0 23 -13 23t-37 -17t-68 -35t-79 -18h-80q-122 0 -197 72t-75 184v12q0 113 76 184q76 70 196 70h236q20 0 20 21l-2 57
q-4 78 -54 129t-125 51t-113 -41t-53 -63t-22 -23q-7 0 -16 4l-125 66q-12 6 -12 17t22 46t70 78q88 78 250 78t261 -94t102 -248l2 -270v-310zM406 1032q-20 0 -21 17q0 8 4 14l168 256l16 10h181q23 0 22 -18q0 -9 -8 -17l-260 -256l-14 -6h-88z" />
    <glyph glyph-name="acircumflex" unicode="&#xe2;" horiz-adv-x="972" 
d="M655 358q0 20 -20 21h-236q-39 0 -65 -26t-25 -64v-33q0 -41 26 -67t64 -25h80q121 0 174 147l2 39v8zM840 20q0 -20 -21 -20h-123q-20 0 -20 20v27q0 23 -13 23t-37 -17t-68 -35t-79 -18h-80q-122 0 -197 72t-75 184v12q0 113 76 184q76 70 196 70h236q20 0 20 21l-2 57
q-4 78 -54 129t-125 51t-113 -41t-53 -63t-22 -23q-7 0 -16 4l-125 66q-12 6 -12 17t22 46t70 78q88 78 250 78t261 -94t102 -248l2 -270v-310zM731 1051q0 -16 -22 -17h-99l-16 10l-90 140q-6 12 -14 12t-17 -12l-88 -140l-16 -10h-99q-25 0 -24 17q0 4 8 16l182 256l17 8
h73l17 -8l182 -256q6 -10 6 -16z" />
    <glyph glyph-name="atilde" unicode="&#xe3;" horiz-adv-x="972" 
d="M655 358q0 20 -20 21h-236q-39 0 -65 -26t-25 -64v-33q0 -41 26 -67t64 -25h80q121 0 174 147l2 39v8zM840 20q0 -20 -21 -20h-123q-20 0 -20 20v27q0 23 -13 23t-37 -17t-68 -35t-79 -18h-80q-122 0 -197 72t-75 184v12q0 113 76 184q76 70 196 70h236q20 0 20 21l-2 57
q-4 78 -54 129t-125 51t-113 -41t-53 -63t-22 -23q-7 0 -16 4l-125 66q-12 6 -12 17t22 46t70 78q88 78 250 78t261 -94t102 -248l2 -270v-310zM612 1061q-63 0 -129 53l-41 27q-91 60 -162 -19q-18 -20 -25 -20t-11 4l-45 33q-20 12 0 44q73 117 187 117q52 0 112 -49
l39 -30q31 -25 74 -25t68 24t38 37q13 14 24 3l41 -33q8 -7 8 -15t-2 -12q-78 -139 -176 -139z" />
    <glyph glyph-name="adieresis" unicode="&#xe4;" horiz-adv-x="972" 
d="M655 358q0 20 -20 21h-236q-39 0 -65 -26t-25 -64v-33q0 -41 26 -67t64 -25h80q121 0 174 147l2 39v8zM840 20q0 -20 -21 -20h-123q-20 0 -20 20v27q0 23 -13 23t-37 -17t-68 -35t-79 -18h-80q-122 0 -197 72t-75 184v12q0 113 76 184q76 70 196 70h236q20 0 20 21l-2 57
q-4 78 -54 129t-125 51t-113 -41t-53 -63t-22 -23q-7 0 -16 4l-125 66q-12 6 -12 17t22 46t70 78q88 78 250 78t261 -94t102 -248l2 -270v-310zM432 1171q0 -41 -30 -71t-72 -31q-42 0 -73 30q-30 31 -30 73t30 72t73 30q42 0 72 -31t30 -72zM752 1171q0 -41 -30 -71
t-73 -31q-43 0 -73 30q-30 31 -29 73q0 42 30 72q31 30 73 30t72 -31t30 -72z" />
    <glyph glyph-name="aring" unicode="&#xe5;" horiz-adv-x="972" 
d="M584 1268q0 31 -22.5 54.5t-55.5 23.5t-55.5 -23t-22.5 -55v-58q0 -31 22.5 -54t55.5 -23t55.5 23.5t22.5 53.5v58zM690 1210q0 -78 -49 -127t-135 -49t-135 49.5t-49 126.5v58q0 78 49 127t135 49t135 -49t49 -127v-58zM655 358q0 20 -20 21h-236q-39 0 -64.5 -25.5
t-25.5 -64.5v-33q0 -41 25.5 -66.5t64.5 -25.5h80q121 0 174 147l2 39v8zM840 20q0 -20 -21 -20h-123q-20 0 -20 20v27q0 23 -13 23t-64.5 -35t-119.5 -35h-80q-119 0 -195.5 71t-76.5 185v12q0 112 76.5 183t195.5 71h236q20 0 20 21l-2 57q-4 78 -54 129t-125 51t-113 -41
t-53 -63.5t-22 -22.5t-16 4l-125 66q-12 6 -12 17t21.5 46t70.5 78q88 78 250 78t261.5 -94t101.5 -248l2 -270v-310z" />
    <glyph glyph-name="ae" unicode="&#xe6;" horiz-adv-x="1495" 
d="M655 348q0 20 -20 21h-256q-37 0 -64.5 -28t-27.5 -65v-40q0 -39 26.5 -66t65.5 -27h102q100 0 170 144l4 41v20zM1188 573q14 0 17 7.5t3 31.5t-15 56t-40 54.5t-58.5 37t-88 14.5t-110.5 -50.5t-56 -119.5q0 -16 3 -23.5t17 -7.5h328zM1393 451q0 -20 -21 -21h-512
q-20 0 -20 -20v-82q0 -76 53 -130.5t130 -54.5q76 0 111 43q36 43 52 65.5t23 22.5t16 -4l129 -65q12 -6 12 -23t-66.5 -109.5t-270.5 -92.5q-142 0 -224 59q-39 29 -58.5 48t-27.5 19t-20.5 -18t-43.5 -44t-82 -45t-92 -19h-102q-125 0 -201 74t-76 182v40q0 106 74 171
t203 65h256q20 0 20 20v58q0 76 -53 130t-132 54t-114 -43t-49 -63.5t-22 -20.5t-13 2l-129 66q-12 7 -12 25t24.5 53.5t99 90t223.5 54.5t209.5 -52t66.5 -52t66 52t170 52t177.5 -27.5t146.5 -102.5t79 -214v-143z" />
    <glyph glyph-name="ccedilla" unicode="&#xe7;" horiz-adv-x="876" 
d="M621 -279q0 -82 -57.5 -136t-149.5 -54h-99q-20 0 -20 20v82q0 20 20 21h99q29 0 48 19.5t19 47.5v17q0 29 -19.5 49t-47.5 20h-39q-23 0 -23 17q0 4 4 12l66 146q-154 20 -237 110t-83 236v266q0 155 100.5 251.5t268.5 96.5q94 0 175 -36t123 -87t42 -84q0 -10 -12 -16
l-131 -66q-4 -2 -12 -2t-30 32t-56 63.5t-86 31.5q-92 0 -144.5 -54.5t-52.5 -129.5v-266q0 -76 53 -130.5t130 -54.5q76 0 112 43q37 43 52 65.5t22 22.5t16 -4l129 -65q12 -6 12 -15q0 -45 -61.5 -104t-184.5 -98l-37 -78q-2 -4 -2 -10t20 -26t46.5 -49.5t26.5 -86.5v-17z
" />
    <glyph glyph-name="egrave" unicode="&#xe8;" horiz-adv-x="942" 
d="M635 573q14 1 17 9t3 34q0 61 -56 111q-56 51 -131 51t-128 -54t-53 -120q0 -16 3 -23t17 -8h328zM840 451q0 -20 -21 -21h-512q-20 0 -20 -20v-82q0 -77 52 -130t130 -54q79 -1 115 42t50 66q15 23 25 22q4 0 13 -4l129 -65q12 -5 12 -15t-19 -46t-67 -78
q-92 -86 -259 -86t-266 96q-100 96 -100 252v266q0 140 109 244t259 104q149 0 259 -103q111 -103 111 -245v-143zM569 1045q0 -12 -20 -13h-88l-15 6l-260 256q-8 8 -8 19q0 16 23 16h180l16 -10l168 -256q4 -6 4 -18z" />
    <glyph glyph-name="eacute" unicode="&#xe9;" horiz-adv-x="942" 
d="M635 573q14 1 17 9t3 34q0 61 -56 111q-56 51 -131 51t-128 -54t-53 -120q0 -16 3 -23t17 -8h328zM840 451q0 -20 -21 -21h-512q-20 0 -20 -20v-82q0 -77 52 -130t130 -54q79 -1 115 42t50 66q15 23 25 22q4 0 13 -4l129 -65q12 -5 12 -15t-19 -46t-67 -78
q-92 -86 -259 -86t-266 96q-100 96 -100 252v266q0 140 109 244t259 104q149 0 259 -103q111 -103 111 -245v-143zM389 1032q-20 0 -20 17q0 8 4 14l168 256l16 10h180q23 0 23 -18q0 -9 -8 -17l-260 -256l-15 -6h-88z" />
    <glyph glyph-name="ecircumflex" unicode="&#xea;" horiz-adv-x="942" 
d="M635 573q14 1 17 9t3 34q0 61 -56 111q-56 51 -131 51t-128 -54t-53 -120q0 -16 3 -23t17 -8h328zM840 451q0 -20 -21 -21h-512q-20 0 -20 -20v-82q0 -77 52 -130t130 -54q79 -1 115 42t50 66q15 23 25 22q4 0 13 -4l129 -65q12 -5 12 -15t-19 -46t-67 -78
q-92 -86 -259 -86t-266 96q-100 96 -100 252v266q0 140 109 244t259 104q149 0 259 -103q111 -103 111 -245v-143zM715 1051q0 -16 -23 -17h-98l-16 10l-91 140q-6 12 -14 12t-16 -12l-88 -140l-17 -10h-98q-25 0 -25 17q0 4 9 16l182 256l16 8h74l16 -8l183 -256
q6 -10 6 -16z" />
    <glyph glyph-name="edieresis" unicode="&#xeb;" horiz-adv-x="942" 
d="M635 573q14 1 17 9t3 34q0 61 -56 111q-56 51 -131 51t-128 -54t-53 -120q0 -16 3 -23t17 -8h328zM840 451q0 -20 -21 -21h-512q-20 0 -20 -20v-82q0 -77 52 -130t130 -54q79 -1 115 42t50 66q15 23 25 22q4 0 13 -4l129 -65q12 -5 12 -15t-19 -46t-67 -78
q-92 -86 -259 -86t-266 96q-100 96 -100 252v266q0 140 109 244t259 104q149 0 259 -103q111 -103 111 -245v-143zM416 1171q0 -41 -30 -71t-73 -31q-43 0 -73 30q-30 31 -29 73q0 42 30 72q31 30 73 30t72 -31t30 -72zM735 1171q1 -41 -29 -71t-73 -31q-43 0 -73 30
q-30 31 -30 73t30 72t73 30t73 -31t29 -72z" />
    <glyph glyph-name="igrave" unicode="&#xec;" horiz-adv-x="450" 
d="M317 20q0 -20 -20 -20h-143q-20 0 -21 20v881q0 20 21 21h143q20 0 20 -21v-881zM-45 1329h180l17 -10l167 -256q4 -6 5 -16q0 -14 -21 -15h-88l-14 6l-260 256q-8 8 -9 19q0 16 23 16z" />
    <glyph glyph-name="iacute" unicode="&#xed;" horiz-adv-x="450" 
d="M317 20q0 -20 -20 -20h-143q-20 0 -21 20v881q0 20 21 21h143q20 0 20 -21v-881zM143 1032q-20 0 -20 17q0 8 4 14l168 256l16 10h181q23 0 22 -18q0 -9 -8 -17l-260 -256l-15 -6h-88z" />
    <glyph glyph-name="icircumflex" unicode="&#xee;" horiz-adv-x="450" 
d="M317 20q0 -20 -20 -20h-143q-20 0 -21 20v881q0 20 21 21h143q20 0 20 -21v-881zM469 1051q0 -16 -23 -17h-98l-16 10l-90 140q-6 12 -14 12t-17 -12l-88 -140l-17 -10h-98q-25 0 -24 17q0 4 8 16l182 256l16 8h74l17 -8l182 -256q6 -10 6 -16z" />
    <glyph glyph-name="idieresis" unicode="&#xef;" horiz-adv-x="450" 
d="M317 20q0 -20 -20 -20h-143q-20 0 -21 20v881q0 20 21 21h143q20 0 20 -21v-881zM170 1171q0 -41 -30 -71t-72 -31q-42 0 -73 30q-30 31 -30 73t30 72t73 30q42 0 72 -31t30 -72zM489 1171q1 -41 -29 -71t-73 -31q-43 0 -73 30q-30 31 -30 73t30 72t73 30t73 -31t29 -72z
" />
    <glyph glyph-name="eth" unicode="&#xf0;" 
d="M707 328v82q0 76 -53.5 130t-131.5 54t-131 -55t-53 -129v-82q0 -75 53 -130t131 -55t131.5 54.5t53.5 130.5zM1036 1195q0 -9 -8 -15l-139 -99q-8 -8 -8 -18t5 -34.5t5 -65.5v-635q0 -157 -101 -252.5t-268.5 -95.5t-267.5 96t-100 252v82q0 150 97.5 249t242.5 99
q66 0 110.5 -23.5t61 -34t28.5 -10.5t13 23v202q0 23 -17 23q-8 0 -16 -6l-117 -84q-10 -6 -16 -6t-13 10l-45 68q-4 4 -4 13t8 15l162 115q10 6 10.5 14t-19.5 28q-41 42 -119 42t-114 -43q-37 -43 -49 -64.5t-19 -21.5t-15 4l-129 65q-32 16 17.5 88t141.5 104t168 32
q131 0 205 -54q43 -31 64.5 -51t27.5 -20t17 6l122 86q8 6 16 6t13 -10l45 -66q4 -4 4 -13z" />
    <glyph glyph-name="ntilde" unicode="&#xf1;" horiz-adv-x="1003" 
d="M870 20q0 -20 -20 -20h-143q-20 0 -21 20v553q0 77 -52 130t-131 54t-132 -53t-54 -131v-553q0 -20 -20 -20h-143q-20 0 -21 20v881q0 20 21 21h122q20 0 21 -21v-24q0 -23 12 -23q13 0 29 10q160 97 320 32q64 -26 112 -72q102 -100 100 -251v-553zM627 1061
q-63 0 -129 53l-41 27q-96 63 -171 -29q-8 -10 -16 -10t-12 4l-45 33q-10 6 -10 16t15 35q66 110 182 110q52 0 112 -49l39 -30q31 -25 78 -25t99 57q15 17 28 7l41 -33q8 -7 8 -15t-2 -12q-78 -139 -176 -139z" />
    <glyph glyph-name="ograve" unicode="&#xf2;" horiz-adv-x="942" 
d="M655 328v266q0 76 -53 130t-131 54t-131 -54t-53 -130v-266q0 -77 52 -130t131 -54q79 0 132 54t53 130zM840 328q0 -157 -102 -254q-102 -96 -269 -95q-168 1 -267 97q-100 96 -100 252v266q0 155 102 253q102 97 267 96q166 -1 267 -98q102 -97 102 -251v-266z
M569 1045q0 -12 -20 -13h-88l-15 6l-260 256q-8 8 -8 19q0 16 23 16h180l16 -10l168 -256q4 -6 4 -18z" />
    <glyph glyph-name="oacute" unicode="&#xf3;" horiz-adv-x="942" 
d="M655 328v266q0 76 -53 130t-131 54t-131 -54t-53 -130v-266q0 -77 52 -130t131 -54q79 0 132 54t53 130zM840 328q0 -157 -102 -254q-102 -96 -269 -95q-168 1 -267 97q-100 96 -100 252v266q0 155 102 253q102 97 267 96q166 -1 267 -98q102 -97 102 -251v-266z
M389 1032q-20 0 -20 17q0 8 4 14l168 256l16 10h180q23 0 23 -18q0 -9 -8 -17l-260 -256l-15 -6h-88z" />
    <glyph glyph-name="ocircumflex" unicode="&#xf4;" horiz-adv-x="942" 
d="M655 328v266q0 76 -53 130t-131 54t-131 -54t-53 -130v-266q0 -77 52 -130t131 -54q79 0 132 54t53 130zM840 328q0 -157 -102 -254q-102 -96 -269 -95q-168 1 -267 97q-100 96 -100 252v266q0 155 102 253q102 97 267 96q166 -1 267 -98q102 -97 102 -251v-266z
M715 1051q0 -16 -23 -17h-98l-16 10l-91 140q-6 12 -14 12t-16 -12l-88 -140l-17 -10h-98q-25 0 -25 17q0 4 9 16l182 256l16 8h74l16 -8l183 -256q6 -10 6 -16z" />
    <glyph glyph-name="otilde" unicode="&#xf5;" horiz-adv-x="942" 
d="M655 328v266q0 76 -53 130t-131 54t-131 -54t-53 -130v-266q0 -77 52 -130t131 -54q79 0 132 54t53 130zM840 328q0 -157 -102 -254q-102 -96 -269 -95q-168 1 -267 97q-100 96 -100 252v266q0 155 102 253q102 97 267 96q166 -1 267 -98q102 -97 102 -251v-266z
M596 1061q-63 0 -129 53l-41 27q-83 54 -148 -6q-12 -13 -22 -23t-17 -10t-12 4l-45 33q-10 6 -10 16t15 35q15 26 40 50q62 60 127 60q66 0 127 -49l39 -30q31 -25 78 -25t99 57q17 18 28 7l41 -33q8 -7 8 -15t-2 -12q-78 -139 -176 -139z" />
    <glyph glyph-name="odieresis" unicode="&#xf6;" horiz-adv-x="942" 
d="M655 328v266q0 76 -53 130t-131 54t-131 -54t-53 -130v-266q0 -77 52 -130t131 -54q79 0 132 54t53 130zM840 328q0 -157 -102 -254q-102 -96 -269 -95q-168 1 -267 97q-100 96 -100 252v266q0 155 102 253q102 97 267 96q166 -1 267 -98q102 -97 102 -251v-266z
M416 1171q0 -41 -30 -71t-73 -31q-43 0 -73 30q-30 31 -29 73q0 42 30 72q31 30 73 30t72 -31t30 -72zM735 1171q1 -41 -29 -71t-73 -31q-43 0 -73 30q-30 31 -30 73t30 72t73 30t73 -31t29 -72z" />
    <glyph glyph-name="divide" unicode="&#xf7;" horiz-adv-x="1705" 
d="M854 367q51 0 88 -36t37 -88t-36 -89t-89 -37t-89 35.5t-36 89t37 89.5t88 36zM1452 680v-139h-1198v139h1198zM854 1106q51 0 88 -37t37 -89t-36 -89t-89 -37t-89 36t-36 89t37 90t88 37z" />
    <glyph glyph-name="oslash" unicode="&#xf8;" horiz-adv-x="942" 
d="M539 741q2 5 2 11t-15 16q-30 10 -62 10q-68 0 -122.5 -54t-54.5 -130v-266q0 -76 28 -76q12 0 19 16zM655 328v266q0 45 -12 70.5t-24.5 25.5t-18.5 -14l-207 -494v-8q0 -31 77 -31t131 54t54 131zM840 328q0 -153 -101.5 -250.5t-268.5 -97.5t-267.5 96.5t-100.5 251.5
v266q0 155 100.5 251.5t267.5 96.5t268.5 -97.5t101.5 -250.5v-266z" />
    <glyph glyph-name="ugrave" unicode="&#xf9;" horiz-adv-x="983" 
d="M850 20q0 -20 -21 -20h-122q-20 0 -21 20v25q0 23 -12 23t-44 -20t-75 -34t-105 -14t-126 26q-132 53 -185 181q-27 63 -26 141v553q0 20 20 21h143q20 0 21 -21v-553q0 -75 52 -129q52 -55 133 -55q80 0 131 54t53 130v553q0 20 20 21h143q20 0 21 -21v-881zM590 1045
q0 -12 -21 -13h-88l-14 6l-260 256q-8 8 -8 19q0 16 22 16h180l17 -10l168 -256q4 -6 4 -18z" />
    <glyph glyph-name="uacute" unicode="&#xfa;" horiz-adv-x="983" 
d="M850 20q0 -20 -21 -20h-122q-20 0 -21 20v25q0 23 -12 23t-44 -20t-75 -34t-105 -14t-126 26q-132 53 -185 181q-27 63 -26 141v553q0 20 20 21h143q20 0 21 -21v-553q0 -75 52 -129q52 -55 133 -55q80 0 131 54t53 130v553q0 20 20 21h143q20 0 21 -21v-881zM410 1032
q-20 0 -21 17q0 8 4 14l168 256l17 10h180q23 0 22 -18q0 -9 -8 -17l-260 -256l-14 -6h-88z" />
    <glyph glyph-name="ucircumflex" unicode="&#xfb;" horiz-adv-x="983" 
d="M850 20q0 -20 -21 -20h-122q-20 0 -21 20v25q0 23 -12 23t-44 -20t-75 -34t-105 -14t-126 26q-132 53 -185 181q-27 63 -26 141v553q0 20 20 21h143q20 0 21 -21v-553q0 -75 52 -129q52 -55 133 -55q80 0 131 54t53 130v553q0 20 20 21h143q20 0 21 -21v-881zM735 1051
q0 -16 -22 -17h-99l-16 10l-90 140q-6 12 -14 12t-17 -12l-88 -140l-16 -10h-99q-25 0 -24 17q0 4 8 16l182 256l17 8h73l17 -8l182 -256q6 -10 6 -16z" />
    <glyph glyph-name="udieresis" unicode="&#xfc;" horiz-adv-x="983" 
d="M850 20q0 -20 -21 -20h-122q-20 0 -21 20v25q0 23 -12 23t-44 -20t-75 -34t-105 -14t-126 26q-132 53 -185 181q-27 63 -26 141v553q0 20 20 21h143q20 0 21 -21v-553q0 -75 52 -129q52 -55 133 -55q80 0 131 54t53 130v553q0 20 20 21h143q20 0 21 -21v-881zM436 1171
q0 -41 -30 -71t-72 -31q-43 0 -73 30q-30 31 -30 73t30 72t73 30q42 0 72 -31t30 -72zM756 1171q0 -41 -30 -71t-73 -31q-43 0 -73 30q-30 31 -29 73q0 42 30 72q31 30 73 30t72 -31t30 -72z" />
    <glyph glyph-name="yacute" unicode="&#xfd;" horiz-adv-x="983" 
d="M850 -113q0 -172 -97 -270t-258 -98t-228 52q-128 98 -128 157q0 8 13 14q129 65 139 70q8 0 22 -20q57 -81 109 -100q26 -9 62 -9q79 0 129 54q51 54 53 130v170q0 23 -17 22q-10 0 -24 -9q-133 -85 -282 -30t-204 186q-27 65 -26 142v553q0 20 20 21h143q20 0 21 -21
v-553q0 -75 52 -129q52 -55 133 -55q80 0 131 54t53 130v553q0 20 20 21h143q20 0 21 -21v-1014zM410 1032q-20 0 -21 17q0 8 4 14l168 256l17 10h180q23 0 22 -18q0 -9 -8 -17l-260 -256l-14 -6h-88z" />
    <glyph glyph-name="thorn" unicode="&#xfe;" horiz-adv-x="972" 
d="M686 348v225q0 75 -53 130t-131 55t-131.5 -54.5t-53.5 -130.5v-225q0 -76 53.5 -130t131.5 -54t131 55t53 129zM870 348q0 -152 -98 -250t-240 -98q-76 0 -118.5 23.5t-58 34t-21.5 10.5q-16 0 -17 -23v-485q0 -20 -20 -21h-143q-20 0 -21 21v1710q0 20 21 20h143
q20 0 20 -20v-393q0 -23 17 -23q6 0 21.5 10t59 34t116.5 24q144 0 241.5 -97.5t97.5 -251.5v-225z" />
    <glyph glyph-name="ydieresis" unicode="&#xff;" horiz-adv-x="983" 
d="M850 -113q0 -172 -97 -270t-258 -98t-228 52q-128 98 -128 157q0 8 13 14q129 65 139 70q8 0 22 -20q57 -81 109 -100q26 -9 62 -9q79 0 129 54q51 54 53 130v170q0 23 -17 22q-10 0 -24 -9q-133 -85 -282 -30t-204 186q-27 65 -26 142v553q0 20 20 21h143q20 0 21 -21
v-553q0 -75 52 -129q52 -55 133 -55q80 0 131 54t53 130v553q0 20 20 21h143q20 0 21 -21v-1014zM436 1171q0 -41 -30 -71t-72 -31q-43 0 -73 30q-30 31 -30 73t30 72t73 30q42 0 72 -31t30 -72zM756 1171q0 -41 -30 -71t-73 -31q-43 0 -73 30q-30 31 -29 73q0 42 30 72
q31 30 73 30t72 -31t30 -72z" />
    <glyph glyph-name="OE" unicode="&#x152;" horiz-adv-x="1566" 
d="M737 328v635q0 78 -53 131t-131 53h-61q-78 0 -131.5 -53.5t-53.5 -130.5v-635q0 -78 53.5 -131.5t131.5 -53.5h61q78 0 131 53.5t53 131.5zM553 -20h-61q-169 0 -269 96t-100 252v635q0 155 100 251.5t269 96.5h61q70 0 129 -21h772q20 0 21 -20v-123q0 -20 -21 -21
h-536q-20 0 -21 -12q0 -16 12.5 -54t12.5 -97v-205q0 -20 20 -21h420q20 0 20 -20v-123q0 -20 -20 -21h-420q-20 0 -20 -20v-225q0 -61 -12.5 -98t-12.5 -54q0 -12 21 -12h536q20 0 21 -21v-123q0 -20 -21 -20h-764q-70 -20 -137 -20z" />
    <glyph glyph-name="oe" unicode="&#x153;" horiz-adv-x="1495" 
d="M655 328v266q0 76 -53 130t-131 54t-131 -54t-53 -130v-266q0 -76 53 -130.5t131 -54.5t131 54.5t53 130.5zM1188 573q14 0 17 7.5t3 31.5q0 58 -54 112t-130 54q-123 0 -186 -143q2 -13 2 -23v-16q0 -23 20 -23h328zM1393 451q0 -20 -21 -21h-512q-20 0 -20 -20v-97
q0 -8 -2 -24q72 -145 186 -146q75 0 110 43q36 43 52 65.5t23 22.5t16 -4l129 -65q12 -6 12 -23t-66.5 -109.5t-275.5 -92.5q-108 0 -158 30q-51 30 -81.5 49t-39.5 19t-122 -72q-47 -26 -141 -26q-178 0 -279 96.5t-101 251.5v266q0 155 100.5 251.5t268.5 96.5
q119 0 175 -36t79 -52t29 -16t67.5 52t206.5 52q146 0 255.5 -103t109.5 -245v-143z" />
    <glyph glyph-name="Scaron" unicode="&#x160;" horiz-adv-x="901" 
d="M451 1147q-77 0 -130 -52t-54 -129t70 -129q41 -31 159 -85t178 -95q121 -83 159 -195q19 -58 19 -135q0 -151 -102 -250t-267 -97h-86q-147 0 -214 53q-126 98 -126 157q0 8 13 15l129 65q8 4 13 4t31 -37t58 -64q31 -28 96 -30h86q76 -1 130 53q55 54 55 114t-16 94
q-32 63 -127 112q-47 24 -117 58q-173 82 -240 152q-88 90 -87 241t102 248q101 96 268 96h32q137 0 246 -75q45 -32 70 -68q43 -63 12 -81l-131 -65q-4 -2 -11 -2t-29 30t-56 63q-35 34 -101 34h-32zM471 1536q8 0 14 12l90 140l17 10h98q23 0 23 -17q0 -8 -6 -16
l-183 -256l-16 -8h-74l-16 8l-182 256q-6 8 -6 20t22 13h98l17 -10l88 -140q8 -12 16 -12z" />
    <glyph glyph-name="scaron" unicode="&#x161;" horiz-adv-x="901" 
d="M416 784q-150 0 -150 -111q0 -56 56 -81t152 -44q96 -18 158 -38q122 -39 163 -120q20 -42 20 -101q0 -139 -91 -224t-247 -85h-61q-142 0 -239 70t-95 136q0 8 12 15l119 59q8 4 11 4t16 -12q36 -47 72 -81t104 -34h61q72 0 114 35t42 76t-23 68t-98 44q-76 17 -139 29
q-145 29 -216 83t-71 178t92 209t238 83h61q143 0 239 -70q95 -70 95 -137q0 -8 -12 -14l-119 -59q-14 -7 -19 -2q-41 53 -80 89q-38 36 -104 35h-61zM211 1313q0 16 22 16h99l16 -10l88 -139q18 -27 31 0l90 139l16 10h99q23 0 22 -16q0 -9 -6 -17l-182 -256l-17 -8h-73
l-17 8l-182 256q-6 8 -6 17z" />
    <glyph glyph-name="Ydieresis" unicode="&#x178;" horiz-adv-x="921" 
d="M553 20q0 -20 -21 -20h-143q-20 0 -20 20v572l-357 668q-4 12 -4 14q0 16 23 16h168l18 -12l225 -467q6 -14 18 -14t19 14l226 467l18 12h168q23 0 22 -16q0 -2 -4 -14l-356 -668v-572zM410 1540q0 -41 -30 -72q-30 -30 -73 -30t-73 30t-29 72q0 43 29 73q30 29 73 29
t73 -30t30 -72zM729 1540q0 -41 -30 -72q-31 -30 -73 -30t-72 30t-30 72q0 43 30 73q30 29 73 29t73 -30t29 -72z" />
    <glyph glyph-name="florin" unicode="&#x192;" 
d="M749 1147q-26 0 -60 -14.5t-72.5 -54.5t-38.5 -115v-205q0 -20 20 -21h143q20 0 21 -20v-123q0 -20 -21 -21h-143q-20 0 -20 -20v-666q0 -145 -106 -257t-263 -111q-57 0 -84 5t-27 21q0 4 2 9l41 118q6 14 21 15l47 -4q78 0 131 54t53 130v686q0 20 -20 20h-51
q-20 0 -21 21v123q0 20 21 20h51q20 0 20 21v184q0 151 107 260q98 109 262 109q112 0 112 -27q0 -4 -2 -8l-41 -119q-6 -14 -20 -14q-36 4 -62 4z" />
    <glyph glyph-name="circumflex" unicode="&#x2c6;" horiz-adv-x="1024" 
d="M756 1051q0 -16 -23 -17h-98l-17 10l-90 140q-6 12 -14 12t-16 -12l-88 -140l-17 -10h-98q-25 0 -25 17q0 4 9 16l182 256l16 8h74l16 -8l183 -256q6 -10 6 -16z" />
    <glyph glyph-name="tilde" unicode="&#x2dc;" horiz-adv-x="1024" 
d="M637 1061q-63 0 -129 53l-41 27q-83 54 -122.5 17.5t-48.5 -46.5t-16 -10t-12 4l-45 33q-10 6 -10 16q0 27 57.5 86t124.5 59q66 0 127 -49l39 -30q31 -25 66 -25t54 10.5t33.5 23.5t24 23.5t16.5 10.5t11 -4l41 -33q8 -7 8 -15t-2 -12q-78 -139 -176 -139z" />
    <glyph glyph-name="endash" unicode="&#x2013;" 
d="M1004 451q0 -20 -21 -21h-922q-20 0 -20 21v81q0 20 20 21h922q20 0 21 -21v-81z" />
    <glyph glyph-name="emdash" unicode="&#x2014;" horiz-adv-x="1597" 
d="M1556 451q0 -20 -20 -21h-1475q-20 0 -20 21v81q0 20 20 21h1475q20 0 20 -21v-81z" />
    <glyph glyph-name="quoteleft" unicode="&#x2018;" horiz-adv-x="362" 
d="M299 1294q0 -8 -43 -40t-43 -132q0 -31 20 -30h23q20 0 20 -21v-137q0 -20 -20 -21h-154q-20 0 -20 21v119q0 140 55 230.5t117 90.5q10 0 16 -12l27 -55q2 -5 2 -13z" />
    <glyph glyph-name="quoteright" unicode="&#x2019;" horiz-adv-x="362" 
d="M281 1151q0 -141 -42 -210t-72 -90.5t-47 -21.5t-24 13l-28 55q-2 4 -2 10t42 43t42 121q0 23 -3.5 32t-17.5 9h-23q-20 0 -20 21v137q0 20 20 20h154q20 0 21 -20v-119z" />
    <glyph glyph-name="quotesinglbase" unicode="&#x201a;" horiz-adv-x="362" 
d="M281 86q0 -119 -37 -196.5t-121 -122.5q-8 -4 -12 -5q-10 0 -17 15l-26 55q-2 4 -2 10t20 27t42 52.5t22 69.5t-3.5 47t-17.5 9h-23q-20 0 -20 21v137q0 20 20 20h154q20 0 21 -20v-119z" />
    <glyph glyph-name="quotedblleft" unicode="&#x201c;" horiz-adv-x="645" 
d="M299 1294q0 -8 -43 -40t-43 -132q0 -31 20 -30h23q20 0 20 -21v-137q0 -20 -20 -21h-154q-20 0 -20 21v119q0 140 55 230.5t117 90.5q10 0 16 -12l27 -55q2 -5 2 -13zM582 1294q0 -8 -43 -39t-43 -133q0 -16 3 -23t17 -7h23q20 0 20 -21v-137q0 -20 -20 -21h-154
q-20 0 -20 21v119q0 142 55.5 231.5t116.5 89.5q10 0 16 -12l27 -55q2 -5 2 -13z" />
    <glyph glyph-name="quotedblright" unicode="&#x201d;" horiz-adv-x="645" 
d="M281 1151q0 -141 -42 -210t-72 -90.5t-47 -21.5t-24 13l-28 55q-2 4 -2 10t42 43t42 121q0 23 -3.5 32t-17.5 9h-23q-20 0 -20 21v137q0 20 20 20h154q20 0 21 -20v-119zM563 1151q0 -137 -56 -229.5t-114 -92.5q-8 0 -14 13l-29 55q-2 4 -2 10t13.5 17.5t30 31t29.5 47
t13 68.5t-22 41h-23q-20 0 -20 21v137q0 20 20 20h154q20 0 20 -20v-119z" />
    <glyph glyph-name="quotedblbase" unicode="&#x201e;" horiz-adv-x="645" 
d="M281 86q0 -119 -37 -196.5t-121 -122.5q-8 -4 -12 -5q-10 0 -17 15l-26 55q-2 4 -2 10t20 27t42 52.5t22 69.5t-3.5 47t-17.5 9h-23q-20 0 -20 21v137q0 20 20 20h154q20 0 21 -20v-119zM563 86q0 -119 -37 -196.5t-120 -122.5q-8 -4 -13 -5q-10 0 -16 15l-27 55
q-2 4 -2 10t20 27t43 52.5t23 78.5t-22 47h-23q-20 0 -20 21v137q0 20 20 20h154q20 0 20 -20v-119z" />
    <glyph glyph-name="dagger" unicode="&#x2020;" horiz-adv-x="839" 
d="M821 803q0 -20 -18 -21h-4l-301 25h-6q-16 0 -17 -16v-7l21 -133l-39 -1091q0 -20 -21 -21h-49q-20 0 -20 21l-39 1091l20 133v7q0 16 -16 16h-6l-303 -25h-5q-18 0 -18 21v133q0 20 18 20h5l307 -26h4q18 0 18 18v4l-24 316v4q0 18 20 18h127q20 0 21 -18v-4l-25 -316
v-4q0 -18 18 -18h5l305 26h4q18 0 18 -20v-133z" />
    <glyph glyph-name="daggerdbl" unicode="&#x2021;" horiz-adv-x="839" 
d="M821 369q0 -20 -18 -21h-4l-295 25h-4q-18 0 -19 -21l-24 -792q0 -20 -21 -21h-49q-20 0 -20 21l-25 792q0 20 -18 21h-5l-296 -25h-5q-18 0 -18 21v133q0 20 18 20h5l292 -26h4q18 0 19 18v4l-10 135l20 131v7q0 16 -16 16h-6l-303 -25h-5q-18 0 -18 21v133q0 20 18 20
h5l307 -26h4q18 0 18 18v4l-24 316v4q0 18 20 18h127q20 0 21 -18v-4l-25 -316v-4q0 -18 18 -18h5l305 26h4q18 0 18 -20v-133q0 -20 -18 -21h-4l-301 25h-6q-16 0 -17 -16v-7l21 -129l-11 -137v-6q0 -16 17 -16h6l291 26h4q18 0 18 -20v-133z" />
    <glyph glyph-name="bullet" unicode="&#x2022;" horiz-adv-x="901" 
d="M762 625q0 -129 -83 -208t-224 -79h-9q-141 0 -224 79t-83 208v41q0 129 83 207.5t224 78.5h9q141 0 224 -78.5t83 -207.5v-41z" />
    <glyph glyph-name="ellipsis" unicode="&#x2026;" horiz-adv-x="940" 
d="M543 -20h-62q-172 0 -270 97t-98 267v62q0 76 63 169q27 39 51.5 57.5t24.5 31t-25.5 30t-50.5 51.5q-63 88 -63 166v31q0 172 99 270.5t269 98.5h62q143 -1 212 -53q128 -99 128 -156q0 -8 -13 -15l-129 -65q-4 -2 -12 -2t-21 18t-28.5 39t-45.5 45.5t-91 24.5h-62
q-78 0 -131 -53.5t-53 -130.5v-31q0 -78 53 -131t131 -53h164q20 0 21 -21v-123q0 -20 -21 -20h-164q-78 0 -131 -53.5t-53 -131.5v-71q0 -78 53 -131.5t131 -53.5h62q80 1 115 43t48 65t20 23t15 -4l129 -65q31 -15 -7 -67t-85 -89q-88 -69 -235 -69z" />
    <glyph glyph-name="perthousand" unicode="&#x2030;" horiz-adv-x="1519" 
d="M825 174v205q0 31 -20.5 51.5t-52.5 20.5t-51 -20.5t-19 -51.5v-205q0 -31 19.5 -51.5t51.5 -20.5t52 20.5t20 51.5zM365 911v205q0 31 -20.5 51.5t-51.5 20.5t-51.5 -20.5t-20.5 -51.5v-205q0 -31 19.5 -51t51.5 -20t52.5 20t20.5 51zM1300 174v205q0 31 -19 51.5
t-52 20.5t-52.5 -20.5t-19.5 -51.5v-205q0 -31 19.5 -51.5t52.5 -20.5t52 20.5t19 51.5zM938 174q0 -78 -49 -126t-135 -48t-135.5 48t-49.5 126v205q0 78 49.5 126t135.5 48t135 -48t49 -126v-205zM231 0q-23 0 -22 14q0 2 4 15l535 1249q6 12 18 12h49q23 0 23 -16
q0 -4 -4 -12l-535 -1250q-4 -10 -18 -12h-50zM477 911q0 -78 -49 -126t-135 -48t-135 48.5t-49 125.5v205q0 78 49 126t135 48t135 -48t49 -126v-205zM1413 174q0 -78 -49 -126t-135 -48t-135.5 48t-49.5 126v205q0 78 49.5 126t135.5 48t135 -48t49 -126v-205z" />
    <glyph glyph-name="guilsinglleft" unicode="&#x2039;" horiz-adv-x="692" 
d="M557 223q0 -23 -16 -22q-8 0 -17 6l-403 287l-8 16v121l8 16l403 289q8 6 17 6q16 0 16 -22v-117l-8 -17l-277 -198q-10 -8 -10 -16.5t10 -16.5l277 -199l8 -16v-117z" />
    <glyph glyph-name="guilsinglright" unicode="&#x203a;" horiz-adv-x="692" 
d="M150 201q-14 0 -15 22v117l8 16l277 199q10 6 10 16.5t-10 16.5l-277 198l-8 17v117q0 23 17 22q6 0 16 -6l405 -289l9 -16v-121l-9 -16l-405 -287q-10 -6 -18 -6z" />
    <glyph glyph-name="trademark" unicode="&#x2122;" horiz-adv-x="835" 
d="M319 1079q0 -20 -20 -20h-55q-20 0 -21 -21v-280q0 -20 -20 -21h-25q-20 0 -20 21v280q0 20 -21 21h-55q-20 0 -21 20v23q0 20 21 20h217q20 0 20 -20v-23zM754 758q0 -20 -21 -21h-24q-20 0 -21 21v147q0 25 -20 25q-8 0 -19 -15l-51 -84l-18 -10h-9l-16 10l-55 84
q-10 12 -21 13q-16 0 -16 -23v-147q0 -20 -21 -21h-24q-20 0 -21 21v344q0 20 21 20h24l19 -10l96 -166q10 -14 18.5 -14t18.5 14l96 166l19 10h24q20 0 21 -20v-344z" />
    <glyph glyph-name="minus" unicode="&#xe000;" horiz-adv-x="1705" 
d="M1452 682v-141h-1198v141h1198z" />
    </font>
</defs>
</svg>
