<?xml version="1.0" standalone="no"?>
<!DOCTYPE svg PUBLIC "-//W3C//DTD SVG 1.1//EN" "http://www.w3.org/Graphics/SVG/1.1/DTD/svg11.dtd" >
<svg xmlns="http://www.w3.org/2000/svg">
<metadata>
Created by FontPrep 20130207 at Mon Aug 19 20:13:30 2013
 By Fabien Postif
Copyright (c) Agfa Monotype Corporation, 2002. All rights reserved.  ITC Conduit is designed by Mark van Bronkhorst, MvB Design. ITC Conduit is a trademark of International Typeface Corporation.
</metadata>
<defs>
<font id="158f2b274870fc2f5448dfcd28a70fdb" >
  <font-face 
    font-family="ConduitITCBlack-Italic"
    font-weight="400"
    font-style="italic"
    font-stretch="normal"
    units-per-em="2048"
    panose-1="2 0 5 6 8 0 0 2 0 4"
    ascent="1638"
    descent="-410"
    x-height="967"
    cap-height="1292"
    bbox="-331 -485.014 1851.21 1878"
    underline-thickness="40"
    underline-position="-231"
    slope="-11"
    unicode-range="U+0020-FB04"
  />
<missing-glyph horiz-adv-x="364" 
 />
    <glyph glyph-name="ff" unicode="ff" horiz-adv-x="1251" 
d="M663 1024q-95 0 -116 -98l-8 -39q-4 -21 22 -21h213q27 0 29 21q12 49 22 74q8 25 -10 34q-57 29 -152 29zM1270 1024q-100 0 -121 -98l-8 -39q-4 -21 22 -21h133q18 0 17 -20l-43 -240q-2 -20 -25 -20h-133q-25 0 -27 -21l-84 -475q-39 -223 -184 -351t-350 -128
q-94 0 -164 16q-20 6 -14 29l106 238q8 16 43 10t85 -6t83 26t41 72l101 569q4 21 -27 21h-211q-25 0 -27 -21l-100 -567q-39 -223 -184 -351t-351 -128q-94 0 -163 16q-20 6 -15 29l107 237q8 17 43 11t85 -6t83 26q33 27 41 72l116 661q4 21 -26 21h-56q-16 0 -14 20
l43 240q2 20 23 20h57q27 0 29 21q45 190 186 307t329 117t296 -76q16 -10 35 0q123 76 282 76q92 0 162 -17q26 -5 14 -28l-104 -238q-8 -16 -44 -10t-87 6z" />
    <glyph glyph-name="fi" unicode="fi" horiz-adv-x="1142" 
d="M719 1024h-51q-100 0 -121 -98l-8 -39q-4 -21 22 -21h133q18 0 17 -20l-43 -240q-2 -20 -25 -20h-133q-25 0 -27 -21l-100 -567q-39 -223 -184 -351t-351 -128q-94 0 -163 16q-20 6 -15 29l107 237q8 17 43 11t85 -6t83 26q33 27 41 72l116 661q4 21 -26 21h-56
q-16 0 -14 20l43 240q2 20 23 20h57q27 0 29 21q45 190 186 307t340 117h41q24 0 20 -23l-43 -244q-2 -20 -26 -20zM956 0h-299q-18 0 -16 20l164 928q2 18 22 19h299q19 -1 17 -19l-164 -928q-2 -20 -23 -20zM1039 1319q71 0 113 -47t30 -114q-12 -66 -70 -112t-131 -46
q-72 0 -113 43q-40 44 -28 113t70 116t129 47z" />
    <glyph glyph-name="fl" unicode="fl" horiz-adv-x="1142" 
d="M956 0h-297q-20 0 -18 20l170 969q4 16 -12 17h-133q-102 0 -123 -99q-6 -29 -1 -35t19 -6h113q18 0 16 -20l-43 -240q-2 -20 -24 -20h-113q-25 0 -27 -21l-100 -567q-39 -223 -184 -351t-351 -128q-94 0 -163 16q-20 6 -15 29l107 237q8 17 43 11t85 -6t83 26
q33 27 41 72l116 661q4 21 -26 21h-56q-16 0 -14 20l43 240q2 20 23 20h57q27 0 29 21q45 186 184 296t338 109h461q18 0 16 -20l-221 -1252q-2 -20 -23 -20z" />
    <glyph glyph-name="ffi" unicode="ffi" horiz-adv-x="1744" 
d="M663 1024q-95 0 -116 -98l-8 -39q-4 -21 22 -21h213q27 0 29 21q12 49 22 74q8 25 -10 34q-57 29 -152 29zM1321 1024h-51q-100 0 -121 -98l-8 -39q-4 -21 22 -21h133q18 0 17 -20l-43 -240q-2 -20 -25 -20h-133q-25 0 -27 -21l-84 -475q-39 -223 -184 -351t-350 -128
q-94 0 -164 16q-20 6 -14 29l106 238q8 16 43 10t85 -6t83 26t41 72l101 569q4 21 -27 21h-211q-25 0 -27 -21l-100 -567q-39 -223 -184 -351t-351 -128q-94 0 -163 16q-20 6 -15 29l107 237q8 17 43 11t85 -6t83 26q33 27 41 72l116 661q4 21 -26 21h-56q-16 0 -14 20
l43 240q2 20 23 20h57q27 0 29 21q45 190 186 307t329 117t296 -76q16 -10 35 0q123 76 282 76h41q25 0 21 -23l-43 -244q-2 -20 -27 -20zM1559 0h-299q-18 0 -17 20l164 928q2 18 23 19h299q18 -1 16 -19l-164 -928q-2 -20 -22 -20zM1641 1319q71 0 113 -47t30 -114
q-12 -66 -70 -112t-131 -46q-72 0 -113 43q-40 44 -28 113t70 116t129 47z" />
    <glyph glyph-name="ffl" unicode="ffl" horiz-adv-x="1744" 
d="M663 1024q-95 0 -116 -98l-8 -39q-4 -21 22 -21h213q27 0 29 21q12 49 22 74q8 25 -10 34q-57 29 -152 29zM1559 0h-297q-20 0 -19 20l170 969q4 16 -12 17h-133q-102 0 -123 -99q-6 -29 -1 -35t19 -6h113q18 0 16 -20l-43 -240q-2 -20 -24 -20h-113q-25 0 -27 -21
l-84 -475q-39 -223 -184 -351t-350 -128q-94 0 -164 16q-20 6 -14 29l106 238q8 16 43 10t85 -6t83 26t41 72l101 569q4 21 -27 21h-211q-25 0 -27 -21l-100 -567q-39 -223 -184 -351t-351 -128q-94 0 -163 16q-20 6 -15 29l107 237q8 17 43 11t85 -6t83 26q33 27 41 72
l116 661q4 21 -26 21h-56q-16 0 -14 20l43 240q2 20 23 20h57q27 0 29 21q45 190 186 307t333 117t306 -84q14 -10 35 0q109 66 264 65h461q18 0 16 -20l-221 -1252q-2 -20 -22 -20z" />
    <glyph glyph-name=".notdef" horiz-adv-x="364" 
 />
    <glyph glyph-name=".null" horiz-adv-x="0" 
 />
    <glyph glyph-name="nonmarkingreturn" horiz-adv-x="681" 
 />
    <glyph glyph-name="space" unicode=" " horiz-adv-x="364" 
 />
    <glyph glyph-name="exclam" unicode="!" horiz-adv-x="585" 
d="M212 -12q-72 0 -119 51q-46 51 -34 121q11 70 75 120t138 50t121 -52t36 -119t-78 -119t-139 -52zM391 387h-215q-14 0 -14 16l10 322l98 547q2 20 23 20h301q18 0 16 -20l-98 -549l-98 -320q-4 -16 -23 -16z" />
    <glyph glyph-name="quotedbl" unicode="&#x22;" horiz-adv-x="753" 
d="M195 819q-18 0 -19 19l10 419q0 25 25 25h268q21 0 15 -25l-103 -419q-2 -18 -24 -19h-172zM516 819q-18 0 -18 19l41 419q4 25 24 25h268q21 0 15 -25l-133 -419q-6 -18 -25 -19h-172z" />
    <glyph glyph-name="numbersign" unicode="#" horiz-adv-x="1222" 
d="M694 727h-108q-25 0 -35 -25l-35 -112q-6 -25 19 -25h108q25 0 33 27l35 108q10 27 -17 27zM1135 727h-146q-27 0 -33 -22l-36 -117q-6 -23 14 -23h143q20 0 17 -18l-60 -203q-6 -18 -26 -18h-146q-25 0 -31 -21l-92 -291q-4 -14 -18 -14h-209q-20 0 -14 23l88 280
q8 23 -15 23h-116q-20 0 -29 -21l-92 -291q-4 -14 -19 -14h-209q-23 0 -16 23l88 280q6 23 -14 23h-133q-25 0 -19 20l58 201q6 18 22 18h144q25 0 32 25l35 110q8 27 -14 27h-131q-25 0 -19 21l56 200q6 18 22 19h145q25 0 31 20l92 291q4 14 21 14h213q18 0 14 -18
l-90 -287q-6 -20 14 -20h115q20 0 27 18l92 293q4 14 18 14h211q23 0 15 -22l-88 -283q-6 -20 16 -20h139q21 -1 17 -19l-58 -203q-6 -18 -26 -18z" />
    <glyph glyph-name="dollar" unicode="$" 
d="M719 377q12 51 -47 80q-20 10 -25 -15l-24 -143q-4 -25 18 -16q68 24 78 94zM559 989q2 15 -2 21t-16 2q-70 -23 -82 -99q-8 -47 51 -75q20 -10 25 14zM385 -109q-18 0 -16 21l8 41q2 20 -19 22q-150 12 -245 99q-55 53 -86 129q-10 31 12 43l237 141q31 20 41 -6
q29 -80 91 -100q25 -10 30 20l33 186q4 27 -16 29q-197 41 -278 139t-51 267q30 170 153 274t315 121q25 2 27 20l8 41q2 20 20 21h150q16 0 14 -21l-8 -39q-2 -20 18 -22q168 -14 267 -119q40 -47 65 -108q10 -31 -12 -43l-238 -142q-31 -20 -41 6q-29 84 -92 101
q-23 6 -27 -19l-32 -184q-6 -20 16 -25q172 -33 260 -129q93 -109 63 -283t-151 -278q-121 -106 -313 -119q-23 -2 -27 -22l-8 -41q-2 -20 -18 -21h-150z" />
    <glyph glyph-name="percent" unicode="%" horiz-adv-x="1329" 
d="M1020 444q-50 0 -59 -43l-35 -188q-2 -19 11 -31t36 -12q51 0 59 43l35 188q2 19 -11 31t-36 12zM422 1122q-53 0 -62 -43l-32 -188q-4 -19 9 -31t36 -12q53 0 61 43l33 188q4 19 -9 31t-36 12zM938 0q-112 0 -167 58q-56 58 -38 155l33 178q18 99 96 161t188 62t169 -58
t41 -155l-35 -188q-19 -97 -97 -155t-190 -58zM358 0h-168q-25 0 -10 23l821 1257q10 12 23 12h178q22 0 12 -20l-825 -1256q-8 -16 -31 -16zM340 678q-112 0 -166 58q-55 58 -39 155l31 178q16 99 95 161t189 62t168 -58q57 -58 41 -155l-32 -188q-15 -97 -95 -155
t-192 -58z" />
    <glyph glyph-name="ampersand" unicode="&#x26;" horiz-adv-x="1359" 
d="M618 354q-68 66 -135 99q-20 12 -42 -11q-23 -24 -29 -64t16 -65t77 -25q54 0 107 36q22 14 6 30zM626 1016q-44 0 -77 -28t-41 -68q-10 -68 37 -117q16 -16 43 -6q109 39 123 127q8 40 -16 66q-25 26 -69 26zM1313 483h-64q-74 0 -162 -92q-16 -16 -2 -29
q90 -55 189 -55q33 0 24 -33l-53 -292q-2 -23 -28 -23q-240 0 -377 127q-18 18 -37 2q-162 -129 -338 -129q-258 0 -356 141q-77 106 -49 266t130 259q16 16 7 37q-68 100 -38 264t177 278t338 115q191 0 292 -104t66 -297q-29 -164 -215 -273q-25 -12 -5 -31t32 -26
q12 -14 28 2q199 219 435 219h61q22 0 18 -27l-47 -272q-4 -27 -26 -27z" />
    <glyph glyph-name="quotesingle" unicode="'" horiz-adv-x="432" 
d="M195 819q-18 0 -19 19l10 419q0 25 25 25h299q20 0 14 -25l-133 -419q-6 -18 -24 -19h-172z" />
    <glyph glyph-name="parenleft" unicode="(" horiz-adv-x="878" 
d="M827 1161q-73 0 -119 -35t-57 -94l-162 -917q-10 -57 24 -93t108 -36q33 0 26 -29l-45 -254q-4 -29 -39 -29q-252 0 -358 129q-90 106 -60 279l174 983q31 178 175 293t387 115q32 0 28 -29l-45 -254q-6 -29 -37 -29z" />
    <glyph glyph-name="parenright" unicode=")" horiz-adv-x="878" 
d="M37 -326q-17 0 -25 8t-6 21l45 254q6 29 39 29q74 0 120 34t56 95l162 917q10 57 -24 93t-107 36q-35 0 -29 29l45 254q4 29 41 29q219 1 335 -105t83 -303l-174 -983q-31 -178 -175 -293t-386 -115z" />
    <glyph glyph-name="asterisk" unicode="*" horiz-adv-x="868" 
d="M590 633h-258q-20 0 -13 20l64 154q8 18 0 24t-25 -6l-149 -112q-18 -14 -27 4l-92 211q-4 8 0 17t14 11l185 41q16 3 19 17t-13 18l-164 43q-25 6 -6 29l166 211q16 18 31 4l108 -121q10 -12 24 -6q13 6 11 22l-19 150q0 10 8 18t17 9h252q25 0 14 -25l-69 -154
q-6 -14 5 -20t23 4l162 125q18 14 25 -6l88 -207q10 -23 -15 -29l-182 -47q-14 -4 -17 -18t11 -17l172 -39q23 -8 4 -28l-166 -205q-12 -20 -26 -6l-121 112q-12 10 -24 5q-11 -6 -9 -23l12 -160q4 -20 -20 -20z" />
    <glyph glyph-name="plus" unicode="+" 
d="M698 387q-25 0 -30 -22l-50 -281q-2 -18 -20 -18h-223q-20 0 -19 18l50 281q6 23 -21 22h-315q-16 0 -15 19l37 206q2 20 21 21h315q25 0 29 20l51 285q2 20 24 20h224q16 0 14 -20l-51 -285q-4 -20 22 -20h320q20 -1 18 -21l-37 -206q-2 -18 -24 -19h-320z" />
    <glyph glyph-name="comma" unicode="," horiz-adv-x="534" 
d="M51 55h-20q-18 0 -17 21l43 250q2 20 25 20h330q20 0 18 -20l-35 -195q-31 -176 -129 -274q-76 -80 -221 -140q-29 -12 -37 11l-55 151q-10 29 14 35q109 27 121 92q2 20 -8 34t-29 15z" />
    <glyph glyph-name="hyphen" unicode="-" horiz-adv-x="647" 
d="M539 326h-484q-20 0 -14 18l49 279q2 20 21 20h483q20 0 18 -20l-49 -279q-6 -18 -24 -18z" />
    <glyph glyph-name="period" unicode="." horiz-adv-x="534" 
d="M242 330q74 0 120 -52t36 -119q-12 -67 -78 -119t-139 -52t-119 51t-33 121q12 70 75 120q64 50 138 50z" />
    <glyph glyph-name="slash" unicode="/" horiz-adv-x="768" 
d="M92 0h-186q-10 0 -15 9q-4 9 3 20l815 1243q10 20 34 20h183q32 1 14 -28l-813 -1244q-14 -20 -35 -20z" />
    <glyph glyph-name="zero" unicode="0" 
d="M690 1020h-61q-45 0 -82 -27t-43 -59l-101 -576q-6 -32 21 -58t74 -26h61q47 0 78 24t37 60l100 576q6 38 -18 62t-66 24zM506 -27h-62q-201 -1 -304 105t-72 280l100 576q31 172 173 278t341 107h61q197 1 299 -105t72 -280l-100 -576q-29 -170 -170 -278t-338 -107z
" />
    <glyph glyph-name="one" unicode="1" 
d="M905 0h-786q-16 0 -15 20l46 263q6 18 22 18h197q25 0 28 23l72 405q2 8 -3 11t-15 -1l-48 -24q-18 -8 -28 2l-162 170q-12 16 6 28l465 365q14 12 37 12h170q18 0 16 -20l-168 -948q-2 -12 3 -18t22 -5h194q21 0 15 -18l-45 -263q-2 -20 -23 -20z" />
    <glyph glyph-name="two" unicode="2" 
d="M455 301h503q23 0 17 -18l-45 -263q-2 -20 -25 -20h-852q-16 0 -14 20l53 308q18 106 76 190q57 84 128 131q72 47 152 87t148 64t116 58t54 72t-14 64t-64 26h-72q-86 0 -167 -115q-20 -29 -41 -16l-234 117q-20 10 2 38q53 76 113 134q147 141 364 141h78
q205 0 305 -97t72 -261l-16 -93q-16 -92 -87 -164t-161 -114q-90 -43 -179 -80t-155 -77t-74 -87l-4 -22q-4 -23 23 -23z" />
    <glyph glyph-name="three" unicode="3" 
d="M475 -27h-59q-207 0 -305 127q-45 55 -76 148q-10 29 12 39l275 116q27 12 34 -16q45 -115 127 -115h43q51 0 83 26t40 67l13 67q6 39 -17 61t-76 21h-219q-18 0 -16 18l47 265q2 18 22 18h220q51 0 83 24t37 58l7 37q6 38 -17 62t-74 24h-43q-86 0 -167 -115
q-20 -29 -41 -16l-234 117q-20 10 2 38q53 74 111 132q150 143 366 143h60q203 0 305 -111t69 -295l-6 -34q-18 -109 -118 -187q-23 -16 -7 -30q74 -74 48 -224l-11 -57q-33 -186 -174 -297t-344 -111z" />
    <glyph glyph-name="four" unicode="4" 
d="M567 561q20 0 25 17l35 200l37 121h-7q-39 -70 -61 -100l-168 -217q-16 -20 6 -21h133zM897 260q-18 0 -25 -22l-36 -218q-2 -20 -25 -20h-303q-16 0 -14 20l36 218q8 23 -18 22h-500q-16 0 -14 19l39 225l711 774q12 14 32 14h258q20 0 19 -20l-123 -690q-4 -20 18 -21
h133q23 0 19 -20l-47 -262q-2 -18 -25 -19h-135z" />
    <glyph glyph-name="five" unicode="5" 
d="M616 991q-25 0 -30 -22l-23 -131q-4 -23 23 -23h90q205 0 291 -83t55 -265l-14 -88q-31 -190 -164 -298t-346 -108h-68q-288 0 -381 230q-10 31 12 43l238 141q31 20 41 -6q37 -106 139 -107h64q106 0 123 99l10 59q6 37 -17 60t-69 22h-406q-18 0 -16 18l131 740
q2 20 23 20h806q21 0 19 -20l-47 -262q-2 -18 -25 -19h-459z" />
    <glyph glyph-name="six" unicode="6" 
d="M547 522q-45 0 -79 -24t-40 -62l-14 -78q-6 -36 18 -60t72 -24h67q45 0 80 25t41 59l15 78q6 35 -21 61t-72 25h-67zM694 1020h-59q-45 0 -80 -26t-41 -60l-20 -125q-2 -10 4 -13t16 1q49 27 107 26h90q182 -1 274 -109t62 -278l-15 -78q-33 -174 -174 -279t-340 -106
h-67q-201 1 -305 107t-74 278l100 576q31 174 169 279t347 106h76q199 0 297 -119q47 -60 82 -156q10 -31 -10 -38l-275 -117q-29 -12 -37 16q-45 115 -127 115z" />
    <glyph glyph-name="seven" unicode="7" 
d="M410 0h-297q-18 0 -17 20l62 353q18 104 114 192t202 138q279 132 292 223l6 43q6 23 -22 22h-504q-18 0 -17 19l47 262q2 20 23 20h848q18 0 16 -20l-76 -424q-15 -86 -81 -159t-149 -123t-166 -93q-197 -102 -212 -178l-47 -275q-2 -20 -22 -20z" />
    <glyph glyph-name="eight" unicode="8" 
d="M541 524q-47 0 -82 -24t-41 -58l-15 -84q-6 -32 22 -58t73 -26h61q47 0 78 24t37 60l14 84q6 37 -17 60q-24 23 -69 22h-61zM690 1020h-61q-43 0 -82 -27t-43 -59l-10 -68q-4 -30 24 -56t70 -26h61q45 0 78 24t37 58l10 68q6 38 -18 62t-66 24zM506 -27h-62
q-205 0 -305 112t-65 308l6 35q27 152 137 236q20 12 4 22q-84 70 -63 182l8 45q33 188 173 297t343 109h61q195 0 295 -107q109 -111 74 -299l-8 -45q-20 -119 -131 -182q-6 -2 -7 -9t3 -11q86 -86 57 -238l-10 -53q-35 -184 -173 -293t-337 -109z" />
    <glyph glyph-name="nine" unicode="9" 
d="M680 1018h-68q-47 0 -82 -25t-41 -59l-20 -119q-7 -35 19 -61t73 -25h68q45 0 79 25t40 61l20 119q6 36 -18 60t-70 24zM420 -27q-193 0 -307 96t-84 121l227 191q23 20 41 -2q80 -106 190 -107h60q45 0 80 26t41 60l14 84q2 10 -4 14t-16 -1q-49 -27 -107 -27h-90
q-180 0 -272 109t-64 278l21 119q29 174 171 279t345 106h67q199 -1 303 -107t74 -278l-100 -576q-31 -174 -168 -279t-346 -106h-76z" />
    <glyph glyph-name="colon" unicode=":" horiz-adv-x="534" 
d="M240 328q74 0 122 -51t38 -118t-78 -119t-141 -52t-119 51t-34 121t76 119q62 49 136 49zM327 815q73 0 121 -51t37 -120t-77 -118t-140 -49t-120 49t-33 119q10 70 74 120q65 50 138 50z" />
    <glyph glyph-name="semicolon" unicode=";" horiz-adv-x="534" 
d="M51 55h-20q-18 0 -17 21l43 250q2 20 25 20h330q20 0 18 -20l-35 -195q-29 -172 -127 -272q-78 -82 -223 -142q-29 -12 -37 11l-55 151q-10 29 14 35q109 27 121 92q2 20 -8 34t-29 15zM329 815q73 0 121 -52t35 -120t-77 -117t-138 -49t-120 49t-35 119q10 70 75 120
q66 50 139 50z" />
    <glyph glyph-name="less" unicode="&#x3c;" 
d="M1044 813q8 -18 -12 -29l-543 -254q-16 -8 -18 -19t10 -19l451 -246q18 -8 6 -25l-143 -192q-12 -18 -29 -9l-657 386q-10 8 -9 20l29 172q2 12 16 18l791 383q16 8 25 -6z" />
    <glyph glyph-name="equal" unicode="=" 
d="M987 205h-948q-18 0 -16 20l36 205q2 20 23 21h948q21 -1 17 -21l-37 -205q-2 -20 -23 -20zM1055 590h-949q-18 0 -16 18l39 211q2 18 21 19h948q20 -1 18 -19l-39 -211q-2 -18 -22 -18z" />
    <glyph glyph-name="greater" unicode="&#x3e;" 
d="M1034 598l-28 -172q-2 -14 -17 -20l-792 -386q-20 -8 -29 9l-74 192q-6 14 15 25l536 246q16 8 19 19q2 11 -11 19l-452 254q-20 10 -4 29l149 180q12 14 25 6l655 -383q10 -8 8 -18z" />
    <glyph glyph-name="question" unicode="?" horiz-adv-x="1085" 
d="M350 -12q-72 0 -118 51t-33 121q12 70 75 120q64 50 138 50t120 -52t36 -119q-11 -67 -78 -119q-68 -52 -140 -52zM555 387h-256q-31 0 -27 33l21 110q31 168 211 248q125 50 150 62q70 34 77 86q5 34 -19 60t-67 26h-76q-39 0 -83 -27t-70 -71t-56 -27l-202 106
q-33 18 -6 58q176 260 471 260h75q204 -1 304 -111t68 -288t-187 -267q-43 -25 -119 -49t-117 -46t-49 -65l-14 -75q-4 -23 -29 -23z" />
    <glyph glyph-name="at" unicode="@" horiz-adv-x="1589" 
d="M857 793q-42 0 -74 -26t-38 -62l-24 -136q-7 -35 17 -61t65 -25q41 0 71 26t37 60l25 136q6 37 -16 63t-63 25zM1200 299h-80q-104 0 -159 31q-18 8 -35 -2q-70 -47 -166 -47q-150 1 -220 77t-46 217l24 150q20 127 106 202t230 74q80 0 119 -38q14 -16 18 6l4 16
q4 16 19 16h168q29 0 22 -26l-80 -449q-2 -23 23 -22h84q31 0 33 22l73 414q14 74 -34 120q-49 46 -148 46h-469q-98 0 -164 -46t-80 -120l-104 -588q-14 -76 35 -121t151 -45h588q10 0 20 -8t7 -20l-29 -154q-6 -31 -35 -31h-588q-219 0 -317 125q-82 102 -55 254l104 588
q31 170 169 274t337 105h469q182 0 287 -94q113 -107 82 -285l-76 -424q-16 -94 -98 -156t-189 -61z" />
    <glyph glyph-name="A" unicode="A" horiz-adv-x="1073" 
d="M471 424h119q20 0 20 18l-4 160q-3 83 4 213l2 39h-6q-39 -131 -88 -252l-65 -160q-8 -18 18 -18zM995 0h-321q-14 0 -17 14l-26 154q0 14 -23 14h-246q-20 0 -28 -14l-82 -154q-6 -14 -21 -14h-315q-31 0 -16 27l649 1251q8 14 22 14h224q14 0 16 -14l207 -1251
q4 -27 -23 -27z" />
    <glyph glyph-name="B" unicode="B" horiz-adv-x="1193" 
d="M477 524q-25 0 -28 -22l-31 -178q-4 -23 20 -23h224q42 0 76 26t40 58l10 57q6 35 -17 59q-24 24 -71 23h-223zM559 991q-23 0 -29 -22l-28 -162q-4 -23 22 -23h224q102 0 116 82l6 39q6 39 -15 63q-22 24 -73 23h-223zM608 0h-571q-16 0 -14 20l221 1252q2 20 20 20h572
q225 0 316 -98t60 -266l-10 -60q-10 -66 -53 -120t-105 -84q-29 -14 -4 -27q51 -29 74 -85t10 -120l-10 -57q-31 -167 -164 -271t-342 -104z" />
    <glyph glyph-name="C" unicode="C" horiz-adv-x="1099" 
d="M735 1020h-123q-51 0 -85 -24t-40 -62l-100 -576q-6 -38 19 -62t73 -24h123q88 0 170 115q20 29 43 16l234 -116q20 -10 -5 -39q-80 -111 -155 -170q-135 -104 -320 -105h-141q-207 1 -307 105t-70 280l101 576q31 176 169 280t345 105h141q174 0 268 -88
q68 -62 111 -187q10 -31 -10 -38l-275 -117q-29 -12 -37 16q-45 115 -129 115z" />
    <glyph glyph-name="D" unicode="D" horiz-adv-x="1200" 
d="M559 991q-23 0 -29 -22l-112 -645q-4 -23 20 -23h224q42 0 76 26t40 58l92 520q6 31 -20 59q-27 28 -68 27h-223zM608 0h-571q-16 0 -14 20l221 1252q2 20 20 20h572q203 0 302 -108t66 -297l-84 -486q-33 -185 -171 -293t-341 -108z" />
    <glyph glyph-name="E" unicode="E" horiz-adv-x="1015" 
d="M641 1020h-43q-51 0 -84 -24t-39 -62l-6 -37q-7 -35 17 -59t75 -23h219q20 0 19 -18l-47 -265q-2 -18 -25 -18h-219q-106 0 -121 -82l-12 -67q-9 -39 15 -66t75 -27h43q86 0 168 115q20 29 43 16l233 -116q18 -10 -4 -39q-82 -115 -162 -176q-131 -98 -313 -99h-59
q-205 0 -306 111t-69 297l10 57q27 154 125 224q20 14 6 30q-74 74 -53 187l6 34q33 184 174 295t344 111h60q178 0 272 -92q62 -58 107 -183q10 -31 -11 -38l-274 -117q-29 -12 -37 16q-45 115 -127 115z" />
    <glyph glyph-name="F" unicode="F" horiz-adv-x="989" 
d="M559 991q-23 0 -29 -22l-24 -142q-4 -23 20 -22h414q20 0 18 -19l-47 -264q-2 -18 -24 -18h-414q-23 0 -29 -23l-79 -461q-2 -20 -25 -20h-303q-16 0 -14 20l221 1252q2 20 20 20h852q21 0 19 -20l-48 -262q-2 -18 -24 -19h-504z" />
    <glyph glyph-name="G" unicode="G" horiz-adv-x="1159" 
d="M758 1020h-146q-51 0 -85 -24t-40 -62l-100 -576q-6 -40 21 -62t73 -22h144q102 0 114 84l15 84q2 20 -21 21h-153q-20 0 -15 20l37 219q2 20 23 21h499q12 0 14 -4t1 -17l-60 -344q-31 -182 -165 -283t-343 -102h-143q-211 1 -309 103t-68 282l101 576q31 176 169 280
t345 105h161q186 0 285 -105q57 -64 94 -170q10 -31 -10 -38l-274 -117q-29 -12 -37 16q-45 115 -127 115z" />
    <glyph glyph-name="H" unicode="H" horiz-adv-x="1259" 
d="M1057 0h-297q-16 0 -15 20l80 461q6 23 -22 23h-330q-23 0 -29 -23l-79 -461q-2 -20 -25 -20h-303q-16 0 -14 20l221 1252q2 20 20 20h303q20 0 19 -20l-80 -445q-4 -23 20 -22h330q27 0 31 22l80 445q2 20 20 20h297q21 0 19 -20l-222 -1252q-2 -20 -24 -20z" />
    <glyph glyph-name="I" unicode="I" horiz-adv-x="542" 
d="M338 0h-301q-16 0 -14 20l221 1252q2 20 20 20h301q23 0 21 -20l-221 -1252q-2 -20 -27 -20z" />
    <glyph glyph-name="J" unicode="J" horiz-adv-x="925" 
d="M666 1292h301q18 0 16 -20l-156 -879q-35 -197 -171 -305t-359 -108q-309 1 -377 288q-6 23 14 29l293 119q27 10 33 -13q20 -123 115 -122q92 0 106 84l162 907q2 20 23 20z" />
    <glyph glyph-name="K" unicode="K" horiz-adv-x="1155" 
d="M1124 0h-395q-23 0 -31 16l-198 428q-8 20 -33 0l-33 -30l-69 -394q-2 -20 -25 -20h-303q-16 0 -14 20l221 1252q2 20 20 20h303q20 0 19 -20l-51 -285q-14 -82 -43 -139l434 430q14 14 30 14h367q18 0 20 -10t-12 -22l-540 -506q-10 -10 -5 -23l361 -700q12 -31 -23 -31
z" />
    <glyph glyph-name="L" unicode="L" horiz-adv-x="989" 
d="M889 0h-852q-16 0 -14 20l221 1252q2 20 20 20h303q20 0 19 -20l-168 -948q-4 -23 20 -23h504q22 0 16 -18l-45 -263q-2 -20 -24 -20z" />
    <glyph glyph-name="M" unicode="M" horiz-adv-x="1419" 
d="M1217 0h-283q-16 0 -14 20l47 265l80 377h-7q-35 -92 -84 -185l-161 -303q-10 -20 -39 -20h-199q-31 0 -33 20l-53 309l-20 179h-7q-12 -178 -47 -373l-47 -269q-2 -20 -24 -20h-289q-16 0 -14 20l221 1252q2 20 20 20h305q16 0 19 -12l133 -629l8 -82h8q16 37 41 82
l346 629q10 12 23 12h297q20 0 18 -20l-221 -1252q-2 -20 -24 -20z" />
    <glyph glyph-name="N" unicode="N" horiz-adv-x="1177" 
d="M975 0h-256q-14 0 -19 18l-206 566l-27 92h-8q-16 -162 -45 -330l-58 -326q-2 -20 -24 -20h-295q-16 0 -14 20l221 1252q2 20 20 20h260q18 0 25 -18l201 -578l26 -98h6q18 160 52 342l59 332q2 20 20 20h289q21 0 19 -20l-222 -1252q-2 -20 -24 -20z" />
    <glyph glyph-name="O" unicode="O" horiz-adv-x="1167" 
d="M756 1020h-144q-45 0 -82 -27t-43 -59l-100 -576q-7 -40 17 -62t77 -22h144q47 0 77 24t37 60l101 576q6 38 -18 62t-66 24zM428 -27q-201 -1 -304 105t-73 280l101 576q31 172 173 278t341 107h143q197 1 299 -105t72 -280l-101 -576q-31 -174 -171 -279t-337 -106h-143
z" />
    <glyph glyph-name="P" unicode="P" horiz-adv-x="1056" 
d="M559 991q-23 0 -29 -22l-24 -142q-4 -23 20 -22h142q102 0 114 72l9 41q6 30 -19 52t-72 21h-141zM614 504h-141q-23 0 -29 -23l-79 -461q-2 -20 -25 -20h-303q-16 0 -14 20l221 1252q2 20 20 20h490q203 0 304 -97t70 -275l-14 -82q-27 -154 -165 -244t-335 -90z" />
    <glyph glyph-name="Q" unicode="Q" horiz-adv-x="1183" 
d="M756 1020h-144q-45 0 -82 -27t-43 -59l-106 -610q-4 -29 6 -43t23 0l69 90q14 20 35 20h109q20 0 28 -20l37 -90q8 -23 24 -3t21 46l107 610q6 38 -18 62t-66 24zM328 -164q-18 0 -17 21l17 92q0 16 -17 20q-147 29 -218 128t-44 247l103 590q31 172 173 278t341 107h143
q197 1 299 -105t72 -280l-103 -590q-27 -147 -135 -247q-109 -99 -266 -128q-18 -2 -21 -20l-16 -92q-2 -20 -27 -21h-284z" />
    <glyph glyph-name="R" unicode="R" horiz-adv-x="1185" 
d="M559 991q-23 0 -29 -22l-28 -162q-4 -23 22 -23h224q104 0 116 82l6 39q6 41 -16 64q-23 23 -72 22h-223zM1071 0h-319q-12 0 -17 14l-104 475q-2 14 -17 15h-141q-23 0 -29 -23l-79 -461q-2 -20 -25 -20h-303q-16 0 -14 20l221 1252q2 20 20 20h572q201 0 296 -106
t72 -299l-2 -19q-20 -180 -201 -282q-23 -14 -16 -45l109 -514q8 -27 -23 -27z" />
    <glyph glyph-name="S" unicode="S" horiz-adv-x="1009" 
d="M584 1018q-104 0 -119 -94q-6 -10 0 -22t6 -20q0 -20 53 -46l26 -13q29 -13 67 -24q218 -66 289 -161t40 -273q-31 -179 -167 -285t-349 -107h-63q-213 0 -324 131q-35 41 -57 99q-10 31 12 43l238 141q31 20 40 -6q37 -106 140 -107h63q104 0 121 95q8 55 -29 78t-99 44
t-85 29q-169 60 -235 146t-35 262t170 283q139 108 350 108h31q289 0 379 -227q10 -33 -13 -45l-237 -142q-31 -20 -41 6q-37 106 -138 107h-34z" />
    <glyph glyph-name="T" unicode="T" horiz-adv-x="903" 
d="M739 991q-23 0 -28 -22l-166 -949q-2 -20 -25 -20h-301q-16 0 -14 20l166 949q6 23 -23 22h-227q-18 0 -17 19l48 262q2 20 22 20h848q18 0 16 -20l-47 -262q-2 -18 -22 -19h-230z" />
    <glyph glyph-name="U" unicode="U" horiz-adv-x="1206" 
d="M446 -27q-199 -1 -302 105t-72 280l161 914q2 20 21 20h297q18 0 16 -20l-161 -914q-6 -40 16 -62t78 -22h143q102 0 117 84l162 914q2 20 20 20h301q19 0 17 -20l-162 -914q-31 -174 -171 -279t-337 -106h-144z" />
    <glyph glyph-name="V" unicode="V" horiz-adv-x="1073" 
d="M567 0h-223q-16 0 -18 14l-207 1252q-4 27 24 26h322q16 0 18 -14l62 -547q10 -100 8 -176h6q18 66 68 176l247 547q6 14 21 14h328q26 1 14 -26l-649 -1252q-6 -14 -21 -14z" />
    <glyph glyph-name="W" unicode="W" horiz-adv-x="1470" 
d="M1083 0h-241q-14 0 -17 14l-43 623l6 113h-6q-14 -66 -34 -113l-261 -623q-6 -14 -22 -14h-240q-12 0 -16 16l-80 1252q0 25 23 24h315q16 0 16 -16l-4 -621l-10 -120h6q16 74 35 120l246 617q8 20 24 20h217q20 0 21 -18l10 -617l-12 -122h6q16 72 35 122l217 619
q6 16 20 16h316q24 1 14 -24l-520 -1252q-6 -16 -21 -16z" />
    <glyph glyph-name="X" unicode="X" horiz-adv-x="1101" 
d="M1008 0h-330q-29 0 -39 27l-100 301q-6 25 -25 0l-207 -301q-16 -27 -47 -27h-328q-35 0 -12 31l451 592q16 23 8 39l-250 602q-4 12 2 20t16 8h342q27 0 33 -18l103 -311q10 -25 28 0l213 311q12 18 37 18h342q29 0 10 -28l-462 -602q-14 -18 -7 -41l244 -590
q4 -11 -2 -21t-20 -10z" />
    <glyph glyph-name="Y" unicode="Y" horiz-adv-x="1003" 
d="M569 0h-299q-16 0 -14 20l98 560l-286 682q-4 12 2 21t18 9h342q23 0 31 -20l110 -299q5 -15 17 -15t22 15l224 299q14 20 34 20h338q36 1 13 -30l-527 -682l-98 -560q-2 -20 -25 -20z" />
    <glyph glyph-name="Z" unicode="Z" horiz-adv-x="985" 
d="M506 301h397q23 0 17 -18l-46 -263q-2 -20 -24 -20h-922q-12 0 -16 8t4 21l641 932q18 31 -18 30h-359q-18 0 -16 19l47 262q2 20 22 20h879q16 0 20 -9t-4 -19l-639 -932q-23 -31 17 -31z" />
    <glyph glyph-name="bracketleft" unicode="[" horiz-adv-x="862" 
d="M684 1167q-27 0 -29 -20l-202 -1149q-4 -20 20 -21h139q20 0 19 -20l-45 -262q-6 -20 -27 -21h-483q-20 0 -15 21l310 1755q2 20 22 20h484q20 0 18 -20l-47 -262q-2 -20 -25 -21h-139z" />
    <glyph glyph-name="backslash" unicode="\" horiz-adv-x="768" 
d="M698 0h-190q-16 0 -19 12l-376 1252q-4 10 2 19t18 9h197q10 0 14 -12l377 -1251q4 -9 -2 -19t-21 -10z" />
    <glyph glyph-name="bracketright" unicode="]" horiz-adv-x="862" 
d="M20 -326q-20 0 -14 21l45 262q2 20 23 20h133q29 0 33 21l202 1149q4 20 -24 20h-133q-18 0 -17 21l47 262q2 20 23 20h483q21 0 19 -20l-310 -1755q-6 -20 -26 -21h-484z" />
    <glyph glyph-name="underscore" unicode="_" horiz-adv-x="550" 
d="M-158 -422q-18 0 -16 21l29 157q2 18 22 19h555q19 -1 17 -19l-29 -157q-2 -20 -23 -21h-555z" />
    <glyph glyph-name="grave" unicode="`" horiz-adv-x="1107" 
d="M793 1106h-240q-25 0 -43 18l-277 310q-8 8 -1 20t22 12h336q25 0 35 -18l184 -313q6 -9 1 -19t-17 -10z" />
    <glyph glyph-name="a" unicode="a" horiz-adv-x="1028" 
d="M543 707q-102 0 -117 -82l-49 -281q-5 -40 17 -62t69 -22t81 23t40 61l49 281q6 37 -18 59t-72 23zM842 0h-234q-18 0 -18 16l10 50q2 10 -6 13t-16 -5q-84 -74 -203 -74q-203 0 -286 93t-48 292l39 219q31 174 147 268q117 94 299 95q137 0 211 -74q4 -6 12 -4q7 2 9 10
l10 49q0 18 25 19h217q20 -1 18 -19l-164 -928q-2 -20 -22 -20z" />
    <glyph glyph-name="b" unicode="b" horiz-adv-x="1028" 
d="M571 707q-104 0 -118 -82l-50 -281q-6 -40 18 -62t71 -22q104 0 118 84l49 281q7 37 -17 59t-71 23zM489 0q-121 0 -178 74q-4 8 -12 5t-10 -13l-10 -50q0 -16 -23 -16h-231q-18 0 -17 20l221 1252q2 20 23 20h297q20 0 18 -20l-43 -236q-14 -88 -37 -125q78 55 162 56
q187 1 281 -103t63 -280l-35 -199q-34 -199 -150 -292t-319 -93z" />
    <glyph glyph-name="c" unicode="c" horiz-adv-x="937" 
d="M541 713q-100 0 -115 -86l-51 -287q-14 -86 86 -86q92 0 166 125q18 27 39 16l208 -96q20 -8 3 -41q-57 -102 -119 -160q-131 -125 -342 -125q-210 -1 -310 105t-69 282l43 246q31 176 168 282t355 105q218 0 306 -149q35 -61 47 -135q8 -29 -18 -41l-242 -97
q-29 -12 -32 17q-16 61 -44 93t-79 32z" />
    <glyph glyph-name="d" unicode="d" horiz-adv-x="1028" 
d="M543 707q-102 0 -117 -82l-49 -281q-5 -40 17 -62t69 -22t81 23t40 61l49 281q6 37 -18 59t-72 23zM842 0h-234q-18 0 -18 16l10 50q2 10 -6 13t-16 -5q-84 -74 -203 -74q-203 0 -286 93t-48 292l35 199q31 176 162 279t317 104q82 0 141 -56q-6 39 9 125l43 236
q2 20 22 20h299q18 0 16 -20l-221 -1252q-2 -20 -22 -20z" />
    <glyph glyph-name="e" unicode="e" horiz-adv-x="1003" 
d="M444 588h199q29 0 33 24l4 29q6 43 -21 71t-86 28t-97 -28t-48 -75l-6 -29q-2 -8 5 -14t17 -6zM922 422h-504q-29 0 -33 -25l-6 -39q-7 -42 19 -68t77 -26q100 0 176 107q16 27 41 6l189 -141q16 -10 -7 -43q-169 -220 -454 -220q-201 0 -307 108t-76 279l43 246
q31 172 179 280q147 108 337 108t298 -110t79 -278l-29 -164q-2 -20 -22 -20z" />
    <glyph glyph-name="f" unicode="f" horiz-adv-x="649" 
d="M668 1024q-100 0 -121 -98l-8 -39q-4 -21 22 -21h133q18 0 17 -20l-43 -240q-2 -20 -25 -20h-133q-25 0 -27 -21l-100 -567q-39 -223 -184 -351t-351 -128q-94 0 -163 16q-20 6 -15 29l107 237q8 17 43 11t85 -6t83 26q33 27 41 72l116 661q4 21 -26 21h-56q-16 0 -14 20
l43 240q2 20 23 20h57q27 0 29 21q45 190 186 307t340 117q92 0 162 -17q24 -5 14 -28l-104 -238q-8 -16 -44 -10t-87 6z" />
    <glyph glyph-name="g" unicode="g" horiz-adv-x="1024" 
d="M539 707q-102 0 -117 -82l-51 -283q-5 -38 17 -60t70 -22t81 24t39 58l51 283q6 37 -18 59t-72 23zM338 -481q-207 0 -313 116q-45 47 -70 111q-10 33 8 43l238 141q33 20 39 -6q37 -106 141 -106t121 92l18 106q4 10 -3 14t-17 -1q-53 -29 -121 -29q-195 0 -283 98
t-55 285l39 221q31 176 146 269q116 93 296 94q137 0 211 -74q4 -6 11 -4t10 10l10 49q0 18 24 19h218q20 -1 18 -19l-184 -1042q-33 -182 -164 -284t-338 -103z" />
    <glyph glyph-name="h" unicode="h" horiz-adv-x="1044" 
d="M866 0h-299q-16 0 -14 20l102 584q6 37 -16 60q-23 22 -71 22t-81 -24t-38 -58l-103 -584q-2 -20 -24 -20h-297q-18 0 -17 20l221 1252q2 20 23 20h297q20 0 18 -20l-43 -236q-14 -88 -37 -125q78 55 162 56q187 1 279 -103t61 -280l-98 -564q-2 -20 -25 -20z" />
    <glyph glyph-name="i" unicode="i" horiz-adv-x="509" 
d="M324 0h-299q-18 0 -17 20l164 928q2 18 23 19h299q18 -1 16 -19l-164 -928q-2 -20 -22 -20zM358 1026q-72 0 -112 44t-29 113q13 69 71 115t129 48q71 0 113 -47t29 -114t-71 -113t-130 -46z" />
    <glyph glyph-name="j" unicode="j" horiz-adv-x="509" 
d="M-242 -481q-23 0 -20 20l47 264q6 27 31 27q158 0 174 94l182 1024q2 18 23 19h299q18 -1 16 -19l-182 -1028q-70 -401 -570 -401zM354 1026q-72 0 -112 44t-29 113q13 69 71 115t129 48q71 0 113 -47t29 -114t-71 -113t-130 -46z" />
    <glyph glyph-name="k" unicode="k" horiz-adv-x="1011" 
d="M950 0h-329q-25 0 -31 16l-137 346q-7 20 -35 -6q-16 -10 -19 -30l-53 -306q-2 -20 -20 -20h-301q-18 0 -17 20l221 1252q2 20 23 20h297q20 0 18 -20l-88 -492q-14 -88 -37 -125l293 297q12 14 39 15h311q17 -1 19 -11t-10 -22l-351 -316q-18 -18 -8 -36l240 -551
q4 -11 -2 -21t-23 -10z" />
    <glyph glyph-name="l" unicode="l" horiz-adv-x="509" 
d="M324 0h-297q-20 0 -19 20l221 1252q2 20 25 20h297q18 0 16 -20l-221 -1252q-2 -20 -22 -20z" />
    <glyph glyph-name="m" unicode="m" horiz-adv-x="1509" 
d="M1335 0h-303q-16 0 -14 20l102 584q16 82 -65 82q-41 0 -68 -22t-33 -60l-102 -584q-2 -20 -25 -20h-299q-16 0 -14 20l102 584q12 82 -67 82q-39 0 -67 -22t-33 -60l-103 -584q-2 -20 -24 -20h-297q-18 0 -17 20l164 928q2 18 23 19h217q20 0 20 -19l-10 -49
q-2 -8 6 -10t14 4q94 74 218 74t190 -64q16 -16 37 0q87 63 253 63t256 -96t62 -266l-102 -584q-2 -20 -21 -20z" />
    <glyph glyph-name="n" unicode="n" horiz-adv-x="1044" 
d="M866 0h-299q-16 0 -14 20l102 584q6 37 -16 60q-23 22 -72 22t-81 -22t-37 -60l-103 -584q-2 -20 -24 -20h-297q-18 0 -17 20l164 928q2 18 23 19h217q20 0 20 -19l-10 -49q-2 -8 6 -10t14 4q98 74 236 74q182 1 264 -93t51 -270l-102 -584q-2 -20 -25 -20z" />
    <glyph glyph-name="o" unicode="o" horiz-adv-x="1003" 
d="M550 723q-46 0 -81 -25t-41 -61l-55 -307q-7 -37 19 -62q26 -24 73 -24t79 24t38 62l55 307q7 37 -17 61t-70 25zM598 993q198 1 302 -105t73 -282l-43 -246q-31 -174 -172 -280t-340 -106t-305 107q-106 108 -76 279l43 246q31 174 175 280t343 107z" />
    <glyph glyph-name="p" unicode="p" horiz-adv-x="1028" 
d="M571 707q-47 0 -79 -23t-39 -61l-52 -281q-6 -38 18 -60t73 -22q102 0 116 82l51 281q7 39 -17 61t-71 23zM479 0q-68 0 -112 29q-16 12 -23 -13l-55 -321q-2 -20 -25 -21h-297q-18 0 -16 21l219 1251q2 20 25 21h231q22 0 18 -17l-8 -49q-2 -10 5 -13t16 5q84 74 202 74
q203 0 286 -93t48 -292l-35 -199q-31 -176 -161 -280q-131 -103 -318 -103z" />
    <glyph glyph-name="q" unicode="q" horiz-adv-x="1028" 
d="M543 707q-100 0 -117 -84l-51 -281q-7 -38 17 -60t71 -22q104 0 119 82l51 281q8 37 -18 61t-72 23zM485 -326q-18 0 -16 21l55 321q4 10 -2 14t-16 -1q-53 -29 -121 -29q-186 0 -281 103q-94 103 -63 280l35 199q34 200 150 292t319 93q119 0 178 -74q4 -8 13 -5t12 13
l8 49q0 16 22 17h232q18 -1 16 -21l-219 -1251q-2 -20 -25 -21h-297z" />
    <glyph glyph-name="r" unicode="r" horiz-adv-x="643" 
d="M559 657q-47 1 -79 -27t-40 -73l-94 -537q-2 -20 -24 -20h-297q-18 0 -17 20l164 928q2 18 23 19h219q23 0 16 -21l-10 -67q-2 -9 5 -11t13 4q90 94 236 95h45q20 0 16 -23l-49 -276q-4 -33 -42 -22t-85 11z" />
    <glyph glyph-name="s" unicode="s" horiz-adv-x="919" 
d="M473 735q-63 0 -74 -55q-4 -26 8 -34q13 -9 20 -14t20 -8q13 -2 32 -8t72 -14t91 -16t98 -36q146 -68 117 -234q-31 -165 -151 -254t-305 -89h-47q-201 0 -305 105q-43 43 -61 83t4 54l205 129q29 20 39 -6q18 -51 62 -79t97 -28h60q66 0 75 56q4 34 -19 45
q-23 12 -37 15t-37 5q-22 2 -27 4q-186 37 -248 74q-113 71 -85 230q27 160 147 246t296 87h43q279 0 369 -198q14 -29 -6 -43l-205 -129q-31 -20 -41 6q-18 51 -62 79t-98 27h-47z" />
    <glyph glyph-name="t" unicode="t" horiz-adv-x="696" 
d="M545 686q-29 0 -33 -22l-45 -254q-20 -129 102 -129h35q25 0 21 -23l-45 -254q-2 -25 -37 -24h-94q-188 0 -273 103q-84 103 -51 286l51 295q2 12 -3 17t-21 5h-103q-20 0 -14 19l26 151l316 258q16 14 39 14h157q20 0 19 -18l-23 -121q-4 -22 25 -22h137q19 -1 17 -19
l-43 -243q-6 -18 -23 -19h-137z" />
    <glyph glyph-name="u" unicode="u" horiz-adv-x="1044" 
d="M858 0h-219q-8 0 -15 6t-6 12l9 50q2 8 -5 10t-14 -4q-98 -74 -235 -74q-182 0 -264 93t-52 269l103 584q2 20 22 21h299q18 0 17 -21l-103 -584q-6 -38 17 -60q22 -22 70 -22t81 24q33 22 39 58l103 584q2 20 22 21h301q16 -1 14 -21l-161 -928q-6 -18 -23 -18z" />
    <glyph glyph-name="v" unicode="v" horiz-adv-x="915" 
d="M494 0h-242q-16 0 -23 16l-202 924q-6 27 20 27h322q16 0 20 -17l55 -420q10 -74 9 -127q10 33 53 127l188 418q8 18 31 19h317q27 0 15 -27l-537 -924q-8 -16 -26 -16z" />
    <glyph glyph-name="w" unicode="w" horiz-adv-x="1292" 
d="M922 0h-217q-16 0 -17 18l-24 414l2 123q-18 -68 -43 -123l-179 -416q-6 -16 -22 -16h-221q-16 0 -19 14l-129 928q-4 25 23 25h291q14 0 18 -19l18 -387v-129q16 72 39 129l152 389q6 16 20 17h240q16 0 20 -19l17 -391l-4 -125q20 72 41 125l151 391q8 18 27 19h287
q26 0 14 -25l-461 -928q-6 -14 -24 -14z" />
    <glyph glyph-name="x" unicode="x" horiz-adv-x="976" 
d="M928 0h-338q-25 0 -33 18l-96 193q-12 27 -35 0l-162 -193q-16 -18 -41 -18h-338q-14 0 -17 9t7 20l395 426q29 29 11 59l-242 424q-6 10 0 19t18 10h338q25 0 35 -19l92 -186q12 -29 39 0l158 186q16 18 39 19h338q14 1 17 -9t-7 -20l-395 -426q-27 -27 -11 -53
l246 -430q6 -9 1 -19t-19 -10z" />
    <glyph glyph-name="y" unicode="y" horiz-adv-x="1044" 
d="M358 -481q-207 0 -313 116q-45 47 -70 111q-10 33 9 43l237 141q33 20 39 -6q37 -106 141 -106t121 92l19 106q4 10 -3 14t-18 -1q-53 -29 -121 -29q-186 0 -277 103t-61 280l99 563q2 20 22 21h299q18 0 17 -21l-103 -584q-6 -38 17 -60q22 -22 70 -22t81 24t39 58
l103 584q2 20 22 21h301q16 -1 14 -21l-182 -1040q-33 -182 -164 -284t-338 -103z" />
    <glyph glyph-name="z" unicode="z" horiz-adv-x="927" 
d="M858 281q18 0 16 -19l-43 -242q-2 -20 -22 -20h-868q-33 0 -11 31l480 628q18 27 -11 27h-317q-16 0 -14 21l43 241q2 18 20 19h834q30 0 12 -29l-483 -631q-20 -27 10 -26h354z" />
    <glyph glyph-name="braceleft" unicode="{" horiz-adv-x="956" 
d="M731 -41q27 0 23 -22l-43 -234q-4 -29 -39 -29q-246 0 -355 129q-88 104 -59 279l45 258q12 78 -131 78q-20 0 -29 6q-8 6 -6 20l45 258q6 27 45 27q143 0 158 78l47 258q37 201 191 304t366 104q33 0 29 -29l-41 -234q-4 -23 -29 -22q-74 0 -122 -34t-58 -89l-49 -277
q-27 -150 -125 -198q-35 -16 -6 -33q82 -49 55 -199l-49 -276q-10 -55 27 -89t110 -34z" />
    <glyph glyph-name="braceright" unicode="}" horiz-adv-x="956" 
d="M262 1188q-25 0 -20 22l41 234q4 29 41 29q250 0 358 -134q86 -106 55 -274l-47 -258q-15 -78 133 -78q20 0 28 -6q7 -7 5 -21l-45 -258q-6 -27 -43 -26q-147 0 -160 -78l-45 -258q-35 -201 -189 -304t-368 -104q-18 0 -25 8t-6 21l43 234q4 23 27 22q76 0 124 34t58 89
l49 276q27 152 125 199q35 16 7 33q-82 47 -56 198l49 277q10 55 -26 89q-37 34 -113 34z" />
    <glyph glyph-name="nbspace" unicode="&#xa0;" 
 />
    <glyph glyph-name="exclamdown" unicode="&#xa1;" horiz-adv-x="634" 
d="M303 -311h-301q-16 0 -14 20l96 549l98 320q6 16 23 16h215q14 0 14 -16l-10 -322l-96 -547q-2 -20 -25 -20zM325 651q-73 0 -121 52t-37 119t78 119t139 52t119 -51q46 -51 34 -121q-11 -70 -75 -120t-137 -50z" />
    <glyph glyph-name="cent" unicode="&#xa2;" 
d="M471 332q16 0 21 18l73 422q6 18 -12 19q-96 0 -111 -86l-51 -287q-14 -86 80 -86zM436 -82q-18 0 -16 21l16 94q2 18 -16 18q-199 -1 -294 105t-65 282l43 246q31 176 163 282t329 105q25 0 27 21l16 96q2 20 25 20h147q16 0 14 -20l-16 -98q-2 -18 16 -19
q281 -16 330 -285q6 -31 -18 -41l-242 -96q-27 -10 -35 17q-25 102 -84 120q-20 6 -24 -18l-72 -414q-4 -22 14 -18q68 18 129 121q18 27 41 16l207 -96q20 -10 4 -41q-59 -109 -133 -172q-117 -104 -297 -113q-18 0 -22 -20l-17 -92q-2 -20 -22 -21h-148z" />
    <glyph glyph-name="sterling" unicode="&#xa3;" 
d="M781 1020q-47 0 -77 -28t-36 -66l-19 -99q-4 -23 21 -22h137q20 0 18 -19l-47 -264q-2 -18 -24 -18h-138q-23 0 -28 -23l-15 -82q-12 -72 -75 -106q41 8 82 8h413q20 0 15 -18l-45 -263q-2 -20 -23 -20h-1028q-18 0 -16 20l45 263q6 18 24 18h164q94 16 107 84l16 96
q4 11 -2 17t-23 6h-45q-16 0 -14 18l47 264q2 18 21 19h45q29 0 32 22l15 78q35 190 167 302t351 112t319 -143q35 -54 64 -132q10 -31 -10 -38l-275 -117q-29 -12 -37 16q-23 59 -51 87q-29 28 -75 28z" />
    <glyph glyph-name="currency" unicode="&#xa4;" 
d="M719 1020h-41q-106 0 -123 -86q-2 -23 20 -23h201q14 0 12 -20l-32 -186q-2 -18 -19 -19h-200q-25 0 -29 -18l-6 -39q-4 -20 20 -21h201q16 0 12 -18l-33 -191q-2 -18 -20 -18h-205q-23 0 -24 -23q-9 -38 17 -62t77 -24h41q84 0 170 115q20 29 41 16l233 -116
q16 -10 -2 -39q-74 -104 -139 -158q-137 -117 -338 -117h-59q-204 -1 -306 105t-71 280q4 23 -19 23h-96q-16 0 -14 18l32 191q2 18 23 18h96q20 0 27 21l6 37q4 20 -18 20h-97q-18 0 -16 19l33 186q2 20 22 20h99q20 0 24 23q31 174 169 279t343 106h60q217 0 313 -139
q36 -50 65 -136q10 -31 -10 -38l-274 -117q-25 -10 -37 16q-41 115 -129 115z" />
    <glyph glyph-name="yen" unicode="&#xa5;" 
d="M1106 754q14 0 12 -21l-37 -207q-2 -18 -18 -18h-301q-27 0 -31 -23l-10 -53q-4 -23 22 -22h301q18 0 15 -19l-37 -211q-6 -18 -21 -18h-301q-27 0 -30 -23l-21 -119q-2 -20 -22 -20h-301q-18 0 -17 20l21 119q4 23 -21 23h-299q-20 0 -14 18l37 211q2 18 20 19h299
q25 0 29 22l10 53q2 7 -4 15t-16 8h-299q-18 0 -17 18l37 207q2 20 23 21h194q14 0 21 9q6 9 2 21l-207 478q-4 10 1 20t19 10h334q27 0 35 -20l109 -291q16 -39 47 0l215 289q16 23 45 22h332q37 1 14 -30l-373 -478q-23 -31 10 -30h193z" />
    <glyph glyph-name="brokenbar" unicode="&#xa6;" horiz-adv-x="532" 
d="M428 -326h-262v717h262v-717zM428 754h-262v716h262v-716z" />
    <glyph glyph-name="section" unicode="&#xa7;" 
d="M668 315q13 23 9 46q-5 24 -19 37q-14 14 -25 24q-12 10 -38 23l-43 21q-17 8 -50 23q-34 13 -54 23t-30 -8q-17 -45 -11 -64q5 -18 29 -38q24 -21 52 -33q28 -11 46 -19t52 -21q32 -13 54 -23t28 9zM676 1012h-35q-45 0 -78 -25t-40 -65t46 -81q53 -40 132 -77t156 -87
t121 -140t24 -207t-84 -201q-16 -23 -9 -39q29 -80 13 -180q-31 -176 -172 -285t-338 -108h-84q-215 0 -312 131q-39 53 -71 143q-10 25 12 35l274 115q18 10 27 -13q35 -111 127 -110h80q47 0 79 26t41 71q9 46 -45 82q-54 35 -134 63t-159 68t-124 124t-23 213t97 203
q18 16 8 32q-47 90 -27 209q33 186 173 294t343 108h35q203 0 299 -109q57 -66 84 -170q6 -29 -18 -39l-281 -119q-27 -10 -31 15q-23 123 -106 123z" />
    <glyph glyph-name="dieresis" unicode="&#xa8;" horiz-adv-x="1107" 
d="M417 1126q-73 0 -114 44t-29 113t70 116t130 47q70 0 112 -47t31 -114t-69 -113t-131 -46zM841 1126q-73 0 -115 44t-30 113t72 116t129 47t111 -46t30 -116t-68 -114t-129 -44z" />
    <glyph glyph-name="copyright" unicode="&#xa9;" horiz-adv-x="1589" 
d="M862 752q-43 0 -79 -25t-42 -61l-34 -197q-5 -37 21 -61t69 -25q80 0 133 92q8 14 24 8l133 -67q12 -6 5 -23q-113 -190 -328 -188q-139 0 -212 75t-52 195l32 182q23 121 122 197q98 76 240 76q208 0 259 -187q6 -16 -12 -24l-158 -66q-18 -6 -20 9q-23 90 -101 90z
M1081 1014h-376q-107 0 -177 -50t-84 -130l-96 -541q-14 -78 39 -129t160 -51h377q104 0 173 50t83 130l96 541q14 80 -39 130t-156 50zM889 -82h-377q-197 0 -297 101t-70 274l97 541q31 170 167 272t330 102h377q194 0 296 -102t71 -272l-97 -541q-31 -170 -167 -273
q-137 -102 -330 -102z" />
    <glyph glyph-name="ordfeminine" unicode="&#xaa;" horiz-adv-x="749" 
d="M472 1104q-48 0 -54 -29l-35 -203q-4 -20 4 -29t48 -9t46 30l33 195q6 45 -42 45zM506 618q-12 0 -12 13l4 24q4 13 -15 9q-49 -46 -159 -46q-231 -1 -232 203q0 41 8 80l29 154q49 264 324 264q100 0 155 -43q2 -4 6 -2t4 6l5 27q4 12 20 12h182q19 0 15 -14l-119 -672
q-2 -14 -16 -15h-199z" />
    <glyph glyph-name="guillemotleft" unicode="&#xab;" horiz-adv-x="1280" 
d="M608 635q2 18 -4 24t-18 0l-133 -61q-11 -6 -13 -16t9 -17l108 -59q10 -6 20 0q9 6 11 22zM1227 1018l-49 -279q-8 -25 -25 -32l-235 -109q-12 -6 -14 -16t9 -17l195 -108q18 -8 14 -33l-49 -279q-8 -35 -33 -16l-368 266q-18 12 -23 -12l-41 -238q-8 -35 -33 -16
l-475 344q-16 10 -12 35l25 147q2 23 24 35l598 344q13 8 21 3t6 -19l-43 -238q-2 -10 4 -14t16 2l461 266q12 8 20 3t7 -19z" />
    <glyph glyph-name="logicalnot" unicode="&#xac;" 
d="M977 205h-225q-23 0 -19 18l62 346v2q6 18 -17 19h-682q-18 0 -16 18l39 211q2 18 20 19h948q21 -1 19 -19l-2 -2l-105 -594q-4 -18 -22 -18z" />
    <glyph glyph-name="registered" unicode="&#xae;" horiz-adv-x="1089" 
d="M678 1067h-74q-27 0 -31 -23l-16 -96q-4 -10 1 -15t22 -5h73q74 -1 86 65v6q10 68 -61 68zM731 737h-37q-10 0 -12 13l-33 108q-2 12 -18 12h-62q-29 0 -30 -20l-17 -92q-2 -20 -22 -21h-27q-16 0 -14 21l61 344q2 20 23 20h145q63 0 97 -37t18 -103q-16 -65 -80 -93
q-14 -4 -8 -19l41 -104q10 -29 -25 -29zM684 1231h-8q-160 0 -268 -80t-129 -209l-7 -41q-20 -131 59 -210t236 -79h8q160 0 270 80t130 209l6 41q20 131 -59 210q-80 79 -238 79zM565 553h-8q-184 0 -277 94t-69 254l6 41q23 158 153 253t316 95h8q184 0 278 -94t70 -254
l-6 -41q-26 -158 -156 -253t-315 -95z" />
    <glyph glyph-name="macron" unicode="&#xaf;" horiz-adv-x="1107" 
d="M975 1139h-584q-18 0 -16 20l45 262q2 20 24 21h584q18 -1 16 -21l-45 -262q-2 -20 -24 -20z" />
    <glyph glyph-name="degree" unicode="&#xb0;" horiz-adv-x="618" 
d="M422 1149q-53 0 -62 -43l-32 -188q-4 -18 9 -30t36 -14q53 0 61 44l33 188q4 18 -9 30t-36 13zM340 705q-112 0 -166 58q-55 58 -39 155l31 178q16 98 95 160t189 62t168 -58q57 -58 41 -154l-32 -188q-15 -96 -95 -154t-192 -59z" />
    <glyph glyph-name="plusminus" unicode="&#xb1;" 
d="M946 0h-948q-16 0 -14 18l36 207q2 20 23 21h948q19 -1 17 -21l-37 -207q-2 -18 -25 -18zM1071 707h-319q-25 0 -31 -23l-47 -276q-6 -18 -23 -19h-223q-23 0 -16 19l47 276q6 23 -21 23h-315q-16 0 -14 18l36 207q2 20 21 20h315q25 0 29 21l53 297q2 20 25 20h223
q16 0 14 -20l-53 -297q-4 -21 23 -21h319q21 0 19 -20l-37 -207q-2 -18 -25 -18z" />
    <glyph glyph-name="twosuperior" unicode="&#xb2;" horiz-adv-x="673" 
d="M399 735h283q14 0 10 -16l-33 -187q-2 -16 -16 -16h-561q-14 0 -12 16l24 130q32 171 127 232q47 30 84 42t113 25t82 47q8 35 -35 34h-45q-35 0 -74 -55q-14 -23 -31 -12l-180 90q-10 2 0 22q59 89 134 137t184 48h53q131 0 201 -80t47 -203q-16 -96 -108 -153t-204 -58
q-53 0 -55 -19t1 -21q3 -3 11 -3z" />
    <glyph glyph-name="threesuperior" unicode="&#xb3;" horiz-adv-x="673" 
d="M330 428h-37q-131 0 -199 76q-37 43 -65 125q-4 2 -3 11t7 13l215 90q16 10 24 -12q25 -76 74 -76h23q51 0 55 37l6 43q2 15 -5 21t-36 6h-156q-14 0 -12 12l33 189q4 12 16 12h156q45 0 51 26l8 43q4 16 -5 24t-36 9h-22q-51 0 -103 -78q-18 -18 -28 -12l-182 90
q-8 6 4 27q57 84 133 144t200 59h37q139 0 211 -75t49 -200l-4 -22q-10 -61 -51 -109q-18 -14 -6 -24q31 -41 10 -138l-8 -37q-29 -126 -123 -200t-231 -74z" />
    <glyph glyph-name="acute" unicode="&#xb4;" horiz-adv-x="1107" 
d="M705 1106h-240q-12 0 -15 9t7 20l295 313q18 18 43 18h335q22 0 17 -18q-2 -8 -8 -14l-387 -310q-23 -18 -47 -18z" />
    <glyph glyph-name="mu" unicode="&#xb5;" horiz-adv-x="1028" 
d="M850 0h-219q-7 0 -15 6t-6 12l8 50q2 8 -5 10t-13 -4q-98 -74 -235 -74q-41 0 -48 -37l-47 -270q-2 -20 -22 -21h-299q-18 0 -17 21l220 1253q2 20 22 21h299q18 0 16 -21l-102 -584q-5 -38 17 -60t70 -22t81 24q33 22 39 58l102 584q2 20 23 21h301q16 -1 14 -21
l-162 -928q-2 -18 -22 -18z" />
    <glyph glyph-name="paragraph" unicode="&#xb6;" horiz-adv-x="1449" 
d="M850 -461q-18 0 -16 21l247 1409q6 23 -20 22h-94q-25 0 -31 -22l-248 -1409q-2 -20 -22 -21h-301q-18 0 -17 21l103 581q2 20 -21 21h-33q-186 0 -258 103t-41 280l60 342q33 186 174 296t342 109h788q19 0 17 -20l-303 -1712q-2 -20 -23 -21h-303z" />
    <glyph glyph-name="periodcentered" unicode="&#xb7;" 
d="M528 342q-74 0 -120 48t-35 120q13 72 77 121t137 49t121 -51t35 -119t-77 -118t-138 -50z" />
    <glyph glyph-name="cedilla" unicode="&#xb8;" horiz-adv-x="1107" 
d="M117 -485q-18 0 -17 20l31 178q6 23 29 23h133q35 0 37 24q2 14 -4 20t-25 5h-111q-27 0 -10 25l142 219h288l-47 -76q-12 -20 0 -25q39 -20 58 -65t4 -103q-19 -110 -109 -178t-221 -67h-178z" />
    <glyph glyph-name="onesuperior" unicode="&#xb9;" horiz-adv-x="673" 
d="M621 514h-547q-12 0 -11 12l37 209q2 12 15 13h123q18 0 20 14l14 88q4 8 -12 8t-22 4l-125 131q-14 8 2 19l319 248q16 10 29 10h135q12 0 10 -15l-86 -493q-2 -8 1 -11t16 -3h123q14 -1 10 -13l-37 -209q-2 -12 -14 -12z" />
    <glyph glyph-name="ordmasculine" unicode="&#xba;" horiz-adv-x="700" 
d="M462 1081q-24 0 -43 -14t-22 -31l-26 -166q-4 -18 8 -33q11 -15 35 -15t42 16t21 32l27 166q4 18 -7 32t-35 13zM375 588q-141 0 -213 78t-51 204l26 166q19 123 123 203t242 80t208 -79t50 -204l-27 -166q-21 -126 -119 -204t-239 -78z" />
    <glyph glyph-name="guillemotright" unicode="&#xbb;" horiz-adv-x="1280" 
d="M872 598l-108 61q-25 14 -31 -24l-20 -107q-2 -16 5 -22t21 0l129 59q12 7 14 17t-10 16zM1233 655l-25 -147q-2 -23 -24 -35l-598 -344q-12 -8 -21 -3q-8 5 -4 19l41 238q4 21 -18 12l-463 -266q-12 -8 -21 -3q-8 5 -4 19l49 279q4 25 23 33l235 108q13 7 15 17t-10 16
l-195 109q-18 10 -12 32l49 279q8 33 31 16l366 -266q20 -14 25 12l43 238q8 33 30 16l476 -344q16 -10 12 -35z" />
    <glyph glyph-name="onequarter" unicode="&#xbc;" horiz-adv-x="1732" 
d="M1163 256h72q12 0 16 8l19 105q6 43 12 61l-6 2q-16 -31 -43 -65l-74 -101q-10 -10 4 -10zM684 514h-547q-12 0 -10 12l37 209q4 12 14 13h123q18 0 21 14l14 88q4 8 -12 8t-23 4l-127 131q-12 10 4 19l320 248q16 10 28 10h136q12 0 10 -15l-86 -493q-2 -8 1 -11t15 -3
h123q12 -1 10 -13l-37 -209q-2 -12 -14 -12zM1552 51h-84q-16 0 -18 -16l-23 -127q-2 -12 -12 -12h-237q-12 0 -11 12l23 127q4 16 -12 16h-320q-10 0 -10 12l31 168l464 496q8 10 25 10h195q10 0 8 -12l-76 -428q0 -14 14 -14h84q15 -1 11 -13l-37 -207q0 -12 -15 -12z
M582 0h-166q-10 0 -15 9q-4 9 2 20l814 1243q14 20 36 20h162q33 1 15 -28l-814 -1244q-14 -20 -34 -20z" />
    <glyph glyph-name="onehalf" unicode="&#xbd;" horiz-adv-x="1732" 
d="M684 514h-547q-12 0 -10 12l37 209q4 12 14 13h123q18 0 21 14l14 88q4 8 -12 8t-23 4l-125 131q-14 8 2 19l320 248q16 10 28 10h136q12 0 10 -15l-86 -493q-2 -8 1 -11t15 -3h123q12 -1 10 -13l-37 -209q-2 -12 -14 -12zM582 0h-166q-10 0 -15 9q-4 9 2 20l816 1243
q10 20 34 20h162q33 1 15 -28l-814 -1244q-14 -20 -34 -20zM1337 262q-53 0 -55 -19t1 -21q3 -3 11 -3h283q14 0 10 -16l-33 -187q-2 -16 -16 -16h-561q-14 0 -12 16l24 129q32 172 127 233q47 30 84 42q36 12 112 25t83 47q8 35 -35 34h-45q-35 0 -74 -55q-14 -23 -31 -12
l-180 90q-10 2 0 22q59 88 134 136t184 49h53q131 0 201 -80t47 -203q-16 -96 -107 -154q-92 -57 -205 -57z" />
    <glyph glyph-name="threequarters" unicode="&#xbe;" horiz-adv-x="1732" 
d="M1165 256h72q14 0 14 8l19 105q4 28 14 61l-6 2q-16 -31 -43 -65l-76 -101q-6 -10 6 -10zM358 428h-34q-135 0 -197 74q-39 43 -68 127q-14 16 7 24l213 90q10 8 26 -12q23 -76 72 -76h22q47 0 56 37l8 43q4 15 -6 21t-39 6h-156q-14 0 -12 12l33 187q4 12 16 12h156
q49 0 55 26l6 45q2 16 -7 24t-36 9h-22q-47 0 -99 -78q-23 -18 -28 -12l-185 90q-12 10 4 27q49 76 103 119q96 84 233 84h35q139 0 211 -75t49 -200l-4 -22q-10 -63 -53 -109q-16 -12 -4 -24q27 -39 10 -138l-6 -37q-21 -126 -119 -200t-240 -74zM1554 51h-84
q-16 0 -18 -16l-22 -127q-2 -12 -13 -12h-237q-12 0 -11 12l23 127q0 16 -12 16h-320q-12 0 -10 12l29 168l464 496q10 10 27 10h195q10 0 8 -12l-76 -428q0 -14 14 -14h84q11 -1 11 -13l-37 -207q-4 -12 -15 -12zM584 0h-166q-10 0 -15 9q-4 9 3 20l813 1243q14 20 36 20
h162q31 1 13 -28l-814 -1244q-14 -20 -32 -20z" />
    <glyph glyph-name="questiondown" unicode="&#xbf;" horiz-adv-x="1085" 
d="M469 -330h-76q-197 0 -300 106t-75 279q37 211 218 293q34 16 108 40t108 46t42 62l14 75q4 23 29 23h256q31 0 26 -33l-20 -110q-17 -97 -69 -151t-106 -80t-126 -52q-73 -27 -103 -56q-31 -28 -36 -60t20 -58t67 -25h76q39 0 83 27t69 70t55 28l205 -106q31 -17 4 -58
q-63 -96 -133 -149q-137 -111 -336 -111zM678 651q-72 0 -120 52t-36 119t79 119t139 52t119 -51q46 -51 34 -121t-77 -120q-66 -50 -138 -50z" />
    <glyph glyph-name="Agrave" unicode="&#xc0;" horiz-adv-x="1073" 
d="M471 424h119q20 0 20 18l-4 160q-3 83 4 213l2 39h-6q-39 -131 -88 -252l-65 -160q-8 -18 18 -18zM995 0h-321q-14 0 -17 14l-26 154q0 14 -23 14h-246q-20 0 -28 -14l-82 -154q-6 -14 -21 -14h-315q-31 0 -16 27l649 1251q8 14 22 14h224q14 0 16 -14l207 -1251
q4 -27 -23 -27zM614 1425q-23 0 -41 19l-264 268q-10 8 -2 20t23 13h336q27 0 34 -19l172 -272q6 -10 0 -19t-18 -10h-240z" />
    <glyph glyph-name="Aacute" unicode="&#xc1;" horiz-adv-x="1073" 
d="M471 424h119q20 0 20 18l-4 160q-3 83 4 213l2 39h-6q-39 -131 -88 -252l-65 -160q-8 -18 18 -18zM995 0h-321q-14 0 -17 14l-26 154q0 14 -23 14h-246q-20 0 -28 -14l-82 -154q-6 -14 -21 -14h-315q-31 0 -16 27l649 1251q8 14 22 14h224q14 0 16 -14l207 -1251
q4 -27 -23 -27zM551 1425q-12 -1 -14 9t8 20l266 272q18 18 43 19h336q20 0 16 -19q-2 -8 -8 -14l-358 -268q-25 -18 -49 -19h-240z" />
    <glyph glyph-name="Acircumflex" unicode="&#xc2;" horiz-adv-x="1073" 
d="M471 424h119q20 0 20 18l-4 160q-3 83 4 213l2 39h-6q-39 -131 -88 -252l-65 -160q-8 -18 18 -18zM995 0h-321q-14 0 -17 14l-26 154q0 14 -23 14h-246q-20 0 -28 -14l-82 -154q-6 -14 -21 -14h-315q-31 0 -16 27l649 1251q8 14 22 14h224q14 0 16 -14l207 -1251
q4 -27 -23 -27zM1020 1411h-213q-25 0 -35 25l-33 75q-6 15 -20 15t-25 -15l-57 -75q-18 -25 -47 -25h-213q-12 0 -15 9q-2 9 9 20l295 313q14 18 43 19h110q25 0 35 -19l184 -313q6 -10 0 -20t-18 -9z" />
    <glyph glyph-name="Atilde" unicode="&#xc3;" horiz-adv-x="1073" 
d="M471 424h119q20 0 20 18l-4 160q-3 83 4 213l2 39h-6q-39 -131 -88 -252l-65 -160q-8 -18 18 -18zM995 0h-321q-14 0 -17 14l-26 154q0 14 -23 14h-246q-20 0 -28 -14l-82 -154q-6 -14 -21 -14h-315q-31 0 -16 27l649 1251q8 14 22 14h224q14 0 16 -14l207 -1251
q4 -27 -23 -27zM791 1427q-55 0 -109 35t-80 35q-53 0 -88 -47q-20 -27 -39 -10l-117 86q-12 8 -2 24q125 180 289 181q63 0 115 -32t74 -32q59 0 102 51q18 23 33 8l114 -104q16 -13 4 -31q-121 -164 -296 -164z" />
    <glyph glyph-name="Adieresis" unicode="&#xc4;" horiz-adv-x="1073" 
d="M471 424h119q20 0 20 18l-4 160q-3 83 4 213l2 39h-6q-39 -131 -88 -252l-65 -160q-8 -18 18 -18zM995 0h-321q-14 0 -17 14l-26 154q0 14 -23 14h-246q-20 0 -28 -14l-82 -154q-6 -14 -21 -14h-315q-31 0 -16 27l649 1251q8 14 22 14h224q14 0 16 -14l207 -1251
q4 -27 -23 -27zM500 1434q-61 0 -98 42q-36 42 -26 104t63 106t113 43t96 -45t25 -106t-61 -103t-112 -41zM896 1434q-62 0 -97 42t-25 104t60 106t112 43q61 -1 98 -45t26 -105t-62 -103q-50 -42 -112 -42z" />
    <glyph glyph-name="Aring" unicode="&#xc5;" horiz-adv-x="1073" 
d="M471 424h119q20 0 20 18l-4 160q-3 83 4 213l2 39h-6q-39 -131 -88 -252l-65 -160q-8 -18 18 -18zM713 1470q-45 0 -54 -43l-10 -59q-6 -39 40 -39t52 39l11 59q6 43 -39 43zM995 0h-321q-14 0 -17 14l-26 154q0 14 -23 14h-246q-20 0 -28 -14l-82 -154q-6 -14 -21 -14
h-315q-31 0 -16 27l587 1132q10 20 -4 35q-68 63 -49 174l10 59q18 101 102 165t202 64q119 0 179 -62t42 -167l-11 -59q-18 -111 -110 -174q-23 -12 -19 -31l189 -1136q4 -27 -23 -27z" />
    <glyph glyph-name="AE" unicode="&#xc6;" horiz-adv-x="1482" 
d="M481 520h66q16 0 22 21l21 127l35 137h-7q-41 -84 -67 -129l-80 -133q-14 -23 10 -23zM1012 991q-23 0 -29 -22l-25 -142q-4 -23 21 -22h414q20 0 18 -19l-47 -264q-2 -18 -25 -18h-413q-23 0 -29 -23l-27 -157q-4 -23 21 -23h504q23 0 16 -18l-45 -263q-2 -20 -25 -20
h-852q-16 0 -14 20l39 218q2 12 -4 17t-23 5h-188q-23 0 -37 -20l-182 -224q-12 -16 -39 -16h-317q-16 0 -20 9q-3 9 7 22l1034 1245q12 16 39 16h785q20 0 18 -20l-47 -262q-2 -18 -24 -19h-504z" />
    <glyph glyph-name="Ccedilla" unicode="&#xc7;" horiz-adv-x="1099" 
d="M735 1020h-123q-51 0 -85 -24t-40 -62l-100 -576q-6 -38 19 -62t73 -24h123q88 0 170 115q20 29 43 16l234 -116q20 -10 -5 -39q-72 -102 -145 -162q-113 -96 -264 -111q-25 -2 -38 -21t-1 -26q84 -41 66 -153l-5 -15q-18 -110 -108 -178t-221 -67h-178q-18 0 -17 20
l31 178q6 23 29 23h133q35 0 36 24q2 14 -4 20t-24 5h-111q-23 0 -10 25l94 147q14 25 -4 29q-145 31 -212 129t-40 243l101 576q31 176 169 280t345 105h141q205 0 301 -125q49 -62 78 -150q14 -29 -10 -38l-275 -117q-29 -12 -37 16q-45 115 -129 115z" />
    <glyph glyph-name="Egrave" unicode="&#xc8;" horiz-adv-x="1015" 
d="M641 1020h-43q-51 0 -84 -24t-39 -62l-6 -37q-7 -35 17 -59t75 -23h219q20 0 19 -18l-47 -265q-2 -18 -25 -18h-219q-106 0 -121 -82l-12 -67q-9 -39 15 -66t75 -27h43q86 0 168 115q20 29 43 16l233 -116q18 -10 -4 -39q-86 -121 -176 -187q-123 -88 -299 -88h-59
q-205 0 -306 111t-69 297l10 57q27 154 125 224q20 14 6 30q-74 74 -53 187l6 34q33 184 174 295t344 111h60q182 0 278 -98q62 -64 101 -177q10 -31 -11 -38l-274 -117q-29 -12 -37 16q-45 115 -127 115zM598 1425q-23 0 -41 19l-264 268q-10 8 -2 20t22 13h336
q27 0 35 -19l172 -272q6 -10 0 -19t-18 -10h-240z" />
    <glyph glyph-name="Eacute" unicode="&#xc9;" horiz-adv-x="1015" 
d="M641 1020h-43q-51 0 -84 -24t-39 -62l-6 -37q-7 -35 17 -59t75 -23h219q20 0 19 -18l-47 -265q-2 -18 -25 -18h-219q-106 0 -121 -82l-12 -67q-9 -39 15 -66t75 -27h43q86 0 168 115q20 29 43 16l233 -116q18 -10 -4 -39q-68 -96 -139 -158q-141 -117 -336 -117h-59
q-205 0 -306 111t-69 297l10 57q27 154 125 224q20 14 6 30q-74 74 -53 187l6 34q33 184 174 295t344 111h60q182 0 278 -98q62 -64 101 -177q10 -31 -11 -38l-274 -117q-29 -12 -37 16q-45 115 -127 115zM535 1425q-13 -1 -15 9t8 20l267 272q18 18 43 19h336q20 0 16 -19
q-2 -8 -8 -14l-359 -268q-25 -18 -49 -19h-239z" />
    <glyph glyph-name="Ecircumflex" unicode="&#xca;" horiz-adv-x="1015" 
d="M641 1020h-43q-51 0 -84 -24t-39 -62l-6 -37q-7 -35 17 -59t75 -23h219q20 0 19 -18l-47 -265q-2 -18 -25 -18h-219q-106 0 -121 -82l-12 -67q-9 -39 15 -66t75 -27h43q86 0 168 115q20 29 43 16l233 -116q18 -10 -4 -39q-68 -96 -139 -158q-141 -117 -336 -117h-59
q-205 0 -306 111t-69 297l10 57q27 154 125 224q20 14 6 30q-74 74 -53 187l6 34q33 184 174 295t344 111h60q188 0 282 -102q58 -64 97 -173q10 -31 -11 -38l-274 -117q-29 -12 -37 16q-45 115 -127 115zM1004 1411h-213q-25 0 -35 25l-33 75q-7 15 -21 15t-24 -15l-57 -75
q-18 -25 -48 -25h-213q-12 0 -14 9t8 20l295 313q14 18 43 19h111q25 0 35 -19l184 -313q6 -10 0 -20t-18 -9z" />
    <glyph glyph-name="Edieresis" unicode="&#xcb;" horiz-adv-x="1015" 
d="M641 1020h-43q-51 0 -84 -24t-39 -62l-6 -37q-7 -35 17 -59t75 -23h219q20 0 19 -18l-47 -265q-2 -18 -25 -18h-219q-106 0 -121 -82l-12 -67q-9 -39 15 -66t75 -27h43q86 0 168 115q20 29 43 16l233 -116q18 -10 -4 -39q-82 -115 -162 -176q-131 -98 -313 -99h-59
q-205 0 -306 111t-69 297l10 57q27 154 125 224q20 14 6 30q-74 74 -53 187l6 34q33 184 174 295t344 111h60q188 0 282 -102q58 -64 97 -173q10 -31 -11 -38l-274 -117q-29 -12 -37 16q-45 115 -127 115zM486 1434q-62 0 -98 42t-26 104t62 106t114 43q60 -1 96 -45
t24 -106q-11 -62 -61 -103q-49 -41 -111 -41zM881 1434q-61 0 -97 42q-34 42 -24 104t60 106t112 43t98 -45q37 -44 26 -105q-10 -61 -62 -103t-113 -42z" />
    <glyph glyph-name="Igrave" unicode="&#xcc;" horiz-adv-x="542" 
d="M338 0h-301q-16 0 -14 20l221 1252q2 20 20 20h301q23 0 21 -20l-221 -1252q-2 -20 -27 -20zM346 1425q-23 0 -41 19l-264 268q-10 8 -2 20t22 13h336q25 0 35 -19l172 -272q6 -10 0 -19t-18 -10h-240z" />
    <glyph glyph-name="Iacute" unicode="&#xcd;" horiz-adv-x="542" 
d="M338 0h-301q-16 0 -14 20l221 1252q2 20 20 20h301q23 0 21 -20l-221 -1252q-2 -20 -27 -20zM283 1425q-13 -1 -15 9t8 20l267 272q18 18 43 19h336q20 0 16 -19q-2 -8 -8 -14l-359 -268q-25 -18 -49 -19h-239z" />
    <glyph glyph-name="Icircumflex" unicode="&#xce;" horiz-adv-x="542" 
d="M338 0h-301q-16 0 -14 20l221 1252q2 20 20 20h301q23 0 21 -20l-221 -1252q-2 -20 -27 -20zM752 1411h-213q-27 0 -35 25l-33 75q-6 15 -20 15t-25 -15l-57 -75q-18 -25 -47 -25h-213q-12 0 -15 9q-2 9 8 20l295 313q16 18 43 19h111q27 0 35 -19l184 -313q6 -10 0 -20
t-18 -9z" />
    <glyph glyph-name="Idieresis" unicode="&#xcf;" horiz-adv-x="542" 
d="M338 0h-301q-16 0 -14 20l221 1252q2 20 20 20h301q23 0 21 -20l-221 -1252q-2 -20 -27 -20zM286 1729q60 -1 96 -45t25 -106t-61 -103t-112 -41t-98 42t-26 104t63 106t113 43zM629 1434q-61 0 -97 42q-34 42 -24 104t60 106t112 43t98 -45q37 -44 26 -105
q-10 -61 -62 -103t-113 -42z" />
    <glyph glyph-name="Eth" unicode="&#xd0;" horiz-adv-x="1200" 
d="M559 991q-23 0 -29 -22l-22 -135q-6 -29 20 -29h138q20 0 18 -19l-49 -280q-6 -18 -25 -19h-137q-27 0 -31 -24l-24 -139q-4 -23 20 -23h224q42 0 76 26t40 58l92 520q6 31 -20 59q-27 28 -68 27h-223zM608 0h-571q-16 0 -14 20l77 445q4 23 -22 22h-84q-20 0 -14 19
l49 280q2 18 20 19h84q25 0 31 24l80 443q2 20 20 20h572q203 0 302 -108t66 -297l-84 -486q-33 -185 -171 -293t-341 -108z" />
    <glyph glyph-name="Ntilde" unicode="&#xd1;" horiz-adv-x="1177" 
d="M975 0h-256q-14 0 -19 18l-206 566l-27 92h-8q-16 -162 -45 -330l-58 -326q-2 -20 -24 -20h-295q-16 0 -14 20l221 1252q2 20 20 20h260q18 0 25 -18l201 -578l26 -98h6q18 160 52 342l59 332q2 20 20 20h289q21 0 19 -20l-222 -1252q-2 -20 -24 -20zM836 1427
q-56 0 -110 35t-79 35q-53 0 -88 -47q-20 -27 -39 -10l-117 86q-12 8 -2 24q125 180 289 181q62 0 114 -32t75 -32q59 0 102 51q18 23 33 8l114 -104q17 -13 5 -31q-121 -164 -297 -164z" />
    <glyph glyph-name="Ograve" unicode="&#xd2;" horiz-adv-x="1167" 
d="M756 1020h-144q-45 0 -82 -27t-43 -59l-100 -576q-7 -40 17 -62t77 -22h144q47 0 77 24t37 60l101 576q6 38 -18 62t-66 24zM428 -27q-201 -1 -304 105t-73 280l101 576q31 172 173 278t341 107h143q197 1 299 -105t72 -280l-101 -576q-31 -174 -171 -279t-337 -106h-143
zM659 1425q-23 0 -41 19l-264 268q-10 8 -2 20t23 13h336q27 0 34 -19l173 -272q6 -10 0 -19t-19 -10h-240z" />
    <glyph glyph-name="Oacute" unicode="&#xd3;" horiz-adv-x="1167" 
d="M756 1020h-144q-45 0 -82 -27t-43 -59l-100 -576q-7 -40 17 -62t77 -22h144q47 0 77 24t37 60l101 576q6 38 -18 62t-66 24zM428 -27q-201 -1 -304 105t-73 280l101 576q31 172 173 278t341 107h143q197 1 299 -105t72 -280l-101 -576q-31 -174 -171 -279t-337 -106h-143
zM596 1425q-12 -1 -14 9t8 20l266 272q18 18 43 19h336q20 0 16 -19q-2 -8 -8 -14l-358 -268q-25 -18 -49 -19h-240z" />
    <glyph glyph-name="Ocircumflex" unicode="&#xd4;" horiz-adv-x="1167" 
d="M756 1020h-144q-45 0 -82 -27t-43 -59l-100 -576q-7 -40 17 -62t77 -22h144q47 0 77 24t37 60l101 576q6 38 -18 62t-66 24zM428 -27q-201 -1 -304 105t-73 280l101 576q31 172 173 278t341 107h143q197 1 299 -105t72 -280l-101 -576q-31 -174 -171 -279t-337 -106h-143
zM1065 1411h-213q-25 0 -35 25l-33 75q-6 15 -20 15t-25 -15l-57 -75q-18 -25 -47 -25h-213q-12 0 -14 9t8 20l295 313q14 18 43 19h110q25 0 35 -19l184 -313q6 -10 0 -20t-18 -9z" />
    <glyph glyph-name="Otilde" unicode="&#xd5;" horiz-adv-x="1167" 
d="M756 1020h-144q-45 0 -82 -27t-43 -59l-100 -576q-7 -40 17 -62t77 -22h144q47 0 77 24t37 60l101 576q6 38 -18 62t-66 24zM428 -27q-201 -1 -304 105t-73 280l101 576q31 172 173 278t341 107h143q197 1 299 -105t72 -280l-101 -576q-31 -174 -171 -279t-337 -106h-143
zM836 1427q-56 0 -110 35t-79 35q-53 0 -88 -47q-20 -27 -39 -10l-117 86q-12 8 -2 24q125 180 289 181q62 0 114 -32t75 -32q59 0 102 51q18 23 33 8l114 -104q17 -13 5 -31q-121 -164 -297 -164z" />
    <glyph glyph-name="Odieresis" unicode="&#xd6;" horiz-adv-x="1167" 
d="M756 1020h-144q-45 0 -82 -27t-43 -59l-100 -576q-7 -40 17 -62t77 -22h144q47 0 77 24t37 60l101 576q6 38 -18 62t-66 24zM428 -27q-201 -1 -304 105t-73 280l101 576q31 172 173 278t341 107h143q197 1 299 -105t72 -280l-101 -576q-31 -174 -171 -279t-337 -106h-143
zM547 1434q-61 0 -97 42t-26 104t62 106t112 43t97 -45q36 -44 25 -106q-12 -62 -62 -103t-111 -41zM942 1434q-62 0 -96 42q-35 42 -25 104q11 62 61 106t111 43t98 -45t26 -105t-62 -103t-113 -42z" />
    <glyph glyph-name="multiply" unicode="&#xd7;" 
d="M1065 813q10 -10 -6 -27l-322 -270q-23 -16 -8 -35l209 -254q10 -12 -4 -26l-146 -125q-18 -12 -28 -2l-207 254q-16 16 -35 -2l-317 -269q-16 -12 -25 0l-121 148q-14 14 4 26l308 263q23 18 8 32l-209 254q-10 12 6 29l154 131q14 14 26 -2l209 -254q10 -14 35 4
l319 273q16 14 29 0z" />
    <glyph glyph-name="Oslash" unicode="&#xd8;" horiz-adv-x="1167" 
d="M520 274h105q47 0 77 24t37 60l70 398q2 10 -5 12t-13 -8l-283 -461q-14 -25 12 -25zM717 1020h-105q-45 0 -82 -27t-43 -59l-69 -404q-2 -10 5 -11t11 7l291 471q14 23 -8 23zM428 -27q-201 -1 -304 105t-73 280l101 576q31 172 173 278t341 107h143q197 1 299 -105
t72 -280l-101 -576q-31 -174 -171 -279t-337 -106h-143z" />
    <glyph glyph-name="Ugrave" unicode="&#xd9;" horiz-adv-x="1206" 
d="M446 -27q-199 -1 -302 105t-72 280l161 914q2 20 21 20h297q18 0 16 -20l-161 -914q-6 -40 16 -62t78 -22h143q102 0 117 84l162 914q2 20 20 20h301q19 0 17 -20l-162 -914q-31 -174 -171 -279t-337 -106h-144zM676 1425q-23 0 -41 19l-264 268q-10 8 -2 20t22 13h336
q27 0 35 -19l172 -272q8 -10 1 -19t-20 -10h-239z" />
    <glyph glyph-name="Uacute" unicode="&#xda;" horiz-adv-x="1206" 
d="M446 -27q-199 -1 -302 105t-72 280l161 914q2 20 21 20h297q18 0 16 -20l-161 -914q-6 -40 16 -62t78 -22h143q102 0 117 84l162 914q2 20 20 20h301q19 0 17 -20l-162 -914q-31 -174 -171 -279t-337 -106h-144zM612 1425q-12 -1 -14 9t8 20l266 272q18 18 43 19h336
q21 0 17 -19q-2 -8 -8 -14l-359 -268q-25 -18 -49 -19h-240z" />
    <glyph glyph-name="Ucircumflex" unicode="&#xdb;" horiz-adv-x="1206" 
d="M446 -27q-199 -1 -302 105t-72 280l161 914q2 20 21 20h297q18 0 16 -20l-161 -914q-6 -40 16 -62t78 -22h143q102 0 117 84l162 914q2 20 20 20h301q19 0 17 -20l-162 -914q-31 -174 -171 -279t-337 -106h-144zM1081 1411h-213q-25 0 -34 25l-33 75q-7 15 -21 15
t-24 -15l-58 -75q-18 -25 -47 -25h-213q-12 0 -14 9t8 20l295 313q14 18 43 19h111q25 0 34 -19l185 -313q6 -10 0 -20t-19 -9z" />
    <glyph glyph-name="Udieresis" unicode="&#xdc;" horiz-adv-x="1206" 
d="M446 -27q-199 -1 -302 105t-72 280l161 914q2 20 21 20h297q18 0 16 -20l-161 -914q-6 -40 16 -62t78 -22h143q102 0 117 84l162 914q2 20 20 20h301q19 0 17 -20l-162 -914q-31 -174 -171 -279t-337 -106h-144zM564 1434q-62 0 -98 42t-26 104t62 106t113 43
q60 -1 96 -45t25 -106t-61 -103q-49 -41 -111 -41zM1010 1729q62 -1 98 -45q37 -44 26 -105q-10 -61 -62 -103t-114 -42t-96 42t-24 104t60 106t112 43z" />
    <glyph glyph-name="Yacute" unicode="&#xdd;" horiz-adv-x="1003" 
d="M569 0h-299q-16 0 -14 20l98 560l-286 682q-4 12 2 21t18 9h342q23 0 31 -20l110 -299q5 -15 17 -15t22 15l224 299q14 20 34 20h338q36 1 13 -30l-527 -682l-98 -560q-2 -20 -25 -20zM530 1425q-12 -1 -14 9t8 20l267 272q18 18 43 19h335q21 0 17 -19q-2 -8 -8 -14
l-359 -268q-25 -18 -49 -19h-240z" />
    <glyph glyph-name="Thorn" unicode="&#xde;" horiz-adv-x="1056" 
d="M516 745q-25 0 -29 -22l-24 -141q-4 -23 20 -23h142q102 0 114 72l9 41q6 30 -19 52t-72 21h-141zM571 258h-141q-23 0 -29 -22l-36 -216q-2 -20 -25 -20h-303q-16 0 -14 20l221 1252q2 20 20 20h301q23 0 21 -20l-37 -199q-6 -27 22 -26h140q203 1 304 -97t70 -276
l-14 -82q-27 -154 -165 -244t-335 -90z" />
    <glyph glyph-name="germandbls" unicode="&#xdf;" horiz-adv-x="1069" 
d="M504 285q76 1 110 23t43 77l11 57q10 57 -16 82t-101 25q-27 0 -23 22l37 203q6 27 29 27q135 0 151 86l9 39q8 38 -16 62t-70 24q-109 0 -123 -86l-164 -928q-39 -225 -183 -352t-350 -127q-94 0 -163 16q-20 6 -15 29l107 237q8 17 43 11t85 -6t83 26q33 27 41 72
l178 1009q29 170 168 284t350 114t303 -109t62 -297l-7 -37q-23 -133 -118 -204q-23 -20 -7 -37q70 -70 48 -199l-9 -47q-68 -403 -544 -404q-23 0 -21 21l45 262q6 25 27 25z" />
    <glyph glyph-name="agrave" unicode="&#xe0;" horiz-adv-x="1028" 
d="M543 707q-102 0 -117 -82l-49 -281q-5 -40 17 -62t69 -22t81 23t40 61l49 281q6 37 -18 59t-72 23zM842 0h-234q-18 0 -18 16l10 50q2 10 -6 13t-16 -5q-84 -74 -203 -74q-203 0 -286 93t-48 292l39 219q31 174 147 268q117 94 299 95q137 0 211 -74q4 -6 12 -4q7 2 9 10
l10 49q0 18 25 19h217q20 -1 18 -19l-164 -928q-2 -20 -22 -20zM770 1106h-240q-25 0 -43 18l-276 310q-8 8 -1 20t21 12h336q27 0 35 -18l184 -313q6 -9 1 -19t-17 -10z" />
    <glyph glyph-name="aacute" unicode="&#xe1;" horiz-adv-x="1028" 
d="M543 707q-102 0 -117 -82l-49 -281q-5 -40 17 -62t69 -22t81 23t40 61l49 281q6 37 -18 59t-72 23zM842 0h-234q-18 0 -18 16l10 50q2 10 -6 13t-16 -5q-84 -74 -203 -74q-203 0 -286 93t-48 292l39 219q31 174 147 268q117 94 299 95q137 0 211 -74q4 -6 12 -4q7 2 9 10
l10 49q0 18 25 19h217q20 -1 18 -19l-164 -928q-2 -20 -22 -20zM682 1106h-240q-17 0 -15 15q1 7 7 14l295 313q18 18 43 18h336q20 0 16 -18q-2 -8 -8 -14l-387 -310q-20 -18 -47 -18z" />
    <glyph glyph-name="acircumflex" unicode="&#xe2;" horiz-adv-x="1028" 
d="M543 707q-102 0 -117 -82l-49 -281q-5 -40 17 -62t69 -22t81 23t40 61l49 281q6 37 -18 59t-72 23zM842 0h-234q-18 0 -18 16l10 50q2 10 -6 13t-16 -5q-84 -74 -203 -74q-203 0 -286 93t-48 292l39 219q31 174 147 268q117 94 299 95q137 0 211 -74q4 -6 12 -4q7 2 9 10
l10 49q0 18 25 19h217q20 -1 18 -19l-164 -928q-2 -20 -22 -20zM711 1085q-18 0 -29 19l-37 96q-14 33 -39 0l-74 -96q-12 -18 -32 -19h-228q-14 -1 -17 11t7 22l318 355q14 16 34 16h121q23 0 31 -16l190 -355q6 -12 1 -22t-19 -11h-227z" />
    <glyph glyph-name="atilde" unicode="&#xe3;" horiz-adv-x="1028" 
d="M543 707q-102 0 -117 -82l-49 -281q-5 -40 17 -62t69 -22t81 23t40 61l49 281q6 37 -18 59t-72 23zM842 0h-234q-18 0 -18 16l10 50q2 10 -6 13t-16 -5q-84 -74 -203 -74q-203 0 -286 93t-48 292l39 219q31 174 147 268q117 94 299 95q137 0 211 -74q4 -6 12 -4q7 2 9 10
l10 49q0 18 25 19h217q20 -1 18 -19l-164 -928q-2 -20 -22 -20zM725 1106q-45 0 -119 48t-102 48q-47 0 -94 -72q-14 -20 -33 -6l-127 103q-16 12 -4 33q131 201 295 200q55 0 132 -46t97 -46q45 0 100 84q16 27 33 10l125 -112q10 -10 -2 -31q-152 -213 -301 -213z" />
    <glyph glyph-name="adieresis" unicode="&#xe4;" horiz-adv-x="1028" 
d="M543 707q-102 0 -117 -82l-49 -281q-5 -40 17 -62t69 -22t81 23t40 61l49 281q6 37 -18 59t-72 23zM842 0h-234q-18 0 -18 16l10 50q2 10 -6 13t-16 -5q-84 -74 -203 -74q-203 0 -286 93t-48 292l39 219q31 174 147 268q117 94 299 95q137 0 211 -74q4 -6 12 -4q7 2 9 10
l10 49q0 18 25 19h217q20 -1 18 -19l-164 -928q-2 -20 -22 -20zM394 1126q-74 0 -114 44t-28 113t70 116t130 47q70 0 112 -47t31 -114t-69 -113t-132 -46zM818 1126q-73 0 -115 44q-41 44 -29 113t71 116t129 47t112 -46t30 -116t-68 -114t-130 -44z" />
    <glyph glyph-name="aring" unicode="&#xe5;" horiz-adv-x="1028" 
d="M543 707q-102 0 -117 -82l-49 -281q-5 -40 17 -62t69 -22t81 23t40 61l49 281q6 37 -18 59t-72 23zM659 1417q-47 0 -55 -43l-10 -59q-4 -15 8 -27t33 -12q45 0 51 39l10 59q4 18 -6 30t-31 13zM842 0h-234q-18 0 -18 16l10 50q2 10 -6 13t-16 -5q-84 -74 -203 -74
q-203 0 -286 93t-48 292l39 219q31 174 147 268q117 94 299 95q137 0 211 -74q4 -6 12 -4q7 2 9 10l10 49q0 18 25 19h217q20 -1 18 -19l-164 -928q-2 -20 -22 -20zM913 1374l-10 -59q-18 -105 -100 -167t-201 -62t-180 62t-43 167l10 59q18 102 101 166t202 64t179 -63
t42 -167z" />
    <glyph glyph-name="ae" unicode="&#xe6;" horiz-adv-x="1531" 
d="M412 381q-88 0 -102 -90t67 -90h67q37 -1 73 43t48 112q4 25 -28 25h-125zM973 588h198q29 0 33 24l4 29q6 43 -20 71q-27 28 -86 28t-97 -28t-49 -75l-6 -29q-2 -8 5 -14t18 -6zM1450 422h-504q-29 0 -33 -25l-6 -39q-6 -42 20 -68t77 -26q100 0 176 107q16 27 41 6
l188 -141q16 -10 -6 -43q-166 -220 -455 -220q-225 0 -317 115q-25 31 -51 0q-45 -51 -111 -83t-129 -32h-64q-147 0 -221 74t-55 211l6 47q16 127 132 191t280 63h160q23 0 26 25l6 37q6 39 -20 63t-78 23q-111 0 -188 -111q-16 -27 -41 -6l-191 141q-16 12 8 43
q74 98 193 158t275 61q156 0 255 -51q29 -14 58 -2q109 53 247 53q186 1 294 -109t79 -278l-28 -164q-2 -20 -23 -20z" />
    <glyph glyph-name="ccedilla" unicode="&#xe7;" horiz-adv-x="937" 
d="M541 713q-100 0 -115 -86l-51 -287q-14 -86 86 -86q92 0 166 125q18 27 39 16l208 -96q18 -10 3 -41q-49 -94 -115 -156q-82 -82 -203 -112q-33 -8 -48 -32t-3 -30q94 -46 61 -168q-18 -110 -108 -178t-221 -67h-179q-18 0 -16 20l31 178q6 23 28 23h134q35 0 36 24
q2 14 -4 20t-24 5h-111q-23 0 -10 25l102 159q18 25 -10 37q-106 43 -155 135q-48 92 -25 219l43 246q31 176 168 282t347 105q210 0 298 -123q45 -63 63 -161q6 -31 -18 -41l-242 -97q-29 -12 -32 17q-16 61 -44 93t-79 32z" />
    <glyph glyph-name="egrave" unicode="&#xe8;" horiz-adv-x="1003" 
d="M444 588h199q29 0 33 24l4 29q6 43 -21 71t-86 28t-97 -28t-48 -75l-6 -29q-2 -8 5 -14t17 -6zM922 422h-504q-29 0 -33 -25l-6 -39q-7 -42 19 -68t77 -26q100 0 176 107q16 27 41 6l189 -141q16 -10 -7 -43q-161 -220 -454 -220q-201 0 -307 108t-76 279l43 246
q31 172 179 280q147 108 337 108t298 -110t79 -278l-29 -164q-2 -20 -22 -20zM772 1106h-240q-25 0 -43 18l-276 310q-8 8 -1 20t21 12h336q25 0 35 -18l184 -313q6 -10 2 -20q-5 -9 -18 -9z" />
    <glyph glyph-name="eacute" unicode="&#xe9;" horiz-adv-x="1003" 
d="M444 588h199q29 0 33 24l4 29q6 43 -21 71t-86 28t-97 -28t-48 -75l-6 -29q-2 -8 5 -14t17 -6zM922 422h-504q-29 0 -33 -25l-6 -39q-7 -42 19 -68t77 -26q100 0 176 107q16 27 41 6l189 -141q16 -10 -7 -43q-161 -220 -454 -220q-201 0 -307 108t-76 279l43 246
q31 172 179 280q147 108 337 108t298 -110t79 -278l-29 -164q-2 -20 -22 -20zM686 1106h-240q-17 0 -15 15q1 7 7 14l295 313q18 18 43 18h336q20 0 16 -18q-2 -8 -8 -14l-387 -310q-20 -18 -47 -18z" />
    <glyph glyph-name="ecircumflex" unicode="&#xea;" horiz-adv-x="1003" 
d="M444 588h199q29 0 33 24l4 29q6 43 -21 71t-86 28t-97 -28t-48 -75l-6 -29q-2 -8 5 -14t17 -6zM922 422h-504q-29 0 -33 -25l-6 -39q-7 -42 19 -68t77 -26q100 0 176 107q16 27 41 6l189 -141q16 -10 -7 -43q-161 -220 -454 -220q-201 0 -307 108t-76 279l43 246
q31 172 179 280q147 108 337 108t298 -110t79 -278l-29 -164q-2 -20 -22 -20zM715 1085q-18 0 -29 19l-37 96q-4 14 -16 14t-23 -14l-73 -96q-12 -18 -33 -19h-228q-14 -1 -17 11t7 22l318 355q14 16 34 16h121q23 0 31 -16l191 -355q6 -12 1 -22t-20 -11h-227z" />
    <glyph glyph-name="edieresis" unicode="&#xeb;" horiz-adv-x="1003" 
d="M444 588h199q29 0 33 24l4 29q6 43 -21 71t-86 28t-97 -28t-48 -75l-6 -29q-2 -8 5 -14t17 -6zM922 422h-504q-29 0 -33 -25l-6 -39q-7 -42 19 -68t77 -26q100 0 176 107q16 27 41 6l189 -141q16 -10 -7 -43q-161 -220 -454 -220q-201 0 -307 108t-76 279l43 246
q31 172 179 280q147 108 337 108t298 -110t79 -278l-29 -164q-2 -20 -22 -20zM396 1126q-74 0 -114 44t-28 113t70 116t130 47q70 0 112 -47t31 -114t-69 -113t-132 -46zM820 1126q-72 0 -114 44t-30 113t72 116t129 47t111 -46t30 -116t-68 -114t-130 -44z" />
    <glyph glyph-name="igrave" unicode="&#xec;" horiz-adv-x="509" 
d="M324 0h-299q-18 0 -17 20l164 928q2 18 23 19h299q18 -1 16 -19l-164 -928q-2 -20 -22 -20zM281 1085q-25 0 -43 19l-277 309q-8 9 -1 21t22 12h335q27 0 35 -19l185 -313q6 -10 1 -19t-18 -10h-239z" />
    <glyph glyph-name="iacute" unicode="&#xed;" horiz-adv-x="509" 
d="M324 0h-299q-18 0 -17 20l164 928q2 18 23 19h299q18 -1 16 -19l-164 -928q-2 -20 -22 -20zM193 1085q-18 0 -16 16q1 7 7 13l295 313q18 18 43 19h336q20 0 16 -19q-2 -8 -8 -14l-387 -309q-20 -18 -47 -19h-239z" />
    <glyph glyph-name="icircumflex" unicode="&#xee;" horiz-adv-x="509" 
d="M324 0h-299q-18 0 -17 20l164 928q2 18 23 19h299q18 -1 16 -19l-164 -928q-2 -20 -22 -20zM461 1085q-18 0 -29 19l-37 96q-14 33 -39 0l-73 -96q-12 -18 -33 -19h-227q-13 -1 -17 11t6 22l318 355q14 16 35 16h120q23 0 31 -16l191 -355q6 -12 1 -22t-20 -11h-227z" />
    <glyph glyph-name="idieresis" unicode="&#xef;" horiz-adv-x="509" 
d="M324 0h-299q-18 0 -17 20l164 928q2 18 23 19h299q18 -1 16 -19l-164 -928q-2 -20 -22 -20zM144 1126q-74 0 -114 44t-28 113t70 116t130 47q70 0 112 -47t31 -114t-69 -113t-132 -46zM568 1126q-72 0 -114 44t-30 113t72 116t129 47t111 -46t30 -116t-68 -114t-130 -44z
" />
    <glyph glyph-name="eth" unicode="&#xf0;" horiz-adv-x="1003" 
d="M549 723q-47 0 -81 -25t-40 -61l-53 -307q-5 -37 19 -62q24 -24 71 -24t80 24t39 62l53 307q7 37 -17 61t-71 25zM217 1292h379q16 0 31 -20l26 -39l172 59q9 4 19 0t8 -12l-14 -92q-4 -20 -23 -27l-86 -31l215 -296q23 -30 31 -96t-2 -132l-43 -246q-31 -174 -172 -280
t-340 -106t-305 107q-106 108 -76 279l43 246q25 136 122 234t240 135l-36 43l-203 -70q-8 -4 -19 0q-10 4 -8 13l14 83q4 27 19 33l113 39l-125 146q-8 10 0 20t20 10z" />
    <glyph glyph-name="ntilde" unicode="&#xf1;" horiz-adv-x="1044" 
d="M866 0h-299q-16 0 -14 20l102 584q6 37 -16 60q-23 22 -72 22t-81 -22t-37 -60l-103 -584q-2 -20 -24 -20h-297q-18 0 -17 20l164 928q2 18 23 19h217q20 0 20 -19l-10 -49q-2 -8 6 -10t14 4q98 74 236 74q182 1 264 -93t51 -270l-102 -584q-2 -20 -25 -20zM756 1106
q-45 0 -119 48t-102 48q-47 0 -95 -72q-14 -20 -32 -6l-127 103q-16 12 -5 33q131 201 295 200q55 0 132 -46t98 -46q45 0 100 84q16 27 33 10l125 -112q10 -10 -2 -31q-152 -213 -301 -213z" />
    <glyph glyph-name="ograve" unicode="&#xf2;" horiz-adv-x="1003" 
d="M550 723q-46 0 -81 -25t-41 -61l-55 -307q-7 -37 19 -62q26 -24 73 -24t79 24t38 62l55 307q7 37 -17 61t-70 25zM598 993q198 1 302 -105t73 -282l-43 -246q-31 -174 -172 -280t-340 -106t-305 107q-106 108 -76 279l43 246q31 174 175 280t343 107zM776 1106h-239
q-25 0 -43 18l-277 310q-8 8 -1 20t22 12h335q25 0 35 -18l185 -313q6 -9 1 -19t-18 -10z" />
    <glyph glyph-name="oacute" unicode="&#xf3;" horiz-adv-x="1003" 
d="M550 723q-46 0 -81 -25t-41 -61l-55 -307q-7 -37 19 -62q26 -24 73 -24t79 24t38 62l55 307q7 37 -17 61t-70 25zM598 993q198 1 302 -105t73 -282l-43 -246q-31 -174 -172 -280t-340 -106t-305 107q-106 108 -76 279l43 246q31 174 175 280t343 107zM688 1106h-239
q-12 0 -16 9q-3 9 7 20l295 313q18 18 43 18h336q20 0 16 -18q-2 -8 -8 -14l-387 -310q-20 -18 -47 -18z" />
    <glyph glyph-name="ocircumflex" unicode="&#xf4;" horiz-adv-x="1003" 
d="M550 723q-46 0 -81 -25t-41 -61l-55 -307q-7 -37 19 -62q26 -24 73 -24t79 24t38 62l55 307q7 37 -17 61t-70 25zM598 993q198 1 302 -105t73 -282l-43 -246q-31 -174 -172 -280t-340 -106t-305 107q-106 108 -76 279l43 246q31 174 175 280t343 107zM717 1085
q-20 0 -29 19l-37 96q-14 33 -39 0l-73 -96q-12 -18 -33 -19h-227q-13 -1 -17 11t6 22l318 355q14 16 35 16h120q23 0 31 -16l191 -355q6 -12 1 -22t-20 -11h-227z" />
    <glyph glyph-name="otilde" unicode="&#xf5;" horiz-adv-x="1003" 
d="M550 723q-46 0 -81 -25t-41 -61l-55 -307q-7 -37 19 -62q26 -24 73 -24t79 24t38 62l55 307q7 37 -17 61t-70 25zM598 993q198 1 302 -105t73 -282l-43 -246q-31 -174 -172 -280t-340 -106t-305 107q-106 108 -76 279l43 246q31 174 175 280t343 107zM733 1106
q-45 0 -119 48t-102 48q-47 0 -94 -72q-14 -20 -33 -6l-127 103q-16 12 -4 33q131 201 295 200q55 0 132 -46t97 -46q45 0 101 84q16 27 32 10l125 -112q10 -10 -2 -31q-152 -213 -301 -213z" />
    <glyph glyph-name="odieresis" unicode="&#xf6;" horiz-adv-x="1003" 
d="M550 723q-46 0 -81 -25t-41 -61l-55 -307q-7 -37 19 -62q26 -24 73 -24t79 24t38 62l55 307q7 37 -17 61t-70 25zM598 993q198 1 302 -105t73 -282l-43 -246q-31 -174 -172 -280t-340 -106t-305 107q-106 108 -76 279l43 246q31 174 175 280t343 107zM402 1126
q-74 0 -114 44t-28 113t70 116t130 47q70 0 112 -47t31 -114t-69 -113t-132 -46zM826 1126q-72 0 -114 44t-30 113t72 116t129 47t111 -46t30 -116t-68 -114t-130 -44z" />
    <glyph glyph-name="divide" unicode="&#xf7;" 
d="M458 0q-74 0 -119 48q-46 48 -34 120t77 121q66 49 138 49t120 -51t36 -119t-78 -118t-140 -50zM61 434q-16 0 -14 19l37 206q2 20 20 21h949q20 -1 18 -21l-37 -206q-2 -18 -24 -19h-949zM596 778q-74 0 -120 48t-34 120t77 121t137 49t121 -51q48 -51 36 -119t-78 -118
q-65 -50 -139 -50z" />
    <glyph glyph-name="oslash" unicode="&#xf8;" horiz-adv-x="1003" 
d="M475 244q37 0 69 24t38 62l28 164q4 14 -4 16t-16 -10l-166 -215q-20 -27 -3 -34t54 -7zM534 723q-30 0 -65 -25t-41 -61l-29 -156q-2 -12 4 -15t15 7l168 217q18 23 -2 29q-20 4 -50 4zM598 993q198 1 302 -105t73 -282l-43 -246q-31 -174 -172 -280t-340 -106t-305 107
q-106 108 -76 279l43 246q31 174 175 280t343 107z" />
    <glyph glyph-name="ugrave" unicode="&#xf9;" horiz-adv-x="1044" 
d="M858 0h-219q-8 0 -15 6t-6 12l9 50q2 8 -5 10t-14 -4q-98 -74 -235 -74q-182 0 -264 93t-52 269l103 584q2 20 22 21h299q18 0 17 -21l-103 -584q-6 -38 17 -60q22 -22 70 -22t81 24q33 22 39 58l103 584q2 20 22 21h301q16 -1 14 -21l-161 -928q-6 -18 -23 -18z
M786 1106h-239q-25 0 -43 18l-277 310q-8 8 -1 20t22 12h336q27 0 34 -18l185 -313q6 -9 1 -19t-18 -10z" />
    <glyph glyph-name="uacute" unicode="&#xfa;" horiz-adv-x="1044" 
d="M858 0h-219q-8 0 -15 6t-6 12l9 50q2 8 -5 10t-14 -4q-98 -74 -235 -74q-182 0 -264 93t-52 269l103 584q2 20 22 21h299q18 0 17 -21l-103 -584q-6 -38 17 -60q22 -22 70 -22t81 24q33 22 39 58l103 584q2 20 22 21h301q16 -1 14 -21l-161 -928q-6 -18 -23 -18z
M698 1106h-239q-18 0 -16 15q1 7 8 14l294 313q18 18 43 18h336q22 0 17 -18q-2 -8 -8 -14l-388 -310q-20 -18 -47 -18z" />
    <glyph glyph-name="ucircumflex" unicode="&#xfb;" horiz-adv-x="1044" 
d="M858 0h-219q-8 0 -15 6t-6 12l9 50q2 8 -5 10t-14 -4q-98 -74 -235 -74q-182 0 -264 93t-52 269l103 584q2 20 22 21h299q18 0 17 -21l-103 -584q-6 -38 17 -60q22 -22 70 -22t81 24q33 22 39 58l103 584q2 20 22 21h301q16 -1 14 -21l-161 -928q-6 -18 -23 -18z
M727 1085q-18 0 -29 19l-36 96q-14 33 -39 0l-74 -96q-12 -18 -33 -19h-227q-13 -1 -17 11t7 22l317 355q14 16 35 16h121q23 0 30 -16l191 -355q6 -12 1 -22t-20 -11h-227z" />
    <glyph glyph-name="udieresis" unicode="&#xfc;" horiz-adv-x="1044" 
d="M858 0h-219q-8 0 -15 6t-6 12l9 50q2 8 -5 10t-14 -4q-98 -74 -235 -74q-182 0 -264 93t-52 269l103 584q2 20 22 21h299q18 0 17 -21l-103 -584q-6 -38 17 -60q22 -22 70 -22t81 24q33 22 39 58l103 584q2 20 22 21h301q16 -1 14 -21l-161 -928q-6 -18 -23 -18z
M411 1126q-73 0 -114 44t-29 113t70 116t130 47q70 0 112 -47t31 -114t-69 -113t-131 -46zM835 1126q-73 0 -115 44t-30 113t72 116t129 47t111 -46t30 -116t-68 -114t-129 -44z" />
    <glyph glyph-name="yacute" unicode="&#xfd;" horiz-adv-x="1044" 
d="M366 -481q-200 0 -311 104q-51 53 -80 123q-10 33 9 43l237 141q33 20 39 -6q37 -106 141 -106t121 92l19 106q4 10 -3 14t-18 -1q-53 -29 -121 -29q-186 0 -277 103t-61 280l99 563q2 20 22 21h299q18 0 17 -21l-103 -584q-6 -38 17 -60q22 -22 70 -22t81 24t39 58
l103 584q2 20 22 21h301q16 -1 14 -21l-182 -1040q-33 -182 -164 -284q-130 -102 -330 -103zM698 1106h-239q-18 0 -16 15q1 7 8 14l294 313q18 18 43 18h336q22 0 17 -18q-2 -8 -8 -14l-388 -310q-20 -18 -47 -18z" />
    <glyph glyph-name="thorn" unicode="&#xfe;" horiz-adv-x="1028" 
d="M571 707q-47 0 -79 -23t-39 -61l-52 -281q-6 -38 18 -60t73 -22q102 0 116 82l51 281q7 39 -17 61t-71 23zM479 0q-68 0 -112 29q-16 12 -23 -13l-55 -321q-2 -20 -25 -21h-297q-18 0 -16 21l278 1577q2 20 23 20h250q22 0 18 -16l-63 -358q-2 -10 5 -12t15 3
q82 57 182 58q203 0 286 -93t48 -292l-35 -199q-31 -176 -161 -280q-131 -103 -318 -103z" />
    <glyph glyph-name="ydieresis" unicode="&#xff;" horiz-adv-x="1044" 
d="M360 -481q-205 0 -313 114q-49 51 -72 113q-10 33 9 43l237 141q33 20 39 -6q37 -106 141 -106t121 92l19 106q4 10 -3 14t-18 -1q-53 -29 -121 -29q-186 0 -277 103t-61 280l99 563q2 20 22 21h299q18 0 17 -21l-103 -584q-6 -38 17 -60q22 -22 70 -22t81 24t39 58
l103 584q2 20 22 21h301q16 -1 14 -21l-182 -1040q-33 -182 -164 -284t-336 -103zM411 1126q-73 0 -114 44t-29 113t70 116t130 47q70 0 112 -47t31 -114t-69 -113t-131 -46zM835 1126q-73 0 -115 44t-30 113t72 116t129 47t111 -46t30 -116t-68 -114t-129 -44z" />
    <glyph glyph-name="dotlessi" unicode="&#x131;" horiz-adv-x="509" 
d="M324 0h-299q-18 0 -17 20l164 928q2 18 23 19h299q18 -1 16 -19l-164 -928q-2 -20 -22 -20z" />
    <glyph glyph-name="Lslash" unicode="&#x141;" horiz-adv-x="989" 
d="M889 0h-852q-16 0 -14 20l49 277q2 10 -2 12t-15 -4l-53 -41q-18 -10 -29 2l-125 170q-12 16 7 31l260 199q27 18 28 41l101 565q2 20 20 20h303q20 0 19 -20l-47 -260q-2 -12 3 -16t15 5l68 52q6 4 15 4t11 -6l127 -170q12 -14 -8 -31l-276 -211q-23 -16 -29 -49
l-47 -266q-4 -23 20 -23h504q22 0 16 -18l-45 -263q-2 -20 -24 -20z" />
    <glyph glyph-name="lslash" unicode="&#x142;" horiz-adv-x="509" 
d="M324 0h-297q-20 0 -19 20l53 306l-79 -62q-18 -10 -29 2l-125 170q-12 16 6 31l291 221l104 584q2 20 25 20h297q18 0 16 -20l-51 -287l88 68q6 4 16 4t11 -6l127 -170q12 -14 -8 -31l-297 -227l-107 -603q-2 -20 -22 -20z" />
    <glyph glyph-name="OE" unicode="&#x152;" horiz-adv-x="1685" 
d="M756 1020h-144q-45 0 -82 -27t-43 -59l-100 -576q-7 -40 17 -62t77 -22h144q47 0 77 24t37 60l101 576q6 38 -18 62t-66 24zM1214 991q-23 0 -28 -22l-25 -142q-4 -23 21 -22h413q20 0 19 -19l-47 -264q-2 -18 -25 -18h-414q-23 0 -28 -23l-27 -157q-4 -23 21 -23h503
q23 0 17 -18l-45 -263q-2 -20 -25 -20h-796q-90 -27 -177 -27h-143q-201 -1 -304 105t-73 280l101 576q31 172 173 278t341 107h143q84 0 164 -27h799q20 0 18 -20l-47 -262q-2 -18 -25 -19h-504z" />
    <glyph glyph-name="oe" unicode="&#x153;" horiz-adv-x="1554" 
d="M550 723q-46 0 -81 -25t-41 -61l-55 -307q-7 -37 19 -62q26 -24 73 -24t79 24t38 62l55 307q7 37 -17 61t-70 25zM995 588h199q29 0 33 24l4 29q6 43 -21 71t-86 28t-97 -28t-48 -75l-6 -29q-2 -8 5 -14t17 -6zM1473 422h-504q-29 0 -33 -25l-6 -39q-6 -42 20 -68t76 -26
q100 0 176 107q16 27 41 6l189 -141q16 -10 -7 -43q-53 -76 -129 -125q-136 -94 -302 -94t-267 53q-25 14 -59 0q-111 -53 -248 -54q-201 0 -307 108t-76 279l43 246q31 174 175 280t345 107q141 0 238 -55q23 -14 51 0q117 55 262 55q186 1 294 -109t79 -278l-29 -164
q-2 -20 -22 -20z" />
    <glyph glyph-name="Scaron" unicode="&#x160;" horiz-adv-x="1009" 
d="M584 1018q-104 0 -119 -94q-6 -10 0 -22t6 -20q0 -20 53 -46l26 -13q29 -13 67 -24q218 -66 289 -161t40 -273q-31 -179 -167 -285t-349 -107h-63q-288 0 -381 230q-10 31 12 43l238 141q31 20 40 -6q37 -106 140 -107h63q104 0 121 95q8 55 -29 78t-99 44t-85 29
q-169 60 -235 146t-35 262t170 283q139 108 350 108h31q158 1 250 -65t129 -162q10 -33 -13 -45l-237 -142q-31 -20 -41 6q-37 106 -138 107h-34zM604 1411q-25 0 -37 19l-184 313q-6 10 0 19t18 10h213q29 0 37 -25l31 -76q6 -14 20 -14t25 14l59 76q18 25 45 25h213
q12 0 14 -10t-7 -19l-295 -313q-14 -18 -41 -19h-111z" />
    <glyph glyph-name="scaron" unicode="&#x161;" horiz-adv-x="919" 
d="M473 735q-63 0 -74 -55q-4 -26 8 -34q13 -9 20 -14t20 -8q13 -2 32 -8t118 -24t157 -47q131 -68 102 -231q-30 -163 -150 -252t-305 -89h-47q-197 0 -303 101q-45 45 -63 86t4 55l205 129q29 20 39 -6q18 -51 62 -79t97 -28h60q66 0 75 56q4 34 -19 45q-31 16 -114 24
t-167 42q-84 36 -109 64q-65 74 -40 216q23 142 143 228t296 87h43q168 0 268 -73q66 -45 101 -125q14 -29 -6 -43l-205 -129q-31 -20 -41 6q-18 51 -62 79t-98 27h-47zM508 1085q-23 0 -31 17l-190 354q-6 12 -1 22t19 11h227q23 0 29 -19l39 -96q14 -33 39 0l72 96
q12 18 32 19h228q14 1 17 -11t-7 -22l-317 -354q-14 -16 -35 -17h-121z" />
    <glyph glyph-name="Ydieresis" unicode="&#x178;" horiz-adv-x="1003" 
d="M569 0h-299q-16 0 -14 20l98 560l-286 682q-4 12 2 21t18 9h342q23 0 31 -20l110 -299q5 -15 17 -15t22 15l224 299q14 20 34 20h338q36 1 13 -30l-527 -682l-98 -560q-2 -20 -25 -20zM466 1434q-62 0 -98 42t-26 104t62 106t112 43t97 -45q36 -44 25 -106t-61 -103
q-49 -41 -111 -41zM860 1434q-62 0 -96 42q-35 42 -25 104q11 62 61 106t111 43t98 -45t26 -105t-62 -103t-113 -42z" />
    <glyph glyph-name="Zcaron" unicode="&#x17d;" horiz-adv-x="985" 
d="M506 301h397q23 0 17 -18l-46 -263q-2 -20 -24 -20h-922q-12 0 -16 8t4 21l641 932q18 31 -18 30h-359q-18 0 -16 19l47 262q2 20 22 20h879q16 0 20 -9t-4 -19l-639 -932q-23 -31 17 -31zM600 1411q-25 0 -37 19l-184 313q-6 10 0 19t18 10h213q29 0 37 -25l31 -76
q6 -14 20 -14t25 14l59 76q18 25 45 25h213q12 0 14 -10t-7 -19l-295 -313q-14 -18 -41 -19h-111z" />
    <glyph glyph-name="zcaron" unicode="&#x17e;" horiz-adv-x="927" 
d="M858 281q18 0 16 -19l-43 -242q-2 -20 -22 -20h-868q-33 0 -11 31l480 628q18 27 -11 27h-317q-16 0 -14 21l43 241q2 18 20 19h834q30 0 12 -29l-483 -631q-20 -27 10 -26h354zM496 1085q-23 0 -31 17l-191 354q-6 12 -1 22t20 11h227q23 0 29 -19l39 -96q14 -33 39 0
l71 96q12 18 33 19h227q14 0 18 -11q3 -12 -7 -22l-318 -354q-14 -16 -35 -17h-120z" />
    <glyph glyph-name="florin" unicode="&#x192;" 
d="M899 1024q-104 0 -121 -98l-18 -101q-2 -20 20 -20h133q20 0 19 -21l-43 -239q-2 -20 -25 -21h-133q-23 0 -29 -20l-88 -506q-39 -223 -184 -351t-350 -128q-94 0 -164 16q-23 6 -14 29l106 237q8 17 43 11t85 -6t83 26q33 27 41 72l105 600q8 20 -25 20h-55
q-16 0 -15 21l43 239q2 20 21 21h57q29 0 31 20l12 64q25 138 148 269q61 67 159 110q97 43 203 43t176 -17q27 -5 15 -28l-105 -238q-8 -16 -44 -10t-87 6z" />
    <glyph glyph-name="circumflex" unicode="&#x2c6;" horiz-adv-x="1107" 
d="M733 1085q-20 0 -28 19l-37 96q-14 33 -39 0l-74 -96q-12 -18 -33 -19h-227q-14 -1 -17 11t7 22l317 355q14 16 35 16h121q23 0 30 -16l191 -355q6 -12 1 -22t-19 -11h-228z" />
    <glyph glyph-name="caron" unicode="&#x2c7;" horiz-adv-x="1107" 
d="M569 1085q-23 0 -30 17l-191 354q-6 12 -1 22t20 11h227q23 0 29 -19l39 -96q14 -33 38 0l72 96q12 18 33 19h227q14 0 18 -11q2 -12 -8 -22l-317 -354q-14 -16 -35 -17h-121z" />
    <glyph glyph-name="breve" unicode="&#x2d8;" horiz-adv-x="1107" 
d="M616 1075q-113 -1 -172 63t-41 169l31 168q2 18 25 18h188q18 0 17 -18l-23 -129q-2 -18 18 -19h95q20 0 22 19l23 129q2 18 22 18h195q16 0 14 -18l-31 -168q-20 -107 -98 -169t-190 -63h-95z" />
    <glyph glyph-name="dotaccent" unicode="&#x2d9;" horiz-adv-x="1107" 
d="M667 1079q-91 0 -141 50q-49 50 -32 128l10 54q16 78 80 128t154 50q91 0 137 -48t32 -130l-10 -54q-15 -82 -77 -130t-153 -48z" />
    <glyph glyph-name="ring" unicode="&#x2da;" horiz-adv-x="1107" 
d="M680 1417q-45 0 -53 -43l-11 -59q-4 -15 8 -27t33 -12q45 0 52 39l10 59q6 43 -39 43zM936 1374l-10 -59q-18 -105 -100 -167t-202 -62q-118 0 -180 62t-43 167l11 59q18 102 101 166t202 64t179 -63t42 -167z" />
    <glyph glyph-name="ogonek" unicode="&#x2db;" horiz-adv-x="1107" 
d="M725 -201l-33 -186q-6 -20 -30 -21q-199 0 -287 85t-68 202l25 141h293l-21 -114q-8 -41 19 -65t86 -23q20 -1 16 -19z" />
    <glyph glyph-name="tilde" unicode="&#x2dc;" horiz-adv-x="1107" 
d="M748 1106q-45 0 -119 48t-103 48q-47 0 -94 -72q-14 -20 -33 -6l-127 103q-16 12 -4 33q131 201 295 200q55 0 132 -46t98 -46q45 0 100 84q16 27 33 10l125 -112q10 -10 -2 -31q-152 -213 -301 -213z" />
    <glyph glyph-name="hungarumlaut" unicode="&#x2dd;" horiz-adv-x="1107" 
d="M455 1081q-25 0 -15 27l181 371q12 23 34 22h244q14 0 19 -9t-3 -19l-268 -373q-16 -18 -37 -19h-155zM766 1081q-29 0 -14 27l221 371q14 23 35 22h243q15 0 21 -9t-4 -19l-316 -373q-14 -18 -37 -19h-149z" />
    <glyph glyph-name="pi" unicode="&#x3c0;" horiz-adv-x="1124" 
d="M643 354q0 145 43 467h-231q-45 -502 -95 -719q-35 -141 -133 -141q-45 0 -77 33t-33 78q0 45 72 129q73 84 81 151l60 469h-97q-45 0 -79 -20q-34 -19 -52 -39q-16 -20 -47 -70h-35q45 130 87 191q79 116 198 114h764v-176h-258q-25 -240 -25 -481q0 -70 34 -127t98 -57
t98 56q14 24 19 57q5 32 7 40h43q-4 -127 -66 -235t-178 -107q-116 0 -175 174q-23 68 -23 213z" />
    <glyph glyph-name="endash" unicode="&#x2013;" horiz-adv-x="1202" 
d="M55 385q-16 0 -14 21l37 208q2 18 20 19h1053q18 -1 16 -19l-37 -208q-2 -20 -22 -21h-1053z" />
    <glyph glyph-name="emdash" unicode="&#x2014;" horiz-adv-x="1744" 
d="M55 385q-16 0 -14 21l37 208q2 18 20 19h1594q20 -1 18 -19l-37 -208q-2 -20 -24 -21h-1594z" />
    <glyph glyph-name="quoteleft" unicode="&#x2018;" horiz-adv-x="448" 
d="M465 1108h18q18 0 17 -18l-47 -261q-2 -18 -21 -18h-295q-20 0 -18 18l31 175q31 166 124 253q70 68 191 117q29 12 35 -8l49 -137q8 -23 -14 -31q-78 -20 -86 -72q-2 -18 16 -18z" />
    <glyph glyph-name="quoteright" unicode="&#x2019;" horiz-adv-x="448" 
d="M172 985h-18q-18 0 -17 19l47 260q2 18 21 18h295q20 0 18 -18l-31 -174q-27 -152 -108 -240q-72 -74 -207 -131q-27 -12 -33 8l-51 137q-6 25 14 31q78 20 86 72q4 18 -16 18z" />
    <glyph glyph-name="quotesinglbase" unicode="&#x201a;" horiz-adv-x="448" 
d="M25 53h-19q-18 0 -16 19l47 260q2 18 20 18h295q21 0 19 -18l-31 -174q-26 -148 -100 -230t-215 -141q-29 -12 -35 8l-49 137q-8 23 14 31q78 20 86 72q4 18 -16 18z" />
    <glyph glyph-name="quotedblleft" unicode="&#x201c;" horiz-adv-x="856" 
d="M465 1108h18q18 0 17 -18l-47 -261q-2 -18 -21 -18h-295q-20 0 -18 18l31 175q31 166 124 253q70 68 191 117q29 12 35 -8l49 -137q8 -23 -14 -31q-78 -20 -86 -72q-2 -18 16 -18zM874 1108h19q18 0 16 -18l-47 -261q-2 -18 -20 -18h-295q-20 0 -19 18l31 175
q27 152 113 241q63 70 202 129q29 12 35 -8l49 -137q8 -23 -14 -31q-78 -20 -86 -72q-2 -18 16 -18z" />
    <glyph glyph-name="quotedblright" unicode="&#x201d;" horiz-adv-x="856" 
d="M172 985h-18q-18 0 -17 19l47 260q2 18 21 18h295q20 0 18 -18l-31 -174q-29 -164 -131 -261q-70 -61 -184 -110q-27 -12 -33 8l-51 137q-6 25 14 31q78 20 86 72q4 18 -16 18zM580 985h-19q-18 0 -16 19l47 260q2 18 20 18h295q21 0 19 -18l-31 -174q-25 -144 -97 -228
t-218 -143q-27 -12 -33 8l-51 137q-6 25 14 31q78 20 86 72q2 18 -16 18z" />
    <glyph glyph-name="quotedblbase" unicode="&#x201e;" horiz-adv-x="856" 
d="M25 53h-19q-18 0 -16 19l47 260q2 18 20 18h295q21 0 19 -18l-31 -174q-25 -145 -98 -228q-74 -82 -217 -143q-29 -12 -35 8l-49 137q-8 23 14 31q78 20 86 72q4 18 -16 18zM432 53h-18q-18 0 -17 19l47 260q2 18 21 18h295q20 0 18 -18l-30 -174q-27 -154 -111 -240
q-68 -74 -205 -131q-29 -12 -35 8l-49 137q-8 23 14 31q78 20 87 72q2 18 -17 18z" />
    <glyph glyph-name="dagger" unicode="&#x2020;" horiz-adv-x="866" 
d="M199 -461q-18 0 -17 21l150 1081l22 64q4 10 -2 16t-18 4l-297 -27q-17 -4 -12 19l43 244q4 20 18 20l299 -23q27 -4 27 19l26 295q0 20 23 20h239q18 0 17 -18l-78 -297q-4 -21 23 -19l299 23q10 2 14 -4t2 -16l-43 -244q-4 -20 -21 -19l-286 27q-25 4 -29 -23v-61
l-231 -1081q-2 -20 -25 -21h-143z" />
    <glyph glyph-name="daggerdbl" unicode="&#x2021;" horiz-adv-x="866" 
d="M199 -461q-18 0 -17 21l105 745q2 9 -4 15t-17 4l-299 -23q-16 0 -12 21l43 243q2 9 6 15t12 4l289 -27q10 -2 19 4q8 6 8 17v63l22 64q4 10 -2 16t-18 4l-297 -27q-17 -4 -12 19l43 244q4 20 18 20l299 -23q27 -4 27 19l26 295q0 20 23 20h239q18 0 17 -18l-78 -297
q-4 -21 23 -19l299 23q10 2 14 -4t2 -16l-43 -244q-4 -20 -21 -19l-286 27q-25 4 -29 -23v-61l-20 -61q-4 -12 2 -18t18 -5l295 27q19 4 14 -19l-43 -243q-4 -20 -22 -21l-287 23q-23 4 -29 -19l-159 -745q-2 -20 -25 -21h-143z" />
    <glyph glyph-name="bullet" unicode="&#x2022;" horiz-adv-x="1024" 
d="M485 293h-8q-170 0 -258 92t-65 240l6 39q23 147 146 238q124 91 296 91h8q170 0 258 -91t64 -238l-6 -39q-23 -147 -146 -239t-295 -93z" />
    <glyph glyph-name="ellipsis" unicode="&#x2026;" horiz-adv-x="2048" 
d="M606 159q0 -67 -57 -119t-130 -52t-128 51t-55 121t55 120t128 50t130 -52t57 -119zM1210 159q0 -67 -57 -119t-130 -52t-128 51t-55 121t55 120t128 50t130 -52t57 -119zM1627 330q73 0 131 -52t57 -119q1 -67 -57 -119t-131 -52t-128 51t-55 121t55 120t128 50z" />
    <glyph glyph-name="perthousand" unicode="&#x2030;" horiz-adv-x="1916" 
d="M1020 444q-50 0 -59 -43l-35 -188q-2 -19 11 -31t36 -12q51 0 59 43l35 188q2 19 -11 31t-36 12zM422 1122q-53 0 -62 -43l-32 -188q-4 -19 9 -31t36 -12q53 0 61 43l33 188q4 19 -9 31t-36 12zM1608 444q-51 0 -60 -43l-35 -188q-3 -19 11 -31t37 -12q48 0 59 43l35 188
q2 19 -11 31t-36 12zM938 0q-112 0 -167 58q-56 58 -38 155l33 178q18 99 96 161t188 62t169 -58t41 -155l-35 -188q-19 -97 -97 -155t-190 -58zM358 0h-168q-25 0 -10 23l821 1257q10 12 23 12h178q22 0 12 -20l-825 -1256q-8 -16 -31 -16zM340 678q-112 0 -166 58
q-55 58 -39 155l31 178q16 99 95 161t189 62t168 -58q57 -58 41 -155l-32 -188q-15 -97 -95 -155t-192 -58zM1526 0q-112 0 -167 58q-56 58 -38 155l33 178q18 99 96 161t188 62t168 -58q59 -58 41 -155l-35 -188q-18 -97 -96 -155t-190 -58z" />
    <glyph glyph-name="guilsinglleft" unicode="&#x2039;" horiz-adv-x="784" 
d="M762 1018l-47 -258q-2 -20 -23 -33l-239 -129q-11 -6 -13 -16t9 -17l192 -129q14 -12 12 -33l-45 -258q-8 -35 -33 -16l-475 344q-16 10 -12 35l25 147q2 23 24 35l598 344q13 8 21 3t6 -19z" />
    <glyph glyph-name="guilsinglright" unicode="&#x203a;" horiz-adv-x="784" 
d="M737 655l-24 -147q-2 -23 -25 -35l-598 -344q-12 -8 -20 -3t-4 19l45 258q2 20 24 33l238 129q29 16 4 33l-191 129q-16 12 -14 33l47 258q8 33 31 16l475 -344q16 -10 12 -35z" />
    <glyph glyph-name="fraction" unicode="&#x2044;" horiz-adv-x="579" 
d="M2 0h-166q-10 0 -14 9t2 20l815 1243q10 20 35 20h162q32 1 14 -28l-813 -1244q-14 -20 -35 -20z" />
    <glyph glyph-name="Euro" unicode="&#x20ac;" 
d="M719 1020h-41q-106 0 -123 -86q-2 -23 20 -23h201q14 0 12 -20l-32 -186q-2 -18 -19 -19h-200q-25 0 -29 -18l-6 -39q-4 -20 20 -21h201q16 0 12 -18l-33 -191q-2 -18 -20 -18h-205q-23 0 -24 -23q-9 -38 17 -62t77 -24h41q84 0 170 115q20 29 41 16l233 -116
q16 -10 -2 -39q-74 -104 -139 -158q-137 -117 -338 -117h-59q-204 -1 -306 105t-71 280q4 23 -19 23h-96q-16 0 -14 18l32 191q2 18 23 18h96q20 0 27 21l6 37q4 20 -18 20h-97q-18 0 -16 19l33 186q2 20 22 20h99q20 0 24 23q31 174 169 279t343 106h60q217 0 313 -139
q36 -50 65 -136q10 -31 -10 -38l-274 -117q-25 -10 -37 16q-41 115 -129 115z" />
    <glyph glyph-name="trademark" unicode="&#x2122;" horiz-adv-x="1017" 
d="M481 1061h-61q-25 0 -31 -23l-49 -280q-2 -20 -23 -21h-28q-18 0 -17 21l50 280q6 23 -21 23h-63q-16 0 -15 18l4 23q2 20 23 20h244q18 0 16 -20l-4 -23q-2 -18 -25 -18zM883 737q-18 0 -17 21l27 147q2 13 -5 21q-6 8 -20 5t-24 -16l-70 -84q-27 -31 -43 0l-47 84
q-10 20 -29 17q-18 -4 -22 -27l-27 -147q-2 -20 -22 -21h-27q-16 0 -14 21l61 344q2 20 23 20h24q10 0 17 -10l77 -166q18 -39 50 0l137 166q8 10 22 10h23q18 0 16 -20l-61 -344q-2 -20 -25 -21h-24z" />
    <glyph glyph-name="Omega" unicode="&#x2126;" horiz-adv-x="1572" 
d="M1507 0h-604l33 311q104 45 149 88t93 151t49 273q0 231 -108 375t-331 145q-222 0 -330 -144t-108 -376q0 -166 48 -273q48 -106 94 -150t149 -89l33 -311h-604v332h30q16 -72 42 -99t94 -26h323l-4 57q-121 35 -201 84t-141 139q-102 154 -102 328q0 274 198 434
q199 160 479 160t480 -160q199 -160 198 -434q0 -174 -102 -328q-61 -90 -141 -139t-201 -84l-4 -57h323q68 1 94 27t42 98h30v-332z" />
    <glyph glyph-name="partialdiff" unicode="&#x2202;" horiz-adv-x="1011" 
d="M332 633q-102 -137 -102 -330t94 -256q41 -29 83 -29q41 0 97 24t104 90q80 109 117 322q13 68 25 158q-17 17 -43 48q-71 83 -183 83t-192 -110zM946 805q0 -123 -30 -278t-76 -258t-91 -161q-44 -58 -129 -104t-180 -47q-166 0 -276 118q-110 119 -111 287
q0 168 114 314t279 147q126 0 216 -61q33 -23 104 -78q40 220 3 407q-19 95 -48 161t-91 118q-62 51 -136 60q-20 2 -76 2t-94 -16t-68 -30q-29 -14 -43 -20l-80 102q307 130 526 -18q115 -78 189 -209q98 -174 98 -436z" />
    <glyph glyph-name="Delta" unicode="&#x2206;" horiz-adv-x="1253" 
d="M991 100l-397 959l-447 -959h844zM1245 0h-1233l656 1409z" />
    <glyph glyph-name="product" unicode="&#x220f;" horiz-adv-x="1685" 
d="M1645 -207h-627v47q102 0 149 34t47 132v1419h-733v-1419q0 -98 48 -132t151 -34v-47h-629v47q102 0 151 34q48 34 48 132v1282q0 203 -195 203v47h1583v-47q-193 0 -192 -203v-1282q0 -98 48 -132t151 -34v-47z" />
    <glyph glyph-name="summation" unicode="&#x2211;" horiz-adv-x="1460" 
d="M246 1526h1018l12 -326h-41q-31 100 -43 125q-59 109 -270 109h-539l559 -734l-602 -694h760q66 0 108 12q70 20 123 116q18 34 45 104h47q-63 -258 -88 -459q-141 23 -157 22h-1031q-18 0 -58 -3t-60 -3l714 815l-710 930q126 -14 213 -14z" />
    <glyph glyph-name="minus" unicode="&#x2212;" 
d="M70 387q-16 0 -15 19l37 206q2 20 21 21h948q20 -1 18 -21l-37 -206q-2 -18 -24 -19h-948z" />
    <glyph glyph-name="radical" unicode="&#x221a;" horiz-adv-x="1124" 
d="M1055 1868l-307 -1946l-498 1028l-197 -96l-33 68l299 147l404 -825l260 1634z" />
    <glyph glyph-name="infinity" unicode="&#x221e;" horiz-adv-x="1460" 
d="M340 721q-76 0 -130 -57q-54 -56 -54 -132t59 -128t127 -52t102 18q35 18 46 23q11 3 33 21t29 23t31 25q25 20 27 25q2 4 27 28t27 26q-24 24 -47 41q-23 16 -49 36t-37 28t-35 22q-24 16 -39 22q-16 6 -45 18t-72 13zM1114 352q74 0 134 52t59 127t-55 133t-116 57
q-62 0 -109 -20q-48 -20 -70 -36q-23 -15 -51 -37t-37 -29t-38 -32t-32 -26q117 -115 179 -152t136 -37zM1411 545q0 -115 -82 -203t-194 -88q-184 0 -367 183q-23 24 -37 36q-14 -12 -37 -36q-175 -183 -366 -183q-113 0 -195 88t-82 203t87 199t204 83q72 0 152 -41
q80 -42 118 -74t119 -104q80 72 119 105t119 73t151 41q117 1 204 -83t87 -199z" />
    <glyph glyph-name="integral" unicode="&#x222b;" horiz-adv-x="561" 
d="M246 1157q0 389 53 567q18 60 60 106q41 46 97 46t98 -31t42 -77t-33 -72t-69 -25q-36 0 -63 25q-28 25 -44 24q-37 0 -37 -57q0 -4 20 -260t19 -391v-13l-2 -442q0 -187 -29 -415t-100 -310q-18 -20 -59 -36t-79 -15q-38 0 -77 38t-39 79q0 40 29 68t59 28t66 -34
q35 -34 47 -34q53 0 53 201v25l-12 610v395z" />
    <glyph glyph-name="approxequal" unicode="&#x2248;" horiz-adv-x="1124" 
d="M791 287q-35 0 -76 10l-307 88q-49 14 -104 14q-54 1 -94 -27t-93 -96l-88 56q121 162 295 162q47 0 104 -15l309 -86q25 -6 69 -6t104 31t94 80l75 -49q-45 -76 -123 -119t-165 -43zM791 596q-35 0 -76 10l-307 88q-130 36 -198 -13q-40 -28 -93 -95l-88 55
q121 162 295 162q47 0 104 -15l309 -86q25 -6 69 -6t104 31t94 80l75 -49q-45 -76 -123 -119t-165 -43z" />
    <glyph glyph-name="notequal" unicode="&#x2260;" horiz-adv-x="1124" 
d="M1106 279h-621l-184 -330l-100 57l151 273h-321v112h385l157 285h-542v112h606l186 336l101 -57l-156 -279h338v-112h-399l-160 -285h559v-112z" />
    <glyph glyph-name="lessequal" unicode="&#x2264;" horiz-adv-x="1124" 
d="M1077 0h-1018v113h1018v-113zM1077 240l-1018 471v127l1018 471v-127l-887 -408l887 -407v-127z" />
    <glyph glyph-name="greaterequal" unicode="&#x2265;" horiz-adv-x="1124" 
d="M1077 0h-1018v113h1018v-113zM1077 711l-1018 -471v127l887 407l-887 408v127l1018 -471v-127z" />
    <glyph glyph-name="lozenge" unicode="&#x25ca;" horiz-adv-x="1011" 
d="M831 772l-335 643l-336 -643l336 -661zM954 772l-397 -772h-123l-397 772l397 754h123z" />
    <glyph glyph-name="E.alt" unicode="&#xe001;" horiz-adv-x="1030" 
d="M559 991q-23 0 -29 -22l-24 -142q-4 -23 20 -22h414q20 0 18 -19l-47 -264q-2 -18 -24 -18h-414q-23 0 -29 -23l-26 -157q-4 -23 20 -23h504q23 0 16 -18l-45 -263q-2 -20 -24 -20h-852q-16 0 -14 20l221 1252q2 20 20 20h852q21 0 19 -20l-48 -262q-2 -18 -24 -19h-504z
" />
    <glyph glyph-name="zero.oldstyle" unicode="&#xf730;" horiz-adv-x="1101" 
d="M586 821q-43 -1 -81 -27t-44 -59l-66 -377q-6 -32 22 -58t72 -26h62q47 0 78 24t37 60l65 377q6 37 -17 62q-24 25 -67 24h-61zM498 -27h-62q-201 -1 -304 105t-73 280l66 377q31 173 173 279t339 106h61q196 0 300 -106t73 -279l-65 -377q-29 -170 -170 -278t-338 -107z
" />
    <glyph glyph-name="one.oldstyle" unicode="&#xf731;" horiz-adv-x="1101" 
d="M897 0h-786q-16 0 -15 20l45 263q6 18 23 18h196q25 0 29 23l41 233q2 8 -3 11t-15 -1l-47 -24q-18 -8 -29 2l-160 170q-14 14 4 28l465 365q14 12 37 12h170q18 0 16 -20l-137 -776q-2 -12 3 -18t22 -5h194q21 0 15 -18l-45 -263q-2 -20 -23 -20z" />
    <glyph glyph-name="two.oldstyle" unicode="&#xf732;" horiz-adv-x="1101" 
d="M934 301q18 0 16 -20l-45 -258q-2 -23 -24 -23h-822q-18 0 -16 23l31 180q18 104 56 184t80 124t101 75q85 45 218 62t162 48q15 16 21 49t-15 55q-22 22 -66 21h-72q-63 0 -156 -116q-20 -25 -41 -15l-233 117q-18 8 0 35q72 104 141 162q139 117 330 116h82
q195 0 294 -112t68 -291q-31 -160 -172 -238q-84 -45 -284 -84q-125 -12 -131 -55l-2 -18q-4 -20 20 -21h459z" />
    <glyph glyph-name="three.oldstyle" unicode="&#xf733;" horiz-adv-x="1101" 
d="M373 -225q-180 0 -271 88q-68 61 -110 186q-10 29 12 39l275 117q27 12 34 -17q45 -115 127 -114h43q51 0 83 26t40 66l12 67q6 39 -16 61q-23 22 -76 21h-219q-18 0 -16 19l45 264q6 18 24 18h220q51 0 83 24t37 58l7 37q6 39 -17 63t-74 23h-43q-86 0 -167 -114
q-20 -29 -44 -17l-233 117q-16 8 4 39q78 115 166 180q127 94 309 94h60q213 0 310 -116t66 -289l-6 -35q-18 -111 -120 -186q-20 -14 -5 -31q74 -74 48 -223l-11 -58q-33 -186 -174 -297t-344 -110h-59z" />
    <glyph glyph-name="four.oldstyle" unicode="&#xf734;" horiz-adv-x="1101" 
d="M524 362q20 0 25 17l35 201l37 120h-7q-39 -70 -61 -100l-168 -217q-16 -20 6 -21h133zM854 61q-18 0 -25 -22l-36 -217q-2 -20 -25 -21h-303q-16 0 -14 21l36 217q4 23 -18 22h-500q-16 0 -14 19l39 225l711 774q12 14 32 15h258q18 0 17 -21l-121 -690q-4 -20 18 -21
h133q23 0 17 -20l-45 -262q-2 -18 -25 -19h-135z" />
    <glyph glyph-name="five.oldstyle" unicode="&#xf735;" horiz-adv-x="1101" 
d="M1032 793h-459q-25 0 -30 -23l-23 -131q-4 -23 23 -23h90q215 0 299 -90q74 -84 47 -258l-14 -88q-31 -190 -163 -298t-347 -107h-68q-188 0 -295 102q-55 51 -86 127q-10 31 12 43l238 141q31 20 41 -6q37 -106 139 -106h64q106 0 123 98l10 59q6 37 -18 60t-68 22h-406
q-18 0 -16 19l129 739q2 20 25 21h806q19 -1 17 -21l-45 -262q-2 -18 -25 -18z" />
    <glyph glyph-name="six.oldstyle" unicode="&#xf736;" horiz-adv-x="1101" 
d="M539 522q-45 0 -79 -24t-40 -62l-14 -78q-6 -36 18 -60t72 -24h67q45 0 80 25t41 59l14 78q6 35 -20 61q-27 26 -72 25h-67zM686 1020h-59q-45 0 -80 -26t-41 -60l-21 -125q-2 -10 4 -13t17 1q49 27 106 26h90q180 1 274 -109t62 -278l-14 -78q-33 -174 -174 -279
t-340 -106h-68q-231 0 -331 140q-72 100 -48 245l101 576q31 174 169 279t347 106h76q195 0 293 -113q53 -62 86 -162q10 -29 -11 -38l-274 -117q-25 -10 -37 16q-45 115 -127 115z" />
    <glyph glyph-name="seven.oldstyle" unicode="&#xf737;" horiz-adv-x="1101" 
d="M70 -199q-18 0 -17 21l62 352q18 109 110 191t243 160q150 78 190 112q61 51 65 90l6 43q6 23 -22 23h-504q-18 0 -17 18l45 262q2 20 25 21h848q16 -1 14 -21l-74 -424q-18 -104 -99 -180t-212 -150q-234 -122 -276 -177q-16 -22 -21 -46l-47 -274q-2 -20 -22 -21h-297z
" />
    <glyph glyph-name="eight.oldstyle" unicode="&#xf738;" horiz-adv-x="1101" 
d="M532 524q-48 0 -82 -24t-40 -58l-15 -84q-6 -32 22 -58t72 -26h62q47 0 78 24t37 60l14 84q6 37 -17 60q-24 23 -69 22h-62zM682 1020h-61q-43 0 -82 -27t-43 -59l-11 -68q-4 -30 24 -56t71 -26h61q45 0 78 24t37 58l10 68q6 38 -18 62t-66 24zM498 -27h-62
q-205 0 -305 112t-65 308l6 35q27 152 137 236q20 12 4 22q-84 70 -63 182l8 45q33 188 173 297t343 109h61q195 0 295 -107q109 -111 74 -299l-8 -45q-20 -119 -131 -182q-5 -2 -7 -9t3 -11q86 -86 57 -238l-10 -53q-35 -184 -173 -293t-337 -109z" />
    <glyph glyph-name="nine.oldstyle" unicode="&#xf739;" horiz-adv-x="1101" 
d="M569 819q-45 -1 -81 -25t-42 -59l-20 -119q-6 -34 20 -60t72 -26h68q45 0 79 25t40 61l20 119q6 37 -17 61q-24 24 -71 23h-68zM453 -225h-76q-174 0 -287 80q-51 35 -102 98q-18 25 -2 39l227 190q23 20 41 -2q78 -106 190 -106h60q45 0 80 26t41 60l14 84q2 10 -4 13
t-17 -1q-49 -27 -106 -27h-90q-186 -1 -276 109t-60 278l20 119q30 173 172 279t343 106h67q211 0 316 -116q92 -105 63 -269l-100 -575q-31 -174 -168 -280t-346 -105z" />
    <glyph glyph-name="apple" unicode="&#xf8ff;" horiz-adv-x="1617" 
d="M1096 -4q-52 0 -132 33q-81 33 -126 33t-125 -34t-125 -34q-207 0 -389 393q-84 182 -84 389q0 43 6 84q76 410 446 410q51 0 79 -7t88 -33t104 -26t103 26q60 26 88 33t81 7q166 0 270 -82q23 -16 78 -78q-53 -39 -82 -67t-55 -72q-53 -90 -53 -212t90 -220
q10 -13 17 -21t19 -17t16 -13q6 -4 20 -13q14 -7 26 -15t45 -24q-2 -2 -17 -37q-14 -35 -18 -40t-19 -37t-21 -39q-6 -8 -19 -35q-15 -27 -23 -38t-22 -34t-38 -51t-54 -53q-29 -25 -33 -29t-15 -13q-10 -10 -18 -12t-32 -12t-76 -10zM1159 1593q0 -131 -74 -204
q-57 -61 -139 -109q-20 -12 -115 -18q-2 12 -2 40t26 96t58 109q96 123 246 148v-62z" />
    </font>
</defs>
</svg>
