<?xml version="1.0" standalone="no"?>
<!DOCTYPE svg PUBLIC "-//W3C//DTD SVG 1.1//EN" "http://www.w3.org/Graphics/SVG/1.1/DTD/svg11.dtd" >
<svg xmlns="http://www.w3.org/2000/svg">
<metadata>
Created by FontPrep 20130207 at Mon Aug 19 20:13:34 2013
 By Fabien Postif
Copyright (c) Agfa Monotype Corporation, 2002. All rights reserved. ITC Conduit is designed by Mark van Bronkhorst, MvB Design. ITC Conduit is a trademark of International Typeface Corporation.
</metadata>
<defs>
<font id="56b1440f7dbc0ad0ae6c506b3d4f1b38" >
  <font-face 
    font-family="ConduitITCExtraLight"
    font-weight="400"
    font-stretch="normal"
    units-per-em="2048"
    panose-1="2 0 5 6 5 0 0 2 0 3"
    ascent="1638"
    descent="-410"
    x-height="891"
    cap-height="1286"
    bbox="-163.349 -510 2443 1878"
    underline-thickness="40"
    underline-position="-231"
    unicode-range="U+0020-FB0B"
  />
<missing-glyph horiz-adv-x="350" 
 />
    <glyph glyph-name="ff" unicode="ff" horiz-adv-x="1097" 
d="M542 1227q-116 0 -185 -69t-68 -173v-170q0 -20 20 -20h398q20 0 20 20v150q0 47 10 83t-6 60q-73 119 -189 119zM1102 1227h-29q-104 0 -173 -69t-69 -173v-170q0 -20 21 -20h158q20 0 20 -21v-41q0 -20 -20 -20h-158q-20 0 -21 -21v-672q0 -20 -20 -20h-63
q-20 0 -21 20v672q0 20 -20 21h-398q-20 0 -20 -21v-672q0 -20 -21 -20h-63q-20 0 -21 20v672q0 20 -20 21h-55q-20 0 -21 20v41q0 20 21 21h55q20 0 20 20v150q0 157 98 251t254 94q158 0 244 -118q10 -16 25 2q96 117 268 117h39q31 0 23 -25l-17 -47q-4 -12 -16 -12z" />
    <glyph glyph-name="fi" unicode="fi" horiz-adv-x="946" 
d="M487 733q0 -20 -20 -20h-158q-20 0 -20 -21v-672q0 -20 -21 -20h-63q-20 0 -21 20v672q0 20 -20 21h-55q-20 0 -21 20v41q0 20 21 21h55q20 0 20 20v150q0 170 117 268q66 53 160 72q23 4 22 -17v-47q0 -16 -18 -22q-80 -19 -128 -83t-48 -151v-170q0 -20 20 -20h158
q20 0 20 -21v-41zM799 20q0 -20 -21 -20h-63q-20 0 -21 20v852q0 20 21 21h63q20 0 21 -21v-852zM819 1237q1 -31 -21 -53t-53 -23q-31 0 -51 23q-20 24 -20 54t20 52t51 21q31 1 53 -21t21 -53z" />
    <glyph glyph-name="fl" unicode="fl" horiz-adv-x="946" 
d="M799 20q0 -20 -21 -20h-63q-20 0 -21 20v1168q0 14 -14 14h-150q-104 0 -173 -68t-68 -173v-146q0 -20 20 -20h158q20 0 20 -21v-41q0 -20 -20 -20h-158q-20 0 -20 -21v-672q0 -20 -21 -20h-63q-20 0 -21 20v672q0 20 -20 21h-55q-20 0 -21 20v41q0 20 21 21h55
q20 0 20 20v125q0 156 98 251t248 95h248q20 0 21 -20v-1246z" />
    <glyph glyph-name="ffi" unicode="ffi" horiz-adv-x="1488" 
d="M542 1227q-116 0 -185 -69t-68 -173v-170q0 -20 20 -20h398q20 0 20 20v150q0 47 10 83t-6 60q-73 119 -189 119zM1030 733q0 -20 -20 -20h-158q-20 0 -21 -21v-672q0 -20 -20 -20h-63q-20 0 -21 20v672q0 20 -20 21h-398q-20 0 -20 -21v-672q0 -20 -21 -20h-63
q-20 0 -21 20v672q0 20 -20 21h-55q-20 0 -21 20v41q0 20 21 21h55q20 0 20 20v150q0 157 98 251t254 94q158 0 244 -118q10 -16 25 2q76 90 199 111q23 4 22 -17v-47q0 -16 -18 -22q-80 -19 -128 -83t-49 -151v-170q0 -20 21 -20h158q20 0 20 -21v-41zM1341 20
q0 -20 -20 -20h-64q-20 0 -20 20v852q0 20 20 21h64q20 0 20 -21v-852zM1362 1237q0 -31 -22 -53t-52 -23q-30 0 -51 23q-20 24 -20 54t20 52t51 21q30 1 52 -21t22 -53z" />
    <glyph glyph-name="ffl" unicode="ffl" horiz-adv-x="1488" 
d="M542 1227q-116 0 -185 -69t-68 -173v-170q0 -20 20 -20h398q20 0 20 20v150q0 47 10 83t-6 60q-73 119 -189 119zM1341 20q0 -20 -20 -20h-64q-20 0 -20 20v1168q0 14 -14 14h-150q-104 0 -173 -68t-69 -173v-146q0 -20 21 -20h158q20 0 20 -21v-41q0 -20 -20 -20h-158
q-20 0 -21 -21v-672q0 -20 -20 -20h-63q-20 0 -21 20v672q0 20 -20 21h-398q-20 0 -20 -21v-672q0 -20 -21 -20h-63q-20 0 -21 20v672q0 20 -20 21h-55q-20 0 -21 20v41q0 20 21 21h55q20 0 20 20v150q0 157 98 251t262 94q166 0 244 -130q10 -16 27 2q98 104 258 104h248
q20 0 20 -20v-1246z" />
    <glyph glyph-name="fi.sc" unicode="&#xf766;&#xf769;" horiz-adv-x="1349" 
d="M752 877q0 -14 -15 -15h-420q-16 0 -16 -16v-314q0 -14 16 -14h351q14 0 14 -14v-49q0 -16 -14 -17h-351q-16 0 -16 -14v-410q0 -14 -14 -14h-70q-16 0 -16 14v912q0 14 16 14h520q14 0 15 -14v-49zM1147 14q0 -14 -14 -14h-70q-16 0 -16 14v912q0 14 16 14h70
q14 0 14 -14v-912z" />
    <glyph glyph-name="fl.sc" unicode="&#xf766;&#xf76c;" horiz-adv-x="1654" 
d="M752 877q0 -14 -15 -15h-420q-16 0 -16 -16v-314q0 -14 16 -14h351q14 0 14 -14v-49q0 -16 -14 -17h-351q-16 0 -16 -14v-410q0 -14 -14 -14h-70q-16 0 -16 14v912q0 14 16 14h520q14 0 15 -14v-49zM1597 14q0 -14 -14 -14h-520q-16 0 -16 14v912q0 14 16 14h70
q14 0 14 -14v-832q0 -14 16 -14h420q14 0 14 -17v-49z" />
    <glyph glyph-name="ffi.sc" unicode="&#xf766;&#xf766;&#xf769;" horiz-adv-x="2195" 
d="M752 877q0 -14 -15 -15h-420q-16 0 -16 -16v-314q0 -14 16 -14h351q14 0 14 -14v-49q0 -16 -14 -17h-351q-16 0 -16 -14v-410q0 -14 -14 -14h-70q-16 0 -16 14v912q0 14 16 14h520q14 0 15 -14v-49zM1597 877q0 -14 -14 -15h-420q-16 0 -16 -16v-314q0 -14 16 -14h350
q14 0 15 -14v-49q0 -16 -15 -17h-350q-16 0 -16 -14v-410q0 -14 -14 -14h-70q-16 0 -16 14v912q0 14 16 14h520q14 0 14 -14v-49zM1993 14q0 -14 -15 -14h-69q-16 0 -17 14v912q0 14 17 14h69q14 0 15 -14v-912z" />
    <glyph glyph-name="ffl.sc" unicode="&#xf766;&#xf766;&#xf76c;" horiz-adv-x="2500" 
d="M752 877q0 -14 -15 -15h-420q-16 0 -16 -16v-314q0 -14 16 -14h351q14 0 14 -14v-49q0 -16 -14 -17h-351q-16 0 -16 -14v-410q0 -14 -14 -14h-70q-16 0 -16 14v912q0 14 16 14h520q14 0 15 -14v-49zM1597 877q0 -14 -14 -15h-420q-16 0 -16 -16v-314q0 -14 16 -14h350
q14 0 15 -14v-49q0 -16 -15 -17h-350q-16 0 -16 -14v-410q0 -14 -14 -14h-70q-16 0 -16 14v912q0 14 16 14h520q14 0 14 -14v-49zM2443 14q0 -14 -14 -14h-520q-16 0 -17 14v912q0 14 17 14h69q14 0 15 -14v-832q0 -14 16 -14h420q14 0 14 -17v-49z" />
    <glyph glyph-name="ff.sc" unicode="&#xf766;&#xf766;" horiz-adv-x="1691" 
d="M752 877q0 -14 -15 -15h-420q-16 0 -16 -16v-314q0 -14 16 -14h351q14 0 14 -14v-49q0 -16 -14 -17h-351q-16 0 -16 -14v-410q0 -14 -14 -14h-70q-16 0 -16 14v912q0 14 16 14h520q14 0 15 -14v-49zM1597 877q0 -14 -14 -15h-420q-16 0 -16 -16v-314q0 -14 16 -14h350
q14 0 15 -14v-49q0 -16 -15 -17h-350q-16 0 -16 -14v-410q0 -14 -14 -14h-70q-16 0 -16 14v912q0 14 16 14h520q14 0 14 -14v-49z" />
    <glyph glyph-name=".notdef" horiz-adv-x="350" 
 />
    <glyph glyph-name=".null" horiz-adv-x="0" 
 />
    <glyph glyph-name="nonmarkingreturn" horiz-adv-x="681" 
 />
    <glyph glyph-name="space" unicode=" " horiz-adv-x="350" 
 />
    <glyph glyph-name="exclam" unicode="!" horiz-adv-x="600" 
d="M393 51q-1 -39 -27 -65t-65 -27q-39 0 -65 27q-26 28 -27 66q0 38 27 65q28 27 66 27t65 -27q26 -27 26 -66zM300 375q-17 0 -19 20l-35 357v514q0 20 20 20h66q20 0 20 -20v-510l-33 -361q-2 -20 -19 -20z" />
    <glyph glyph-name="quotedbl" unicode="&#x22;" horiz-adv-x="577" 
d="M166 969h-12q-18 0 -21 18l-43 295q-4 23 21 23h92q24 0 20 -23l-37 -295q-2 -18 -20 -18zM399 969h-8q-18 0 -20 18l-43 295q-4 23 20 23h88q25 0 21 -23l-37 -295q-2 -18 -21 -18z" />
    <glyph glyph-name="numbersign" unicode="#" horiz-adv-x="1163" 
d="M758 811h-266q-18 0 -21 -12l-82 -297q-8 -27 21 -27h262q16 0 20 17l86 294q6 25 -20 25zM1020 811h-125q-18 0 -21 -12l-81 -297q-8 -27 20 -27h133q20 0 15 -20l-13 -41q-6 -20 -26 -21h-146q-16 0 -22 -18l-103 -361q-2 -14 -20 -14h-49q-27 0 -21 27l96 342
q6 25 -20 24h-262q-18 0 -21 -12l-106 -367q-2 -14 -21 -14h-49q-27 0 -20 27l96 342q6 25 -21 24h-108q-20 0 -14 21l12 41q6 20 27 20h118q16 0 21 17l84 294q6 25 -21 25h-125q-20 0 -14 20l10 41q6 20 27 21h137q16 0 21 16l104 363q2 14 20 14h50q27 0 20 -26l-96 -340
q-8 -27 20 -27h265q16 0 20 16l104 363q2 14 21 14h49q27 0 21 -26l-97 -340q-8 -27 21 -27h114q21 -1 15 -21l-12 -41q-6 -20 -27 -20z" />
    <glyph glyph-name="dollar" unicode="$" 
d="M795 308q-1 94 -53 152t-144 105q-20 12 -20 -12v-471q0 -18 22 -16q88 16 142 82t53 160zM479 768v436q0 23 -20 17q-82 -17 -131 -79t-49 -150t48 -141q48 -52 132 -95q20 -11 20 12zM905 316q0 -142 -84 -231t-223 -103q-20 -4 -20 -23v-68q0 -20 -21 -20h-57
q-20 0 -21 20v68q0 20 -18 21q-199 0 -297 141q-14 18 8 31l53 28q16 6 25 -6q88 -113 211 -113q18 0 18 19v514q0 25 -22 37q-143 71 -216 145t-73 207t80 220t211 104q20 4 20 24v70q0 20 21 20h57q20 0 21 -20v-70q0 -20 22 -22q84 -9 148 -49t100 -93q12 -18 -10 -28
l-52 -27q-16 -8 -24 2q-61 84 -162 107q-23 4 -22 -17v-481q0 -25 20 -33q154 -72 230 -152t77 -222z" />
    <glyph glyph-name="percent" unicode="%" horiz-adv-x="1013" 
d="M813 174v205q0 90 -88 90q-41 0 -66 -25t-24 -65v-205q-1 -42 23 -66t67 -24q88 0 88 90zM352 911v205q0 90 -88 90q-42 0 -66 -24t-24 -66v-205q0 -41 24 -65t66 -25q88 0 88 90zM909 174q0 -78 -50 -126t-134 -48t-134 48t-50 126v205q0 78 50 126t134 48t134 -48
t50 -126v-205zM252 0h-49q-31 0 -19 29l533 1245q6 12 18 12h49q31 0 19 -29l-533 -1245q-6 -12 -18 -12zM449 911q-1 -78 -51 -126t-134 -48t-134 48t-50 126v205q0 78 50 126t134 48t134 -48t51 -126v-205z" />
    <glyph glyph-name="ampersand" unicode="&#x26;" horiz-adv-x="1290" 
d="M256 371v-64q0 -109 68 -177t174 -69h65q162 1 248 175q10 25 -6 45q-145 168 -207 217q-119 94 -152 82q-80 -34 -135 -90t-55 -119zM741 944v41q0 102 -71 172q-72 70 -174 70t-173 -70t-71 -171q0 -102 52 -162t161 -122q18 -8 45 3q113 49 172 102t59 137zM1243 2
q0 -27 -22 -20q-162 35 -316 188q-14 14 -22 -4q-106 -186 -320 -186h-65q-156 0 -251 94t-95 250v53q0 147 204 256q18 10 0 20q-209 125 -209 297q-1 172 93 267q94 94 255 94t256 -94t95 -252v-45q0 -158 -254 -275q-20 -8 0 -20q106 -68 256 -238q18 -20 29 8
q53 141 124 220q72 79 207 79h15q20 0 20 -20v-62q0 -20 -20 -20h-15q-109 0 -164 -82q-42 -63 -68 -129q-26 -67 -32 -81t8 -30q127 -133 277 -180q14 -6 14 -20v-68z" />
    <glyph glyph-name="quotesingle" unicode="'" horiz-adv-x="329" 
d="M166 969h-12q-18 0 -21 18l-43 295q-4 23 21 23h92q24 0 20 -23l-37 -295q-2 -18 -20 -18z" />
    <glyph glyph-name="parenleft" unicode="(" horiz-adv-x="675" 
d="M522 -371q0 -27 -22 -20q-68 14 -123 51q-156 100 -156 297v1206q0 193 156 291q51 33 123 49q23 6 22 -20v-47q0 -16 -16 -21q-84 -21 -132 -83t-48 -148v-1252q0 -86 48 -149t132 -86q16 -4 16 -21v-47z" />
    <glyph glyph-name="parenright" unicode=")" horiz-adv-x="675" 
d="M455 -43q0 -182 -131 -281q-57 -45 -144 -67q-27 -6 -26 20v47q0 16 16 21q84 23 132 86t48 149v1252q0 84 -48 146t-132 85q-16 4 -16 21v47q0 27 26 20q70 -18 127 -53q147 -96 148 -287v-1206z" />
    <glyph glyph-name="asterisk" unicode="*" horiz-adv-x="796" 
d="M428 743h-59q-25 0 -21 23l31 254q2 16 -8 22t-25 -4l-203 -145q-20 -12 -30 6l-29 49q-12 18 10 29l230 98q16 5 16 17t-16 20l-230 107q-23 10 -10 28l29 47q12 20 30 6l199 -149q14 -10 25 -4q10 6 8 22l-27 248q-4 23 21 23h55q25 0 20 -23l-28 -248q-2 -16 8 -22
t25 4l210 149q20 12 31 -6l29 -47q12 -18 -10 -28l-240 -107q-14 -6 -14 -18t14 -19l240 -100q22 -11 10 -29l-29 -47q-12 -18 -31 -6l-208 145q-15 10 -25 4t-8 -22l31 -254q4 -23 -21 -23z" />
    <glyph glyph-name="plus" unicode="+" 
d="M961 461q0 -20 -21 -21h-352q-20 0 -21 -20v-352q0 -20 -20 -21h-33q-20 0 -20 21v352q0 20 -21 20h-356q-20 0 -21 21v37q0 20 21 20h356q20 0 21 21v352q0 20 20 20h33q20 0 20 -20v-352q0 -20 21 -21h352q20 0 21 -20v-37z" />
    <glyph glyph-name="comma" unicode="," horiz-adv-x="438" 
d="M305 35q0 -141 -63 -230q-35 -53 -90 -88q-12 -8 -27 7l-14 12q-16 12 0 28q84 78 84 234q0 20 -21 20h-31q-20 0 -20 21v100q0 20 20 21h142q20 0 20 -21v-104z" />
    <glyph glyph-name="hyphen" unicode="-" horiz-adv-x="544" 
d="M424 414q0 -20 -21 -21h-262q-20 0 -20 21v65q0 20 20 21h262q20 0 21 -21v-65z" />
    <glyph glyph-name="period" unicode="." horiz-adv-x="387" 
d="M287 51q0 -39 -27 -65q-28 -26 -66 -27q-38 0 -65 27q-27 28 -27 66t27 65t66 27t65 -28q26 -26 27 -65z" />
    <glyph glyph-name="slash" unicode="/" horiz-adv-x="634" 
d="M72 0h-70q-31 0 -18 29l534 1249q6 12 19 12h69q31 1 19 -28l-535 -1250q-6 -12 -18 -12z" />
    <glyph glyph-name="zero" unicode="0" 
d="M805 307v678q0 102 -73 172t-173 70h-65q-104 0 -173 -69t-69 -173v-678q0 -100 70 -173t172 -73h65q104 0 175 71t71 175zM909 307q0 -143 -96 -235t-254 -92h-65q-158 0 -252 90t-95 237v678q-1 145 95 235t252 91h65q160 0 255 -89t95 -237v-678z" />
    <glyph glyph-name="one" unicode="1" 
d="M868 20q0 -20 -20 -20h-588q-20 0 -20 20v41q0 20 20 21h221q20 0 21 20v961q0 16 -12 21t-23 -7l-162 -159q-16 -16 -29 0l-24 32q-12 16 0 29l301 301q6 6 14 6h19q20 0 20 -20v-1164q0 -20 21 -20h221q20 0 20 -21v-41z" />
    <glyph glyph-name="two" unicode="2" 
d="M903 985q0 -85 -20 -125q-21 -40 -31 -62t-40 -48t-40 -40q-10 -13 -50 -39t-78 -51t-77 -45q-135 -81 -205 -163t-69 -203v-107q0 -20 20 -20h549q20 0 21 -21v-41q0 -20 -21 -20h-653q-20 0 -21 20v189q0 113 50 202q49 89 106 135q58 46 186 120t198 144q70 69 71 172
q0 103 -66 174t-180 71h-86q-123 0 -205 -109q-10 -12 -22 -6l-54 27q-25 12 -12 28q41 49 66 68q92 76 227 76h86q164 0 257 -87t93 -239z" />
    <glyph glyph-name="three" unicode="3" 
d="M862 324q0 -158 -95 -251t-255 -93h-66q-193 0 -294 145q-12 18 10 31l55 24q12 4 21 -6q94 -113 208 -113h66q102 0 174 70t72 176v74q0 100 -73 171t-173 71h-127q-20 0 -20 20v41q0 20 20 21h127q104 1 175 73t71 176v31q0 102 -73 172t-173 70h-66q-119 0 -208 -113
q-12 -16 -25 -6l-53 31q-23 10 -8 28q35 45 69 72q88 72 225 72h66q162 0 256 -92t94 -254v-35q0 -82 -54 -155t-130 -101q-16 -5 -11 -11t11 -8q70 -20 127 -94t57 -174v-63z" />
    <glyph glyph-name="four" unicode="4" 
d="M688 420v678q0 18 -12 22t-23 -10l-450 -678q-18 -31 16 -33h449q20 1 20 21zM991 340q0 -20 -20 -21h-158q-20 0 -20 -20v-279q0 -20 -21 -20h-63q-20 0 -21 20v279q0 20 -20 20h-549q-20 0 -21 21v96l557 842q8 8 17 8h100q20 0 21 -20v-846q0 -20 20 -21h158
q20 0 20 -20v-39z" />
    <glyph glyph-name="five" unicode="5" 
d="M905 324q0 -154 -96 -249t-254 -95h-66q-188 0 -296 141q-14 18 8 31l55 28q14 6 25 -6q86 -113 208 -113h66q102 0 174 69t72 177v74q0 102 -70 172t-176 70h-303q-20 0 -21 20v623q0 20 21 20h608q20 0 21 -20v-54q0 -20 -21 -20h-504q-20 0 -20 -21v-446q0 -20 20 -20
h199q160 1 255 -91t95 -249v-41z" />
    <glyph glyph-name="six" unicode="6" 
d="M821 307v88q0 94 -66 168q-67 74 -180 74h-61q-102 0 -171 -70t-69 -172v-88q0 -102 69 -174t171 -72h61q100 0 174 72q72 72 72 174zM926 307q0 -141 -98 -234t-253 -93h-61q-158 0 -251 90t-93 237v678q0 145 94 235t250 91h61q203 0 299 -144q10 -16 -12 -28l-53 -27
q-12 -6 -23 6q-88 109 -211 109h-61q-108 0 -174 -67t-66 -175v-348q0 -15 10 -19t23 9q94 92 232 92h61q137 0 231 -91t95 -233v-88z" />
    <glyph glyph-name="seven" unicode="7" 
d="M889 1081q0 -171 -111 -286q-55 -57 -98 -91q-42 -34 -134 -92q-206 -128 -206 -305v-287q0 -20 -21 -20h-63q-20 0 -20 20v287q0 135 71 224t181 159t161 114t93 117t42 160v90q0 20 -20 21h-553q-20 0 -21 20v54q0 20 21 20h657q20 0 21 -20v-185z" />
    <glyph glyph-name="eight" unicode="8" 
d="M805 307v64q0 100 -72 171t-174 70h-65q-104 0 -173 -70t-69 -171v-64q0 -100 70 -173t172 -73h65q102 0 174 70t72 176zM805 944v41q0 102 -73 172t-173 70h-65q-104 0 -173 -69t-69 -173v-41q0 -104 69 -177t173 -73h65q104 0 175 73t71 177zM909 324q0 -154 -96 -249
t-254 -95h-65q-158 0 -251 93t-93 251v53q0 94 58 167t132 97q27 8 0 16q-72 21 -132 95t-61 168v45q1 158 97 252t250 94h65q162 1 256 -95t94 -251v-45q0 -84 -51 -155t-125 -99q-20 -10 0 -19q70 -25 123 -99t53 -171v-53z" />
    <glyph glyph-name="nine" unicode="9" 
d="M782 817v166q0 102 -68 174q-69 72 -171 72h-62q-100 0 -173 -72t-72 -174v-166q0 -94 66 -168t179 -74h62q102 0 171 70q68 70 68 172zM887 305q0 -145 -94 -235t-250 -90h-62q-150 0 -237 75q-29 23 -62 68q-10 16 13 29l53 26q12 6 22 -6q88 -109 211 -109h62
q109 0 175 67t64 175v270q0 15 -10 19t-22 -8q-94 -92 -232 -92h-61q-137 0 -232 91q-94 91 -94 232v166q0 141 97 235t253 93h62q158 0 251 -90t93 -238v-678z" />
    <glyph glyph-name="colon" unicode=":" horiz-adv-x="387" 
d="M287 51q0 -39 -27 -65q-28 -26 -66 -27q-38 0 -65 27q-27 28 -27 66t27 65t66 27t65 -28q26 -26 27 -65zM287 645q0 -39 -27 -65q-28 -26 -66 -27q-38 0 -65 27q-27 28 -27 66t27 65t66 27t65 -28q26 -26 27 -65z" />
    <glyph glyph-name="semicolon" unicode=";" horiz-adv-x="413" 
d="M297 35q0 -143 -70 -240q-41 -51 -84 -78q-12 -8 -26 7l-15 12q-16 12 0 28q84 78 84 234q0 20 -20 20h-31q-20 0 -20 21v100q0 20 20 21h141q20 0 21 -21v-104zM295 645q0 -39 -27 -65q-28 -26 -66 -27q-38 0 -65 27q-27 28 -27 66t27 65t66 27t65 -28q26 -26 27 -65z
" />
    <glyph glyph-name="less" unicode="&#x3c;" 
d="M145 532q0 12 11 19l645 371q18 8 28 -9l17 -22q12 -18 -8 -29l-619 -354q-33 -18 0 -37l617 -360q18 -10 4 -31l-17 -25q-12 -16 -26 -4l-641 367q-10 6 -11 18v96z" />
    <glyph glyph-name="equal" unicode="=" 
d="M961 266q0 -20 -21 -20h-823q-20 0 -21 20v33q0 20 21 20h823q20 0 21 -20v-33zM961 659q0 -20 -21 -20h-823q-20 0 -21 20v33q0 20 21 21h823q20 0 21 -21v-33z" />
    <glyph glyph-name="greater" unicode="&#x3e;" 
d="M915 440q0 -12 -10 -18l-643 -371q-16 -8 -29 8l-14 23q-12 18 8 29l615 360q33 18 0 37l-615 354q-20 10 -8 29l14 22q12 16 29 9l643 -375q10 -6 10 -19v-88z" />
    <glyph glyph-name="question" unicode="?" 
d="M555 51q0 -39 -27 -65q-28 -26 -66 -27q-38 0 -65 27q-27 28 -27 66t27 65t66 27t65 -28q26 -26 27 -65zM481 440v-24q0 -23 -20 -23h-66q-18 0 -18 21v51q0 95 58 159q59 64 163 111t154 101t49 153q0 98 -73 168t-173 70h-86q-121 0 -209 -113q-12 -16 -24 -6l-54 31
q-23 10 -8 28q45 57 96 93q80 51 199 51h86q158 1 252 -89t94 -234t-78 -219q-62 -60 -161 -108q-100 -49 -140 -95t-41 -126z" />
    <glyph glyph-name="at" unicode="@" horiz-adv-x="1439" 
d="M891 582v137q0 68 -48 114q-47 46 -113 46q-66 -1 -114 -49t-49 -111v-137q0 -68 46 -115t113 -47t116 48t49 114zM1282 502q0 -78 -50 -126t-134 -48h-27q-98 0 -151 65q-14 19 -38 -3t-73 -42t-82 -20q-115 0 -183 66t-69 171v170q0 106 70 171t182 65q66 0 131 -45
q14 -10 24 -5q9 5 9 21v8q0 20 20 21h50q20 0 20 -21v-438q0 -41 26 -67t66 -25h25q36 0 64 28t28 64v430q0 116 -76 186t-201 70h-368q-125 0 -201 -71t-76 -185v-594q0 -116 76 -186t201 -70h532q20 0 21 -20v-52q0 -20 -21 -20h-532q-168 0 -269 96q-100 96 -100 252v594
q0 156 100 252t269 96h368q169 0 269 -96t100 -252v-440z" />
    <glyph glyph-name="A" unicode="A" horiz-adv-x="921" 
d="M279 399h358q28 0 20 27l-172 633l-22 112h-6q-6 -59 -21 -110l-178 -635q-8 -27 21 -27zM866 0h-67q-18 0 -21 14l-82 287q-6 18 -22 18h-426q-18 0 -21 -12l-84 -293q-2 -14 -20 -14h-66q-27 0 -20 27l377 1245q2 14 20 14h53q18 0 21 -14l379 -1245q6 -27 -21 -27z
" />
    <glyph glyph-name="B" unicode="B" horiz-adv-x="1056" 
d="M825 328v43q0 100 -70 171q-71 71 -175 70h-285q-20 0 -21 -20v-490q0 -20 21 -20h285q104 0 175 71q70 71 70 175zM825 944v21q1 111 -67 177t-178 64h-285q-20 0 -21 -20v-471q0 -20 21 -21h285q104 0 175 73q70 73 70 177zM930 346q0 -158 -96 -252t-254 -94h-390
q-20 0 -20 20v1246q0 20 20 20h390q156 0 253 -85t97 -232v-37q0 -86 -52 -160t-139 -108q-10 -4 -10 -10t10 -11q78 -27 134 -99t57 -167v-31z" />
    <glyph glyph-name="C" unicode="C" horiz-adv-x="946" 
d="M494 -20q-158 0 -251 90t-93 237v678q0 147 93 237t251 89h65q133 0 221 -66q47 -31 78 -78q12 -18 -10 -28l-53 -27q-16 -8 -23 2q-92 113 -213 113h-65q-104 0 -172 -69t-68 -173v-678q0 -102 69 -174t171 -72h65q131 0 211 115q8 10 23 4l53 -24q24 -13 12 -31
q-92 -146 -299 -145h-65z" />
    <glyph glyph-name="D" unicode="D" horiz-adv-x="1077" 
d="M825 328v637q0 100 -70 171q-71 71 -175 70h-285q-20 0 -21 -20v-1084q0 -20 21 -20h285q104 0 175 71q70 71 70 175zM930 350q0 -160 -96 -255t-254 -95h-390q-20 0 -20 20v1246q0 20 20 20h390q160 0 255 -92t95 -250v-594z" />
    <glyph glyph-name="E" unicode="E" horiz-adv-x="946" 
d="M864 20q0 -20 -20 -20h-654q-20 0 -20 20v1246q0 20 20 20h654q20 0 20 -20v-39q0 -20 -20 -21h-549q-20 0 -21 -20v-471q0 -20 21 -21h450q20 0 21 -20v-41q0 -20 -21 -21h-450q-20 0 -21 -20v-490q0 -20 21 -20h549q20 0 20 -21v-41z" />
    <glyph glyph-name="F" unicode="F" horiz-adv-x="884" 
d="M864 1227q0 -20 -20 -21h-549q-20 0 -21 -20v-471q0 -20 21 -21h450q20 0 21 -20v-41q0 -20 -21 -21h-450q-20 0 -21 -20v-572q0 -20 -20 -20h-64q-20 0 -20 20v1246q0 20 20 20h654q20 0 20 -20v-39z" />
    <glyph glyph-name="G" unicode="G" horiz-adv-x="1034" 
d="M907 307q0 -141 -96 -234t-252 -93h-65q-158 0 -251 90t-93 237v678q0 145 94 235t250 91h106q188 0 295 -144q14 -16 -10 -28l-54 -27q-14 -8 -22 2q-84 113 -209 113h-106q-109 0 -175 -65t-65 -177v-678q0 -104 68 -175t172 -71h65q106 0 175 72t69 174v187
q0 20 -21 20h-221q-20 0 -20 21v43q0 20 20 20h326q20 0 20 -20v-271z" />
    <glyph glyph-name="H" unicode="H" horiz-adv-x="1128" 
d="M961 20q0 -20 -21 -20h-63q-20 0 -21 20v572q0 20 -20 20h-541q-20 0 -21 -20v-572q0 -20 -20 -20h-64q-20 0 -20 20v1246q0 20 20 20h64q20 0 20 -20v-551q0 -20 21 -21h541q20 0 20 21v551q0 20 21 20h63q20 0 21 -20v-1246z" />
    <glyph glyph-name="I" unicode="I" horiz-adv-x="442" 
d="M274 20q0 -20 -20 -20h-64q-20 0 -20 20v1246q0 20 20 20h64q20 0 20 -20v-1246z" />
    <glyph glyph-name="J" unicode="J" horiz-adv-x="823" 
d="M666 328q0 -156 -94 -252t-238 -96t-236 69q-37 27 -75 76q-14 20 6 33l53 26q16 6 24 -6q94 -117 210 -117t181 67t64 179v959q0 20 21 20h63q20 0 21 -20v-938z" />
    <glyph glyph-name="K" unicode="K" horiz-adv-x="1019" 
d="M907 0q-12 0 -18 10l-391 641q-18 31 -41 2l-183 -229v-404q0 -20 -20 -20h-64q-20 0 -20 20v1246q0 20 20 20h64q20 0 20 -20v-670q0 -18 14 -22t23 10l529 694q8 8 16 8h64q16 0 21 -10t-5 -23l-377 -465q-16 -18 -2 -40l442 -717q18 -31 -18 -31h-74z" />
    <glyph glyph-name="L" unicode="L" horiz-adv-x="880" 
d="M864 20q0 -20 -20 -20h-654q-20 0 -20 20v1246q0 20 20 20h64q20 0 20 -20v-1164q0 -20 21 -20h549q20 0 20 -21v-41z" />
    <glyph glyph-name="M" unicode="M" horiz-adv-x="1329" 
d="M1161 20q0 -20 -20 -20h-64q-20 0 -20 20v586q0 219 22 490l-8 2q-23 -78 -57 -156l-322 -725q-6 -12 -18 -12h-19q-12 0 -18 12l-318 725q-27 61 -59 158l-8 -2q23 -270 22 -486v-592q0 -20 -20 -20h-64q-20 0 -20 20v1246q0 20 20 20h70q12 0 19 -12l356 -813
q25 -61 33 -88h6q23 61 33 84l350 817q6 12 18 12h66q20 0 20 -20v-1246z" />
    <glyph glyph-name="N" unicode="N" horiz-adv-x="1128" 
d="M961 20q0 -20 -21 -20h-66q-12 0 -18 10l-545 985q-33 68 -43 107h-6q12 -92 12 -254v-828q0 -20 -20 -20h-64q-20 0 -20 20v1246q0 20 20 20h62q12 0 18 -10l549 -995l45 -111h6q-14 121 -14 283v813q0 20 21 20h63q20 0 21 -20v-1246z" />
    <glyph glyph-name="O" unicode="O" 
d="M803 307v678q0 102 -72 172t-172 70h-65q-104 0 -172 -69t-68 -173v-678q0 -102 69 -174t171 -72h65q100 0 172 73t72 173zM907 307q0 -147 -95 -237t-253 -90h-65q-158 0 -251 90t-93 237v678q0 147 93 237t251 89h65q158 0 253 -90t95 -236v-678z" />
    <glyph glyph-name="P" unicode="P" horiz-adv-x="954" 
d="M825 944v21q0 100 -70 171q-71 71 -175 70h-285q-20 0 -21 -20v-471q0 -20 21 -21h285q104 0 175 73q70 73 70 177zM930 952q0 -148 -97 -244q-97 -95 -253 -96h-285q-20 0 -21 -20v-572q0 -20 -20 -20h-64q-20 0 -20 20v1246q0 20 20 20h390q160 0 255 -93t95 -241z" />
    <glyph glyph-name="Q" unicode="Q" 
d="M803 307v678q0 102 -72 172t-172 70h-65q-104 0 -172 -69t-68 -173v-678q0 -188 203 -244q29 -8 28 19v111q0 20 21 20h41q20 0 20 -20v-115q0 -20 25 -15q106 25 158 91t53 153zM907 307q0 -129 -85 -217t-238 -110q-16 -2 -17 -21v-137q0 -20 -20 -21h-41q-20 0 -21 21
v137q0 16 -20 21q-156 24 -236 110t-79 217v678q0 147 93 237t251 89h65q158 0 253 -90t95 -236v-678z" />
    <glyph glyph-name="R" unicode="R" horiz-adv-x="1038" 
d="M825 944v21q0 106 -67 174q-68 68 -178 67h-285q-20 0 -21 -20v-471q0 -20 21 -21h285q104 0 175 73q70 73 70 177zM932 924q0 -88 -58 -166t-149 -111q-16 -6 -10 -20l207 -600q10 -27 -19 -27h-74q-14 0 -18 14l-203 586q-2 12 -16 12h-297q-20 0 -21 -20v-572
q0 -20 -20 -20h-64q-20 0 -20 20v1246q0 20 20 20h390q164 0 258 -88t94 -240v-34z" />
    <glyph glyph-name="S" unicode="S" horiz-adv-x="921" 
d="M827 318q0 -158 -97 -248t-257 -90h-88q-191 0 -297 141q-14 18 8 31l54 28q14 6 24 -6q88 -113 211 -113h88q109 0 177 70t69 182q0 112 -89 184q-62 48 -129 80q-69 31 -115 53q-218 101 -266 219q-24 58 -24 136q0 145 95 235t249 91h33q197 0 299 -144
q12 -18 -10 -28l-51 -27q-16 -8 -25 2q-84 113 -213 113h-33q-106 0 -172 -66t-66 -174t82 -170q78 -61 168 -97q2 -1 7 -2q4 -1 6 -3q184 -86 244 -137q118 -102 118 -260z" />
    <glyph glyph-name="T" unicode="T" horiz-adv-x="761" 
d="M731 1227q0 -20 -20 -21h-256q-20 0 -21 -20v-1166q0 -20 -20 -20h-64q-20 0 -20 20v1166q0 20 -21 20h-256q-20 0 -20 21v39q0 20 20 20h658q20 0 20 -20v-39z" />
    <glyph glyph-name="U" unicode="U" horiz-adv-x="1075" 
d="M918 307q0 -141 -98 -234t-251 -93h-65q-156 0 -250 92t-94 235v959q0 20 20 20h64q20 0 20 -20v-959q0 -109 65 -177t175 -69h65q109 0 177 70t67 176v959q0 20 21 20h63q20 0 21 -20v-959z" />
    <glyph glyph-name="V" unicode="V" horiz-adv-x="921" 
d="M485 0h-47q-18 0 -20 14l-381 1246q-6 27 20 26h72q18 0 21 -14l292 -1030l23 -101h6q6 41 23 103l282 1028q2 14 21 14h69q27 1 21 -26l-381 -1246q-2 -14 -21 -14z" />
    <glyph glyph-name="W" unicode="W" horiz-adv-x="1394" 
d="M1055 0h-47q-18 0 -21 14l-266 916l-21 110h-6q-6 -49 -24 -110l-267 -916q-2 -14 -20 -14h-45q-16 0 -21 16l-270 1246q-6 25 21 24h69q16 0 21 -16l192 -957l19 -112h6q8 35 28 110l261 965q2 14 20 14h27q18 0 20 -14l293 -1081h6q4 43 19 114l190 961q4 16 21 16h69
q27 1 21 -24l-275 -1246q-4 -16 -20 -16z" />
    <glyph glyph-name="X" unicode="X" horiz-adv-x="929" 
d="M840 0h-78q-12 0 -19 12l-258 539q-8 14 -18 14t-18 -14l-269 -539q-8 -12 -18 -12h-66q-35 0 -18 31l309 606q2 10 0 18l-313 600q-16 31 18 31h78q10 0 18 -12l267 -535q8 -14 18 -14t19 14l251 535q6 12 19 12h72q33 0 18 -29l-299 -598q-6 -12 0 -22l305 -608
q14 -29 -18 -29z" />
    <glyph glyph-name="Y" unicode="Y" horiz-adv-x="847" 
d="M475 20q0 -20 -20 -20h-64q-20 0 -20 20v580l-348 655q-16 31 18 31h78q10 0 18 -12l273 -553q8 -16 18 -16t18 16l265 553q8 12 18 12h80q34 0 18 -31l-352 -655v-580z" />
    <glyph glyph-name="Z" unicode="Z" horiz-adv-x="843" 
d="M782 20q0 -20 -20 -20h-668q-33 0 -18 29l512 1149q14 29 -19 28h-465q-20 0 -20 21v39q0 20 20 20h617q33 0 18 -29l-514 -1146q-14 -29 19 -29h518q20 0 20 -21v-41z" />
    <glyph glyph-name="bracketleft" unicode="[" horiz-adv-x="675" 
d="M522 -373q0 -20 -20 -20h-260q-20 0 -21 20v1858q0 20 21 20h260q20 0 20 -20v-39q0 -20 -20 -21h-156q-20 0 -20 -20v-1696q0 -20 20 -20h156q20 0 20 -21v-41z" />
    <glyph glyph-name="backslash" unicode="\" horiz-adv-x="634" 
d="M606 0h-69q-12 0 -19 12l-532 1245q-12 29 18 29h70q12 0 18 -12l533 -1245q12 -29 -19 -29z" />
    <glyph glyph-name="bracketright" unicode="]" horiz-adv-x="675" 
d="M455 -373q0 -20 -21 -20h-260q-20 0 -20 20v41q0 20 20 21h156q20 0 20 20v1696q0 20 -20 20h-156q-20 0 -20 21v39q0 20 20 20h260q20 0 21 -20v-1858z" />
    <glyph glyph-name="underscore" unicode="_" horiz-adv-x="419" 
d="M432 -440q0 -20 -20 -21h-430q-20 0 -21 21v51q0 20 21 20h430q20 0 20 -20v-51z" />
    <glyph glyph-name="grave" unicode="`" horiz-adv-x="1034" 
d="M537 999q-14 0 -37 17l-246 201q-14 10 -8 22t22 12h109q12 0 18 -8l160 -223q14 -20 -10 -21h-8z" />
    <glyph glyph-name="a" unicode="a" horiz-adv-x="897" 
d="M655 383q0 20 -20 20h-297q-59 0 -101 -42t-42 -101v-33q-1 -61 39 -103t104 -42h84q74 0 138 58t95 143v100zM760 20q0 -20 -21 -20h-39q-20 0 -20 20v95q0 18 -14 22t-25 -10q-96 -127 -219 -127h-84q-104 0 -175 65t-71 162v27q0 102 71 167t175 64h297q20 0 20 21v80
q0 102 -68 170q-69 68 -185 68t-199 -111q-10 -14 -25 -8l-57 28q-20 10 -8 29q41 55 86 86q91 59 231 59t235 -88t95 -233v-566z" />
    <glyph glyph-name="b" unicode="b" horiz-adv-x="962" 
d="M741 328v241q0 100 -71 171q-72 71 -174 71t-172 -70t-70 -172v-241q0 -100 71 -173t174 -73t173 70q69 70 69 176zM846 328q0 -144 -96 -236t-244 -92t-236 109q-16 21 -28 13q-12 -9 -13 -22v-80q0 -20 -20 -20h-39q-20 0 -20 20v1246q0 20 20 20h63q20 0 21 -20v-453
q0 -18 13 -20t24 10q90 90 227 90q136 0 232 -91t96 -233v-241z" />
    <glyph glyph-name="c" unicode="c" horiz-adv-x="860" 
d="M448 -20q-140 0 -235 90q-94 90 -94 237v283q0 123 97 223q96 100 234 100t204 -39t110 -102q12 -18 -10 -29l-52 -24q-14 -8 -24 2q-94 111 -204 111t-181 -70q-70 -70 -70 -172v-283q0 -106 67 -176q66 -70 182 -70t206 115q8 10 20 4l54 -24q24 -13 12 -31
q-44 -65 -110 -105t-206 -40z" />
    <glyph glyph-name="d" unicode="d" horiz-adv-x="962" 
d="M711 328v241q0 102 -70 172t-172 70t-174 -71t-72 -171v-241q0 -106 69 -176t173 -70t175 73t71 173zM815 20q0 -20 -20 -20h-39q-20 0 -21 20v80q0 27 -24 20q-10 -3 -17 -11q-86 -109 -234 -109t-245 92q-96 92 -96 236v241q0 141 95 233q94 92 232 91q138 0 228 -90
q10 -12 23 -10t14 20v453q0 20 20 20h64q20 0 20 -20v-1246z" />
    <glyph glyph-name="e" unicode="e" horiz-adv-x="931" 
d="M711 541v32q0 111 -69 185t-174 74t-175 -70t-70 -172v-39q0 -31 21 -31h446q21 1 21 21zM815 459q0 -20 -20 -21h-551q-20 0 -21 -20v-111q0 -106 67 -176t175 -70h31q127 0 213 115q8 10 20 4l53 -24q25 -12 13 -31q-39 -53 -108 -99t-191 -46h-31q-158 0 -252 90
t-94 237v283q0 123 97 223t254 100t251 -97t94 -236v-121z" />
    <glyph glyph-name="f" unicode="f" horiz-adv-x="555" 
d="M559 1227h-29q-104 0 -173 -69t-68 -173v-170q0 -20 20 -20h158q20 0 20 -21v-41q0 -20 -20 -20h-158q-20 0 -20 -21v-672q0 -20 -21 -20h-63q-20 0 -21 20v672q0 20 -20 21h-55q-20 0 -21 20v41q0 20 21 21h55q20 0 20 20v150q0 157 98 251t248 95h39q31 0 23 -25
l-17 -47q-4 -12 -16 -12z" />
    <glyph glyph-name="g" unicode="g" horiz-adv-x="921" 
d="M793 -238v7q0 59 -40 96t-108 37h-297q-63 0 -103 -37t-40 -96v-7q0 -66 38 -102t105 -37h297q68 0 108 38t40 101zM688 549v20q0 100 -71 171t-171 71t-168 -70t-67 -172v-20q-1 -104 65 -175t172 -71t174 72q66 72 66 174zM897 -238q0 -106 -73 -164t-179 -59h-297
q-106 -1 -175 59t-69 164v7q0 59 36 110t102 76q8 2 11 11t-3 16q-51 60 -51 132t59 128q16 12 -4 28q-150 109 -150 279v20q0 141 98 233t239 91q142 0 237 -107q20 -20 29 -11q10 9 10 22v75q0 20 20 21h41q20 0 21 -21v-323q1 -141 -101 -235t-252 -93q-18 0 -79 6
q-33 -12 -53 -46t-19 -76q1 -41 25 -75t63 -44h262q117 0 185 -58t67 -159v-7z" />
    <glyph glyph-name="h" unicode="h" horiz-adv-x="983" 
d="M846 20q0 -20 -21 -20h-63q-20 0 -21 20v549q0 100 -72 171q-73 71 -174 71t-171 -70t-70 -172v-549q0 -20 -21 -20h-63q-20 0 -20 20v1246q0 20 20 20h63q20 0 21 -20v-453q0 -18 13 -20t24 10q90 90 228 90q139 0 233 -91t94 -233v-549z" />
    <glyph glyph-name="i" unicode="i" horiz-adv-x="401" 
d="M254 20q0 -20 -21 -20h-63q-20 0 -20 20v852q0 20 20 21h63q20 0 21 -21v-852zM274 1237q0 -31 -22 -53t-52 -23q-30 0 -50 23q-20 24 -20 54t20 52t51 21q31 1 52 -21t21 -53z" />
    <glyph glyph-name="j" unicode="j" horiz-adv-x="401" 
d="M254 -135q0 -199 -154 -295q-57 -37 -120 -51q-27 -6 -27 20v45q0 16 16 21q84 23 132 86t49 149v1032q0 20 20 21h63q20 0 21 -21v-1007zM274 1237q0 -31 -22 -53t-52 -23q-30 0 -50 23q-20 24 -20 54t20 52t51 21q31 1 52 -21t21 -53z" />
    <glyph glyph-name="k" unicode="k" horiz-adv-x="880" 
d="M817 0h-74q-12 0 -18 10l-299 492q-14 23 -33 4l-139 -141v-345q0 -20 -21 -20h-63q-20 0 -20 20v1246q0 20 20 20h63q20 0 21 -20v-754q0 -16 11 -22t24 8l346 381q14 14 29 14h57q16 0 21 -11t-7 -24l-243 -244q-12 -12 -5 -24l349 -559q16 -31 -19 -31z" />
    <glyph glyph-name="l" unicode="l" horiz-adv-x="401" 
d="M254 20q0 -20 -21 -20h-63q-20 0 -20 20v1246q0 20 20 20h63q20 0 21 -20v-1246z" />
    <glyph glyph-name="m" unicode="m" horiz-adv-x="1484" 
d="M1348 20q0 -20 -21 -20h-63q-20 0 -21 20v549q0 106 -63 174q-62 68 -152 68t-159 -72t-68 -170v-549q0 -20 -21 -20h-63q-20 0 -21 20v549q0 102 -65 172q-66 70 -152 70q-85 0 -155 -71t-70 -171v-549q0 -20 -21 -20h-63q-20 0 -20 20v852q0 20 20 21h39q20 0 20 -21
v-81q1 -19 13 -23t24 10q96 115 236 115t237 -145q14 -25 33 0q106 145 250 145t234 -91q91 -91 92 -233v-549z" />
    <glyph glyph-name="n" unicode="n" horiz-adv-x="983" 
d="M846 20q0 -20 -21 -20h-63q-20 0 -21 20v549q0 104 -68 173q-69 69 -174 69t-175 -70t-70 -172v-549q0 -20 -21 -20h-63q-20 0 -20 20v852q0 20 20 21h39q20 0 20 -21v-84q0 -26 25 -19q10 3 16 11q92 113 238 113t242 -90t96 -234v-549z" />
    <glyph glyph-name="o" unicode="o" horiz-adv-x="929" 
d="M709 307v283q0 106 -71 174q-70 68 -178 68t-172 -68q-64 -66 -65 -174v-283q0 -109 66 -177t171 -69q105 0 177 71t72 175zM813 307q0 -147 -101 -237q-102 -90 -250 -90t-246 90q-97 90 -97 237v283q0 150 95 236t248 87q153 0 252 -86t99 -237v-283z" />
    <glyph glyph-name="p" unicode="p" horiz-adv-x="962" 
d="M741 324v241q0 106 -69 176q-70 70 -173 70t-174 -73t-71 -173v-241q0 -102 70 -172t172 -70t174 71q71 71 71 171zM846 324q0 -140 -95 -232t-233 -92t-227 90q-9 12 -23 10t-14 -20v-520q0 -20 -21 -21h-63q-20 0 -20 21v1312q0 20 20 21h39q20 0 20 -21v-79
q0 -12 13 -21t28 12q86 109 235 109t245 -92t96 -236v-241z" />
    <glyph glyph-name="q" unicode="q" horiz-adv-x="962" 
d="M711 324v241q0 100 -71 173q-72 73 -176 73t-172 -70t-69 -176v-241q0 -100 72 -171t174 -71t172 70t70 172zM815 -440q0 -20 -20 -21h-64q-20 0 -20 21v520q1 18 -13 20t-24 -10q-90 -90 -227 -90t-233 91q-95 91 -95 233v241q0 143 96 235q97 92 245 93q148 0 234 -109
q6 -8 16 -11q24 -7 25 20v79q0 20 21 21h39q20 0 20 -21v-1312z" />
    <glyph glyph-name="r" unicode="r" horiz-adv-x="544" 
d="M539 809q0 -20 -21 -21h-22q-100 0 -171 -72t-71 -167v-529q0 -20 -21 -20h-63q-20 0 -20 20v852q0 20 20 21h39q20 0 20 -21v-94q-1 -18 15 -21t26 11q98 125 226 125h20q23 0 23 -21v-63z" />
    <glyph glyph-name="s" unicode="s" horiz-adv-x="899" 
d="M414 -20q-192 0 -297 141q-16 20 10 31l51 22q14 8 27 -8q78 -115 209 -115h65q102 0 159 54q56 54 56 126t-51 105t-93 42q-319 68 -381 128q-62 59 -60 147q0 125 86 193t219 67h65q115 0 185 -43t106 -90q14 -18 -10 -30l-47 -23q-12 -6 -23 8q-86 106 -211 107h-65
q-102 0 -152 -48t-51 -124q0 -42 15 -62l24 -30t28 -20t30 -16q10 -5 63 -21q54 -15 71 -15q234 -51 285 -96q70 -64 70 -172q0 -107 -84 -183t-234 -75h-65z" />
    <glyph glyph-name="t" unicode="t" horiz-adv-x="546" 
d="M481 2q0 -25 -22 -20q-90 18 -158 67q-119 90 -119 258v484q0 20 -20 20h-123q-20 0 -21 20v15l224 239q6 6 14 7h10q20 0 21 -21v-158q0 -20 20 -20h154q20 0 20 -21v-41q0 -20 -20 -20h-154q-20 0 -20 -20v-484q0 -87 47 -151t131 -86q16 -4 16 -21v-47z" />
    <glyph glyph-name="u" unicode="u" horiz-adv-x="987" 
d="M840 20q0 -20 -21 -20h-43q-20 0 -20 20v84q0 18 -14 22t-25 -11q-92 -115 -240 -115t-243 91t-95 237v544q0 20 21 21h63q20 0 21 -21v-544q0 -106 70 -176t173 -70q102 0 176 71q73 71 72 175v544q0 20 21 21h63q20 0 21 -21v-852z" />
    <glyph glyph-name="v" unicode="v" horiz-adv-x="835" 
d="M446 0h-57q-12 0 -18 12l-344 852q-12 29 18 29h74q12 0 18 -12l258 -664q20 -61 23 -80h8q4 33 23 80l256 664q6 12 18 12h70q30 0 18 -29l-346 -852q-6 -12 -19 -12z" />
    <glyph glyph-name="w" unicode="w" horiz-adv-x="1222" 
d="M907 0h-47q-18 0 -20 14l-201 680q-12 37 -21 80h-8q-8 -43 -20 -80l-205 -680q-2 -14 -20 -14h-46q-18 0 -20 14l-262 852q-10 27 20 27h72q18 0 21 -14l167 -650q1 -11 9 -37t12 -42h8q10 45 21 79l188 650q2 14 20 14h84q18 0 21 -14l182 -650q6 -25 19 -79h8l10 40
q6 25 10 37l166 652q2 14 21 14h71q27 0 21 -27l-260 -852q-2 -14 -21 -14z" />
    <glyph glyph-name="x" unicode="x" horiz-adv-x="843" 
d="M752 0h-78q-12 0 -19 10l-223 367q-10 16 -22 0l-228 -367q-6 -10 -14 -10h-74q-35 0 -16 31l268 411q2 4 2 10t-2 11l-264 399q-18 31 16 31h76q10 0 16 -10l226 -357q14 -23 26 0l217 357q6 10 17 10h72q35 0 16 -31l-260 -397q-6 -10 0 -21l264 -413q18 -31 -16 -31z
" />
    <glyph glyph-name="y" unicode="y" horiz-adv-x="987" 
d="M840 -131q0 -158 -92 -254t-246 -96t-242 67q-41 33 -70 80q-10 16 13 29l53 26q14 6 23 -6q83 -115 199 -115t187 72q71 70 70 174v234q0 20 -12 23t-29 -13q-90 -90 -227 -90t-233 91q-95 91 -95 233v548q0 20 21 21h63q20 0 21 -21v-548q0 -100 72 -171t173 -71
q102 0 175 70q72 70 71 172v548q0 20 21 21h63q20 0 21 -21v-1003z" />
    <glyph glyph-name="z" unicode="z" horiz-adv-x="800" 
d="M739 20q0 -20 -20 -20h-629q-35 0 -18 31l440 747q16 31 -18 31h-426q-20 0 -21 20v41q0 20 21 21h591q35 0 19 -31l-442 -747q-16 -31 18 -31h465q20 0 20 -21v-41z" />
    <glyph glyph-name="braceleft" unicode="{" horiz-adv-x="759" 
d="M606 -371q0 -27 -22 -20q-102 25 -172 90q-106 100 -107 258v315q0 86 -47 148t-131 84q-16 4 -16 20v64q0 16 16 20q84 23 131 86t47 150v319q0 143 92 240q70 72 187 100q23 6 22 -20v-47q0 -16 -16 -21q-84 -21 -131 -83t-47 -148v-365q0 -61 -44 -137t-114 -109
q-20 -8 0 -18q68 -35 113 -123t45 -153v-347q0 -86 47 -149t131 -86q16 -4 16 -21v-47z" />
    <glyph glyph-name="braceright" unicode="}" horiz-adv-x="759" 
d="M649 524q0 -16 -16 -20q-84 -23 -131 -84t-47 -148v-315q0 -170 -121 -272q-68 -55 -158 -76q-23 -6 -22 20v47q0 16 16 21q84 23 131 86t47 149v347q0 65 45 153t113 123q20 10 0 18q-70 33 -114 109t-44 137v365q0 86 -47 148t-131 83q-16 4 -16 21v47q0 27 22 20
q98 -20 168 -82q111 -100 111 -258v-319q0 -86 47 -150t131 -86q16 -4 16 -20v-64z" />
    <glyph glyph-name="nbspace" unicode="&#xa0;" 
 />
    <glyph glyph-name="exclamdown" unicode="&#xa1;" horiz-adv-x="600" 
d="M354 -373q0 -20 -20 -20h-66q-20 0 -20 20v510l33 361q2 20 19 20t19 -20l35 -357v-514zM391 842q-1 -39 -27 -66q-26 -26 -65 -26t-66 26t-26 66t27 66t65 26t65 -26t27 -66z" />
    <glyph glyph-name="cent" unicode="&#xa2;" 
d="M492 125v715q0 27 -27 18q-74 -23 -121 -86t-47 -145v-283q0 -88 46 -150t124 -85q25 -9 25 16zM584 -143q0 -20 -21 -21h-51q-20 0 -20 21v135q0 29 -27 31q-125 20 -199 107t-73 214v283q0 106 75 199q76 93 199 118q25 6 25 25v137q0 20 20 20h51q20 0 21 -20v-135
q0 -20 24 -25q86 -12 136 -45t94 -92q12 -18 -11 -29l-51 -24q-14 -8 -24 2q-63 76 -146 100q-23 6 -22 -18v-713q0 -27 26 -18q76 25 142 104q8 10 20 4l53 -24q25 -13 13 -31q-37 -55 -80 -84q-63 -47 -150 -58q-25 -2 -24 -28v-135z" />
    <glyph glyph-name="sterling" unicode="&#xa3;" 
d="M680 1227q-112 0 -182 -71t-70 -171v-270q0 -20 21 -21h155q20 0 21 -20v-41q0 -20 -21 -21h-155q-20 0 -21 -20v-281q0 -123 -88 -202q-8 -7 -5 -17t17 -10h549q20 0 21 -21v-41q0 -20 -21 -20h-852q-20 0 -20 20v41q0 20 20 21h41q94 0 164 73t70 173v264q0 20 -21 20
h-59q-20 0 -21 21v41q0 20 21 20h59q20 0 21 21v250q0 147 97 246t237 99t223 -55q43 -29 84 -88q12 -18 -11 -28l-51 -27q-14 -8 -22 2q-89 113 -201 113z" />
    <glyph glyph-name="currency" unicode="&#xa4;" 
d="M584 -20q-158 0 -251 90t-93 237v105q0 20 -21 20h-147q-20 0 -21 21v53q0 20 21 20h147q20 0 21 21v198q0 20 -21 21h-147q-20 0 -21 20v56q0 20 21 20h147q20 0 21 21v102q0 147 93 237t251 89h65q198 0 299 -144q12 -18 -10 -28l-53 -27q-16 -8 -23 2
q-92 113 -213 113h-65q-104 0 -172 -69t-68 -173v-102q0 -20 21 -21h350q20 0 20 -20v-56q0 -20 -20 -20h-350q-20 0 -21 -21v-198q0 -20 21 -21h350q20 0 20 -20v-53q0 -20 -20 -21h-350q-20 0 -21 -20v-105q0 -102 69 -174t171 -72h65q131 0 211 115q8 10 23 4l53 -24
q24 -13 12 -31q-100 -145 -299 -145h-65z" />
    <glyph glyph-name="yen" unicode="&#xa5;" 
d="M952 219q0 -20 -20 -20h-330q-20 0 -20 -21v-158q0 -20 -21 -20h-63q-20 0 -21 20v158q0 20 -20 21h-332q-20 0 -21 20v53q0 20 21 21h332q20 0 20 20v199q0 20 -20 20h-332q-20 0 -21 21v55q0 20 21 21h297q35 0 18 30l-315 596q-16 31 18 31h78q10 0 19 -12l272 -553
q8 -16 18 -16t19 16l264 553q8 12 18 12h78q35 0 19 -31l-316 -596q-16 -31 19 -30h301q20 0 20 -21v-55q0 -20 -20 -21h-330q-20 0 -20 -20v-199q0 -20 20 -20h330q20 0 20 -21v-53z" />
    <glyph glyph-name="brokenbar" unicode="&#xa6;" horiz-adv-x="475" 
d="M274 -393h-73v762h73v-762zM274 743h-73v762h73v-762z" />
    <glyph glyph-name="section" unicode="&#xa7;" 
d="M811 302q0 120 -101 195q-70 50 -180 102q-111 52 -153 79q-20 12 -35 -4q-55 -76 -55 -151t46 -129t104 -84q59 -30 151 -76t145 -80q23 -14 33 6q45 78 45 142zM915 -173q0 -136 -96 -228t-254 -93h-94q-185 0 -295 150q-12 18 10 29l56 24q12 4 20 -6
q92 -115 209 -115h94q106 0 176 71t70 172t-65 172q-64 71 -156 116t-184 91t-157 123t-65 187t80 215q14 18 0 35q-80 94 -80 228t94 224t250 89h37q190 0 299 -144q14 -16 -10 -28l-53 -27q-14 -6 -23 2q-100 113 -213 113h-37q-110 0 -176 -67t-66 -161t47 -154
q46 -60 117 -94q72 -34 152 -75t151 -82t117 -115q46 -73 45 -177q0 -104 -75 -206q-14 -20 2 -39q73 -94 73 -230z" />
    <glyph glyph-name="dieresis" unicode="&#xa8;" horiz-adv-x="1034" 
d="M428 1113q0 -33 -24 -57t-56 -24t-58 25q-24 25 -24 57t24 56t58 24t56 -24q24 -24 24 -57zM692 1032q-34 0 -58 25t-24 57t24 56t58 24t56 -24q24 -24 24 -57t-24 -57t-56 -24z" />
    <glyph glyph-name="copyright" unicode="&#xa9;" horiz-adv-x="1443" 
d="M698 154q-108 0 -177 66t-68 173v203q0 106 68 172q69 66 175 66t170 -48q37 -31 62 -67q8 -14 -4 -21l-60 -30q-14 -6 -20 6q-47 78 -128 78t-123 -42t-42 -114v-203q0 -71 44 -113t122 -42t127 79q6 12 20 7l62 -33q14 -9 6 -21q-27 -44 -77 -80q-49 -36 -157 -36z
M1176 184v594q0 117 -78 190t-205 72h-369q-129 0 -205 -72t-75 -190v-594q0 -116 77 -188t203 -72h369q127 0 205 72t78 188zM1257 184q0 -154 -99 -248t-265 -94h-369q-166 0 -264 94t-98 248v594q0 156 98 250t264 94h369q170 0 267 -95t97 -249v-594z" />
    <glyph glyph-name="ordfeminine" unicode="&#xaa;" horiz-adv-x="661" 
d="M444 926q0 12 -12 12h-196q-37 0 -66 -27t-29 -63v-21q0 -41 27 -67t68 -27h57q47 0 88 38q40 38 63 93v62zM541 680q0 -25 -25 -25h-29q-25 0 -24 25v92q0 6 -4 7t-8 -5q-25 -51 -68 -84t-90 -33h-57q-80 0 -133 46q-52 46 -52 124v7q0 76 52 122t133 45h194q14 0 14 15
v59q0 68 -45 112t-125 44t-129 -68q-14 -20 -30 -12l-39 20q-27 14 -4 45q22 31 68 63t153 32t177 -65t71 -171v-395z" />
    <glyph glyph-name="guillemotleft" unicode="&#xab;" horiz-adv-x="1148" 
d="M539 246q1 -16 -9 -22t-24 5l-375 269q-8 8 -8 16v107q0 8 8 16l375 266q14 10 23 5t10 -21v-62q0 -8 -9 -16l-313 -225q-23 -16 0 -33l313 -227q8 -8 9 -17v-61zM1014 242q0 -16 -9 -22t-24 5l-381 273q-8 8 -8 16v107q0 8 8 16l381 266q13 10 23 5t10 -21v-62
q0 -8 -8 -16l-314 -225q-23 -16 0 -33l314 -227q8 -8 8 -17v-65z" />
    <glyph glyph-name="logicalnot" unicode="&#xac;" 
d="M961 266q0 -20 -21 -20h-39q-20 0 -20 20v352q0 20 -21 21h-743q-20 0 -21 20v33q0 20 21 21h823q20 0 21 -21v-426z" />
    <glyph glyph-name="registered" unicode="&#xae;" horiz-adv-x="870" 
d="M514 993v6q0 29 -20 51t-50 21h-65q-25 0 -25 -27v-96q0 -25 25 -24h65q29 0 50 20q20 20 20 49zM569 985q0 -47 -53 -88q-16 -12 -6 -31l51 -102q10 -20 -14 -21h-33q-12 0 -14 9l-47 108q-6 16 -23 17h-51q-25 0 -25 -27v-92q0 -14 -16 -15h-23q-14 0 -14 15v344
q0 16 14 16h129q58 0 92 -34t33 -91v-8zM739 901v41q0 131 -86 212t-227 81h-8q-140 0 -226 -81t-86 -212v-41q0 -131 85 -211t227 -80h8q141 0 227 80t86 211zM791 901q1 -154 -99 -248t-266 -94h-8q-166 0 -264 94t-99 248v41q1 154 99 249t264 95h8q166 0 265 -95
t100 -249v-41z" />
    <glyph glyph-name="macron" unicode="&#xaf;" horiz-adv-x="1034" 
d="M725 1087q0 -20 -20 -20h-373q-20 0 -21 20v41q0 20 21 21h373q20 0 20 -21v-41z" />
    <glyph glyph-name="degree" unicode="&#xb0;" horiz-adv-x="528" 
d="M352 911v205q0 90 -88 90q-42 0 -66 -24t-24 -66v-205q0 -41 24 -65t66 -25q88 0 88 90zM449 911q-1 -78 -51 -126t-134 -48t-134 48t-50 126v205q0 78 50 126t134 48t134 -48t51 -126v-205z" />
    <glyph glyph-name="plusminus" unicode="&#xb1;" 
d="M961 20q0 -20 -21 -20h-823q-20 0 -21 20v37q0 20 21 21h823q20 0 21 -21v-37zM961 569q0 -20 -21 -20h-352q-20 0 -21 -21v-352q0 -20 -20 -20h-33q-20 0 -20 20v352q0 20 -21 21h-356q-20 0 -21 20v37q0 20 21 21h356q20 0 21 20v352q0 20 20 21h33q20 0 20 -21v-352
q0 -20 21 -20h352q20 0 21 -21v-37z" />
    <glyph glyph-name="twosuperior" unicode="&#xb2;" horiz-adv-x="620" 
d="M160 600q0 -10 14 -10h348q12 0 13 -10v-56q0 -10 -13 -10h-440q-12 0 -12 10v76q0 95 63 143q63 47 138 74q124 45 148 66t27 37q4 16 5 32q0 53 -35 89t-103 36h-55q-76 0 -127 -73q-4 -10 -14 -5l-58 27q-14 8 -8 18q31 47 74 79t133 32h55q106 1 167 -55t61 -148
t-66 -132t-149 -68q-115 -47 -141 -74t-25 -64v-14z" />
    <glyph glyph-name="threesuperior" unicode="&#xb3;" horiz-adv-x="620" 
d="M530 664q0 -106 -62 -168t-169 -62h-41q-102 0 -158 49q-27 20 -47 60q-6 14 6 20l58 27q10 6 14 -4q51 -76 127 -76h41q57 0 99 43t42 100v47q0 58 -42 100t-99 42h-94q-12 0 -12 14v49q0 12 12 13h94q59 0 100 42t41 101v20q0 59 -42 101t-99 41h-41q-78 0 -127 -74
q-4 -12 -16 -4l-56 29q-12 6 -1 28t36 43q59 55 164 55h41q107 0 169 -63t62 -168v-22q0 -59 -38 -105q-39 -45 -86 -59v-4q44 -17 84 -65t40 -109v-41z" />
    <glyph glyph-name="acute" unicode="&#xb4;" horiz-adv-x="1034" 
d="M473 999q-25 0 -10 21l160 223q6 8 18 8h109q16 0 22 -12t-8 -22l-246 -201q-23 -16 -37 -17h-8z" />
    <glyph glyph-name="mu" unicode="&#xb5;" horiz-adv-x="997" 
d="M844 20q0 -20 -21 -20h-43q-20 0 -20 20v84q0 18 -14 22t-25 -11q-93 -115 -227 -115t-222 63q-10 9 -17 5t-7 -15v-360q0 -20 -21 -21h-63q-20 0 -21 21v1179q0 20 21 21h63q20 0 21 -21v-544q0 -106 70 -176t173 -70q102 0 176 71q73 71 72 175v544q0 20 21 21h63
q20 0 21 -21v-852z" />
    <glyph glyph-name="paragraph" unicode="&#xb6;" horiz-adv-x="1275" 
d="M1108 -440q0 -20 -21 -21h-59q-20 0 -20 21v1626q0 20 -21 20h-252q-20 0 -20 -20v-1626q0 -20 -21 -21h-63q-20 0 -21 21v618q0 20 -20 21h-92q-156 0 -251 92t-95 235v418q0 156 94 249t252 93h589q20 0 21 -20v-1706z" />
    <glyph glyph-name="periodcentered" unicode="&#xb7;" 
d="M621 477q0 -39 -27 -65t-66 -27q-38 0 -66 27q-28 28 -28 66t27 65t65 27t67 -28q28 -26 28 -65z" />
    <glyph glyph-name="cedilla" unicode="&#xb8;" horiz-adv-x="1034" 
d="M662 -334q0 -80 -56 -128t-139 -48h-66q-27 0 -26 27v16q0 27 26 27h66q45 0 75 30t29 76v19q0 49 -98 94q-33 14 -16 47l98 211q10 18 29 18h34q33 0 19 -30l-86 -179q-8 -16 4 -22q106 -57 107 -139v-19z" />
    <glyph glyph-name="onesuperior" unicode="&#xb9;" horiz-adv-x="620" 
d="M543 526q0 -12 -13 -12h-395q-14 0 -14 12v52q0 12 14 12h139q14 0 15 14v365q0 10 -7 14t-16 -4l-88 -88q-10 -8 -18 0l-35 37q-8 10 0 18l205 205q6 4 8 4h27q12 0 12 -14v-537q0 -14 14 -14h139q12 0 13 -12v-52z" />
    <glyph glyph-name="ordmasculine" unicode="&#xba;" horiz-adv-x="667" 
d="M494 879v196q0 74 -46 116t-116 42t-114 -42t-44 -116v-196q0 -72 46 -117t113 -45t114 45t47 117zM590 879q0 -106 -72 -173t-186 -67t-182 66t-68 174v196q0 106 68 171t184 65t186 -65t70 -171v-196z" />
    <glyph glyph-name="guillemotright" unicode="&#xbb;" horiz-adv-x="1148" 
d="M567 514q0 -8 -8 -16l-381 -269q-14 -10 -23 -5t-10 22v61q0 8 9 17l311 227q23 16 0 33l-311 225q-8 8 -9 16v62q-1 16 9 21t24 -5l381 -266q8 -8 8 -16v-107zM1036 514q0 -8 -8 -16l-375 -269q-14 -10 -23 -5t-9 22v61q0 8 8 17l311 227q23 16 0 33l-311 225
q-8 8 -8 16v62q0 16 9 21t23 -5l375 -266q8 -8 8 -16v-107z" />
    <glyph glyph-name="onequarter" unicode="&#xbc;" horiz-adv-x="1654" 
d="M1270 90v381q0 12 -8 15t-17 -7l-260 -381q-14 -23 10 -22h260q15 0 15 14zM543 526q0 -12 -13 -12h-395q-14 0 -14 12v52q0 12 14 12h139q14 0 15 14v365q0 10 -7 14t-16 -4l-88 -88q-10 -8 -18 0l-35 37q-8 10 0 18l205 205q6 4 8 4h27q12 0 12 -14v-537q0 -14 14 -14
h139q12 0 13 -12v-52zM1485 12q0 -12 -15 -12h-98q-12 0 -12 -12v-187q0 -12 -14 -12h-64q-12 0 -12 12v187q0 12 -15 12h-346q-14 0 -14 12v78l360 531q4 4 11 4h80q14 0 14 -13v-522q0 -14 12 -14h98q14 0 15 -13v-51zM586 0h-49q-31 0 -19 29l533 1245q6 12 18 12h49
q31 0 19 -29l-533 -1245q-6 -12 -18 -12z" />
    <glyph glyph-name="onehalf" unicode="&#xbd;" horiz-adv-x="1654" 
d="M543 526q0 -12 -13 -12h-395q-14 0 -14 12v52q0 12 14 12h139q14 0 15 14v365q0 10 -7 14t-16 -4l-88 -88q-10 -8 -18 0l-35 37q-8 10 0 18l205 205q6 4 8 4h27q12 0 12 -14v-537q0 -14 14 -14h139q12 0 13 -12v-52zM586 0h-49q-31 0 -19 29l533 1245q6 12 18 12h49
q31 0 19 -29l-533 -1245q-6 -12 -18 -12zM1087 100v-14q0 -10 15 -10h348q12 0 12 -10v-56q0 -10 -12 -10h-440q-12 0 -13 10v76q0 95 67 145t180 88q30 9 41 15t31 15t41 31q21 21 21 66t-35 81t-102 36h-55q-76 0 -127 -74q-6 -10 -15 -4l-57 27q-14 8 -8 18q27 43 63 72
q53 39 144 39h55q106 0 167 -55q60 -56 60 -148t-68 -134t-147 -66q-115 -47 -141 -73t-25 -65z" />
    <glyph glyph-name="threequarters" unicode="&#xbe;" horiz-adv-x="1654" 
d="M1270 90v381q0 12 -8 15t-17 -7l-260 -381q-14 -23 10 -22h260q15 0 15 14zM608 664q0 -106 -62 -168t-169 -62h-41q-144 0 -205 109q-6 14 6 20l58 27q10 6 14 -4q51 -76 127 -76h41q57 0 99 43t42 100v47q0 58 -42 100t-99 42h-94q-12 0 -13 14v49q0 12 13 13h94
q59 0 100 42t41 101v20q0 59 -42 101t-99 41h-41q-78 0 -127 -74q-4 -12 -16 -4l-56 29q-12 6 -6 18q63 108 205 108h41q107 0 169 -63t62 -168v-22q0 -59 -39 -105t-86 -59v-4q43 -17 84 -65t41 -109v-41zM1485 12q0 -12 -15 -12h-98q-12 0 -12 -12v-187q0 -12 -14 -12h-64
q-12 0 -12 12v187q0 12 -15 12h-346q-14 0 -14 12v78l360 531q4 4 11 4h80q14 0 14 -13v-522q0 -14 12 -14h98q14 0 15 -13v-51zM586 0h-49q-31 0 -19 29l533 1245q6 12 18 12h49q31 0 19 -29l-533 -1245q-6 -12 -18 -12z" />
    <glyph glyph-name="questiondown" unicode="&#xbf;" 
d="M506 -418q-158 0 -252 89t-94 234t78 219q62 60 161 108q101 48 141 94t40 127v24q0 23 20 23h66q18 0 18 -21v-51q0 -96 -58 -160t-162 -110q-104 -48 -154 -102t-50 -152t73 -168t173 -70h86q121 0 209 113q12 16 24 6l54 -31q22 -10 8 -28q-37 -49 -86 -86
q-82 -57 -209 -58h-86zM690 842q0 -39 -26 -66q-26 -26 -66 -26q-39 0 -66 26t-26 66q0 40 26 66t66 26t66 -26t26 -66z" />
    <glyph glyph-name="Agrave" unicode="&#xc0;" horiz-adv-x="921" 
d="M279 399h358q28 0 20 27l-172 633l-22 112h-6q-6 -59 -21 -110l-178 -635q-8 -27 21 -27zM866 0h-67q-18 0 -21 14l-84 293q-2 12 -20 12h-426q-18 0 -21 -12l-84 -293q-2 -14 -20 -14h-66q-27 0 -20 27l377 1245q2 14 20 14h53q18 0 21 -14l379 -1245q6 -27 -21 -27z
M500 1407h-35q-14 0 -23 8l-196 154q-8 6 -5 14t13 8h123q16 0 22 -8l109 -158q10 -18 -8 -18z" />
    <glyph glyph-name="Aacute" unicode="&#xc1;" horiz-adv-x="921" 
d="M279 399h358q28 0 20 27l-172 633l-22 112h-6q-6 -59 -21 -110l-178 -635q-8 -27 21 -27zM866 0h-67q-18 0 -21 14l-84 293q-2 12 -20 12h-426q-18 0 -21 -12l-84 -293q-2 -14 -20 -14h-66q-27 0 -20 27l377 1245q2 14 20 14h53q18 0 21 -14l379 -1245q6 -27 -21 -27z
M461 1407h-35q-18 0 -8 18l108 158q6 8 23 8h123q10 0 13 -8t-5 -14l-197 -154q-8 -8 -22 -8z" />
    <glyph glyph-name="Acircumflex" unicode="&#xc2;" horiz-adv-x="921" 
d="M279 399h358q28 0 20 27l-172 633l-22 112h-6q-6 -59 -21 -110l-178 -635q-8 -27 21 -27zM866 0h-67q-18 0 -21 14l-84 293q-2 12 -20 12h-426q-18 0 -21 -12l-84 -293q-2 -14 -20 -14h-66q-27 0 -20 27l377 1245q2 14 20 14h53q18 0 21 -14l379 -1245q6 -27 -21 -27z
M637 1403h-70q-14 0 -22 14l-72 113q-8 14 -20 0l-72 -113q-8 -14 -23 -14h-69q-20 0 -8 16l135 180q6 8 14 9h66q8 0 14 -9l135 -180q12 -16 -8 -16z" />
    <glyph glyph-name="Atilde" unicode="&#xc3;" horiz-adv-x="921" 
d="M279 399h358q28 0 20 27l-172 633l-22 112h-6q-6 -59 -21 -110l-178 -635q-8 -27 21 -27zM866 0h-67q-18 0 -21 14l-84 293q-2 12 -20 12h-426q-18 0 -21 -12l-84 -293q-2 -14 -20 -14h-66q-27 0 -20 27l377 1245q2 14 20 14h53q18 0 21 -14l379 -1245q6 -27 -21 -27z
M563 1419q-47 0 -108 40t-101 40t-92 -53q-8 -8 -18 0l-23 24q-8 8 2 23q68 94 120 94q51 0 115 -39t102 -39t95 60q12 12 21 2l22 -23q10 -10 2 -20q-70 -109 -137 -109z" />
    <glyph glyph-name="Adieresis" unicode="&#xc4;" horiz-adv-x="921" 
d="M279 399h358q28 0 20 27l-172 633l-22 112h-6q-6 -59 -21 -110l-178 -635q-8 -27 21 -27zM866 0h-67q-18 0 -21 14l-84 293q-2 12 -20 12h-426q-18 0 -21 -12l-84 -293q-2 -14 -20 -14h-66q-27 0 -20 27l377 1245q2 14 20 14h53q18 0 21 -14l379 -1245q6 -27 -21 -27z
M379 1503q0 -31 -22 -53q-23 -22 -51 -23q-28 0 -48 23q-20 24 -20 54t20 52t49 23q29 -1 51 -23t21 -53zM688 1503q0 -31 -22 -53t-50 -23q-29 0 -49 23q-20 24 -20 54t20 52t49 23q28 -1 50 -23t22 -53z" />
    <glyph glyph-name="Aring" unicode="&#xc5;" horiz-adv-x="921" 
d="M279 399h358q28 0 20 27l-172 633l-22 112h-6q-6 -59 -21 -110l-178 -635q-8 -27 21 -27zM561 1366v66q1 40 -27 64t-73 24q-94 0 -94 -88v-66q0 -88 94 -88q45 0 73 24t27 64zM866 0h-67q-18 0 -21 14l-84 293q-2 12 -20 12h-426q-18 0 -21 -12l-84 -293q-2 -14 -20 -14
h-66q-27 0 -20 27l358 1183q6 18 -10 25q-82 37 -82 131v66q0 66 43 106t114 39q71 0 118 -40t47 -105v-66q0 -92 -88 -131q-16 -6 -11 -23l361 -1185q6 -27 -21 -27z" />
    <glyph glyph-name="AE" unicode="&#xc6;" horiz-adv-x="1427" 
d="M268 399h359q20 0 20 21v538l4 160h-6q-10 -31 -37 -76l-358 -612q-16 -31 18 -31zM1346 20q0 -20 -21 -20h-657q-20 0 -21 20v279q0 20 -20 20h-424q-14 0 -21 -8l-172 -301q-6 -10 -18 -10h-60q-35 0 -18 31l737 1245q6 10 19 10h655q20 0 21 -20v-39q0 -20 -21 -21
h-553q-20 0 -20 -20v-471q0 -20 20 -21h455q20 0 20 -20v-41q0 -20 -20 -21h-455q-20 0 -20 -20v-490q0 -20 20 -20h553q20 0 21 -21v-41z" />
    <glyph glyph-name="Ccedilla" unicode="&#xc7;" horiz-adv-x="946" 
d="M600 -315v-19q0 -80 -56 -128t-138 -48h-66q-27 0 -27 27v16q0 27 27 27h66q44 0 74 30t30 76v19q0 49 -98 94q-33 14 -17 47l64 135q8 16 -10 21q-137 14 -219 102q-81 88 -80 223v678q0 147 93 237t251 89h65q196 0 299 -144q12 -18 -10 -28l-53 -27q-16 -8 -23 2
q-92 113 -213 113h-65q-104 0 -172 -69t-68 -173v-678q0 -102 69 -174t171 -72h65q131 0 211 115q8 10 23 4l53 -24q24 -13 12 -31q-99 -142 -285 -145q-18 0 -26 -17l-58 -117q-8 -16 5 -22q106 -57 106 -139z" />
    <glyph glyph-name="Egrave" unicode="&#xc8;" horiz-adv-x="946" 
d="M864 20q0 -20 -20 -20h-654q-20 0 -20 20v1246q0 20 20 20h654q20 0 20 -20v-39q0 -20 -20 -21h-549q-20 0 -21 -20v-471q0 -20 21 -21h450q20 0 21 -20v-41q0 -20 -21 -21h-450q-20 0 -21 -20v-490q0 -20 21 -20h549q20 0 20 -21v-41zM553 1407h-35q-14 0 -22 8
l-197 154q-8 6 -5 14t13 8h123q16 0 23 -8l108 -158q10 -18 -8 -18z" />
    <glyph glyph-name="Eacute" unicode="&#xc9;" horiz-adv-x="946" 
d="M864 20q0 -20 -20 -20h-654q-20 0 -20 20v1246q0 20 20 20h654q20 0 20 -20v-39q0 -20 -20 -21h-549q-20 0 -21 -20v-471q0 -20 21 -21h450q20 0 21 -20v-41q0 -20 -21 -21h-450q-20 0 -21 -20v-490q0 -20 21 -20h549q20 0 20 -21v-41zM514 1407h-35q-18 0 -8 18l109 158
q6 8 22 8h123q10 0 13 -8t-5 -14l-196 -154q-8 -8 -23 -8z" />
    <glyph glyph-name="Ecircumflex" unicode="&#xca;" horiz-adv-x="946" 
d="M864 20q0 -20 -20 -20h-654q-20 0 -20 20v1246q0 20 20 20h654q20 0 20 -20v-39q0 -20 -20 -21h-549q-20 0 -21 -20v-471q0 -20 21 -21h450q20 0 21 -20v-41q0 -20 -21 -21h-450q-20 0 -21 -20v-490q0 -20 21 -20h549q20 0 20 -21v-41zM690 1403h-69q-14 0 -23 14
l-72 113q-8 14 -20 0l-72 -113q-8 -14 -22 -14h-70q-20 0 -8 16l135 180q6 8 14 9h66q8 0 14 -9l135 -180q12 -16 -8 -16z" />
    <glyph glyph-name="Edieresis" unicode="&#xcb;" horiz-adv-x="946" 
d="M864 20q0 -20 -20 -20h-654q-20 0 -20 20v1246q0 20 20 20h654q20 0 20 -20v-39q0 -20 -20 -21h-549q-20 0 -21 -20v-471q0 -20 21 -21h450q20 0 21 -20v-41q0 -20 -21 -21h-450q-20 0 -21 -20v-490q0 -20 21 -20h549q20 0 20 -21v-41zM432 1503q0 -31 -22 -53t-50 -23
q-29 0 -49 23q-20 24 -20 54t20 52t49 23q28 -1 50 -23t22 -53zM741 1503q1 -31 -21 -53t-50 -23q-28 0 -49 23q-21 24 -21 54t20 52t50 23q29 -1 50 -23t21 -53z" />
    <glyph glyph-name="Igrave" unicode="&#xcc;" horiz-adv-x="442" 
d="M274 20q0 -20 -20 -20h-64q-20 0 -20 20v1246q0 20 20 20h64q20 0 20 -20v-1246zM260 1407h-35q-14 0 -22 8l-197 154q-8 6 -5 14t13 8h123q16 0 23 -8l108 -158q10 -18 -8 -18z" />
    <glyph glyph-name="Iacute" unicode="&#xcd;" horiz-adv-x="442" 
d="M274 20q0 -20 -20 -20h-64q-20 0 -20 20v1246q0 20 20 20h64q20 0 20 -20v-1246zM221 1407h-35q-18 0 -8 18l109 158q6 8 22 8h123q10 0 13 -8t-5 -14l-196 -154q-8 -8 -23 -8z" />
    <glyph glyph-name="Icircumflex" unicode="&#xce;" horiz-adv-x="442" 
d="M274 20q0 -20 -20 -20h-64q-20 0 -20 20v1246q0 20 20 20h64q20 0 20 -20v-1246zM397 1403h-69q-14 0 -23 14l-72 113q-8 14 -20 0l-72 -113q-8 -14 -22 -14h-70q-20 0 -8 16l135 180q6 8 14 9h66q8 0 14 -9l136 -180q12 -16 -9 -16z" />
    <glyph glyph-name="Idieresis" unicode="&#xcf;" horiz-adv-x="442" 
d="M274 20q0 -20 -20 -20h-64q-20 0 -20 20v1246q0 20 20 20h64q20 0 20 -20v-1246zM139 1503q1 -31 -21 -53t-50 -23q-28 0 -50 23q-20 24 -20 54t20 52t50 23q30 -1 50 -23q21 -22 21 -53zM449 1503q0 -31 -22 -53q-23 -22 -51 -23q-28 0 -48 23q-20 24 -20 54t20 52
t49 23q29 -1 51 -23t21 -53z" />
    <glyph glyph-name="Eth" unicode="&#xd0;" horiz-adv-x="1077" 
d="M825 328v637q0 100 -70 171q-71 71 -175 70h-285q-20 0 -21 -20v-475q0 -16 19 -17h182q20 0 21 -20v-62q0 -20 -21 -20h-184q-16 0 -17 -17v-473q0 -20 21 -20h285q104 0 175 71q70 71 70 175zM930 350q0 -160 -96 -255t-254 -95h-390q-20 0 -20 20v553q0 18 -16 19h-86
q-20 0 -21 20v62q0 20 21 20h86q16 0 16 19v553q0 20 20 20h390q160 0 255 -92t95 -250v-594z" />
    <glyph glyph-name="Ntilde" unicode="&#xd1;" horiz-adv-x="1128" 
d="M961 20q0 -20 -21 -20h-66q-12 0 -18 10l-545 985q-33 68 -43 107h-6q12 -92 12 -254v-828q0 -20 -20 -20h-64q-20 0 -20 20v1246q0 20 20 20h62q12 0 18 -10l549 -995l45 -111h6q-14 121 -14 283v813q0 20 21 20h63q20 0 21 -20v-1246zM670 1419q-46 0 -108 40t-101 40
t-92 -53q-8 -8 -19 0l-22 24q-8 8 2 23q68 94 120 94t115 -39t101 -39t96 60q12 12 20 2l23 -23q10 -10 2 -20q-70 -109 -137 -109z" />
    <glyph glyph-name="Ograve" unicode="&#xd2;" 
d="M803 307v678q0 102 -72 172t-172 70h-65q-104 0 -172 -69t-68 -173v-678q0 -102 69 -174t171 -72h65q100 0 172 73t72 173zM907 307q0 -147 -95 -237t-253 -90h-65q-158 0 -251 90t-93 237v678q0 147 93 237t251 89h65q158 0 253 -90t95 -236v-678zM563 1407h-35
q-14 0 -22 8l-197 154q-8 6 -5 14t13 8h123q16 0 23 -8l108 -158q10 -18 -8 -18z" />
    <glyph glyph-name="Oacute" unicode="&#xd3;" 
d="M803 307v678q0 102 -72 172t-172 70h-65q-104 0 -172 -69t-68 -173v-678q0 -102 69 -174t171 -72h65q100 0 172 73t72 173zM907 307q0 -147 -95 -237t-253 -90h-65q-158 0 -251 90t-93 237v678q0 147 93 237t251 89h65q158 0 253 -90t95 -236v-678zM524 1407h-35
q-18 0 -8 18l109 158q6 8 22 8h123q10 0 14 -8q2 -8 -6 -14l-196 -154q-8 -8 -23 -8z" />
    <glyph glyph-name="Ocircumflex" unicode="&#xd4;" 
d="M803 307v678q0 102 -72 172t-172 70h-65q-104 0 -172 -69t-68 -173v-678q0 -102 69 -174t171 -72h65q100 0 172 73t72 173zM907 307q0 -147 -95 -237t-253 -90h-65q-158 0 -251 90t-93 237v678q0 147 93 237t251 89h65q158 0 253 -90t95 -236v-678zM700 1403h-69
q-14 0 -23 14l-71 113q-8 14 -21 0l-72 -113q-8 -14 -22 -14h-70q-20 0 -8 16l135 180q6 8 15 9h65q8 0 14 -9l136 -180q12 -16 -9 -16z" />
    <glyph glyph-name="Otilde" unicode="&#xd5;" 
d="M803 307v678q0 102 -72 172t-172 70h-65q-104 0 -172 -69t-68 -173v-678q0 -102 69 -174t171 -72h65q100 0 172 73t72 173zM907 307q0 -147 -95 -237t-253 -90h-65q-158 0 -251 90t-93 237v678q0 147 93 237t251 89h65q158 0 253 -90t95 -236v-678zM627 1419
q-47 0 -109 40t-100 40q-39 0 -92 -53q-10 -8 -19 0l-22 24q-6 8 2 23q68 94 120 94t115 -39q64 -39 102 -39t95 60q10 12 20 2l23 -23q10 -10 2 -20q-70 -109 -137 -109z" />
    <glyph glyph-name="Odieresis" unicode="&#xd6;" 
d="M803 307v678q0 102 -72 172t-172 70h-65q-104 0 -172 -69t-68 -173v-678q0 -102 69 -174t171 -72h65q100 0 172 73t72 173zM907 307q0 -147 -95 -237t-253 -90h-65q-158 0 -251 90t-93 237v678q0 147 93 237t251 89h65q158 0 253 -90t95 -236v-678zM442 1503
q0 -31 -22 -53t-50 -23q-28 0 -48 23q-20 24 -20 54t20 52t49 23q29 -1 50 -23t21 -53zM752 1503q0 -31 -22 -53t-50 -23q-28 0 -49 23q-21 24 -21 54t20 52t50 23q28 -1 50 -23t22 -53z" />
    <glyph glyph-name="multiply" unicode="&#xd7;" 
d="M877 158l-25 -23q-14 -14 -29 0l-278 277q-12 16 -29 0l-280 -281q-14 -14 -29 0l-27 27q-14 14 0 28l281 281q16 16 0 29l-277 278q-14 14 0 29l23 24q14 14 29 0l278 -278q14 -14 29 0l278 278q14 14 29 0l27 -26q14 -14 0 -29l-279 -278q-14 -14 0 -29l279 -279
q14 -14 0 -28z" />
    <glyph glyph-name="Oslash" unicode="&#xd8;" 
d="M803 307v678q0 47 -21 98q-6 12 -14 13q-8 0 -12 -13l-408 -938q-12 -27 8 -41q63 -43 138 -43h65q100 0 172 73t72 173zM559 1227h-65q-104 0 -172 -69t-68 -173v-678q0 -41 8 -65q16 -46 31 -15l397 924q14 33 -10 45q-53 31 -121 31zM907 307q0 -147 -95 -237
t-253 -90h-65q-158 0 -251 90t-93 237v678q0 147 93 237t251 89h65q158 0 253 -90t95 -236v-678z" />
    <glyph glyph-name="Ugrave" unicode="&#xd9;" horiz-adv-x="1075" 
d="M918 307q0 -141 -98 -234t-251 -93h-65q-156 0 -250 92t-94 235v959q0 20 20 20h64q20 0 20 -20v-959q0 -109 65 -177t175 -69h65q109 0 177 70t67 176v959q0 20 21 20h63q20 0 21 -20v-959zM575 1407h-34q-14 0 -23 8l-196 154q-8 6 -6 14q3 8 14 8h123q16 0 22 -8
l109 -158q10 -18 -9 -18z" />
    <glyph glyph-name="Uacute" unicode="&#xda;" horiz-adv-x="1075" 
d="M918 307q0 -141 -98 -234t-251 -93h-65q-156 0 -250 92t-94 235v959q0 20 20 20h64q20 0 20 -20v-959q0 -109 65 -177t175 -69h65q109 0 177 70t67 176v959q0 20 21 20h63q20 0 21 -20v-959zM537 1407h-35q-18 0 -8 18l108 158q6 8 23 8h123q10 0 13 -8t-5 -14l-197 -154
q-8 -8 -22 -8z" />
    <glyph glyph-name="Ucircumflex" unicode="&#xdb;" horiz-adv-x="1075" 
d="M918 307q0 -141 -98 -234t-251 -93h-65q-156 0 -250 92t-94 235v959q0 20 20 20h64q20 0 20 -20v-959q0 -109 65 -177t175 -69h65q109 0 177 70t67 176v959q0 20 21 20h63q20 0 21 -20v-959zM713 1403h-70q-14 0 -22 14l-72 113q-8 14 -21 0l-71 -113q-8 -14 -23 -14h-69
q-20 0 -9 16l136 180q6 8 14 9h65q8 0 15 -9l135 -180q12 -16 -8 -16z" />
    <glyph glyph-name="Udieresis" unicode="&#xdc;" horiz-adv-x="1075" 
d="M918 307q0 -141 -98 -234t-251 -93h-65q-156 0 -250 92t-94 235v959q0 20 20 20h64q20 0 20 -20v-959q0 -109 65 -177t175 -69h65q109 0 177 70t67 176v959q0 20 21 20h63q20 0 21 -20v-959zM455 1503q0 -31 -22 -53q-23 -22 -51 -23q-28 0 -48 23q-20 24 -20 54t20 52
t49 23q29 -1 51 -23t21 -53zM764 1503q0 -31 -22 -53t-50 -23q-28 0 -49 23q-20 24 -20 54t20 52t49 23q28 -1 50 -23t22 -53z" />
    <glyph glyph-name="Yacute" unicode="&#xdd;" horiz-adv-x="847" 
d="M475 20q0 -20 -20 -20h-64q-20 0 -20 20v580l-348 655q-16 31 18 31h78q10 0 18 -12l273 -553q8 -16 18 -16t18 16l265 553q8 12 18 12h80q34 0 18 -31l-352 -655v-580zM422 1407h-35q-18 0 -8 18l108 158q6 8 23 8h123q10 0 13 -8t-5 -14l-197 -154q-8 -8 -22 -8z" />
    <glyph glyph-name="Thorn" unicode="&#xde;" horiz-adv-x="954" 
d="M825 698v21q0 100 -70 171q-71 71 -175 71h-285q-20 0 -21 -21v-471q0 -20 21 -20h285q104 0 175 72q70 73 70 177zM930 706q0 -148 -97 -244q-97 -95 -253 -95h-285q-20 0 -21 -21v-326q0 -20 -20 -20h-64q-20 0 -20 20v1246q0 20 20 20h64q20 0 20 -20v-207
q0 -18 21 -19h285q160 0 255 -93t95 -241z" />
    <glyph glyph-name="germandbls" unicode="&#xdf;" horiz-adv-x="1001" 
d="M885 324q0 -172 -123 -271q-66 -51 -158 -71q-23 -6 -22 20v47q0 16 16 21q84 24 133 88t49 149v64q0 84 -49 147t-133 86q-16 4 -16 21v59q0 16 16 21q84 25 133 88t49 151v41q0 104 -70 173q-72 69 -178 69t-174 -69t-67 -173v-965q0 -20 -21 -20h-63q-20 0 -21 20v672
q0 20 -20 21h-57q-20 0 -21 20v41q0 20 21 21h57q20 0 20 20v150q0 158 96 252t255 94q160 0 254 -94t94 -252v-45q0 -74 -51 -143t-125 -99q-17 -8 -19 -22t19 -19q82 -27 129 -99t47 -161v-53z" />
    <glyph glyph-name="agrave" unicode="&#xe0;" horiz-adv-x="897" 
d="M655 383q0 20 -20 20h-297q-59 0 -101 -42t-42 -101v-33q-1 -61 39 -103t104 -42h84q74 0 138 58t95 143v100zM760 20q0 -20 -21 -20h-39q-20 0 -20 20v95q0 18 -14 22t-25 -10q-96 -127 -219 -127h-84q-104 0 -175 65t-71 162v27q0 102 71 167t175 64h297q20 0 20 21v80
q0 102 -68 170q-69 68 -185 68t-199 -111q-10 -14 -25 -8l-57 28q-20 10 -8 29q98 145 299 145q158 0 253 -88t95 -233v-566zM459 999q-14 0 -37 17l-246 201q-14 10 -8 22t22 12h109q12 0 18 -8l160 -223q14 -20 -10 -21h-8z" />
    <glyph glyph-name="aacute" unicode="&#xe1;" horiz-adv-x="897" 
d="M655 383q0 20 -20 20h-297q-59 0 -101 -42t-42 -101v-33q-1 -61 39 -103t104 -42h84q74 0 138 58t95 143v100zM760 20q0 -20 -21 -20h-39q-20 0 -20 20v95q0 18 -14 22t-25 -10q-96 -127 -219 -127h-84q-104 0 -175 65t-71 162v27q0 102 71 167t175 64h297q20 0 20 21v80
q0 102 -68 170q-69 68 -185 68t-199 -111q-10 -14 -25 -8l-57 28q-20 10 -8 29q98 145 299 145q158 0 253 -88t95 -233v-566zM395 999q-25 0 -10 21l160 223q6 8 18 8h109q16 0 22 -12t-8 -22l-246 -201q-23 -16 -37 -17h-8z" />
    <glyph glyph-name="acircumflex" unicode="&#xe2;" horiz-adv-x="897" 
d="M655 383q0 20 -20 20h-297q-59 0 -101 -42t-42 -101v-33q-1 -61 39 -103t104 -42h84q74 0 138 58t95 143v100zM760 20q0 -20 -21 -20h-39q-20 0 -20 20v95q0 18 -14 22t-25 -10q-96 -127 -219 -127h-84q-104 0 -175 65t-71 162v27q0 102 71 167t175 64h297q20 0 20 21v80
q0 102 -68 170q-69 68 -185 68t-199 -111q-10 -14 -25 -8l-57 28q-20 10 -8 29q98 145 299 145q158 0 253 -88t95 -233v-566zM557 999q-10 0 -20 11l-95 123q-16 23 -30 0l-95 -123q-10 -10 -20 -11h-55q-12 1 -16 9t3 16l154 193q8 8 16 8h56q8 0 16 -8l154 -193
q6 -8 3 -16t-16 -9h-55z" />
    <glyph glyph-name="atilde" unicode="&#xe3;" horiz-adv-x="897" 
d="M655 383q0 20 -20 20h-297q-59 0 -101 -42t-42 -101v-33q-1 -61 39 -103t104 -42h84q74 0 138 58t95 143v100zM760 20q0 -20 -21 -20h-39q-20 0 -20 20v95q0 18 -14 22t-25 -10q-96 -127 -219 -127h-84q-104 0 -175 65t-71 162v27q0 102 71 167t175 64h297q20 0 20 21v80
q0 102 -68 170q-69 68 -185 68t-199 -111q-10 -14 -25 -8l-57 28q-20 10 -8 29q98 145 299 145q158 0 253 -88t95 -233v-566zM582 1098q50 0 114 53q12 7 29 0q16 -7 4 -27q-74 -111 -151 -110q-37 0 -125 55l-41 25q-54 32 -102 32t-107 -49q-10 -8 -28 0q-17 8 -7 27
q68 111 147 110q49 0 115 -47l47 -32q55 -37 105 -37z" />
    <glyph glyph-name="adieresis" unicode="&#xe4;" horiz-adv-x="897" 
d="M655 383q0 20 -20 20h-297q-59 0 -101 -42t-42 -101v-33q-1 -61 39 -103t104 -42h84q74 0 138 58t95 143v100zM760 20q0 -20 -21 -20h-39q-20 0 -20 20v95q0 18 -14 22t-25 -10q-96 -127 -219 -127h-84q-104 0 -175 65t-71 162v27q0 102 71 167t175 64h297q20 0 20 21v80
q0 102 -68 170q-69 68 -185 68t-199 -111q-10 -14 -25 -8l-57 28q-20 10 -8 29q98 145 299 145q158 0 253 -88t95 -233v-566zM342 1113q0 -33 -24 -57t-56 -24t-58 25q-24 25 -24 57t24 56t58 24t56 -24q24 -24 24 -57zM606 1032q-34 0 -58 25t-24 57t24 56t58 24t56 -24
q24 -24 24 -57t-24 -57t-56 -24z" />
    <glyph glyph-name="aring" unicode="&#xe5;" horiz-adv-x="897" 
d="M655 383q0 20 -20 20h-297q-59 0 -101 -42t-42 -101v-33q-1 -61 39 -103t104 -42h84q74 0 138 58t95 143v100zM541 1145v65q0 41 -28 65t-73 23q-94 0 -94 -88v-65q0 -88 94 -88q45 -1 73 23t28 65zM760 20q0 -20 -21 -20h-39q-20 0 -20 20v95q0 18 -14 22t-25 -10
q-96 -127 -219 -127h-84q-104 0 -175 65t-71 162v27q0 102 71 167t175 64h297q20 0 20 21v80q0 102 -68 170q-69 68 -185 68t-199 -111q-10 -14 -25 -8l-57 28q-20 10 -8 29q99 146 299 145q158 0 253 -88t95 -233v-566zM604 1145q0 -66 -47 -106t-118 -40t-113 40t-43 106
v65q0 66 43 106q44 40 114 40t117 -40t47 -106v-65z" />
    <glyph glyph-name="ae" unicode="&#xe6;" horiz-adv-x="1468" 
d="M655 397q0 20 -20 21h-297q-64 0 -104 -43t-39 -107v-53q-1 -68 39 -111t104 -43h84q72 0 136 67t97 155v114zM1247 520v53q0 111 -68 185q-69 74 -175 74t-175 -70q-70 -70 -69 -172v-60q0 -31 20 -30h447q20 0 20 20zM1352 438q0 -20 -21 -20h-551q-20 0 -20 -21v-90
q0 -106 66 -176t175 -70h31q127 0 213 115q8 10 21 4l53 -24q25 -12 12 -31q-101 -146 -299 -145h-31q-229 0 -311 174q-8 14 -18 0q-43 -68 -112 -121t-138 -53h-84q-106 0 -176 64t-70 171v47q0 106 70 172t176 66h297q20 0 20 20v70q0 100 -68 167q-69 67 -185 67
t-199 -111q-10 -14 -25 -8l-57 28q-20 10 -8 29q41 55 86 86q90 59 213 59q195 0 288 -127q12 -16 23 -2q102 135 271 135t263 -97t95 -236v-142z" />
    <glyph glyph-name="ccedilla" unicode="&#xe7;" horiz-adv-x="860" 
d="M545 -334q-1 -80 -57 -128t-138 -48h-65q-27 0 -27 27v16q0 27 27 27h65q45 0 75 30t30 76v19q0 49 -99 94q-33 14 -16 47l63 135q12 20 -12 25q-127 22 -200 108t-72 213v283q0 123 97 223q96 100 242 100t228 -59q43 -33 78 -82q12 -18 -10 -29l-52 -24q-14 -8 -24 2
q-94 111 -204 111t-181 -70q-70 -70 -70 -172v-283q0 -106 67 -176q66 -70 182 -70t206 115q8 10 20 4l54 -24q24 -13 12 -31q-82 -125 -242 -143q-25 -2 -33 -21l-55 -115q-8 -16 4 -22q106 -57 107 -139v-19z" />
    <glyph glyph-name="egrave" unicode="&#xe8;" horiz-adv-x="931" 
d="M711 541v32q0 111 -69 185t-174 74t-175 -70t-70 -172v-39q0 -31 21 -31h446q21 1 21 21zM815 459q0 -20 -20 -21h-551q-20 0 -21 -20v-111q0 -106 67 -176t175 -70h31q127 0 213 115q8 10 20 4l53 -24q25 -12 13 -31q-33 -47 -82 -84q-88 -61 -217 -61h-31
q-158 0 -252 90t-94 237v283q0 123 97 223t254 100t251 -97t94 -236v-121zM496 999q-14 0 -37 17l-246 201q-14 10 -8 22t22 12h109q12 0 18 -8l160 -223q14 -20 -10 -21h-8z" />
    <glyph glyph-name="eacute" unicode="&#xe9;" horiz-adv-x="931" 
d="M711 541v32q0 111 -69 185t-174 74t-175 -70t-70 -172v-39q0 -31 21 -31h446q21 1 21 21zM815 459q0 -20 -20 -21h-551q-20 0 -21 -20v-111q0 -106 67 -176t175 -70h31q127 0 213 115q8 10 20 4l53 -24q25 -12 13 -31q-33 -47 -82 -84q-88 -61 -217 -61h-31
q-158 0 -252 90t-94 237v283q0 123 97 223t254 100t251 -97t94 -236v-121zM432 999q-25 0 -10 21l160 223q6 8 18 8h109q16 0 22 -12t-8 -22l-246 -201q-23 -16 -37 -17h-8z" />
    <glyph glyph-name="ecircumflex" unicode="&#xea;" horiz-adv-x="931" 
d="M711 541v32q0 111 -69 185t-174 74t-175 -70t-70 -172v-39q0 -31 21 -31h446q21 1 21 21zM815 459q0 -20 -20 -21h-551q-20 0 -21 -20v-111q0 -106 67 -176t175 -70h31q127 0 213 115q8 10 20 4l53 -24q25 -12 13 -31q-33 -47 -82 -84q-88 -61 -217 -61h-31
q-158 0 -252 90t-94 237v283q0 123 97 223t254 100t251 -97t94 -236v-121zM596 999q-10 0 -21 11l-94 123q-14 23 -30 0l-95 -123q-10 -10 -20 -11h-55q-11 1 -15 9t2 16l154 193q8 8 16 8h56q8 0 16 -8l154 -193q6 -8 3 -16t-16 -9h-55z" />
    <glyph glyph-name="edieresis" unicode="&#xeb;" horiz-adv-x="931" 
d="M711 541v32q0 111 -69 185t-174 74t-175 -70t-70 -172v-39q0 -31 21 -31h446q21 1 21 21zM815 459q0 -20 -20 -21h-551q-20 0 -21 -20v-111q0 -106 67 -176t175 -70h31q127 0 213 115q8 10 20 4l53 -24q25 -12 13 -31q-33 -47 -82 -84q-88 -61 -217 -61h-31
q-158 0 -252 90t-94 237v283q0 123 97 223t254 100t251 -97t94 -236v-121zM377 1113q0 -33 -24 -57q-23 -24 -57 -24t-58 25t-23 57q0 32 24 56q25 24 59 24t56 -24t23 -57zM721 1113q0 -33 -24 -57q-23 -24 -57 -24t-58 25t-23 57q0 32 24 56q25 24 59 24t56 -24t23 -57z
" />
    <glyph glyph-name="igrave" unicode="&#xec;" horiz-adv-x="401" 
d="M254 20q0 -20 -21 -20h-63q-20 0 -20 20v852q0 20 20 21h63q20 0 21 -21v-852zM227 999q-14 0 -37 17l-245 201q-14 10 -8 22t22 12h109q12 0 18 -8l160 -223q14 -20 -10 -21h-9z" />
    <glyph glyph-name="iacute" unicode="&#xed;" horiz-adv-x="401" 
d="M254 20q0 -20 -21 -20h-63q-20 0 -20 20v852q0 20 20 21h63q20 0 21 -21v-852zM164 999q-25 0 -10 21l159 223q6 8 19 8h108q16 0 22 -12t-7 -22l-246 -201q-23 -16 -37 -17h-8z" />
    <glyph glyph-name="icircumflex" unicode="&#xee;" horiz-adv-x="401" 
d="M254 20q0 -20 -21 -20h-63q-20 0 -20 20v852q0 20 20 21h63q20 0 21 -21v-852zM332 999q-10 0 -21 11l-94 123q-16 23 -31 0l-94 -123q-10 -10 -20 -11h-56q-12 1 -15 9t3 16l154 193q8 8 16 8h55q8 0 17 -8l153 -193q6 -8 3 -16t-15 -9h-55z" />
    <glyph glyph-name="idieresis" unicode="&#xef;" horiz-adv-x="401" 
d="M254 20q0 -20 -21 -20h-63q-20 0 -20 20v852q0 20 20 21h63q20 0 21 -21v-852zM31 1194q35 0 57 -24t23 -57q0 -33 -24 -57q-23 -24 -57 -24t-58 25t-24 57t24 56t59 24zM375 1194q35 0 57 -24t23 -57q0 -33 -24 -57q-23 -24 -57 -24t-58 25t-24 57t24 56t59 24z" />
    <glyph glyph-name="eth" unicode="&#xf0;" horiz-adv-x="929" 
d="M709 307v283q0 106 -71 174t-177 68t-172 -66t-66 -176v-283q0 -109 66 -177t171 -69q105 0 177 71t72 175zM813 307q0 -141 -98 -234t-254 -93t-249 93t-93 234v283q0 145 93 234t249 89q29 0 41 -2l-135 136l-185 -86q-10 -3 -19 -1t-9 11v28q0 29 12 33l147 68
l-159 160q-10 10 -2 18t22 8h72q6 0 20 -14l133 -131l201 94q8 4 18 0t11 -12v-35q0 -20 -17 -27l-157 -74l297 -299q61 -80 61 -198v-283z" />
    <glyph glyph-name="ntilde" unicode="&#xf1;" horiz-adv-x="983" 
d="M846 20q0 -20 -21 -20h-63q-20 0 -21 20v549q0 104 -68 173q-69 69 -174 69t-175 -70t-70 -172v-549q0 -20 -21 -20h-63q-20 0 -20 20v852q0 20 20 21h39q20 0 20 -21v-84q0 -26 25 -19q10 3 16 11q92 113 238 113t242 -90t96 -234v-549zM654 1098q50 0 114 53q11 7 29 0
q16 -7 4 -27q-74 -111 -152 -110q-37 0 -125 55l-41 25q-53 32 -101 32t-108 -49q-10 -8 -27 0t-7 27q68 111 147 110q49 0 115 -47l47 -32q55 -37 105 -37z" />
    <glyph glyph-name="ograve" unicode="&#xf2;" horiz-adv-x="929" 
d="M709 307v283q0 106 -71 174t-177 68t-172 -66t-66 -176v-283q0 -109 66 -177t171 -69q105 0 177 71t72 175zM813 307q0 -141 -98 -234t-254 -93t-249 93t-93 234v283q0 145 93 234t250 89t254 -89t97 -234v-283zM496 999q-14 0 -37 17l-246 201q-14 10 -8 22t22 12h109
q12 0 18 -8l160 -223q14 -20 -10 -21h-8z" />
    <glyph glyph-name="oacute" unicode="&#xf3;" horiz-adv-x="929" 
d="M709 307v283q0 106 -71 174t-177 68t-172 -66t-66 -176v-283q0 -109 66 -177t171 -69q105 0 177 71t72 175zM813 307q0 -141 -98 -234t-254 -93t-249 93t-93 234v283q0 145 93 234t250 89t254 -89t97 -234v-283zM432 999q-25 0 -10 21l160 223q6 8 18 8h109q16 0 22 -12
t-8 -22l-246 -201q-23 -16 -37 -17h-8z" />
    <glyph glyph-name="ocircumflex" unicode="&#xf4;" horiz-adv-x="929" 
d="M709 307v283q0 106 -71 174t-177 68t-172 -66t-66 -176v-283q0 -109 66 -177t171 -69q105 0 177 71t72 175zM813 307q0 -141 -98 -234t-254 -93t-249 93t-93 234v283q0 145 93 234t250 89t254 -89t97 -234v-283zM592 999q-10 0 -21 11l-94 123q-14 23 -31 0l-94 -123
q-10 -10 -20 -11h-56q-12 1 -15 9t3 16l154 193q8 8 16 8h55q8 0 17 -8l153 -193q5 -8 3 -16t-15 -9h-55z" />
    <glyph glyph-name="otilde" unicode="&#xf5;" horiz-adv-x="929" 
d="M709 307v283q0 106 -71 174t-177 68t-172 -66t-66 -176v-283q0 -109 66 -177t171 -69q105 0 177 71t72 175zM813 307q0 -141 -98 -234t-254 -93t-249 93t-93 234v283q0 145 93 234t250 89t254 -89t97 -234v-283zM603 1098q50 0 114 53q11 7 28 0t5 -27
q-74 -111 -152 -110q-37 0 -125 55l-41 25q-53 32 -101 32t-108 -49q-10 -8 -27 0t-8 27q68 111 148 110q49 0 115 -47l47 -32q55 -37 105 -37z" />
    <glyph glyph-name="odieresis" unicode="&#xf6;" horiz-adv-x="929" 
d="M709 307v283q0 106 -71 174t-177 68t-172 -66t-66 -176v-283q0 -109 66 -177t171 -69q105 0 177 71t72 175zM813 307q0 -141 -98 -234t-254 -93t-249 93t-93 234v283q0 145 93 234t250 89t254 -89t97 -234v-283zM290 1194q34 0 58 -24t23 -57q0 -33 -24 -57
q-25 -24 -57 -24t-57 25t-25 57t24 56t58 24zM715 1113q0 -33 -24 -57q-25 -24 -57 -24t-56 25t-25 57q0 32 24 56q23 24 57 24t58 -24t23 -57z" />
    <glyph glyph-name="divide" unicode="&#xf7;" 
d="M621 139q0 -39 -27 -65t-66 -27q-40 0 -66 27q-26 28 -26 66t27 65t65 27t66 -28q27 -26 27 -65zM961 461q0 -20 -21 -21h-823q-20 0 -21 21v37q0 20 21 20h823q20 0 21 -20v-37zM621 819q0 -39 -27 -65t-66 -27q-40 0 -66 27q-26 28 -26 66t27 65t65 27t66 -28
q27 -26 27 -65z" />
    <glyph glyph-name="oslash" unicode="&#xf8;" horiz-adv-x="929" 
d="M461 831q-106 1 -172 -65t-66 -176v-283q0 -78 35 -135q16 -29 29 2l262 606q12 33 -14 41q-37 10 -74 10zM709 307v283q0 88 -47 147q-20 27 -33 -2l-269 -622q-10 -29 11 -37q37 -14 90 -15q104 0 176 71t72 175zM813 307q0 -141 -98 -234t-254 -93t-249 93t-93 234
v283q0 145 93 234t250 89t254 -89t97 -234v-283z" />
    <glyph glyph-name="ugrave" unicode="&#xf9;" horiz-adv-x="987" 
d="M840 20q0 -20 -21 -20h-43q-20 0 -20 20v84q0 18 -14 22t-25 -11q-92 -115 -240 -115t-243 91t-95 237v544q0 20 21 21h63q20 0 21 -21v-544q0 -106 70 -176t173 -70q102 0 176 71q73 71 72 175v544q0 20 21 21h63q20 0 21 -21v-852zM516 999q-14 0 -37 17l-246 201
q-14 10 -8 22t23 12h108q12 0 19 -8l160 -223q14 -20 -11 -21h-8z" />
    <glyph glyph-name="uacute" unicode="&#xfa;" horiz-adv-x="987" 
d="M840 20q0 -20 -21 -20h-43q-20 0 -20 20v84q0 18 -14 22t-25 -11q-92 -115 -240 -115t-243 91t-95 237v544q0 20 21 21h63q20 0 21 -21v-544q0 -106 70 -176t173 -70q102 0 176 71q73 71 72 175v544q0 20 21 21h63q20 0 21 -21v-852zM453 999q-25 0 -11 21l160 223
q6 8 19 8h108q16 0 22 -12t-8 -22l-245 -201q-23 -16 -37 -17h-8z" />
    <glyph glyph-name="ucircumflex" unicode="&#xfb;" horiz-adv-x="987" 
d="M840 20q0 -20 -21 -20h-43q-20 0 -20 20v84q0 18 -14 22t-25 -11q-92 -115 -240 -115t-243 91t-95 237v544q0 20 21 21h63q20 0 21 -21v-544q0 -106 70 -176t173 -70q102 0 176 71q73 71 72 175v544q0 20 21 21h63q20 0 21 -21v-852zM623 999q-10 0 -21 11l-94 123
q-16 23 -31 0l-94 -123q-10 -10 -21 -11h-55q-12 1 -15 9t3 16l154 193q8 8 16 8h55q8 0 17 -8l153 -193q6 -8 3 -16t-15 -9h-55z" />
    <glyph glyph-name="udieresis" unicode="&#xfc;" horiz-adv-x="987" 
d="M840 20q0 -20 -21 -20h-43q-20 0 -20 20v84q0 18 -14 22t-25 -11q-92 -115 -240 -115t-243 91t-95 237v544q0 20 21 21h63q20 0 21 -21v-544q0 -106 70 -176t173 -70q102 0 176 71q73 71 72 175v544q0 20 21 21h63q20 0 21 -21v-852zM319 1032q-33 0 -57 25t-24 57t24 56
t56 24q34 0 58 -24t23 -57q1 -33 -23 -57t-57 -24zM663 1194q34 0 57 -24t23 -57q1 -33 -23 -57t-56 -24t-58 25q-24 25 -24 57t24 56t57 24z" />
    <glyph glyph-name="yacute" unicode="&#xfd;" horiz-adv-x="987" 
d="M840 -131q0 -158 -92 -254t-244 -96q-230 0 -314 147q-10 16 13 29l53 26q14 6 23 -6q83 -115 199 -115t187 72q71 70 70 174v234q0 18 -15 20t-26 -10q-90 -90 -227 -90t-233 91q-95 91 -95 233v548q0 20 21 21h63q20 0 21 -21v-548q0 -100 72 -171t173 -71
q102 0 175 70q72 70 71 172v548q0 20 21 21h63q20 0 21 -21v-1003zM453 999q-25 0 -11 21l160 223q6 8 19 8h108q16 0 22 -12t-8 -22l-245 -201q-23 -16 -37 -17h-8z" />
    <glyph glyph-name="thorn" unicode="&#xfe;" horiz-adv-x="962" 
d="M741 324v241q0 106 -69 176q-70 70 -173 70t-174 -73t-71 -173v-241q0 -102 70 -172t172 -70t174 71q71 71 71 171zM846 324q0 -140 -95 -232t-233 -92t-227 90q-9 12 -23 10t-14 -20v-520q0 -20 -21 -21h-63q-20 0 -20 21v1706q0 20 20 20h53q20 0 21 -20v-473
q0 -11 9 -15t17 6q86 109 235 109t245 -92t96 -236v-241z" />
    <glyph glyph-name="ydieresis" unicode="&#xff;" horiz-adv-x="987" 
d="M840 -131q0 -158 -92 -254t-250 -96t-242 71q-33 25 -66 76q-10 16 13 29l53 26q14 6 23 -6q83 -115 199 -115t187 72q71 70 70 174v234q0 18 -15 20t-26 -10q-90 -90 -227 -90t-233 91q-95 91 -95 233v548q0 20 21 21h63q20 0 21 -21v-548q0 -100 72 -171t173 -71
q102 0 175 70q72 70 71 172v548q0 20 21 21h63q20 0 21 -21v-1003zM319 1032q-33 0 -57 25t-24 57t24 56t56 24q34 0 58 -24t23 -57q1 -33 -23 -57t-57 -24zM663 1194q34 0 57 -24t23 -57q1 -33 -23 -57t-56 -24t-58 25q-24 25 -24 57t24 56t57 24z" />
    <glyph glyph-name="dotlessi" unicode="&#x131;" horiz-adv-x="401" 
d="M254 20q0 -20 -21 -20h-63q-20 0 -20 20v852q0 20 20 21h63q20 0 21 -21v-852z" />
    <glyph glyph-name="Lslash" unicode="&#x141;" horiz-adv-x="880" 
d="M864 20q0 -20 -20 -20h-654q-20 0 -20 20v480q0 35 -23 12l-75 -76q-14 -14 -29 0l-37 37q-14 14 0 29l146 143q18 18 18 51v570q0 20 20 20h64q20 0 20 -20v-463q0 -11 8 -15t17 5l76 75q14 14 28 0l35 -34q16 -14 0 -31l-141 -141q-23 -23 -23 -54v-506q0 -20 21 -20
h549q20 0 20 -21v-41z" />
    <glyph glyph-name="lslash" unicode="&#x142;" horiz-adv-x="401" 
d="M254 20q0 -20 -21 -20h-63q-20 0 -20 20v480q0 35 -23 12l-76 -76q-14 -14 -28 0l-37 37q-14 14 0 29l145 143q18 18 19 51v570q0 20 20 20h63q20 0 21 -20v-463q0 -11 8 -15t17 5l75 75q14 14 29 0l35 -34q16 -15 0 -31l-142 -141q-23 -23 -22 -54v-588z" />
    <glyph glyph-name="OE" unicode="&#x152;" horiz-adv-x="1583" 
d="M807 307v678q0 102 -73 172t-173 70h-65q-104 0 -173 -69t-69 -173v-678q0 -100 70 -173t172 -73h65q100 0 173 73t73 173zM1501 20q0 -20 -20 -20h-793q-55 -20 -127 -20h-65q-158 0 -252 90t-94 237v678q0 147 94 237t252 89h65q57 0 139 -25h781q20 0 20 -20v-39
q0 -20 -20 -21h-609q-33 0 -18 -28q57 -113 57 -193v-270q0 -20 21 -21h452q20 0 21 -20v-41q0 -20 -21 -21h-452q-20 0 -21 -20v-285q0 -84 -57 -196q-14 -29 18 -29h609q20 0 20 -21v-41z" />
    <glyph glyph-name="oe" unicode="&#x153;" horiz-adv-x="1521" 
d="M709 307v283q0 106 -71 174t-177 68t-172 -66t-66 -176v-283q0 -109 66 -177t171 -69q105 0 177 71t72 175zM1300 541v32q0 111 -68 185q-69 74 -174 74t-175 -70t-70 -172v-39q0 -31 21 -31h446q20 1 20 21zM1405 459q0 -20 -21 -21h-550q-20 0 -21 -20v-111
q0 -106 67 -176t175 -70h30q127 0 213 115q8 10 21 4l53 -24q25 -12 12 -31q-38 -53 -108 -99t-191 -46h-30q-193 0 -287 131q-6 12 -18 0q-100 -131 -289 -131q-156 0 -249 93t-93 234v283q0 145 93 234t249 89q201 0 295 -133q10 -16 22 0q102 133 270 133t263 -97
q94 -97 94 -236v-121z" />
    <glyph glyph-name="Scaron" unicode="&#x160;" horiz-adv-x="921" 
d="M827 318q0 -158 -97 -248t-257 -90h-88q-119 0 -187 43t-110 98q-14 18 8 31l54 28q14 6 24 -6q88 -113 211 -113h88q109 0 177 70t69 182q0 112 -89 184q-62 48 -129 80q-69 31 -115 53q-218 101 -266 219q-24 58 -24 136q0 145 95 235t249 91h33q198 0 299 -144
q12 -18 -10 -28l-51 -27q-16 -8 -25 2q-84 113 -213 113h-33q-106 0 -172 -66t-66 -174t82 -170q78 -61 168 -97q2 -1 7 -2q4 -1 6 -3q184 -86 244 -137q118 -102 118 -260zM494 1403h-66q-8 0 -14 8l-135 180q-12 16 8 17h69q14 0 23 -15l72 -112q8 -14 20 0l72 112
q8 14 22 15h70q20 -1 8 -17l-135 -180q-6 -8 -14 -8z" />
    <glyph glyph-name="scaron" unicode="&#x161;" horiz-adv-x="899" 
d="M414 -20q-186 0 -297 141q-16 20 10 31l51 22q14 8 27 -8q78 -115 209 -115h65q102 0 159 54q56 54 56 126t-51 105t-93 42q-319 68 -381 128q-62 59 -60 147q0 125 86 193t219 67h65q115 0 189 -46t102 -87q14 -18 -10 -30l-47 -23q-12 -6 -23 8q-86 106 -211 107h-65
q-102 0 -152 -48t-51 -124q0 -42 15 -62l24 -30t28 -20t30 -16q10 -5 63 -21q54 -15 71 -15q234 -51 285 -96q70 -64 70 -172q0 -107 -84 -183t-234 -75h-65zM428 999q-8 0 -16 9l-154 192q-6 8 -3 16t15 9h56q10 0 20 -11l94 -122q14 -23 31 0l94 122q10 10 21 11h55
q12 -1 15 -9t-3 -16l-153 -192q-8 -8 -17 -9h-55z" />
    <glyph glyph-name="Ydieresis" unicode="&#x178;" horiz-adv-x="847" 
d="M475 20q0 -20 -20 -20h-64q-20 0 -20 20v580l-348 655q-16 31 18 31h78q10 0 18 -12l273 -553q8 -16 18 -16t18 16l265 553q8 12 18 12h80q34 0 18 -31l-352 -655v-580zM340 1503q0 -31 -22 -53t-50 -23q-28 0 -49 23q-20 24 -20 54t20 52t49 23q28 -1 50 -23t22 -53z
M649 1503q1 -31 -21 -53t-50 -23q-28 0 -50 23q-20 24 -20 54t20 52t50 23q30 -1 50 -23q21 -22 21 -53z" />
    <glyph glyph-name="Zcaron" unicode="&#x17d;" horiz-adv-x="843" 
d="M782 20q0 -20 -20 -20h-668q-33 0 -18 29l512 1149q14 29 -19 28h-465q-20 0 -20 21v39q0 20 20 20h617q33 0 18 -29l-514 -1146q-14 -29 19 -29h518q20 0 20 -21v-41zM453 1403h-66q-8 0 -14 8l-135 180q-12 16 8 17h69q14 0 23 -15l72 -112q8 -14 20 0l72 112
q8 14 22 15h70q20 -1 8 -17l-135 -180q-6 -8 -14 -8z" />
    <glyph glyph-name="zcaron" unicode="&#x17e;" horiz-adv-x="800" 
d="M739 20q0 -20 -20 -20h-629q-35 0 -18 31l440 747q16 31 -18 31h-426q-20 0 -21 20v41q0 20 21 21h591q35 0 19 -31l-442 -747q-16 -31 18 -31h465q20 0 20 -21v-41zM350 999q-8 0 -16 9l-154 192q-6 8 -3 16t16 9h55q10 0 20 -11l94 -122q14 -23 31 0l94 122
q10 10 21 11h55q12 0 16 -8q2 -9 -4 -17l-153 -192q-8 -8 -16 -9h-56z" />
    <glyph glyph-name="florin" unicode="&#x192;" 
d="M815 1227h-29q-104 0 -173 -69t-68 -173v-270q0 -20 20 -21h158q20 0 20 -20v-41q0 -20 -20 -21h-158q-20 0 -20 -20v-725q1 -156 -97 -251t-249 -95h-39q-31 0 -23 24l17 47q4 12 16 13h29q104 1 173 69t68 172v746q0 20 -20 20h-55q-20 0 -21 21v41q0 20 21 20h55
q20 0 20 21v250q0 157 98 251t248 95h39q31 0 23 -25l-17 -47q-4 -12 -16 -12z" />
    <glyph glyph-name="circumflex" unicode="&#x2c6;" horiz-adv-x="1034" 
d="M649 999q-10 0 -20 11l-94 123q-14 23 -31 0l-94 -123q-10 -10 -21 -11h-55q-12 1 -16 9t4 16l153 193q8 8 17 8h55q8 0 16 -8l154 -193q6 -8 3 -16t-15 -9h-56z" />
    <glyph glyph-name="caron" unicode="&#x2c7;" horiz-adv-x="1034" 
d="M492 999q-8 0 -17 9l-153 192q-6 8 -4 17q3 8 16 8h55q10 0 21 -11l94 -122q16 -23 31 0l94 122q10 10 20 11h56q12 -1 15 -9t-3 -16l-154 -192q-8 -8 -16 -9h-55z" />
    <glyph glyph-name="breve" unicode="&#x2d8;" horiz-adv-x="1034" 
d="M737 1139q0 -59 -49 -99t-125 -41h-96q-78 0 -122 38t-44 102v65q0 20 18 21h5q16 0 16 -21v-28q0 -45 36 -78t91 -33h96q55 0 93 33t38 78v28q0 20 19 21h6q18 0 18 -21v-65z" />
    <glyph glyph-name="dotaccent" unicode="&#x2d9;" horiz-adv-x="1034" 
d="M604 1077q0 -33 -26 -55t-63 -21q-39 1 -61 21t-22 55v66q0 74 84 74q39 1 64 -19t24 -55v-66z" />
    <glyph glyph-name="ring" unicode="&#x2da;" horiz-adv-x="1034" 
d="M618 1145v65q0 41 -27 65q-28 24 -73 23q-94 0 -94 -88v-65q0 -88 94 -88q45 0 73 23q27 24 27 65zM682 1145q0 -66 -47 -106t-118 -40t-114 40t-43 106v65q0 66 43 106t114 40t118 -40t47 -106v-65z" />
    <glyph glyph-name="ogonek" unicode="&#x2db;" horiz-adv-x="1034" 
d="M399 45q0 37 37 37h15q37 0 36 -37v-301q0 -51 36 -101t89 -69q39 -12 25 -43l-6 -14q-12 -29 -43 -17q-84 31 -136 102t-53 156v287z" />
    <glyph glyph-name="tilde" unicode="&#x2dc;" horiz-adv-x="1034" 
d="M652 1098q50 0 114 53q11 7 29 0q16 -7 4 -27q-74 -111 -152 -110q-37 0 -125 55l-41 25q-53 32 -101 32t-108 -49q-10 -8 -27 0t-7 27q68 111 147 110q49 0 115 -47l47 -32q55 -37 105 -37z" />
    <glyph glyph-name="hungarumlaut" unicode="&#x2dd;" horiz-adv-x="1034" 
d="M348 991h-4q-18 0 -12 17l82 215q4 14 18 14h53q14 0 19 -10q4 -11 -4 -21l-138 -205q-6 -10 -14 -10zM541 991h-4q-18 0 -13 17l82 215q4 14 19 14h53q14 -1 18 -11t-4 -20l-137 -205q-6 -10 -14 -10z" />
    <glyph glyph-name="pi" unicode="&#x3c0;" horiz-adv-x="1124" 
d="M643 354q0 145 43 467h-231q-45 -502 -95 -719q-35 -141 -133 -141q-45 0 -77 33t-33 78q0 45 72 129q73 84 81 151l60 469h-97q-45 0 -79 -20q-34 -19 -52 -39q-16 -20 -47 -70h-35q45 130 87 191q79 116 198 114h764v-176h-258q-25 -240 -25 -481q0 -70 34 -127t98 -57
t98 56q14 24 19 57q5 32 7 40h43q-4 -127 -66 -235t-178 -107q-116 0 -175 174q-23 68 -23 213z" />
    <glyph glyph-name="endash" unicode="&#x2013;" horiz-adv-x="1216" 
d="M1096 461q0 -20 -21 -21h-934q-20 0 -20 21v37q0 20 20 20h934q20 0 21 -20v-37z" />
    <glyph glyph-name="emdash" unicode="&#x2014;" horiz-adv-x="1728" 
d="M1688 461q0 -20 -21 -21h-1526q-20 0 -20 21v37q0 20 20 20h1526q20 0 21 -20v-37z" />
    <glyph glyph-name="quoteleft" unicode="&#x2018;" horiz-adv-x="329" 
d="M172 1112q0 -20 21 -20h26q20 0 21 -21v-90q0 -20 -21 -20h-110q-20 0 -21 20v100q0 214 131 301q18 12 29 -6l6 -12q6 -10 -6 -23q-76 -70 -76 -229z" />
    <glyph glyph-name="quoteright" unicode="&#x2019;" horiz-adv-x="329" 
d="M238 1188q0 -130 -40 -194t-87 -99q-15 -11 -30 9q-15 19 -1 34q74 74 74 215q0 20 -21 21h-27q-20 0 -20 20v90q0 20 20 21h111q20 0 21 -21v-96z" />
    <glyph glyph-name="quotesinglbase" unicode="&#x201a;" horiz-adv-x="329" 
d="M250 47q0 -203 -127 -293q-16 -11 -35 17q-10 12 4 26q74 74 74 215q0 20 -21 21h-26q-20 0 -21 20v90q0 20 21 21h110q20 0 21 -21v-96z" />
    <glyph glyph-name="quotedblleft" unicode="&#x201c;" horiz-adv-x="577" 
d="M172 1112q0 -20 21 -20h26q20 0 21 -21v-90q0 -20 -21 -20h-110q-20 0 -21 20v100q0 133 47 211q31 55 84 90q18 12 29 -6l6 -12q6 -10 -6 -23q-76 -70 -76 -229zM420 1112q0 -20 20 -20h27q20 0 20 -21v-90q0 -20 -20 -20h-111q-20 0 -20 20v100q0 133 47 211
q31 55 84 90q18 12 29 -6l6 -12q6 -10 -6 -23q-76 -70 -76 -229z" />
    <glyph glyph-name="quotedblright" unicode="&#x201d;" horiz-adv-x="577" 
d="M244 1184q0 -212 -131 -301q-18 -12 -29 6l-6 12q-6 10 6 23q76 70 76 229q0 20 -21 21h-26q-20 0 -21 20v90q0 20 21 21h110q20 0 21 -21v-100zM492 1184q0 -217 -132 -301q-18 -12 -28 6l-6 12q-6 10 6 23q76 70 76 229q0 20 -21 21h-27q-20 0 -20 20v90q0 20 20 21
h111q20 0 21 -21v-100z" />
    <glyph glyph-name="quotedblbase" unicode="&#x201e;" horiz-adv-x="577" 
d="M240 47q0 -203 -127 -293q-16 -11 -35 17q-10 12 4 26q74 74 74 215q0 20 -21 21h-26q-20 0 -21 20v90q0 20 21 21h110q20 0 21 -21v-96zM489 47q0 -203 -127 -293q-15 -11 -34 17q-10 12 4 26q74 74 74 215q0 20 -21 21h-27q-20 0 -20 20v90q0 20 20 21h111q20 0 20 -21
v-96z" />
    <glyph glyph-name="dagger" unicode="&#x2020;" horiz-adv-x="849" 
d="M827 856q0 -25 -22 -20l-340 28q-27 4 -23 -22l31 -183l-43 -1099q0 -14 -12 -15q-12 0 -12 15l-44 1099l31 183q2 12 -3 18t-19 4l-342 -28q-23 -4 -23 20v62q0 25 23 20l344 -27q12 -2 18 4t4 19l-28 334q-4 23 20 22h62q25 0 20 -22l-27 -334q-2 -12 4 -18t19 -5
l340 27q23 4 22 -20v-62z" />
    <glyph glyph-name="daggerdbl" unicode="&#x2021;" horiz-adv-x="849" 
d="M827 406q0 -25 -22 -21l-324 27q-23 4 -22 -21l-29 -831q0 -14 -12 -15q-12 0 -12 15l-29 831q0 25 -23 21l-325 -27q-23 -4 -23 21v61q0 25 23 20l325 -26q12 -2 19 4q6 6 4 18l-15 179l31 180q2 12 -3 18t-19 4l-342 -28q-23 -4 -23 20v62q0 25 23 20l344 -27
q12 -2 18 4t4 19l-28 334q-4 23 20 22h62q25 0 20 -22l-27 -334q-2 -12 4 -18t19 -5l340 27q23 4 22 -20v-62q0 -25 -22 -20l-340 28q-27 4 -23 -22l31 -178l-14 -181q-2 -12 4 -18t18 -4l324 26q23 4 22 -20v-61z" />
    <glyph glyph-name="bullet" unicode="&#x2022;" horiz-adv-x="1024" 
d="M799 625q0 -117 -79 -190t-204 -73h-8q-129 0 -206 73t-77 190v45q0 118 76 188t205 70h8q127 0 206 -71t79 -187v-45z" />
    <glyph glyph-name="ellipsis" unicode="&#x2026;" horiz-adv-x="2048" 
d="M557 51q0 -39 -27 -65q-28 -26 -66 -27q-38 0 -65 27q-27 28 -27 66t27 65t66 27t65 -28q26 -26 27 -65zM1114 51q0 -39 -27 -65t-65 -27q-38 0 -66 27q-26 28 -26 66t26 65q27 27 66 27q40 0 66 -28q26 -26 26 -65zM1671 51q-1 -39 -27 -65t-65 -27q-39 0 -66 27
q-27 28 -27 66t27 65t66 27t66 -27q26 -27 26 -66z" />
    <glyph glyph-name="perthousand" unicode="&#x2030;" horiz-adv-x="1488" 
d="M813 174v205q0 90 -88 90q-41 0 -66 -25t-24 -65v-205q-1 -42 23 -66t67 -24q88 0 88 90zM352 911v205q0 90 -88 90q-42 0 -66 -24t-24 -66v-205q0 -41 24 -65t66 -25q88 0 88 90zM1288 174v205q0 90 -88 90q-42 0 -66 -25t-24 -65v-205q0 -42 24 -66t66 -24q88 0 88 90z
M909 174q0 -78 -50 -126t-134 -48t-134 48t-50 126v205q0 78 50 126t134 48t134 -48t50 -126v-205zM252 0h-49q-31 0 -19 29l535 1249q6 12 18 12h49q31 1 19 -28l-535 -1250q-6 -12 -18 -12zM449 911q-1 -78 -51 -126t-134 -48t-134 48t-50 126v205q0 78 50 126t134 48
t134 -48t51 -126v-205zM1384 174q0 -78 -50 -126t-134 -48t-134 48t-50 126v205q0 78 50 126t134 48t134 -48t50 -126v-205z" />
    <glyph glyph-name="guilsinglleft" unicode="&#x2039;" horiz-adv-x="675" 
d="M539 246q1 -16 -9 -22t-24 5l-375 269q-8 8 -8 16v107q0 8 8 16l375 266q14 10 23 5t10 -21v-62q0 -8 -9 -16l-313 -225q-23 -16 0 -33l313 -227q8 -8 9 -17v-61z" />
    <glyph glyph-name="guilsinglright" unicode="&#x203a;" horiz-adv-x="675" 
d="M567 514q0 -8 -8 -16l-381 -269q-14 -10 -23 -5t-10 22v61q0 8 9 17l311 227q23 16 0 33l-311 225q-8 8 -9 16v62q-1 16 9 21t24 -5l381 -266q8 -8 8 -16v-107z" />
    <glyph glyph-name="fraction" unicode="&#x2044;" horiz-adv-x="288" 
d="M-92 0h-49q-31 0 -19 29l533 1245q6 12 18 12h49q31 0 19 -29l-533 -1245q-6 -12 -18 -12z" />
    <glyph glyph-name="Euro" unicode="&#x20ac;" 
d="M584 -20q-158 0 -251 90t-93 237v105q0 20 -21 20h-147q-20 0 -21 21v53q0 20 21 20h147q20 0 21 21v198q0 20 -21 21h-147q-20 0 -21 20v56q0 20 21 20h147q20 0 21 21v102q0 147 93 237t251 89h65q198 0 299 -144q12 -18 -10 -28l-53 -27q-16 -8 -23 2
q-92 113 -213 113h-65q-104 0 -172 -69t-68 -173v-102q0 -20 21 -21h350q20 0 20 -20v-56q0 -20 -20 -20h-350q-20 0 -21 -21v-198q0 -20 21 -21h350q20 0 20 -20v-53q0 -20 -20 -21h-350q-20 0 -21 -20v-105q0 -102 69 -174t171 -72h65q131 0 211 115q8 10 23 4l53 -24
q24 -13 12 -31q-100 -145 -299 -145h-65z" />
    <glyph glyph-name="trademark" unicode="&#x2122;" horiz-adv-x="804" 
d="M287 1079q0 -14 -17 -14h-55q-25 0 -25 -27v-280q0 -14 -16 -15h-24q-14 0 -15 15v280q0 27 -26 27h-56q-14 0 -14 14v23q0 16 14 16h217q16 0 17 -16v-23zM721 758q0 -14 -16 -15h-25q-14 0 -14 15v147q0 25 -18 28t-32 -15l-51 -84q-4 -6 -14 -7h-8q-8 0 -13 7l-55 84
q-13 18 -29 15t-16 -28v-147q0 -14 -16 -15h-25q-14 0 -14 15v344q0 16 14 16h25q10 0 14 -8l96 -166q8 -16 22 -16t23 16l97 166q4 8 14 8h25q16 0 16 -16v-344z" />
    <glyph glyph-name="Omega" unicode="&#x2126;" horiz-adv-x="1572" 
d="M1507 0h-604l33 311q104 45 149 88t93 151t49 273q0 231 -108 375t-331 145q-222 0 -330 -144t-108 -376q0 -166 48 -273q48 -106 94 -150t149 -89l33 -311h-604v332h30q16 -72 42 -99t94 -26h323l-4 57q-121 35 -201 84t-141 139q-102 154 -102 328q0 274 198 434
q199 160 479 160t480 -160q199 -160 198 -434q0 -174 -102 -328q-61 -90 -141 -139t-201 -84l-4 -57h323q68 1 94 27t42 98h30v-332z" />
    <glyph glyph-name="partialdiff" unicode="&#x2202;" horiz-adv-x="1011" 
d="M332 633q-102 -137 -102 -330t94 -256q41 -29 83 -29q41 0 97 24t104 90q80 109 117 322q13 68 25 158q-17 17 -43 48q-71 83 -183 83t-192 -110zM946 805q0 -123 -30 -278t-76 -258t-91 -161q-44 -58 -129 -104t-180 -47q-166 0 -276 118q-110 119 -111 287
q0 168 114 314t279 147q126 0 216 -61q33 -23 104 -78q40 220 3 407q-19 95 -48 161t-91 118q-62 51 -136 60q-20 2 -76 2t-94 -16t-68 -30q-29 -14 -43 -20l-80 102q307 130 526 -18q115 -78 189 -209q98 -174 98 -436z" />
    <glyph glyph-name="Delta" unicode="&#x2206;" horiz-adv-x="1253" 
d="M991 100l-397 959l-447 -959h844zM1245 0h-1233l656 1409z" />
    <glyph glyph-name="product" unicode="&#x220f;" horiz-adv-x="1685" 
d="M1645 -207h-627v47q102 0 149 34t47 132v1419h-733v-1419q0 -98 48 -132t151 -34v-47h-629v47q102 0 151 34q48 34 48 132v1282q0 203 -195 203v47h1583v-47q-193 0 -192 -203v-1282q0 -98 48 -132t151 -34v-47z" />
    <glyph glyph-name="summation" unicode="&#x2211;" horiz-adv-x="1460" 
d="M246 1526h1018l12 -326h-41q-31 100 -43 125q-59 109 -270 109h-539l559 -734l-602 -694h760q66 0 108 12q70 20 123 116q18 34 45 104h47q-63 -258 -88 -459q-141 23 -157 22h-1031q-18 0 -58 -3t-60 -3l714 815l-710 930q126 -14 213 -14z" />
    <glyph glyph-name="minus" unicode="&#x2212;" 
d="M961 461q0 -20 -21 -21h-823q-20 0 -21 21v37q0 20 21 20h823q20 0 21 -20v-37z" />
    <glyph glyph-name="radical" unicode="&#x221a;" horiz-adv-x="1124" 
d="M1055 1868l-307 -1946l-498 1028l-197 -96l-33 68l299 147l404 -825l260 1634z" />
    <glyph glyph-name="infinity" unicode="&#x221e;" horiz-adv-x="1460" 
d="M340 721q-76 0 -130 -57q-54 -56 -54 -132t59 -128t127 -52t102 18q35 18 46 23q11 3 33 21t29 23t31 25q25 20 27 25q2 4 27 28t27 26q-24 24 -47 41q-23 16 -49 36t-37 28t-35 22q-24 16 -39 22q-16 6 -45 18t-72 13zM1114 352q74 0 134 52t59 127t-55 133t-116 57
q-62 0 -109 -20q-48 -20 -70 -36q-23 -15 -51 -37t-37 -29t-38 -32t-32 -26q117 -115 179 -152t136 -37zM1411 545q0 -115 -82 -203t-194 -88q-184 0 -367 183q-23 24 -37 36q-14 -12 -37 -36q-175 -183 -366 -183q-113 0 -195 88t-82 203t87 199t204 83q72 0 152 -41
q80 -42 118 -74t119 -104q80 72 119 105t119 73t151 41q117 1 204 -83t87 -199z" />
    <glyph glyph-name="integral" unicode="&#x222b;" horiz-adv-x="561" 
d="M246 1157q0 389 53 567q18 60 60 106q41 46 97 46t98 -31t42 -77t-33 -72t-69 -25q-36 0 -63 25q-28 25 -44 24q-37 0 -37 -57q0 -4 20 -260t19 -391v-13l-2 -442q0 -187 -29 -415t-100 -310q-18 -20 -59 -36t-79 -15q-38 0 -77 38t-39 79q0 40 29 68t59 28t66 -34
q35 -34 47 -34q53 0 53 201v25l-12 610v395z" />
    <glyph glyph-name="approxequal" unicode="&#x2248;" horiz-adv-x="1124" 
d="M791 287q-35 0 -76 10l-307 88q-49 14 -104 14q-54 1 -94 -27t-93 -96l-88 56q121 162 295 162q47 0 104 -15l309 -86q25 -6 69 -6t104 31t94 80l75 -49q-45 -76 -123 -119t-165 -43zM791 596q-35 0 -76 10l-307 88q-130 36 -198 -13q-40 -28 -93 -95l-88 55
q121 162 295 162q47 0 104 -15l309 -86q25 -6 69 -6t104 31t94 80l75 -49q-45 -76 -123 -119t-165 -43z" />
    <glyph glyph-name="notequal" unicode="&#x2260;" horiz-adv-x="1124" 
d="M1106 279h-621l-184 -330l-100 57l151 273h-321v112h385l157 285h-542v112h606l186 336l101 -57l-156 -279h338v-112h-399l-160 -285h559v-112z" />
    <glyph glyph-name="lessequal" unicode="&#x2264;" horiz-adv-x="1124" 
d="M1077 0h-1018v113h1018v-113zM1077 240l-1018 471v127l1018 471v-127l-887 -408l887 -407v-127z" />
    <glyph glyph-name="greaterequal" unicode="&#x2265;" horiz-adv-x="1124" 
d="M1077 0h-1018v113h1018v-113zM1077 711l-1018 -471v127l887 407l-887 408v127l1018 -471v-127z" />
    <glyph glyph-name="lozenge" unicode="&#x25ca;" horiz-adv-x="1011" 
d="M831 772l-335 643l-336 -643l336 -661zM954 772l-397 -772h-123l-397 772l397 754h123z" />
    <glyph glyph-name="E.alt" unicode="&#xe001;" horiz-adv-x="894" 
d="M545 -20h-66q-160 0 -255 93t-95 251v63q0 100 57 174t127 94q15 5 11 11t-11 8q-76 30 -130 102t-54 154v35q0 162 94 254t256 92h66q127 0 211 -62q41 -29 84 -82q14 -18 -9 -28l-53 -31q-12 -10 -24 6q-90 113 -209 113h-66q-100 0 -173 -70t-73 -172v-31
q0 -104 71 -177t175 -72h127q20 0 21 -21v-41q0 -20 -21 -20h-127q-100 0 -173 -71t-73 -171v-74q0 -106 72 -176t174 -70h66q115 0 209 113q8 10 20 6l55 -24q23 -13 11 -31q-39 -53 -78 -82q-86 -63 -217 -63z" />
    <glyph glyph-name="Lslash.sc" unicode="&#xf6f9;" horiz-adv-x="808" 
d="M752 14q0 -14 -15 -14h-520q-16 0 -16 14v318q0 35 -23 12l-72 -74q-14 -14 -28 0l-35 35q-14 14 0 29l139 137q18 18 19 49v406q0 14 16 14h70q14 0 14 -14v-303q0 -11 7 -15t16 4l73 74q14 14 27 0l35 -35q16 -12 0 -28l-135 -136q-23 -23 -23 -51v-342q0 -14 16 -14
h420q14 0 15 -17v-49z" />
    <glyph glyph-name="OE.sc" unicode="&#xf6fa;" horiz-adv-x="1327" 
d="M676 223v494q0 67 -47 113t-113 47h-78q-66 -1 -112 -47t-45 -113v-494q0 -67 46 -113t111 -47h78q66 1 113 49t47 111zM1196 14q0 -14 -14 -14h-570q-47 -14 -96 -14h-78q-116 0 -188 68t-72 175v482q0 111 72 179t188 66h78q55 0 100 -16h566q14 0 14 -14v-49
q0 -14 -14 -15h-424q-10 0 -14 -7t16 -48q18 -41 18 -96v-179q0 -14 15 -14h319q16 0 16 -14v-49q0 -16 -16 -17h-319q-14 0 -15 -14v-201q0 -49 -33 -123q-10 -20 13 -20h424q14 0 14 -17v-49z" />
    <glyph glyph-name="Scaron.sc" unicode="&#xf6fd;" horiz-adv-x="866" 
d="M725 229q0 -109 -72 -179t-190 -70h-92q-162 0 -230 120q-6 14 6 21l64 33q12 8 18 -7q61 -90 142 -90h92q66 1 114 53t48 104q0 115 -144 185q-29 14 -123 57t-135 83q-71 67 -71 175t70 178t190 71h51q160 0 231 -121q8 -12 -8 -21l-63 -30q-10 -8 -17 4
q-61 88 -143 88h-51q-66 -1 -113 -53t-47 -119q0 -88 219 -187q195 -84 236 -184q18 -48 18 -111zM475 1055h-55q-8 0 -17 8l-153 192q-6 9 -3 17t15 8h55q10 0 21 -10l94 -123q14 -20 31 0l94 123q10 10 21 10h55q12 0 15 -8t-3 -17l-153 -192q-8 -8 -17 -8z" />
    <glyph glyph-name="Zcaron.sc" unicode="&#xf6ff;" horiz-adv-x="768" 
d="M657 14q0 -14 -16 -14h-535q-25 0 -14 20l395 820q12 23 -14 22h-354q-14 0 -15 15v49q0 14 15 14h502q25 0 14 -20l-397 -820q-10 -20 12 -20h391q16 0 16 -17v-49zM395 1055h-55q-8 0 -16 8l-154 192q-6 9 -3 17t15 8h56q10 0 20 -10l94 -123q16 -20 31 0l94 123
q10 10 21 10h55q12 0 15 -8t-3 -17l-153 -192q-8 -8 -17 -8z" />
    <glyph glyph-name="zero.oldstyle" unicode="&#xf730;" horiz-adv-x="1064" 
d="M809 307v330q0 102 -73 172t-173 70h-65q-104 0 -173 -69t-69 -173v-330q0 -100 70 -173t172 -73h65q104 0 175 71t71 175zM913 307q0 -143 -96 -235t-254 -92h-65q-158 0 -252 90t-94 237v330q0 145 95 235t251 91h65q160 1 255 -89t95 -237v-330z" />
    <glyph glyph-name="one.oldstyle" unicode="&#xf731;" horiz-adv-x="1064" 
d="M872 20q0 -20 -20 -20h-588q-20 0 -20 20v41q0 20 20 21h221q20 0 21 20v637q0 15 -11 21t-24 -6l-162 -160q-16 -16 -28 0l-25 33q-12 16 0 28l301 301q6 6 14 7h19q20 0 20 -21v-840q0 -20 21 -20h221q20 0 20 -21v-41z" />
    <glyph glyph-name="two.oldstyle" unicode="&#xf732;" horiz-adv-x="1064" 
d="M297 121v-25q0 -14 20 -14h549q20 0 21 -14v-54q0 -14 -21 -14h-653q-20 0 -20 14v107q0 125 92 196t213 119q31 12 83 34t101 42t67 43q39 50 39 125q0 76 -59 137t-172 62h-86q-55 0 -113 -32t-94 -81q-8 -12 -22 -6l-52 28q-25 14 -14 27q105 146 295 148h86
q160 0 248 -81t88 -218t-106 -202q-73 -48 -216 -102q-168 -72 -221 -116t-53 -123z" />
    <glyph glyph-name="three.oldstyle" unicode="&#xf733;" horiz-adv-x="1064" 
d="M883 -25q1 -159 -95 -251t-256 -93h-65q-145 0 -234 76q-31 27 -61 70q-12 18 10 30l56 25q12 4 20 -6q94 -113 209 -113h65q102 0 175 70q72 70 71 176v74q0 100 -72 171q-73 71 -174 70h-126q-20 0 -21 21v41q0 20 21 20h126q104 0 176 73q71 73 70 177v31
q0 102 -72 172q-73 70 -174 70h-65q-119 0 -209 -113q-12 -16 -25 -6l-53 31q-23 10 -8 28q104 142 295 144h65q162 -1 256 -93t95 -254v-34q-1 -82 -55 -155t-130 -101q-17 -6 -9 -14q3 -3 9 -5q70 -20 127 -94t58 -174v-64z" />
    <glyph glyph-name="four.oldstyle" unicode="&#xf734;" horiz-adv-x="1064" 
d="M692 100v652q0 18 -12 22t-23 -10l-450 -651q-8 -13 -4 -23t20 -10h449q20 0 20 20zM995 20q0 -20 -20 -20h-158q-20 0 -20 -20v-306q0 -20 -21 -20h-63q-20 0 -21 20v306q0 20 -20 20h-549q-20 0 -21 20v97l557 815q8 8 17 8h100q20 0 21 -20v-820q0 -20 20 -20h158
q20 0 20 -21v-39z" />
    <glyph glyph-name="five.oldstyle" unicode="&#xf735;" horiz-adv-x="1064" 
d="M909 -23q0 -155 -96 -249t-254 -95h-65q-120 -1 -186 43t-111 99q-14 18 8 30l55 29q14 6 25 -6q86 -113 209 -113h65q102 0 174 69t72 177v74q0 102 -70 172t-176 69h-303q-20 0 -20 21v623q0 20 20 20h608q20 0 21 -20v-54q0 -20 -21 -20h-504q-20 0 -20 -21v-446
q0 -20 20 -21h199q160 0 255 -91t95 -249v-41z" />
    <glyph glyph-name="six.oldstyle" unicode="&#xf736;" horiz-adv-x="1064" 
d="M825 307v88q0 94 -66 168q-67 74 -179 74h-62q-102 0 -171 -70t-68 -172v-88q1 -102 69 -174t170 -72h62q100 0 173 72q72 72 72 174zM930 307q0 -141 -97 -234t-253 -93h-62q-158 0 -251 90t-93 237v678q0 145 94 235t250 91h62q123 -1 193 -47t106 -97q10 -16 -13 -28
l-53 -27q-12 -6 -22 6q-88 109 -211 109h-62q-108 0 -174 -67t-65 -175v-348q0 -15 10 -19t22 9q94 92 232 92h61q138 0 232 -91t94 -233v-88z" />
    <glyph glyph-name="seven.oldstyle" unicode="&#xf737;" horiz-adv-x="1064" 
d="M909 735q0 -172 -101 -277t-217 -177t-173 -146t-58 -174v-287q0 -20 -20 -20h-64q-20 0 -20 20v287q0 135 72 224t181 159t161 114t93 116q42 72 42 161v90q0 20 -21 21h-553q-20 0 -20 20v54q0 20 20 20h658q20 0 20 -20v-185z" />
    <glyph glyph-name="eight.oldstyle" unicode="&#xf738;" horiz-adv-x="1064" 
d="M809 307v64q0 100 -72 171t-174 70h-65q-104 0 -173 -70t-69 -171v-64q0 -100 70 -173t172 -73h65q102 0 174 70t72 176zM809 944v41q0 102 -73 172t-173 70h-65q-104 0 -173 -69t-69 -173v-41q0 -104 69 -177t173 -73h65q104 0 175 73t71 177zM913 324q0 -154 -96 -249
t-254 -95h-65q-158 0 -251 93t-93 251v53q0 94 58 167t132 97q27 8 0 16q-72 21 -132 95t-60 168v45q0 158 96 252t250 94h65q162 1 256 -95t94 -251v-45q0 -84 -51 -155t-125 -99q-20 -10 0 -19q70 -25 123 -99t53 -171v-53z" />
    <glyph glyph-name="nine.oldstyle" unicode="&#xf739;" horiz-adv-x="1064" 
d="M786 471v166q0 102 -68 174q-69 72 -171 72h-62q-100 0 -173 -72t-72 -174v-166q0 -94 66 -168t179 -74h62q102 0 171 70q68 70 68 172zM891 -43q0 -145 -94 -235t-250 -91h-62q-196 0 -299 144q-10 16 13 28l53 27q12 6 22 -6q88 -109 211 -109h62q109 0 175 67t64 175
v270q0 15 -10 19t-22 -8q-94 -92 -232 -93h-61q-137 -1 -231 91t-95 233v166q0 141 97 234t253 94h62q158 -1 251 -91t93 -237v-678z" />
    <glyph glyph-name="A.sc" unicode="&#xf761;" horiz-adv-x="806" 
d="M408 772h-7q-4 -20 -16 -57l-119 -391q-8 -18 15 -19h243q23 1 15 19l-115 391q-16 32 -16 57zM729 0h-76q-14 0 -14 10l-68 207q-2 8 -14 8h-305q-14 0 -16 -8l-66 -207q-2 -10 -16 -10h-76q-23 0 -15 18l297 912q2 10 15 10h57q14 0 14 -10l297 -912q8 -18 -14 -18z
" />
    <glyph glyph-name="B.sc" unicode="&#xf762;" horiz-adv-x="962" 
d="M698 246v30q0 66 -47 114t-114 48h-220q-16 0 -16 -14v-330q0 -14 16 -14h220q69 0 115 49t46 117zM698 682v14q0 68 -47 117t-114 49h-220q-16 0 -16 -16v-314q0 -14 16 -14h220q69 0 115 48t46 116zM799 258q0 -118 -71 -188t-191 -70h-320q-16 0 -16 14v912
q0 14 16 14h320q121 0 191 -70t71 -188v-16q0 -44 -33 -98t-70 -71t-10 -32q45 -23 79 -73t34 -111v-23z" />
    <glyph glyph-name="C.sc" unicode="&#xf763;" horiz-adv-x="870" 
d="M438 -20q-116 0 -188 68t-72 175v494q0 111 72 179t188 67h78q158 0 232 -121q6 -12 -9 -21l-63 -30q-8 -6 -19 4q-63 88 -141 88h-78q-66 0 -112 -49t-45 -117v-494q0 -65 46 -115t111 -51h78q82 0 141 93q8 10 19 4l63 -31q15 -9 9 -21q-72 -123 -232 -122h-78z" />
    <glyph glyph-name="D.sc" unicode="&#xf764;" horiz-adv-x="978" 
d="M698 246v450q0 68 -47 117t-114 49h-220q-16 0 -16 -16v-752q0 -14 16 -14h220q69 0 115 49t46 117zM799 262q0 -118 -72 -190t-190 -72h-320q-16 0 -16 14v912q0 14 16 14h320q121 0 191 -70t71 -188v-420z" />
    <glyph glyph-name="E.sc" unicode="&#xf765;" horiz-adv-x="882" 
d="M752 14q0 -14 -15 -14h-520q-16 0 -16 14v912q0 14 16 14h520q14 0 15 -14v-49q0 -14 -15 -15h-420q-16 0 -16 -16v-314q0 -14 16 -14h351q14 0 14 -14v-49q0 -16 -14 -17h-351q-16 0 -16 -14v-330q0 -14 16 -14h420q14 0 15 -17v-49z" />
    <glyph glyph-name="F.sc" unicode="&#xf766;" horiz-adv-x="845" 
d="M752 877q0 -14 -15 -15h-420q-16 0 -16 -16v-314q0 -14 16 -14h351q14 0 14 -14v-49q0 -16 -14 -17h-351q-16 0 -16 -14v-410q0 -14 -14 -14h-70q-16 0 -16 14v912q0 14 16 14h520q14 0 15 -14v-49z" />
    <glyph glyph-name="G.sc" unicode="&#xf767;" horiz-adv-x="942" 
d="M778 223q0 -109 -72 -177t-190 -66h-78q-116 0 -188 68t-72 175v494q0 111 72 179t188 67h107q158 0 229 -121q8 -12 -8 -21l-64 -30q-10 -8 -16 4q-61 88 -141 88h-107q-66 0 -112 -49t-45 -117v-494q0 -65 46 -115t111 -51h78q64 1 112 51t48 115v127q0 14 -14 15h-189
q-14 0 -14 14v51q0 14 14 14h291q14 0 14 -14v-207z" />
    <glyph glyph-name="H.sc" unicode="&#xf768;" horiz-adv-x="1024" 
d="M823 14q0 -14 -16 -14h-72q-14 0 -14 14v410q0 14 -14 14h-390q-16 0 -16 -14v-410q0 -14 -14 -14h-70q-16 0 -16 14v912q0 14 16 14h70q14 0 14 -14v-394q0 -14 16 -14h390q14 0 14 14v394q0 14 14 14h72q16 0 16 -14v-912z" />
    <glyph glyph-name="I.sc" unicode="&#xf769;" horiz-adv-x="503" 
d="M301 14q0 -14 -14 -14h-70q-16 0 -16 14v912q0 14 16 14h70q14 0 14 -14v-912z" />
    <glyph glyph-name="J.sc" unicode="&#xf76a;" horiz-adv-x="722" 
d="M545 240q0 -109 -77 -185t-185 -75q-63 0 -125 34t-105 88q-10 12 6 23l64 31q10 4 18 -6q53 -86 131 -86t124 48t46 111v703q0 14 15 14h71q16 0 17 -14v-686z" />
    <glyph glyph-name="K.sc" unicode="&#xf76b;" horiz-adv-x="909" 
d="M821 0h-90q-8 0 -14 8l-273 447q-12 16 -26 2l-117 -146v-297q0 -14 -14 -14h-70q-16 0 -16 14v912q0 14 16 14h70q14 0 14 -14v-449q0 -14 9 -17t18 7l356 467q6 6 12 6h80q12 0 16 -7t-4 -18l-282 -346q-4 -4 0 -16l328 -530q12 -23 -13 -23z" />
    <glyph glyph-name="L.sc" unicode="&#xf76c;" horiz-adv-x="808" 
d="M752 14q0 -14 -15 -14h-520q-16 0 -16 14v912q0 14 16 14h70q14 0 14 -14v-832q0 -14 16 -14h420q14 0 15 -17v-49z" />
    <glyph glyph-name="M.sc" unicode="&#xf76d;" horiz-adv-x="1153" 
d="M952 14q0 -14 -14 -14h-70q-16 0 -16 14v357q0 102 14 346l-6 2q-29 -86 -39 -107l-217 -462q-2 -8 -12 -9h-31q-10 0 -12 9l-215 462q-16 35 -39 107l-6 -2q12 -209 12 -346v-357q0 -14 -14 -14h-70q-16 0 -16 14v912q0 14 16 14h68q8 0 14 -8l256 -570q4 -10 20 -59h5
q0 6 22 59l252 570q6 8 14 8h70q14 0 14 -14v-912z" />
    <glyph glyph-name="N.sc" unicode="&#xf76e;" horiz-adv-x="1013" 
d="M813 14q0 -14 -16 -14h-70q-10 0 -12 8l-385 658q-20 33 -27 53l-6 -2q4 -35 4 -346v-357q0 -14 -14 -14h-70q-16 0 -16 14v912q0 14 16 14h68q8 0 14 -6l383 -666q25 -49 27 -55l6 2q-4 74 -4 346v365q0 14 14 14h72q16 0 16 -14v-912z" />
    <glyph glyph-name="O.sc" unicode="&#xf76f;" horiz-adv-x="954" 
d="M674 217v506q0 68 -47 114t-113 46h-76q-66 0 -112 -46t-45 -114v-506q0 -66 46 -113t111 -47h76q63 0 112 47q48 47 48 113zM776 223q0 -109 -73 -177t-189 -66h-76q-116 0 -188 68t-72 175v494q0 111 72 179t188 67h76q119 0 191 -69t71 -177v-494z" />
    <glyph glyph-name="P.sc" unicode="&#xf770;" horiz-adv-x="880" 
d="M698 682v14q0 68 -47 117t-114 49h-220q-16 0 -16 -16v-314q0 -14 16 -14h220q69 0 115 48t46 116zM799 682q0 -106 -72 -175t-190 -69h-220q-16 0 -16 -14v-410q0 -14 -14 -14h-70q-16 0 -16 14v912q0 14 16 14h320q117 0 189 -69t73 -177v-12z" />
    <glyph glyph-name="Q.sc" unicode="&#xf771;" horiz-adv-x="954" 
d="M674 217v500q0 67 -46 113t-112 47h-78q-66 -1 -112 -47t-45 -113v-500q-1 -53 37 -95t96 -59q20 -6 20 15v121q0 14 15 14h55q16 0 16 -14v-119q0 -14 19 -12q57 6 96 52t39 97zM776 223q0 -102 -66 -164q-67 -61 -180 -79q-10 0 -10 -15v-147q0 -16 -16 -17h-55
q-14 0 -15 17v147q0 14 -14 15q-114 16 -178 79t-64 164v488q0 111 72 179t188 66h78q117 0 189 -68t71 -177v-488z" />
    <glyph glyph-name="R.sc" unicode="&#xf772;" horiz-adv-x="956" 
d="M698 682v14q0 68 -47 117t-114 49h-220q-16 0 -16 -16v-314q0 -14 16 -14h220q69 0 115 48t46 116zM807 0h-80q-12 0 -12 10l-168 420q0 8 -10 8h-220q-16 0 -16 -14v-410q0 -14 -14 -14h-70q-16 0 -16 14v912q0 14 16 14h320q121 0 191 -70t71 -188v-16q0 -54 -43 -112
t-99 -83q-12 -2 -8 -16l172 -437q8 -18 -14 -18z" />
    <glyph glyph-name="S.sc" unicode="&#xf773;" horiz-adv-x="866" 
d="M725 229q0 -109 -72 -179t-190 -70h-92q-162 0 -230 120q-6 14 6 21l64 33q12 8 18 -7q61 -90 142 -90h92q66 1 114 53t48 104q0 115 -144 185q-29 14 -123 57t-135 83q-71 67 -71 175t70 178t190 71h51q160 0 231 -121q8 -12 -8 -21l-63 -30q-10 -8 -17 4
q-61 88 -143 88h-51q-66 -1 -113 -53t-47 -119q0 -88 219 -187q195 -84 236 -184q18 -48 18 -111z" />
    <glyph glyph-name="T.sc" unicode="&#xf774;" horiz-adv-x="673" 
d="M633 877q0 -14 -15 -15h-217q-14 0 -14 -16v-832q0 -14 -14 -14h-70q-16 0 -16 14v832q0 16 -15 16h-215q-16 0 -16 15v49q0 14 16 14h561q14 0 15 -14v-49z" />
    <glyph glyph-name="U.sc" unicode="&#xf775;" horiz-adv-x="956" 
d="M778 223q0 -109 -72 -177t-190 -66h-78q-116 0 -188 68t-72 175v703q0 14 17 14h71q14 0 15 -14v-709q0 -66 46 -113t111 -47h78q66 0 113 47t47 113v709q0 14 16 14h72q14 0 14 -14v-703z" />
    <glyph glyph-name="V.sc" unicode="&#xf776;" horiz-adv-x="806" 
d="M653 940h76q20 0 14 -18l-297 -912q-2 -10 -16 -10h-53q-14 0 -15 10l-299 912q-6 18 15 18h76q14 0 16 -10l219 -701q0 -19 14 -61h9q14 42 14 61l213 701q0 10 14 10z" />
    <glyph glyph-name="W.sc" unicode="&#xf777;" horiz-adv-x="1138" 
d="M834 0h-54q-12 0 -14 10l-176 602q-2 6 -8 33t-9 33h-6q-10 -49 -16 -66l-178 -602q-2 -10 -15 -10h-55q-12 0 -14 12l-217 910q-6 18 14 18h78q12 0 14 -12l146 -639q8 -45 16 -68h6q8 25 16 66l185 647q0 10 14 10h21q14 0 14 -10l178 -649q6 -16 17 -66h8q0 12 14 68
l148 641q2 12 16 12h76q20 0 16 -18l-219 -910q-2 -12 -16 -12z" />
    <glyph glyph-name="X.sc" unicode="&#xf778;" horiz-adv-x="841" 
d="M717 0h-84q-10 0 -12 8l-183 357q-12 27 -26 0l-191 -357q-8 -8 -14 -8h-84q-25 0 -12 23l239 442q2 6 0 14l-237 439q-12 23 12 22h82q6 0 14 -8l191 -359q14 -27 26 0l183 359q2 8 12 8h82q25 0 14 -20l-237 -441q-4 -8 0 -14l239 -445q10 -20 -14 -20z" />
    <glyph glyph-name="Y.sc" unicode="&#xf779;" horiz-adv-x="706" 
d="M403 14q0 -14 -14 -14h-74q-14 0 -14 14v420l-270 484q-10 23 14 22h84q6 0 14 -8l199 -377q14 -23 27 0l194 377q8 8 15 8h84q26 1 14 -22l-273 -484v-420z" />
    <glyph glyph-name="Z.sc" unicode="&#xf77a;" horiz-adv-x="768" 
d="M657 14q0 -14 -16 -14h-535q-25 0 -14 20l395 820q12 23 -14 22h-354q-14 0 -15 15v49q0 14 15 14h502q25 0 14 -20l-397 -820q-10 -20 12 -20h391q16 0 16 -17v-49z" />
    <glyph glyph-name="germandbls.sc" unicode="&#xf7df;" horiz-adv-x="1732" 
d="M725 229q0 -109 -72 -179t-190 -70h-92q-162 0 -230 120q-6 14 6 21l64 33q12 8 18 -7q61 -90 142 -90h92q66 1 114 53t48 104q0 115 -144 185q-29 14 -123 57t-135 83q-71 67 -71 175t70 178t190 71h51q160 0 231 -121q8 -12 -8 -21l-63 -30q-10 -8 -17 4
q-61 88 -143 88h-51q-66 -1 -113 -53t-47 -119q0 -88 219 -187q195 -84 236 -184q18 -48 18 -111zM1591 229q1 -109 -71 -179t-191 -70h-92q-162 0 -229 120q-6 14 6 21l63 33q12 8 19 -7q61 -90 141 -90h92q66 1 114 53t48 104t-18 84q-30 54 -125 101q-29 14 -123 57
t-135 83q-72 67 -72 175t71 178t189 71h51q160 0 232 -121q8 -12 -9 -21l-63 -30q-10 -8 -16 4q-61 88 -144 88h-51q-66 -1 -113 -53t-47 -119q0 -88 219 -187q195 -84 236 -184q18 -48 18 -111z" />
    <glyph glyph-name="Agrave.sc" unicode="&#xf7e0;" horiz-adv-x="806" 
d="M408 772h-7q-4 -20 -16 -57l-119 -391q-8 -18 15 -19h243q23 1 15 19l-115 391q-16 32 -16 57zM729 0h-76q-14 0 -14 10l-68 207q-2 8 -14 8h-305q-14 0 -16 -8l-66 -207q-2 -10 -16 -10h-76q-23 0 -15 18l297 912q2 10 15 10h57q14 0 14 -10l297 -912q8 -18 -14 -18z
M467 1055h-8q-14 0 -37 16l-246 201q-14 10 -8 22t22 13h109q12 0 18 -9l160 -223q14 -20 -10 -20z" />
    <glyph glyph-name="Aacute.sc" unicode="&#xf7e1;" horiz-adv-x="806" 
d="M408 772h-7q-4 -20 -16 -57l-119 -391q-8 -18 15 -19h243q23 1 15 19l-115 391q-16 32 -16 57zM729 0h-76q-14 0 -14 10l-68 207q-2 8 -14 8h-305q-14 0 -16 -8l-66 -207q-2 -10 -16 -10h-76q-23 0 -15 18l297 912q2 10 15 10h57q14 0 14 -10l297 -912q8 -18 -14 -18z
M358 1055h-8q-25 0 -10 20l160 223q6 8 18 9h109q16 -1 22 -13t-8 -22l-246 -201q-23 -16 -37 -16z" />
    <glyph glyph-name="Acircumflex.sc" unicode="&#xf7e2;" horiz-adv-x="806" 
d="M408 772h-7q-4 -20 -16 -57l-119 -391q-8 -18 15 -19h243q23 1 15 19l-115 391q-16 32 -16 57zM729 0h-76q-14 0 -14 10l-68 207q-2 8 -14 8h-305q-14 0 -16 -8l-66 -207q-2 -10 -16 -10h-76q-23 0 -15 18l297 912q2 10 15 10h57q14 0 14 -10l297 -912q8 -18 -14 -18z
M598 1055h-55q-10 0 -21 10l-94 123q-14 20 -31 0l-94 -123q-10 -10 -20 -10h-56q-12 0 -15 8t3 16l154 193q8 8 16 8h55q8 0 17 -8l153 -193q6 -8 3 -16t-15 -8z" />
    <glyph glyph-name="Atilde.sc" unicode="&#xf7e3;" horiz-adv-x="806" 
d="M408 772h-7q-4 -20 -16 -57l-119 -391q-8 -18 15 -19h243q23 1 15 19l-115 391q-16 32 -16 57zM729 0h-76q-14 0 -14 10l-68 207q-2 8 -14 8h-305q-14 0 -16 -8l-66 -207q-2 -10 -16 -10h-76q-23 0 -15 18l297 912q2 10 15 10h57q14 0 14 -10l297 -912q8 -18 -14 -18z
M537 1067q-37 0 -125 55l-41 25q-53 33 -101 33t-108 -50q-11 -9 -28 0t-7 27q68 111 147 111q49 0 115 -47l47 -33q56 -37 106 -37t113 53q12 7 28 0q17 -6 5 -26q-74 -111 -151 -111z" />
    <glyph glyph-name="Adieresis.sc" unicode="&#xf7e4;" horiz-adv-x="806" 
d="M408 772h-7q-4 -20 -16 -57l-119 -391q-8 -18 15 -19h243q23 1 15 19l-115 391q-16 32 -16 57zM729 0h-76q-14 0 -14 10l-68 207q-2 8 -14 8h-305q-14 0 -16 -8l-66 -207q-2 -10 -16 -10h-76q-23 0 -15 18l297 912q2 10 15 10h57q14 0 14 -10l297 -912q8 -18 -14 -18z
M309 1166q1 -34 -23 -58t-57 -23q-33 0 -57 25q-24 26 -25 58q0 32 24 56q23 24 57 24t58 -24q23 -24 23 -58zM653 1166q1 -34 -23 -58t-57 -23q-33 0 -57 25q-24 26 -24 58t23 56t57 24t58 -24q23 -24 23 -58z" />
    <glyph glyph-name="Aring.sc" unicode="&#xf7e5;" horiz-adv-x="806" 
d="M408 772h-7q-4 -20 -16 -57l-119 -391q-8 -18 15 -19h243q23 1 15 19l-115 391q-16 32 -16 57zM504 1065v65q0 41 -28 65t-73 24q-94 0 -94 -89v-65q0 -88 94 -88q45 -1 73 23t28 65zM729 0h-76q-14 0 -14 10l-68 207q-2 8 -14 8h-305q-14 0 -16 -8l-66 -207
q-2 -10 -16 -10h-76q-23 0 -15 18l295 906q-113 27 -112 141v65q0 66 43 106t113 40t118 -40q47 -40 47 -106v-65q-1 -53 -33 -91t-85 -50q73 -228 221 -678l73 -228q8 -18 -14 -18z" />
    <glyph glyph-name="AE.sc" unicode="&#xf7e6;" horiz-adv-x="1196" 
d="M301 305h227q14 0 15 14v105q0 274 4 348h-6l-252 -444q-12 -23 12 -23zM1065 14q0 -14 -16 -14h-492q-14 0 -14 14v197q0 14 -15 14h-288q-8 0 -15 -6l-119 -211q-2 -8 -12 -8h-69q-25 0 -13 23l537 911q6 6 14 6h486q16 0 16 -14v-49q0 -14 -16 -15h-390q-16 0 -16 -16
v-314q0 -14 16 -14h320q14 0 14 -14v-49q0 -16 -14 -17h-320q-16 0 -16 -14v-330q0 -14 16 -14h390q16 0 16 -17v-49z" />
    <glyph glyph-name="Ccedilla.sc" unicode="&#xf7e7;" horiz-adv-x="870" 
d="M524 -315v-19q0 -80 -56 -128t-138 -48h-66q-27 0 -26 27v16q0 27 26 27h66q44 0 74 32t30 74v19q0 31 -39 59q-12 8 -59 35q-33 14 -17 47l70 145q2 8 -8 13q-94 14 -149 79q-54 66 -54 160v494q0 111 72 179t188 67h78q158 0 232 -121q6 -12 -9 -21l-63 -30
q-8 -6 -19 4q-63 88 -141 88h-78q-66 0 -112 -49t-45 -117v-494q0 -65 46 -115t111 -51h78q82 0 141 93q8 10 19 4l63 -31q17 -9 9 -21q-44 -72 -102 -98t-159 -24q-10 0 -14 -11l-59 -123q-8 -16 4 -22q106 -57 106 -139z" />
    <glyph glyph-name="Egrave.sc" unicode="&#xf7e8;" horiz-adv-x="882" 
d="M752 14q0 -14 -15 -14h-520q-16 0 -16 14v912q0 14 16 14h520q14 0 15 -14v-49q0 -14 -15 -15h-420q-16 0 -16 -16v-314q0 -14 16 -14h351q14 0 14 -14v-49q0 -16 -14 -17h-351q-16 0 -16 -14v-330q0 -14 16 -14h420q14 0 15 -17v-49zM565 1055h-8q-14 0 -37 16l-246 201
q-14 10 -8 22t23 13h108q12 0 19 -9l159 -223q14 -20 -10 -20z" />
    <glyph glyph-name="Eacute.sc" unicode="&#xf7e9;" horiz-adv-x="882" 
d="M752 14q0 -14 -15 -14h-520q-16 0 -16 14v912q0 14 16 14h520q14 0 15 -14v-49q0 -14 -15 -15h-420q-16 0 -16 -16v-314q0 -14 16 -14h351q14 0 14 -14v-49q0 -16 -14 -17h-351q-16 0 -16 -14v-330q0 -14 16 -14h420q14 0 15 -17v-49zM453 1055h-9q-25 0 -10 20l160 223
q6 8 18 9h109q16 -1 22 -13t-8 -22l-246 -201q-23 -16 -36 -16z" />
    <glyph glyph-name="Ecircumflex.sc" unicode="&#xf7ea;" horiz-adv-x="882" 
d="M752 14q0 -14 -15 -14h-520q-16 0 -16 14v912q0 14 16 14h520q14 0 15 -14v-49q0 -14 -15 -15h-420q-16 0 -16 -16v-314q0 -14 16 -14h351q14 0 14 -14v-49q0 -16 -14 -17h-351q-16 0 -16 -14v-330q0 -14 16 -14h420q14 0 15 -17v-49zM668 1055h-56q-10 0 -20 10l-94 123
q-14 20 -31 0l-94 -123q-10 -10 -21 -10h-55q-12 0 -15 8t3 16l153 193q8 8 17 8h55q8 0 16 -8l154 -193q6 -8 3 -16t-15 -8z" />
    <glyph glyph-name="Edieresis.sc" unicode="&#xf7eb;" horiz-adv-x="882" 
d="M752 14q0 -14 -15 -14h-520q-16 0 -16 14v912q0 14 16 14h520q14 0 15 -14v-49q0 -14 -15 -15h-420q-16 0 -16 -16v-314q0 -14 16 -14h351q14 0 14 -14v-49q0 -16 -14 -17h-351q-16 0 -16 -14v-330q0 -14 16 -14h420q14 0 15 -17v-49zM383 1166q0 -34 -24 -58
q-25 -24 -57 -23q-32 0 -56 25q-24 26 -25 58q0 32 24 56q23 24 57 24t58 -24t23 -58zM727 1166q0 -34 -24 -58q-25 -24 -57 -23q-32 0 -56 25q-24 26 -25 58q0 32 24 56q23 24 57 24t58 -24t23 -58z" />
    <glyph glyph-name="Igrave.sc" unicode="&#xf7ec;" horiz-adv-x="503" 
d="M301 14q0 -14 -14 -14h-70q-16 0 -16 14v912q0 14 16 14h70q14 0 14 -14v-912zM295 1055h-8q-14 0 -37 16l-246 201q-14 10 -8 22t22 13h109q12 0 18 -9l160 -223q14 -20 -10 -20z" />
    <glyph glyph-name="Iacute.sc" unicode="&#xf7ed;" horiz-adv-x="503" 
d="M301 14q0 -14 -14 -14h-70q-16 0 -16 14v912q0 14 16 14h70q14 0 14 -14v-912zM227 1055h-8q-25 0 -10 20l160 223q6 8 18 9h109q16 -1 22 -13t-8 -22l-246 -201q-23 -16 -37 -16z" />
    <glyph glyph-name="Icircumflex.sc" unicode="&#xf7ee;" horiz-adv-x="503" 
d="M301 14q0 -14 -14 -14h-70q-16 0 -16 14v912q0 14 16 14h70q14 0 14 -14v-912zM438 1055h-55q-10 0 -21 10l-94 123q-14 20 -30 0l-95 -123q-10 -10 -20 -10h-55q-12 0 -16 8t3 16l154 193q8 8 16 8h56q8 0 16 -8l154 -193q6 -8 3 -16t-16 -8z" />
    <glyph glyph-name="Idieresis.sc" unicode="&#xf7ef;" horiz-adv-x="503" 
d="M301 14q0 -14 -14 -14h-70q-16 0 -16 14v912q0 14 16 14h70q14 0 14 -14v-912zM162 1166q0 -34 -24 -58t-56 -23q-32 0 -58 25q-24 26 -24 58t24 56t58 24t56 -24q24 -24 24 -58zM506 1166q0 -34 -24 -58t-56 -23q-32 0 -58 25q-24 26 -24 58t24 56t58 24t56 -24
q24 -24 24 -58z" />
    <glyph glyph-name="Eth.sc" unicode="&#xf7f0;" horiz-adv-x="978" 
d="M698 246v450q0 68 -47 117t-114 49h-220q-16 0 -16 -16v-311q0 -16 18 -17h177q18 0 18 -20v-39q0 -20 -18 -21h-179q-16 0 -16 -16v-328q0 -14 16 -14h220q69 0 115 49t46 117zM799 262q0 -118 -72 -190t-190 -72h-320q-16 0 -16 14v406q0 18 -15 18h-84q-18 0 -18 21
v39q0 20 18 20h84q14 0 15 19v389q0 14 16 14h320q121 0 191 -70t71 -188v-420z" />
    <glyph glyph-name="Ntilde.sc" unicode="&#xf7f1;" horiz-adv-x="1013" 
d="M813 14q0 -14 -16 -14h-70q-10 0 -12 8l-385 658q-23 37 -27 51h-6q4 -35 4 -346v-357q0 -14 -14 -14h-70q-16 0 -16 14v912q0 14 16 14h68q8 0 14 -6l383 -666q25 -49 27 -55l6 2q-4 74 -4 346v365q0 14 14 14h72q16 0 16 -14v-912zM651 1067q-37 0 -125 55l-41 25
q-53 33 -101 33t-108 -50q-11 -9 -28 0q-16 9 -6 27q68 111 147 111q49 0 115 -47l47 -33q55 -37 105 -37t114 53q11 7 28 0q17 -6 5 -26q-74 -111 -152 -111z" />
    <glyph glyph-name="Ograve.sc" unicode="&#xf7f2;" horiz-adv-x="954" 
d="M674 217v506q0 68 -47 114t-113 46h-76q-66 0 -112 -46t-45 -114v-506q0 -66 46 -113t111 -47h76q63 0 112 47q48 47 48 113zM776 223q0 -109 -73 -177t-189 -66h-76q-116 0 -188 68t-72 175v494q0 111 72 179t188 67h76q119 0 191 -69t71 -177v-494zM524 1055h-8
q-14 0 -37 16l-246 201q-14 10 -8 22t23 13h108q12 0 19 -9l160 -223q14 -20 -11 -20z" />
    <glyph glyph-name="Oacute.sc" unicode="&#xf7f3;" horiz-adv-x="954" 
d="M674 217v506q0 68 -47 114t-113 46h-76q-66 0 -112 -46t-45 -114v-506q0 -66 46 -113t111 -47h76q63 0 112 47q48 47 48 113zM776 223q0 -109 -73 -177t-189 -66h-76q-116 0 -188 68t-72 175v494q0 111 72 179t188 67h76q119 0 191 -69t71 -177v-494zM408 1055h-9
q-25 0 -10 20l160 223q6 8 18 9h109q16 -1 22 -13t-8 -22l-246 -201q-23 -16 -36 -16z" />
    <glyph glyph-name="Ocircumflex.sc" unicode="&#xf7f4;" horiz-adv-x="954" 
d="M674 217v506q0 68 -47 114t-113 46h-76q-66 0 -112 -46t-45 -114v-506q0 -66 46 -113t111 -47h76q63 0 112 47q48 47 48 113zM776 223q0 -109 -73 -177t-189 -66h-76q-116 0 -188 68t-72 175v494q0 111 72 179t188 67h76q119 0 191 -69t71 -177v-494zM666 1055h-56
q-10 0 -20 10l-94 123q-16 20 -31 0l-94 -123q-10 -10 -21 -10h-55q-12 0 -15 8t3 16l153 193q8 8 17 8h55q8 0 16 -8l154 -193q6 -8 3 -16t-15 -8z" />
    <glyph glyph-name="Otilde.sc" unicode="&#xf7f5;" horiz-adv-x="954" 
d="M674 217v506q0 68 -47 114t-113 46h-76q-66 0 -112 -46t-45 -114v-506q0 -66 46 -113t111 -47h76q63 0 112 47q48 47 48 113zM776 223q0 -109 -73 -177t-189 -66h-76q-116 0 -188 68t-72 175v494q0 111 72 179t188 67h76q119 0 191 -69t71 -177v-494zM602 1067
q-37 0 -125 55l-41 25q-53 33 -101 33t-108 -50q-11 -9 -28 0q-16 9 -6 27q68 111 147 111q49 0 115 -47l47 -33q55 -37 105 -37t114 53q11 7 28 0q17 -6 5 -26q-74 -111 -152 -111z" />
    <glyph glyph-name="Odieresis.sc" unicode="&#xf7f6;" horiz-adv-x="954" 
d="M674 217v506q0 68 -47 114t-113 46h-76q-66 0 -112 -46t-45 -114v-506q0 -66 46 -113t111 -47h76q63 0 112 47q48 47 48 113zM776 223q0 -109 -73 -177t-189 -66h-76q-116 0 -188 68t-72 175v494q0 111 72 179t188 67h76q119 0 191 -69t71 -177v-494zM387 1166
q1 -34 -23 -58t-57 -23q-33 0 -57 25q-24 26 -25 58q0 32 24 56q23 24 57 24t58 -24q23 -24 23 -58zM731 1166q1 -34 -23 -58t-57 -23q-33 0 -57 25q-24 26 -25 58q0 32 24 56q23 24 57 24t58 -24q23 -24 23 -58z" />
    <glyph glyph-name="Oslash.sc" unicode="&#xf7f8;" horiz-adv-x="954" 
d="M438 63h76q64 1 112 49t48 111v494l-2 35q-4 12 -14 13t-15 -11l-299 -641q-8 -12 2 -19q43 -31 92 -31zM514 877h-76q-66 -1 -112 -47t-45 -113v-494q0 -35 14 -38q10 -1 16 12l297 637q6 8 -6 16q-41 27 -88 27zM776 229q0 -109 -73 -177t-189 -66h-76q-116 0 -188 68
t-72 175v482q0 111 72 179t188 66h76q119 0 191 -68t71 -177v-482z" />
    <glyph glyph-name="Ugrave.sc" unicode="&#xf7f9;" horiz-adv-x="956" 
d="M778 223q0 -109 -72 -177t-190 -66h-78q-116 0 -188 68t-72 175v703q0 14 17 14h71q14 0 15 -14v-709q0 -66 46 -113t111 -47h78q66 0 113 47t47 113v709q0 14 16 14h72q14 0 14 -14v-703zM524 1055h-8q-14 0 -37 16l-246 201q-14 10 -8 22t23 13h108q12 0 19 -9
l160 -223q14 -20 -11 -20z" />
    <glyph glyph-name="Uacute.sc" unicode="&#xf7fa;" horiz-adv-x="956" 
d="M778 223q0 -109 -72 -177t-190 -66h-78q-116 0 -188 68t-72 175v703q0 14 17 14h71q14 0 15 -14v-709q0 -66 46 -113t111 -47h78q66 0 113 47t47 113v709q0 14 16 14h72q14 0 14 -14v-703zM432 1055h-8q-25 0 -10 20l159 223q6 8 19 9h108q16 -1 22 -13t-7 -22l-246 -201
q-23 -16 -37 -16z" />
    <glyph glyph-name="Ucircumflex.sc" unicode="&#xf7fb;" horiz-adv-x="956" 
d="M778 223q0 -109 -72 -177t-190 -66h-78q-116 0 -188 68t-72 175v703q0 14 17 14h71q14 0 15 -14v-709q0 -66 46 -113t111 -47h78q66 0 113 47t47 113v709q0 14 16 14h72q14 0 14 -14v-703zM668 1055h-56q-10 0 -20 10l-94 123q-14 20 -31 0l-94 -123q-10 -10 -21 -10h-55
q-12 0 -15 8t3 16l153 193q8 8 17 8h55q8 0 16 -8l154 -193q6 -8 3 -16t-15 -8z" />
    <glyph glyph-name="Udieresis.sc" unicode="&#xf7fc;" horiz-adv-x="956" 
d="M778 223q0 -109 -72 -177t-190 -66h-78q-116 0 -188 68t-72 175v703q0 14 17 14h71q14 0 15 -14v-709q0 -66 46 -113t111 -47h78q66 0 113 47t47 113v709q0 14 16 14h72q14 0 14 -14v-703zM391 1166q1 -34 -23 -58t-57 -23q-33 0 -57 25q-24 26 -25 58q0 32 24 56
q23 24 57 24t58 -24q23 -24 23 -58zM735 1166q1 -34 -23 -58t-57 -23q-33 0 -57 25q-24 26 -25 58q0 32 24 56q23 24 57 24t58 -24q23 -24 23 -58z" />
    <glyph glyph-name="Yacute.sc" unicode="&#xf7fd;" horiz-adv-x="706" 
d="M403 14q0 -14 -14 -14h-74q-14 0 -14 14v420l-270 484q-10 23 14 22h84q6 0 14 -8l199 -377q14 -23 27 0l194 377q8 8 15 8h84q26 1 14 -22l-273 -484v-420zM305 1055h-8q-25 0 -10 20l159 223q6 8 19 9h108q17 -1 23 -13t-8 -22l-246 -201q-23 -16 -37 -16z" />
    <glyph glyph-name="Thorn.sc" unicode="&#xf7fe;" horiz-adv-x="880" 
d="M698 561v14q0 68 -47 117t-114 49h-220q-16 0 -16 -16v-313q0 -14 16 -15h220q69 0 115 48t46 116zM799 561q0 -106 -72 -175t-190 -69h-220q-16 0 -16 -14v-289q0 -14 -14 -14h-70q-16 0 -16 14v912q0 14 16 14h70q14 0 14 -14v-92q0 -14 16 -15h220q117 -1 189 -69
t73 -177v-12z" />
    <glyph glyph-name="Ydieresis.sc" unicode="&#xf7ff;" horiz-adv-x="706" 
d="M403 14q0 -14 -14 -14h-74q-14 0 -14 14v420l-270 484q-10 23 14 22h84q6 0 14 -8l199 -377q14 -23 27 0l194 377q8 8 15 8h84q26 1 14 -22l-273 -484v-420zM260 1166q0 -34 -24 -58t-56 -23q-34 0 -58 25q-24 26 -24 58t24 56t58 24t57 -24t23 -58zM604 1166
q0 -34 -24 -58t-56 -23q-34 0 -58 25q-24 26 -24 58t24 56t58 24t57 -24t23 -58z" />
    <glyph glyph-name="apple" unicode="&#xf8ff;" horiz-adv-x="1617" 
d="M1096 -4q-52 0 -132 33q-81 33 -126 33t-125 -34t-125 -34q-207 0 -389 393q-84 182 -84 389q0 43 6 84q76 410 446 410q51 0 79 -7t88 -33t104 -26t103 26q60 26 88 33t81 7q166 0 270 -82q23 -16 78 -78q-53 -39 -82 -67t-55 -72q-53 -90 -53 -212t90 -220
q10 -13 17 -21t19 -17t16 -13q6 -4 20 -13q14 -7 26 -15t45 -24q-2 -2 -17 -37q-14 -35 -18 -40t-19 -37t-21 -39q-6 -8 -19 -35q-15 -27 -23 -38t-22 -34t-38 -51t-54 -53q-29 -25 -33 -29t-15 -13q-10 -10 -18 -12t-32 -12t-76 -10zM1159 1593q0 -131 -74 -204
q-57 -61 -139 -109q-20 -12 -115 -18q-2 12 -2 40t26 96t58 109q96 123 246 148v-62z" />
    </font>
</defs>
</svg>
