<?xml version="1.0" standalone="no"?>
<!DOCTYPE svg PUBLIC "-//W3C//DTD SVG 1.1//EN" "http://www.w3.org/Graphics/SVG/1.1/DTD/svg11.dtd" >
<svg xmlns="http://www.w3.org/2000/svg">
<metadata>
Created by FontPrep 20130207 at Tue Nov  5 09:20:27 2013
 By Fabien Postif
Copyright (c) 1992-97 Hewlett-Packard. All rights reserved.
</metadata>
<defs>
<font id="f3769da9330ccc12d6c3b3b172c75e16" horiz-adv-x='1024' >
  <font-face 
    font-family="AvantGarde-Book"
    font-weight="400"
    font-stretch="normal"
    units-per-em="2048"
    panose-1="2 11 6 2 2 2 2 2 2 4"
    ascent="1638"
    descent="-410"
    x-height="1121"
    cap-height="1515"
    bbox="-1042 -512 2352 1969"
    underline-thickness="102"
    underline-position="-154"
    unicode-range="U+0020-FB01"
  />
<missing-glyph horiz-adv-x="669" 
d="M100 1174v-1074h369v1074h-369zM0 1274h569v-1274h-569v1274z" />
    <glyph glyph-name=".notdef" horiz-adv-x="669" 
d="M100 1174v-1074h369v1074h-369zM0 1274h569v-1274h-569v1274z" />
    <glyph glyph-name="glyph1" 
 />
    <glyph glyph-name="nonmarkingreturn" horiz-adv-x="682" 
 />
    <glyph glyph-name="space" unicode=" " horiz-adv-x="567" 
 />
    <glyph glyph-name="exclam" unicode="!" horiz-adv-x="604" 
d="M227 258h152v-258h-152v258zM227 391v1120h152v-1120h-152z" />
    <glyph glyph-name="quotedbl" unicode="&#x22;" horiz-adv-x="633" 
d="M418 911l-25 604h166l-25 -604h-116zM99 911l-25 604h166l-25 -604h-116z" />
    <glyph glyph-name="numbersign" unicode="#" horiz-adv-x="1135" 
d="M477 952l-55 -390h255l55 390h-255zM1066 1089v-138h-192l-56 -389h194v-138h-213l-61 -425h-142l61 425h-254l-61 -425h-142l61 426h-193v138h212l56 389h-214v138h233l61 425h142l-61 -425h254l61 425h142l-61 -426h173z" />
    <glyph glyph-name="dollar" unicode="$" horiz-adv-x="1135" 
d="M584 1360q-114 0 -179 -61.5t-65 -165.5q0 -103 60 -161t202 -97q394 -107 394 -408q0 -183 -120 -300q-92 -90 -227 -110v-200h-154v199q-135 22 -243 128t-109 249l2 34h150q2 -134 73.5 -207t201.5 -73t203 73t73 192q0 120 -70 184t-241 110q-345 94 -345 378
q0 164 111 268q82 77 194 96v173h154v-168q133 -17 218 -99q106 -102 114 -280h-151q-14 125 -73 185.5t-173 60.5z" />
    <glyph glyph-name="percent" unicode="%" horiz-adv-x="1587" 
d="M1174 596q-106 0 -176.5 -72t-70.5 -180t70.5 -180.5t176.5 -72.5t176.5 72.5t70.5 180.5t-70.5 180t-176.5 72zM1174 -23q-160 0 -266 104.5t-106 262.5t106 262t266 104t266 -104t106 -262t-106 -262.5t-266 -104.5zM296 4l859 1506h138l-859 -1506h-138zM415 1424
q-106 0 -176.5 -72t-70.5 -180t70.5 -180.5t176.5 -72.5t176.5 72.5t70.5 180.5t-70.5 180t-176.5 72zM415 805q-160 0 -266 104.5t-106 262.5t106 262t266 104t266 -104t106 -262t-106 -262.5t-266 -104.5z" />
    <glyph glyph-name="ampersand" unicode="&#x26;" horiz-adv-x="1550" 
d="M447 1212q-1 -74 37 -128t121 -136q105 30 174 85q95 75 95 164t-62 146.5t-152 57.5t-151.5 -57.5t-61.5 -131.5zM269 423q0 -129 93 -217q92 -88 218 -87q126 0 214 75t160 208l-392 378q-114 -43 -190 -122q-103 -106 -103 -235zM295 1203q0 142 105.5 240t259.5 98
t260 -100.5t106 -238.5t-104 -239q-80 -79 -206 -121l309 -298l215 440h170q-9 -8 -273 -548l370 -357l-109 -106l-333 322q-84 -149 -195 -235q-112 -86 -290 -86t-321.5 134.5t-143.5 310.5t114 310q87 102 223 160q-73 73 -115 141t-42 173zM1410 984z" />
    <glyph glyph-name="quotesingle" unicode="'" horiz-adv-x="406" 
d="M146 911l-25 604h166l-24 -604h-117z" />
    <glyph glyph-name="parenleft" unicode="(" horiz-adv-x="756" 
d="M96 565q0 319 183 604.5t448 380.5v-152q-211 -120 -344.5 -354t-133.5 -482t134 -481.5t344 -349.5v-152q-265 95 -448 381t-183 605z" />
    <glyph glyph-name="parenright" unicode=")" horiz-adv-x="756" 
d="M660 564q0 -319 -183 -604.5t-448 -380.5v152q211 120 344.5 353.5t133.5 481.5t-134 482t-344 350v152q265 -95 448 -381t183 -605z" />
    <glyph glyph-name="asterisk" unicode="*" horiz-adv-x="870" 
d="M496 1515l-7 -237l222 80l38 -118l-227 -66l145 -186l-100 -73l-133 196l-133 -196l-100 73l145 187l-227 65l38 118l223 -80l-8 237h124z" />
    <glyph glyph-name="plus" unicode="+" horiz-adv-x="1241" 
d="M550 445h-446v140h446v446h140v-446h446v-140h-446v-446h-140v446z" />
    <glyph glyph-name="comma" unicode="," horiz-adv-x="567" 
d="M29 -139l180 397h153l-180 -397h-153z" />
    <glyph glyph-name="hyphen" unicode="-" horiz-adv-x="680" 
d="M61 645h558v-137h-558v137z" />
    <glyph glyph-name="period" unicode="." horiz-adv-x="567" 
d="M209 258h152v-258h-152v258z" />
    <glyph glyph-name="slash" unicode="/" horiz-adv-x="895" 
d="M825 1515l-575 -1720h-160l575 1720h160z" />
    <glyph glyph-name="zero" unicode="0" horiz-adv-x="1135" 
d="M567 110q175 0 266.5 117.5t91.5 342.5v375q0 221 -92.5 340.5t-264.5 119.5t-265 -119.5t-93 -340.5v-375q0 -225 91 -342.5t266 -117.5zM568 -26q-234 0 -371.5 152.5t-137.5 411.5v438q0 260 137.5 412.5t371.5 152.5t371 -152.5t137 -412.5v-438q0 -259 -137 -411.5
t-371 -152.5z" />
    <glyph glyph-name="one" unicode="1" horiz-adv-x="1135" 
d="M534 0v1378h-258v137h410v-1515h-152z" />
    <glyph glyph-name="two" unicode="2" horiz-adv-x="1135" 
d="M1053 1083q0 -149 -104 -283t-526 -531l-141 -132h771v-137h-971v137l247 232q381 358 475 476t94 246t-93.5 221t-236.5 93t-234.5 -107t-79.5 -268h-153q-4 227 128.5 369t340.5 142t345.5 -133t137.5 -325z" />
    <glyph glyph-name="three" unicode="3" horiz-adv-x="1135" 
d="M941 1172q0 -192 -161 -303q65 -30 119 -77q138 -120 138 -302q0 -222 -137.5 -369t-345.5 -147t-344.5 141.5t-139.5 359.5h151q0 -153 94.5 -259t236.5 -106t238 97t96 243t-96 243.5t-241 97.5h-93v136h89q104 0 173 68q68 69 68 171t-68.5 170.5t-169.5 68.5
t-164.5 -75t-65.5 -192h-151q6 179 113.5 291t273.5 112t276.5 -105t110.5 -264z" />
    <glyph glyph-name="four" unicode="4" horiz-adv-x="1135" 
d="M793 276h-764v132l738 1107h178v-1102h137v-137h-137v-276h-152v276z" />
    <glyph glyph-name="five" unicode="5" horiz-adv-x="1135" 
d="M569 1029q223 1 370 -147t147 -374t-147 -380t-364 -154t-362.5 144t-159.5 365h152q31 -175 126.5 -274t244.5 -99t254 112t105 280t-105 279.5t-263 111.5q-89 0 -174.5 -47.5t-126.5 -118.5l-121 41l138 747h680v-137h-566l-79 -425q120 76 251 76z" />
    <glyph glyph-name="six" unicode="6" horiz-adv-x="1135" 
d="M566.5 898.5q-158.5 -0.5 -262.5 -112.5t-104 -282t104.5 -282t262.5 -112t263 112t105 282t-105 282.5t-263.5 112zM1086 504q0 -228 -147.5 -379t-368.5 -151t-371 154t-150 377q0 138 88 294q87 156 477 711h163q-211 -310 -335 -503q57 27 125 28q224 0 371.5 -151.5
t147.5 -379.5z" />
    <glyph glyph-name="seven" unicode="7" horiz-adv-x="1135" 
d="M129 1378v137h877v-133l-622 -1382h-168l638 1378h-725z" />
    <glyph glyph-name="eight" unicode="8" horiz-adv-x="1135" 
d="M567 766.5q-141 0.5 -236.5 -94t-95.5 -234.5t95.5 -234t236.5 -94t237 94t96 234t-96 234t-237 94.5zM572 903q101 0 173 72.5t72 178.5t-72 178.5t-178 72.5t-178 -72.5t-72 -174.5t77 -178.5t178 -76.5zM166 1163q0 160 115.5 269t285.5 109t285.5 -108.5
t115.5 -268.5t-116 -269q-30 -29 -65 -49q69 -32 125 -83q139 -127 139 -321t-139.5 -331t-344.5 -137t-344 137t-139 331t139 322q55 51 123 81q-180 118 -180 318z" />
    <glyph glyph-name="nine" unicode="9" horiz-adv-x="1135" 
d="M568 615.5q158 0.5 262 112.5t105 282q0 170 -104.5 282t-262.5 112t-263 -112t-105 -282t105 -282.5t263 -112zM568 479q-224 0 -371.5 151.5t-147.5 379.5t147.5 379t368.5 151t371 -148t150 -363q0 -151 -88 -311t-477 -715h-163q210 309 335 504q-58 -28 -125 -28z
" />
    <glyph glyph-name="colon" unicode=":" horiz-adv-x="567" 
d="M209 1121h152v-258h-152v258zM209 258h152v-258h-152v258z" />
    <glyph glyph-name="semicolon" unicode=";" horiz-adv-x="567" 
d="M210 1121h152v-258h-152v258zM29 -139l180 397h153l-180 -397h-153z" />
    <glyph glyph-name="less" unicode="&#x3c;" horiz-adv-x="1241" 
d="M94 454v122l1041 474v-138l-875 -395l875 -399v-138z" />
    <glyph glyph-name="equal" unicode="=" horiz-adv-x="1241" 
d="M104 792h1032v-140h-1032v140zM104 379h1032v-140h-1032v140z" />
    <glyph glyph-name="greater" unicode="&#x3e;" horiz-adv-x="1241" 
d="M1147 576v-122l-1041 -474v138l875 399l-875 395v138z" />
    <glyph glyph-name="question" unicode="?" horiz-adv-x="1210" 
d="M537 258h152v-258h-152v258zM925 1091q0 129 -93 217t-233 88t-223.5 -89.5t-99.5 -261.5h-145q-3 216 133 356t340 140t338.5 -130.5t134.5 -319.5q0 -112 -44 -187.5t-155 -177.5t-150 -176t-39 -156h-152q0 221 215 415q110 100 141.5 151.5t31.5 130.5z" />
    <glyph glyph-name="at" unicode="@" horiz-adv-x="1776" 
d="M904 1035q-112 0 -194 -102.5t-82 -236.5t64 -199.5t180 -65.5q79 0 148.5 87.5t91.5 214.5t-37 214.5t-171 87.5zM1277 432q100 0 171.5 126.5t71.5 302.5q0 259 -159 411.5t-443 152.5t-472 -186.5t-188 -484.5t188.5 -482t498.5 -184q124 0 258.5 28.5t229.5 75.5
l31 -103q-95 -52 -237.5 -83.5t-281.5 -31.5q-366 0 -589 216t-223 554t233.5 569t557.5 231t522.5 -185.5t198.5 -489.5q0 -226 -111.5 -388.5t-265.5 -162.5q-93 0 -140 90q-18 33 -25 73l-41 -49q-108 -114 -246 -114t-223 100t-85 283t109 316t269 133t241 -122
q23 -35 36 -72l29 168h122l-87 -496q-20 -108 -9 -152t59 -44z" />
    <glyph glyph-name="A" unicode="A" horiz-adv-x="1516" 
d="M676 1515h166l651 -1515h-166l-216 512h-712l-214 -512h-160z" />
    <glyph glyph-name="B" unicode="B" horiz-adv-x="1176" 
d="M304 727v-591h315q161 0 251.5 78t90.5 217t-99.5 217.5t-275.5 78.5h-282zM304 1379v-516h267q142 0 222.5 67.5t80.5 189.5t-86 190.5t-239 68.5h-245zM1115 427q0 -201 -131.5 -314t-364.5 -113h-467v1515h397q225 0 352 -102.5t127 -302t-176 -297.5
q263 -109 263 -386z" />
    <glyph glyph-name="C" unicode="C" horiz-adv-x="1665" 
d="M885 -26q-334 0 -565.5 227t-231.5 556t231.5 556.5t565.5 227.5q214 0 405.5 -117t273.5 -298h-164q-72 123 -216.5 201t-298.5 78q-270 0 -456.5 -188t-186.5 -460t186.5 -459.5t456.5 -187.5q159 0 307.5 80.5t222.5 206.5h164q-83 -184 -279 -303.5t-415 -119.5z" />
    <glyph glyph-name="D" unicode="D" horiz-adv-x="1524" 
d="M304 136h292q314 0 498 167.5t184 453.5t-186.5 454t-505.5 168h-282v-1243zM152 0v1515h434q381 0 613.5 -205t232.5 -546t-229.5 -552.5t-606.5 -211.5h-444z" />
    <glyph glyph-name="E" unicode="E" horiz-adv-x="1098" 
d="M143 0v1515h830v-137h-678v-545h657v-137h-657v-559h678v-137h-830z" />
    <glyph glyph-name="F" unicode="F" horiz-adv-x="993" 
d="M143 0v1515h766v-137h-614v-545h591v-137h-591v-696h-152z" />
    <glyph glyph-name="G" unicode="G" horiz-adv-x="1786" 
d="M896 -26q-339 0 -576.5 227t-237.5 556t240 556.5t587 227.5q223 0 422.5 -120.5t283.5 -306.5h-177q-76 128 -221.5 209.5t-299.5 81.5q-286 0 -483.5 -188t-197.5 -460t196 -459.5t470 -187.5t457 188q113 117 156 262h-845v137h1024q-19 -291 -229 -496
q-230 -227 -569 -227z" />
    <glyph glyph-name="H" unicode="H" horiz-adv-x="1399" 
d="M156 0v1515h152v-667h783v667h152v-1515h-152v711h-783v-711h-152z" />
    <glyph glyph-name="I" unicode="I" horiz-adv-x="463" 
d="M156 0v1515h152v-1515h-152z" />
    <glyph glyph-name="J" unicode="J" horiz-adv-x="987" 
d="M671 1515h152v-1119q0 -198 -107.5 -310t-287.5 -112t-294 109t-122 277h148q18 -113 91 -185t182 -72t173.5 76t64.5 217v1119z" />
    <glyph glyph-name="K" unicode="K" horiz-adv-x="1210" 
d="M166 0v1515h152v-874l702 874h190l-607 -741l607 -774h-192l-508 662l-192 -235v-427h-152z" />
    <glyph glyph-name="L" unicode="L" horiz-adv-x="946" 
d="M168 0v1515h152v-1378h626v-137h-778z" />
    <glyph glyph-name="M" unicode="M" horiz-adv-x="1882" 
d="M308 0h-152v1515h115l670 -1310l554 1310h231v-1515h-152v1338l-566 -1338h-134l-566 1338v-1338z" />
    <glyph glyph-name="N" unicode="N" horiz-adv-x="1516" 
d="M306 0h-152v1515h103l951 -1252v1252h152v-1515h-76l-978 1332v-1332z" />
    <glyph glyph-name="O" unicode="O" horiz-adv-x="1780" 
d="M890 110q272 0 460 187.5t188 459.5t-188 460t-460 188t-460 -188t-188 -460t188 -459.5t460 -187.5zM890 -26q-336 0 -569 227t-233 556t233 556.5t569 227.5t569 -227.5t233 -556.5t-233 -556t-569 -227z" />
    <glyph glyph-name="P" unicode="P" horiz-adv-x="1212" 
d="M306 744h298q187 0 292 84t105 233t-105 233.5t-292 84.5h-298v-635zM154 0v1515h450q259 0 405 -120.5t146 -333.5t-146 -333t-405 -120h-298v-608h-152z" />
    <glyph glyph-name="Q" unicode="Q" horiz-adv-x="1784" 
d="M586 486q-158 0 -249 -30l-25 -9q47 -80 117 -150q193 -187 471 -187q189 0 340 87l-63 55q-266 234 -591 234zM1564 757q0 272 -193 460t-471 188t-471 -188t-193 -460q1 -99 25 -187q133 52 327 52t359.5 -64t321.5 -206l83 -73l20 19q192 187 192 459zM1718 753
q0 -333 -250 -564l39 -26q94 -58 161 -58h22v-136h-60q-70 0 -178 67l-95 66q-199 -128 -457 -128q-343 0 -580.5 227t-237.5 556t237 556.5t581 227.5t581 -227.5t237 -560.5z" />
    <glyph glyph-name="R" unicode="R" horiz-adv-x="1243" 
d="M143 0v1515h462q266 0 416 -127.5t150 -353.5t-150 -354q-116 -97 -301 -121l433 -559h-192l-519 689h163q194 0 303 91.5t109 253.5t-109 253.5t-303 91.5h-310v-1379h-152z" />
    <glyph glyph-name="S" unicode="S" horiz-adv-x="1020" 
d="M508 1405q-114 0 -194 -73.5t-80 -179.5t70 -169t266 -116t298 -163t101 -292q0 -182 -134 -310t-334 -128t-328 125t-128 325h150q17 -154 96.5 -234t213.5 -80t225 85t91 211q1 126 -79 202t-276 128q-196 54 -288 150t-92 260q0 163 123 279t303 116t300.5 -117.5
t120.5 -294.5h-148q-14 127 -88.5 201.5t-188.5 74.5z" />
    <glyph glyph-name="T" unicode="T" horiz-adv-x="872" 
d="M359 0v1378h-347v137h846v-137h-347v-1378h-152z" />
    <glyph glyph-name="U" unicode="U" horiz-adv-x="1341" 
d="M1185 567q0 -285 -133.5 -439t-375.5 -154t-382 160t-140 433v948h152v-967q0 -201 99 -319t269 -118t264.5 113.5t94.5 323.5v967h152v-948z" />
    <glyph glyph-name="V" unicode="V" horiz-adv-x="1438" 
d="M1261 1515h159l-625 -1515h-153l-626 1515h82l624 -1336z" />
    <glyph glyph-name="W" unicode="W" horiz-adv-x="1966" 
d="M1793 1515h153l-432 -1515h-97l-433 1229l-335 -1229h-194l-432 1515h79l453 -1348l355 1348h76l434 -1346z" />
    <glyph glyph-name="X" unicode="X" horiz-adv-x="1247" 
d="M43 1515h183l400 -601l399 601h178l-489 -735l519 -780h-183l-428 644l-428 -644h-178l518 778z" />
    <glyph glyph-name="Y" unicode="Y" horiz-adv-x="1212" 
d="M683 0h-152v507l-529 1008h175l435 -861l431 861h169l-529 -1009v-506z" />
    <glyph glyph-name="Z" unicode="Z" horiz-adv-x="983" 
d="M56 1378v137h891v-133l-743 -1245h759v-137h-938v133l744 1245h-713z" />
    <glyph glyph-name="bracketleft" unicode="[" horiz-adv-x="719" 
d="M272 193v776q0 422 418 572v-152q-148 -85 -206.5 -176.5t-58.5 -240.5v-750q0 -171 54.5 -260.5t210.5 -175.5v-152q-418 150 -418 559z" />
    <glyph glyph-name="backslash" unicode="\" horiz-adv-x="1239" 
d="M819 -205l-577 1720h158l577 -1720h-158z" />
    <glyph glyph-name="bracketright" unicode="]" horiz-adv-x="719" 
d="M447 982v-776q0 -422 -418 -572v152q148 85 206.5 176.5t58.5 240.5v750q0 171 -54.5 260.5t-210.5 175.5v152q418 -150 418 -559z" />
    <glyph glyph-name="asciicircum" unicode="^" horiz-adv-x="1241" 
d="M555 1515h130l447 -887h-140l-369 733l-367 -733h-147z" />
    <glyph glyph-name="underscore" unicode="_" horiz-adv-x="1024" 
d="M0 -256v102h1024v-102h-1024z" />
    <glyph glyph-name="grave" unicode="`" horiz-adv-x="774" 
d="M547 1267l-406 220l67 122l404 -223z" />
    <glyph glyph-name="a" unicode="a" horiz-adv-x="1399" 
d="M682 1020q-190 0 -321 -134t-131 -328t131 -327.5t321 -133.5t321 134t131 328t-131 327.5t-321 133.5zM678 -26q-248 0 -420 170t-172 416t172 416.5t420 170.5t413 -171l37 -43v188h144v-1121h-144v187q-17 -23 -37 -43q-165 -170 -413 -170z" />
    <glyph glyph-name="b" unicode="b" horiz-adv-x="1397" 
d="M730 101q190 0 320.5 133.5t130.5 327.5t-130.5 328t-320.5 134t-321 -133.5t-131 -327.5t131 -328t321 -134zM139 1515h144v-583l41 45q168 170 417 170t416.5 -170.5t167.5 -416.5t-167.5 -416t-416.5 -170t-417 171l-41 46v-191h-144v1515z" />
    <glyph glyph-name="c" unicode="c" horiz-adv-x="1325" 
d="M692 -26q-255 0 -431.5 170t-176.5 416t176.5 416.5t431.5 170.5q182 0 328 -96t223 -266h-153q-65 110 -170.5 172.5t-227.5 62.5q-195 0 -329.5 -133.5t-134.5 -326.5t134.5 -326t329.5 -133q125 0 230.5 59.5t167.5 164.5h153q-75 -165 -221 -258t-330 -93z" />
    <glyph glyph-name="d" unicode="d" horiz-adv-x="1403" 
d="M676 1020q-190 0 -321 -134t-131 -328t131 -327.5t321 -133.5t321 134t131 328t-131 327.5t-321 133.5zM665 -26q-249 0 -417 170t-168 416t168 416.5t417 170.5t417 -171l40 -45v584h144v-1515h-144v189l-40 -45q-168 -170 -417 -170z" />
    <glyph glyph-name="e" unicode="e" horiz-adv-x="1331" 
d="M662 1020q-184 0 -313 -134q-99 -105 -123 -251h870q-21 146 -123 252q-127 133 -311 133zM666 101q271 0 395 263h149q-60 -175 -211 -282.5t-338 -107.5q-244 0 -413.5 170t-169.5 416t169.5 416.5t414.5 170.5t414 -170t169 -417q1 -27 -3 -54h-1017q15 -157 135 -281
t306 -124z" />
    <glyph glyph-name="f" unicode="f" horiz-adv-x="643" 
d="M358 992v-992h-144v992h-175v129h175v23q0 191 103 294t293 103h33v-127q-145 -1 -215 -62.5t-70 -190.5v-40h285v-129h-285z" />
    <glyph glyph-name="g" unicode="g" horiz-adv-x="1378" 
d="M662 1024q-186 0 -314 -134t-128 -328t128 -327.5t314 -133.5t313.5 134t127.5 328t-127.5 327.5t-313.5 133.5zM683 -310q203 0 308.5 111.5t105.5 325.5v62l-38 -44q-165 -171 -409 -171t-409 170t-165 416t165 416.5t409 170.5t409 -170l38 -43v187h144v-977
q0 -279 -145.5 -430t-413.5 -151q-214 0 -362 107.5t-197 297.5h153q49 -131 157 -204.5t250 -73.5z" />
    <glyph glyph-name="h" unicode="h" horiz-adv-x="1249" 
d="M127 0v1515h144v-538l22 27q119 146 339 146t350 -143t130 -398v-609h-144v613q0 191 -92 299t-258 108t-256.5 -109.5t-90.5 -312.5v-598h-144z" />
    <glyph glyph-name="i" unicode="i" horiz-adv-x="410" 
d="M134 1515h142v-257h-142v257zM133 0v1121h144v-1121h-144z" />
    <glyph glyph-name="j" unicode="j" horiz-adv-x="416" 
d="M138 1515h142v-257h-142v257zM137 1121h144v-1040q0 -241 -88.5 -357t-272.5 -116h-9v136q119 0 172.5 79t53.5 258v1040z" />
    <glyph glyph-name="k" unicode="k" horiz-adv-x="1028" 
d="M143 0v1515h144v-1083l528 689h179l-441 -562l467 -559h-188l-365 450l-180 -229v-221h-144z" />
    <glyph glyph-name="l" unicode="l" horiz-adv-x="410" 
d="M133 0v1515h144v-1515h-144z" />
    <glyph glyph-name="m" unicode="m" horiz-adv-x="1921" 
d="M974 936q98 214 366 214q204 0 325 -133t121 -369v-648h-144v664q0 167 -81 261.5t-225 94.5t-223.5 -94.5t-79.5 -268.5v-657h-144v663q0 168 -81.5 262.5t-225.5 94.5t-223.5 -94.5t-79.5 -268.5v-657h-144v1121h143v-115l12 14q107 130 297 130q271 0 387 -214z" />
    <glyph glyph-name="n" unicode="n" horiz-adv-x="1249" 
d="M133 0v1121h143v-145l23 28q119 146 339 146t350 -143t130 -398v-609h-144v613q0 191 -92 299t-258 108t-256.5 -109.5t-90.5 -312.5v-598h-144z" />
    <glyph glyph-name="o" unicode="o" horiz-adv-x="1341" 
d="M672 101q186 0 313.5 133t127.5 326t-127.5 326.5t-313.5 133.5t-314 -133.5t-128 -326.5t128 -326t314 -133zM672 -26q-246 0 -416 170t-170 416t170 416.5t416 170.5t415.5 -170.5t169.5 -416.5t-169.5 -416t-415.5 -170z" />
    <glyph glyph-name="p" unicode="p" horiz-adv-x="1397" 
d="M722 101q190 0 320.5 133.5t130.5 327.5t-131 328t-321 134t-321 -133.5t-131 -327.5h1q0 -194 131 -328t321 -134zM131 1121h144v-188l40 44q167 170 417 170t417.5 -170.5t167.5 -416.5t-167.5 -416t-416.5 -170t-417 171l-41 46v-585h-144v1515z" />
    <glyph glyph-name="q" unicode="q" horiz-adv-x="1397" 
d="M672 1020q-190 0 -321 -134t-131 -328t131 -327.5t321 -133.5t321 134t131 328t-131 327.5t-321 133.5zM661 -26q-249 0 -417 170t-168 416t168 416.5t417 170.5t417 -171l40 -45v190h144v-1515h-144v583l-40 -45q-168 -170 -417 -170z" />
    <glyph glyph-name="r" unicode="r" horiz-adv-x="616" 
d="M133 0v1121h143v-161q84 181 320 190v-151q-143 -11 -231 -99t-88 -261v-639h-144z" />
    <glyph glyph-name="s" unicode="s" horiz-adv-x="795" 
d="M392 1020q-76 0 -121 -47t-45 -119t46 -113t186 -87q288 -94 288 -351q0 -141 -99.5 -235t-254.5 -94t-249 96.5t-94 260.5h145q-2 -108 52 -169t149 -61t150 52t55 139.5t-53 141.5t-193 100t-207 117t-67 195t89 212.5t227 88.5t224 -83.5t86 -219.5h-145
q1 77 -46 126.5t-123 49.5z" />
    <glyph glyph-name="t" unicode="t" horiz-adv-x="694" 
d="M267 0v992h-238v129h238v392h144v-392h265v-129h-265v-992h-144z" />
    <glyph glyph-name="u" unicode="u" horiz-adv-x="1245" 
d="M127 453v668h144v-665q0 -167 89.5 -260.5t253.5 -93.5t257 110t93 314v595h144v-1121h-135v180q-113 -206 -351 -206q-239 0 -367 127t-128 352z" />
    <glyph glyph-name="v" unicode="v" horiz-adv-x="1135" 
d="M966 1121h153l-472 -1121h-161l-472 1121h78l477 -972z" />
    <glyph glyph-name="w" unicode="w" horiz-adv-x="1702" 
d="M1528 1121h151l-430 -1121h-80l-316 759l-234 -759h-161l-431 1121h77l432 -949l257 814h62l322 -812z" />
    <glyph glyph-name="x" unicode="x" horiz-adv-x="983" 
d="M26 1121h175l293 -433l293 433h170l-380 -559l381 -562h-175l-293 435l-295 -435h-170l381 561z" />
    <glyph glyph-name="y" unicode="y" horiz-adv-x="1098" 
d="M414 -398h-141l192 449l-434 1070h156l352 -896l380 896h152z" />
    <glyph glyph-name="z" unicode="z" horiz-adv-x="870" 
d="M41 992v129h771v-126l-612 -866h650v-129h-830v126l614 866h-593z" />
    <glyph glyph-name="braceleft" unicode="{" horiz-adv-x="719" 
d="M678 -267v-123q-220 0 -286 65t-65 233l1 50v258q6 129 -44 205t-141 76v134q91 0 141 76t44 205v258l-1 50q-1 168 65 233t286 65v-123q-130 0 -166.5 -41.5t-29.5 -183.5v-258l1 -34q0 -242 -175 -314q175 -71 175 -314l-1 -34v-258q-7 -142 29.5 -183.5t166.5 -41.5z
" />
    <glyph glyph-name="bar" unicode="|" horiz-adv-x="1376" 
d="M612 -512v2048h152v-2048h-152z" />
    <glyph glyph-name="braceright" unicode="}" horiz-adv-x="719" 
d="M41 1395v123q219 0 285 -65t66 -233l-1 -50v-258q-6 -129 44 -205t141 -76v-134q-91 0 -141 -76t-44 -205v-258l1 -50q0 -168 -66 -233t-285 -65v123q130 0 166.5 41.5t29.5 183.5v258l-1 34q0 243 175 314q-175 72 -175 314l1 34v258q7 142 -29.5 183.5t-166.5 41.5z
" />
    <glyph glyph-name="asciitilde" unicode="~" horiz-adv-x="1241" 
d="M394 522q-107 0 -176 -154l-71 101q44 83 111.5 129.5t131.5 46.5t117 -16t170 -73t163 -57q47 0 86.5 32t95.5 117l71 -101q-42 -72 -111.5 -121.5t-129.5 -49.5t-105 15t-138 62t-128.5 58t-86.5 11z" />
    <glyph glyph-name="uni00A0" unicode="&#xa0;" horiz-adv-x="567" 
 />
    <glyph glyph-name="exclamdown" unicode="&#xa1;" horiz-adv-x="604" 
d="M377 864h-152v258h152v-258zM377 731v-1120h-152v1120h152z" />
    <glyph glyph-name="cent" unicode="&#xa2;" horiz-adv-x="1135" 
d="M503 1447h153v-195q118 -16 226 -88t163 -215h-165q-41 81 -118.5 126.5t-173.5 45.5q-142 0 -240 -97.5t-98 -239.5t98 -239t240 -97q88 0 161 38.5t113 107.5h171q-60 -132 -178 -206q-89 -56 -199 -71v-192h-153v194q-151 25 -263 132q-142 135 -142 333t142 335
q113 108 263 129v199z" />
    <glyph glyph-name="sterling" unicode="&#xa3;" horiz-adv-x="1135" 
d="M582 374q0 -112 -62 -244h94q214 0 306.5 111t42.5 307h151q70 -227 -74.5 -387.5t-419.5 -160.5h-559v130h312l13 34q48 116 48 202t-35 154.5t-110 139.5l-56 55h-225v131h130l-3 4q-49 92 -49 190q0 225 133 363t337 138t340 -123t157 -312h-148q-68 306 -333 306
q-150 0 -242 -101.5t-92 -268.5q0 -102 65 -196h576v-131h-459q162 -166 162 -341z" />
    <glyph glyph-name="currency" unicode="&#xa4;" horiz-adv-x="1135" 
d="M835 282q-116 -87 -268 -86t-269 84l-195 -195l-87 87l198 198q-89 113 -88 266q0 153 88 267l-198 198l87 87l197 -197q115 85 267 85t268 -85l197 197l87 -87l-199 -199q88 -112 88 -265t-87 -267l198 -198l-87 -87zM885 636q0 134 -92 226t-226 92t-226 -92t-92 -226
t92 -226t226 -92t226 92t92 226z" />
    <glyph glyph-name="yen" unicode="&#xa5;" horiz-adv-x="1135" 
d="M71 768v129h308l-371 618h164l397 -666l391 666h167l-369 -618h308v-129h-386l-36 -61v-113h422v-129h-422v-465h-152v465h-421v129h421v114l-36 60h-385z" />
    <glyph glyph-name="brokenbar" unicode="&#xa6;" horiz-adv-x="1376" 
d="M612 682v683h152v-683h-152zM612 -342v683h152v-683h-152z" />
    <glyph glyph-name="section" unicode="&#xa7;" horiz-adv-x="1260" 
d="M932 572q0 69 -45.5 116t-169.5 108l-153 75q-63 31 -112 61l-44 -33q-82 -73 -82 -179q0 -55 46.5 -99t173.5 -109l156 -79q67 -34 119 -67l29 24q82 74 82 182zM917 295q113 -85 113 -253q0 -131 -111.5 -231.5t-284.5 -100.5t-286.5 112.5t-119.5 299.5h151
q4 -127 76 -201.5t180 -74.5t175.5 60t67.5 142t-50 136t-188 124l-156 79q-179 91 -244.5 158.5t-65.5 160.5q0 151 127 255q28 23 58 40l-24 26q-61 73 -61 200t103 221t261 93q158 0 255 -79.5t91 -211.5h-144q-5 71 -62.5 113t-145.5 42t-147 -53.5t-59 -129.5
t41.5 -123t155.5 -103l153 -75q178 -87 243 -160.5t65 -187.5q0 -147 -127 -249z" />
    <glyph glyph-name="dieresis" unicode="&#xa8;" horiz-adv-x="756" 
d="M451 1567h152v-258h-152v258zM150 1567h152v-258h-152v258z" />
    <glyph glyph-name="copyright" unicode="&#xa9;" horiz-adv-x="1530" 
d="M1436 758q0 282 -194 476t-478 195q-284 -1 -478 -195t-194 -476t195 -476t477 -195q282 1 477 195t195 476zM764 1539q328 -1 554 -227t227 -554q-1 -328 -227 -554t-554 -227q-328 1 -554 227t-227 554q1 328 227 554t554 227zM451 759q-1 -165 89 -265t237 -99
q109 0 181 54t93 154h113q-14 -129 -127 -221t-260 -91q-195 1 -319 131t-125 336q1 206 125 336t319 130q149 0 261 -88t126 -220h-113q-47 204 -274 204q-150 0 -238 -98t-88 -263z" />
    <glyph glyph-name="ordfeminine" unicode="&#xaa;" horiz-adv-x="756" 
d="M360 1430q-102 0 -172.5 -69t-70.5 -173t70.5 -172t176.5 -68t176.5 68.5t70.5 168.5t-74.5 172.5t-176.5 72.5zM348 834q-145 0 -249 104t-104 250t104 251t249 105q203 0 258 -131v112h123v-674h-123v114q-55 -131 -258 -131z" />
    <glyph glyph-name="guillemotleft" unicode="&#xab;" horiz-adv-x="870" 
d="M790 919l-194 -344l194 -345l-119 -68l-233 413l233 412zM434 919l-194 -344l194 -345l-119 -68l-233 413l233 412z" />
    <glyph glyph-name="logicalnot" unicode="&#xac;" horiz-adv-x="1241" 
d="M996 655h-892v140h1032v-570h-140v430z" />
    <glyph glyph-name="uni00AD" unicode="&#xad;" horiz-adv-x="680" 
d="M61 645h558v-137h-558v137z" />
    <glyph glyph-name="registered" unicode="&#xae;" horiz-adv-x="1530" 
d="M1432 758q0 286 -194 484t-474 197q-280 1 -474 -197t-194 -484t194 -484t474 -197q280 -1 474 197t194 484zM764 1539q328 -1 554 -227t227 -554q-1 -328 -227 -554t-554 -227q-328 1 -554 227t-227 554q1 328 227 554t554 227zM1006 946q0 146 -223 146h-241v-310h222
q242 0 242 164zM430 304v893h353q175 0 255 -58t81 -185q0 -127 -78 -182q-34 -24 -86 -37q59 -15 101 -59t50 -164l8 -120q6 -70 19 -88h-112q-13 25 -21 116l-5 71q-7 115 -53 153t-175 38h-225v-378h-112z" />
    <glyph glyph-name="macron" unicode="&#xaf;" horiz-adv-x="1024" 
d="M0 1668v103h1024v-103h-1024z" />
    <glyph glyph-name="degree" unicode="&#xb0;" horiz-adv-x="819" 
d="M602 1156q0 80 -56 136t-137 56t-136.5 -56t-55.5 -136t55.5 -135.5t136.5 -55.5t137 55.5t56 135.5zM410 1451q124 0 209 -85.5t85 -209.5t-85 -209t-209 -85t-209.5 85t-85.5 209t85.5 209.5t209.5 85.5z" />
    <glyph glyph-name="plusminus" unicode="&#xb1;" horiz-adv-x="1241" 
d="M104 91h1032v-140h-1032v140zM550 558h-446v140h446v363h140v-363h446v-140h-446v-363h-140v363z" />
    <glyph glyph-name="uni00B2" unicode="&#xb2;" horiz-adv-x="680" 
d="M651 1260q0 -106 -62 -184q-62 -80 -313 -308l-56 -51h431v-111h-612v105l158 144q222 201 277 267t55 133t-52 115t-132 48t-131 -62t-44 -155h-119q-2 146 81 237.5t214 91.5t218 -82t87 -188z" />
    <glyph glyph-name="uni00B3" unicode="&#xb3;" horiz-adv-x="680" 
d="M467 1297q0 52 -37.5 86.5t-91.5 34.5t-88 -42.5t-35 -108.5h-117q4 117 73 190t175 73t176.5 -64.5t70.5 -158.5t-75 -162l-19 -16q35 -18 65 -46q87 -81 87 -205t-87.5 -205.5t-223.5 -81.5t-218.5 85.5t-84.5 233.5h121q0 -87 52.5 -147t130.5 -60t131.5 51.5
t53.5 129.5t-53.5 129.5t-133.5 51.5h-72v112h69q56 0 94 34q37 34 37 86z" />
    <glyph glyph-name="acute" unicode="&#xb4;" horiz-adv-x="768" 
d="M160 1387l409 220l67 -122l-411 -218z" />
    <glyph glyph-name="mu" unicode="&#xb5;" horiz-adv-x="1245" 
d="M308 -375h-144v1496h144v-614q0 -182 86 -292.5t220 -110.5t227.5 100t93.5 233v684h144v-1121l-143 140q-93 -166 -313 -166q-176 0 -260 84q-32 34 -55 81v-514z" />
    <glyph glyph-name="paragraph" unicode="&#xb6;" horiz-adv-x="1155" 
d="M45 1111q0 186 122.5 295t331.5 109h629v-113h-131v-1629h-126v1629h-246v-1629h-126v934q-207 2 -330.5 110t-123.5 294z" />
    <glyph glyph-name="periodcentered" unicode="&#xb7;" horiz-adv-x="567" 
d="M209 886h152v-258h-152v258z" />
    <glyph glyph-name="cedilla" unicode="&#xb8;" horiz-adv-x="664" 
d="M436 -275q0 46 -25 72.5t-60 26.5q-74 0 -98 -45l-77 39l83 182h86l-49 -118q39 14 66 14q67 0 113 -48t46 -122t-50.5 -127t-123.5 -53q-150 0 -183 147l85 9q25 -81 95 -81q41 0 66.5 29t25.5 75z" />
    <glyph glyph-name="uni00B9" unicode="&#xb9;" horiz-adv-x="680" 
d="M284 606v797h-155v112h278v-909h-123z" />
    <glyph glyph-name="ordmasculine" unicode="&#xba;" horiz-adv-x="756" 
d="M381 948q100 0 163 65t63 171t-65.5 174.5t-163.5 68.5t-164 -69.5t-66 -169.5t66.5 -170t166.5 -70zM377 834q-148 0 -250 103t-102 251t102 250.5t250 102.5t250 -102.5t102 -250.5t-102 -251t-250 -103z" />
    <glyph glyph-name="guillemotright" unicode="&#xbb;" horiz-adv-x="870" 
d="M436 230l194 344l-194 345l119 68l233 -413l-233 -412zM80 230l194 344l-194 345l119 68l233 -413l-233 -412z" />
    <glyph glyph-name="onequarter" unicode="&#xbc;" horiz-adv-x="1702" 
d="M1177 1515l-681 -1515h-121l681 1515h121zM360 606v797h-155v112h278v-909h-123zM1284 159h-452v107l442 643h133v-639h86v-111h-86v-159h-123v159z" />
    <glyph glyph-name="onehalf" unicode="&#xbd;" horiz-adv-x="1702" 
d="M1141 1515l-681 -1515h-121l681 1515h121zM321 606v797h-155v112h278v-909h-123zM1536 654q0 -106 -62 -184q-62 -80 -313 -308l-56 -51h431v-111h-612v105l158 144q222 201 277 267t55 133t-52 115t-132 48t-131 -62t-44 -155h-119q-2 145 81 237t214 92t218 -82
t87 -188z" />
    <glyph glyph-name="threequarters" unicode="&#xbe;" horiz-adv-x="1702" 
d="M1322 1515l-681 -1515h-121l681 1515h121zM524 1297q0 53 -38 87t-91 34q-54 0 -88 -42t-35 -109h-117q5 117 73 190t174 73t178 -64q70 -64 70 -159q0 -94 -75 -162l-19 -16q35 -18 65 -46q87 -81 87 -205t-88 -206t-223 -81q-137 -1 -219 85t-84 234h121q1 -87 53 -147
t130 -60q78 -1 132 51t53 130q1 78 -53 129q-54 52 -134 52h-72v112h69q56 0 94 34q37 34 37 86zM1397 159h-452v107l442 643h133v-639h86v-111h-86v-159h-123v159z" />
    <glyph glyph-name="questiondown" unicode="&#xbf;" horiz-adv-x="1210" 
d="M673 862h-152v258h152v-258zM285 29q0 -129 93 -217t233 -88t223.5 89.5t99.5 261.5h145q3 -216 -133 -356t-340 -140t-338.5 130.5t-134.5 319.5q0 112 44 187.5t155 177.5t150 176t39 156h152q0 -221 -215 -415q-110 -100 -141.5 -151.5t-31.5 -130.5z" />
    <glyph glyph-name="Agrave" unicode="&#xc0;" horiz-adv-x="1516" 
d="M676 1515h166l651 -1515h-166l-216 512h-712l-214 -512h-160zM901 1600l-406 220l67 122l404 -223z" />
    <glyph glyph-name="Aacute" unicode="&#xc1;" horiz-adv-x="1516" 
d="M676 1515h166l651 -1515h-166l-216 512h-712l-214 -512h-160zM569 1720l409 220l67 -122l-411 -218z" />
    <glyph glyph-name="Acircumflex" unicode="&#xc2;" horiz-adv-x="1516" 
d="M676 1515h166l651 -1515h-166l-216 512h-712l-214 -512h-160zM692 1897h134l295 -255h-183l-172 150l-180 -150h-189z" />
    <glyph glyph-name="Atilde" unicode="&#xc3;" horiz-adv-x="1516" 
d="M676 1515h166l651 -1515h-166l-216 512h-712l-214 -512h-160zM920 1667q-42 -1 -78 9q-34 10 -118 43t-112 33t-68 -18t-67 -46l-71 101q31 37 92 63t124 26t153 -42t139 -43q49 0 127 53l71 -101q-34 -33 -92 -55t-100 -23z" />
    <glyph glyph-name="Adieresis" unicode="&#xc4;" horiz-adv-x="1516" 
d="M676 1515h166l651 -1515h-166l-216 512h-712l-214 -512h-160zM833 1900h152v-258h-152v258zM532 1900h152v-258h-152v258z" />
    <glyph glyph-name="Aring" unicode="&#xc5;" horiz-adv-x="1516" 
d="M676 1515h166l651 -1515h-166l-216 512h-712l-214 -512h-160zM759 1639q45 1 75 31t31 74q-1 44 -31 74t-75 31q-45 -1 -75 -31t-31 -74q1 -44 31 -74t75 -31zM759 1532q-89 0 -151 62t-61 150q-1 88 61 150t151 62t151 -62t61 -150q1 -88 -61 -150t-151 -62z" />
    <glyph glyph-name="AE" unicode="&#xc6;" horiz-adv-x="2032" 
d="M1058 649v677l-469 -677h469zM1058 0v512h-564l-354 -512h-180l1055 1515h843v-137h-648v-545h628v-137h-628v-559h648v-137h-800z" />
    <glyph glyph-name="Ccedilla" unicode="&#xc7;" horiz-adv-x="1665" 
d="M955 -275q0 47 -25 73t-60 26q-74 0 -98 -45l-77 39l74 163q-259 33 -449 220q-232 227 -232 556t232 557t565 227q213 0 405 -117t274 -298h-164q-72 123 -216 201t-299 78q-271 0 -457 -188t-186 -460q0 -271 186 -459t457 -188q159 0 307 80t223 207h164
q-83 -183 -279 -303t-415 -120q-16 0 -32 1l-38 -93q39 14 66 14q67 0 113 -48t46 -122t-50 -127t-124 -53q-150 0 -183 147l85 9q25 -81 95 -81q41 0 67 29t25 75z" />
    <glyph glyph-name="Egrave" unicode="&#xc8;" horiz-adv-x="1098" 
d="M143 0v1515h830v-137h-678v-545h657v-137h-657v-559h678v-137h-830zM707 1600l-406 220l67 122l404 -223z" />
    <glyph glyph-name="Eacute" unicode="&#xc9;" horiz-adv-x="1098" 
d="M143 0v1515h830v-137h-678v-545h657v-137h-657v-559h678v-137h-830zM330 1720l409 220l67 -122l-411 -218z" />
    <glyph glyph-name="Ecircumflex" unicode="&#xca;" horiz-adv-x="1098" 
d="M143 0v1515h830v-137h-678v-545h657v-137h-657v-559h678v-137h-830zM483 1897h134l295 -255h-183l-172 150l-180 -150h-189z" />
    <glyph glyph-name="Edieresis" unicode="&#xcb;" horiz-adv-x="1098" 
d="M143 0v1515h830v-137h-678v-545h657v-137h-657v-559h678v-137h-830zM624 1900h152v-258h-152v258zM323 1900h152v-258h-152v258z" />
    <glyph glyph-name="Igrave" unicode="&#xcc;" horiz-adv-x="463" 
d="M159 0v1515h152v-1515h-152zM377 1600l-406 220l67 122l404 -223z" />
    <glyph glyph-name="Iacute" unicode="&#xcd;" horiz-adv-x="463" 
d="M170 0v1515h152v-1515h-152zM56 1720l409 220l67 -122l-411 -218z" />
    <glyph glyph-name="Icircumflex" unicode="&#xce;" horiz-adv-x="463" 
d="M156 0v1515h152v-1515h-152zM165 1897h134l295 -255h-183l-172 150l-180 -150h-189z" />
    <glyph glyph-name="Idieresis" unicode="&#xcf;" horiz-adv-x="463" 
d="M155 0v1515h152v-1515h-152zM305 1900h152v-258h-152v258zM4 1900h152v-258h-152v258z" />
    <glyph glyph-name="Eth" unicode="&#xd0;" horiz-adv-x="1618" 
d="M398 1379v-553h366v-137h-366v-553h336q320 0 473.5 152t152.5 469q1 317 -155 469.5t-480 152.5h-327zM246 0v689h-164v137h164v689h479q789 0 789 -742v-4q2 -769 -780 -769h-488z" />
    <glyph glyph-name="Ntilde" unicode="&#xd1;" horiz-adv-x="1516" 
d="M306 0h-152v1515h103l951 -1252v1252h152v-1515h-76l-978 1332v-1332zM918 1667q-42 -1 -78 9q-34 10 -118 43t-112 33t-68 -18t-67 -46l-71 101q31 37 92 63t124 26t153 -42t139 -43q49 0 127 53l71 -101q-34 -33 -92 -55t-100 -23z" />
    <glyph glyph-name="Ograve" unicode="&#xd2;" horiz-adv-x="1780" 
d="M890 110q272 0 460 188t188 459q0 272 -188 460t-460 188t-460 -188t-188 -460q0 -271 188 -459t460 -188zM890 -26q-336 0 -569 227t-233 556t233 557t569 227q336 1 570 -227q232 -228 232 -557t-232 -556q-234 -227 -570 -227zM1032 1600l-406 220l67 122l404 -223z
" />
    <glyph glyph-name="Oacute" unicode="&#xd3;" horiz-adv-x="1780" 
d="M890 110q272 0 460 188t188 459q0 272 -188 460t-460 188t-460 -188t-188 -460q0 -271 188 -459t460 -188zM890 -26q-336 0 -569 227t-233 556t233 557t569 227q336 1 570 -227q232 -228 232 -557t-232 -556q-234 -227 -570 -227zM700 1720l409 220l67 -122l-411 -218z
" />
    <glyph glyph-name="Ocircumflex" unicode="&#xd4;" horiz-adv-x="1780" 
d="M890 110q272 0 460 188t188 459q0 272 -188 460t-460 188t-460 -188t-188 -460q0 -271 188 -459t460 -188zM890 -26q-336 0 -569 227t-233 556t233 557t569 227q336 1 570 -227q232 -228 232 -557t-232 -556q-234 -227 -570 -227zM823 1897h134l295 -255h-183l-172 150
l-180 -150h-189z" />
    <glyph glyph-name="Otilde" unicode="&#xd5;" horiz-adv-x="1780" 
d="M890 110q272 0 460 188t188 459q0 272 -188 460t-460 188t-460 -188t-188 -460q0 -271 188 -459t460 -188zM890 -26q-336 0 -569 227t-233 556t233 557t569 227q336 1 570 -227q232 -228 232 -557t-232 -556q-234 -227 -570 -227zM1050 1667q-42 -1 -76 9t-119 43
q-84 33 -112 33q-29 0 -69 -18t-66 -46l-71 101q31 37 92 63t124 26t153 -42t139 -43q49 0 127 53l71 -101q-35 -33 -93 -55t-100 -23z" />
    <glyph glyph-name="Odieresis" unicode="&#xd6;" horiz-adv-x="1780" 
d="M890 110q272 0 460 188t188 459q0 272 -188 460t-460 188t-460 -188t-188 -460q0 -271 188 -459t460 -188zM890 -26q-336 0 -569 227t-233 556t233 557t569 227q336 1 570 -227q232 -228 232 -557t-232 -556q-234 -227 -570 -227zM964 1900h152v-258h-152v258zM663 1900
h152v-258h-152v258z" />
    <glyph glyph-name="multiply" unicode="&#xd7;" horiz-adv-x="1241" 
d="M621 417l-370 -371l-99 99l371 370l-371 370l99 99l370 -371l370 371l99 -99l-371 -370l371 -370l-99 -99z" />
    <glyph glyph-name="Oslash" unicode="&#xd8;" horiz-adv-x="1778" 
d="M1318 1250q-180 154 -440 154t-448 -187.5t-188 -459.5q2 -228 131 -398zM1460 201q-232 -227 -556 -227t-547 192l-176 -166l-93 90l179 169q-180 211 -179 498q0 329 233 557t557 228t543 -195l178 168l93 -90l-179 -169q180 -210 179 -499q0 -329 -232 -556zM1538 757
q0 229 -133 397l-943 -889q180 -153 440 -154t448 186.5t188 459.5z" />
    <glyph glyph-name="Ugrave" unicode="&#xd9;" horiz-adv-x="1341" 
d="M1185 567q1 -285 -133 -439t-376 -154t-382 160t-140 433v948h152v-967q0 -201 98 -319t270 -118q170 -1 264 113t95 324v967h152v-948zM811 1600l-406 220l67 122l404 -223z" />
    <glyph glyph-name="Uacute" unicode="&#xda;" horiz-adv-x="1341" 
d="M1185 567q1 -285 -133 -439t-376 -154t-382 160t-140 433v948h152v-967q0 -201 98 -319t270 -118q170 -1 264 113t95 324v967h152v-948zM479 1720l409 220l67 -122l-411 -218z" />
    <glyph glyph-name="Ucircumflex" unicode="&#xdb;" horiz-adv-x="1341" 
d="M1185 567q1 -285 -133 -439t-376 -154t-382 160t-140 433v948h152v-967q0 -201 98 -319t270 -118q170 -1 264 113t95 324v967h152v-948zM602 1897h134l295 -255h-183l-172 150l-180 -150h-189z" />
    <glyph glyph-name="Udieresis" unicode="&#xdc;" horiz-adv-x="1341" 
d="M1185 567q1 -285 -133 -439t-376 -154t-382 160t-140 433v948h152v-967q0 -201 98 -319t270 -118q170 -1 264 113t95 324v967h152v-948zM743 1900h152v-258h-152v258zM442 1900h152v-258h-152v258z" />
    <glyph glyph-name="Yacute" unicode="&#xdd;" horiz-adv-x="1212" 
d="M683 0h-152v507l-529 1008h175l435 -861l431 861h169l-529 -1009v-506zM417 1720l409 220l67 -122l-411 -218z" />
    <glyph glyph-name="Thorn" unicode="&#xde;" horiz-adv-x="1212" 
d="M970 757q0 154 -101 234.5t-295 80.5h-298v-629h298q194 0 295 80t101 234zM123 0v1515h153v-307h298q270 0 410 -115t140 -336t-140 -335.5t-410 -114.5h-298v-307h-153z" />
    <glyph glyph-name="germandbls" unicode="&#xdf;" horiz-adv-x="1135" 
d="M269 0h-144v1085q0 201 119.5 328.5t307.5 127.5t304 -116.5t116 -302.5t-139 -297l-46 -32q74 -23 129 -63q160 -112 160 -324q0 -181 -120 -306.5t-308 -125.5t-298 117q-56 60 -81 142v-233zM828 1131q0 125 -77.5 204t-204.5 79t-202 -98t-75 -273v-628h103
q9 -148 83.5 -231t194.5 -83t201 85.5t81 208.5q0 163 -113.5 236t-359.5 69v137q369 6 369 294z" />
    <glyph glyph-name="agrave" unicode="&#xe0;" horiz-adv-x="1399" 
d="M682 1020q-190 0 -321 -134t-131 -328t131 -328t321 -133q190 0 321 134t131 328q0 193 -131 327t-321 134zM678 -26q-248 0 -420 170t-172 416t172 417q172 170 420 170t413 -171l37 -43v188h144v-1121h-144v187q-17 -23 -37 -43q-165 -170 -413 -170zM857 1267
l-406 220l67 122l404 -223z" />
    <glyph glyph-name="aacute" unicode="&#xe1;" horiz-adv-x="1399" 
d="M682 1020q-190 0 -321 -134t-131 -328t131 -328t321 -133q190 0 321 134t131 328q0 193 -131 327t-321 134zM678 -26q-248 0 -420 170t-172 416t172 417q172 170 420 170t413 -171l37 -43v188h144v-1121h-144v187q-17 -23 -37 -43q-165 -170 -413 -170zM525 1387l409 220
l67 -122l-411 -218z" />
    <glyph glyph-name="acircumflex" unicode="&#xe2;" horiz-adv-x="1399" 
d="M682 1020q-190 0 -321 -134t-131 -328t131 -328t321 -133q190 0 321 134t131 328q0 193 -131 327t-321 134zM678 -26q-248 0 -420 170t-172 416t172 417q172 170 420 170t413 -171l37 -43v188h144v-1121h-144v187q-17 -23 -37 -43q-165 -170 -413 -170zM648 1564h134
l295 -255h-183l-172 150l-180 -150h-189z" />
    <glyph glyph-name="atilde" unicode="&#xe3;" horiz-adv-x="1399" 
d="M682 1020q-190 0 -321 -134t-131 -328t131 -328t321 -133q190 0 321 134t131 328q0 193 -131 327t-321 134zM678 -26q-248 0 -420 170t-172 416t172 417q172 170 420 170t413 -171l37 -43v188h144v-1121h-144v187q-17 -23 -37 -43q-165 -170 -413 -170zM876 1334
q-42 0 -78 10q-34 10 -118 42q-84 33 -112 33q-28 -1 -68 -19t-67 -45l-71 101q31 37 92 63t124 26q63 -1 153 -43t139 -42t127 53l71 -101q-34 -34 -92 -56t-100 -22z" />
    <glyph glyph-name="adieresis" unicode="&#xe4;" horiz-adv-x="1399" 
d="M682 1020q-190 0 -321 -134t-131 -328t131 -328t321 -133q190 0 321 134t131 328q0 193 -131 327t-321 134zM678 -26q-248 0 -420 170t-172 416t172 417q172 170 420 170t413 -171l37 -43v188h144v-1121h-144v187q-17 -23 -37 -43q-165 -170 -413 -170zM789 1567h152
v-258h-152v258zM488 1567h152v-258h-152v258z" />
    <glyph glyph-name="aring" unicode="&#xe5;" horiz-adv-x="1399" 
d="M682 1020q-190 0 -321 -134t-131 -328t131 -328t321 -133q190 0 321 134t131 328q0 193 -131 327t-321 134zM678 -26q-248 0 -420 170t-172 416t172 417q172 170 420 170t413 -171l37 -43v188h144v-1121h-144v187q-17 -23 -37 -43q-165 -170 -413 -170zM699 1336
q45 0 75 30t31 75q-1 45 -31 75t-75 30t-75 -30t-31 -75q1 -45 31 -75t75 -30zM699 1229q-89 -1 -151 61t-61 151q-1 89 61 151t151 61q89 1 151 -61t61 -151q1 -89 -61 -151t-151 -61z" />
    <glyph glyph-name="ae" unicode="&#xe6;" horiz-adv-x="2370" 
d="M1708 1020q-184 0 -312 -136q-99 -107 -124 -249h859q-18 153 -117 256q-122 129 -306 129zM669 1020q-191 0 -323 -133t-132 -327t132 -327.5t323 -133.5t323 133.5t132 327.5t-132 327t-323 133zM1707 101q265 0 389 263h149q-60 -175 -209.5 -282.5t-333.5 -107.5
q-228 0 -403 177l-37 38v-189h-144v194l-41 -47q-169 -173 -416 -173t-419 170t-172 416t172 416.5t419 170.5t416 -173l41 -47v194h144v-193l38 42q174 177 410 177t403 -170t167 -417q1 -27 -4 -54h-1004q16 -154 136 -280t299 -125z" />
    <glyph glyph-name="ccedilla" unicode="&#xe7;" horiz-adv-x="1325" 
d="M780 -275q0 47 -25 73t-60 26q-74 0 -98 -45l-77 39l74 163q-192 27 -334 163q-176 170 -176 416t176 417q176 170 432 170q182 0 328 -96t223 -266h-153q-64 111 -170 173t-228 62q-196 0 -330 -134t-134 -326q0 -193 134 -326t330 -133q124 -1 230 59t168 165h153
q-75 -165 -221 -258t-330 -93h-14l-38 -92q39 14 66 14q67 0 113 -48t46 -122q-1 -74 -51 -127t-123 -53q-150 0 -183 147l85 9q25 -81 95 -81q40 0 66 29t26 75z" />
    <glyph glyph-name="egrave" unicode="&#xe8;" horiz-adv-x="1331" 
d="M662 1020q-184 0 -313 -134q-99 -105 -123 -251h870q-21 146 -123 252q-127 133 -311 133zM666 101q271 0 395 263h149q-60 -174 -211 -282t-338 -108q-243 0 -413 170t-170 416t170 417q170 170 414 170q245 0 414 -170t169 -417q1 -27 -3 -54h-1017q15 -157 135 -281
t306 -124zM827 1267l-406 220l67 122l404 -223z" />
    <glyph glyph-name="eacute" unicode="&#xe9;" horiz-adv-x="1331" 
d="M662 1020q-184 0 -313 -134q-99 -105 -123 -251h870q-21 146 -123 252q-127 133 -311 133zM666 101q271 0 395 263h149q-60 -174 -211 -282t-338 -108q-243 0 -413 170t-170 416t170 417q170 170 414 170q245 0 414 -170t169 -417q1 -27 -3 -54h-1017q15 -157 135 -281
t306 -124zM495 1387l409 220l67 -122l-411 -218z" />
    <glyph glyph-name="ecircumflex" unicode="&#xea;" horiz-adv-x="1331" 
d="M662 1020q-184 0 -313 -134q-99 -105 -123 -251h870q-21 146 -123 252q-127 133 -311 133zM666 101q271 0 395 263h149q-60 -174 -211 -282t-338 -108q-243 0 -413 170t-170 416t170 417q170 170 414 170q245 0 414 -170t169 -417q1 -27 -3 -54h-1017q15 -157 135 -281
t306 -124zM618 1564h134l295 -255h-183l-172 150l-180 -150h-189z" />
    <glyph glyph-name="edieresis" unicode="&#xeb;" horiz-adv-x="1331" 
d="M662 1020q-184 0 -313 -134q-99 -105 -123 -251h870q-21 146 -123 252q-127 133 -311 133zM666 101q271 0 395 263h149q-60 -174 -211 -282t-338 -108q-243 0 -413 170t-170 416t170 417q170 170 414 170q245 0 414 -170t169 -417q1 -27 -3 -54h-1017q15 -157 135 -281
t306 -124zM759 1567h152v-258h-152v258zM458 1567h152v-258h-152v258z" />
    <glyph glyph-name="igrave" unicode="&#xec;" horiz-adv-x="410" 
d="M70 0v1121h144v-1121h-144zM284 1267l-406 220l67 122l404 -223z" />
    <glyph glyph-name="iacute" unicode="&#xed;" horiz-adv-x="410" 
d="M133 0v1121h144v-1121h-144zM15 1387l409 220l67 -122l-411 -218z" />
    <glyph glyph-name="icircumflex" unicode="&#xee;" horiz-adv-x="410" 
d="M133 0v1121h144v-1121h-144zM138 1564h134l295 -255h-183l-172 150l-180 -150h-189z" />
    <glyph glyph-name="idieresis" unicode="&#xef;" horiz-adv-x="410" 
d="M133 0v1121h144v-1121h-144zM279 1567h152v-258h-152v258zM-22 1567h152v-258h-152v258z" />
    <glyph glyph-name="eth" unicode="&#xf0;" horiz-adv-x="1341" 
d="M671.5 1015q-193.5 0 -317.5 -128t-124 -325t128 -329t314 -132t313.5 132t127.5 329t-124 325t-317.5 128zM1257 584q0 -256 -169.5 -433t-415.5 -177t-416 169t-170 411t173 415t412 173q173 0 303 -101q-106 149 -300 268l-321 -122l-103 75l303 114q-107 54 -233 96
l151 65q127 -43 236 -102l276 104l98 -76l-259 -98q131 -90 227 -207q208 -252 208 -574z" />
    <glyph glyph-name="ntilde" unicode="&#xf1;" horiz-adv-x="1249" 
d="M133 0v1121h143v-145l23 28q119 146 339 146t350 -143t130 -398v-609h-144v613q0 191 -92 299t-258 108t-256 -110t-91 -312v-598h-144zM786 1334q-42 0 -78 10q-34 10 -118 42q-84 33 -112 33q-28 -1 -68 -19t-67 -45l-71 101q31 37 92 63t124 26q63 -1 153 -43t139 -42
t127 53l71 -101q-34 -34 -92 -56t-100 -22z" />
    <glyph glyph-name="ograve" unicode="&#xf2;" horiz-adv-x="1341" 
d="M672 101q186 0 313 133q128 133 128 326q0 192 -128 326q-127 134 -313 134t-314 -134t-128 -326q0 -193 128 -326t314 -133zM672 -26q-246 0 -416 170t-170 416t170 417q170 170 416 170t416 -170q170 -171 169 -417q1 -246 -169 -416t-416 -170zM813 1267l-406 220
l67 122l404 -223z" />
    <glyph glyph-name="oacute" unicode="&#xf3;" horiz-adv-x="1341" 
d="M672 101q186 0 313 133q128 133 128 326q0 192 -128 326q-127 134 -313 134t-314 -134t-128 -326q0 -193 128 -326t314 -133zM672 -26q-246 0 -416 170t-170 416t170 417q170 170 416 170t416 -170q170 -171 169 -417q1 -246 -169 -416t-416 -170zM481 1387l409 220
l67 -122l-411 -218z" />
    <glyph glyph-name="ocircumflex" unicode="&#xf4;" horiz-adv-x="1341" 
d="M672 101q186 0 313 133q128 133 128 326q0 192 -128 326q-127 134 -313 134t-314 -134t-128 -326q0 -193 128 -326t314 -133zM672 -26q-246 0 -416 170t-170 416t170 417q170 170 416 170t416 -170q170 -171 169 -417q1 -246 -169 -416t-416 -170zM604 1564h134l295 -255
h-183l-172 150l-180 -150h-189z" />
    <glyph glyph-name="otilde" unicode="&#xf5;" horiz-adv-x="1341" 
d="M672 101q186 0 313 133q128 133 128 326q0 192 -128 326q-127 134 -313 134t-314 -134t-128 -326q0 -193 128 -326t314 -133zM672 -26q-246 0 -416 170t-170 416t170 417q170 170 416 170t416 -170q170 -171 169 -417q1 -246 -169 -416t-416 -170zM832 1334q-42 0 -78 10
q-34 10 -118 42q-84 33 -112 33q-28 -1 -68 -19t-67 -45l-71 101q31 37 92 63t124 26q63 -1 153 -43t139 -42t127 53l71 -101q-34 -34 -92 -56t-100 -22z" />
    <glyph glyph-name="odieresis" unicode="&#xf6;" horiz-adv-x="1341" 
d="M672 101q186 0 313 133q128 133 128 326q0 192 -128 326q-127 134 -313 134t-314 -134t-128 -326q0 -193 128 -326t314 -133zM672 -26q-246 0 -416 170t-170 416t170 417q170 170 416 170t416 -170q170 -171 169 -417q1 -246 -169 -416t-416 -170zM745 1567h152v-258
h-152v258zM444 1567h152v-258h-152v258z" />
    <glyph glyph-name="divide" unicode="&#xf7;" horiz-adv-x="1241" 
d="M544 1066h152v-260h-152v260zM104 585h1032v-140h-1032v140zM544 224h152v-260h-152v260z" />
    <glyph glyph-name="oslash" unicode="&#xf8;" horiz-adv-x="1337" 
d="M660 1020q-176 0 -304 -133.5t-128 -326.5q0 -155 83 -272l649 623q-124 109 -300 109zM680 -26q-236 0 -399 143l-121 -117l-76 70l127 122q-127 155 -127 385t170 400t406 170t396 -143l122 117l76 -70l-126 -121q127 -156 127 -386t-169.5 -400t-405.5 -170zM1111 560
q0 156 -83 274l-649 -624q121 -108 299 -108t305.5 132.5t127.5 325.5z" />
    <glyph glyph-name="ugrave" unicode="&#xf9;" horiz-adv-x="1245" 
d="M127 453v668h144v-665q0 -166 89 -260q90 -94 254 -94t257 110t93 314v595h144v-1121h-135v180q-113 -206 -351 -206q-239 0 -367 127t-128 352zM759 1267l-406 220l67 122l404 -223z" />
    <glyph glyph-name="uacute" unicode="&#xfa;" horiz-adv-x="1245" 
d="M127 453v668h144v-665q0 -166 89 -260q90 -94 254 -94t257 110t93 314v595h144v-1121h-135v180q-113 -206 -351 -206q-239 0 -367 127t-128 352zM427 1387l409 220l67 -122l-411 -218z" />
    <glyph glyph-name="ucircumflex" unicode="&#xfb;" horiz-adv-x="1245" 
d="M127 453v668h144v-665q0 -166 89 -260q90 -94 254 -94t257 110t93 314v595h144v-1121h-135v180q-113 -206 -351 -206q-239 0 -367 127t-128 352zM550 1564h134l295 -255h-183l-172 150l-180 -150h-189z" />
    <glyph glyph-name="udieresis" unicode="&#xfc;" horiz-adv-x="1245" 
d="M127 453v668h144v-665q0 -166 89 -260q90 -94 254 -94t257 110t93 314v595h144v-1121h-135v180q-113 -206 -351 -206q-239 0 -367 127t-128 352zM691 1567h152v-258h-152v258zM390 1567h152v-258h-152v258z" />
    <glyph glyph-name="yacute" unicode="&#xfd;" horiz-adv-x="1098" 
d="M414 -398h-141l192 449l-434 1070h156l352 -896l380 896h152zM361 1387l409 220l67 -122l-411 -218z" />
    <glyph glyph-name="thorn" unicode="&#xfe;" horiz-adv-x="1397" 
d="M722 101q190 0 320.5 133.5t130.5 327.5t-131 328t-321 134t-321 -133.5t-131 -327.5h1q0 -194 131 -328t321 -134zM131 1515h144v-582l40 44q167 170 417 170t417.5 -170.5t167.5 -416.5t-167.5 -416t-416.5 -170t-417 171l-41 46v-585h-144v1909z" />
    <glyph glyph-name="ydieresis" unicode="&#xff;" horiz-adv-x="1098" 
d="M414 -398h-141l192 449l-434 1070h156l352 -896l380 896h152zM625 1567h152v-258h-152v258zM324 1567h152v-258h-152v258z" />
    <glyph glyph-name="Amacron" unicode="&#x100;" horiz-adv-x="1516" 
d="M676 1515h166l651 -1515h-166l-216 512h-712l-214 -512h-160zM413 1820h692v-137h-692v137z" />
    <glyph glyph-name="amacron" unicode="&#x101;" horiz-adv-x="1399" 
d="M682 1020q-190 0 -321 -134t-131 -328t131 -328t321 -133q190 0 321 134t131 328q0 193 -131 327t-321 134zM678 -26q-248 0 -420 170t-172 416t172 417q172 170 420 170t413 -171l37 -43v188h144v-1121h-144v187q-17 -23 -37 -43q-165 -170 -413 -170zM369 1446h692
v-137h-692v137z" />
    <glyph glyph-name="Abreve" unicode="&#x102;" horiz-adv-x="1516" 
d="M676 1515h166l651 -1515h-166l-216 512h-712l-214 -512h-160zM1117 1877q-79 -212 -357 -212t-358 212h134q28 -43 88 -69t135 -25q75 -1 135 25t89 69h134z" />
    <glyph glyph-name="abreve" unicode="&#x103;" horiz-adv-x="1399" 
d="M682 1020q-190 0 -321 -134t-131 -328t131 -328t321 -133q190 0 321 134t131 328q0 193 -131 327t-321 134zM678 -26q-248 0 -420 170t-172 416t172 417q172 170 420 170t413 -171l37 -43v188h144v-1121h-144v187q-17 -23 -37 -43q-165 -170 -413 -170zM1073 1544
q-79 -212 -357 -212q-277 0 -358 212h134q28 -42 88 -68t135 -26t135 26t89 68h134z" />
    <glyph glyph-name="Aogonek" unicode="&#x104;" horiz-adv-x="1516" 
d="M1183 -216q1 72 33 118t114 98h-3l-216 512h-712l-214 -512h-160l651 1515h166l651 -1515h-56q-85 -61 -119 -106q-34 -46 -34 -92t34 -76t86 -29q52 0 96 21v-89q-44 -20 -121 -20q-77 -1 -137 51t-59 124z" />
    <glyph glyph-name="aogonek" unicode="&#x105;" horiz-adv-x="1399" 
d="M682 1020q-190 0 -321 -134t-131 -328t131 -328t321 -133q190 0 321 134t131 328q0 193 -131 327t-321 134zM981 -216q1 72 33 118t114 98v187q-17 -23 -37 -43q-165 -170 -413 -170t-420 170t-172 416t172 417q172 170 420 170t413 -171l37 -43v188h144v-1121h-37
q-85 -61 -119 -106q-34 -46 -34 -92t34 -76t86 -29q52 0 96 21v-89q-44 -20 -121 -20q-77 -1 -137 51t-59 124z" />
    <glyph glyph-name="Cacute" unicode="&#x106;" horiz-adv-x="1665" 
d="M885 -26q-333 0 -565 227t-232 556t232 557t565 227q213 0 405 -117t274 -298h-164q-72 123 -216 201t-299 78q-271 0 -457 -188t-186 -460q0 -271 186 -459t457 -188q159 0 307 80t223 207h164q-83 -183 -279 -303t-415 -120zM695 1720l409 220l67 -122l-411 -218z" />
    <glyph glyph-name="cacute" unicode="&#x107;" horiz-adv-x="1325" 
d="M692 -26q-256 0 -432 170t-176 416t176 417q176 170 432 170q182 0 328 -96t223 -266h-153q-64 111 -170 173t-228 62q-196 0 -330 -134t-134 -326q0 -193 134 -326t330 -133q124 -1 230 59t168 165h153q-75 -165 -221 -258t-330 -93zM502 1387l409 220l67 -122
l-411 -218z" />
    <glyph glyph-name="Ccaron" unicode="&#x10c;" horiz-adv-x="1665" 
d="M885 -26q-333 0 -565 227t-232 556t232 557t565 227q213 0 405 -117t274 -298h-164q-72 123 -216 201t-299 78q-271 0 -457 -188t-186 -460q0 -271 186 -459t457 -188q159 0 307 80t223 207h164q-83 -183 -279 -303t-415 -120zM945 1643h-134l-296 255h183l173 -150
l181 150h189z" />
    <glyph glyph-name="ccaron" unicode="&#x10d;" horiz-adv-x="1325" 
d="M692 -26q-256 0 -432 170t-176 416t176 417q176 170 432 170q182 0 328 -96t223 -266h-153q-64 111 -170 173t-228 62q-196 0 -330 -134t-134 -326q0 -193 134 -326t330 -133q124 -1 230 59t168 165h153q-75 -165 -221 -258t-330 -93zM752 1310h-134l-296 255h183
l173 -150l181 150h189z" />
    <glyph glyph-name="Dcaron" unicode="&#x10e;" horiz-adv-x="1524" 
d="M304 136h292q314 0 498 168t184 453q0 286 -186 454t-506 168h-282v-1243zM152 0v1515h434q382 0 614 -205t232 -546q0 -340 -230 -552t-606 -212h-444zM724 1643h-134l-296 255h183l173 -150l181 150h189z" />
    <glyph glyph-name="dcaron" unicode="&#x10f;" horiz-adv-x="1730" 
d="M685 1020q-190 0 -321 -134t-131 -328t131 -328t321 -133q190 0 321 134t131 328q0 193 -131 327t-321 134zM674 -26q-249 0 -417 170t-168 416t168 417q168 170 417 170t417 -171l40 -45v584h144v-1515h-144v189l-40 -45q-168 -170 -417 -170zM1458 1229l108 286h130
l-108 -286h-130z" />
    <glyph glyph-name="Dcroat" unicode="&#x110;" horiz-adv-x="1618" 
d="M398 1379v-553h366v-137h-366v-553h336q320 0 473.5 152t152.5 469q1 317 -155 469.5t-480 152.5h-327zM246 0v689h-164v137h164v689h479q789 0 789 -742v-4q2 -769 -780 -769h-488z" />
    <glyph glyph-name="dcroat" unicode="&#x111;" horiz-adv-x="1403" 
d="M676 1020q-190 0 -321 -134t-131 -328t131 -327.5t321 -133.5t321 134t131 328t-131 327.5t-321 133.5zM665 -26q-249 0 -417 170t-168 416t168 416.5t417 170.5t417 -171l40 -45v298h-509v129h509v157h144v-157h177v-129h-177v-1229h-144v189l-40 -45
q-168 -170 -417 -170z" />
    <glyph glyph-name="Emacron" unicode="&#x112;" horiz-adv-x="1098" 
d="M143 0v1515h830v-137h-678v-545h657v-137h-657v-559h678v-137h-830zM204 1820h692v-137h-692v137z" />
    <glyph glyph-name="emacron" unicode="&#x113;" horiz-adv-x="1331" 
d="M662 1020q-184 0 -313 -134q-99 -105 -123 -251h870q-21 146 -123 252q-127 133 -311 133zM666 101q271 0 395 263h149q-60 -174 -211 -282t-338 -108q-243 0 -413 170t-170 416t170 417q170 170 414 170q245 0 414 -170t169 -417q1 -27 -3 -54h-1017q15 -157 135 -281
t306 -124zM339 1446h692v-137h-692v137z" />
    <glyph glyph-name="Edotaccent" unicode="&#x116;" horiz-adv-x="1098" 
d="M143 0v1515h830v-137h-678v-545h657v-137h-657v-559h678v-137h-830zM474 1900h152v-258h-152v258z" />
    <glyph glyph-name="edotaccent" unicode="&#x117;" horiz-adv-x="1331" 
d="M662 1020q-184 0 -313 -134q-99 -105 -123 -251h870q-21 146 -123 252q-127 133 -311 133zM666 101q271 0 395 263h149q-60 -174 -211 -282t-338 -108q-243 0 -413 170t-170 416t170 417q170 170 414 170q245 0 414 -170t169 -417q1 -27 -3 -54h-1017q15 -157 135 -281
t306 -124zM609 1567h152v-258h-152v258z" />
    <glyph glyph-name="Eogonek" unicode="&#x118;" horiz-adv-x="1098" 
d="M859 -391q-77 -1 -137 51t-59 124t33 118t114 98h-667v1515h830v-137h-678v-545h657v-137h-657v-559h678v-137h-56q-85 -61 -119 -106q-34 -46 -34 -92t34 -76t86 -29q52 0 96 21v-89q-44 -20 -121 -20z" />
    <glyph glyph-name="eogonek" unicode="&#x119;" horiz-adv-x="1331" 
d="M662 1020q-184 0 -313 -134q-99 -105 -123 -251h870q-21 146 -123 252q-127 133 -311 133zM570 -216q0 72 28 113q28 40 81 77h-18q-243 0 -413 170t-170 416t170 417q170 170 414 170q245 0 414 -170t169 -417q1 -27 -3 -54h-1017q15 -157 135 -281t306 -124
q271 0 395 263h149q-60 -174 -211 -282q-86 -61 -183 -88q-78 -57 -111 -101q-34 -45 -34 -91t34 -76t86 -29q52 0 96 21v-89q-44 -20 -121 -20q-76 -1 -136 51t-60 124z" />
    <glyph glyph-name="Ecaron" unicode="&#x11a;" horiz-adv-x="1098" 
d="M143 0v1515h830v-137h-678v-545h657v-137h-657v-559h678v-137h-830zM610 1643h-134l-296 255h183l173 -150l181 150h189z" />
    <glyph glyph-name="ecaron" unicode="&#x11b;" horiz-adv-x="1331" 
d="M662 1020q-184 0 -313 -134q-99 -105 -123 -251h870q-21 146 -123 252q-127 133 -311 133zM666 101q271 0 395 263h149q-60 -174 -211 -282t-338 -108q-243 0 -413 170t-170 416t170 417q170 170 414 170q245 0 414 -170t169 -417q1 -27 -3 -54h-1017q15 -157 135 -281
t306 -124zM745 1310h-134l-296 255h183l173 -150l181 150h189z" />
    <glyph glyph-name="Gbreve" unicode="&#x11e;" horiz-adv-x="1786" 
d="M896 -26q-338 0 -576 227t-238 556t240 557t587 227q223 -1 423 -121t283 -306h-177q-76 128 -222 210t-299 81q-285 0 -483 -188t-198 -460q0 -271 196 -459t470 -188t457 188q113 117 156 262h-845v137h1024q-19 -291 -229 -496q-230 -227 -569 -227zM1267 1877
q-79 -212 -357 -212t-358 212h134q28 -43 88 -69t135 -25q75 -1 135 25t89 69h134z" />
    <glyph glyph-name="gbreve" unicode="&#x11f;" horiz-adv-x="1378" 
d="M662 1024q-186 0 -314 -134t-128 -328t128 -328t314 -133q186 0 313 134q128 134 128 328q0 193 -128 327q-127 134 -313 134zM683 -310q203 0 309 112t105 325v62l-38 -44q-165 -171 -409 -171t-410 170q-164 170 -164 416t165 417q165 170 409 170t409 -170l38 -43v187
h144v-977q1 -279 -145 -430t-414 -151q-214 -1 -362 107t-197 298h153q49 -130 157 -204t250 -74zM644 1450q76 0 136 26t88 68h134q-80 -212 -358 -212t-357 212h134q28 -42 88 -68t135 -26z" />
    <glyph glyph-name="uni0122" unicode="&#x122;" horiz-adv-x="1786" 
d="M896 -26q-338 0 -576 227t-238 556t240 557t587 227q223 -1 423 -121t283 -306h-177q-76 128 -222 210t-299 81q-285 0 -483 -188t-198 -460q0 -271 196 -459t470 -188t457 188q113 117 156 262h-845v137h1024q-19 -291 -229 -496q-230 -227 -569 -227zM723 -474l108 286
h130l-108 -286h-130z" />
    <glyph glyph-name="uni0123" unicode="&#x123;" horiz-adv-x="1378" 
d="M662 1024q-186 0 -314 -134t-128 -328t128 -328t314 -133q186 0 313 134q128 134 128 328q0 193 -128 327q-127 134 -313 134zM683 -310q203 0 309 112t105 325v62l-38 -44q-165 -171 -409 -171t-410 170q-164 170 -164 416t165 417q165 170 409 170t409 -170l38 -43v187
h144v-977q1 -279 -145 -430t-414 -151q-214 -1 -362 107t-197 298h153q49 -130 157 -204t250 -74zM832 1595l-108 -286h-130l108 286h130z" />
    <glyph glyph-name="Imacron" unicode="&#x12a;" horiz-adv-x="463" 
d="M147 0v1515h152v-1515h-152zM-123 1820h692v-137h-692v137z" />
    <glyph glyph-name="imacron" unicode="&#x12b;" horiz-adv-x="410" 
d="M132 0v1121h144v-1121h-144zM-142 1446h692v-137h-692v137z" />
    <glyph glyph-name="Iogonek" unicode="&#x12e;" horiz-adv-x="463" 
d="M249 -391q-77 -1 -137 51t-59 124t33 118t114 98h-34v1515h152v-1515h-11q-85 -61 -119 -106q-34 -46 -34 -92t34 -76t86 -29q52 0 96 21v-89q-44 -20 -121 -20z" />
    <glyph glyph-name="iogonek" unicode="&#x12f;" horiz-adv-x="410" 
d="M139 1515h142v-257h-142v257zM10 -216q0 72 32 118t115 98h-19v1121h144v-1121h-18q-84 -61 -118 -106q-34 -46 -35 -92q0 -46 34 -76t86 -29q52 0 96 21v-89q-44 -20 -121 -20q-76 -1 -136 51t-60 124z" />
    <glyph glyph-name="Idotaccent" unicode="&#x130;" horiz-adv-x="463" 
d="M156 0v1515h152v-1515h-152zM156 1900h152v-258h-152v258z" />
    <glyph glyph-name="dotlessi" unicode="&#x131;" horiz-adv-x="410" 
d="M133 0v1121h144v-1121h-144z" />
    <glyph glyph-name="uni0136" unicode="&#x136;" horiz-adv-x="1210" 
d="M166 0v1515h152v-874l702 874h190l-607 -741l607 -774h-192l-508 662l-192 -235v-427h-152zM490 -474l108 286h130l-108 -286h-130z" />
    <glyph glyph-name="uni0137" unicode="&#x137;" horiz-adv-x="1028" 
d="M143 0v1515h144v-1083l528 689h179l-441 -562l467 -559h-188l-365 450l-180 -229v-221h-144zM381 -474l108 286h130l-108 -286h-130z" />
    <glyph glyph-name="Lacute" unicode="&#x139;" horiz-adv-x="946" 
d="M162 0v1515h152v-1378h626v-137h-778zM109 1720l409 220l67 -122l-411 -218z" />
    <glyph glyph-name="lacute" unicode="&#x13a;" horiz-adv-x="410" 
d="M143 0v1515h144v-1515h-144zM25 1720l409 220l67 -122l-411 -218z" />
    <glyph glyph-name="uni013B" unicode="&#x13b;" horiz-adv-x="946" 
d="M168 0v1515h152v-1378h626v-137h-778zM379 -474l108 286h130l-108 -286h-130z" />
    <glyph glyph-name="uni013C" unicode="&#x13c;" horiz-adv-x="410" 
d="M131 0v1515h144v-1515h-144zM25 -474l108 286h130l-108 -286h-130z" />
    <glyph glyph-name="Lcaron" unicode="&#x13d;" horiz-adv-x="946" 
d="M168 0v1515h152v-1378h626v-137h-778zM564 1229l108 286h130l-108 -286h-130z" />
    <glyph glyph-name="lcaron" unicode="&#x13e;" horiz-adv-x="730" 
d="M135 0v1515h144v-1515h-144zM462 1229l108 286h130l-108 -286h-130z" />
    <glyph glyph-name="Lslash" unicode="&#x141;" horiz-adv-x="1059" 
d="M283 0v639l-162 -118v158l162 118v718h152v-607l314 229v-158l-314 -229v-613h626v-137h-778z" />
    <glyph glyph-name="lslash" unicode="&#x142;" horiz-adv-x="614" 
d="M237 0v692l-149 -110v146l149 110v677h144v-571l149 110v-146l-149 -110v-798h-144z" />
    <glyph glyph-name="Nacute" unicode="&#x143;" horiz-adv-x="1516" 
d="M306 0h-152v1515h103l951 -1252v1252h152v-1515h-76l-978 1332v-1332zM567 1720l409 220l67 -122l-411 -218z" />
    <glyph glyph-name="nacute" unicode="&#x144;" horiz-adv-x="1249" 
d="M133 0v1121h143v-145l23 28q119 146 339 146t350 -143t130 -398v-609h-144v613q0 191 -92 299t-258 108t-256 -110t-91 -312v-598h-144zM435 1387l409 220l67 -122l-411 -218z" />
    <glyph glyph-name="uni0145" unicode="&#x145;" horiz-adv-x="1516" 
d="M306 0h-152v1515h103l951 -1252v1252h152v-1515h-76l-978 1332v-1332zM579 -474l108 286h130l-108 -286h-130z" />
    <glyph glyph-name="uni0146" unicode="&#x146;" horiz-adv-x="1249" 
d="M133 0v1121h143v-145l23 28q119 146 339 146t350 -143t130 -398v-609h-144v613q0 191 -92 299t-258 108t-256 -110t-91 -312v-598h-144zM447 -474l108 286h130l-108 -286h-130z" />
    <glyph glyph-name="Ncaron" unicode="&#x147;" horiz-adv-x="1516" 
d="M306 0h-152v1515h103l951 -1252v1252h152v-1515h-76l-978 1332v-1332zM817 1643h-134l-296 255h183l173 -150l181 150h189z" />
    <glyph glyph-name="ncaron" unicode="&#x148;" horiz-adv-x="1249" 
d="M133 0v1121h143v-145l23 28q119 146 339 146t350 -143t130 -398v-609h-144v613q0 191 -92 299t-258 108t-256 -110t-91 -312v-598h-144zM685 1310h-134l-296 255h183l173 -150l181 150h189z" />
    <glyph glyph-name="Omacron" unicode="&#x14c;" horiz-adv-x="1780" 
d="M890 110q272 0 460 188t188 459q0 272 -188 460t-460 188t-460 -188t-188 -460q0 -271 188 -459t460 -188zM890 -26q-336 0 -569 227t-233 556t233 557t569 227q336 1 570 -227q232 -228 232 -557t-232 -556q-234 -227 -570 -227zM544 1820h692v-137h-692v137z" />
    <glyph glyph-name="omacron" unicode="&#x14d;" horiz-adv-x="1341" 
d="M672 101q186 0 313 133q128 133 128 326q0 192 -128 326q-127 134 -313 134t-314 -134t-128 -326q0 -193 128 -326t314 -133zM672 -26q-246 0 -416 170t-170 416t170 417q170 170 416 170t416 -170q170 -171 169 -417q1 -246 -169 -416t-416 -170zM325 1446h692v-137
h-692v137z" />
    <glyph glyph-name="Ohungarumlaut" unicode="&#x150;" horiz-adv-x="1780" 
d="M890 110q272 0 460 188t188 459q0 272 -188 460t-460 188t-460 -188t-188 -460q0 -271 188 -459t460 -188zM890 -26q-336 0 -569 227t-233 556t233 557t569 227q336 1 570 -227q232 -228 232 -557t-232 -556q-234 -227 -570 -227zM944 1655l301 314l89 -84l-302 -313z
M651 1655l301 314l89 -84l-302 -313z" />
    <glyph glyph-name="ohungarumlaut" unicode="&#x151;" horiz-adv-x="1341" 
d="M672 101q186 0 313 133q128 133 128 326q0 192 -128 326q-127 134 -313 134t-314 -134t-128 -326q0 -193 128 -326t314 -133zM672 -26q-246 0 -416 170t-170 416t170 417q170 170 416 170t416 -170q170 -171 169 -417q1 -246 -169 -416t-416 -170zM725 1322l301 314
l89 -84l-302 -313zM432 1322l301 314l89 -84l-302 -313z" />
    <glyph glyph-name="OE" unicode="&#x152;" horiz-adv-x="2445" 
d="M890 1408q-268 0 -456 -189t-188 -462t188 -461t456 -188t459.5 192t191.5 458t-191.5 458t-459.5 192zM92 757q0 329 232 557t566 227q336 0 567 -228q46 -45 82 -94v296h800v-137h-648v-545h628v-137h-628v-559h648v-137h-800v298q-36 -49 -84 -96q-232 -228 -566 -228
t-565.5 227t-231.5 556z" />
    <glyph glyph-name="oe" unicode="&#x153;" horiz-adv-x="2329" 
d="M1681 1020q-185 0 -313 -134q-101 -105 -124 -251h873q-21 146 -123 252q-128 133 -313 133zM657.5 1020q-186.5 0 -315 -133.5t-128.5 -326.5t128.5 -326t314.5 -133t314.5 133t128.5 325.5t-128 326.5t-314.5 134zM1685 101q268 0 392 263h149q-60 -175 -211 -282.5
t-338 -107.5q-242 0 -413 172q-59 59 -97 127q-39 -67 -98 -125q-174 -174 -416 -174t-412.5 170t-170.5 416t170 417q170 170 413 170q242 0 417 -175q59 -59 98 -126q42 68 100 127q173 174 414 174t410 -170t169 -417q1 -27 -3 -54h-1015q15 -157 135 -281t307 -124z" />
    <glyph glyph-name="Racute" unicode="&#x154;" horiz-adv-x="1243" 
d="M143 0v1515h462q266 1 416 -127t150 -354t-150 -354q-116 -97 -301 -121l433 -559h-192l-519 689h163q194 0 303 91q109 92 109 254t-109 254t-303 91h-310v-1379h-152zM416 1720l409 220l67 -122l-411 -218z" />
    <glyph glyph-name="racute" unicode="&#x155;" horiz-adv-x="616" 
d="M133 0v1121h143v-161q84 181 320 190v-151q-143 -11 -231 -99t-88 -261v-639h-144zM174 1387l409 220l67 -122l-411 -218z" />
    <glyph glyph-name="uni0156" unicode="&#x156;" horiz-adv-x="1243" 
d="M143 0v1515h462q266 1 416 -127t150 -354t-150 -354q-116 -97 -301 -121l433 -559h-192l-519 689h163q194 0 303 91q109 92 109 254t-109 254t-303 91h-310v-1379h-152zM470 -474l108 286h130l-108 -286h-130z" />
    <glyph glyph-name="uni0157" unicode="&#x157;" horiz-adv-x="616" 
d="M139 0v1121h143v-161q84 181 320 190v-151q-143 -11 -231 -99t-88 -261v-639h-144zM33 -474l108 286h130l-108 -286h-130z" />
    <glyph glyph-name="Rcaron" unicode="&#x158;" horiz-adv-x="1243" 
d="M143 0v1515h462q266 1 416 -127t150 -354t-150 -354q-116 -97 -301 -121l433 -559h-192l-519 689h163q194 0 303 91q109 92 109 254t-109 254t-303 91h-310v-1379h-152zM666 1643h-134l-296 255h183l173 -150l181 150h189z" />
    <glyph glyph-name="rcaron" unicode="&#x159;" horiz-adv-x="616" 
d="M152 0v1121h143v-161q84 181 320 190v-151q-143 -11 -231 -99t-88 -261v-639h-144zM443 1310h-134l-296 255h183l173 -150l181 150h189z" />
    <glyph glyph-name="Sacute" unicode="&#x15a;" horiz-adv-x="1020" 
d="M508 1405q-114 0 -194 -74q-80 -73 -80 -179t70 -169t266 -116t298 -163t101 -292q0 -182 -134 -310t-334 -128t-328 125t-128 325h150q17 -154 97 -234t213 -80q134 0 225 86t91 210q1 126 -79 202t-276 128q-196 54 -288 150t-92 260q0 163 123 279t303 116
q180 1 300 -117q121 -118 121 -295h-148q-14 127 -88 201q-75 74 -189 75zM320 1720l409 220l67 -122l-411 -218z" />
    <glyph glyph-name="sacute" unicode="&#x15b;" horiz-adv-x="795" 
d="M392 1020q-76 0 -121 -47t-45 -119t46 -114q46 -40 186 -86q288 -94 288 -351q0 -141 -100 -235t-254 -94q-155 0 -249 96t-94 261h145q-2 -108 52 -169t149 -61t150 52t55 140q0 87 -53 141t-193 100t-207 117t-67 195t89 212t227 89t224 -83t86 -220h-145q1 76 -46 126
t-123 50zM203 1387l409 220l67 -122l-411 -218z" />
    <glyph glyph-name="Scedilla" unicode="&#x15e;" horiz-adv-x="1020" 
d="M638 -275q0 47 -25 73t-60 26q-74 0 -98 -45l-77 39l72 159q-167 15 -286 131t-119 316h150q17 -154 97 -234t213 -80q134 0 225 86t91 210q1 126 -79 202t-276 128q-196 54 -288 150t-92 260q0 163 123 279t303 116q180 1 300 -117q121 -118 121 -295h-148
q-14 127 -88 201q-75 74 -189 75q-114 0 -194 -74q-80 -73 -80 -179t70 -169t266 -116t298 -163t101 -292q0 -182 -129 -306q-129 -123 -303 -131l-39 -93q39 14 66 14q67 0 113 -48t46 -122q-1 -74 -51 -127t-123 -53q-150 0 -183 147l85 9q25 -81 95 -81q40 0 66 29t26 75
z" />
    <glyph glyph-name="scedilla" unicode="&#x15f;" horiz-adv-x="795" 
d="M515 -275q0 47 -25 73t-60 26q-74 0 -98 -45l-77 39l73 161q-113 17 -185 91q-94 96 -94 261h145q-2 -108 52 -169t149 -61t150 52t55 140q0 87 -53 141t-193 100t-207 117t-67 195t89 212t227 89t224 -83t86 -220h-145q1 76 -46 126t-123 50t-121 -47t-45 -119t46 -114
q46 -40 186 -86q288 -94 288 -351q0 -141 -97 -232t-236 -97l-38 -92q39 14 66 14q67 0 113 -48t46 -122t-50 -127t-124 -53q-150 0 -183 147l85 9q25 -81 95 -81q41 0 67 29t25 75z" />
    <glyph glyph-name="Scaron" unicode="&#x160;" horiz-adv-x="1020" 
d="M508 1405q-114 0 -194 -74q-80 -73 -80 -179t70 -169t266 -116t298 -163t101 -292q0 -182 -134 -310t-334 -128t-328 125t-128 325h150q17 -154 97 -234t213 -80q134 0 225 86t91 210q1 126 -79 202t-276 128q-196 54 -288 150t-92 260q0 163 123 279t303 116
q180 1 300 -117q121 -118 121 -295h-148q-14 127 -88 201q-75 74 -189 75zM570 1643h-134l-296 255h183l173 -150l181 150h189z" />
    <glyph glyph-name="scaron" unicode="&#x161;" horiz-adv-x="795" 
d="M392 1020q-76 0 -121 -47t-45 -119t46 -114q46 -40 186 -86q288 -94 288 -351q0 -141 -100 -235t-254 -94q-155 0 -249 96t-94 261h145q-2 -108 52 -169t149 -61t150 52t55 140q0 87 -53 141t-193 100t-207 117t-67 195t89 212t227 89t224 -83t86 -220h-145q1 76 -46 126
t-123 50zM453 1310h-134l-296 255h183l173 -150l181 150h189z" />
    <glyph glyph-name="uni0162" unicode="&#x162;" horiz-adv-x="872" 
d="M573 -275q0 47 -25 73t-60 26q-74 0 -98 -45l-77 39l83 182h-37v1378h-347v137h846v-137h-347v-1378h-29l-49 -118q39 14 66 14q67 0 113 -48t46 -122t-50 -127t-124 -53q-150 0 -183 147l85 9q25 -81 95 -81q41 0 67 29t25 75z" />
    <glyph glyph-name="uni0163" unicode="&#x163;" horiz-adv-x="694" 
d="M476 -275q0 47 -25 73t-60 26q-74 0 -98 -45l-77 39l83 182h-32v992h-238v129h238v392h144v-392h265v-129h-265v-992h-26l-49 -118q39 14 66 14q67 0 113 -48t46 -122q-1 -74 -51 -127t-123 -53q-150 0 -183 147l85 9q25 -81 95 -81q40 0 66 29t26 75z" />
    <glyph glyph-name="Tcaron" unicode="&#x164;" horiz-adv-x="872" 
d="M359 0v1378h-347v137h846v-137h-347v-1378h-152zM495 1643h-134l-296 255h183l173 -150l181 150h189z" />
    <glyph glyph-name="tcaron" unicode="&#x165;" horiz-adv-x="840" 
d="M245 0v992h-238v129h238v392h144v-392h265v-129h-265v-992h-144zM572 1229l108 286h130l-108 -286h-130z" />
    <glyph glyph-name="Umacron" unicode="&#x16a;" horiz-adv-x="1341" 
d="M1185 567q1 -285 -133 -439t-376 -154t-382 160t-140 433v948h152v-967q0 -201 98 -319t270 -118q170 -1 264 113t95 324v967h152v-948zM323 1820h692v-137h-692v137z" />
    <glyph glyph-name="umacron" unicode="&#x16b;" horiz-adv-x="1245" 
d="M127 453v668h144v-665q0 -166 89 -260q90 -94 254 -94t257 110t93 314v595h144v-1121h-135v180q-113 -206 -351 -206q-239 0 -367 127t-128 352zM271 1446h692v-137h-692v137z" />
    <glyph glyph-name="Uring" unicode="&#x16e;" horiz-adv-x="1341" 
d="M1185 567q1 -285 -133 -439t-376 -154t-382 160t-140 433v948h152v-967q0 -201 98 -319t270 -118q170 -1 264 113t95 324v967h152v-948zM669 1639q45 1 75 31t31 74q-1 44 -31 74t-75 31q-45 -1 -75 -31t-31 -74q1 -44 31 -74t75 -31zM669 1532q-89 0 -151 62t-61 150
q-1 88 61 150t151 62t151 -62t61 -150q1 -88 -61 -150t-151 -62z" />
    <glyph glyph-name="uring" unicode="&#x16f;" horiz-adv-x="1245" 
d="M127 453v668h144v-665q0 -166 89 -260q90 -94 254 -94t257 110t93 314v595h144v-1121h-135v180q-113 -206 -351 -206q-239 0 -367 127t-128 352zM601 1336q45 0 75 30t31 75q-1 45 -31 75t-75 30t-75 -30t-31 -75q1 -45 31 -75t75 -30zM601 1229q-89 -1 -151 61t-61 151
q-1 89 61 151t151 61q89 1 151 -61t61 -151q1 -89 -61 -151t-151 -61z" />
    <glyph glyph-name="Uhungarumlaut" unicode="&#x170;" horiz-adv-x="1341" 
d="M1185 567q1 -285 -133 -439t-376 -154t-382 160t-140 433v948h152v-967q0 -201 98 -319t270 -118q170 -1 264 113t95 324v967h152v-948zM723 1655l301 314l89 -84l-302 -313zM430 1655l301 314l89 -84l-302 -313z" />
    <glyph glyph-name="uhungarumlaut" unicode="&#x171;" horiz-adv-x="1245" 
d="M127 453v668h144v-665q0 -166 89 -260q90 -94 254 -94t257 110t93 314v595h144v-1121h-135v180q-113 -206 -351 -206q-239 0 -367 127t-128 352zM671 1322l301 314l89 -84l-302 -313zM378 1322l301 314l89 -84l-302 -313z" />
    <glyph glyph-name="Uogonek" unicode="&#x172;" horiz-adv-x="1341" 
d="M504 -216q0 72 29 113q29 40 83 79q-199 17 -331 167q-131 151 -131 424v948h152v-967q0 -201 98 -319t270 -118q170 -1 264 113t95 324v967h152v-948q0 -285 -126 -430t-333 -161q-59 -46 -90 -87t-31 -87t34 -76t86 -29q52 0 96 21v-89q-44 -20 -121 -20
q-76 -1 -136 51t-60 124z" />
    <glyph glyph-name="uogonek" unicode="&#x173;" horiz-adv-x="1245" 
d="M127 453v668h144v-665q0 -166 89 -260q90 -94 254 -94t257 110t93 314v595h144v-1121h-29q-85 -61 -119 -106q-34 -46 -34 -92t34 -76t86 -29q52 0 96 21v-89q-44 -20 -121 -20q-77 -1 -137 51t-59 124t33 118t114 98h1v180q-113 -206 -351 -206q-239 0 -367 127
t-128 352z" />
    <glyph glyph-name="Ydieresis" unicode="&#x178;" horiz-adv-x="1212" 
d="M683 0h-152v507l-529 1008h175l435 -861l431 861h169l-529 -1009v-506zM681 1900h152v-258h-152v258zM380 1900h152v-258h-152v258z" />
    <glyph glyph-name="Zacute" unicode="&#x179;" horiz-adv-x="983" 
d="M56 1378v137h891v-133l-743 -1245h759v-137h-938v133l744 1245h-713zM311 1720l409 220l67 -122l-411 -218z" />
    <glyph glyph-name="zacute" unicode="&#x17a;" horiz-adv-x="870" 
d="M41 992v129h771v-126l-612 -866h650v-129h-830v126l614 866h-593zM236 1387l409 220l67 -122l-411 -218z" />
    <glyph glyph-name="Zdotaccent" unicode="&#x17b;" horiz-adv-x="983" 
d="M56 1378v137h891v-133l-743 -1245h759v-137h-938v133l744 1245h-713zM425 1900h152v-258h-152v258z" />
    <glyph glyph-name="zdotaccent" unicode="&#x17c;" horiz-adv-x="870" 
d="M41 992v129h771v-126l-612 -866h650v-129h-830v126l614 866h-593zM350 1567h152v-258h-152v258z" />
    <glyph glyph-name="Zcaron" unicode="&#x17d;" horiz-adv-x="983" 
d="M56 1378v137h891v-133l-743 -1245h759v-137h-938v133l744 1245h-713zM561 1643h-134l-296 255h183l173 -150l181 150h189z" />
    <glyph glyph-name="zcaron" unicode="&#x17e;" horiz-adv-x="870" 
d="M41 992v129h771v-126l-612 -866h650v-129h-830v126l614 866h-593zM486 1310h-134l-296 255h183l173 -150l181 150h189z" />
    <glyph glyph-name="florin" unicode="&#x192;" horiz-adv-x="1135" 
d="M91 -314q-66 0 -115 15l25 131q43 -12 101 -12q132 0 197.5 71.5t99.5 252.5l175 915h-240l31 135h234l5 24q43 225 148.5 341.5t265.5 116.5q23 0 43 -4l-26 -137l-31 2q-105 0 -163 -68.5t-89 -228.5l-9 -46h230l-29 -135h-226l-175 -915q-46 -248 -150 -353t-302 -105
z" />
    <glyph glyph-name="circumflex" unicode="&#x2c6;" horiz-adv-x="1028" 
d="M447 1564h134l295 -255h-183l-172 150l-180 -150h-189z" />
    <glyph glyph-name="caron" unicode="&#x2c7;" horiz-adv-x="1028" 
d="M569 1310h-134l-296 255h183l173 -150l181 150h189z" />
    <glyph glyph-name="uni02C9" unicode="&#x2c9;" horiz-adv-x="993" 
d="M150 1446h692v-137h-692v137z" />
    <glyph glyph-name="breve" unicode="&#x2d8;" horiz-adv-x="928" 
d="M463 1450q75 0 135.5 25.5t88.5 68.5h134q-80 -212 -357.5 -212t-357.5 212h134q28 -43 88 -68.5t135 -25.5z" />
    <glyph glyph-name="dotaccent" unicode="&#x2d9;" horiz-adv-x="455" 
d="M152 1567h152v-258h-152v258z" />
    <glyph glyph-name="ring" unicode="&#x2da;" horiz-adv-x="680" 
d="M339 1336q45 0 75.5 30.5t30.5 74.5t-30.5 74.5t-75.5 30.5t-75.5 -30.5t-30.5 -74.5t30.5 -74.5t75.5 -30.5zM339 1229q-89 0 -150.5 61.5t-61.5 150.5t61.5 150.5t150.5 61.5t150.5 -61.5t61.5 -150.5t-61.5 -150.5t-150.5 -61.5z" />
    <glyph glyph-name="ogonek" unicode="&#x2db;" horiz-adv-x="618" 
d="M150 -216q0 72 32.5 118t114.5 98h107q-84 -61 -118.5 -106.5t-34.5 -91.5t34 -75.5t86 -29.5t96 21v-89q-44 -20 -121 -20q-76 -1 -136 51t-60 124z" />
    <glyph glyph-name="tilde" unicode="&#x2dc;" horiz-adv-x="899" 
d="M610 1334q-42 0 -77 9.5t-119 42.5t-112 33t-68.5 -18.5t-66.5 -45.5l-71 101q31 37 92 63t124 26q63 -1 153 -43t139 -42t127 53l71 -101q-35 -33 -92.5 -55.5t-99.5 -22.5z" />
    <glyph glyph-name="hungarumlaut" unicode="&#x2dd;" horiz-adv-x="1130" 
d="M537 1322l301 314l89 -84l-302 -313zM244 1322l301 314l89 -84l-302 -313z" />
    <glyph glyph-name="pi" unicode="&#x3c0;" horiz-adv-x="1246" 
d="M669 206q0 180 101 599h-148l-116 -652q-18 -105 -45 -141.5t-89 -36.5t-73 45t28 165l211 620h-94q-75 0 -130.5 -31.5t-140.5 -121.5l-61 40q91 160 171.5 213.5t229.5 53.5l338 1q236 0 337 9l-30 -164h-301q-61 -325 14 -660q22 -99 7 -134.5t-78 -35.5
q-131 0 -131 231z" />
    <glyph glyph-name="endash" unicode="&#x2013;" horiz-adv-x="1024" 
d="M72 645h880v-137h-880v137z" />
    <glyph glyph-name="emdash" unicode="&#x2014;" horiz-adv-x="2048" 
d="M72 645h1904v-137h-1904v137z" />
    <glyph glyph-name="quoteleft" unicode="&#x2018;" horiz-adv-x="719" 
d="M374 1118l-179 397h152l179 -397h-152z" />
    <glyph glyph-name="quoteright" unicode="&#x2019;" horiz-adv-x="719" 
d="M193 1118l179 397h152l-179 -397h-152z" />
    <glyph glyph-name="quotesinglbase" unicode="&#x201a;" horiz-adv-x="725" 
d="M182 -139l179 397h152l-179 -397h-152z" />
    <glyph glyph-name="quotedblleft" unicode="&#x201c;" horiz-adv-x="1028" 
d="M679 1118l-179 397h152l179 -397h-152zM378 1118l-179 397h152l179 -397h-152z" />
    <glyph glyph-name="quotedblright" unicode="&#x201d;" horiz-adv-x="991" 
d="M498 1118l179 397h152l-179 -397h-152zM197 1118l179 397h152l-179 -397h-152z" />
    <glyph glyph-name="quotedblbase" unicode="&#x201e;" horiz-adv-x="1028" 
d="M486 -139l179 397h152l-179 -397h-152zM182 -139l179 397h152l-179 -397h-152z" />
    <glyph glyph-name="dagger" unicode="&#x2020;" horiz-adv-x="1133" 
d="M121 1105h370v410h148v-410h371v-137h-371v-1241h-148v1241h-370v137z" />
    <glyph glyph-name="daggerdbl" unicode="&#x2021;" horiz-adv-x="1133" 
d="M121 1100h370v415h148v-415h371v-137h-371v-680h371v-148h-371v-408h-148v408h-370v148h370v680h-370v137z" />
    <glyph glyph-name="bullet" unicode="&#x2022;" horiz-adv-x="1241" 
d="M619 1089q131 0 221.5 -92.5t90.5 -226.5t-90.5 -226t-221.5 -92t-221.5 92t-90.5 226t90.5 226.5t221.5 92.5z" />
    <glyph glyph-name="ellipsis" unicode="&#x2026;" horiz-adv-x="2048" 
d="M1630 258h152v-258h-152v258zM948 258h152v-258h-152v258zM266 258h152v-258h-152v258z" />
    <glyph glyph-name="perthousand" unicode="&#x2030;" horiz-adv-x="2404" 
d="M1982 596q-106 0 -176 -72t-70 -180t70 -180.5t176 -72.5t175.5 72.5t69.5 180.5t-69.5 180t-175.5 72zM1982 -23q-160 0 -265.5 104.5t-105.5 262.5t105.5 262t265.5 104t265 -104t105 -262t-105 -262.5t-265 -104.5zM1178 596q-106 0 -175.5 -72t-69.5 -180
t69.5 -180.5t175.5 -72.5t176 72.5t70 180.5t-70 180t-176 72zM1178 -23q-160 0 -265 104.5t-105 262.5t105 262t265 104t265.5 -104t105.5 -262t-105.5 -262.5t-265.5 -104.5zM293 4l860 1506h138l-860 -1506h-138zM422 1424q-106 0 -176 -72t-70 -180t70 -180.5t176 -72.5
t175.5 72.5t69.5 180.5t-69.5 180t-175.5 72zM422 805q-160 0 -265.5 104.5t-105.5 262.5t105.5 262t265.5 104t265 -104t105 -262t-105 -262.5t-265 -104.5z" />
    <glyph glyph-name="guilsinglleft" unicode="&#x2039;" horiz-adv-x="514" 
d="M434 919l-194 -344l194 -345l-119 -68l-233 413l233 412z" />
    <glyph glyph-name="guilsinglright" unicode="&#x203a;" horiz-adv-x="514" 
d="M80 230l194 344l-194 345l119 68l233 -413l-233 -412z" />
    <glyph glyph-name="fraction" unicode="&#x2044;" horiz-adv-x="340" 
d="M572 1515l-681 -1515h-121l681 1515h121z" />
    <glyph glyph-name="uni2074" unicode="&#x2074;" horiz-adv-x="680" 
d="M458 765h-452v107l442 643h133v-639h86v-111h-86v-159h-123v159z" />
    <glyph glyph-name="Euro" unicode="&#x20ac;" horiz-adv-x="1135" 
d="M664 -26q-244 0 -383 208q-96 147 -127 369h-154l30 137h113v69q-1 36 2 69h-145l30 137h127q33 210 132 359q146 219 375 219q171 0 296.5 -117t148.5 -298h-157q-32 134 -107 206.5t-181 72.5q-165 0 -266 -178q-61 -110 -88 -264h502l-30 -137h-484l-1 -69v-69h454
l-30 -137h-409q23 -151 86 -263q101 -178 266 -178q108 0 183.5 74.5t106.5 212.5h155q-20 -184 -145.5 -303.5t-299.5 -119.5z" />
    <glyph glyph-name="trademark" unicode="&#x2122;" horiz-adv-x="2048" 
d="M238 606v811h-220v98h548v-98h-219v-811h-109zM791 606h-109v909h78l417 -750l338 750h156v-909h-109v763l-345 -763h-80l-346 765v-765z" />
    <glyph glyph-name="Omega" unicode="&#x2126;" horiz-adv-x="1246" 
d="M101 952q0 209 149.5 334.5t397.5 127.5t404 -127t156 -328q0 -168 -141 -399q-81 -133 -199 -345h79q75 -1 112 42.5t64 164.5l73 -12l-74 -410h-412q127 352 167 479q88 285 88 460t-86.5 279.5t-224.5 108.5q-138 -4 -224 -107t-86 -265q0 -78 39.5 -284t215.5 -671
h-413l-74 410l74 12q33 -138 61.5 -171t114.5 -36h79q-81 154 -172 303q-168 271 -168 434z" />
    <glyph glyph-name="partialdiff" unicode="&#x2202;" horiz-adv-x="1020" 
d="M683 654q0 246 -156 247q-107 0 -181.5 -167.5t-74.5 -409.5q0 -114 44 -193t108 -79q108 0 184 178t76 424zM545 1434q393 0 391 -620q0 -372 -145.5 -609t-372.5 -237q-148 0 -242.5 117t-94.5 300q0 234 139.5 416.5t317.5 182.5q92 0 201 -66q21 190 -16.5 302
t-122.5 112q-28 0 -60.5 -29t-56.5 -81t-44.5 -71.5t-70.5 -19.5t-76 48.5t4 108.5t102.5 103t146.5 43z" />
    <glyph glyph-name="Delta" unicode="&#x2206;" horiz-adv-x="1360" 
d="M667 1077l-446 -883h799zM740 1391l582 -1391h-1285z" />
    <glyph glyph-name="product" unicode="&#x220f;" horiz-adv-x="2039" 
d="M197 -315v65q151 17 197.5 88.5t46.5 289.5v901q3 217 -43.5 288.5t-200.5 88.5v65h1645v-65q-151 -17 -197.5 -88.5t-46.5 -288.5v-901q0 -218 46.5 -289.5t197.5 -88.5v-65h-704v65q157 17 202 87t42 291v1262h-725v-1262q0 -218 46.5 -289.5t197.5 -88.5v-65h-704z
" />
    <glyph glyph-name="summation" unicode="&#x2211;" horiz-adv-x="2039" 
d="M1110 1389h-403l370 -740l-451 -756h524q138 0 219 51t149 180l22 41l70 -21l-117 -459h-1077l491 838l-482 948h1119l46 -366l-70 -14l-17 39q-54 142 -142.5 200.5t-250.5 58.5z" />
    <glyph glyph-name="minus" unicode="&#x2212;" horiz-adv-x="1241" 
d="M115 585h1032v-140h-1032v140z" />
    <glyph glyph-name="uni2215" unicode="&#x2215;" horiz-adv-x="340" 
d="M572 1515l-681 -1515h-121l681 1515h121z" />
    <glyph glyph-name="uni2219" unicode="&#x2219;" horiz-adv-x="567" 
d="M209 886h152v-258h-152v258z" />
    <glyph glyph-name="radical" unicode="&#x221a;" horiz-adv-x="1473" 
d="M1722 1529v-86h-281l-553 -1817h-74l-570 821l-145 -105l-43 96l298 194l506 -750l480 1647h382z" />
    <glyph glyph-name="infinity" unicode="&#x221e;" horiz-adv-x="2039" 
d="M1643 569q0 97 -59.5 156.5t-150.5 59.5t-153 -50.5t-122 -168.5q41 -100 111.5 -154t164.5 -54t151.5 57t57.5 154zM394 569q0 -109 69 -183t173 -74t189 73t160 232q-63 113 -138 163.5t-185 50.5t-189 -76.5t-79 -185.5zM1754 573q0 -164 -97 -271t-243 -107
q-105 0 -189 56.5t-135 161.5q-106 -156 -186.5 -210t-206.5 -54q-174 0 -294 121.5t-120 299.5t116.5 301t285.5 123q122 0 210.5 -60.5t175.5 -202.5q147 217 335 217q153 0 250.5 -105.5t97.5 -269.5z" />
    <glyph glyph-name="integral" unicode="&#x222b;" horiz-adv-x="2039" 
d="M1187 1321q-84 0 -84 77q0 10 16 72q2 8 -5.5 14t-20.5 6q-77 0 -80 -131t58 -453t75 -638t-14 -464t-79 -208t-127 -60t-125 42t-49 94t28 82t64 30t61 -25.5t25 -61.5l-9 -60q-1 -9 6 -15.5t19 -6.5q52 -1 69 87t-13 250q-80 427 -110 817q-63 800 231 800
q66 0 112 -42t46 -102q0 -104 -94 -104z" />
    <glyph glyph-name="approxequal" unicode="&#x2248;" horiz-adv-x="2039" 
d="M742 865q128 0 336 -67t292 -67q85 0 157 35.5t116 86.5l37 -22q-48 -115 -136 -182.5t-178 -67.5t-334 67t-313 67t-147 -35t-127 -86l-31 32q57 100 156.5 169.5t171.5 69.5zM742 514q128 0 336 -67t292 -67q85 0 157 35.5t116 86.5l37 -22q-48 -115 -136 -182.5
t-178 -67.5t-334 67t-313 67t-147 -35t-127 -86l-31 32q57 100 156.5 169.5t171.5 69.5z" />
    <glyph glyph-name="notequal" unicode="&#x2260;" horiz-adv-x="2039" 
d="M407 279v135h437l236 276h-673v135h788l317 367h164l-315 -367h312v-135h-427l-236 -276h663v-135h-779l-318 -372h-166l318 372h-321z" />
    <glyph glyph-name="lessequal" unicode="&#x2264;" horiz-adv-x="2039" 
d="M417 135h1266v-135h-1266v135zM1683 1235v-135l-1063 -410l1063 -309v-135l-1266 377v135z" />
    <glyph glyph-name="greaterequal" unicode="&#x2265;" horiz-adv-x="2039" 
d="M417 135h1266v-135h-1266v135zM417 1235l1266 -477v-135l-1266 -377v135l1063 309l-1063 410v135z" />
    <glyph glyph-name="lozenge" unicode="&#x25ca;" horiz-adv-x="1171" 
d="M585 1324l-349 -613l349 -615l349 615zM530 1423h110l404 -712l-404 -711h-110l-404 711z" />
    <glyph glyph-name="uniEFED" unicode="&#xefed;" horiz-adv-x="455" 
d="M152 1900h152v-258h-152v258z" />
    <glyph glyph-name="uniEFEE" unicode="&#xefee;" horiz-adv-x="928" 
d="M463 1783q75 0 135.5 25.5t88.5 68.5h134q-80 -212 -357.5 -212t-357.5 212h134q28 -43 88 -68.5t135 -25.5z" />
    <glyph glyph-name="uniEFEF" unicode="&#xefef;" horiz-adv-x="993" 
d="M150 1820h692v-137h-692v137z" />
    <glyph glyph-name="uniEFF0" unicode="&#xeff0;" horiz-adv-x="1130" 
d="M537 1655l301 314l89 -84l-302 -313zM244 1655l301 314l89 -84l-302 -313z" />
    <glyph glyph-name="uniEFF1" unicode="&#xeff1;" horiz-adv-x="618" 
d="M150 -216q0 72 32.5 118t114.5 98h107q-84 -61 -118.5 -106.5t-34.5 -91.5t34 -75.5t86 -29.5t96 21v-89q-44 -20 -121 -20q-76 -1 -136 51t-60 124z" />
    <glyph glyph-name="uniEFF2" unicode="&#xeff2;" horiz-adv-x="664" 
d="M436 -275q0 46 -25 72.5t-60 26.5q-74 0 -98 -45l-77 39l83 182h86l-49 -118q39 14 66 14q67 0 113 -48t46 -122t-50.5 -127t-123.5 -53q-150 0 -183 147l85 9q25 -81 95 -81q41 0 66.5 29t25.5 75z" />
    <glyph glyph-name="uniEFF3" unicode="&#xeff3;" horiz-adv-x="680" 
d="M339 1639q45 0 75.5 30.5t30.5 74.5t-30.5 74.5t-75.5 30.5t-75.5 -30.5t-30.5 -74.5t30.5 -74.5t75.5 -30.5zM339 1532q-89 0 -150.5 61.5t-61.5 150.5t61.5 150.5t150.5 61.5t150.5 -61.5t61.5 -150.5t-61.5 -150.5t-150.5 -61.5z" />
    <glyph glyph-name="uniEFF4" unicode="&#xeff4;" horiz-adv-x="1028" 
d="M569 1643h-134l-296 255h183l173 -150l181 150h189z" />
    <glyph glyph-name="uniEFF5" unicode="&#xeff5;" horiz-adv-x="899" 
d="M610 1667q-42 0 -77 9.5t-119 42.5t-112 33t-68.5 -18.5t-66.5 -45.5l-71 101q31 37 92 63t124 26t153 -42q90 -43 139 -43t127 53l71 -101q-35 -33 -92.5 -55.5t-99.5 -22.5z" />
    <glyph glyph-name="uniEFF6" unicode="&#xeff6;" horiz-adv-x="756" 
d="M451 1900h152v-258h-152v258zM150 1900h152v-258h-152v258z" />
    <glyph glyph-name="uniEFF7" unicode="&#xeff7;" horiz-adv-x="1028" 
d="M447 1897h134l295 -255h-183l-172 150l-180 -150h-189z" />
    <glyph glyph-name="uniEFF8" unicode="&#xeff8;" horiz-adv-x="774" 
d="M547 1600l-406 220l67 122l404 -223z" />
    <glyph glyph-name="uniEFF9" unicode="&#xeff9;" horiz-adv-x="768" 
d="M160 1720l409 220l67 -122l-411 -218z" />
    <glyph glyph-name="uniF001" unicode="&#xf001;" horiz-adv-x="997" 
d="M721 1515h142v-257h-142v257zM358 992v-992h-144v992h-175v129h175v23q0 191 103 294t293 103h33v-127q-144 -1 -214.5 -62.5t-70.5 -190.5v-40h506v-1121h-144v992h-362z" />
    <glyph glyph-name="uniF002" unicode="&#xf002;" horiz-adv-x="993" 
d="M360 992v-992h-144v992h-177v129h177v23q0 191 102.5 294t291.5 103h33v-127q-144 0 -213.5 -62t-69.5 -191v-40h356v394h144v-1515h-144v992h-356z" />
    <glyph glyph-name="uniFB01" unicode="&#xfb01;" horiz-adv-x="997" 
d="M721 1515h142v-257h-142v257zM358 992v-992h-144v992h-175v129h175v23q0 191 103 294t293 103h33v-127q-144 -1 -214.5 -62.5t-70.5 -190.5v-40h506v-1121h-144v992h-362z" />
    <glyph glyph-name="glyph106" 
d="M672 758q0 282 -194.5 476.5t-477.5 194.5t-477.5 -194.5t-194.5 -476.5t195 -476.5t477 -194.5t477 194.5t195 476.5zM0 1539q328 0 554.5 -226.5t226.5 -554.5t-226.5 -554.5t-554.5 -226.5t-554.5 226.5t-226.5 554.5t226.5 554.5t554.5 226.5z" />
    <glyph glyph-name="glyph107" 
d="M-314 759q0 -165 89.5 -264.5t236.5 -99.5q109 0 180.5 54t93.5 154h113q-14 -129 -127 -220.5t-260 -91.5q-195 0 -319.5 130.5t-124.5 336.5t124.5 336t319.5 130q150 0 261.5 -88.5t125.5 -219.5h-113q-47 204 -274 204q-150 0 -238 -98t-88 -263z" />
    <glyph glyph-name="glyph113" 
d="M668 758q0 286 -193.5 483.5t-474.5 197.5t-474.5 -197.5t-193.5 -483.5t194 -483.5t474 -197.5t474 197.5t194 483.5zM0 1539q328 0 554.5 -226.5t226.5 -554.5t-226.5 -554.5t-554.5 -226.5t-554.5 226.5t-226.5 554.5t226.5 554.5t554.5 226.5z" />
    <glyph glyph-name="glyph114" 
d="M242 946q0 146 -223 146h-241v-310h222q242 0 242 164zM-334 304v893h353q175 0 255.5 -58t80.5 -185t-78 -182q-34 -24 -86 -37q59 -15 101 -59t50 -164l8 -120q6 -70 19 -88h-112q-13 25 -21 116l-5 71q-7 115 -52.5 153t-175.5 38h-225v-378h-112z" />
    <glyph glyph-name="glyph130" horiz-adv-x="680" 
d="M284 606v797h-155v112h278v-909h-123z" />
    <glyph glyph-name="glyph131" horiz-adv-x="680" 
d="M458 765h-452v107l442 643h133v-639h86v-111h-86v-159h-123v159z" />
    <glyph glyph-name="glyph133" horiz-adv-x="680" 
d="M284 606v797h-155v112h278v-909h-123z" />
    <glyph glyph-name="glyph134" horiz-adv-x="680" 
d="M651 1260q0 -106 -62 -184q-62 -80 -313 -308l-56 -51h431v-111h-612v105l158 144q222 201 277 267t55 133t-52 115t-132 48t-131 -62t-44 -155h-119q-2 146 81 237.5t214 91.5t218 -82t87 -188z" />
    <glyph glyph-name="glyph136" horiz-adv-x="680" 
d="M467 1297q0 52 -37.5 86.5t-91.5 34.5t-88 -42.5t-35 -108.5h-117q4 117 73 190t175 73t176.5 -64.5t70.5 -158.5t-75 -162l-19 -16q35 -18 65 -46q87 -81 87 -205t-87.5 -205.5t-223.5 -81.5t-218.5 85.5t-84.5 233.5h121q0 -87 52.5 -147t130.5 -60t131.5 51.5
t53.5 129.5t-53.5 129.5t-133.5 51.5h-72v112h69q56 0 94 34q37 34 37 86z" />
    <glyph glyph-name="glyph137" horiz-adv-x="680" 
d="M458 765h-452v107l442 643h133v-639h86v-111h-86v-159h-123v159z" />
    <glyph glyph-name="glyph140" 
d="M142 -42l-406 220l67 122l404 -223z" />
    <glyph glyph-name="glyph142" 
d="M-190 78l409 220l67 -122l-411 -218z" />
    <glyph glyph-name="glyph144" 
d="M-67 255h134l295 -255h-183l-172 150l-180 -150h-189z" />
    <glyph glyph-name="glyph146" 
d="M160 25q-42 0 -76.5 9.5t-118.5 42.5t-112 33t-68.5 -18.5t-66.5 -45.5l-71 101q31 37 92 63t124 26t153 -42t139 -43q49 0 127 53l71 -101q-35 -33 -93 -55.5t-100 -22.5z" />
    <glyph glyph-name="glyph148" 
d="M74 258h152v-258h-152v258zM-227 258h152v-258h-152v258z" />
    <glyph glyph-name="glyph150" 
d="M0 -3q45 0 75.5 30.5t30.5 74.5t-30.5 74.5t-75.5 30.5t-75.5 -30.5t-30.5 -74.5t30.5 -74.5t75.5 -30.5zM0 -110q-89 0 -150.5 61.5t-61.5 150.5t61.5 150.5t150.5 61.5t150.5 -61.5t61.5 -150.5t-61.5 -150.5t-150.5 -61.5z" />
    <glyph glyph-name="glyph153" 
d="M-22 -379q41 0 66.5 29t25.5 75t-25 72.5t-60 26.5q-74 0 -98 -45l-77 39l83 182h86l-49 -118q39 14 66 14q67 0 113 -48t46 -122t-50.5 -127t-123.5 -53q-150 0 -183 147l85 9q25 -81 95 -81z" />
    <glyph glyph-name="glyph179" 
d="M142 -42l-406 220l67 122l404 -223z" />
    <glyph glyph-name="glyph181" 
d="M-190 78l409 220l67 -122l-411 -218z" />
    <glyph glyph-name="glyph183" 
d="M-67 255h134l295 -255h-183l-172 150l-180 -150h-189z" />
    <glyph glyph-name="glyph185" 
d="M160 25q-42 0 -76.5 9.5t-118.5 42.5t-112 33t-68.5 -18.5t-66.5 -45.5l-71 101q31 37 92 63t124 26t153 -42t139 -43q49 0 127 53l71 -101q-35 -33 -93 -55.5t-100 -22.5z" />
    <glyph glyph-name="glyph187" 
d="M74 258h152v-258h-152v258zM-227 258h152v-258h-152v258z" />
    <glyph glyph-name="glyph189" 
d="M-16 27q45 0 75.5 30.5t30.5 74.5t-30.5 74.5t-75.5 30.5t-75.5 -30.5t-30.5 -74.5t30.5 -74.5t75.5 -30.5zM-16 -80q-89 0 -150.5 61.5t-61.5 150.5t61.5 150.5t150.5 61.5t150.5 -61.5t61.5 -150.5t-61.5 -150.5t-150.5 -61.5z" />
    <glyph glyph-name="glyph192" 
d="M-4 -379q41 0 66.5 29t25.5 75t-25 72.5t-60 26.5q-74 0 -98 -45l-77 39l83 182h86l-49 -118q39 14 66 14q67 0 113 -48t46 -122t-50.5 -127t-123.5 -53q-150 0 -183 147l85 9q25 -81 95 -81z" />
    <glyph glyph-name="glyph219" 
d="M-346 178h692v-137h-692v137z" />
    <glyph glyph-name="glyph221" 
d="M-346 137h692v-137h-692v137z" />
    <glyph glyph-name="glyph223" 
d="M358 235q-80 -212 -357.5 -212t-357.5 212h134q28 -43 88 -68.5t135 -25.5t135.5 25.5t88.5 68.5h134z" />
    <glyph glyph-name="glyph225" 
d="M358 235q-80 -212 -357.5 -212t-357.5 212h134q28 -43 88 -68.5t135 -25.5t135.5 25.5t88.5 68.5h134z" />
    <glyph glyph-name="glyph227" 
d="M52 -391q-76 -1 -136 51t-60 124t32.5 118t114.5 98h107q-84 -61 -118.5 -106.5t-34.5 -91.5t34 -75.5t86 -29.5t96 21v-89q-44 -20 -121 -20z" />
    <glyph glyph-name="glyph229" 
d="M20 -391q-76 -1 -136 51t-60 124t32.5 118t114.5 98h107q-84 -61 -118.5 -106.5t-34.5 -91.5t34 -75.5t86 -29.5t96 21v-89q-44 -20 -121 -20z" />
    <glyph glyph-name="glyph233" 
d="M60 1h-134l-296 255h183l173 -150l181 150h189z" />
    <glyph glyph-name="glyph235" 
d="M60 1h-134l-296 255h183l173 -150l181 150h189z" />
    <glyph glyph-name="glyph238" 
d="M-446 1020q-190 0 -321 -134t-131 -328t131 -327.5t321 -133.5t321 134t131 328t-131 327.5t-321 133.5zM-457 -26q-249 0 -417 170t-168 416t168 416.5t417 170.5t417 -171l40 -45v584h144v-1515h-144v189l-40 -45q-168 -170 -417 -170z" />
    <glyph glyph-name="glyph239" 
d="M-5 0l108 286h130l-108 -286h-130z" />
    <glyph glyph-name="glyph245" 
d="M-76 258h152v-258h-152v258z" />
    <glyph glyph-name="glyph247" 
d="M-76 258h152v-258h-152v258z" />
    <glyph glyph-name="glyph255" 
d="M-5 0l108 286h130l-108 -286h-130z" />
    <glyph glyph-name="glyph257" 
d="M143 286l-108 -286h-130l108 286h130z" />
    <glyph glyph-name="glyph282" 
d="M54 13l301 314l89 -84l-302 -313zM-239 13l301 314l89 -84l-302 -313z" />
    <glyph glyph-name="glyph284" 
d="M54 13l301 314l89 -84l-302 -313zM-239 13l301 314l89 -84l-302 -313z" />
    <glyph glyph-name="glyph300" 
d="M-22 -379q41 0 66.5 29t25.5 75t-25 72.5t-60 26.5q-74 0 -98 -45l-77 39l83 182h86l-49 -118q39 14 66 14q67 0 113 -48t46 -122t-50.5 -127t-123.5 -53q-150 0 -183 147l85 9q25 -81 95 -81z" />
    <glyph glyph-name="glyph302" 
d="M-4 -379q41 0 66.5 29t25.5 75t-25 72.5t-60 26.5q-74 0 -98 -45l-77 39l83 182h86l-49 -118q39 14 66 14q67 0 113 -48t46 -122t-50.5 -127t-123.5 -53q-150 0 -183 147l85 9q25 -81 95 -81z" />
    <glyph glyph-name="glyph350" 
d="M-54 606v811h-220v98h548v-98h-219v-811h-109z" />
    <glyph glyph-name="glyph351" 
d="M-386 606h-109v909h78l417 -750l338 750h156v-909h-109v763l-345 -763h-80l-346 765v-765z" />
  </font>
</defs>
</svg>
