<?xml version="1.0" standalone="no"?>
<!DOCTYPE svg PUBLIC "-//W3C//DTD SVG 1.1//EN" "http://www.w3.org/Graphics/SVG/1.1/DTD/svg11.dtd" >
<svg xmlns="http://www.w3.org/2000/svg">
<metadata>
Created by FontPrep 20130207 at Tue Nov  5 09:20:31 2013
 By Fabien Postif
Copyright (c) 1992-97 Hewlett-Packard. All rights reserved.
</metadata>
<defs>
<font id="cfe0e2a74f9bbf9a998b4e47c80fe56f" horiz-adv-x='1024' >
  <font-face 
    font-family="AvantGarde-DemiOblique"
    font-weight="600"
    font-style="oblique"
    font-stretch="normal"
    units-per-em="2048"
    panose-1="2 11 8 2 2 2 2 9 2 4"
    ascent="1638"
    descent="-410"
    x-height="1136"
    cap-height="1515"
    bbox="-825 -572 2579.01 2111"
    underline-thickness="102"
    underline-position="-154"
    slope="-11"
    unicode-range="U+0020-FB01"
  />
<missing-glyph horiz-adv-x="669" 
d="M100 1174v-1074h369v1074h-369zM0 1274h569v-1274h-569v1274z" />
    <glyph glyph-name=".notdef" horiz-adv-x="669" 
d="M100 1174v-1074h369v1074h-369zM0 1274h569v-1274h-569v1274z" />
    <glyph glyph-name="glyph1" 
 />
    <glyph glyph-name="nonmarkingreturn" horiz-adv-x="682" 
 />
    <glyph glyph-name="space" unicode=" " horiz-adv-x="573" 
 />
    <glyph glyph-name="exclam" unicode="!" horiz-adv-x="573" 
d="M198 262h274l-48 -262h-274zM224 383l216 1132h270l-216 -1132h-270z" />
    <glyph glyph-name="quotedbl" unicode="&#x22;" horiz-adv-x="737" 
d="M646 909l63 606h272l-167 -606h-168zM260 909l63 606h272l-167 -606h-168z" />
    <glyph glyph-name="numbersign" unicode="#" horiz-adv-x="1147" 
d="M645 832l-75 -232h188l74 232h-187zM841 1432l-131 -404h186l131 404h206l-131 -404h165l-44 -196h-185l-75 -232h164l-44 -196h-184l-132 -405h-206l132 405h-186l-132 -405h-206l132 405h-166l44 196h185l76 232h-165l44 196h185l131 404h206z" />
    <glyph glyph-name="dollar" unicode="$" horiz-adv-x="1147" 
d="M935 1139q0 55 -30.5 89t-86.5 34t-102 -40t-58 -101t21 -97t129 -68q199 -64 273 -168q52 -73 52 -176q0 -44 -9 -93q-38 -194 -188 -318q-94 -77 -208 -105l-51 -272h-258l50 266q-113 28 -189 116t-77 209q0 46 11 94h269q-7 -74 37 -124.5t119 -50.5t136.5 54.5
t75.5 128.5q14 75 -29 115t-164 80q-173 56 -236 153q-43 66 -43 135q0 257 173 401q85 69 185 97l49 257h258l-50 -266q71 -26 118 -79q82 -89 81 -235l-1 -36h-257z" />
    <glyph glyph-name="percent" unicode="%" horiz-adv-x="1761" 
d="M1239 317q1 -124 121 -124q60 0 109 51.5t49 113.5t-31 93t-91 31t-108.5 -51.5t-48.5 -113.5zM1308 -33q-139 0 -223.5 80.5t-84.5 213.5q0 184 132 315.5t317 131.5q139 0 223 -81t83 -214q0 -184 -131 -315t-316 -131zM457 -3l923 1521h206l-923 -1521h-206zM523 1157
q-1 -124 121 -124q60 0 109 51.5t49 113.5t-30 93t-90 31t-109.5 -51.5t-49.5 -113.5zM591 807q-139 0 -223 80.5t-83 213.5q0 184 131.5 315.5t316.5 131.5q139 0 223 -81t84 -214q-1 -184 -132.5 -315t-316.5 -131z" />
    <glyph glyph-name="ampersand" unicode="&#x26;" horiz-adv-x="1393" 
d="M848 1291q-54 0 -98 -37.5t-52 -83.5q-15 -80 43 -161l21 -28q168 73 188 179q10 56 -19 93.5t-83 37.5zM584 236q77 0 138 50t113 113l-189 266q-49 -25 -100 -65q-110 -86 -126 -168t35 -140q52 -56 129 -56zM892 1545q160 0 254 -110.5t66 -260.5t-148 -270
q-70 -70 -160 -117l109 -149q56 79 126 171t69 83h301q-11 -9 -130 -167l-215 -293l210 -285l-234 -177l-159 223q-204 -223 -416 -223q-211 0 -334 144t-89 320t171 306q84 79 189 128q-92 160 -63 310q28 150 160.5 258.5t292.5 108.5zM1509 892h1q0 1 -1 0z" />
    <glyph glyph-name="quotesingle" unicode="'" horiz-adv-x="451" 
d="M311 909l63 606h272l-167 -606h-168z" />
    <glyph glyph-name="parenleft" unicode="(" horiz-adv-x="778" 
d="M639 -322q-225 68 -339 334t-52 596t264 591t466 346l-57 -299q-138 -83 -251.5 -268.5t-149.5 -375.5t16 -365.5t160 -259.5z" />
    <glyph glyph-name="parenright" unicode=")" horiz-adv-x="778" 
d="M355 1545q225 -69 339 -335t51 -594q-63 -330 -264 -592t-465 -346l57 299q137 83 250.5 269t149.5 376t-16 365t-159 259z" />
    <glyph glyph-name="asterisk" unicode="*" horiz-adv-x="901" 
d="M941 1473l-148 -173l210 16l-29 -150l-201 16l85 -168l-144 -77l-56 185l-124 -187l-117 74l148 173l-209 -16l29 150l200 -16l-84 168l143 77l57 -185l124 187z" />
    <glyph glyph-name="plus" unicode="+" horiz-adv-x="1229" 
d="M565 392h-393l47 246h393l75 393h246l-75 -393h393l-47 -246h-393l-74 -393h-246z" />
    <glyph glyph-name="comma" unicode="," horiz-adv-x="573" 
d="M203 272h272l-53 -287q-25 -128 -107.5 -198.5t-216.5 -76.5l27 138q87 14 110 48t35 104h-118z" />
    <glyph glyph-name="hyphen" unicode="-" horiz-adv-x="860" 
d="M278 710h574l-45 -238h-574z" />
    <glyph glyph-name="period" unicode="." horiz-adv-x="573" 
d="M202 273h274l-52 -273h-274z" />
    <glyph glyph-name="slash" unicode="/" horiz-adv-x="942" 
d="M1205 1515l-961 -1720h-270l961 1720h270z" />
    <glyph glyph-name="zero" unicode="0" horiz-adv-x="1147" 
d="M611 227q106 0 183.5 69t99.5 182l105 551q22 119 -27.5 189t-155.5 70t-183.5 -69t-99.5 -182l-105 -551q-22 -119 27.5 -189t155.5 -70zM564 -30q-224 0 -338 146q-83 105 -83 253q0 57 12 120l105 551q42 222 211 363.5t393 141.5t337 -146q84 -105 83 -255
q0 -56 -12 -120l-105 -551q-42 -221 -210.5 -362t-392.5 -141z" />
    <glyph glyph-name="one" unicode="1" horiz-adv-x="1147" 
d="M743 0h-272l239 1257h-197l49 257h469z" />
    <glyph glyph-name="two" unicode="2" horiz-adv-x="1147" 
d="M1271 1139v-8q0 -221 -162 -395q-129 -138 -577 -478h590l-49 -258h-983l49 258q604 469 734 597q129 128 127 257q-1 82 -50.5 129t-147.5 47t-171 -76t-100 -217h-271q53 254 214.5 402t386.5 148q185 1 297 -111t113 -295z" />
    <glyph glyph-name="three" unicode="3" horiz-adv-x="1147" 
d="M850 1545q158 0 253.5 -95t95.5 -241q0 -182 -141 -308q-20 -19 -42 -34l51 -36q121 -97 121 -254v-3q0 -248 -184 -426t-441 -178q-210 0 -325.5 131.5t-100.5 356.5h274q-2 -109 54.5 -170t164.5 -61t193 86.5t85 191.5t-62.5 162t-165.5 57h-78l48 256h54q99 0 160 54
t61 145q2 109 -110 109q-59 0 -103 -37t-60 -100h-274q40 170 177 282t295 112z" />
    <glyph glyph-name="four" unicode="4" horiz-adv-x="1147" 
d="M1010 1515h237l-196 -1030h157l-49 -258h-157l-43 -227h-272l43 227h-656l40 212z" />
    <glyph glyph-name="five" unicode="5" horiz-adv-x="1147" 
d="M564 -30q-209 0 -332.5 136.5t-100.5 342.5h277q-9 -95 48.5 -158.5t152.5 -63.5q128 0 219.5 94t91.5 208t-58 175.5t-150 61.5q-58 0 -124 -31.5t-108 -78.5l-230 66l297 793h687l-49 -258h-486l-103 -275q97 38 198 38q182 0 292 -114t110 -302q-1 -254 -190 -444
t-442 -190z" />
    <glyph glyph-name="six" unicode="6" horiz-adv-x="1147" 
d="M413 460q0 -110 57 -171.5t162 -61.5t194.5 93.5t89.5 205.5t-56.5 171.5t-160.5 59.5t-195 -93.5t-91 -203.5zM842 1008q159 0 260 -110t101 -281v-4q1 -251 -193 -447t-434 -196q-239 0 -359 153q-87 111 -86 266q-1 58 15 142t90 198t277 352l365 432h318l-432 -510
q39 5 78 5z" />
    <glyph glyph-name="seven" unicode="7" horiz-adv-x="1147" 
d="M170 0l797 1250l4 7h-615l49 258h895l-50 -265l-779 -1250h-301z" />
    <glyph glyph-name="eight" unicode="8" horiz-adv-x="1147" 
d="M423 431q-1 -204 199 -204q100 0 184 81t84 182q0 205 -200 205q-100 0 -183.5 -81.5t-83.5 -182.5zM754 961q60 0 124.5 51t64.5 143q0 60 -35.5 96.5t-95.5 36.5t-124.5 -51.5t-64.5 -143.5q0 -60 35.5 -96t95.5 -36zM564 -30q-189 0 -304 115t-115 313t179 355
q63 55 134 91q-99 91 -99 229q0 31 8 79q30 157 179 275t308 118t258 -97.5t99 -244.5q0 -208 -185 -344l-23 -16l49 -38q117 -105 117 -278q-1 -223 -182 -390t-423 -167z" />
    <glyph glyph-name="nine" unicode="9" horiz-adv-x="1147" 
d="M798 1287q-107 -1 -198 -93t-91 -204t57.5 -172.5t163.5 -60.5q106 -1 198 93t92 204t-57.5 171.5t-164.5 61.5zM587 506q-160 0 -261 114t-101 293q0 246 195.5 438.5t431.5 192.5t359 -156q91 -116 92 -270q1 -53 -15 -133t-91 -195t-281 -359l-365 -432h-318l365 432
q34 39 65 80q-37 -5 -76 -5z" />
    <glyph glyph-name="colon" unicode=":" horiz-adv-x="573" 
d="M366 1136h274l-52 -273h-274zM202 273h274l-52 -273h-274z" />
    <glyph glyph-name="semicolon" unicode=";" horiz-adv-x="573" 
d="M360 1136h274l-52 -273h-274zM203 272h272l-53 -287q-25 -128 -107.5 -198.5t-216.5 -76.5l27 138q87 14 110 48t35 104h-118z" />
    <glyph glyph-name="less" unicode="&#x3c;" horiz-adv-x="1229" 
d="M172 418l37 194l1125 438l-45 -234l-772 -299l658 -301l-44 -236z" />
    <glyph glyph-name="equal" unicode="=" horiz-adv-x="1229" 
d="M263 867h1032l-47 -246h-1032zM176 410h1032l-47 -246h-1032z" />
    <glyph glyph-name="greater" unicode="&#x3e;" horiz-adv-x="1229" 
d="M1215 418l-1123 -438l44 236l772 301l-658 299l45 234l957 -438z" />
    <glyph glyph-name="question" unicode="?" horiz-adv-x="1147" 
d="M450 273h274l-52 -273h-274zM781 1276q-169 0 -222 -200h-283q53 212 205.5 340.5t354.5 128.5t307.5 -129.5t66.5 -333.5q-20 -103 -92 -203t-176 -174t-142.5 -135.5t-61.5 -183.5h-274q28 144 102.5 277t164.5 197q128 92 160 126.5t46 107.5q14 74 -29 128t-127 54z
" />
    <glyph glyph-name="at" unicode="@" horiz-adv-x="1516" 
d="M1047 951q-145 0 -250 -113.5t-100 -266.5q1 -58 40 -91.5t107 -33.5t153 75.5t129 174.5t19 177t-98 78zM1219 447q116 0 219 155.5t103 329.5t-122.5 278.5t-324.5 104.5q-282 0 -493 -221.5t-211 -516.5q-1 -199 139.5 -328.5t355.5 -129.5q118 0 258.5 53.5
t224.5 131.5h156q-102 -137 -297.5 -232t-376.5 -95q-275 0 -451 169.5t-176 436.5q0 350 272 612t634 262q253 0 414 -144t161 -371t-199.5 -448t-404.5 -221q-86 0 -92 89v29q-152 -118 -279 -118q-89 0 -150.5 72.5t-64.5 180.5q-5 234 164 415t393 181q131 0 173 -135
l47 104h171l-213 -478q-44 -96 -50.5 -131t20.5 -35z" />
    <glyph glyph-name="A" unicode="A" horiz-adv-x="1516" 
d="M937 1515h218l347 -1515h-299l-80 391h-587l-226 -391h-296z" />
    <glyph glyph-name="B" unicode="B" horiz-adv-x="1188" 
d="M620 259q145 0 229 61.5t84 166.5q2 178 -257 178h-127l-77 -406h148zM966 1118q0 138 -201 138h-103l-63 -332h103q122 0 193 52t71 142zM1223 531v-3q0 -238 -187.5 -383t-493.5 -145h-399l288 1515h401q196 0 306.5 -88t110.5 -245q0 -198 -168 -319q-26 -19 -54 -34
q196 -101 196 -298z" />
    <glyph glyph-name="C" unicode="C" horiz-adv-x="1597" 
d="M861 -30q-291 0 -476.5 182.5t-185.5 468.5q1 370 284.5 647t661.5 277q235 0 403 -124.5t219 -337.5h-317q-56 95 -149.5 149t-204.5 54q-239 0 -424.5 -190t-184.5 -435q-1 -190 116 -311t301 -121q107 0 220 52.5t200 142.5h317q-128 -206 -341 -330t-439 -124z" />
    <glyph glyph-name="D" unicode="D" horiz-adv-x="1434" 
d="M519 259q317 0 506 162.5t189 434.5q0 193 -124 296.5t-355 103.5h-87l-190 -997h61zM781 1515q346 0 532 -154t186 -439v-3q-1 -417 -272 -668t-723 -251h-375l288 1515h364z" />
    <glyph glyph-name="E" unicode="E" horiz-adv-x="1065" 
d="M125 0l288 1515h808l-49 -262h-528l-71 -370h512l-50 -262h-512l-69 -359h537l-49 -262h-817z" />
    <glyph glyph-name="F" unicode="F" horiz-adv-x="983" 
d="M405 0h-280l288 1515h768l-49 -262h-488l-71 -370h464l-50 -262h-464z" />
    <glyph glyph-name="G" unicode="G" horiz-adv-x="1720" 
d="M182 625q0 368 290.5 644t678.5 276q246 0 420.5 -126.5t226.5 -342.5h-336q-58 99 -157.5 154.5t-218.5 55.5q-242 0 -429 -189t-188 -432q1 -192 124 -314t316 -122q238 0 423 190q45 46 77 92h-631l50 262h985q-42 -297 -280 -526q-286 -277 -669 -277
q-299 0 -491 184q-191 183 -191 471z" />
    <glyph glyph-name="H" unicode="H" horiz-adv-x="1393" 
d="M433 1515h280l-118 -619h547l118 619h280l-288 -1515h-280l120 634h-547l-120 -634h-280z" />
    <glyph glyph-name="I" unicode="I" horiz-adv-x="573" 
d="M435 1515h280l-288 -1515h-280z" />
    <glyph glyph-name="J" unicode="J" horiz-adv-x="983" 
d="M352 356q-8 -127 116 -127q125 0 164 198l207 1088h280l-207 -1088q-44 -233 -166 -345t-334 -112q-166 0 -258.5 104t-83.5 282h282z" />
    <glyph glyph-name="K" unicode="K" horiz-adv-x="1270" 
d="M462 0h-280l288 1515h280l-127 -666l600 666h328l-713 -750l436 -765h-344l-341 666z" />
    <glyph glyph-name="L" unicode="L" horiz-adv-x="901" 
d="M435 1515h280l-239 -1253h471l-49 -262h-751z" />
    <glyph glyph-name="M" unicode="M" horiz-adv-x="1843" 
d="M409 0h-280l288 1515h195l378 -1161l624 1161h391l-288 -1515h-280l219 1153l-618 -1153h-230l-180 1153z" />
    <glyph glyph-name="N" unicode="N" horiz-adv-x="1516" 
d="M423 0h-280l288 1515h158l580 -1114l212 1114h280l-288 -1515h-154l-586 1105z" />
    <glyph glyph-name="O" unicode="O" horiz-adv-x="1720" 
d="M900 229q243 0 431 189.5t188 434.5q1 191 -116 312t-301 121q-243 0 -431.5 -190t-187.5 -435q-1 -190 116 -311t301 -121zM852 -30q-289 0 -473 182t-184 468q0 370 287 647.5t669 277.5q289 0 472.5 -182.5t183.5 -468.5q-1 -370 -287 -647t-668 -277z" />
    <glyph glyph-name="P" unicode="P" horiz-adv-x="1147" 
d="M1031 1088q0 168 -245 168h-120l-80 -420h120q150 0 237.5 68t87.5 184zM864 1515q223 0 340 -93t117 -270q0 -265 -179.5 -420t-485.5 -155h-119l-110 -577h-280l288 1515h429z" />
    <glyph glyph-name="Q" unicode="Q" horiz-adv-x="1720" 
d="M648 484q-69 0 -130 -18q29 -65 79 -116q117 -121 301 -121q115 0 216 42h1q-114 113 -224 163t-243 50zM1100 1286q-243 0 -431 -190q-166 -167 -185 -376q94 25 206 25q189 0 337 -67.5t290 -218.5l25 -26q175 183 175 420q1 191 -116 312t-301 121zM834 -30
q-273 0 -457 182t-184 468q0 370 287 647.5t669 277.5q289 0 472.5 -182.5t183.5 -468.5q0 -352 -260 -620q78 -45 161 -44l19 -5l-48 -260l-58 4q-102 0 -223 72l-79 53q-210 -124 -483 -124z" />
    <glyph glyph-name="R" unicode="R" horiz-adv-x="1188" 
d="M806 1256h-156l-89 -469h156q156 0 246.5 75t91.5 204q0 190 -249 190zM864 1515q230 0 357 -101t126 -284v-3q1 -251 -187 -417q-129 -114 -305 -151l310 -559h-343l-297 598l-114 -598h-280l288 1515h445z" />
    <glyph glyph-name="S" unicode="S" horiz-adv-x="1065" 
d="M754 1286q-71 0 -119.5 -47t-62.5 -119t36 -114q48 -43 184 -90q195 -67 266 -178q48 -75 48 -181q0 -52 -11 -110q-39 -205 -205.5 -341t-372.5 -136t-323 133q-94 110 -94 263l5 73h302q-14 -88 32.5 -149t134.5 -61t153 55.5t82 143.5t-29 139.5t-181 97.5
q-197 68 -270 172q-50 72 -51 175q5 250 174 391.5t356 141.5t283 -110t95 -277l-1 -44h-290q6 81 -32 126.5t-109 45.5z" />
    <glyph glyph-name="T" unicode="T" horiz-adv-x="860" 
d="M569 0h-280l239 1253h-284l49 262h848l-49 -262h-284z" />
    <glyph glyph-name="U" unicode="U" horiz-adv-x="1311" 
d="M654 -30q-252 0 -373 163q-82 114 -82 278q0 71 15 151l181 953h280l-184 -967q-11 -56 -11 -120t33 -116q51 -80 179 -80t212 82t113 234l184 967h280l-181 -953q-54 -284 -224 -438t-422 -154z" />
    <glyph glyph-name="V" unicode="V" horiz-adv-x="1434" 
d="M1410 1515h293l-875 -1515h-231l-300 1515h147l342 -1129z" />
    <glyph glyph-name="W" unicode="W" horiz-adv-x="1843" 
d="M1845 1515h283l-725 -1515h-115l-168 1011l-444 -1011h-231l-150 1515h142l221 -1042l452 1042h102l158 -1046z" />
    <glyph glyph-name="X" unicode="X" horiz-adv-x="1393" 
d="M296 1515h335l254 -509l443 509h332l-655 -752l381 -763h-335l-259 519l-452 -519h-332l664 762z" />
    <glyph glyph-name="Y" unicode="Y" horiz-adv-x="1270" 
d="M276 1515h310l206 -694l457 694h306l-675 -959l-106 -556h-280l107 561z" />
    <glyph glyph-name="Z" unicode="Z" horiz-adv-x="1024" 
d="M83 235l762 1018h-545l49 262h877l-44 -235l-762 -1018h612l-49 -262h-944z" />
    <glyph glyph-name="bracketleft" unicode="[" horiz-adv-x="655" 
d="M304 976q42 222 170.5 355.5t376.5 213.5l-57 -299q-93 -31 -146 -127.5t-93 -309.5l-88 -459q-33 -177 -13.5 -253.5t112.5 -119.5l-57 -299q-430 133 -327 658z" />
    <glyph glyph-name="backslash" unicode="\" horiz-adv-x="1311" 
d="M808 -205l-331 1720h272l331 -1720h-272z" />
    <glyph glyph-name="bracketright" unicode="]" horiz-adv-x="655" 
d="M561 247q-43 -222 -171 -355.5t-376 -213.5l57 299q95 32 149 128.5t94 308.5l88 459q34 176 13 252.5t-116 120.5l57 299q429 -132 327 -658z" />
    <glyph glyph-name="asciicircum" unicode="^" horiz-adv-x="1229" 
d="M779 1514h218l227 -747h-246l-131 514l-310 -514h-246z" />
    <glyph glyph-name="underscore" unicode="_" horiz-adv-x="1024" 
d="M-46 -258l20 104h1024l-20 -104h-1024z" />
    <glyph glyph-name="grave" unicode="`" horiz-adv-x="860" 
d="M799 1276l-412 261l157 206l398 -280z" />
    <glyph glyph-name="a" unicode="a" horiz-adv-x="1352" 
d="M837 927q-166 0 -288.5 -131.5t-122.5 -308.5q0 -121 77 -198.5t205 -77.5t247.5 106.5t146.5 250.5t-52.5 251.5t-212.5 107.5zM838 1175q214 0 349 -178l26 139h250l-216 -1136h-248l24 128q-198 -164 -404 -164t-337 139t-132 352q0 283 209 501.5t479 218.5z" />
    <glyph glyph-name="b" unicode="b" horiz-adv-x="1352" 
d="M721 211q166 0 288.5 130.5t122.5 307.5q1 122 -76.5 200t-204.5 78t-246 -106.5t-147 -250.5t51 -252q80 -107 212 -107zM948 1175q198 0 328.5 -140t130.5 -354q1 -282 -207 -500t-478 -218q-211 0 -350 177l-26 -140h-250l288 1515h272l-91 -482q185 142 383 142z" />
    <glyph glyph-name="c" unicode="c" horiz-adv-x="1311" 
d="M450 488q0 -121 75 -198t177 -77q199 0 309 156h307q-106 -192 -275 -299t-377 -107t-351.5 141t-142.5 356v3q0 280 220 496t504 216q195 0 331.5 -115t164.5 -302h-307q-53 167 -237 167q-160 0 -279 -130.5t-119 -306.5z" />
    <glyph glyph-name="d" unicode="d" horiz-adv-x="1352" 
d="M851 927q-166 0 -288.5 -131.5t-122.5 -308.5q0 -121 77 -198.5t205 -77.5t247.5 106.5t146.5 250.5t-52.5 251.5t-212.5 107.5zM633 -37q-206 0 -337 139.5t-132 352.5q0 283 215.5 501.5t494.5 218.5q189 1 310 -149l93 489h272l-288 -1515h-248l24 130
q-198 -167 -404 -167z" />
    <glyph glyph-name="e" unicode="e" horiz-adv-x="1311" 
d="M835 933q-161 0 -280 -136q-53 -61 -84 -132h626q-3 115 -75 191t-187 77zM639 -37q-204 0 -342.5 141t-138.5 356q1 281 219 498t501 217q213 0 352.5 -136.5t139.5 -345.5q1 -126 -54 -246h-880q11 -99 77 -167t170 -67q206 0 308 145h288q-103 -187 -269.5 -291
t-370.5 -104z" />
    <glyph glyph-name="f" unicode="f" horiz-adv-x="573" 
d="M801 1280q-85 0 -128 -31t-58 -113h160l-46 -241h-160l-170 -895h-272l170 895h-96l46 241h96q43 184 163 296t304 113l54 -1l-50 -264h-13z" />
    <glyph glyph-name="g" unicode="g" horiz-adv-x="1352" 
d="M828 927q-150 0 -272 -128.5t-122 -301.5q0 -126 76 -206t204 -80t249 106.5t148 250.5t-53 251.5t-230 107.5zM633 -212q166 0 273 98t145 254q-199 -177 -409 -177t-347.5 141t-137.5 356q1 281 216 498t494 217q209 1 335 -182l27 143h263l-176 -923
q-57 -303 -260 -489t-476 -186q-220 0 -350.5 96t-161.5 280h310q18 -58 87 -92t168 -34z" />
    <glyph glyph-name="h" unicode="h" horiz-adv-x="1229" 
d="M894 1175q204 0 299.5 -149t48.5 -393l-120 -633h-272l108 570q66 355 -164 355q-114 0 -190 -80t-105 -234l-116 -611h-272l288 1515h272l-87 -457q146 117 310 117z" />
    <glyph glyph-name="i" unicode="i" horiz-adv-x="492" 
d="M397 1515h272l-47 -250h-272zM325 1136h272l-216 -1136h-272z" />
    <glyph glyph-name="j" unicode="j" horiz-adv-x="532" 
d="M432 1515h272l-47 -250h-272zM19 -110q60 0 89 36.5t47 132.5l205 1077h272l-205 -1077q-78 -418 -463 -439l52 270h3z" />
    <glyph glyph-name="k" unicode="k" horiz-adv-x="1188" 
d="M436 0h-272l288 1515h272l-173 -910l460 531h317l-508 -555l352 -581h-348l-286 536z" />
    <glyph glyph-name="l" unicode="l" horiz-adv-x="492" 
d="M399 1515h272l-288 -1515h-272z" />
    <glyph glyph-name="m" unicode="m" horiz-adv-x="1925" 
d="M1589 1175q215 0 306 -144q58 -90 58 -235q0 -82 -19 -183l-116 -613h-272l111 587q33 172 -4 255t-151 83t-184 -77t-101 -237l-116 -611h-272l111 586q33 173 -4.5 256t-151.5 83t-184 -77t-101 -237l-116 -611h-272l216 1136h250l-17 -88q147 128 328 128t279 -155
l13 -21q17 19 35 34q159 141 374 141z" />
    <glyph glyph-name="n" unicode="n" horiz-adv-x="1229" 
d="M907 1175q191 0 286.5 -149t48.5 -393l-120 -633h-272l108 570q66 355 -164 355q-114 0 -190 -80t-105 -234l-116 -611h-272l216 1136h250l-19 -100q158 139 349 139z" />
    <glyph glyph-name="o" unicode="o" horiz-adv-x="1311" 
d="M692 213q164 0 285 130t121 305q0 122 -75.5 199.5t-194.5 77.5q-163 0 -284 -130.5t-121 -306.5q0 -121 75 -198t194 -77zM645 -37q-217 0 -358.5 141.5t-141.5 353.5v4q0 280 222 496.5t509 216.5q217 0 358.5 -142t141.5 -359q0 -279 -222 -495t-509 -216z" />
    <glyph glyph-name="p" unicode="p" horiz-adv-x="1352" 
d="M724 211q166 0 288.5 130.5t122.5 307.5q1 122 -76.5 200t-204.5 78t-246.5 -106.5t-147.5 -250.5t52 -251.5t212 -107.5zM315 1136h248l-24 -125q199 163 405 163t336 -139.5t130 -353.5q1 -282 -207 -500t-478 -218q-197 1 -332 153l-94 -495h-272z" />
    <glyph glyph-name="q" unicode="q" horiz-adv-x="1352" 
d="M847 927q-166 0 -288.5 -131.5t-122.5 -308.5q0 -121 77 -198.5t205 -77.5t247.5 106.5t146.5 250.5t-52.5 251.5t-212.5 107.5zM622 -37q-198 0 -329.5 139.5t-132.5 352.5q0 283 209 501.5t479 218.5q215 0 349 -178l26 139h250l-288 -1515h-272l92 486
q-185 -144 -383 -144z" />
    <glyph glyph-name="r" unicode="r" horiz-adv-x="655" 
d="M844 1175h22l-48 -252q-108 -9 -187 -68t-102 -183l-128 -672h-272l216 1136h250l-19 -103l31 39q93 103 237 103z" />
    <glyph glyph-name="s" unicode="s" horiz-adv-x="901" 
d="M448 -37q-178 0 -264 96t-84 238l3 61h289q-5 -67 26 -106t88 -39t95.5 29.5t48.5 80.5t-24 83t-128 64q-163 53 -225 135q-44 59 -44 142q1 33 7 70q30 154 154 256t282 102q158 1 238 -89t80 -214l-2 -45h-268q4 98 -87 98q-49 0 -82.5 -26t-41.5 -67q-7 -41 27 -68
t128 -58q167 -54 230 -138q45 -59 45 -143q-6 -215 -177 -352q-136 -110 -314 -110z" />
    <glyph glyph-name="t" unicode="t" horiz-adv-x="614" 
d="M176 -37l177 932h-135l46 241h135l73 381h272l-73 -381h165l-46 -241h-165l-177 -932h-272z" />
    <glyph glyph-name="u" unicode="u" horiz-adv-x="1229" 
d="M530 -37q-192 0 -288 149q-65 100 -64 243q-1 70 15 150l120 631h272l-108 -568q-67 -355 163 -355q114 0 190.5 80t105.5 234l116 609h272l-216 -1136h-250l19 102q-155 -139 -347 -139z" />
    <glyph glyph-name="v" unicode="v" horiz-adv-x="1147" 
d="M1054 1136h298l-677 -1136h-214l-244 1136h146l283 -752z" />
    <glyph glyph-name="w" unicode="w" horiz-adv-x="1638" 
d="M1532 1136h294l-628 -1136h-82l-166 727l-357 -727h-164l-196 1136h145l225 -705l317 705h107l166 -696z" />
    <glyph glyph-name="x" unicode="x" horiz-adv-x="1147" 
d="M267 1136h310l135 -342l283 342h299l-464 -547l311 -589h-328l-175 392l-305 -392h-327l509 590z" />
    <glyph glyph-name="y" unicode="y" horiz-adv-x="1188" 
d="M451 -382h-297l300 483l-220 1035h307l127 -721l401 721h317z" />
    <glyph glyph-name="z" unicode="z" horiz-adv-x="942" 
d="M88 251l619 637h-442l47 248h772l-48 -251l-616 -634l-2 -3h538l-47 -248h-868z" />
    <glyph glyph-name="braceleft" unicode="{" horiz-adv-x="696" 
d="M570 -390q-279 0 -357 75t-23 292l57 306q23 85 -22 135t-143 50l39 204q98 0 162 50t74 135l58 306q28 217 134.5 292t385.5 75l-34 -178q-115 0 -152.5 -27t-49.5 -120l-58 -306q-29 -224 -121 -282q-53 -33 -188 -47q130 -14 170 -47q70 -58 13 -282l-57 -306
q-24 -93 3.5 -120t142.5 -27z" />
    <glyph glyph-name="bar" unicode="|" horiz-adv-x="1229" 
d="M438 -512l389 2048h268l-389 -2048h-268z" />
    <glyph glyph-name="braceright" unicode="}" horiz-adv-x="696" 
d="M-24 -390l34 178q115 0 152.5 27t49.5 120l57 306q29 224 121 282q54 33 188 47q-129 14 -170 47q-70 58 -13 282l58 306q24 93 -3.5 120t-142.5 27l34 178q279 0 357.5 -75t22.5 -292l-58 -306q-22 -85 23 -135t143 -50l-39 -204q-98 0 -162 -50t-75 -135l-57 -306
q-27 -217 -134 -292t-386 -75z" />
    <glyph glyph-name="asciitilde" unicode="~" horiz-adv-x="1229" 
d="M1186 511q-158 -182 -278 -182q-97 0 -266 99q-71 41 -148 41t-122.5 -32t-98.5 -108l-40 196q62 84 141.5 133t137.5 49q118 0 243 -70t178 -70q104 0 212 140z" />
    <glyph glyph-name="uni00A0" unicode="&#xa0;" horiz-adv-x="573" 
 />
    <glyph glyph-name="exclamdown" unicode="&#xa1;" horiz-adv-x="573" 
d="M594 878h-274l48 262h274zM568 757l-216 -1132h-270l216 1132h270z" />
    <glyph glyph-name="cent" unicode="&#xa2;" horiz-adv-x="1147" 
d="M760 1002q-101 0 -179.5 -83t-78.5 -175t50 -140t118 -48t125.5 23t79.5 55h301q-87 -163 -230 -254q-84 -52 -178 -77l-42 -222h-257l42 223q-97 28 -170 100q-116 115 -116 291q0 227 179 402q130 129 290 163l39 205h257l-40 -210q90 -25 156 -83q115 -101 123 -265
h-291q-8 38 -61.5 66.5t-116.5 28.5z" />
    <glyph glyph-name="sterling" unicode="&#xa3;" horiz-adv-x="1147" 
d="M657 0h-579l49 258h287q85 116 63.5 212t-61.5 148l-15 19h-281l50 260h107q-14 74 -1 144q42 218 206.5 361t360.5 143t315.5 -127t101.5 -304h-277q-15 92 -56.5 133t-126.5 41t-156.5 -69t-92.5 -179q-12 -60 8 -121l7 -22h435l-50 -260h-227q11 -22 18 -49
q30 -105 8 -216q-10 -54 -56 -114h27q115 0 182 82.5t67 223.5h267q8 -232 -162.5 -398t-417.5 -166z" />
    <glyph glyph-name="currency" unicode="&#xa4;" horiz-adv-x="1147" 
d="M858 287q-115 -63 -246 -63t-221 63l-168 -142l-114 141l168 142q-44 104 -19 236t109 235l-114 141l168 141l114 -142q114 65 245 65t221 -66l169 143l114 -141l-170 -143q46 -103 20 -233t-108 -236l114 -142l-168 -141zM732 853q-79 0 -144.5 -55t-80.5 -135
t29.5 -135t123.5 -55t144.5 55t80.5 135t-29.5 135t-123.5 55z" />
    <glyph glyph-name="yen" unicode="&#xa5;" horiz-adv-x="1147" 
d="M276 1515h275l205 -590l423 590h271l-368 -513h174l-42 -216h-287l-83 -115l-13 -72h348l-41 -216h-348l-73 -383h-271l73 383h-349l41 216h349l12 66l-42 121h-284l42 216h168z" />
    <glyph glyph-name="brokenbar" unicode="&#xa6;" horiz-adv-x="1229" 
d="M633 682l130 682h268l-130 -682h-268zM438 -342l129 682h268l-129 -682h-268z" />
    <glyph glyph-name="section" unicode="&#xa7;" horiz-adv-x="1147" 
d="M438 715q0 -38 30.5 -68.5t118.5 -78.5l159 -87q40 -21 74 -43q103 60 104 147q0 38 -25.5 66.5t-99.5 70.5l-153 87q-49 28 -90 56l-20 -11q-98 -55 -98 -139zM174 659q0 217 243 342q-29 65 -30 149q1 171 137 283t332 112t282.5 -92.5t80.5 -285.5h-252
q-4 132 -143 132q-75 0 -124 -34t-49 -80t25.5 -74.5t98.5 -70.5l153 -87q153 -87 206.5 -153t53.5 -167q0 -194 -214 -322l-3 -2q57 -75 56 -187q0 -191 -143 -316t-355 -125t-313.5 110.5t-82.5 315.5h252q-3 -88 44 -134t135 -46t143.5 43t55.5 98t-31 87.5t-119 80.5
l-159 87q-165 91 -222.5 160t-57.5 176z" />
    <glyph glyph-name="dieresis" unicode="&#xa8;" horiz-adv-x="1024" 
d="M885 1576h274l-52 -273h-274zM453 1576h274l-52 -273h-274z" />
    <glyph glyph-name="copyright" unicode="&#xa9;" horiz-adv-x="1516" 
d="M1000 1364q-252 0 -458 -176t-255 -431t91 -431t390 -175q250 -1 458 175q207 176 256 431q50 255 -90 431t-392 176zM1033 1540q329 0 513 -227t121 -555t-333 -556q-270 -227 -598 -227q-329 0 -513 227q-184 228 -121 556t333 555t598 227zM840 443q161 0 237 164h187
q-54 -142 -178 -228t-282 -86t-258 98t-101 264q0 241 157 407t383 167q145 -1 237 -85t101 -228h-186q-23 158 -182 158q-134 0 -229 -118t-96 -282q0 -107 56 -169t154 -62z" />
    <glyph glyph-name="ordfeminine" unicode="&#xaa;" horiz-adv-x="737" 
d="M616 1372q-60 0 -113 -50.5t-53 -110.5t32.5 -101t88.5 -41t103.5 43.5t59.5 109.5t-23 108t-95 42zM260 1156q0 156 111.5 273.5t259.5 117.5q98 1 145 -81l11 59h186l-116 -608h-184l10 51q-79 -72 -177 -72t-172 77.5t-74 182.5z" />
    <glyph glyph-name="guillemotleft" unicode="&#xab;" horiz-adv-x="942" 
d="M953 710l-160 -119l114 -120l-47 -249l-237 265l40 208l337 264zM545 710l-160 -119l114 -120l-47 -249l-237 265l40 208l337 264z" />
    <glyph glyph-name="logicalnot" unicode="&#xac;" horiz-adv-x="1229" 
d="M1004 619h-789l47 246h1032l-124 -648h-243z" />
    <glyph glyph-name="uni00AD" unicode="&#xad;" horiz-adv-x="860" 
d="M278 710h574l-45 -238h-574z" />
    <glyph glyph-name="registered" unicode="&#xae;" horiz-adv-x="1516" 
d="M999 1361q-252 0 -459 -175q-207 -174 -255 -428q-47 -254 93 -429t392 -175t458 175q208 175 256 429t-92 428q-140 175 -393 175zM1033 1540q329 0 513 -227t121 -555t-333 -556q-270 -227 -598 -227q-329 0 -513 227q-184 228 -121 556t333 555t598 227zM1093 950
q0 101 -138 101h-173l-47 -248h173q84 1 134 41t51 106zM998 1199q283 0 283 -190q0 -151 -100 -224q-41 -29 -101 -48q124 -64 106 -201l-16 -107q-15 -109 -7 -128h-174q-9 1 -9 35t10 115l10 93q10 90 -98 108q-49 8 -194 11l-69 -362h-178l171 898h366z" />
    <glyph glyph-name="macron" unicode="&#xaf;" horiz-adv-x="1024" 
d="M285 1668l19 103h1024l-19 -103h-1024z" />
    <glyph glyph-name="degree" unicode="&#xb0;" horiz-adv-x="819" 
d="M648 1318q-60 0 -110.5 -44t-62.5 -107t21.5 -107t93.5 -44t110.5 44t62.5 107t-21.5 107t-93.5 44zM675 1458q122 0 190 -84.5t45 -206.5t-123.5 -206.5t-222.5 -84.5t-190.5 84.5t-45.5 206.5t124 206.5t223 84.5z" />
    <glyph glyph-name="plusminus" unicode="&#xb1;" horiz-adv-x="1229" 
d="M122 119h1032l-46 -246h-1032zM602 572h-393l47 246h393l58 305h246l-58 -305h393l-47 -246h-393l-59 -305h-246z" />
    <glyph glyph-name="uni00B2" unicode="&#xb2;" horiz-adv-x="688" 
d="M596 1355q-119 0 -151 -161h-195q32 157 134 248t232 91t204.5 -66.5t74.5 -170.5v-3q1 -142 -101 -248q-76 -79 -328 -263h344l-34 -176h-626l33 172q357 270 434 341q76 71 76 126t-26 82.5t-71 27.5z" />
    <glyph glyph-name="uni00B3" unicode="&#xb3;" horiz-adv-x="688" 
d="M593 1358q-57 0 -77 -75h-194q26 108 113 179t185 71t161 -60t63 -158t-90 -175l-17 -13q16 -6 28 -17q77 -58 78 -155q0 -147 -117.5 -257t-263.5 -110t-219.5 81.5t-64.5 220.5h201q-1 -60 28 -93.5t85 -33.5t103 46.5t47 101.5t-34 87t-91 32h-57l33 174h38
q51 0 83 26t32 60q0 68 -53 68z" />
    <glyph glyph-name="acute" unicode="&#xb4;" horiz-adv-x="860" 
d="M459 1469l505 270l81 -212l-514 -249z" />
    <glyph glyph-name="mu" unicode="&#xb5;" horiz-adv-x="1180" 
d="M564 -37q-116 0 -181 80q-9 14 -21 25l-84 -448h-272l288 1516h272l-107 -562q-69 -361 155 -361q116 0 201.5 75t110.5 208l122 640h272l-216 -1136l-254 98q-129 -135 -286 -135z" />
    <glyph glyph-name="paragraph" unicode="&#xb6;" horiz-adv-x="1229" 
d="M184 1019q0 233 161 364.5t447 131.5h737l-39 -209h-163l-289 -1518h-230l289 1518h-197l-289 -1518h-229l178 939q-181 1 -278.5 76t-97.5 216z" />
    <glyph glyph-name="periodcentered" unicode="&#xb7;" horiz-adv-x="573" 
d="M273 894h274l-52 -273h-274z" />
    <glyph glyph-name="cedilla" unicode="&#xb8;" horiz-adv-x="696" 
d="M363 -211q-71 0 -97 -44l-93 37l142 230l101 -14l-69 -109l53 3q84 0 126 -58t25 -148t-85 -145t-152 -55t-130 48.5t-47 130.5h109q6 -74 80 -74q43 0 74.5 26.5t39.5 68.5t-15 72.5t-62 30.5z" />
    <glyph glyph-name="uni00B9" unicode="&#xb9;" horiz-adv-x="688" 
d="M572 606h-199l140 734h-118l33 175h317z" />
    <glyph glyph-name="ordmasculine" unicode="&#xba;" horiz-adv-x="737" 
d="M578 1069q56 0 107 53.5t51 115.5t-32 97.5t-91 35.5t-106 -51.5t-47 -116.5t31 -99.5t87 -34.5zM535 896q-116 0 -191.5 75.5t-75.5 191.5q0 151 118.5 267t272.5 116q116 0 191.5 -76t75.5 -210t-118.5 -249t-272.5 -115z" />
    <glyph glyph-name="guillemotright" unicode="&#xbb;" horiz-adv-x="942" 
d="M621 471l160 119l-114 120l47 249l237 -265l-40 -208l-337 -264zM213 471l160 119l-114 120l47 249l237 -265l-40 -208l-337 -264z" />
    <glyph glyph-name="onequarter" unicode="&#xbc;" horiz-adv-x="1720" 
d="M1491 1515l-909 -1515h-199l909 1515h199zM606 606h-199l140 734h-118l33 175h317zM1435 909h161l-116 -609h100l-32 -168h-100l-25 -132h-185l25 132h-405l30 155z" />
    <glyph glyph-name="onehalf" unicode="&#xbd;" horiz-adv-x="1720" 
d="M1430 1515l-909 -1515h-199l909 1515h199zM550 606h-199l140 734h-118l33 175h317zM1401 749q-119 0 -151 -161h-195q32 157 134 248t232 91q131 -1 205 -67t74 -170v-3q1 -142 -101 -248q-76 -79 -328 -263h344l-34 -176h-626l33 172q357 270 434 341q76 71 76 126
t-26 83t-71 27z" />
    <glyph glyph-name="threequarters" unicode="&#xbe;" horiz-adv-x="1720" 
d="M1608 1515l-909 -1515h-199l909 1515h199zM614 1358q-57 0 -77 -75h-194q26 108 113 179q88 71 186 71t160 -60t64 -158q0 -98 -91 -175l-17 -13q16 -6 28 -17q77 -58 78 -155q0 -147 -118 -257t-264 -110t-218 82q-74 82 -65 220h201q-1 -60 28 -94q28 -34 84 -33
t104 47t47 101q0 55 -34 87t-91 32h-57l33 174h38q51 0 83 26t32 60q0 68 -53 68zM1559 909h161l-116 -609h100l-32 -168h-100l-25 -132h-185l25 132h-405l30 155z" />
    <glyph glyph-name="questiondown" unicode="&#xbf;" horiz-adv-x="1147" 
d="M901 863h-274l52 273h274zM571 -140q168 0 221 200h283q-52 -212 -204.5 -340.5t-354.5 -128.5t-307.5 129.5t-67.5 333.5q19 103 92 203t177 174t141.5 135.5t61.5 183.5h274q-28 -144 -103 -277t-164 -197q-128 -92 -160.5 -126.5t-45.5 -107.5q-13 -74 30 -128
t127 -54z" />
    <glyph glyph-name="Agrave" unicode="&#xc0;" horiz-adv-x="1516" 
d="M937 1515h218l347 -1515h-299l-80 391h-587l-226 -391h-296zM1189 1624l-413 261l157 206l398 -280z" />
    <glyph glyph-name="Aacute" unicode="&#xc1;" horiz-adv-x="1516" 
d="M937 1515h218l347 -1515h-299l-80 391h-587l-226 -391h-296zM846 1817l506 270l80 -212l-512 -249z" />
    <glyph glyph-name="Acircumflex" unicode="&#xc2;" horiz-adv-x="1516" 
d="M937 1515h218l347 -1515h-299l-80 391h-587l-226 -391h-296zM1019 1932h214l248 -281h-299l-81 130l-134 -130h-302z" />
    <glyph glyph-name="Atilde" unicode="&#xc3;" horiz-adv-x="1516" 
d="M937 1515h218l347 -1515h-299l-80 391h-587l-226 -391h-296zM831 1893q73 26 130 26t149 -30q91 -30 156 -30t145 47l81 -166q-52 -38 -124 -64t-126 -26t-145 28q-90 28 -159 28t-153 -43l-82 166q55 38 128 64z" />
    <glyph glyph-name="Adieresis" unicode="&#xc4;" horiz-adv-x="1516" 
d="M937 1515h218l347 -1515h-299l-80 391h-587l-226 -391h-296zM1204 1924h274l-52 -273h-274zM772 1924h274l-52 -273h-274z" />
    <glyph glyph-name="Aring" unicode="&#xc5;" horiz-adv-x="1516" 
d="M937 1515h218l347 -1515h-299l-80 391h-587l-226 -391h-296zM1074 1684q34 0 62 24t34 57q6 34 -14 58t-53 24q-34 0 -62 -24t-34 -58q-7 -33 13 -57t54 -24zM1051 1546q-92 0 -145 64t-37 155q16 92 91 156t167 64q93 0 145 -64t36 -156q-16 -91 -90 -155t-167 -64z" />
    <glyph glyph-name="AE" unicode="&#xc6;" horiz-adv-x="1843" 
d="M1149 1049l-315 -396h239zM316 0h-325l1277 1515h705l-49 -262h-456l-71 -370h441l-50 -262h-441l-69 -359h464l-49 -262h-744l74 391h-398z" />
    <glyph glyph-name="Ccedilla" unicode="&#xc7;" horiz-adv-x="1597" 
d="M802 -211q-71 0 -97 -44l-93 37l122 197q-206 31 -350 173q-186 182 -185 469q1 370 285 647t661 277q235 -1 403 -125t219 -337h-317q-56 95 -150 149t-204 54q-238 0 -424 -190t-185 -435q-1 -190 116 -311t301 -121q107 1 220 53t200 142h317q-128 -206 -341 -330
t-439 -124h-24l-51 -81l53 3q84 0 126 -58t25 -148q-18 -90 -86 -144q-68 -56 -152 -56t-129 48q-46 48 -47 131h109q6 -74 80 -74q43 1 75 27t39 68q8 42 -15 73q-23 30 -62 30z" />
    <glyph glyph-name="Egrave" unicode="&#xc8;" horiz-adv-x="1065" 
d="M125 0l288 1515h808l-49 -262h-528l-71 -370h512l-50 -262h-512l-69 -359h537l-49 -262h-817zM920 1624l-413 261l157 206l398 -280z" />
    <glyph glyph-name="Eacute" unicode="&#xc9;" horiz-adv-x="1065" 
d="M125 0l288 1515h808l-49 -262h-528l-71 -370h512l-50 -262h-512l-69 -359h537l-49 -262h-817zM577 1817l506 270l80 -212l-512 -249z" />
    <glyph glyph-name="Ecircumflex" unicode="&#xca;" horiz-adv-x="1065" 
d="M125 0l288 1515h808l-49 -262h-528l-71 -370h512l-50 -262h-512l-69 -359h537l-49 -262h-817zM791 1932h214l248 -281h-299l-81 130l-134 -130h-302z" />
    <glyph glyph-name="Edieresis" unicode="&#xcb;" horiz-adv-x="1065" 
d="M125 0l288 1515h808l-49 -262h-528l-71 -370h512l-50 -262h-512l-69 -359h537l-49 -262h-817zM965 1924h274l-52 -273h-274zM533 1924h274l-52 -273h-274z" />
    <glyph glyph-name="Igrave" unicode="&#xcc;" horiz-adv-x="573" 
d="M435 1515h280l-288 -1515h-280zM718 1624l-413 261l157 206l398 -280z" />
    <glyph glyph-name="Iacute" unicode="&#xcd;" horiz-adv-x="573" 
d="M435 1515h280l-288 -1515h-280zM375 1817l506 270l80 -212l-512 -249z" />
    <glyph glyph-name="Icircumflex" unicode="&#xce;" horiz-adv-x="573" 
d="M435 1515h280l-288 -1515h-280zM548 1932h214l248 -281h-299l-81 130l-134 -130h-302z" />
    <glyph glyph-name="Idieresis" unicode="&#xcf;" horiz-adv-x="573" 
d="M435 1515h280l-288 -1515h-280zM733 1924h274l-52 -273h-274zM301 1924h274l-52 -273h-274z" />
    <glyph glyph-name="Eth" unicode="&#xd0;" horiz-adv-x="1520" 
d="M629 259q297 0 474 165t178 441q-1 188 -113.5 289.5t-322.5 101.5h-133l-68 -355h282l-50 -262h-282l-72 -380h107zM891 1515q324 0 498.5 -152.5t174.5 -435.5q0 -421 -259.5 -674t-690.5 -253h-421l121 639h-144l50 262h144l117 614h410z" />
    <glyph glyph-name="Ntilde" unicode="&#xd1;" horiz-adv-x="1516" 
d="M423 0h-280l288 1515h158l580 -1114l212 1114h280l-288 -1515h-154l-586 1105zM831 1893q73 26 130 26t149 -30q91 -30 156 -30t145 47l81 -166q-52 -38 -124 -64t-126 -26t-145 28q-90 28 -159 28t-153 -43l-82 166q55 38 128 64z" />
    <glyph glyph-name="Ograve" unicode="&#xd2;" horiz-adv-x="1720" 
d="M900 229q243 -1 431 189t188 435q1 191 -116 312t-301 121q-244 0 -432 -190t-187 -435q-1 -190 116 -311t301 -121zM852 -30q-289 0 -473 182t-184 468q0 370 287 648t669 277q289 -1 473 -183t183 -468q-1 -370 -287 -647t-668 -277zM1288 1624l-413 261l157 206
l398 -280z" />
    <glyph glyph-name="Oacute" unicode="&#xd3;" horiz-adv-x="1720" 
d="M900 229q243 -1 431 189t188 435q1 191 -116 312t-301 121q-244 0 -432 -190t-187 -435q-1 -190 116 -311t301 -121zM852 -30q-289 0 -473 182t-184 468q0 370 287 648t669 277q289 -1 473 -183t183 -468q-1 -370 -287 -647t-668 -277zM945 1817l506 270l80 -212
l-512 -249z" />
    <glyph glyph-name="Ocircumflex" unicode="&#xd4;" horiz-adv-x="1720" 
d="M900 229q243 -1 431 189t188 435q1 191 -116 312t-301 121q-244 0 -432 -190t-187 -435q-1 -190 116 -311t301 -121zM852 -30q-289 0 -473 182t-184 468q0 370 287 648t669 277q289 -1 473 -183t183 -468q-1 -370 -287 -647t-668 -277zM1118 1932h214l248 -281h-299
l-81 130l-134 -130h-302z" />
    <glyph glyph-name="Otilde" unicode="&#xd5;" horiz-adv-x="1720" 
d="M900 229q243 -1 431 189t188 435q1 191 -116 312t-301 121q-244 0 -432 -190t-187 -435q-1 -190 116 -311t301 -121zM852 -30q-289 0 -473 182t-184 468q0 370 287 648t669 277q289 -1 473 -183t183 -468q-1 -370 -287 -647t-668 -277zM930 1893q73 26 130 26t149 -30
q91 -30 156 -30t145 47l81 -166q-51 -38 -123 -64t-127 -26q-54 0 -145 28q-90 28 -159 28t-153 -43l-82 166q55 38 128 64z" />
    <glyph glyph-name="Odieresis" unicode="&#xd6;" horiz-adv-x="1720" 
d="M900 229q243 -1 431 189t188 435q1 191 -116 312t-301 121q-244 0 -432 -190t-187 -435q-1 -190 116 -311t301 -121zM852 -30q-289 0 -473 182t-184 468q0 370 287 648t669 277q289 -1 473 -183t183 -468q-1 -370 -287 -647t-668 -277zM1303 1924h274l-52 -273h-274z
M871 1924h274l-52 -273h-274z" />
    <glyph glyph-name="multiply" unicode="&#xd7;" horiz-adv-x="1229" 
d="M682 347l-390 -327l-136 168l390 327l-265 327l200 168l265 -327l389 327l136 -168l-389 -327l264 -327l-200 -168z" />
    <glyph glyph-name="Oslash" unicode="&#xd8;" horiz-adv-x="1720" 
d="M1109 1286q-243 0 -431.5 -190t-187.5 -435q1 -136 59 -239l724 835q-74 29 -164 29zM859 -30q-175 0 -314 67l-159 -184l-193 158l156 180q-148 175 -147 429q0 370 287 647.5t669 277.5q173 1 309 -66l165 191l193 -158l-162 -186q151 -174 151 -432q-1 -370 -287 -647
t-668 -277zM907 229q243 0 431 189.5t188 434.5q-1 140 -61 244l-727 -837q76 -31 169 -31z" />
    <glyph glyph-name="Ugrave" unicode="&#xd9;" horiz-adv-x="1311" 
d="M654 -30q-252 0 -373 163q-82 114 -82 278q0 71 15 151l181 953h280l-184 -967q-11 -56 -11 -120t33 -116q51 -80 179 -80t212 82t113 234l184 967h280l-181 -953q-54 -284 -224 -438t-422 -154zM1081 1624l-413 261l157 206l398 -280z" />
    <glyph glyph-name="Uacute" unicode="&#xda;" horiz-adv-x="1311" 
d="M654 -30q-252 0 -373 163q-82 114 -82 278q0 71 15 151l181 953h280l-184 -967q-11 -56 -11 -120t33 -116q51 -80 179 -80t212 82t113 234l184 967h280l-181 -953q-54 -284 -224 -438t-422 -154zM738 1817l506 270l80 -212l-512 -249z" />
    <glyph glyph-name="Ucircumflex" unicode="&#xdb;" horiz-adv-x="1311" 
d="M654 -30q-252 0 -373 163q-82 114 -82 278q0 71 15 151l181 953h280l-184 -967q-11 -56 -11 -120t33 -116q51 -80 179 -80t212 82t113 234l184 967h280l-181 -953q-54 -284 -224 -438t-422 -154zM911 1932h214l248 -281h-299l-81 130l-134 -130h-302z" />
    <glyph glyph-name="Udieresis" unicode="&#xdc;" horiz-adv-x="1311" 
d="M654 -30q-252 0 -373 163q-82 114 -82 278q0 71 15 151l181 953h280l-184 -967q-11 -56 -11 -120t33 -116q51 -80 179 -80t212 82t113 234l184 967h280l-181 -953q-54 -284 -224 -438t-422 -154zM1096 1924h274l-52 -273h-274zM664 1924h274l-52 -273h-274z" />
    <glyph glyph-name="Yacute" unicode="&#xdd;" horiz-adv-x="1270" 
d="M276 1515h310l206 -694l457 694h306l-675 -959l-106 -556h-280l107 561zM715 1817l506 270l80 -212l-512 -249z" />
    <glyph glyph-name="Thorn" unicode="&#xde;" horiz-adv-x="1147" 
d="M731 968h-120l-80 -419h120q153 -1 239 65t87 184q0 83 -63 126.5t-183 43.5zM781 1227q237 0 361.5 -94t123.5 -274q0 -274 -173 -422.5t-492 -148.5l-119 1l-55 -289h-280l288 1515h280l-54 -288h120z" />
    <glyph glyph-name="germandbls" unicode="&#xdf;" horiz-adv-x="1229" 
d="M737 -37q-257 0 -337 157l-23 -120h-273l197 1037l7 34q40 213 189 343.5t345 130.5t302 -124t72 -305t-171 -273l-12 -8q309 -94 250 -405q-41 -212 -190 -339.5t-356 -127.5zM784 213q72 0 137 56.5t81 139.5q24 126 -57.5 181.5t-296.5 58.5l46 240q201 2 242 208
q17 89 -20.5 144t-118.5 55t-140 -68t-83 -191l-123 -648h173q3 -79 45.5 -127.5t114.5 -48.5z" />
    <glyph glyph-name="agrave" unicode="&#xe0;" horiz-adv-x="1352" 
d="M837 927q-167 1 -289 -131t-122 -309q0 -121 77 -199t205 -77q128 0 247 107q120 106 147 250q28 144 -52 252t-213 107zM838 1175q214 0 349 -178l26 139h250l-216 -1136h-248l24 128q-198 -164 -404 -164t-337 138q-131 140 -132 353q0 283 209 501t479 219zM1051 1276
l-413 261l157 206l398 -280z" />
    <glyph glyph-name="aacute" unicode="&#xe1;" horiz-adv-x="1352" 
d="M837 927q-167 1 -289 -131t-122 -309q0 -121 77 -199t205 -77q128 0 247 107q120 106 147 250q28 144 -52 252t-213 107zM838 1175q214 0 349 -178l26 139h250l-216 -1136h-248l24 128q-198 -164 -404 -164t-337 138q-131 140 -132 353q0 283 209 501t479 219zM708 1469
l506 270l80 -212l-512 -249z" />
    <glyph glyph-name="acircumflex" unicode="&#xe2;" horiz-adv-x="1352" 
d="M837 927q-167 1 -289 -131t-122 -309q0 -121 77 -199t205 -77q128 0 247 107q120 106 147 250q28 144 -52 252t-213 107zM838 1175q214 0 349 -178l26 139h250l-216 -1136h-248l24 128q-198 -164 -404 -164t-337 138q-131 140 -132 353q0 283 209 501t479 219zM881 1584
h214l248 -281h-299l-81 130l-134 -130h-302z" />
    <glyph glyph-name="atilde" unicode="&#xe3;" horiz-adv-x="1352" 
d="M837 927q-167 1 -289 -131t-122 -309q0 -121 77 -199t205 -77q128 0 247 107q120 106 147 250q28 144 -52 252t-213 107zM838 1175q214 0 349 -178l26 139h250l-216 -1136h-248l24 128q-198 -164 -404 -164t-337 138q-131 140 -132 353q0 283 209 501t479 219zM693 1545
q73 26 130 26t149 -30q91 -30 156 -30t145 47l81 -166q-52 -38 -124 -64t-126 -26t-145 28q-90 28 -159 28t-153 -43l-82 166q55 38 128 64z" />
    <glyph glyph-name="adieresis" unicode="&#xe4;" horiz-adv-x="1352" 
d="M837 927q-167 1 -289 -131t-122 -309q0 -121 77 -199t205 -77q128 0 247 107q120 106 147 250q28 144 -52 252t-213 107zM838 1175q214 0 349 -178l26 139h250l-216 -1136h-248l24 128q-198 -164 -404 -164t-337 138q-131 140 -132 353q0 283 209 501t479 219zM1066 1576
h274l-52 -273h-274zM634 1576h274l-52 -273h-274z" />
    <glyph glyph-name="aring" unicode="&#xe5;" horiz-adv-x="1352" 
d="M837 927q-167 1 -289 -131t-122 -309q0 -121 77 -199t205 -77q128 0 247 107q120 106 147 250q28 144 -52 252t-213 107zM838 1175q214 0 349 -178l26 139h250l-216 -1136h-248l24 128q-198 -164 -404 -164t-337 138q-131 140 -132 353q0 283 209 501t479 219zM940 1407
q34 -1 62 23t34 58t-14 58t-54 24t-62 -24t-33 -58q-7 -34 13 -58t54 -23zM917 1269q-92 -1 -145 63t-37 156q17 92 91 156t166 64t145 -64t37 -156t-90 -156t-167 -63z" />
    <glyph glyph-name="ae" unicode="&#xe6;" horiz-adv-x="2212" 
d="M1735 923q-157 0 -279 -132q-54 -58 -84 -126h627q-2 114 -73 186t-191 72zM835 927q-164 -1 -285 -131t-122 -306q0 -121 76 -198t202 -77t245 106.5t147 248.5t-51.5 249.5t-211.5 107.5zM154 472q0 262 214 482t460 221q246 0 362 -132l18 93h250l-20 -105
q191 145 338 144q213 0 352.5 -136.5t139.5 -345.5q1 -126 -54 -246h-877q12 -91 80 -163t170 -71q102 0 181.5 39t126.5 106h282q-103 -187 -269.5 -291t-362.5 -104q-139 3 -282 147l-21 -110h-248l18 98q-173 -135 -402 -135q-189 0 -322.5 149t-133.5 357v3z" />
    <glyph glyph-name="ccedilla" unicode="&#xe7;" horiz-adv-x="1311" 
d="M448 488q0 -121 75 -198t177 -77q199 0 309 156h307q-106 -192 -274 -299t-367 -107h-1l-47 -74l53 3q84 0 126 -58t25 -148t-85 -144q-68 -56 -152 -56t-130 48t-47 131h109q6 -74 80 -74q42 1 74 27t40 68t-15 73q-23 30 -62 30q-71 0 -97 -44l-93 37l117 190
q-150 26 -258 132q-144 141 -142 356v3q0 280 220 496t504 216q196 0 332 -115t164 -302h-307q-53 167 -237 167q-160 -1 -279 -131t-119 -306z" />
    <glyph glyph-name="egrave" unicode="&#xe8;" horiz-adv-x="1311" 
d="M835 933q-161 0 -280 -136q-53 -61 -84 -132h626q-3 115 -75 191t-187 77zM639 -37q-205 0 -343 141t-138 356q1 281 219 498t501 217q212 -1 352 -137t140 -345q1 -126 -54 -246h-880q11 -99 77 -167t170 -67q206 0 308 145h288q-103 -187 -269 -291t-371 -104z
M1043 1276l-413 261l157 206l398 -280z" />
    <glyph glyph-name="eacute" unicode="&#xe9;" horiz-adv-x="1311" 
d="M835 933q-161 0 -280 -136q-53 -61 -84 -132h626q-3 115 -75 191t-187 77zM639 -37q-205 0 -343 141t-138 356q1 281 219 498t501 217q212 -1 352 -137t140 -345q1 -126 -54 -246h-880q11 -99 77 -167t170 -67q206 0 308 145h288q-103 -187 -269 -291t-371 -104z
M700 1469l506 270l80 -212l-512 -249z" />
    <glyph glyph-name="ecircumflex" unicode="&#xea;" horiz-adv-x="1311" 
d="M835 933q-161 0 -280 -136q-53 -61 -84 -132h626q-3 115 -75 191t-187 77zM639 -37q-205 0 -343 141t-138 356q1 281 219 498t501 217q212 -1 352 -137t140 -345q1 -126 -54 -246h-880q11 -99 77 -167t170 -67q206 0 308 145h288q-103 -187 -269 -291t-371 -104z
M873 1584h214l248 -281h-299l-81 130l-134 -130h-302z" />
    <glyph glyph-name="edieresis" unicode="&#xeb;" horiz-adv-x="1311" 
d="M835 933q-161 0 -280 -136q-53 -61 -84 -132h626q-3 115 -75 191t-187 77zM639 -37q-205 0 -343 141t-138 356q1 281 219 498t501 217q212 -1 352 -137t140 -345q1 -126 -54 -246h-880q11 -99 77 -167t170 -67q206 0 308 145h288q-103 -187 -269 -291t-371 -104z
M1058 1576h274l-52 -273h-274zM626 1576h274l-52 -273h-274z" />
    <glyph glyph-name="igrave" unicode="&#xec;" horiz-adv-x="492" 
d="M325 1136h272l-216 -1136h-272zM610 1276l-413 261l157 206l398 -280z" />
    <glyph glyph-name="iacute" unicode="&#xed;" horiz-adv-x="492" 
d="M325 1136h272l-216 -1136h-272zM267 1469l506 270l80 -212l-512 -249z" />
    <glyph glyph-name="icircumflex" unicode="&#xee;" horiz-adv-x="492" 
d="M319 1136h272l-216 -1136h-272zM434 1584h214l248 -281h-299l-81 130l-134 -130h-302z" />
    <glyph glyph-name="idieresis" unicode="&#xef;" horiz-adv-x="492" 
d="M325 1136h272l-216 -1136h-272zM625 1576h274l-52 -273h-274zM193 1576h274l-52 -273h-274z" />
    <glyph glyph-name="eth" unicode="&#xf0;" horiz-adv-x="1311" 
d="M428 489q0 -121 75 -198.5t193 -77.5q163 0 284 130.5t121 306.5q1 121 -75 198.5t-194 77.5q-164 0 -284 -130t-120 -307zM1395 787q0 -82 -17 -169q-55 -288 -258.5 -471.5t-470.5 -183.5q-216 0 -357 141.5t-142 354.5v4q0 280 221.5 496.5t508.5 216.5q70 0 123 -36
q-59 68 -132 126l-325 -91l-157 117l306 85q-92 48 -195 83l329 85q87 -39 162 -85l300 84l138 -122l-284 -79q250 -233 250 -556z" />
    <glyph glyph-name="ntilde" unicode="&#xf1;" horiz-adv-x="1229" 
d="M907 1175q191 0 287 -149t48 -393l-120 -633h-272l108 570q66 355 -164 355q-114 0 -190 -80t-105 -234l-116 -611h-272l216 1136h250l-19 -100q158 139 349 139zM623 1545q73 26 130 26t149 -30q91 -30 156 -30t145 47l81 -166q-52 -38 -124 -64t-126 -26t-145 28
q-90 28 -159 28t-153 -43l-82 166q55 38 128 64z" />
    <glyph glyph-name="ograve" unicode="&#xf2;" horiz-adv-x="1311" 
d="M692 213q164 0 285 130t121 305q0 122 -76 200t-194 77q-163 -1 -284 -131t-121 -306q0 -121 75 -198t194 -77zM645 -37q-217 -1 -359 141t-141 354v4q0 280 222 496t509 217q216 0 358 -142t142 -359q0 -279 -222 -495t-509 -216zM1017 1276l-413 261l157 206l398 -280z
" />
    <glyph glyph-name="oacute" unicode="&#xf3;" horiz-adv-x="1311" 
d="M692 213q164 0 285 130t121 305q0 122 -76 200t-194 77q-163 -1 -284 -131t-121 -306q0 -121 75 -198t194 -77zM645 -37q-217 -1 -359 141t-141 354v4q0 280 222 496t509 217q216 0 358 -142t142 -359q0 -279 -222 -495t-509 -216zM674 1469l506 270l80 -212l-512 -249z
" />
    <glyph glyph-name="ocircumflex" unicode="&#xf4;" horiz-adv-x="1311" 
d="M692 213q164 0 285 130t121 305q0 122 -76 200t-194 77q-163 -1 -284 -131t-121 -306q0 -121 75 -198t194 -77zM645 -37q-217 -1 -359 141t-141 354v4q0 280 222 496t509 217q216 0 358 -142t142 -359q0 -279 -222 -495t-509 -216zM847 1584h214l248 -281h-299l-81 130
l-134 -130h-302z" />
    <glyph glyph-name="otilde" unicode="&#xf5;" horiz-adv-x="1311" 
d="M692 213q164 0 285 130t121 305q0 122 -76 200t-194 77q-163 -1 -284 -131t-121 -306q0 -121 75 -198t194 -77zM645 -37q-217 -1 -359 141t-141 354v4q0 280 222 496t509 217q216 0 358 -142t142 -359q0 -279 -222 -495t-509 -216zM659 1545q73 26 130 26t149 -30
q91 -30 156 -30t145 47l81 -166q-52 -38 -124 -64t-126 -26t-145 28q-90 28 -159 28t-153 -43l-82 166q55 38 128 64z" />
    <glyph glyph-name="odieresis" unicode="&#xf6;" horiz-adv-x="1311" 
d="M692 213q164 0 285 130t121 305q0 122 -76 200t-194 77q-163 -1 -284 -131t-121 -306q0 -121 75 -198t194 -77zM645 -37q-217 -1 -359 141t-141 354v4q0 280 222 496t509 217q216 0 358 -142t142 -359q0 -279 -222 -495t-509 -216zM1032 1576h274l-52 -273h-274z
M600 1576h274l-52 -273h-274z" />
    <glyph glyph-name="divide" unicode="&#xf7;" horiz-adv-x="1229" 
d="M695 1075h248l-48 -247h-248zM219 638h1032l-47 -246h-1032zM528 202h248l-46 -247h-248z" />
    <glyph glyph-name="oslash" unicode="&#xf8;" horiz-adv-x="1352" 
d="M849 925q-163 0 -284 -130.5t-121 -306.5q-1 -61 19 -112l469 538q-37 11 -83 11zM666 -37q-125 0 -226 46l-94 -109l-177 138l98 113q-101 127 -101 307v4q0 280 222 496.5t509 216.5q124 0 222 -46l98 113l177 -138l-99 -114q101 -131 102 -316q0 -279 -222 -495
t-509 -216zM1098 764l-471 -541q40 -9 86 -10q164 0 285 130t121 305q1 65 -21 116z" />
    <glyph glyph-name="ugrave" unicode="&#xf9;" horiz-adv-x="1229" 
d="M530 -37q-192 0 -288 149q-65 100 -64 243q-1 70 15 150l120 631h272l-108 -568q-67 -355 163 -355q114 0 191 80q76 80 105 234l116 609h272l-216 -1136h-250l19 102q-155 -139 -347 -139zM967 1276l-413 261l157 206l398 -280z" />
    <glyph glyph-name="uacute" unicode="&#xfa;" horiz-adv-x="1229" 
d="M530 -37q-192 0 -288 149q-65 100 -64 243q-1 70 15 150l120 631h272l-108 -568q-67 -355 163 -355q114 0 191 80q76 80 105 234l116 609h272l-216 -1136h-250l19 102q-155 -139 -347 -139zM624 1469l506 270l80 -212l-512 -249z" />
    <glyph glyph-name="ucircumflex" unicode="&#xfb;" horiz-adv-x="1229" 
d="M530 -37q-192 0 -288 149q-65 100 -64 243q-1 70 15 150l120 631h272l-108 -568q-67 -355 163 -355q114 0 191 80q76 80 105 234l116 609h272l-216 -1136h-250l19 102q-155 -139 -347 -139zM797 1584h214l248 -281h-299l-81 130l-134 -130h-302z" />
    <glyph glyph-name="udieresis" unicode="&#xfc;" horiz-adv-x="1229" 
d="M530 -37q-192 0 -288 149q-65 100 -64 243q-1 70 15 150l120 631h272l-108 -568q-67 -355 163 -355q114 0 191 80q76 80 105 234l116 609h272l-216 -1136h-250l19 102q-155 -139 -347 -139zM982 1576h274l-52 -273h-274zM550 1576h274l-52 -273h-274z" />
    <glyph glyph-name="yacute" unicode="&#xfd;" horiz-adv-x="1188" 
d="M451 -382h-297l300 483l-220 1035h307l127 -721l401 721h317zM616 1469l506 270l80 -212l-512 -249z" />
    <glyph glyph-name="thorn" unicode="&#xfe;" horiz-adv-x="1352" 
d="M724 211q166 0 288.5 130.5t122.5 307.5q1 122 -76.5 200t-204.5 78t-246.5 -106.5t-147.5 -250.5t52 -251.5t212 -107.5zM1411 689v-4q0 -284 -204 -503t-468 -219q-225 1 -348 143l-92 -485h-272l360 1894h272l-94 -493q183 154 389 154t331.5 -139t125.5 -348z" />
    <glyph glyph-name="ydieresis" unicode="&#xff;" horiz-adv-x="1188" 
d="M451 -382h-297l300 483l-220 1035h307l127 -721l401 721h317zM974 1576h274l-52 -273h-274zM542 1576h274l-52 -273h-274z" />
    <glyph glyph-name="Amacron" unicode="&#x100;" horiz-adv-x="1516" 
d="M937 1515h218l347 -1515h-299l-80 391h-587l-226 -391h-296zM768 1901h704l-45 -238h-704z" />
    <glyph glyph-name="amacron" unicode="&#x101;" horiz-adv-x="1352" 
d="M837 927q-167 1 -289 -131t-122 -309q0 -121 77 -199t205 -77q128 0 247 107q120 106 147 250q28 144 -52 252t-213 107zM838 1175q214 0 349 -178l26 139h250l-216 -1136h-248l24 128q-198 -164 -404 -164t-337 138q-131 140 -132 353q0 283 209 501t479 219zM630 1553
h704l-45 -238h-704z" />
    <glyph glyph-name="Abreve" unicode="&#x102;" horiz-adv-x="1516" 
d="M937 1515h218l347 -1515h-299l-80 391h-587l-226 -391h-296zM1072 1645q-170 0 -262 73t-91 208h221q11 -36 59 -60t112 -24q65 0 119 22t80 62h221q-53 -136 -171 -208t-288 -73z" />
    <glyph glyph-name="abreve" unicode="&#x103;" horiz-adv-x="1352" 
d="M837 927q-167 1 -289 -131t-122 -309q0 -121 77 -199t205 -77q128 0 247 107q120 106 147 250q28 144 -52 252t-213 107zM838 1175q214 0 349 -178l26 139h250l-216 -1136h-248l24 128q-198 -164 -404 -164t-337 138q-131 140 -132 353q0 283 209 501t479 219zM934 1297
q-170 0 -262 73t-91 208h221q11 -36 59 -60t112 -24q65 0 119 22t80 62h221q-53 -136 -171 -208t-288 -73z" />
    <glyph glyph-name="Aogonek" unicode="&#x104;" horiz-adv-x="1516" 
d="M1236 -207q26 -27 70 -27q45 0 84 23l-30 -160q-68 -27 -160 -27q-93 0 -145 57q-51 57 -31 159q10 54 63 104t115 82l-79 387h-587l-226 -391h-296l923 1515h218l347 -1515h-152q-70 -49 -97 -76q-27 -28 -35 -66t18 -65z" />
    <glyph glyph-name="aogonek" unicode="&#x105;" horiz-adv-x="1352" 
d="M837 927q-167 1 -289 -131t-122 -309q0 -121 77 -199t205 -77q128 0 247 107q120 106 147 250q28 144 -52 252t-213 107zM838 1175q214 0 349 -178l26 139h250l-216 -1136h-99q-70 -49 -97 -76q-27 -28 -35 -66t18 -65t70 -27q45 0 84 23l-30 -160q-68 -27 -160 -27
q-93 0 -145 57q-51 57 -31 159q10 54 63 104t115 81l23 125q-198 -164 -404 -164t-337 138q-131 140 -132 353q0 283 209 501t479 219z" />
    <glyph glyph-name="Cacute" unicode="&#x106;" horiz-adv-x="1597" 
d="M861 -30q-291 0 -477 182t-185 469q1 370 285 647t661 277q235 -1 403 -125t219 -337h-317q-56 95 -150 149t-204 54q-238 0 -424 -190t-185 -435q-1 -190 116 -311t301 -121q107 1 220 53t200 142h317q-128 -206 -341 -330t-439 -124zM939 1817l506 270l80 -212
l-512 -249z" />
    <glyph glyph-name="cacute" unicode="&#x107;" horiz-adv-x="1311" 
d="M450 488q0 -121 75 -198t177 -77q199 0 309 156h307q-106 -192 -274 -299t-378 -107q-208 0 -352 141t-142 356v3q0 280 220 496t504 216q196 0 332 -115t164 -302h-307q-53 167 -237 167q-160 -1 -279 -131t-119 -306zM694 1469l506 270l80 -212l-512 -249z" />
    <glyph glyph-name="Ccaron" unicode="&#x10c;" horiz-adv-x="1597" 
d="M861 -30q-291 0 -477 182t-185 469q1 370 285 647t661 277q235 -1 403 -125t219 -337h-317q-56 95 -150 149t-204 54q-238 0 -424 -190t-185 -435q-1 -190 116 -311t301 -121q107 1 220 53t200 142h317q-128 -206 -341 -330t-439 -124zM1289 1652h-214l-248 281h299
l80 -130l135 130h302z" />
    <glyph glyph-name="ccaron" unicode="&#x10d;" horiz-adv-x="1311" 
d="M450 488q0 -121 75 -198t177 -77q199 0 309 156h307q-106 -192 -274 -299t-378 -107q-208 0 -352 141t-142 356v3q0 280 220 496t504 216q196 0 332 -115t164 -302h-307q-53 167 -237 167q-160 -1 -279 -131t-119 -306zM1028 1304h-214l-248 281h299l80 -130l135 130h302
z" />
    <glyph glyph-name="Dcaron" unicode="&#x10e;" horiz-adv-x="1434" 
d="M519 259q317 1 506 163t189 434q0 192 -124 296t-355 104h-87l-190 -997h61zM781 1515q346 0 532 -154t186 -439v-3q-1 -417 -272 -668t-723 -251h-375l288 1515h364zM1052 1652h-214l-248 281h299l80 -130l135 130h302z" />
    <glyph glyph-name="dcaron" unicode="&#x10f;" horiz-adv-x="1740" 
d="M854 927q-166 1 -288 -131t-123 -309q0 -121 77 -199q76 -78 204 -77q128 0 248 107q120 106 147 250t-53 252t-212 107zM636 -37q-206 -1 -337 139t-132 353q-1 283 215 501t495 219q189 1 310 -149l93 489h272l-288 -1515h-248l24 130q-198 -167 -404 -167zM1603 1110
l229 405h196l-231 -405h-194z" />
    <glyph glyph-name="Dcroat" unicode="&#x110;" horiz-adv-x="1520" 
d="M629 259q297 0 474 165t178 441q-1 188 -113.5 289.5t-322.5 101.5h-133l-68 -355h282l-50 -262h-282l-72 -380h107zM891 1515q324 0 498.5 -152.5t174.5 -435.5q0 -421 -259.5 -674t-690.5 -253h-421l121 639h-144l50 262h144l117 614h410z" />
    <glyph glyph-name="dcroat" unicode="&#x111;" horiz-adv-x="1352" 
d="M851 927q-166 0 -288.5 -131.5t-122.5 -308.5q0 -121 77 -198.5t205 -77.5t247.5 106.5t146.5 250.5t-52.5 251.5t-212.5 107.5zM852 1175q201 0 331 -156l35 183h-385l41 218h385l18 95h272l-18 -95h178l-41 -218h-178l-229 -1202h-272l20 106q-184 -142 -383 -142
t-330 139t-132 352q0 283 209 501.5t479 218.5z" />
    <glyph glyph-name="Emacron" unicode="&#x112;" horiz-adv-x="1065" 
d="M125 0l288 1515h808l-49 -262h-528l-71 -370h512l-50 -262h-512l-69 -359h537l-49 -262h-817zM529 1901h704l-45 -238h-704z" />
    <glyph glyph-name="emacron" unicode="&#x113;" horiz-adv-x="1311" 
d="M835 933q-161 0 -280 -136q-53 -61 -84 -132h626q-3 115 -75 191t-187 77zM639 -37q-205 0 -343 141t-138 356q1 281 219 498t501 217q212 -1 352 -137t140 -345q1 -126 -54 -246h-880q11 -99 77 -167t170 -67q206 0 308 145h288q-103 -187 -269 -291t-371 -104z
M622 1553h704l-45 -238h-704z" />
    <glyph glyph-name="Edotaccent" unicode="&#x116;" horiz-adv-x="1065" 
d="M125 0l288 1515h808l-49 -262h-528l-71 -370h512l-50 -262h-512l-69 -359h537l-49 -262h-817zM750 1924h272l-52 -274h-272z" />
    <glyph glyph-name="edotaccent" unicode="&#x117;" horiz-adv-x="1311" 
d="M835 933q-161 0 -280 -136q-53 -61 -84 -132h626q-3 115 -75 191t-187 77zM639 -37q-205 0 -343 141t-138 356q1 281 219 498t501 217q212 -1 352 -137t140 -345q1 -126 -54 -246h-880q11 -99 77 -167t170 -67q206 0 308 145h288q-103 -187 -269 -291t-371 -104z
M843 1576h272l-52 -274h-272z" />
    <glyph glyph-name="Eogonek" unicode="&#x118;" horiz-adv-x="1065" 
d="M736 -207q26 -27 70 -27q45 0 84 23l-30 -160q-68 -27 -160 -27q-93 0 -145 57q-51 57 -31 159q10 54 62 103t109 79h-570l288 1515h808l-49 -262h-528l-71 -370h512l-50 -262h-512l-69 -359h537l-49 -262h-92q-70 -49 -97 -76q-27 -28 -35 -66t18 -65z" />
    <glyph glyph-name="eogonek" unicode="&#x119;" horiz-adv-x="1311" 
d="M835 933q-161 0 -280 -136q-53 -61 -84 -132h626q-3 115 -75 191t-187 77zM878 1175q212 -1 352 -137t140 -345q1 -126 -54 -246h-880q11 -99 77 -167t170 -67q206 0 308 145h288q-144 -262 -399 -355q-73 -51 -102 -79q-28 -28 -36 -66t18 -65t71 -27t84 23l-30 -160
q-68 -27 -160 -27q-93 0 -145 57q-51 57 -34 145t114 159h-13q-213 0 -351 141t-138 356q1 281 219 498t501 217z" />
    <glyph glyph-name="Ecaron" unicode="&#x11a;" horiz-adv-x="1065" 
d="M125 0l288 1515h808l-49 -262h-528l-71 -370h512l-50 -262h-512l-69 -359h537l-49 -262h-817zM927 1652h-214l-248 281h299l80 -130l135 130h302z" />
    <glyph glyph-name="ecaron" unicode="&#x11b;" horiz-adv-x="1311" 
d="M835 933q-161 0 -280 -136q-53 -61 -84 -132h626q-3 115 -75 191t-187 77zM639 -37q-205 0 -343 141t-138 356q1 281 219 498t501 217q212 -1 352 -137t140 -345q1 -126 -54 -246h-880q11 -99 77 -167t170 -67q206 0 308 145h288q-103 -187 -269 -291t-371 -104z
M1034 1304h-214l-248 281h299l80 -130l135 130h302z" />
    <glyph glyph-name="Gbreve" unicode="&#x11e;" horiz-adv-x="1720" 
d="M182 625q0 368 290 644t679 276q247 -1 421 -127t226 -342h-336q-58 98 -158 154t-218 56q-242 0 -429 -189t-188 -432q1 -192 124 -314t316 -122q238 0 423 190q45 46 77 92h-631l50 262h985q-42 -297 -280 -526q-286 -277 -669 -277q-299 0 -491 184q-191 183 -191 471
zM1172 1645q-170 0 -262 73t-92 208h221q11 -36 59 -60t112 -24t118 22t81 62h221q-52 -136 -170 -208t-288 -73z" />
    <glyph glyph-name="gbreve" unicode="&#x11f;" horiz-adv-x="1352" 
d="M828 927q-150 -1 -272 -129t-122 -301q0 -126 76 -206t204 -80t249 107q121 106 148 250t-53 252t-230 107zM633 -212q166 0 273 98t145 254q-199 -177 -409 -177t-347 141q-138 141 -138 356q1 281 216 498t494 217q209 1 335 -182l27 143h263l-176 -923
q-57 -303 -260 -489t-476 -186q-220 0 -350 96t-162 280h310q18 -58 87 -92t168 -34zM892 1297q-170 0 -262 73t-92 208h221q11 -36 59 -60t112 -24t118 22t81 62h221q-52 -136 -170 -208t-288 -73z" />
    <glyph glyph-name="uni0122" unicode="&#x122;" horiz-adv-x="1720" 
d="M182 625q0 368 290 644t679 276q247 -1 421 -127t226 -342h-336q-58 98 -158 154t-218 56q-242 0 -429 -189t-188 -432q1 -192 124 -314t316 -122q238 0 423 190q45 46 77 92h-631l50 262h985q-42 -297 -280 -526q-286 -277 -669 -277q-299 0 -491 184q-191 183 -191 471
zM491 -572l229 405h235l-231 -405h-233z" />
    <glyph glyph-name="uni0123" unicode="&#x123;" horiz-adv-x="1352" 
d="M828 927q-150 -1 -272 -129t-122 -301q0 -126 76 -206t204 -80t249 107q121 106 148 250t-53 252t-230 107zM633 -212q166 0 273 98t145 254q-199 -177 -409 -177t-347 141q-138 141 -138 356q1 281 216 498t494 217q209 1 335 -182l27 143h263l-176 -923
q-57 -303 -260 -489t-476 -186q-220 0 -350 96t-162 280h310q18 -58 87 -92t168 -34zM1178 1708l-229 -405h-196l231 405h194z" />
    <glyph glyph-name="Imacron" unicode="&#x12a;" horiz-adv-x="573" 
d="M435 1515h280l-288 -1515h-280zM297 1901h704l-45 -238h-704z" />
    <glyph glyph-name="imacron" unicode="&#x12b;" horiz-adv-x="492" 
d="M325 1136h272l-216 -1136h-272zM189 1553h704l-45 -238h-704z" />
    <glyph glyph-name="Iogonek" unicode="&#x12e;" horiz-adv-x="573" 
d="M246 -207q26 -27 71 -27t84 23l-30 -160q-68 -27 -160 -27q-93 0 -145 57q-51 57 -31 159q10 54 62 103t109 79h-56l288 1515h280l-288 -1515h-69q-70 -49 -97 -76q-28 -28 -36 -66t18 -65z" />
    <glyph glyph-name="iogonek" unicode="&#x12f;" horiz-adv-x="491" 
d="M394 1515h272l-47 -250h-272zM202 -207q26 -27 70 -27q45 0 84 23l-30 -160q-68 -27 -160 -27q-93 0 -145 57q-51 57 -31 159q10 54 62 103t109 79h-55l216 1136h272l-216 -1136h-62q-70 -49 -97 -76q-27 -28 -35 -66t18 -65z" />
    <glyph glyph-name="Idotaccent" unicode="&#x130;" horiz-adv-x="573" 
d="M435 1515h280l-288 -1515h-280zM518 1924h272l-52 -274h-272z" />
    <glyph glyph-name="dotlessi" unicode="&#x131;" horiz-adv-x="492" 
d="M325 1136h272l-216 -1136h-272z" />
    <glyph glyph-name="uni0136" unicode="&#x136;" horiz-adv-x="1270" 
d="M462 0h-280l288 1515h280l-127 -666l600 666h328l-713 -750l436 -765h-344l-341 666zM317 -572l229 405h235l-231 -405h-233z" />
    <glyph glyph-name="uni0137" unicode="&#x137;" horiz-adv-x="1188" 
d="M436 0h-272l288 1515h272l-173 -910l460 531h317l-508 -555l352 -581h-348l-286 536zM251 -572l229 405h235l-231 -405h-233z" />
    <glyph glyph-name="Lacute" unicode="&#x139;" horiz-adv-x="901" 
d="M435 1515h280l-239 -1253h471l-49 -262h-751zM375 1817l506 270l80 -212l-512 -249z" />
    <glyph glyph-name="lacute" unicode="&#x13a;" horiz-adv-x="492" 
d="M399 1515h272l-288 -1515h-272zM335 1817l506 270l80 -212l-512 -249z" />
    <glyph glyph-name="uni013B" unicode="&#x13b;" horiz-adv-x="901" 
d="M439 1515h280l-239 -1253h471l-49 -262h-751zM147 -572l229 405h235l-231 -405h-233z" />
    <glyph glyph-name="uni013C" unicode="&#x13c;" horiz-adv-x="491" 
d="M411 1515h272l-288 -1515h-272zM-120 -572l229 405h235l-231 -405h-233z" />
    <glyph glyph-name="Lcaron" unicode="&#x13d;" horiz-adv-x="901" 
d="M435 1515h280l-239 -1253h471l-49 -262h-751zM766 1110l229 405h196l-231 -405h-194z" />
    <glyph glyph-name="lcaron" unicode="&#x13e;" horiz-adv-x="840" 
d="M392 1515h272l-288 -1515h-272zM715 1110l229 405h196l-231 -405h-194z" />
    <glyph glyph-name="Lslash" unicode="&#x141;" horiz-adv-x="983" 
d="M400 1515h280l-91 -480l290 174l-55 -290l-290 -174l-93 -483h471l-49 -262h-751l106 556l-165 -99l55 290l165 99z" />
    <glyph glyph-name="lslash" unicode="&#x142;" horiz-adv-x="655" 
d="M406 1515h272l-99 -521l171 100l-56 -294l-171 -100l-133 -700h-272l99 521l-147 -86l57 294l146 86z" />
    <glyph glyph-name="Nacute" unicode="&#x143;" horiz-adv-x="1516" 
d="M423 0h-280l288 1515h158l580 -1114l212 1114h280l-288 -1515h-154l-586 1105zM846 1817l506 270l80 -212l-512 -249z" />
    <glyph glyph-name="nacute" unicode="&#x144;" horiz-adv-x="1229" 
d="M907 1175q191 0 287 -149t48 -393l-120 -633h-272l108 570q66 355 -164 355q-114 0 -190 -80t-105 -234l-116 -611h-272l216 1136h250l-19 -100q158 139 349 139zM638 1469l506 270l80 -212l-512 -249z" />
    <glyph glyph-name="uni0145" unicode="&#x145;" horiz-adv-x="1516" 
d="M423 0h-280l288 1515h158l580 -1114l212 1114h280l-288 -1515h-154l-586 1105zM379 -572l229 405h235l-231 -405h-233z" />
    <glyph glyph-name="uni0146" unicode="&#x146;" horiz-adv-x="1229" 
d="M907 1175q191 0 287 -149t48 -393l-120 -633h-272l108 570q66 355 -164 355q-114 0 -190 -80t-105 -234l-116 -611h-272l216 1136h250l-19 -100q158 139 349 139zM237 -572l229 405h235l-231 -405h-233z" />
    <glyph glyph-name="Ncaron" unicode="&#x147;" horiz-adv-x="1516" 
d="M423 0h-280l288 1515h158l580 -1114l212 1114h280l-288 -1515h-154l-586 1105zM1196 1652h-214l-248 281h299l80 -130l135 130h302z" />
    <glyph glyph-name="ncaron" unicode="&#x148;" horiz-adv-x="1229" 
d="M907 1175q191 0 287 -149t48 -393l-120 -633h-272l108 570q66 355 -164 355q-114 0 -190 -80t-105 -234l-116 -611h-272l216 1136h250l-19 -100q158 139 349 139zM972 1304h-214l-248 281h299l80 -130l135 130h302z" />
    <glyph glyph-name="Omacron" unicode="&#x14c;" horiz-adv-x="1720" 
d="M900 229q243 -1 431 189t188 435q1 191 -116 312t-301 121q-244 0 -432 -190t-187 -435q-1 -190 116 -311t301 -121zM852 -30q-289 0 -473 182t-184 468q0 370 287 648t669 277q289 -1 473 -183t183 -468q-1 -370 -287 -647t-668 -277zM867 1901h704l-45 -238h-704z" />
    <glyph glyph-name="omacron" unicode="&#x14d;" horiz-adv-x="1311" 
d="M692 213q164 0 285 130t121 305q0 122 -76 200t-194 77q-163 -1 -284 -131t-121 -306q0 -121 75 -198t194 -77zM645 -37q-217 -1 -359 141t-141 354v4q0 280 222 496t509 217q216 0 358 -142t142 -359q0 -279 -222 -495t-509 -216zM596 1553h704l-45 -238h-704z" />
    <glyph glyph-name="Ohungarumlaut" unicode="&#x150;" horiz-adv-x="1720" 
d="M900 229q243 -1 431 189t188 435q1 191 -116 312t-301 121q-244 0 -432 -190t-187 -435q-1 -190 116 -311t301 -121zM852 -30q-289 0 -473 182t-184 468q0 370 287 648t669 277q289 -1 473 -183t183 -468q-1 -370 -287 -647t-668 -277zM1279 1738l436 373l127 -162
l-452 -353zM828 1738l436 373l127 -162l-452 -353z" />
    <glyph glyph-name="ohungarumlaut" unicode="&#x151;" horiz-adv-x="1311" 
d="M692 213q164 0 285 130t121 305q0 122 -76 200t-194 77q-163 -1 -284 -131t-121 -306q0 -121 75 -198t194 -77zM645 -37q-217 -1 -359 141t-141 354v4q0 280 222 496t509 217q216 0 358 -142t142 -359q0 -279 -222 -495t-509 -216zM1008 1390l436 373l127 -162l-452 -353
zM557 1390l436 373l127 -162l-452 -353z" />
    <glyph glyph-name="OE" unicode="&#x152;" horiz-adv-x="2171" 
d="M1092 1287q-236 0 -419.5 -191t-183.5 -437q0 -189 112.5 -309t288.5 -120q230 0 416.5 192t186.5 430q0 189 -113 312q-114 123 -288 123zM1135 1546q271 0 452 -190l1 -1l30 160h724l-49 -262h-442l-71 -370h420l-50 -262h-420l-69 -359h454l-49 -262h-736l27 142
q-237 -171 -519 -171t-459.5 181t-177.5 465q0 373 280 651t654 278z" />
    <glyph glyph-name="oe" unicode="&#x153;" horiz-adv-x="2212" 
d="M1735 923q-160 0 -280 -132q-52 -58 -82 -126h625q-5 110 -76 184t-187 74zM840 925q-163 0 -284 -130.5t-121 -306.5q0 -121 75 -198t194 -77q163 0 284 130t121 306q0 121 -75 199t-194 77zM643 -37q-211 0 -349 141t-138 356q1 281 218 498q218 217 500 217
q211 0 349 -141q38 -38 65 -83q224 224 492 224q213 0 352.5 -136.5t139.5 -345.5q1 -126 -54 -246h-882q12 -97 78 -165t170 -69q207 0 309 145h288q-103 -187 -269.5 -291t-362.5 -104q-243 0 -399 224q-224 -224 -507 -224z" />
    <glyph glyph-name="Racute" unicode="&#x154;" horiz-adv-x="1188" 
d="M806 1256h-156l-89 -469h156q157 0 247 75t91 204q0 190 -249 190zM864 1515q230 0 357 -101t126 -284v-3q1 -251 -187 -417q-129 -114 -305 -151l310 -559h-343l-297 598l-114 -598h-280l288 1515h445zM670 1817l506 270l80 -212l-512 -249z" />
    <glyph glyph-name="racute" unicode="&#x155;" horiz-adv-x="655" 
d="M844 1175h22l-48 -252q-108 -9 -187 -68t-102 -183l-128 -672h-272l216 1136h250l-19 -103l31 39q93 103 237 103zM407 1469l506 270l80 -212l-512 -249z" />
    <glyph glyph-name="uni0156" unicode="&#x156;" horiz-adv-x="1188" 
d="M806 1256h-156l-89 -469h156q157 0 247 75t91 204q0 190 -249 190zM864 1515q230 0 357 -101t126 -284v-3q1 -251 -187 -417q-129 -114 -305 -151l310 -559h-343l-297 598l-114 -598h-280l288 1515h445zM272 -572l229 405h235l-231 -405h-233z" />
    <glyph glyph-name="uni0157" unicode="&#x157;" horiz-adv-x="655" 
d="M878 1175h22l-48 -252q-108 -9 -187 -68t-102 -183l-128 -672h-272l216 1136h250l-19 -103l31 39q93 103 237 103zM-80 -572l229 405h235l-231 -405h-233z" />
    <glyph glyph-name="Rcaron" unicode="&#x158;" horiz-adv-x="1188" 
d="M806 1256h-156l-89 -469h156q157 0 247 75t91 204q0 190 -249 190zM864 1515q230 0 357 -101t126 -284v-3q1 -251 -187 -417q-129 -114 -305 -151l310 -559h-343l-297 598l-114 -598h-280l288 1515h445zM1020 1652h-214l-248 281h299l80 -130l135 130h302z" />
    <glyph glyph-name="rcaron" unicode="&#x159;" horiz-adv-x="655" 
d="M844 1175h22l-48 -252q-108 -9 -187 -68t-102 -183l-128 -672h-272l216 1136h250l-19 -103l31 39q93 103 237 103zM741 1304h-214l-248 281h299l80 -130l135 130h302z" />
    <glyph glyph-name="Sacute" unicode="&#x15a;" horiz-adv-x="1065" 
d="M754 1286q-72 0 -120 -47t-62 -119t36 -114q48 -43 184 -90q195 -67 266 -178q48 -75 48 -181q0 -52 -11 -110q-39 -205 -205 -341t-373 -136q-206 0 -323 133q-94 110 -94 263l5 73h302q-14 -88 33 -149q46 -61 134 -61q88 -1 153 55t82 144t-29 140q-46 51 -181 97
q-197 68 -270 172q-50 72 -51 175q4 250 194 408q148 124 336 125q187 0 283 -110t95 -277l-1 -44h-290q6 80 -32 126t-109 46zM604 1817l506 270l80 -212l-512 -249z" />
    <glyph glyph-name="sacute" unicode="&#x15b;" horiz-adv-x="901" 
d="M448 -37q-178 0 -264 96t-84 238l3 61h289q-5 -67 26 -106t88 -39q58 -1 96 29t48 81t-24 83t-128 64q-163 53 -225 135q-44 59 -44 142q1 33 7 70q30 154 154 256t282 102q158 1 238 -89t80 -214l-2 -45h-268q4 98 -87 98q-49 0 -83 -26t-41 -67t27 -68t128 -58
q167 -54 230 -138q45 -59 45 -143q-6 -215 -177 -352q-136 -110 -314 -110zM471 1469l506 270l80 -212l-512 -249z" />
    <glyph glyph-name="Scedilla" unicode="&#x15e;" horiz-adv-x="1065" 
d="M513 -211q-71 0 -97 -44l-93 37l119 192q-152 20 -248 129q-94 110 -94 263l5 73h302q-14 -88 33 -149q46 -61 134 -61q88 -1 153 55t82 144t-29 140q-46 51 -181 97q-197 68 -270 172q-50 72 -51 175q4 250 194 408q148 124 336 125q187 0 283 -110t95 -277l-1 -44h-290
q6 80 -32 126t-109 46q-72 0 -120 -47t-62 -119t36 -114q48 -43 184 -90q195 -67 266 -178q48 -75 48 -181q0 -52 -11 -110q-39 -205 -198 -335t-348 -141l-52 -82l53 3q84 0 126 -58t25 -148t-85 -144q-68 -56 -152 -56t-130 48t-47 131h109q6 -74 80 -74q42 1 74 27t40 68
t-15 73q-23 30 -62 30z" />
    <glyph glyph-name="scedilla" unicode="&#x15f;" horiz-adv-x="901" 
d="M430 -514q-84 0 -129 48q-46 48 -47 131h109q6 -74 80 -74q43 1 75 27t39 68q8 42 -15 73q-23 30 -62 30q-71 0 -97 -44l-93 37l113 183q-146 12 -225 101t-78 231l3 61h289q-5 -67 26 -106t88 -39q58 -1 96 29t48 81t-24 83t-128 64q-163 53 -225 135q-44 59 -44 142
q1 33 7 70q30 154 154 256t282 102q158 1 238 -89t80 -214l-2 -45h-268q4 98 -87 98q-49 0 -83 -26t-41 -67t27 -68t128 -58q167 -54 230 -138q45 -59 45 -143q-6 -215 -177 -352q-111 -90 -249 -106l-49 -78l53 3q84 0 126 -58t25 -148q-18 -90 -86 -144q-68 -56 -152 -56z
" />
    <glyph glyph-name="Scaron" unicode="&#x160;" horiz-adv-x="1065" 
d="M754 1286q-72 0 -120 -47t-62 -119t36 -114q48 -43 184 -90q195 -67 266 -178q48 -75 48 -181q0 -52 -11 -110q-39 -205 -205 -341t-373 -136q-206 0 -323 133q-94 110 -94 263l5 73h302q-14 -88 33 -149q46 -61 134 -61q88 -1 153 55t82 144t-29 140q-46 51 -181 97
q-197 68 -270 172q-50 72 -51 175q4 250 194 408q148 124 336 125q187 0 283 -110t95 -277l-1 -44h-290q6 80 -32 126t-109 46zM954 1652h-214l-248 281h299l80 -130l135 130h302z" />
    <glyph glyph-name="scaron" unicode="&#x161;" horiz-adv-x="901" 
d="M448 -37q-178 0 -264 96t-84 238l3 61h289q-5 -67 26 -106t88 -39q58 -1 96 29t48 81t-24 83t-128 64q-163 53 -225 135q-44 59 -44 142q1 33 7 70q30 154 154 256t282 102q158 1 238 -89t80 -214l-2 -45h-268q4 98 -87 98q-49 0 -83 -26t-41 -67t27 -68t128 -58
q167 -54 230 -138q45 -59 45 -143q-6 -215 -177 -352q-136 -110 -314 -110zM805 1304h-214l-248 281h299l80 -130l135 130h302z" />
    <glyph glyph-name="uni0162" unicode="&#x162;" horiz-adv-x="860" 
d="M470 -211q-71 0 -97 -44l-93 37l135 218h-82l239 1253h-284l49 262h848l-49 -262h-284l-239 -1253h-104l14 -2l-69 -109l53 3q84 0 126 -58t25 -148q-18 -90 -86 -144q-68 -56 -152 -56t-129 48q-46 48 -47 131h109q6 -74 80 -74q43 1 75 27t39 68q8 42 -15 73
q-23 30 -62 30z" />
    <glyph glyph-name="uni0163" unicode="&#x163;" horiz-adv-x="614" 
d="M326 -211q-71 0 -97 -44l-93 37l112 181h-79l177 932h-135l46 241h135l73 381h272l-73 -381h165l-46 -241h-165l-177 -932h-84l-47 -74l53 3q84 0 126 -58t25 -148q-18 -90 -86 -144q-68 -56 -152 -56t-129 48q-46 48 -47 131h109q6 -74 80 -74q43 1 75 27t39 68
q8 42 -15 73q-23 30 -62 30z" />
    <glyph glyph-name="Tcaron" unicode="&#x164;" horiz-adv-x="860" 
d="M569 0h-280l239 1253h-284l49 262h848l-49 -262h-284zM867 1652h-214l-248 281h299l80 -130l135 130h302z" />
    <glyph glyph-name="tcaron" unicode="&#x165;" horiz-adv-x="1040" 
d="M171 -37l177 932h-135l46 241h135l73 381h272l-73 -381h165l-46 -241h-165l-177 -932h-272zM901 1110l229 405h196l-231 -405h-194z" />
    <glyph glyph-name="Umacron" unicode="&#x16a;" horiz-adv-x="1311" 
d="M654 -30q-252 0 -373 163q-82 114 -82 278q0 71 15 151l181 953h280l-184 -967q-11 -56 -11 -120t33 -116q51 -80 179 -80t212 82t113 234l184 967h280l-181 -953q-54 -284 -224 -438t-422 -154zM660 1901h704l-45 -238h-704z" />
    <glyph glyph-name="umacron" unicode="&#x16b;" horiz-adv-x="1229" 
d="M530 -37q-192 0 -288 149q-65 100 -64 243q-1 70 15 150l120 631h272l-108 -568q-67 -355 163 -355q114 0 191 80q76 80 105 234l116 609h272l-216 -1136h-250l19 102q-155 -139 -347 -139zM546 1553h704l-45 -238h-704z" />
    <glyph glyph-name="Uring" unicode="&#x16e;" horiz-adv-x="1311" 
d="M654 -30q-252 0 -373 163q-82 114 -82 278q0 71 15 151l181 953h280l-184 -967q-11 -56 -11 -120t33 -116q51 -80 179 -80t212 82t113 234l184 967h280l-181 -953q-54 -284 -224 -438t-422 -154zM966 1684q34 0 62 24t34 57q6 34 -14 58t-53 24q-34 0 -62 -24t-34 -58
q-7 -33 13 -57t54 -24zM943 1546q-92 0 -145 64t-37 155q16 92 91 156t167 64q93 0 145 -64t36 -156q-16 -91 -90 -155t-167 -64z" />
    <glyph glyph-name="uring" unicode="&#x16f;" horiz-adv-x="1229" 
d="M530 -37q-192 0 -288 149q-65 100 -64 243q-1 70 15 150l120 631h272l-108 -568q-67 -355 163 -355q114 0 191 80q76 80 105 234l116 609h272l-216 -1136h-250l19 102q-155 -139 -347 -139zM856 1407q34 -1 62 23t34 58t-14 58t-54 24t-62 -24t-33 -58q-7 -34 13 -58
t54 -23zM833 1269q-92 -1 -145 63t-37 156q17 92 91 156t166 64t145 -64t37 -156t-90 -156t-167 -63z" />
    <glyph glyph-name="Uhungarumlaut" unicode="&#x170;" horiz-adv-x="1311" 
d="M654 -30q-252 0 -373 163q-82 114 -82 278q0 71 15 151l181 953h280l-184 -967q-11 -56 -11 -120t33 -116q51 -80 179 -80t212 82t113 234l184 967h280l-181 -953q-54 -284 -224 -438t-422 -154zM1072 1738l436 373l127 -162l-452 -353zM621 1738l436 373l127 -162
l-452 -353z" />
    <glyph glyph-name="uhungarumlaut" unicode="&#x171;" horiz-adv-x="1229" 
d="M530 -37q-192 0 -288 149q-65 100 -64 243q-1 70 15 150l120 631h272l-108 -568q-67 -355 163 -355q114 0 191 80q76 80 105 234l116 609h272l-216 -1136h-250l19 102q-155 -139 -347 -139zM958 1390l436 373l127 -162l-452 -353zM507 1390l436 373l127 -162l-452 -353z
" />
    <glyph glyph-name="Uogonek" unicode="&#x172;" horiz-adv-x="1311" 
d="M702 -207q26 -27 71 -27t84 23l-30 -160q-68 -27 -160 -27q-93 0 -145 57q-51 57 -34 148t125 164q-220 10 -332 162q-82 114 -82 278q0 71 15 151l181 953h280l-184 -967q-11 -56 -11 -120t33 -116q51 -80 179 -80t212 82t113 234l184 967h280l-181 -953
q-54 -284 -225 -438q-118 -107 -281 -140q-52 -37 -77 -62q-25 -26 -33 -64t18 -65z" />
    <glyph glyph-name="uogonek" unicode="&#x173;" horiz-adv-x="1229" 
d="M894 -207q26 -27 71 -27t84 23l-30 -160q-68 -27 -160 -27q-93 0 -145 57q-51 57 -31 159q10 54 63 104t112 80l19 100q-155 -139 -347 -139t-288 149q-65 100 -64 243q-1 70 15 150l120 631h272l-108 -568q-67 -355 163 -355q114 0 191 80q76 80 105 234l116 609h272
l-216 -1136h-99q-70 -49 -97 -76q-28 -28 -36 -66t18 -65z" />
    <glyph glyph-name="Ydieresis" unicode="&#x178;" horiz-adv-x="1270" 
d="M276 1515h310l206 -694l457 694h306l-675 -959l-106 -556h-280l107 561zM1073 1924h274l-52 -273h-274zM641 1924h274l-52 -273h-274z" />
    <glyph glyph-name="Zacute" unicode="&#x179;" horiz-adv-x="1024" 
d="M83 235l762 1018h-545l49 262h877l-44 -235l-762 -1018h612l-49 -262h-944zM587 1817l506 270l80 -212l-512 -249z" />
    <glyph glyph-name="zacute" unicode="&#x17a;" horiz-adv-x="942" 
d="M88 251l619 637h-442l47 248h772l-48 -251l-616 -634l-2 -3h538l-47 -248h-868zM504 1469l506 270l80 -212l-512 -249z" />
    <glyph glyph-name="Zdotaccent" unicode="&#x17b;" horiz-adv-x="1024" 
d="M83 235l762 1018h-545l49 262h877l-44 -235l-762 -1018h612l-49 -262h-944zM730 1924h272l-52 -274h-272z" />
    <glyph glyph-name="zdotaccent" unicode="&#x17c;" horiz-adv-x="942" 
d="M88 251l619 637h-442l47 248h772l-48 -251l-616 -634l-2 -3h538l-47 -248h-868zM647 1576h272l-52 -274h-272z" />
    <glyph glyph-name="Zcaron" unicode="&#x17d;" horiz-adv-x="1024" 
d="M83 235l762 1018h-545l49 262h877l-44 -235l-762 -1018h612l-49 -262h-944zM937 1652h-214l-248 281h299l80 -130l135 130h302z" />
    <glyph glyph-name="zcaron" unicode="&#x17e;" horiz-adv-x="942" 
d="M88 251l619 637h-442l47 248h772l-48 -251l-616 -634l-2 -3h538l-47 -248h-868zM838 1304h-214l-248 281h299l80 -130l135 130h302z" />
    <glyph glyph-name="florin" unicode="&#x192;" horiz-adv-x="1147" 
d="M55 -310q-61 0 -109 10l85 236h29q135 0 211 69.5t142 253.5l252 702h-191l83 241h195l18 48q77 214 212 325.5t317 111.5q36 0 66 -6l-87 -240h-15q-167 0 -235 -191l-18 -48h191l-83 -241h-195l-264 -735q-104 -288 -243 -412t-361 -124z" />
    <glyph glyph-name="circumflex" unicode="&#x2c6;" horiz-adv-x="1106" 
d="M742 1584h214l247 -281h-299l-80 130l-135 -130h-302z" />
    <glyph glyph-name="caron" unicode="&#x2c7;" horiz-adv-x="1106" 
d="M899 1304h-214l-247 281h299l80 -130l135 130h302z" />
    <glyph glyph-name="uni02C9" unicode="&#x2c9;" horiz-adv-x="860" 
d="M293 1553h704l-46 -238h-704z" />
    <glyph glyph-name="breve" unicode="&#x2d8;" horiz-adv-x="983" 
d="M638 1297q-170 0 -261.5 73t-90.5 208h221q11 -36 58.5 -60t111.5 -24t118.5 22.5t81.5 61.5h221q-52 -136 -171 -208.5t-289 -72.5z" />
    <glyph glyph-name="dotaccent" unicode="&#x2d9;" horiz-adv-x="573" 
d="M442 1576h272l-52 -274h-272z" />
    <glyph glyph-name="ring" unicode="&#x2da;" horiz-adv-x="737" 
d="M627 1407q34 0 62 23.5t34 57.5t-14 58t-54 24t-61.5 -24t-33.5 -58t13.5 -57.5t53.5 -23.5zM603 1269q-92 0 -144.5 63.5t-36.5 155.5t91 156t167 64t144.5 -64t36.5 -156t-91 -155.5t-167 -63.5z" />
    <glyph glyph-name="ogonek" unicode="&#x2db;" horiz-adv-x="696" 
d="M351.5 -207q25.5 -27 70.5 -27t84 23l-30 -160q-68 -27 -160 -27q-93 0 -145 57q-51 57 -31 159q10 54 69 110t141 90h142q-91 -62 -121 -92q-29 -30 -37 -68t17.5 -65z" />
    <glyph glyph-name="tilde" unicode="&#x2dc;" horiz-adv-x="983" 
d="M492 1545q73 26 131 26t150 -30q91 -30 156 -30q64 0 144 47l81 -166q-51 -38 -124 -64t-128 -26t-188 42q-44 14 -113 14t-155 -43l-81 166q54 38 127 64z" />
    <glyph glyph-name="hungarumlaut" unicode="&#x2dd;" horiz-adv-x="1434" 
d="M921 1390l436 373l127 -162l-453 -353zM470 1390l436 373l127 -162l-453 -353z" />
    <glyph glyph-name="pi" unicode="&#x3c0;" horiz-adv-x="1246" 
d="M669 206q0 180 101 599h-148l-116 -652q-18 -105 -45 -141.5t-89 -36.5t-73 45t28 165l211 620h-94q-75 0 -130.5 -31.5t-140.5 -121.5l-61 40q91 160 171.5 213.5t229.5 53.5l338 1q236 0 337 9l-30 -164h-301q-61 -325 14 -660q22 -99 7 -134.5t-78 -35.5
q-131 0 -131 231z" />
    <glyph glyph-name="endash" unicode="&#x2013;" horiz-adv-x="1024" 
d="M206 712h880l-46 -242h-880z" />
    <glyph glyph-name="emdash" unicode="&#x2014;" horiz-adv-x="2048" 
d="M206 712h1904l-46 -242h-1904z" />
    <glyph glyph-name="quoteleft" unicode="&#x2018;" horiz-adv-x="573" 
d="M596 954h-272l55 287q25 128 107.5 198.5t216.5 76.5l-27 -138q-88 -15 -110 -49t-36 -103h118z" />
    <glyph glyph-name="quoteright" unicode="&#x2019;" horiz-adv-x="573" 
d="M432 1514h272l-54 -287q-25 -128 -107.5 -198.5t-216.5 -76.5l26 138q88 14 111 48t35 104h-118z" />
    <glyph glyph-name="quotesinglbase" unicode="&#x201a;" horiz-adv-x="573" 
d="M201 272h272l-53 -287q-25 -128 -107.5 -198.5t-216.5 -76.5l27 138q87 14 110 48t35 104h-118z" />
    <glyph glyph-name="quotedblleft" unicode="&#x201c;" horiz-adv-x="983" 
d="M1015 954h-272l55 287q25 128 107.5 198.5t216.5 76.5l-27 -138q-89 -15 -111 -49t-35 -103h118zM591 954h-272l55 287q25 128 107.5 198.5t216.5 76.5l-27 -138q-89 -15 -111 -49t-35 -103h118z" />
    <glyph glyph-name="quotedblright" unicode="&#x201d;" horiz-adv-x="983" 
d="M852 1514h272l-54 -287q-25 -128 -107.5 -198.5t-216.5 -76.5l26 138q88 14 111 48t35 104h-118zM428 1514h272l-54 -287q-25 -128 -107.5 -198.5t-216.5 -76.5l26 138q88 14 111 48t35 104h-118z" />
    <glyph glyph-name="quotedblbase" unicode="&#x201e;" horiz-adv-x="983" 
d="M621 272h272l-53 -287q-25 -128 -107.5 -198.5t-216.5 -76.5l27 138q87 14 110 48t35 104h-118zM197 272h272l-53 -287q-25 -128 -107.5 -198.5t-216.5 -76.5l27 138q87 14 110 48t35 104h-118z" />
    <glyph glyph-name="dagger" unicode="&#x2020;" horiz-adv-x="1147" 
d="M315 1137h333l72 378h271l-72 -378h334l-43 -230h-334l-227 -1195h-271l227 1195h-333z" />
    <glyph glyph-name="daggerdbl" unicode="&#x2021;" horiz-adv-x="1147" 
d="M331 1197h333l60 318h271l-60 -318h334l-44 -230h-334l-114 -600h334l-44 -230h-334l-80 -425h-271l80 425h-333l44 230h333l114 600h-333z" />
    <glyph glyph-name="bullet" unicode="&#x2022;" horiz-adv-x="1229" 
d="M812 1089q131 0 204.5 -92t47.5 -226t-134 -226t-239 -92t-204 92t-47 226q25 134 133 226t239 92z" />
    <glyph glyph-name="ellipsis" unicode="&#x2026;" horiz-adv-x="2048" 
d="M1619 273h274l-52 -273h-274zM938 273h274l-52 -273h-274zM257 273h274l-52 -273h-274z" />
    <glyph glyph-name="perthousand" unicode="&#x2030;" horiz-adv-x="2621" 
d="M2347 358q0 124 -123 124q-60 0 -109.5 -51.5t-49.5 -113.5q0 -124 122 -124q60 0 110 51.5t50 113.5zM2136 -33q-137 0 -220.5 80.5t-83.5 212.5q0 185 131 316.5t314 131.5q137 0 220 -80.5t82 -213.5q0 -184 -130 -316t-313 -131zM1519 358q0 124 -123 124
q-60 0 -109.5 -51.5t-49.5 -113.5q0 -124 122 -124q60 0 110 51.5t50 113.5zM1308 -33q-137 0 -220.5 80.5t-83.5 212.5q0 185 131 316.5t314 131.5q137 0 220 -80.5t82 -213.5q0 -184 -130 -316t-313 -131zM449 -3l923 1521h206l-923 -1521h-206zM800 1198q0 124 -122 124
q-60 0 -110 -51.5t-50 -113.5q0 -124 123 -124q60 0 109.5 51.5t49.5 113.5zM588 807q-137 0 -220 80.5t-83 212.5q1 185 131.5 316.5t313.5 131.5q137 0 220 -80.5t83 -213.5q0 -184 -131 -316t-314 -131z" />
    <glyph glyph-name="guilsinglleft" unicode="&#x2039;" horiz-adv-x="492" 
d="M523 710l-160 -119l114 -120l-47 -249l-237 265l40 208l337 264z" />
    <glyph glyph-name="guilsinglright" unicode="&#x203a;" horiz-adv-x="492" 
d="M190 471l160 119l-114 120l47 249l237 -265l-40 -208l-337 -264z" />
    <glyph glyph-name="fraction" unicode="&#x2044;" horiz-adv-x="328" 
d="M857 1515l-909 -1515h-199l909 1515h199z" />
    <glyph glyph-name="uni2074" unicode="&#x2074;" horiz-adv-x="688" 
d="M714 1515h161l-116 -609h100l-32 -168h-100l-25 -132h-185l25 132h-405l30 155z" />
    <glyph glyph-name="Euro" unicode="&#x20ac;" horiz-adv-x="1147" 
d="M682 -30q-194 0 -295 139q-100 139 -108 361h-174l76 220h105q5 62 17 118h-133l76 220h111q43 125 109 227q186 290 479 290q191 -1 292 -119t101 -304l-1 -39h-283q0 209 -149 209q-154 0 -252 -219l-18 -45h353l-76 -220h-335q-9 -56 -14 -118h307l-76 -220h-239
q16 -247 154 -247q149 0 213 201h289q-59 -222 -197 -338t-332 -116z" />
    <glyph glyph-name="trademark" unicode="&#x2122;" horiz-adv-x="2048" 
d="M490 606h-184l141 737h-179l32 172h542l-32 -172h-179zM984 606h-193l173 909h127l245 -673l373 673h255l-173 -909h-193l120 626l-348 -626h-158l-108 626z" />
    <glyph glyph-name="Omega" unicode="&#x2126;" horiz-adv-x="1246" 
d="M101 952q0 209 149.5 334.5t397.5 127.5t404 -127t156 -328q0 -168 -141 -399q-81 -133 -199 -345h79q75 -1 112 42.5t64 164.5l73 -12l-74 -410h-412q127 352 167 479q88 285 88 460t-86.5 279.5t-224.5 108.5q-138 -4 -224 -107t-86 -265q0 -78 39.5 -284t215.5 -671
h-413l-74 410l74 12q33 -138 61.5 -171t114.5 -36h79q-81 154 -172 303q-168 271 -168 434z" />
    <glyph glyph-name="partialdiff" unicode="&#x2202;" horiz-adv-x="1020" 
d="M683 654q0 246 -156 247q-107 0 -181.5 -167.5t-74.5 -409.5q0 -114 44 -193t108 -79q108 0 184 178t76 424zM545 1434q393 0 391 -620q0 -372 -145.5 -609t-372.5 -237q-148 0 -242.5 117t-94.5 300q0 234 139.5 416.5t317.5 182.5q92 0 201 -66q21 190 -16.5 302
t-122.5 112q-28 0 -60.5 -29t-56.5 -81t-44.5 -71.5t-70.5 -19.5t-76 48.5t4 108.5t102.5 103t146.5 43z" />
    <glyph glyph-name="Delta" unicode="&#x2206;" horiz-adv-x="1360" 
d="M667 1077l-446 -883h799zM740 1391l582 -1391h-1285z" />
    <glyph glyph-name="product" unicode="&#x220f;" horiz-adv-x="2039" 
d="M197 -315v65q151 17 197.5 88.5t46.5 289.5v901q3 217 -43.5 288.5t-200.5 88.5v65h1645v-65q-151 -17 -197.5 -88.5t-46.5 -288.5v-901q0 -218 46.5 -289.5t197.5 -88.5v-65h-704v65q157 17 202 87t42 291v1262h-725v-1262q0 -218 46.5 -289.5t197.5 -88.5v-65h-704z
" />
    <glyph glyph-name="summation" unicode="&#x2211;" horiz-adv-x="2039" 
d="M1110 1389h-403l370 -740l-451 -756h524q138 0 219 51t149 180l22 41l70 -21l-117 -459h-1077l491 838l-482 948h1119l46 -366l-70 -14l-17 39q-54 142 -142.5 200.5t-250.5 58.5z" />
    <glyph glyph-name="minus" unicode="&#x2212;" horiz-adv-x="1229" 
d="M162 638h1032l-47 -246h-1032z" />
    <glyph glyph-name="uni2215" unicode="&#x2215;" horiz-adv-x="328" 
d="M857 1515l-909 -1515h-199l909 1515h199z" />
    <glyph glyph-name="uni2219" unicode="&#x2219;" horiz-adv-x="573" 
d="M313 894h274l-52 -273h-274z" />
    <glyph glyph-name="radical" unicode="&#x221a;" horiz-adv-x="1473" 
d="M1722 1529v-86h-281l-553 -1817h-74l-570 821l-145 -105l-43 96l298 194l506 -750l480 1647h382z" />
    <glyph glyph-name="infinity" unicode="&#x221e;" horiz-adv-x="2039" 
d="M1643 569q0 97 -59.5 156.5t-150.5 59.5t-153 -50.5t-122 -168.5q41 -100 111.5 -154t164.5 -54t151.5 57t57.5 154zM394 569q0 -109 69 -183t173 -74t189 73t160 232q-63 113 -138 163.5t-185 50.5t-189 -76.5t-79 -185.5zM1754 573q0 -164 -97 -271t-243 -107
q-105 0 -189 56.5t-135 161.5q-106 -156 -186.5 -210t-206.5 -54q-174 0 -294 121.5t-120 299.5t116.5 301t285.5 123q122 0 210.5 -60.5t175.5 -202.5q147 217 335 217q153 0 250.5 -105.5t97.5 -269.5z" />
    <glyph glyph-name="integral" unicode="&#x222b;" horiz-adv-x="2039" 
d="M1187 1321q-84 0 -84 77q0 10 16 72q2 8 -5.5 14t-20.5 6q-77 0 -80 -131t58 -453t75 -638t-14 -464t-79 -208t-127 -60t-125 42t-49 94t28 82t64 30t61 -25.5t25 -61.5l-9 -60q-1 -9 6 -15.5t19 -6.5q52 -1 69 87t-13 250q-80 427 -110 817q-63 800 231 800
q66 0 112 -42t46 -102q0 -104 -94 -104z" />
    <glyph glyph-name="approxequal" unicode="&#x2248;" horiz-adv-x="2039" 
d="M742 865q128 0 336 -67t292 -67q85 0 157 35.5t116 86.5l37 -22q-48 -115 -136 -182.5t-178 -67.5t-334 67t-313 67t-147 -35t-127 -86l-31 32q57 100 156.5 169.5t171.5 69.5zM742 514q128 0 336 -67t292 -67q85 0 157 35.5t116 86.5l37 -22q-48 -115 -136 -182.5
t-178 -67.5t-334 67t-313 67t-147 -35t-127 -86l-31 32q57 100 156.5 169.5t171.5 69.5z" />
    <glyph glyph-name="notequal" unicode="&#x2260;" horiz-adv-x="2039" 
d="M407 279v135h437l236 276h-673v135h788l317 367h164l-315 -367h312v-135h-427l-236 -276h663v-135h-779l-318 -372h-166l318 372h-321z" />
    <glyph glyph-name="lessequal" unicode="&#x2264;" horiz-adv-x="2039" 
d="M417 135h1266v-135h-1266v135zM1683 1235v-135l-1063 -410l1063 -309v-135l-1266 377v135z" />
    <glyph glyph-name="greaterequal" unicode="&#x2265;" horiz-adv-x="2039" 
d="M417 135h1266v-135h-1266v135zM417 1235l1266 -477v-135l-1266 -377v135l1063 309l-1063 410v135z" />
    <glyph glyph-name="lozenge" unicode="&#x25ca;" horiz-adv-x="1171" 
d="M585 1324l-349 -613l349 -615l349 615zM530 1423h110l404 -712l-404 -711h-110l-404 711z" />
    <glyph glyph-name="uniEFED" unicode="&#xefed;" horiz-adv-x="573" 
d="M493 1924h272l-53 -274h-272z" />
    <glyph glyph-name="uniEFEE" unicode="&#xefee;" horiz-adv-x="983" 
d="M838 1645q-170 0 -261.5 73t-90.5 208h221q11 -36 59 -60t112 -24t118 22.5t81 61.5h221q-52 -136 -171 -208.5t-289 -72.5z" />
    <glyph glyph-name="uniEFEF" unicode="&#xefef;" horiz-adv-x="860" 
d="M445 1901h704l-45 -238h-704z" />
    <glyph glyph-name="uniEFF0" unicode="&#xeff0;" horiz-adv-x="1434" 
d="M1021 1738l436 373l127 -162l-453 -353zM570 1738l436 373l127 -162l-453 -353z" />
    <glyph glyph-name="uniEFF1" unicode="&#xeff1;" horiz-adv-x="696" 
d="M351.5 -207q25.5 -27 70.5 -27t84 23l-30 -160q-68 -27 -160 -27q-93 0 -145 57q-51 57 -31 159q10 54 69 110t141 90h142q-91 -62 -121 -92q-29 -30 -37 -68t17.5 -65z" />
    <glyph glyph-name="uniEFF2" unicode="&#xeff2;" horiz-adv-x="696" 
d="M363 -211q-71 0 -97 -44l-93 37l142 230l101 -14l-69 -109l53 3q84 0 126 -58t25 -148t-85 -145t-152 -55t-130 48.5t-47 130.5h109q6 -74 80 -74q43 0 74.5 26.5t39.5 68.5t-15 72.5t-62 30.5z" />
    <glyph glyph-name="uniEFF3" unicode="&#xeff3;" horiz-adv-x="737" 
d="M626 1684q34 0 62.5 23.5t34.5 57.5q5 34 -14.5 58t-53.5 24t-61.5 -24t-33.5 -58t13 -57.5t53 -23.5zM602 1546q-92 0 -144.5 63.5t-35.5 155.5q16 92 90.5 156t166.5 64t144.5 -64t36.5 -156t-91 -155.5t-167 -63.5z" />
    <glyph glyph-name="uniEFF4" unicode="&#xeff4;" horiz-adv-x="1106" 
d="M900 1652h-214l-248 281h299l80 -130l135 130h302z" />
    <glyph glyph-name="uniEFF5" unicode="&#xeff5;" horiz-adv-x="983" 
d="M493 1893q73 26 130 26t149 -30q91 -30 156 -30t145 47l81 -166q-51 -38 -124 -64t-127 -26t-144 28t-159 28t-153 -43l-82 166q55 38 128 64z" />
    <glyph glyph-name="uniEFF6" unicode="&#xeff6;" horiz-adv-x="1024" 
d="M886 1924h274l-53 -273h-274zM454 1924h274l-53 -273h-274z" />
    <glyph glyph-name="uniEFF7" unicode="&#xeff7;" horiz-adv-x="1106" 
d="M742 1932h214l247 -281h-299l-80 130l-135 -130h-302z" />
    <glyph glyph-name="uniEFF8" unicode="&#xeff8;" horiz-adv-x="860" 
d="M799 1624l-412 261l157 206l398 -280z" />
    <glyph glyph-name="uniEFF9" unicode="&#xeff9;" horiz-adv-x="860" 
d="M459 1817l506 270l80 -212l-513 -249z" />
    <glyph glyph-name="uniF001" unicode="&#xf001;" horiz-adv-x="1065" 
d="M938 1515h272l-47 -250h-272zM803 1280q-85 0 -128 -31t-58 -113h521l-216 -1136h-272l170 895h-249l-170 -895h-272l170 895h-96l46 241h96q43 184 163 296t304 113l54 -1l-50 -264h-13z" />
    <glyph glyph-name="uniF002" unicode="&#xf002;" horiz-adv-x="1065" 
d="M803 1280q-85 0 -128 -31t-58 -113h249l72 379h272l-288 -1515h-272l170 895h-249l-170 -895h-272l170 895h-96l46 241h96q43 184 163 296t304 113l54 -1l-50 -264h-13z" />
    <glyph glyph-name="uniFB01" unicode="&#xfb01;" horiz-adv-x="1065" 
d="M938 1515h272l-47 -250h-272zM803 1280q-85 0 -128 -31t-58 -113h521l-216 -1136h-272l170 895h-249l-170 -895h-272l170 895h-96l46 241h96q43 184 163 296t304 113l54 -1l-50 -264h-13z" />
    <glyph glyph-name="glyph106" 
d="M260 1364q-252 0 -458.5 -176t-255.5 -431t91.5 -430.5t390.5 -175.5t457 175.5t256 430.5t-90 431t-391 176zM292 1540q328 0 512.5 -227t121.5 -555t-332.5 -555.5t-598.5 -227.5t-513 227.5t-121 555.5t333 555t598 227z" />
    <glyph glyph-name="glyph107" 
d="M93 443q161 0 237 164h187q-54 -142 -177.5 -228t-282.5 -86t-258.5 98t-100.5 264q0 241 157 407.5t383 166.5q146 0 237.5 -84.5t100.5 -228.5h-186q-23 158 -182 158q-134 0 -229 -117.5t-96 -282.5q0 -107 56.5 -169t153.5 -62z" />
    <glyph glyph-name="glyph113" 
d="M258 1361q-252 0 -459 -174.5t-255 -428.5t92 -429t392 -175t459.5 175t255.5 429t-92.5 428.5t-392.5 174.5zM292 1540q328 0 512.5 -227t121.5 -555t-332.5 -555.5t-598.5 -227.5t-513 227.5t-121 555.5t333 555t598 227z" />
    <glyph glyph-name="glyph114" 
d="M354 950q0 101 -138 101h-173l-47 -248h173q84 0 134.5 40.5t50.5 106.5zM259 1199q283 0 283 -190q0 -151 -100 -224q-41 -29 -101 -48q124 -64 106 -201l-16 -107q-15 -109 -7 -128h-174q-9 1 -9 35t10 115l10 93q10 90 -98 108q-49 8 -194 11l-69 -362h-178l171 898
h366z" />
    <glyph glyph-name="glyph130" horiz-adv-x="688" 
d="M572 606h-199l140 734h-118l33 175h317z" />
    <glyph glyph-name="glyph131" horiz-adv-x="688" 
d="M714 1515h161l-116 -609h100l-32 -168h-100l-25 -132h-185l25 132h-405l30 155z" />
    <glyph glyph-name="glyph133" horiz-adv-x="688" 
d="M572 606h-199l140 734h-118l33 175h317z" />
    <glyph glyph-name="glyph134" horiz-adv-x="688" 
d="M596 1355q-119 0 -151 -161h-195q32 157 134 248t232 91t204.5 -66.5t74.5 -170.5v-3q1 -142 -101 -248q-76 -79 -328 -263h344l-34 -176h-626l33 172q357 270 434 341q76 71 76 126t-26 82.5t-71 27.5z" />
    <glyph glyph-name="glyph136" horiz-adv-x="688" 
d="M593 1358q-57 0 -77 -75h-194q26 108 113 179t185 71t161 -60t63 -158t-90 -175l-17 -13q16 -6 28 -17q77 -58 78 -155q0 -147 -117.5 -257t-263.5 -110t-219.5 81.5t-64.5 220.5h201q-1 -60 28 -93.5t85 -33.5t103 46.5t47 101.5t-34 87t-91 32h-57l33 174h38
q51 0 83 26t32 60q0 68 -53 68z" />
    <glyph glyph-name="glyph137" horiz-adv-x="688" 
d="M714 1515h161l-116 -609h100l-32 -168h-100l-25 -132h-185l25 132h-405l30 155z" />
    <glyph glyph-name="glyph140" 
d="M116 -27l-413 261l157 206l398 -280z" />
    <glyph glyph-name="glyph142" 
d="M-227 166l506 270l80 -212l-512 -249z" />
    <glyph glyph-name="glyph144" 
d="M-54 281h214l248 -281h-299l-81 130l-134 -130h-302z" />
    <glyph glyph-name="glyph146" 
d="M-242 242q73 26 130 26t149 -30q91 -30 156 -30t145 47l81 -166q-51 -38 -123.5 -64t-126.5 -26t-145 28q-90 28 -159 28t-153 -43l-82 166q55 38 128 64z" />
    <glyph glyph-name="glyph148" 
d="M131 273h274l-52 -273h-274zM-301 273h274l-52 -273h-274z" />
    <glyph glyph-name="glyph150" 
d="M1 33q34 0 62 23.5t34 57.5t-13.5 58t-53.5 24t-62 -24t-34 -58t13.5 -57.5t53.5 -23.5zM-22 -105q-92 0 -145 63.5t-37 155.5t91 156t167 64t144.5 -64t36.5 -156t-90.5 -155.5t-166.5 -63.5z" />
    <glyph glyph-name="glyph153" 
d="M-64 -211q-71 0 -97 -44l-93 37l142 230l101 -14l-69 -109l53 3q84 0 126 -58t25 -148t-85.5 -145t-152.5 -55t-129.5 48.5t-46.5 130.5h109q6 -74 80 -74q43 0 74.5 26.5t39.5 68.5t-15 72.5t-62 30.5z" />
    <glyph glyph-name="glyph179" 
d="M116 -27l-413 261l157 206l398 -280z" />
    <glyph glyph-name="glyph181" 
d="M-227 166l506 270l80 -212l-512 -249z" />
    <glyph glyph-name="glyph183" 
d="M-54 281h214l248 -281h-299l-81 130l-134 -130h-302z" />
    <glyph glyph-name="glyph185" 
d="M-242 242q73 26 130 26t149 -30q91 -30 156 -30t145 47l81 -166q-51 -38 -123.5 -64t-126.5 -26t-145 28q-90 28 -159 28t-153 -43l-82 166q55 38 128 64z" />
    <glyph glyph-name="glyph187" 
d="M131 273h274l-52 -273h-274zM-301 273h274l-52 -273h-274z" />
    <glyph glyph-name="glyph189" 
d="M5 104q34 0 62 23.5t34 57.5t-14 58t-54 24t-61.5 -24t-33.5 -58t13.5 -57.5t53.5 -23.5zM-18 -34q-92 0 -145 63.5t-37 155.5t90.5 156t166.5 64t145 -64t37 -156t-90.5 -155.5t-166.5 -63.5z" />
    <glyph glyph-name="glyph192" 
d="M-39 -211q-71 0 -97 -44l-93 37l142 230l101 -14l-69 -109l53 3q84 0 126 -58t25 -148t-85 -145t-152 -55t-130 48.5t-47 130.5h109q6 -74 80 -74q43 0 74.5 26.5t39.5 68.5t-15 72.5t-62 30.5z" />
    <glyph glyph-name="glyph219" 
d="M-305 250h704l-45 -238h-704z" />
    <glyph glyph-name="glyph221" 
d="M-305 250h704l-45 -238h-704z" />
    <glyph glyph-name="glyph223" 
d="M0 -6q-170 0 -262.5 73t-91.5 208h221q11 -36 59 -60t112 -24t118.5 22.5t80.5 61.5h221q-52 -136 -170 -208.5t-288 -72.5z" />
    <glyph glyph-name="glyph225" 
d="M0 -6q-170 0 -262.5 73t-91.5 208h221q11 -36 59 -60t112 -24t118.5 22.5t80.5 61.5h221q-52 -136 -170 -208.5t-288 -72.5z" />
    <glyph glyph-name="glyph227" 
d="M-44 -207q26 -27 71 -27t84 23l-30 -160q-68 -27 -160 -27q-93 0 -145 57q-51 57 -31 159q10 54 69 110t141 90h142q-91 -62 -121 -92t-38 -68t18 -65z" />
    <glyph glyph-name="glyph229" 
d="M4 -207q26 -27 71 -27t84 23l-30 -160q-67 -27 -160 -27t-145 57q-51 57 -31 159q10 54 69 110t141 90h142q-91 -62 -121 -92t-38 -68t18 -65z" />
    <glyph glyph-name="glyph233" 
d="M123 1h-214l-248 281h299l80 -130l135 130h302z" />
    <glyph glyph-name="glyph235" 
d="M107 1h-214l-248 281h299l80 -130l135 130h302z" />
    <glyph glyph-name="glyph238" 
d="M-138 927q-166 0 -288.5 -131.5t-122.5 -308.5q0 -121 76.5 -198.5t204.5 -77.5t248 106.5t147 250.5t-52.5 251.5t-212.5 107.5zM-356 -37q-206 0 -337 139.5t-132 352.5q0 283 215.5 501.5t494.5 218.5q189 1 310 -149l93 489h272l-288 -1515h-248l24 130
q-198 -167 -404 -167z" />
    <glyph glyph-name="glyph239" 
d="M0 0l229 405h196l-231 -405h-194z" />
    <glyph glyph-name="glyph245" 
d="M-84 273h272l-52 -274h-272z" />
    <glyph glyph-name="glyph247" 
d="M-84 273h272l-52 -274h-272z" />
    <glyph glyph-name="glyph255" 
d="M0 0l229 405h235l-231 -405h-233z" />
    <glyph glyph-name="glyph257" 
d="M286 405l-229 -405h-196l231 405h194z" />
    <glyph glyph-name="glyph282" 
d="M107 87l436 373l127 -162l-452 -353zM-344 87l436 373l127 -162l-452 -353z" />
    <glyph glyph-name="glyph284" 
d="M107 87l436 373l127 -162l-452 -353zM-344 87l436 373l127 -162l-452 -353z" />
    <glyph glyph-name="glyph300" 
d="M-64 -211q-71 0 -97 -44l-93 37l142 230l101 -14l-69 -109l53 3q84 0 126 -58t25 -148t-85.5 -145t-152.5 -55t-129.5 48.5t-46.5 130.5h109q6 -74 80 -74q43 0 74.5 26.5t39.5 68.5t-15 72.5t-62 30.5z" />
    <glyph glyph-name="glyph302" 
d="M-39 -211q-71 0 -97 -44l-93 37l142 230l101 -14l-69 -109l53 3q84 0 126 -58t25 -148t-85 -145t-152 -55t-130 48.5t-47 130.5h109q6 -74 80 -74q43 0 74.5 26.5t39.5 68.5t-15 72.5t-62 30.5z" />
    <glyph glyph-name="glyph350" 
d="M207 606h-184l141 737h-179l32 172h542l-32 -172h-179z" />
    <glyph glyph-name="glyph351" 
d="M-192 606h-193l173 909h127l245 -673l373 673h255l-173 -909h-193l120 626l-348 -626h-158l-108 626z" />
  </font>
</defs>
</svg>
