<?xml version="1.0" standalone="no"?>
<!DOCTYPE svg PUBLIC "-//W3C//DTD SVG 1.1//EN" "http://www.w3.org/Graphics/SVG/1.1/DTD/svg11.dtd" >
<svg xmlns="http://www.w3.org/2000/svg">
<metadata>
Created by FontPrep 20130207 at Tue Nov  5 09:20:30 2013
 By Fabien Postif
Copyright (c) 1992-97 Hewlett-Packard. All rights reserved.
</metadata>
<defs>
<font id="68883d5fba6f23bb8b8a2a24f3410d45" horiz-adv-x='1024' >
  <font-face 
    font-family="AvantGarde-Demi"
    font-weight="600"
    font-stretch="normal"
    units-per-em="2048"
    panose-1="2 11 8 2 2 2 2 2 2 4"
    ascent="1638"
    descent="-410"
    x-height="1136"
    cap-height="1515"
    bbox="-923 -572 2505 2111"
    underline-thickness="102"
    underline-position="-154"
    unicode-range="U+0020-FB02"
  />
<missing-glyph horiz-adv-x="669" 
d="M100 1174v-1074h369v1074h-369zM0 1274h569v-1274h-569v1274z" />
    <glyph glyph-name=".notdef" horiz-adv-x="669" 
d="M100 1174v-1074h369v1074h-369zM0 1274h569v-1274h-569v1274z" />
    <glyph glyph-name="glyph1" 
 />
    <glyph glyph-name="nonmarkingreturn" horiz-adv-x="682" 
 />
    <glyph glyph-name="space" unicode=" " horiz-adv-x="573" 
 />
    <glyph glyph-name="exclam" unicode="!" horiz-adv-x="573" 
d="M150 263h274v-263h-274v263zM152 389v1126h271v-1126h-271z" />
    <glyph glyph-name="quotedbl" unicode="&#x22;" horiz-adv-x="737" 
d="M480 911l-55 604h273l-55 -604h-163zM94 911l-55 604h273l-55 -604h-163z" />
    <glyph glyph-name="numbersign" unicode="#" horiz-adv-x="1147" 
d="M489 833l-32 -234h187l32 234h-187zM576 1439l-58 -412h186l58 412h206l-58 -412h165l-9 -194h-184l-33 -234h165l-9 -194h-183l-58 -406h-206l58 406h-186l-58 -406h-206l58 406h-165l9 194h183l33 234h-164l9 194h183l58 412h206z" />
    <glyph glyph-name="dollar" unicode="$" horiz-adv-x="1147" 
d="M589 1260q-62 0 -101.5 -38t-39.5 -100t42 -99q42 -36 161 -75q203 -66 289 -166t87 -280q0 -180 -127 -302q-77 -75 -184 -104v-272h-258v265q-124 27 -216 113q-122 116 -123 284l1 24h269q2 -81 51.5 -129t131.5 -48t133.5 52.5t51.5 126.5t-44 112t-171 78
q-197 64 -281 157q-83 93 -83 259t113 277q73 70 167 98v265h258v-270q84 -24 147 -83q111 -103 119 -268h-257q-20 123 -136 123z" />
    <glyph glyph-name="percent" unicode="%" horiz-adv-x="1761" 
d="M1318 485q-59 0 -96.5 -40.5t-37.5 -102.5t37.5 -102t96.5 -40t97 40t38 102t-38 102.5t-97 40.5zM1318 -28q-162 0 -266 104t-104 266t104 266.5t266 104.5t266.5 -104.5t104.5 -266.5t-104.5 -266t-266.5 -104zM465 9l628 1504h204l-628 -1504h-204zM444 1323
q-59 0 -96.5 -40.5t-37.5 -102.5t37.5 -102t96.5 -40t97 40t38 102t-38 102.5t-97 40.5zM444 810q-162 0 -266 104t-104 266t104 266.5t266 104.5t266.5 -104.5t104.5 -266.5t-104.5 -266t-266.5 -104z" />
    <glyph glyph-name="ampersand" unicode="&#x26;" horiz-adv-x="1393" 
d="M746 1158q0 59 -36 95t-93 36t-95 -37q-38 -38 -39 -84q0 -46 39 -96l74 -86q150 68 150 172zM344 440q0 -89 60 -148t139 -59t135 53t98 112l-244 270q-50 -24 -93 -60q-95 -79 -95 -168zM1355 894q-23 -22 -254 -464l261 -286l-197 -174l-201 222q-176 -222 -388 -222
q-213 0 -359.5 140t-146.5 340q0 167 111 293q71 80 176 131l-60 83q-72 111 -72 203q0 160 113.5 272.5t275.5 112.5t275.5 -109.5t113.5 -265.5q0 -241 -238 -370l144 -160l84 149q67 118 67 105h295zM1356 894q0 1 -1 0h1z" />
    <glyph glyph-name="quotesingle" unicode="'" horiz-adv-x="451" 
d="M145 911l-55 604h273l-55 -604h-163z" />
    <glyph glyph-name="parenleft" unicode="(" horiz-adv-x="778" 
d="M152 613q0 307 164 578t401 356v-298q-124 -87 -202.5 -265t-78.5 -372t78.5 -371.5t202.5 -264.5v-298q-237 84 -401 356t-164 579z" />
    <glyph glyph-name="parenright" unicode=")" horiz-adv-x="778" 
d="M641.5 611.5q-0.5 -306.5 -164.5 -577.5t-401 -356v298q124 87 202.5 264.5t78.5 371.5t-78.5 372t-202.5 265v298q238 -85 402 -357t163.5 -578.5z" />
    <glyph glyph-name="asterisk" unicode="*" horiz-adv-x="901" 
d="M665 1475l-115 -181l213 10l-1 -136l-210 10l116 -175l-118 -70l-99 188l-97 -190l-119 68l115 181l-213 -10l1 136l210 -10l-116 175l118 70l99 -188l97 190z" />
    <glyph glyph-name="plus" unicode="+" horiz-adv-x="1229" 
d="M491 392h-393v246h393v393h246v-393h393v-246h-393v-393h-246v393z" />
    <glyph glyph-name="comma" unicode="," horiz-adv-x="573" 
d="M150 0v271h271v-286q0 -128 -69 -198t-201 -76v138q89 14 111 60q14 30 9 91h-121z" />
    <glyph glyph-name="hyphen" unicode="-" horiz-adv-x="860" 
d="M145 711h570v-241h-570v241z" />
    <glyph glyph-name="period" unicode="." horiz-adv-x="573" 
d="M150 272h274v-272h-274v272z" />
    <glyph glyph-name="slash" unicode="/" horiz-adv-x="942" 
d="M930 1515l-643 -1715h-275l643 1715h275z" />
    <glyph glyph-name="zero" unicode="0" horiz-adv-x="1147" 
d="M575 224q109 0 170.5 68.5t61.5 189.5v551q0 121 -61.5 189.5t-170.5 68.5t-170.5 -68.5t-61.5 -189.5v-551q0 -121 61.5 -189.5t170.5 -68.5zM575 -30q-222 0 -365.5 144t-143.5 367v551q0 224 144 368.5t366 144.5t365 -144.5t143 -368.5v-551q0 -223 -143.5 -367
t-365.5 -144z" />
    <glyph glyph-name="one" unicode="1" horiz-adv-x="1147" 
d="M470 0v1253h-189v261h461v-1514h-272z" />
    <glyph glyph-name="two" unicode="2" horiz-adv-x="1147" 
d="M1070 1030q0 -176 -134 -334q-105 -123 -464 -438h598v-258h-977v258q489 445 599 570t110 230t-64 167t-168 62t-164 -77.5t-60 -214.5h-272q0 251 141 400.5t364 149.5t357 -144t134 -371z" />
    <glyph glyph-name="three" unicode="3" horiz-adv-x="1147" 
d="M813 470q0 112 -72.5 182.5t-186.5 70.5h-84v258h64q86 -1 131 41t45 116t-35 111.5t-97 37.5t-98 -37t-40 -99h-275q5 172 119 283t290 111t294.5 -114t118.5 -287t-128 -276q47 -22 85 -56q146 -122 146 -312q0 -231 -145.5 -380.5t-367.5 -149.5t-362.5 133
t-157.5 355h275q32 -232 243 -232q112 0 175 66t63 178z" />
    <glyph glyph-name="four" unicode="4" horiz-adv-x="1147" 
d="M687 227h-656v212l691 1076h237v-1030h157v-258h-157v-227h-272v227z" />
    <glyph glyph-name="five" unicode="5" horiz-adv-x="1147" 
d="M604 1020q214 0 353 -142t139 -372q0 -229 -148 -382.5t-366 -153.5t-368 137.5t-163 341.5h275q9 -93 75.5 -158t152.5 -65q124 0 194.5 74t70.5 200t-70.5 195t-194.5 69q-53 0 -107 -30.5t-84 -78.5l-245 67l146 793h686v-258h-482l-50 -270q87 33 186 33z" />
    <glyph glyph-name="six" unicode="6" horiz-adv-x="1147" 
d="M571 754q-109 0 -181 -73t-71 -185q0 -112 72.5 -192t180.5 -80t178.5 75t70.5 191t-70.5 190t-179.5 74zM1098 502q0 -217 -152 -374.5t-378 -157.5t-373.5 153t-147.5 389q0 104 39.5 198.5t158.5 275.5l346 527h320l-335 -511q36 7 76 6q185 0 315.5 -144.5
t130.5 -361.5z" />
    <glyph glyph-name="seven" unicode="7" horiz-adv-x="1147" 
d="M127 1257v258h893v-265l-547 -1250h-302l566 1250l3 7h-613z" />
    <glyph glyph-name="eight" unicode="8" horiz-adv-x="1147" 
d="M572.5 696q-97.5 0 -162.5 -67t-65 -169t65 -169t163 -67t163.5 67t65.5 169t-66 168q-66 68 -163.5 68zM411.5 1125q0.5 -71 46.5 -118t116 -47t116 47t46 118t-46 118.5t-116 47.5t-116.5 -47.5t-46 -118.5zM1079 458q0 -208 -145.5 -348t-360.5 -140t-360 140
t-145 340t145 330q39 35 84 61l-23 20q-120 109 -120 278t121 287.5t299 118.5t298.5 -118.5t120.5 -287.5t-121 -278l-23 -20q230 -136 230 -383z" />
    <glyph glyph-name="nine" unicode="9" horiz-adv-x="1147" 
d="M828 1018q0 112 -73 192t-181 80t-178 -75t-70 -191t70.5 -190t179.5 -74t181 73q71 73 71 185zM495 506q-185 0 -315.5 144.5t-130.5 361.5t151.5 374.5t373.5 157.5t374 -151.5t152 -371.5q0 -116 -39.5 -215t-158.5 -280l-346 -527h-320l337 513q-39 -6 -78 -6z" />
    <glyph glyph-name="colon" unicode=":" horiz-adv-x="573" 
d="M150 1136h274v-272h-274v272zM150 272h274v-272h-274v272z" />
    <glyph glyph-name="semicolon" unicode=";" horiz-adv-x="573" 
d="M150 1136h274v-272h-274v272zM150 0v271h271v-286q0 -128 -69 -198t-201 -76v138q89 14 111 60q14 30 9 91h-121z" />
    <glyph glyph-name="less" unicode="&#x3c;" horiz-adv-x="1229" 
d="M94 419v192l1041 434v-232l-717 -297l717 -299v-232z" />
    <glyph glyph-name="equal" unicode="=" horiz-adv-x="1229" 
d="M98 867h1032v-246h-1032v246zM98 410h1032v-246h-1032v246z" />
    <glyph glyph-name="greater" unicode="&#x3e;" horiz-adv-x="1229" 
d="M1135 611v-192l-1041 -434v232l717 299l-717 297v232z" />
    <glyph glyph-name="question" unicode="?" horiz-adv-x="1147" 
d="M395 272h274v-272h-274v272zM542 1274q-84 0 -133.5 -50.5t-56.5 -147.5h-274q10 214 137 341.5t329 127.5t332 -129.5t130 -333.5q0 -109 -47 -191.5t-145 -166.5t-121.5 -144t-23.5 -195h-274q0 183 38.5 281t140.5 182t131 127t29 117t-54 128t-138 54z" />
    <glyph glyph-name="at" unicode="@" horiz-adv-x="1516" 
d="M838 946q-102 0 -179 -90t-77 -223q-1 -85 45.5 -135.5t122.5 -50.5t145.5 72t98.5 178t-12.5 177.5t-143.5 71.5zM1055 277q-102 0 -130 114q-104 -114 -213 -114q-138 0 -223 91.5t-85 241.5q1 213 128.5 363t309.5 150q148 0 212 -127l5 -10l29 107h177l-131 -481
q-21 -71 -23 -120t15 -49q103 0 177.5 113.5t74.5 271.5q0 205 -149.5 346t-366.5 141q-257 0 -421.5 -172.5t-164.5 -435.5t167 -425.5t430 -162.5q128 0 249 50.5t192 133.5h157q-116 -160 -271.5 -243t-337.5 -83q-320 0 -540 214.5t-220 525.5t217 525.5t518 214.5
t499.5 -171.5t198.5 -410.5t-146.5 -418.5t-333.5 -179.5z" />
    <glyph glyph-name="A" unicode="A" horiz-adv-x="1516" 
d="M648 1515h218l634 -1515h-307l-151 391h-572l-147 -391h-309z" />
    <glyph glyph-name="B" unicode="B" horiz-adv-x="1188" 
d="M571 261q277 -1 277 201t-298 202h-127v-403h148zM523 925q236 0 236 164.5t-236 164.5h-100v-329h100zM871 827q258 -113 258 -375q0 -202 -152 -327t-406 -125h-428v1515h380q236 0 376.5 -107t140.5 -283t-141 -279z" />
    <glyph glyph-name="C" unicode="C" horiz-adv-x="1597" 
d="M852 -30q-325 0 -553.5 230t-228.5 558t228.5 557.5t553.5 229.5q239 0 433.5 -125.5t282.5 -336.5h-319q-71 92 -181.5 146.5t-225.5 54.5q-200 0 -345.5 -152.5t-145.5 -370.5t148.5 -374t362.5 -156q106 0 209 52.5t171 140.5h319q-86 -207 -279 -330.5t-430 -123.5z
" />
    <glyph glyph-name="D" unicode="D" horiz-adv-x="1434" 
d="M409 261h98q267 0 412.5 129.5t145.5 367.5t-154 367t-437 129h-65v-993zM129 0v1515h345q407 0 639.5 -198.5t232.5 -551.5t-224 -559t-615 -206h-378z" />
    <glyph glyph-name="E" unicode="E" horiz-adv-x="1065" 
d="M125 0v1515h815v-261h-535v-373h510v-261h-510v-359h535v-261h-815z" />
    <glyph glyph-name="F" unicode="F" horiz-adv-x="983" 
d="M125 0v1515h772v-261h-492v-373h468v-261h-468v-620h-280z" />
    <glyph glyph-name="G" unicode="G" horiz-adv-x="1720" 
d="M870 -30q-338 0 -576.5 230t-238.5 558t235 557.5t568 229.5q248 0 450 -129t292 -346h-338q-62 98 -171 156t-231 58q-219 0 -371.5 -153t-152.5 -373t153.5 -373.5t372.5 -153.5t364 151q57 61 93 130h-632v261h986v-16q0 -327 -234 -557t-568 -230h-1z" />
    <glyph glyph-name="H" unicode="H" horiz-adv-x="1393" 
d="M145 0v1515h280v-617h545v617h280v-1515h-280v637h-545v-637h-280z" />
    <glyph glyph-name="I" unicode="I" horiz-adv-x="573" 
d="M147 0v1515h280v-1515h-280z" />
    <glyph glyph-name="J" unicode="J" horiz-adv-x="983" 
d="M558 1515h280v-1062q0 -231 -109 -357t-293 -126t-297 105t-135 281h284q6 -57 43 -91t101 -34t95 52t31 170v1062z" />
    <glyph glyph-name="K" unicode="K" horiz-adv-x="1270" 
d="M462 0h-280v1515h280v-669l480 669h328l-575 -745l575 -770h-329l-479 668v-668z" />
    <glyph glyph-name="L" unicode="L" horiz-adv-x="901" 
d="M147 0v1515h280v-1254h464v-261h-744z" />
    <glyph glyph-name="M" unicode="M" horiz-adv-x="1843" 
d="M409 0h-280v1515h195l599 -1151l400 1151h391v-1515h-280v1150l-400 -1150h-224l-401 1147v-1147z" />
    <glyph glyph-name="N" unicode="N" horiz-adv-x="1516" 
d="M423 0h-280v1515h161l791 -1107v1107h280v-1515h-154l-798 1116v-1116z" />
    <glyph glyph-name="O" unicode="O" horiz-adv-x="1720" 
d="M860 231q214 0 362.5 153.5t148.5 373.5t-148.5 373t-362.5 153t-362.5 -153t-148.5 -373t148.5 -373.5t362.5 -153.5zM860 -30q-330 0 -561 230t-231 558t231 557.5t561 229.5t561 -229.5t231 -557.5t-231 -558t-561 -230z" />
    <glyph glyph-name="P" unicode="P" horiz-adv-x="1147" 
d="M549 837q286 0 286 208.5t-286 208.5h-122v-417h122zM147 0v1515h402q270 0 418.5 -118.5t148.5 -346.5t-143 -351t-424 -123h-122v-576h-280z" />
    <glyph glyph-name="Q" unicode="Q" horiz-adv-x="1720" 
d="M1066 274q-266 211 -478 211q-102 0 -158 -18q27 -43 66 -83q148 -153 362 -153q113 0 208 43zM858 1284q-214 0 -362.5 -153t-148.5 -374l1 -38q93 26 204 26q188 0 349 -67.5t332 -218.5l30 -26q107 138 106 324q0 221 -148.5 374t-362.5 153zM858 -30
q-329 0 -560.5 230t-231.5 558t231 557.5t561 229.5t561 -230t231 -558q0 -274 -163 -481q94 -47 177 -47l20 -5v-259l-59 4q-134 0 -329 130q-191 -129 -438 -129z" />
    <glyph glyph-name="R" unicode="R" horiz-adv-x="1188" 
d="M554 788q307 0 307 233t-307 233h-143v-466h143zM1142 1048q0 -402 -395 -489l410 -559h-331l-415 605v-605h-280v1515h444q270 0 418.5 -122.5t148.5 -344.5z" />
    <glyph glyph-name="S" unicode="S" horiz-adv-x="1065" 
d="M319 432q23 -201 207 -201q90 0 148.5 53t58.5 141q-1 87 -57 139t-239 114t-268 162t-85 280t125 302.5t313 122.5t316.5 -123.5t137.5 -307.5h-288q-18 170 -168 170q-70 0 -114.5 -44t-44.5 -114q1 -70 45 -110t172 -84q234 -80 333 -189t99 -305t-138 -332t-348 -136
t-346.5 128t-152.5 334h294z" />
    <glyph glyph-name="T" unicode="T" horiz-adv-x="860" 
d="M294 0v1254h-282v261h844v-261h-282v-1254h-280z" />
    <glyph glyph-name="U" unicode="U" horiz-adv-x="1311" 
d="M393 554q1 -323 263 -323t262 323v961h280v-948q0 -287 -141 -442t-401 -155t-401.5 155t-141.5 442v948h280v-961z" />
    <glyph glyph-name="V" unicode="V" horiz-adv-x="1434" 
d="M1129 1515h295l-591 -1515h-225l-592 1515h147l557 -1157z" />
    <glyph glyph-name="W" unicode="W" horiz-adv-x="1843" 
d="M1556 1515h285l-438 -1515h-112l-364 1015l-249 -1015h-225l-439 1515h142l414 -1068l253 1068h104l359 -1068z" />
    <glyph glyph-name="X" unicode="X" horiz-adv-x="1393" 
d="M8 1515h323l368 -529l369 529h317l-524 -763l524 -752h-323l-362 520l-356 -520h-336l529 756z" />
    <glyph glyph-name="Y" unicode="Y" horiz-adv-x="1270" 
d="M775 0h-280v564l-498 951h304l336 -704l332 704h304l-498 -951v-564z" />
    <glyph glyph-name="Z" unicode="Z" horiz-adv-x="1024" 
d="M72 1254v261h879v-235l-583 -1019h617v-261h-946v235l583 1019h-550z" />
    <glyph glyph-name="bracketleft" unicode="[" horiz-adv-x="655" 
d="M135 921q0 251 102.5 394.5t343.5 229.5v-298q-96 -43 -129 -119.5t-33 -252.5v-546q0 -162 34 -236.5t128 -116.5v-298q-241 86 -344 241.5t-102 434.5v567z" />
    <glyph glyph-name="backslash" unicode="\" horiz-adv-x="1311" 
d="M839 -200l-642 1715h275l642 -1715h-275z" />
    <glyph glyph-name="bracketright" unicode="]" horiz-adv-x="655" 
d="M520 302q0 -252 -109.5 -405t-336.5 -219v298q95 43 132 125t37 247v546q0 152 -38 231.5t-131 121.5v298q228 -51 337.5 -216.5t108.5 -459.5v-567z" />
    <glyph glyph-name="asciicircum" unicode="^" horiz-adv-x="1229" 
d="M505 1514h218l356 -747h-246l-219 508l-218 -508h-246z" />
    <glyph glyph-name="underscore" unicode="_" horiz-adv-x="1024" 
d="M0 -258v103h1024v-103h-1024z" />
    <glyph glyph-name="grave" unicode="`" horiz-adv-x="860" 
d="M566 1282l-464 255l119 209l453 -276z" />
    <glyph glyph-name="a" unicode="a" horiz-adv-x="1352" 
d="M664 927q-143 0 -239 -103.5t-96 -255.5t96.5 -255.5t238.5 -103.5t238.5 103t96.5 256t-96 256t-239 103zM55 567q0 252 165 429.5t396 177.5t389 -163v125h251v-1136h-251v124q-160 -162 -390 -162t-395 176.5t-165 428.5z" />
    <glyph glyph-name="b" unicode="b" horiz-adv-x="1352" 
d="M352.5 568q-0.5 -153 95.5 -256t238 -103t238.5 103.5t96.5 255.5t-96 255.5t-238 103.5t-238 -103t-96.5 -256zM96 1515h273v-478q156 137 376 137t385 -177.5t165 -429.5t-165 -428.5t-394 -176.5t-389 158v-120h-251v1515z" />
    <glyph glyph-name="c" unicode="c" horiz-adv-x="1311" 
d="M350 570q0 -150 97 -254.5t240 -104.5q79 0 147.5 43t105.5 116h304q-57 -186 -211.5 -297t-355.5 -111q-250 0 -425.5 176.5t-175.5 428.5t175.5 429.5t425.5 177.5q203 0 359 -112.5t214 -300.5h-304q-80 164 -272 164q-135 0 -229.5 -102.5t-94.5 -252.5z" />
    <glyph glyph-name="d" unicode="d" horiz-adv-x="1352" 
d="M676 927q-142 0 -237 -103.5t-95 -255.5t95 -255.5t237 -103.5t237.5 103t95.5 256t-95.5 256t-237.5 103zM628 -38q-228 0 -393 176.5t-165 428.5t171 429.5t414 177.5q195 -2 338 -129v470h273v-1515h-251v123q-159 -161 -387 -161z" />
    <glyph glyph-name="e" unicode="e" horiz-adv-x="1311" 
d="M656 925q-136 0 -228 -103q-59 -68 -82 -157h619q-20 90 -81 157q-92 103 -228 103zM656 -38q-246 0 -419.5 176.5t-173.5 428.5t173.5 429.5t419.5 177.5t420 -177.5t174 -429.5q0 -61 -10 -120h-886q23 -74 77 -134q93 -102 232 -102q86 0 157.5 40t105.5 107h288
q-55 -181 -207 -288.5t-351 -107.5z" />
    <glyph glyph-name="f" unicode="f" horiz-adv-x="573" 
d="M401 896v-896h-273v896h-97v240h97q8 183 108 296t282 113l55 -1v-265h-14q-84 0 -121 -33t-37 -107v-3h161v-240h-161z" />
    <glyph glyph-name="g" unicode="g" horiz-adv-x="1352" 
d="M671 927q-141 0 -236 -103.5t-95 -255.5t95 -255.5t235 -103.5t236 103t96 256t-95 256t-236 103zM663 -214q161 0 255 102t106 248q-168 -174 -399 -174t-395 176.5t-164 428.5t164 429.5t394 177.5t388 -165v127h264v-923q0 -306 -170.5 -491t-452.5 -185
q-204 0 -357.5 102.5t-205.5 273.5h317q29 -58 98.5 -92.5t157.5 -34.5z" />
    <glyph glyph-name="h" unicode="h" horiz-adv-x="1229" 
d="M619 926q-235 0 -235 -328v-598h-273v1515h273v-459q127 120 296 118q201 0 319.5 -136t118.5 -368v-670h-273v610q0 155 -57.5 235.5t-168.5 80.5z" />
    <glyph glyph-name="i" unicode="i" horiz-adv-x="492" 
d="M109 1515h272v-250h-272v250zM109 0v1136h273v-1136h-273z" />
    <glyph glyph-name="j" unicode="j" horiz-adv-x="532" 
d="M147 1515h272v-250h-272v250zM146 1136h273v-1069q-1 -225 -103 -331t-283 -118v272q64 0 88.5 37t24.5 140v1069z" />
    <glyph glyph-name="k" unicode="k" horiz-adv-x="1188" 
d="M437 0h-273v1515h273v-921l366 542h317l-423 -549l473 -587h-328l-405 542v-542z" />
    <glyph glyph-name="l" unicode="l" horiz-adv-x="492" 
d="M111 0v1515h273v-1515h-273z" />
    <glyph glyph-name="m" unicode="m" horiz-adv-x="1925" 
d="M549 926q-165 0 -165 -328v-598h-273v1136h254v-94q125 132 305 132t306 -144l20 -24l22 24q133 144 343 144t332.5 -131t122.5 -355v-688h-273v643q0 139 -55.5 211t-161.5 72q-225 0 -225 -328v-598h-273v612q0 154 -57 234t-222 80z" />
    <glyph glyph-name="n" unicode="n" horiz-adv-x="1229" 
d="M620 926q-236 0 -236 -328v-598h-273v1136h254v-98q132 136 325 136t311.5 -136.5t118.5 -368.5v-669h-273v608q0 156 -58 237t-169 81z" />
    <glyph glyph-name="o" unicode="o" horiz-adv-x="1311" 
d="M656 211q140 0 235 102t95 254t-95 255t-235 103t-235.5 -103t-95.5 -255t95.5 -254t235.5 -102zM656 -38q-252 0 -428.5 176.5t-176.5 428.5t176.5 429.5t428.5 177.5t428 -177.5t176 -429.5t-176 -428.5t-428 -176.5z" />
    <glyph glyph-name="p" unicode="p" horiz-adv-x="1352" 
d="M684 209q140 0 235.5 103.5t95.5 255.5t-95 255.5t-236 103.5t-236 -103t-95 -256t95.5 -256t235.5 -103zM96 1136h251v-120q160 158 387 158t391 -177.5t164 -429.5t-164 -428.5t-383 -176.5t-373 135v-476h-273v1515z" />
    <glyph glyph-name="q" unicode="q" horiz-adv-x="1352" 
d="M668 927q-141 0 -236 -103.5t-95 -255.5t95.5 -255.5t235.5 -103.5t235.5 103t95.5 256t-95 256t-236 103zM612 -38q-220 0 -384.5 176.5t-164.5 428.5t170.5 429.5t412.5 177.5q208 0 359 -151v113h251v-1515h-273v480q-151 -139 -371 -139z" />
    <glyph glyph-name="r" unicode="r" horiz-adv-x="655" 
d="M129 0v1136h254v-86l13 18q76 106 235 106h18v-260q-115 -8 -181 -65t-66 -191v-658h-273z" />
    <glyph glyph-name="s" unicode="s" horiz-adv-x="901" 
d="M457 925q-47 0 -76.5 -27t-29.5 -69t37 -67t142 -57q180 -55 256 -137t76 -236t-113 -262t-291 -108t-294.5 109.5t-124.5 286.5h280q24 -147 145 -147q56 0 92 31t36 82t-33 80t-127 58q-188 58 -270 140t-82 226q0 146 108 246t266 100t264.5 -99t115.5 -246h-267
q-20 96 -110 96z" />
    <glyph glyph-name="t" unicode="t" horiz-adv-x="614" 
d="M174 0v896h-131v240h131v381h273v-381h165v-240h-165v-896h-273z" />
    <glyph glyph-name="u" unicode="u" horiz-adv-x="1229" 
d="M603 210q238 0 238 328v598h273v-1136h-254v101q-128 -139 -324 -139t-315 136.5t-119 369.5v668h273v-607q0 -156 58 -237.5t170 -81.5z" />
    <glyph glyph-name="v" unicode="v" horiz-adv-x="1147" 
d="M850 1136h289l-459 -1136h-216l-458 1136h144l423 -784z" />
    <glyph glyph-name="w" unicode="w" horiz-adv-x="1638" 
d="M1331 1136h284l-407 -1136h-86l-303 738l-217 -738h-172l-407 1136h142l364 -714l182 714h108l290 -714z" />
    <glyph glyph-name="x" unicode="x" horiz-adv-x="1147" 
d="M49 1136h316l205 -353l206 353h315l-361 -550l409 -586h-322l-244 395l-246 -395h-321l405 582z" />
    <glyph glyph-name="y" unicode="y" horiz-adv-x="1188" 
d="M510 -383h-289l211 484l-416 1035h308l259 -742l278 742h309z" />
    <glyph glyph-name="z" unicode="z" horiz-adv-x="942" 
d="M97 886v250h777v-246l-518 -640h549v-250h-864v246l515 640h-459z" />
    <glyph glyph-name="braceleft" unicode="{" horiz-adv-x="696" 
d="M649 -390q-279 0 -367 70t-88 267l1 31v306q3 85 -51 135t-149 50v202q95 0 149 50t51 135v306l-1 31q0 197 88 267t367 70v-180q-112 0 -144.5 -26.5t-29.5 -117.5v-306l1 -31q0 -189 -83 -248q-48 -34 -162 -50q114 -19 162 -52q83 -59 83 -248l-1 -31v-306
q-3 -91 29.5 -117.5t144.5 -26.5v-180z" />
    <glyph glyph-name="bar" unicode="|" horiz-adv-x="1229" 
d="M477 -513v2049h273v-2049h-273z" />
    <glyph glyph-name="braceright" unicode="}" horiz-adv-x="696" 
d="M47 -390v180q112 0 144.5 26.5t29.5 117.5v306l-1 31q0 189 83 248q48 33 162 52q-114 16 -162 50q-83 59 -83 248l1 31v306q3 91 -29.5 117.5t-144.5 26.5v180q279 0 367 -70t88 -267l-1 -31v-306q-3 -85 51 -135t149 -50v-202q-95 0 -149 -50t-51 -135v-306l1 -31
q0 -197 -88 -267t-367 -70z" />
    <glyph glyph-name="asciitilde" unicode="~" horiz-adv-x="1229" 
d="M394 706q124 0 252 -70q127 -70 182 -71q55 0 106.5 41t81.5 100l75 -197q-42 -76 -115.5 -128.5t-133.5 -52.5t-122 22.5t-132 61.5t-109 48.5t-89 9.5t-102 -42.5t-76 -103.5l-75 197q35 78 111 131.5t146 53.5z" />
    <glyph glyph-name="uni00A0" unicode="&#xa0;" horiz-adv-x="573" 
 />
    <glyph glyph-name="exclamdown" unicode="&#xa1;" horiz-adv-x="573" 
d="M426 873h-274v263h274v-263zM424 747v-1126h-271v1126h271z" />
    <glyph glyph-name="cent" unicode="&#xa2;" horiz-adv-x="1147" 
d="M458 1464h259v-209q93 -24 170 -83q130 -99 172 -265h-286q-15 35 -75 65.5t-115 30.5q-92 0 -156.5 -64.5t-64.5 -158.5t66.5 -160t164.5 -66q44 0 96.5 25.5t68.5 54.5h301q-54 -158 -184 -252q-73 -53 -158 -77v-225h-259v222q-126 32 -226 130q-144 144 -144 348
t145 348q100 98 225 129v207z" />
    <glyph glyph-name="sterling" unicode="&#xa3;" horiz-adv-x="1147" 
d="M565 1287q-88 0 -150 -72.5t-62 -175.5q0 -62 30 -121l11 -22h439v-259h-228l26 -48q48 -102 48 -217q0 -54 -32 -114h27q118 0 170.5 86t16.5 220h274q56 -235 -83 -399.5t-393 -164.5h-582v258h292q31 61 31 125q1 130 -101 235l-19 19h-283v259h107q-27 74 -27 145
q0 210 142.5 357t334.5 147t334 -126t164 -305h-275q-71 173 -212 173z" />
    <glyph glyph-name="currency" unicode="&#xa4;" horiz-adv-x="1147" 
d="M1014 664q0 -130 -63 -234l143 -143l-143 -143l-144 144q-101 -66 -233 -65t-234 63l-142 -142l-143 143l142 142q-62 103 -62 235t63 233l-143 143l143 143l144 -144q102 63 232 63t234 -62l143 143l143 -143l-144 -144q64 -102 64 -232zM761 663q0 79 -54 133t-133 54
t-133 -54t-54 -133t54 -133t133 -54t133 54t54 133z" />
    <glyph glyph-name="yen" unicode="&#xa5;" horiz-adv-x="1147" 
d="M83 786v216h171l-273 513h277l317 -604l318 604h273l-274 -513h174v-216h-289l-67 -125v-62h356v-216h-356v-383h-271v383h-356v216h356v56l-70 131h-286z" />
    <glyph glyph-name="brokenbar" unicode="&#xa6;" horiz-adv-x="1229" 
d="M477 681v683h273v-683h-273zM477 -342v683h273v-683h-273z" />
    <glyph glyph-name="section" unicode="&#xa7;" horiz-adv-x="1147" 
d="M315 727q0 -44 42.5 -81t157.5 -93l223 -110l21 13q69 47 69 114q0 44 -36.5 78t-135.5 82l-154 75q-60 29 -107 60q-80 -58 -80 -138zM598 1545q183 0 292.5 -100t123.5 -282h-248q-13 65 -57.5 100t-113.5 35t-113 -32t-44 -79t32.5 -75.5t139.5 -81.5l154 -75
q185 -91 253.5 -171t68.5 -216t-145 -242l-21 -14l25 -28q80 -98 80 -244t-125.5 -252.5t-321.5 -106.5t-320 113t-140 319h256q7 -88 63 -136.5t144 -48.5t137 38t49 91t-42.5 90.5t-157.5 93.5l-165 80q-198 97 -271.5 181t-73.5 213q0 159 145 271l33 24q-55 90 -55 219
t118 223t300 93z" />
    <glyph glyph-name="dieresis" unicode="&#xa8;" horiz-adv-x="1024" 
d="M590 1575h274v-272h-274v272zM160 1575h274v-272h-274v272z" />
    <glyph glyph-name="copyright" unicode="&#xa9;" horiz-adv-x="1516" 
d="M1355 758q0 254 -173 429t-424 175t-424 -175t-173 -429q-1 -254 173 -429t424 -175t424 175t173 429zM758 1540q328 0 555 -227t227 -555t-226 -555t-556 -227t-556 227t-226 555t227 555t555 227zM770 444q160 0 210 159h181q-21 -137 -133 -225t-265 -89
q-191 0 -315 132t-123 336q-1 205 123 337t315 132q157 0 269 -86t133 -224h-188q-49 155 -207 155q-114 -1 -186 -87t-73 -226q0 -140 70 -228q70 -86 189 -86z" />
    <glyph glyph-name="ordfeminine" unicode="&#xaa;" horiz-adv-x="737" 
d="M365 1372q-63 0 -103 -42.5t-40 -108.5t40 -108t103 -42t103.5 42.5t40.5 108.5t-40.5 108t-103.5 42zM39 1219q0 132 92.5 230.5t208.5 98.5t165 -76v55h179v-609h-179v48q-49 -67 -169 -68t-208.5 94t-88.5 227z" />
    <glyph glyph-name="guillemotleft" unicode="&#xab;" horiz-adv-x="942" 
d="M531 491v202l288 268v-248l-137 -121l137 -121v-248zM125 491v202l288 268v-248l-137 -121l137 -121v-248z" />
    <glyph glyph-name="logicalnot" unicode="&#xac;" horiz-adv-x="1229" 
d="M884 622h-786v246h1032v-650h-246v404z" />
    <glyph glyph-name="uni00AD" unicode="&#xad;" horiz-adv-x="860" 
d="M145 711h570v-241h-570v241z" />
    <glyph glyph-name="registered" unicode="&#xae;" horiz-adv-x="1516" 
d="M1360 758q0 254 -174 430t-428 176t-428 -176t-174 -430t175 -430t427 -176t427 176t175 430zM758 1540q328 0 555 -227t227 -555t-226 -555t-556 -227t-556 227t-226 555t227 555t555 227zM600 803h199q64 1 99 33t35 92t-35 93t-99 33h-199v-251zM799 1199
q314 0 314 -230q0 -128 -76 -189q-43 -32 -111 -50h7q66 0 113 -54t52 -135l5 -81q7 -131 24 -159h-174q-21 4 -36 187l-4 57q-5 55 -53 85t-132 30h-128v-359h-179v898h378z" />
    <glyph glyph-name="macron" unicode="&#xaf;" horiz-adv-x="1024" 
d="M0 1668v103h1024v-103h-1024z" />
    <glyph glyph-name="degree" unicode="&#xb0;" horiz-adv-x="819" 
d="M553 1166q0 64 -42 108.5t-102 44.5t-101.5 -44.5t-41.5 -108.5t41.5 -108t101.5 -44t102 44t42 108zM409 1459q123 0 208 -85t85 -208t-85 -207.5t-208 -84.5t-207.5 84.5t-84.5 207.5t84.5 208t207.5 85z" />
    <glyph glyph-name="plusminus" unicode="&#xb1;" horiz-adv-x="1229" 
d="M98 115h1032v-246h-1032v246zM491 572h-393v246h393v316h246v-316h393v-246h-393v-316h-246v316z" />
    <glyph glyph-name="uni00B2" unicode="&#xb2;" horiz-adv-x="688" 
d="M345 1359q-119 0 -119 -165h-199q0 155 85.5 248t222.5 93t230 -84t93 -207q0 -124 -72 -210t-263 -252h335v-176h-619v165q294 269 360 341t66 126t-33.5 87.5t-86.5 33.5z" />
    <glyph glyph-name="uni00B3" unicode="&#xb3;" horiz-adv-x="688" 
d="M306 1203q102 0 102 82q0 74 -70 74q-55 0 -59 -75h-194q3 109 75.5 180t184.5 71t187 -69t75 -170t-74 -165q25 -12 47 -31q92 -76 92 -204t-92.5 -219t-233.5 -91t-230 82.5t-100 221.5h196q16 -124 129 -124q63 0 98.5 35t35.5 95t-40.5 97.5t-104.5 37.5h-59v172h35z
" />
    <glyph glyph-name="acute" unicode="&#xb4;" horiz-adv-x="860" 
d="M186 1470l458 266l117 -212l-472 -242z" />
    <glyph glyph-name="mu" unicode="&#xb5;" horiz-adv-x="1180" 
d="M351 1136v-583q0 -168 57.5 -255.5t165.5 -87.5t182.5 69t74.5 169v688h273v-1136l-270 102q-112 -139 -271 -140q-109 0 -188 79l-24 27l1 -448h-273l-1 721v795h273z" />
    <glyph glyph-name="paragraph" unicode="&#xb6;" horiz-adv-x="1229" 
d="M-13 1122q0 193 132.5 293t387.5 100h735v-209h-158v-1518h-231v1518h-203v-1518h-231v941q-211 2 -321.5 101t-110.5 292z" />
    <glyph glyph-name="periodcentered" unicode="&#xb7;" horiz-adv-x="573" 
d="M150 893h274v-272h-274v272z" />
    <glyph glyph-name="cedilla" unicode="&#xb8;" horiz-adv-x="696" 
d="M406 -411q43 0 69 27t26 71t-27.5 73t-63.5 29q-76 0 -94 -46l-99 39l99 230l103 -14l-48 -108l51 2q84 0 137 -58t53 -148t-58 -145t-144 -55t-144.5 51t-64.5 128h109q19 -76 96 -76z" />
    <glyph glyph-name="uni00B9" unicode="&#xb9;" horiz-adv-x="688" 
d="M261 606v735h-114v174h311v-909h-197z" />
    <glyph glyph-name="ordmasculine" unicode="&#xba;" horiz-adv-x="737" 
d="M370 1070q59 0 99 43t40 107t-40 108t-99 44t-98.5 -44t-39.5 -108t39.5 -107t98.5 -43zM369 897q-134 0 -228 94.5t-94 228.5t94 229.5t228 95.5t228.5 -95.5t94.5 -229.5t-94.5 -228.5t-228.5 -94.5z" />
    <glyph glyph-name="guillemotright" unicode="&#xbb;" horiz-adv-x="942" 
d="M819 693v-202l-288 -268v248l137 121l-137 121v248zM413 693v-202l-288 -268v248l137 121l-137 121v248z" />
    <glyph glyph-name="onequarter" unicode="&#xbc;" horiz-adv-x="1720" 
d="M1246 1515l-625 -1515h-203l625 1515h203zM302 606v735h-114v174h311v-909h-197zM1244 132h-406v153l428 624h161v-609h100v-168h-100v-132h-183v132z" />
    <glyph glyph-name="onehalf" unicode="&#xbd;" horiz-adv-x="1720" 
d="M1173 1515l-625 -1515h-203l625 1515h203zM241 606v735h-114v174h311v-909h-197zM1266 753q-119 0 -119 -165h-199q0 155 86 248t222 93q137 0 230 -84t93 -207q1 -124 -71 -210t-264 -252h335v-176h-619v165q294 269 360 341t66 126t-34 88t-86 33z" />
    <glyph glyph-name="threequarters" unicode="&#xbe;" horiz-adv-x="1720" 
d="M1317 1515l-625 -1515h-203l625 1515h203zM327 1203q102 0 102 82q0 74 -70 74q-55 0 -59 -75h-194q4 109 76 180t184 71t187 -69t75 -170t-74 -165q25 -12 47 -31q92 -76 92 -204q-1 -128 -93 -219t-233 -91t-230 82t-100 222h196q16 -124 129 -124q62 0 98 35t36 95
t-40 98t-105 37h-59v172h35zM1361 132h-406v153l428 624h161v-609h100v-168h-100v-132h-183v132z" />
    <glyph glyph-name="questiondown" unicode="&#xbf;" horiz-adv-x="1147" 
d="M750 864h-274v272h274v-272zM604 -138q84 0 133 50.5t56 147.5h274q-10 -214 -136.5 -341.5t-328.5 -127.5t-332.5 129.5t-130.5 333.5q0 109 46.5 191.5t144.5 166.5t122 144t24 195h274q0 -183 -38.5 -281t-140.5 -182t-131 -127t-29 -117t54.5 -128t138.5 -54z" />
    <glyph glyph-name="Agrave" unicode="&#xc0;" horiz-adv-x="1516" 
d="M648 1515h218l634 -1515h-307l-151 391h-572l-147 -391h-309zM895 1630l-464 255l119 209l453 -276z" />
    <glyph glyph-name="Aacute" unicode="&#xc1;" horiz-adv-x="1516" 
d="M648 1515h218l634 -1515h-307l-151 391h-572l-147 -391h-309zM516 1818l458 266l117 -212l-472 -242z" />
    <glyph glyph-name="Acircumflex" unicode="&#xc2;" horiz-adv-x="1516" 
d="M648 1515h218l634 -1515h-307l-151 391h-572l-147 -391h-309zM649 1934h216l301 -283h-296l-113 131l-113 -131h-296z" />
    <glyph glyph-name="Atilde" unicode="&#xc3;" horiz-adv-x="1516" 
d="M648 1515h218l634 -1515h-307l-151 391h-572l-147 -391h-309zM467 1892q69 26 131 27t153 -29q91 -29 133 -30q93 0 161 51l114 -162q-41 -43 -109 -71t-116 -28t-155 28t-176 28q-70 0 -139 -43l-109 165q43 38 112 64z" />
    <glyph glyph-name="Adieresis" unicode="&#xc4;" horiz-adv-x="1516" 
d="M648 1515h218l634 -1515h-307l-151 391h-572l-147 -391h-309zM835 1923h274v-272h-274v272zM405 1923h274v-272h-274v272z" />
    <glyph glyph-name="Aring" unicode="&#xc5;" horiz-adv-x="1516" 
d="M648 1515h218l634 -1515h-307l-151 391h-572l-147 -391h-309zM757 1683q35 0 59 24t24 59t-24 59t-59 24t-59 -24t-24 -59t24 -59t59 -24zM757 1546q-92 0 -156 64t-64 156t64 156t156 64t156 -64t64 -156t-64 -156t-156 -64z" />
    <glyph glyph-name="AE" unicode="&#xc6;" horiz-adv-x="1843" 
d="M958 652v403l-243 -403h243zM958 0v391h-400l-236 -391h-331l1003 1515h693v-261h-447v-373h425v-261h-425v-359h447v-261h-729z" />
    <glyph glyph-name="Ccedilla" unicode="&#xc7;" horiz-adv-x="1597" 
d="M837 -411q43 0 69 27t26 71t-27 73t-63 29q-76 0 -95 -46l-99 39l84 196q-250 35 -434 222q-228 230 -228 558t228 557q228 230 554 230q240 1 434 -125t282 -337h-319q-71 93 -181 147t-226 54q-200 0 -346 -152t-145 -371q1 -218 149 -374t362 -156q106 1 209 53
t171 140h319q-86 -206 -279 -330t-430 -124h-14l-36 -80l51 2q84 0 137 -58t53 -148q1 -90 -57 -144q-58 -56 -144 -56t-146 51q-58 51 -64 128h109q19 -76 96 -76z" />
    <glyph glyph-name="Egrave" unicode="&#xc8;" horiz-adv-x="1065" 
d="M125 0v1515h815v-261h-535v-373h510v-261h-510v-359h535v-261h-815zM679 1630l-464 255l119 209l453 -276z" />
    <glyph glyph-name="Eacute" unicode="&#xc9;" horiz-adv-x="1065" 
d="M125 0v1515h815v-261h-535v-373h510v-261h-510v-359h535v-261h-815zM300 1818l458 266l117 -212l-472 -242z" />
    <glyph glyph-name="Ecircumflex" unicode="&#xca;" horiz-adv-x="1065" 
d="M125 0v1515h815v-261h-535v-373h510v-261h-510v-359h535v-261h-815zM433 1934h216l301 -283h-296l-113 131l-113 -131h-296z" />
    <glyph glyph-name="Edieresis" unicode="&#xcb;" horiz-adv-x="1065" 
d="M125 0v1515h815v-261h-535v-373h510v-261h-510v-359h535v-261h-815zM619 1923h274v-272h-274v272zM189 1923h274v-272h-274v272z" />
    <glyph glyph-name="Igrave" unicode="&#xcc;" horiz-adv-x="573" 
d="M140 0v1515h280v-1515h-280zM373 1630l-464 255l119 209l453 -276z" />
    <glyph glyph-name="Iacute" unicode="&#xcd;" horiz-adv-x="573" 
d="M150 0v1515h280v-1515h-280zM94 1818l458 266l117 -212l-472 -242z" />
    <glyph glyph-name="Icircumflex" unicode="&#xce;" horiz-adv-x="573" 
d="M149 0v1515h280v-1515h-280zM181 1934h216l301 -283h-296l-113 131l-113 -131h-296z" />
    <glyph glyph-name="Idieresis" unicode="&#xcf;" horiz-adv-x="573" 
d="M147 0v1515h280v-1515h-280zM365 1923h274v-272h-274v272zM-65 1923h274v-272h-274v272z" />
    <glyph glyph-name="Eth" unicode="&#xd0;" horiz-adv-x="1520" 
d="M485 1254v-350h273v-263h-273v-380h58q284 0 438.5 129.5t154.5 367.5t-163 367t-462 129h-26zM205 0v641h-154v263h154v611h305q423 0 665 -198.5t242 -551.5t-233 -559t-641 -206h-338z" />
    <glyph glyph-name="Ntilde" unicode="&#xd1;" horiz-adv-x="1516" 
d="M423 0h-280v1515h161l791 -1107v1107h280v-1515h-154l-798 1116v-1116zM469 1892q69 26 131 27t153 -29t133 -30q93 0 161 51l114 -162q-41 -43 -109 -71t-116 -28t-155 28t-176 28q-70 0 -139 -43l-109 165q43 38 112 64z" />
    <glyph glyph-name="Ograve" unicode="&#xd2;" horiz-adv-x="1720" 
d="M860 231q214 0 362 153q148 154 149 374q-1 220 -149 373t-362 153t-362 -153t-149 -373q1 -220 149 -374q148 -153 362 -153zM860 -30q-330 0 -560 230q-232 230 -232 558t232 557q232 230 560 230q330 0 561 -230q231 -229 231 -557t-231 -558t-561 -230zM998 1630
l-464 255l119 209l453 -276z" />
    <glyph glyph-name="Oacute" unicode="&#xd3;" horiz-adv-x="1720" 
d="M860 231q214 0 362 153q148 154 149 374q-1 220 -149 373t-362 153t-362 -153t-149 -373q1 -220 149 -374q148 -153 362 -153zM860 -30q-330 0 -560 230q-232 230 -232 558t232 557q232 230 560 230q330 0 561 -230q231 -229 231 -557t-231 -558t-561 -230zM619 1818
l458 266l117 -212l-472 -242z" />
    <glyph glyph-name="Ocircumflex" unicode="&#xd4;" horiz-adv-x="1720" 
d="M860 231q214 0 362 153q148 154 149 374q-1 220 -149 373t-362 153t-362 -153t-149 -373q1 -220 149 -374q148 -153 362 -153zM860 -30q-330 0 -560 230q-232 230 -232 558t232 557q232 230 560 230q330 0 561 -230q231 -229 231 -557t-231 -558t-561 -230zM752 1934h216
l301 -283h-296l-113 131l-113 -131h-296z" />
    <glyph glyph-name="Otilde" unicode="&#xd5;" horiz-adv-x="1720" 
d="M860 231q214 0 362 153q148 154 149 374q-1 220 -149 373t-362 153t-362 -153t-149 -373q1 -220 149 -374q148 -153 362 -153zM860 -30q-330 0 -560 230q-232 230 -232 558t232 557q232 230 560 230q330 0 561 -230q231 -229 231 -557t-231 -558t-561 -230zM570 1892
q69 26 131 27t153 -29t133 -30q93 0 161 51l114 -162q-42 -43 -110 -71t-115 -28q-48 0 -155 28t-176 28q-70 0 -139 -43l-109 165q43 38 112 64z" />
    <glyph glyph-name="Odieresis" unicode="&#xd6;" horiz-adv-x="1720" 
d="M860 231q214 0 362 153q148 154 149 374q-1 220 -149 373t-362 153t-362 -153t-149 -373q1 -220 149 -374q148 -153 362 -153zM860 -30q-330 0 -560 230q-232 230 -232 558t232 557q232 230 560 230q330 0 561 -230q231 -229 231 -557t-231 -558t-561 -230zM938 1923h274
v-272h-274v272zM508 1923h274v-272h-274v272z" />
    <glyph glyph-name="multiply" unicode="&#xd7;" horiz-adv-x="1229" 
d="M614 342l-319 -320l-174 174l320 319l-320 319l174 174l319 -320l319 320l174 -174l-320 -319l320 -319l-174 -174z" />
    <glyph glyph-name="Oslash" unicode="&#xd8;" horiz-adv-x="1720" 
d="M349 757q0 -152 71 -274l732 708q-125 94 -292 93q-214 0 -362.5 -153t-148.5 -374zM860 -30q-278 0 -488 164l-138 -134l-166 143l152 147q-152 202 -152 467q0 328 231.5 558t560.5 230q280 1 487 -165l139 135l166 -143l-152 -147q152 -202 152 -468q0 -327 -231 -557
t-561 -230zM860 231q214 0 362.5 153t148.5 373q-1 154 -71 275l-732 -708q126 -93 292 -93z" />
    <glyph glyph-name="Ugrave" unicode="&#xd9;" horiz-adv-x="1311" 
d="M393 554q1 -323 263 -323t262 323v961h280v-948q0 -287 -140 -442t-402 -155q-260 0 -402 155t-141 442v948h280v-961zM793 1630l-464 255l119 209l453 -276z" />
    <glyph glyph-name="Uacute" unicode="&#xda;" horiz-adv-x="1311" 
d="M393 554q1 -323 263 -323t262 323v961h280v-948q0 -287 -140 -442t-402 -155q-260 0 -402 155t-141 442v948h280v-961zM414 1818l458 266l117 -212l-472 -242z" />
    <glyph glyph-name="Ucircumflex" unicode="&#xdb;" horiz-adv-x="1311" 
d="M393 554q1 -323 263 -323t262 323v961h280v-948q0 -287 -140 -442t-402 -155q-260 0 -402 155t-141 442v948h280v-961zM547 1934h216l301 -283h-296l-113 131l-113 -131h-296z" />
    <glyph glyph-name="Udieresis" unicode="&#xdc;" horiz-adv-x="1311" 
d="M393 554q1 -323 263 -323t262 323v961h280v-948q0 -287 -140 -442t-402 -155q-260 0 -402 155t-141 442v948h280v-961zM733 1923h274v-272h-274v272zM303 1923h274v-272h-274v272z" />
    <glyph glyph-name="Yacute" unicode="&#xdd;" horiz-adv-x="1270" 
d="M775 0h-280v564l-498 951h304l336 -704l332 704h304l-498 -951v-564zM394 1818l458 266l117 -212l-472 -242z" />
    <glyph glyph-name="Thorn" unicode="&#xde;" horiz-adv-x="1147" 
d="M552 554q286 0 286 208t-286 207h-123v-415h123zM147 0v1515h282v-287l122 -1q286 0 425.5 -115.5t139.5 -353.5t-139.5 -354t-425.5 -116l-122 1v-289h-282z" />
    <glyph glyph-name="germandbls" unicode="&#xdf;" horiz-adv-x="1229" 
d="M761 -38q-271 0 -383 150v-112h-274v1088q29 205 150.5 331t301.5 126t313 -116t133 -281q0 -209 -113 -305l-9 -8q92 -25 155 -72q163 -116 163 -358q0 -184 -127.5 -313.5t-309.5 -129.5zM378 389h177q0 -69 56.5 -123.5t130.5 -54.5t128 58t54 140q0 128 -90.5 183
t-308.5 58v239q105 2 154 57t49 172q0 74 -48 126.5t-128 52.5t-122 -53t-52 -182v-673z" />
    <glyph glyph-name="agrave" unicode="&#xe0;" horiz-adv-x="1352" 
d="M664 927q-143 1 -239 -103t-96 -256t96 -256q97 -103 239 -103t238 103t97 256q0 153 -96 256t-239 103zM55 567q0 251 165 429t396 178t389 -163v125h251v-1136h-251v124q-160 -162 -390 -162t-395 176t-165 429zM813 1282l-464 255l119 209l453 -276z" />
    <glyph glyph-name="aacute" unicode="&#xe1;" horiz-adv-x="1352" 
d="M664 927q-143 1 -239 -103t-96 -256t96 -256q97 -103 239 -103t238 103t97 256q0 153 -96 256t-239 103zM55 567q0 251 165 429t396 178t389 -163v125h251v-1136h-251v124q-160 -162 -390 -162t-395 176t-165 429zM439 1470l458 266l117 -212l-472 -242z" />
    <glyph glyph-name="acircumflex" unicode="&#xe2;" horiz-adv-x="1352" 
d="M664 927q-143 1 -239 -103t-96 -256t96 -256q97 -103 239 -103t238 103t97 256q0 153 -96 256t-239 103zM55 567q0 251 165 429t396 178t389 -163v125h251v-1136h-251v124q-160 -162 -390 -162t-395 176t-165 429zM584 1586h216l301 -283h-296l-113 131l-113 -131h-296z
" />
    <glyph glyph-name="atilde" unicode="&#xe3;" horiz-adv-x="1352" 
d="M664 927q-143 1 -239 -103t-96 -256t96 -256q97 -103 239 -103t238 103t97 256q0 153 -96 256t-239 103zM55 567q0 251 165 429t396 178t389 -163v125h251v-1136h-251v124q-160 -162 -390 -162t-395 176t-165 429zM402 1544q69 26 131 27t153 -29t133 -30q93 0 161 51
l114 -162q-42 -43 -110 -71t-115 -28q-48 0 -155 28t-176 28q-70 0 -139 -43l-109 165q43 38 112 64z" />
    <glyph glyph-name="adieresis" unicode="&#xe4;" horiz-adv-x="1352" 
d="M664 927q-143 1 -239 -103t-96 -256t96 -256q97 -103 239 -103t238 103t97 256q0 153 -96 256t-239 103zM55 567q0 251 165 429t396 178t389 -163v125h251v-1136h-251v124q-160 -162 -390 -162t-395 176t-165 429zM770 1575h274v-272h-274v272zM340 1575h274v-272h-274
v272z" />
    <glyph glyph-name="aring" unicode="&#xe5;" horiz-adv-x="1352" 
d="M664 927q-143 1 -239 -103t-96 -256t96 -256q97 -103 239 -103t238 103t97 256q0 153 -96 256t-239 103zM55 567q0 251 165 429t396 178t389 -163v125h251v-1136h-251v124q-160 -162 -390 -162t-395 176t-165 429zM679 1405q35 0 59 24t24 59t-24 59t-59 24t-59 -24
t-24 -59t24 -59t59 -24zM679 1268q-92 0 -156 64t-64 156t64 156t156 64t156 -64t64 -156t-64 -156t-156 -64z" />
    <glyph glyph-name="ae" unicode="&#xe6;" horiz-adv-x="2212" 
d="M1566 925q-141 0 -234 -103q-60 -68 -82 -157h626q-19 94 -80 161q-89 99 -230 99zM659 927q-139 0 -232.5 -103t-93.5 -255t93.5 -254t231.5 -102t232.5 102.5t94.5 254.5t-93.5 254.5t-232.5 102.5zM991 1136h251v-104q147 142 363 142t378.5 -177.5t162.5 -429.5
q0 -62 -9 -120h-880q23 -74 78 -134q95 -102 235 -102q87 0 158.5 40t105.5 107h279q-52 -169 -205.5 -282.5t-337.5 -113.5t-328 139v-101h-251v100q-135 -138 -364 -138t-398.5 176.5t-170 428t169.5 429.5t400 178t363 -138v100z" />
    <glyph glyph-name="ccedilla" unicode="&#xe7;" horiz-adv-x="1311" 
d="M350 570q0 -150 97 -254t240 -105q79 0 147 43t106 116h304q-58 -186 -212 -297t-355 -111h-2l-32 -72l51 2q84 0 137 -58t53 -148t-58 -144q-58 -56 -144 -56t-144 51t-65 128h109q19 -76 96 -76q43 0 69 27t26 71t-27 73q-28 29 -64 29q-76 0 -94 -46l-99 39l81 189
q-182 29 -318 167q-176 176 -176 429q0 251 176 429t425 178q203 0 359 -112t214 -301h-304q-80 164 -272 164q-136 0 -230 -102q-94 -103 -94 -253z" />
    <glyph glyph-name="egrave" unicode="&#xe8;" horiz-adv-x="1311" 
d="M656 925q-136 0 -228 -103q-59 -68 -82 -157h619q-20 90 -81 157q-92 103 -228 103zM656 -38q-246 0 -420 176t-173 429q-1 251 173 429t420 178t420 -178t174 -429q0 -61 -10 -120h-886q23 -74 77 -134q93 -102 232 -102q85 0 157 40t106 107h288q-55 -180 -207 -288
t-351 -108zM801 1282l-464 255l119 209l453 -276z" />
    <glyph glyph-name="eacute" unicode="&#xe9;" horiz-adv-x="1311" 
d="M656 925q-136 0 -228 -103q-59 -68 -82 -157h619q-20 90 -81 157q-92 103 -228 103zM656 -38q-246 0 -420 176t-173 429q-1 251 173 429t420 178t420 -178t174 -429q0 -61 -10 -120h-886q23 -74 77 -134q93 -102 232 -102q85 0 157 40t106 107h288q-55 -180 -207 -288
t-351 -108zM427 1470l458 266l117 -212l-472 -242z" />
    <glyph glyph-name="ecircumflex" unicode="&#xea;" horiz-adv-x="1311" 
d="M656 925q-136 0 -228 -103q-59 -68 -82 -157h619q-20 90 -81 157q-92 103 -228 103zM656 -38q-246 0 -420 176t-173 429q-1 251 173 429t420 178t420 -178t174 -429q0 -61 -10 -120h-886q23 -74 77 -134q93 -102 232 -102q85 0 157 40t106 107h288q-55 -180 -207 -288
t-351 -108zM572 1586h216l301 -283h-296l-113 131l-113 -131h-296z" />
    <glyph glyph-name="edieresis" unicode="&#xeb;" horiz-adv-x="1311" 
d="M656 925q-136 0 -228 -103q-59 -68 -82 -157h619q-20 90 -81 157q-92 103 -228 103zM656 -38q-246 0 -420 176t-173 429q-1 251 173 429t420 178t420 -178t174 -429q0 -61 -10 -120h-886q23 -74 77 -134q93 -102 232 -102q85 0 157 40t106 107h288q-55 -180 -207 -288
t-351 -108zM758 1575h274v-272h-274v272zM328 1575h274v-272h-274v272z" />
    <glyph glyph-name="igrave" unicode="&#xec;" horiz-adv-x="492" 
d="M75 0v1136h273v-1136h-273zM332 1282l-464 255l119 209l453 -276z" />
    <glyph glyph-name="iacute" unicode="&#xed;" horiz-adv-x="492" 
d="M117 0v1136h273v-1136h-273zM53 1470l458 266l117 -212l-472 -242z" />
    <glyph glyph-name="icircumflex" unicode="&#xee;" horiz-adv-x="492" 
d="M112 0v1136h273v-1136h-273zM140 1586h216l301 -283h-296l-113 131l-113 -131h-296z" />
    <glyph glyph-name="idieresis" unicode="&#xef;" horiz-adv-x="492" 
d="M111 0v1136h273v-1136h-273zM325 1575h274v-272h-274v272zM-105 1575h274v-272h-274v272z" />
    <glyph glyph-name="eth" unicode="&#xf0;" horiz-adv-x="1311" 
d="M329.5 568q-0.5 -152 94 -254.5t234.5 -102.5t235 102.5t95 254.5t-95 255t-235 103t-234 -103t-94.5 -255zM1262 618q0 -282 -172 -469t-427 -187t-431.5 177t-176.5 429t176.5 429.5t426.5 177.5q60 0 115 -10q-70 49 -145 96l-306 -90l-182 116l284 83q-93 48 -198 90
l311 85q98 -41 184 -89l284 83l160 -121l-269 -79q366 -297 366 -721z" />
    <glyph glyph-name="ntilde" unicode="&#xf1;" horiz-adv-x="1229" 
d="M620 926q-236 0 -236 -328v-598h-273v1136h254v-98q132 136 325 136q194 0 312 -136t118 -369v-669h-273v608q0 156 -58 237t-169 81zM325 1544q69 26 131 27t153 -29t133 -30q93 0 161 51l114 -162q-41 -43 -109 -71t-116 -28t-155 28t-176 28q-70 0 -139 -43l-109 165
q43 38 112 64z" />
    <glyph glyph-name="ograve" unicode="&#xf2;" horiz-adv-x="1311" 
d="M656 211q140 0 235 102t95 254t-95 255t-235 103t-236 -103q-95 -103 -95 -255t95 -254q96 -102 236 -102zM656 -38q-252 0 -428 176t-177 429q1 251 177 429t428 178t428 -178t176 -429q0 -253 -176 -429t-428 -176zM776 1282l-464 255l119 209l453 -276z" />
    <glyph glyph-name="oacute" unicode="&#xf3;" horiz-adv-x="1311" 
d="M656 211q140 0 235 102t95 254t-95 255t-235 103t-236 -103q-95 -103 -95 -255t95 -254q96 -102 236 -102zM656 -38q-252 0 -428 176t-177 429q1 251 177 429t428 178t428 -178t176 -429q0 -253 -176 -429t-428 -176zM402 1470l458 266l117 -212l-472 -242z" />
    <glyph glyph-name="ocircumflex" unicode="&#xf4;" horiz-adv-x="1311" 
d="M656 211q140 0 235 102t95 254t-95 255t-235 103t-236 -103q-95 -103 -95 -255t95 -254q96 -102 236 -102zM656 -38q-252 0 -428 176t-177 429q1 251 177 429t428 178t428 -178t176 -429q0 -253 -176 -429t-428 -176zM547 1586h216l301 -283h-296l-113 131l-113 -131
h-296z" />
    <glyph glyph-name="otilde" unicode="&#xf5;" horiz-adv-x="1311" 
d="M656 211q140 0 235 102t95 254t-95 255t-235 103t-236 -103q-95 -103 -95 -255t95 -254q96 -102 236 -102zM656 -38q-252 0 -428 176t-177 429q1 251 177 429t428 178t428 -178t176 -429q0 -253 -176 -429t-428 -176zM365 1544q69 26 131 27t153 -29t133 -30q93 0 161 51
l114 -162q-41 -43 -109 -71t-116 -28t-155 28t-176 28q-70 0 -139 -43l-109 165q43 38 112 64z" />
    <glyph glyph-name="odieresis" unicode="&#xf6;" horiz-adv-x="1311" 
d="M656 211q140 0 235 102t95 254t-95 255t-235 103t-236 -103q-95 -103 -95 -255t95 -254q96 -102 236 -102zM656 -38q-252 0 -428 176t-177 429q1 251 177 429t428 178t428 -178t176 -429q0 -253 -176 -429t-428 -176zM733 1575h274v-272h-274v272zM303 1575h274v-272
h-274v272z" />
    <glyph glyph-name="divide" unicode="&#xf7;" horiz-adv-x="1229" 
d="M490 1074h248v-246h-248v246zM98 638h1032v-246h-1032v246zM490 202h248v-246h-248v246z" />
    <glyph glyph-name="oslash" unicode="&#xf8;" horiz-adv-x="1352" 
d="M660 925q-124 0 -219 -103t-95 -255q1 -90 32 -161l486 460q-80 59 -204 59zM72 567q0 252 176.5 429.5t427.5 177.5q216 0 376 -130l97 92l131 -116l-108 -103q109 -151 109 -350q0 -252 -176.5 -428.5t-410.5 -176.5t-394 129l-97 -91l-131 116l108 102
q-108 152 -108 349zM676 211q141 0 236 102t95 254q0 91 -34 163l-485 -460q81 -59 188 -59z" />
    <glyph glyph-name="ugrave" unicode="&#xf9;" horiz-adv-x="1229" 
d="M603 210q238 0 238 328v598h273v-1136h-254v101q-128 -139 -324 -139t-315 136t-119 370v668h273v-607q0 -155 58 -237t170 -82zM729 1282l-464 255l119 209l453 -276z" />
    <glyph glyph-name="uacute" unicode="&#xfa;" horiz-adv-x="1229" 
d="M603 210q238 0 238 328v598h273v-1136h-254v101q-128 -139 -324 -139t-315 136t-119 370v668h273v-607q0 -155 58 -237t170 -82zM355 1470l458 266l117 -212l-472 -242z" />
    <glyph glyph-name="ucircumflex" unicode="&#xfb;" horiz-adv-x="1229" 
d="M603 210q238 0 238 328v598h273v-1136h-254v101q-128 -139 -324 -139t-315 136t-119 370v668h273v-607q0 -155 58 -237t170 -82zM500 1586h216l301 -283h-296l-113 131l-113 -131h-296z" />
    <glyph glyph-name="udieresis" unicode="&#xfc;" horiz-adv-x="1229" 
d="M603 210q238 0 238 328v598h273v-1136h-254v101q-128 -139 -324 -139t-315 136t-119 370v668h273v-607q0 -155 58 -237t170 -82zM686 1575h274v-272h-274v272zM256 1575h274v-272h-274v272z" />
    <glyph glyph-name="yacute" unicode="&#xfd;" horiz-adv-x="1188" 
d="M510 -383h-289l211 484l-416 1035h308l259 -742l278 742h309zM340 1470l458 266l117 -212l-472 -242z" />
    <glyph glyph-name="thorn" unicode="&#xfe;" horiz-adv-x="1352" 
d="M684 209q140 0 235.5 103.5t95.5 255.5t-95 255.5t-236 103.5t-236 -103t-95 -256t95.5 -256t235.5 -103zM96 1515h273v-499q153 158 378 158t383.5 -177.5t158.5 -429.5t-159.5 -428.5t-385.5 -176.5t-375 144v-485h-273v1894z" />
    <glyph glyph-name="ydieresis" unicode="&#xff;" horiz-adv-x="1188" 
d="M510 -383h-289l211 484l-416 1035h308l259 -742l278 742h309zM671 1575h274v-272h-274v272zM241 1575h274v-272h-274v272z" />
    <glyph glyph-name="Amacron" unicode="&#x100;" horiz-adv-x="1516" 
d="M648 1515h218l634 -1515h-307l-151 391h-572l-147 -391h-309zM427 1889h660v-216h-660v216z" />
    <glyph glyph-name="amacron" unicode="&#x101;" horiz-adv-x="1352" 
d="M664 927q-143 1 -239 -103t-96 -256t96 -256q97 -103 239 -103t238 103t97 256q0 153 -96 256t-239 103zM55 567q0 251 165 429t396 178t389 -163v125h251v-1136h-251v124q-160 -162 -390 -162t-395 176t-165 429zM362 1519h660v-216h-660v216z" />
    <glyph glyph-name="Abreve" unicode="&#x102;" horiz-adv-x="1516" 
d="M648 1515h218l634 -1515h-307l-151 391h-572l-147 -391h-309zM758 1843q62 -1 114 23q53 24 70 59h222q-52 -280 -407 -280q-354 0 -406 280h222q17 -35 70 -59t115 -23z" />
    <glyph glyph-name="abreve" unicode="&#x103;" horiz-adv-x="1352" 
d="M664 927q-143 1 -239 -103t-96 -256t96 -256q97 -103 239 -103t238 103t97 256q0 153 -96 256t-239 103zM55 567q0 251 165 429t396 178t389 -163v125h251v-1136h-251v124q-160 -162 -390 -162t-395 176t-165 429zM692 1495q62 -1 115 23t70 59h222q-52 -280 -407 -280
q-354 0 -406 280h222q17 -35 70 -59q52 -24 114 -23z" />
    <glyph glyph-name="Aogonek" unicode="&#x104;" horiz-adv-x="1516" 
d="M1051 -214q0 132 142 214l-151 391h-572l-147 -391h-309l634 1515h218l634 -1515h-153q-62 -49 -86 -76q-24 -28 -24 -68q-1 -40 29 -65q30 -26 75 -26t83 24v-160q-61 -27 -153 -27q-93 0 -157 54q-63 54 -63 130z" />
    <glyph glyph-name="aogonek" unicode="&#x105;" horiz-adv-x="1352" 
d="M664 927q-143 1 -239 -103t-96 -256t96 -256q97 -103 239 -103t238 103t97 256q0 153 -96 256t-239 103zM1081 -398q-93 0 -157 54q-63 54 -63 130q0 133 144 215v123q-160 -162 -390 -162t-395 176t-165 429q0 251 165 429t396 178t389 -163v125h251v-1136h-99
q-62 -49 -86 -76q-24 -28 -24 -68q-1 -40 29 -65q30 -26 75 -26t83 24v-160q-60 -27 -153 -27z" />
    <glyph glyph-name="Cacute" unicode="&#x106;" horiz-adv-x="1597" 
d="M852 -30q-326 0 -554 230t-228 558t228 557q228 230 554 230q240 1 434 -125t282 -337h-319q-71 93 -181 147t-226 54q-200 0 -346 -152t-145 -371q1 -218 149 -374t362 -156q106 1 209 53t171 140h319q-86 -206 -279 -330t-430 -124zM611 1818l458 266l117 -212
l-472 -242z" />
    <glyph glyph-name="cacute" unicode="&#x107;" horiz-adv-x="1311" 
d="M350 570q0 -150 97 -254t240 -105q79 0 147 43t106 116h304q-58 -186 -212 -297t-355 -111q-249 0 -425 176t-176 429q0 251 176 429t425 178q203 0 359 -112t214 -301h-304q-80 164 -272 164q-136 0 -230 -102q-94 -103 -94 -253zM424 1470l458 266l117 -212l-472 -242z
" />
    <glyph glyph-name="Ccaron" unicode="&#x10c;" horiz-adv-x="1597" 
d="M852 -30q-326 0 -554 230t-228 558t228 557q228 230 554 230q240 1 434 -125t282 -337h-319q-71 93 -181 147t-226 54q-200 0 -346 -152t-145 -371q1 -218 149 -374t362 -156q106 1 209 53t171 140h319q-86 -206 -279 -330t-430 -124zM968 1652h-216l-301 283h296
l113 -131l113 131h296z" />
    <glyph glyph-name="ccaron" unicode="&#x10d;" horiz-adv-x="1311" 
d="M350 570q0 -150 97 -254t240 -105q79 0 147 43t106 116h304q-58 -186 -212 -297t-355 -111q-249 0 -425 176t-176 429q0 251 176 429t425 178q203 0 359 -112t214 -301h-304q-80 164 -272 164q-136 0 -230 -102q-94 -103 -94 -253zM777 1304h-216l-301 283h296l113 -131
l113 131h296z" />
    <glyph glyph-name="Dcaron" unicode="&#x10e;" horiz-adv-x="1434" 
d="M409 261h98q267 -1 413 129t145 368q0 238 -154 366q-154 130 -437 130h-65v-993zM129 0v1515h345q408 -1 640 -199t232 -551t-224 -559t-615 -206h-378zM732 1652h-216l-301 283h296l113 -131l113 131h296z" />
    <glyph glyph-name="dcaron" unicode="&#x10f;" horiz-adv-x="1820" 
d="M666 927q-142 1 -236 -103q-96 -104 -96 -256t95 -256q95 -103 237 -103t237 103q96 103 96 256q1 153 -95 256t-238 103zM618 -38q-228 0 -394 176q-164 176 -164 429q0 251 171 429t414 178q195 -2 338 -129v470h273v-1515h-251v123q-159 -161 -387 -161zM1423 1110
l152 405h196l-154 -405h-194z" />
    <glyph glyph-name="Dcroat" unicode="&#x110;" horiz-adv-x="1520" 
d="M485 1254v-350h273v-263h-273v-380h58q284 0 438.5 129.5t154.5 367.5t-163 367t-462 129h-26zM205 0v641h-154v263h154v611h305q423 0 665 -198.5t242 -551.5t-233 -559t-641 -206h-338z" />
    <glyph glyph-name="dcroat" unicode="&#x111;" horiz-adv-x="1352" 
d="M676 927q-142 0 -237 -103.5t-95 -255.5t95 -255.5t237 -103.5t237.5 103t95.5 256t-95.5 256t-237.5 103zM628 -38q-228 0 -393 176.5t-165 428.5t171 429.5t414 177.5q195 -2 338 -129v156h-385v218h385v96h273v-96h179v-218h-179v-1201h-251v123q-159 -161 -387 -161z
" />
    <glyph glyph-name="Emacron" unicode="&#x112;" horiz-adv-x="1065" 
d="M125 0v1515h815v-261h-535v-373h510v-261h-510v-359h535v-261h-815zM211 1889h660v-216h-660v216z" />
    <glyph glyph-name="emacron" unicode="&#x113;" horiz-adv-x="1311" 
d="M656 925q-136 0 -228 -103q-59 -68 -82 -157h619q-20 90 -81 157q-92 103 -228 103zM656 -38q-246 0 -420 176t-173 429q-1 251 173 429t420 178t420 -178t174 -429q0 -61 -10 -120h-886q23 -74 77 -134q93 -102 232 -102q85 0 157 40t106 107h288q-55 -180 -207 -288
t-351 -108zM350 1519h660v-216h-660v216z" />
    <glyph glyph-name="Edotaccent" unicode="&#x116;" horiz-adv-x="1065" 
d="M125 0v1515h815v-261h-535v-373h510v-261h-510v-359h535v-261h-815zM404 1923h274v-273h-274v273z" />
    <glyph glyph-name="edotaccent" unicode="&#x117;" horiz-adv-x="1311" 
d="M656 925q-136 0 -228 -103q-59 -68 -82 -157h619q-20 90 -81 157q-92 103 -228 103zM656 -38q-246 0 -420 176t-173 429q-1 251 173 429t420 178t420 -178t174 -429q0 -61 -10 -120h-886q23 -74 77 -134q93 -102 232 -102q85 0 157 40t106 107h288q-55 -180 -207 -288
t-351 -108zM543 1575h274v-273h-274v273z" />
    <glyph glyph-name="Eogonek" unicode="&#x118;" horiz-adv-x="1065" 
d="M772 -398q-93 0 -157 54q-63 54 -63 130q0 132 142 214h-569v1515h815v-261h-535v-373h510v-261h-510v-359h535v-261h-92q-62 -49 -86 -76q-24 -28 -24 -68t30 -65q30 -26 74 -26q45 0 83 24v-160q-60 -27 -153 -27z" />
    <glyph glyph-name="eogonek" unicode="&#x119;" horiz-adv-x="1311" 
d="M656 925q-136 0 -228 -103q-59 -68 -82 -157h619q-20 90 -81 157q-92 103 -228 103zM537 -201q0 89 89 164q-227 10 -395 181t-168 423q-1 251 173 429t420 178t420 -178t174 -429q0 -61 -10 -120h-886q23 -74 77 -134q93 -102 232 -102q85 0 157 40t106 107h288
q-55 -180 -207 -288q-92 -65 -201 -91q-41 -33 -62 -58t-21 -65q-1 -40 29 -65q30 -26 75 -26t83 24v-160q-61 -27 -153 -27q-93 0 -157 54q-63 54 -63 143z" />
    <glyph glyph-name="Ecaron" unicode="&#x11a;" horiz-adv-x="1065" 
d="M125 0v1515h815v-261h-535v-373h510v-261h-510v-359h535v-261h-815zM657 1652h-216l-301 283h296l113 -131l113 131h296z" />
    <glyph glyph-name="ecaron" unicode="&#x11b;" horiz-adv-x="1311" 
d="M656 925q-136 0 -228 -103q-59 -68 -82 -157h619q-20 90 -81 157q-92 103 -228 103zM656 -38q-246 0 -420 176t-173 429q-1 251 173 429t420 178t420 -178t174 -429q0 -61 -10 -120h-886q23 -74 77 -134q93 -102 232 -102q85 0 157 40t106 107h288q-55 -180 -207 -288
t-351 -108zM780 1304h-216l-301 283h296l113 -131l113 131h296z" />
    <glyph glyph-name="Gbreve" unicode="&#x11e;" horiz-adv-x="1720" 
d="M870 -30q-338 0 -576 230t-239 558q0 328 235 557q235 230 568 230q248 0 450 -129t292 -346h-338q-62 98 -171 156t-231 58q-220 0 -372 -153t-152 -373t154 -374q154 -153 372 -153q219 0 364 151q57 61 93 130h-632v261h986v-16q0 -327 -234 -557t-568 -230h-1z
M858 1843q62 -1 115 23t70 59h222q-53 -280 -407 -280t-406 280h222q17 -35 70 -59q52 -24 114 -23z" />
    <glyph glyph-name="gbreve" unicode="&#x11f;" horiz-adv-x="1352" 
d="M671 927q-141 1 -236 -103t-95 -256t95 -256q95 -103 235 -103t236 103t96 256t-95 256t-236 103zM663 -214q161 0 255 102t106 248q-168 -174 -399 -174t-395 176t-164 429q0 251 164 429t394 178t388 -165v127h264v-923q0 -306 -170 -491t-453 -185q-203 1 -357 103
t-206 273h317q29 -59 99 -93t157 -34zM628 1495q62 -1 114 23q53 24 70 59h222q-52 -280 -406 -280t-407 280h222q17 -35 70 -59t115 -23z" />
    <glyph glyph-name="uni0122" unicode="&#x122;" horiz-adv-x="1720" 
d="M870 -30q-338 0 -576 230t-239 558q0 328 235 557q235 230 568 230q248 0 450 -129t292 -346h-338q-62 98 -171 156t-231 58q-220 0 -372 -153t-152 -373t154 -374q154 -153 372 -153q219 0 364 151q57 61 93 130h-632v261h986v-16q0 -327 -234 -557t-568 -230h-1z
M600 -572l152 405h235l-154 -405h-233z" />
    <glyph glyph-name="uni0123" unicode="&#x123;" horiz-adv-x="1352" 
d="M671 927q-141 1 -236 -103t-95 -256t95 -256q95 -103 235 -103t236 103t96 256t-95 256t-236 103zM663 -214q161 0 255 102t106 248q-168 -174 -399 -174t-395 176t-164 429q0 251 164 429t394 178t388 -165v127h264v-923q0 -306 -170 -491t-453 -185q-203 1 -357 103
t-206 273h317q29 -59 99 -93t157 -34zM836 1708l-152 -405h-196l154 405h194z" />
    <glyph glyph-name="Imacron" unicode="&#x12a;" horiz-adv-x="573" 
d="M145 0v1515h280v-1515h-280zM-45 1889h660v-216h-660v216z" />
    <glyph glyph-name="imacron" unicode="&#x12b;" horiz-adv-x="491" 
d="M114 0v1136h273v-1136h-273zM-80 1519h660v-216h-660v216z" />
    <glyph glyph-name="Iogonek" unicode="&#x12e;" horiz-adv-x="573" 
d="M278 -398q-93 0 -157 54q-63 54 -63 130q0 132 142 214h-57v1515h280v-1515h-69q-62 -49 -86 -76q-24 -28 -24 -68t30 -65q30 -26 74 -26q45 0 83 24v-160q-60 -27 -153 -27z" />
    <glyph glyph-name="iogonek" unicode="&#x12f;" horiz-adv-x="491" 
d="M114 1515h272v-250h-272v250zM35 -214q0 132 142 214h-63v1136h273v-1136h-56q-62 -49 -86 -76q-24 -28 -24 -68q-1 -40 29 -65q30 -26 75 -26t83 24v-160q-61 -27 -153 -27q-93 0 -157 54q-63 54 -63 130z" />
    <glyph glyph-name="Idotaccent" unicode="&#x130;" horiz-adv-x="573" 
d="M147 0v1515h280v-1515h-280zM150 1923h274v-273h-274v273z" />
    <glyph glyph-name="dotlessi" unicode="&#x131;" horiz-adv-x="492" 
d="M109 0v1136h273v-1136h-273z" />
    <glyph glyph-name="uni0136" unicode="&#x136;" horiz-adv-x="1270" 
d="M462 0h-280v1515h280v-669l480 669h328l-575 -745l575 -770h-329l-479 668v-668zM431 -572l152 405h235l-154 -405h-233z" />
    <glyph glyph-name="uni0137" unicode="&#x137;" horiz-adv-x="1188" 
d="M437 0h-273v1515h273v-921l366 542h317l-423 -549l473 -587h-328l-405 542v-542zM369 -572l152 405h235l-154 -405h-233z" />
    <glyph glyph-name="Lacute" unicode="&#x139;" horiz-adv-x="901" 
d="M159 0v1515h280v-1254h464v-261h-744zM58 1818l458 266l117 -212l-472 -242z" />
    <glyph glyph-name="lacute" unicode="&#x13a;" horiz-adv-x="491" 
d="M114 0v1515h273v-1515h-273zM9 1818l458 266l117 -212l-472 -242z" />
    <glyph glyph-name="uni013B" unicode="&#x13b;" horiz-adv-x="901" 
d="M147 0v1515h280v-1254h464v-261h-744zM249 -572l152 405h235l-154 -405h-233z" />
    <glyph glyph-name="uni013C" unicode="&#x13c;" horiz-adv-x="491" 
d="M143 0v1515h273v-1515h-273zM9 -572l152 405h235l-154 -405h-233z" />
    <glyph glyph-name="Lcaron" unicode="&#x13d;" horiz-adv-x="941" 
d="M148 0v1515h280v-1254h464v-261h-744zM595 1110l152 405h196l-154 -405h-194z" />
    <glyph glyph-name="lcaron" unicode="&#x13e;" horiz-adv-x="950" 
d="M109 0v1515h273v-1515h-273zM548 1110l152 405h196l-154 -405h-194z" />
    <glyph glyph-name="Lslash" unicode="&#x141;" horiz-adv-x="983" 
d="M199 0v564l-146 -97v281l146 98v669h280v-482l264 176v-281l-264 -176v-491h464v-261h-744z" />
    <glyph glyph-name="lslash" unicode="&#x142;" horiz-adv-x="655" 
d="M200 0v527l-130 -85v289l130 85v699h273v-520l152 100v-289l-152 -100v-706h-273z" />
    <glyph glyph-name="Nacute" unicode="&#x143;" horiz-adv-x="1516" 
d="M423 0h-280v1515h161l791 -1107v1107h280v-1515h-154l-798 1116v-1116zM518 1818l458 266l117 -212l-472 -242z" />
    <glyph glyph-name="nacute" unicode="&#x144;" horiz-adv-x="1229" 
d="M620 926q-236 0 -236 -328v-598h-273v1136h254v-98q132 136 325 136q194 0 312 -136t118 -369v-669h-273v608q0 156 -58 237t-169 81zM362 1470l458 266l117 -212l-472 -242z" />
    <glyph glyph-name="uni0145" unicode="&#x145;" horiz-adv-x="1516" 
d="M423 0h-280v1515h161l791 -1107v1107h280v-1515h-154l-798 1116v-1116zM489 -572l152 405h235l-154 -405h-233z" />
    <glyph glyph-name="uni0146" unicode="&#x146;" horiz-adv-x="1229" 
d="M620 926q-236 0 -236 -328v-598h-273v1136h254v-98q132 136 325 136q194 0 312 -136t118 -369v-669h-273v608q0 156 -58 237t-169 81zM345 -572l152 405h235l-154 -405h-233z" />
    <glyph glyph-name="Ncaron" unicode="&#x147;" horiz-adv-x="1516" 
d="M423 0h-280v1515h161l791 -1107v1107h280v-1515h-154l-798 1116v-1116zM875 1652h-216l-301 283h296l113 -131l113 131h296z" />
    <glyph glyph-name="ncaron" unicode="&#x148;" horiz-adv-x="1229" 
d="M620 926q-236 0 -236 -328v-598h-273v1136h254v-98q132 136 325 136q194 0 312 -136t118 -369v-669h-273v608q0 156 -58 237t-169 81zM715 1304h-216l-301 283h296l113 -131l113 131h296z" />
    <glyph glyph-name="Omacron" unicode="&#x14c;" horiz-adv-x="1720" 
d="M860 231q214 0 362 153q148 154 149 374q-1 220 -149 373t-362 153t-362 -153t-149 -373q1 -220 149 -374q148 -153 362 -153zM860 -30q-330 0 -560 230q-232 230 -232 558t232 557q232 230 560 230q330 0 561 -230q231 -229 231 -557t-231 -558t-561 -230zM530 1889h660
v-216h-660v216z" />
    <glyph glyph-name="omacron" unicode="&#x14d;" horiz-adv-x="1311" 
d="M656 211q140 0 235 102t95 254t-95 255t-235 103t-236 -103q-95 -103 -95 -255t95 -254q96 -102 236 -102zM656 -38q-252 0 -428 176t-177 429q1 251 177 429t428 178t428 -178t176 -429q0 -253 -176 -429t-428 -176zM325 1519h660v-216h-660v216z" />
    <glyph glyph-name="Ohungarumlaut" unicode="&#x150;" horiz-adv-x="1720" 
d="M860 231q214 0 362 153q148 154 149 374q-1 220 -149 373t-362 153t-362 -153t-149 -373q1 -220 149 -374q148 -153 362 -153zM860 -30q-330 0 -560 230q-232 230 -232 558t232 557q232 230 560 230q330 0 561 -230q231 -229 231 -557t-231 -558t-561 -230zM967 1738
l370 373l153 -158l-387 -355zM510 1738l370 373l153 -158l-387 -355z" />
    <glyph glyph-name="ohungarumlaut" unicode="&#x151;" horiz-adv-x="1311" 
d="M656 211q140 0 235 102t95 254t-95 255t-235 103t-236 -103q-95 -103 -95 -255t95 -254q96 -102 236 -102zM656 -38q-252 0 -428 176t-177 429q1 251 177 429t428 178t428 -178t176 -429q0 -253 -176 -429t-428 -176zM755 1390l370 373l153 -158l-387 -355zM298 1390
l370 373l153 -158l-387 -355z" />
    <glyph glyph-name="OE" unicode="&#x152;" horiz-adv-x="2171" 
d="M849 1284q-204 0 -348 -153t-144 -373t144 -373.5t348 -153.5t350 155.5t146 370.5t-146 371t-350 156zM845 1545q277 0 488 -184v154h729v-261h-447v-373h425v-261h-425v-359h447v-261h-729v152q-208 -183 -488 -182q-319 0 -544 230t-225 558t225 557.5t544 229.5z" />
    <glyph glyph-name="oe" unicode="&#x153;" horiz-adv-x="2212" 
d="M1561 925q-138 0 -232 -103q-61 -66 -82 -157h628q-21 90 -83 157q-93 103 -231 103zM664 925q-140 0 -234.5 -103t-94.5 -255t94.5 -254t234.5 -102t234.5 102t94 254t-94.5 255t-234 103zM650 1174q245 0 417 -178q23 -23 43 -49l37 41q181 186 419 186t411.5 -177.5
t173.5 -429.5q0 -61 -10 -120h-890q23 -78 77 -138q91 -98 239 -98q85 0 155.5 40t104.5 107h288q-55 -181 -207 -288.5t-362 -107.5t-397 189l-36 39l-46 -52q-172 -176 -417 -176t-417 176.5t-172 428t172 429.5t417 178z" />
    <glyph glyph-name="Racute" unicode="&#x154;" horiz-adv-x="1188" 
d="M554 788q307 0 307 233t-307 233h-143v-466h143zM1142 1048q0 -402 -395 -489l410 -559h-331l-415 605v-605h-280v1515h444q271 -1 419 -123t148 -344zM345 1818l458 266l117 -212l-472 -242z" />
    <glyph glyph-name="racute" unicode="&#x155;" horiz-adv-x="655" 
d="M129 0v1136h254v-86l13 18q76 106 235 106h18v-260q-115 -8 -181 -65t-66 -191v-658h-273zM136 1470l458 266l117 -212l-472 -242z" />
    <glyph glyph-name="uni0156" unicode="&#x156;" horiz-adv-x="1188" 
d="M554 788q307 0 307 233t-307 233h-143v-466h143zM1142 1048q0 -402 -395 -489l410 -559h-331l-415 605v-605h-280v1515h444q271 -1 419 -123t148 -344zM381 -572l152 405h235l-154 -405h-233z" />
    <glyph glyph-name="uni0157" unicode="&#x157;" horiz-adv-x="655" 
d="M138 0v1136h254v-86l13 18q76 106 235 106h18v-260q-115 -8 -181 -65t-66 -191v-658h-273zM4 -572l152 405h235l-154 -405h-233z" />
    <glyph glyph-name="Rcaron" unicode="&#x158;" horiz-adv-x="1188" 
d="M554 788q307 0 307 233t-307 233h-143v-466h143zM1142 1048q0 -402 -395 -489l410 -559h-331l-415 605v-605h-280v1515h444q271 -1 419 -123t148 -344zM702 1652h-216l-301 283h296l113 -131l113 131h296z" />
    <glyph glyph-name="rcaron" unicode="&#x159;" horiz-adv-x="655" 
d="M123 0v1136h254v-86l13 18q76 106 235 106h18v-260q-115 -8 -181 -65t-66 -191v-658h-273zM483 1304h-216l-301 283h296l113 -131l113 131h296z" />
    <glyph glyph-name="Sacute" unicode="&#x15a;" horiz-adv-x="1065" 
d="M319 432q23 -201 207 -201q90 0 148 53t59 141q-1 87 -57 139t-239 114t-268 163q-85 99 -85 279t125 302t313 123t317 -123q128 -124 137 -308h-288q-18 170 -168 170q-70 0 -114 -44t-45 -114q1 -70 45 -110t172 -84q234 -80 333 -189t99 -305t-138 -332t-348 -136
t-346 128t-153 334h294zM289 1818l458 266l117 -212l-472 -242z" />
    <glyph glyph-name="sacute" unicode="&#x15b;" horiz-adv-x="901" 
d="M457 925q-47 0 -77 -27t-29 -69q0 -42 37 -67t142 -57q180 -55 256 -137t76 -236t-113 -262t-291 -108t-294 110t-125 286h280q24 -147 145 -147q56 0 92 31t36 82t-33 80t-127 58q-188 58 -270 140t-82 226q0 146 108 246t266 100t265 -99q106 -99 115 -246h-267
q-20 96 -110 96zM212 1470l458 266l117 -212l-472 -242z" />
    <glyph glyph-name="Scedilla" unicode="&#x15e;" horiz-adv-x="1065" 
d="M319 432q23 -201 207 -201q90 0 148 53t59 141q-1 87 -57 139t-239 114t-268 163q-85 99 -85 279t125 302t313 123t317 -123q128 -124 137 -308h-288q-18 170 -168 170q-70 0 -114 -44t-45 -114q1 -70 45 -110t172 -84q234 -80 333 -189t99 -305t-138 -332t-354 -136h-14
l-36 -80l51 2q84 0 137 -58t53 -148q1 -90 -57 -144q-58 -56 -144 -56t-146 51q-58 51 -64 128h109q19 -76 96 -76q43 0 69 27t26 71t-27 73t-63 29q-76 0 -95 -46l-99 39l86 200q-128 27 -222 116q-136 128 -153 334h294z" />
    <glyph glyph-name="scedilla" unicode="&#x15f;" horiz-adv-x="901" 
d="M457 925q-47 0 -77 -27t-29 -69q0 -42 37 -67t142 -57q180 -55 256 -137t76 -236t-108 -257q-108 -104 -267 -112l-32 -73l51 2q84 0 137 -58t53 -148t-58 -144q-58 -56 -144 -56t-144 51t-65 128h109q19 -76 96 -76q43 0 69 27t26 71t-27 73q-28 29 -64 29
q-76 0 -94 -46l-99 39l80 186q-127 20 -217 104q-116 110 -125 286h280q24 -147 145 -147q56 0 92 31t36 82t-33 80t-127 58q-188 58 -270 140t-82 226q0 146 108 246t266 100t265 -99q106 -99 115 -246h-267q-20 96 -110 96z" />
    <glyph glyph-name="Scaron" unicode="&#x160;" horiz-adv-x="1065" 
d="M319 432q23 -201 207 -201q90 0 148 53t59 141q-1 87 -57 139t-239 114t-268 163q-85 99 -85 279t125 302t313 123t317 -123q128 -124 137 -308h-288q-18 170 -168 170q-70 0 -114 -44t-45 -114q1 -70 45 -110t172 -84q234 -80 333 -189t99 -305t-138 -332t-348 -136
t-346 128t-153 334h294zM646 1652h-216l-301 283h296l113 -131l113 131h296z" />
    <glyph glyph-name="scaron" unicode="&#x161;" horiz-adv-x="901" 
d="M457 925q-47 0 -77 -27t-29 -69q0 -42 37 -67t142 -57q180 -55 256 -137t76 -236t-113 -262t-291 -108t-294 110t-125 286h280q24 -147 145 -147q56 0 92 31t36 82t-33 80t-127 58q-188 58 -270 140t-82 226q0 146 108 246t266 100t265 -99q106 -99 115 -246h-267
q-20 96 -110 96zM565 1304h-216l-301 283h296l113 -131l113 131h296z" />
    <glyph glyph-name="uni0162" unicode="&#x162;" horiz-adv-x="860" 
d="M480 -381q43 0 69 27t26 71t-27 73q-28 29 -64 29q-76 0 -94 -46l-99 39l81 188h-78v1254h-282v261h844v-261h-282v-1254h-93l-36 -80l51 2q84 0 137 -58t53 -148t-58 -144q-58 -56 -144 -56t-144 51t-65 128h109q19 -76 96 -76z" />
    <glyph glyph-name="uni0163" unicode="&#x163;" horiz-adv-x="614" 
d="M366 -411q43 0 69 27t26 71t-27 73q-28 29 -64 29q-76 0 -94 -46l-99 39l94 218h-97v896h-131v240h131v381h273v-381h165v-240h-165v-896h-83l15 -2l-48 -108l51 2q84 0 137 -58t53 -148t-58 -144q-58 -56 -144 -56t-144 51t-65 128h109q19 -76 96 -76z" />
    <glyph glyph-name="Tcaron" unicode="&#x164;" horiz-adv-x="860" 
d="M294 0v1254h-282v261h844v-261h-282v-1254h-280zM550 1652h-216l-301 283h296l113 -131l113 131h296z" />
    <glyph glyph-name="tcaron" unicode="&#x165;" horiz-adv-x="1120" 
d="M182 0v896h-131v240h131v381h273v-381h165v-240h-165v-896h-273zM712 1110l152 405h196l-154 -405h-194z" />
    <glyph glyph-name="Umacron" unicode="&#x16a;" horiz-adv-x="1311" 
d="M393 554q1 -323 263 -323t262 323v961h280v-948q0 -287 -140 -442t-402 -155q-260 0 -402 155t-141 442v948h280v-961zM325 1889h660v-216h-660v216z" />
    <glyph glyph-name="umacron" unicode="&#x16b;" horiz-adv-x="1229" 
d="M603 210q238 0 238 328v598h273v-1136h-254v101q-128 -139 -324 -139t-315 136t-119 370v668h273v-607q0 -155 58 -237t170 -82zM278 1519h660v-216h-660v216z" />
    <glyph glyph-name="Uring" unicode="&#x16e;" horiz-adv-x="1311" 
d="M393 554q1 -323 263 -323t262 323v961h280v-948q0 -287 -140 -442t-402 -155q-260 0 -402 155t-141 442v948h280v-961zM655 1683q35 0 59 24t24 59t-24 59t-59 24t-59 -24t-24 -59t24 -59t59 -24zM655 1546q-92 0 -156 64t-64 156t64 156t156 64t156 -64t64 -156
t-64 -156t-156 -64z" />
    <glyph glyph-name="uring" unicode="&#x16f;" horiz-adv-x="1229" 
d="M603 210q238 0 238 328v598h273v-1136h-254v101q-128 -139 -324 -139t-315 136t-119 370v668h273v-607q0 -155 58 -237t170 -82zM595 1405q35 0 59 24t24 59t-24 59t-59 24t-59 -24t-24 -59t24 -59t59 -24zM595 1268q-92 0 -156 64t-64 156t64 156t156 64t156 -64
t64 -156t-64 -156t-156 -64z" />
    <glyph glyph-name="Uhungarumlaut" unicode="&#x170;" horiz-adv-x="1311" 
d="M393 554q1 -323 263 -323t262 323v961h280v-948q0 -287 -140 -442t-402 -155q-260 0 -402 155t-141 442v948h280v-961zM762 1738l370 373l153 -158l-387 -355zM305 1738l370 373l153 -158l-387 -355z" />
    <glyph glyph-name="uhungarumlaut" unicode="&#x171;" horiz-adv-x="1229" 
d="M603 210q238 0 238 328v598h273v-1136h-254v101q-128 -139 -324 -139t-315 136t-119 370v668h273v-607q0 -155 58 -237t170 -82zM708 1390l370 373l153 -158l-387 -355zM251 1390l370 373l153 -158l-387 -355z" />
    <glyph glyph-name="Uogonek" unicode="&#x172;" horiz-adv-x="1311" 
d="M393 554q1 -323 263 -323t262 323v961h280v-948q0 -287 -140 -442q-111 -122 -296 -148q-39 -32 -60 -56q-21 -25 -21 -65q-1 -40 29 -65q30 -26 75 -26t83 24v-160q-61 -27 -153 -27q-93 0 -157 54q-63 54 -63 146t101 170q-217 16 -350 162t-133 433v948h280v-961z" />
    <glyph glyph-name="uogonek" unicode="&#x173;" horiz-adv-x="1229" 
d="M939 -398q-93 0 -157 54q-63 54 -63 130q0 132 142 214h-1v101q-128 -139 -324 -139t-315 136t-119 370v668h273v-607q0 -155 58 -237t170 -82q238 0 238 328v598h273v-1136h-99q-62 -49 -86 -76q-24 -28 -24 -68q-1 -40 29 -65q30 -26 75 -26t83 24v-160
q-60 -27 -153 -27z" />
    <glyph glyph-name="Ydieresis" unicode="&#x178;" horiz-adv-x="1270" 
d="M775 0h-280v564l-498 951h304l336 -704l332 704h304l-498 -951v-564zM713 1923h274v-272h-274v272zM283 1923h274v-272h-274v272z" />
    <glyph glyph-name="Zacute" unicode="&#x179;" horiz-adv-x="1024" 
d="M72 1254v261h879v-235l-583 -1019h617v-261h-946v235l583 1019h-550zM270 1818l458 266l117 -212l-472 -242z" />
    <glyph glyph-name="zacute" unicode="&#x17a;" horiz-adv-x="942" 
d="M97 886v250h777v-246l-518 -640h549v-250h-864v246l515 640h-459zM232 1470l458 266l117 -212l-472 -242z" />
    <glyph glyph-name="Zdotaccent" unicode="&#x17b;" horiz-adv-x="1024" 
d="M72 1254v261h879v-235l-583 -1019h617v-261h-946v235l583 1019h-550zM374 1923h274v-273h-274v273z" />
    <glyph glyph-name="zdotaccent" unicode="&#x17c;" horiz-adv-x="942" 
d="M97 886v250h777v-246l-518 -640h549v-250h-864v246l515 640h-459zM348 1575h274v-273h-274v273z" />
    <glyph glyph-name="Zcaron" unicode="&#x17d;" horiz-adv-x="1024" 
d="M72 1254v261h879v-235l-583 -1019h617v-261h-946v235l583 1019h-550zM627 1652h-216l-301 283h296l113 -131l113 131h296z" />
    <glyph glyph-name="zcaron" unicode="&#x17e;" horiz-adv-x="942" 
d="M97 886v250h777v-246l-518 -640h549v-250h-864v246l515 640h-459zM585 1304h-216l-301 283h296l113 -131l113 131h296z" />
    <glyph glyph-name="florin" unicode="&#x192;" horiz-adv-x="1147" 
d="M102 -309q-55 0 -102 8l42 241l47 -2q123 0 181 69t90 253l122 702h-189l38 240h193l9 48q37 213 151.5 325t295.5 112q35 0 66 -5l-41 -234q-104 -4 -147 -57t-74 -189h187l-38 -240h-192l-141 -812q-42 -247 -157 -353t-341 -106z" />
    <glyph glyph-name="circumflex" unicode="&#x2c6;" horiz-adv-x="1106" 
d="M446 1586h216l301 -283h-296l-113 131l-113 -131h-296z" />
    <glyph glyph-name="caron" unicode="&#x2c7;" horiz-adv-x="1106" 
d="M662 1304h-216l-301 283h296l113 -131l113 131h296z" />
    <glyph glyph-name="uni02C9" unicode="&#x2c9;" horiz-adv-x="860" 
d="M100 1519h660v-216h-660v216z" />
    <glyph glyph-name="breve" unicode="&#x2d8;" horiz-adv-x="983" 
d="M492 1495q62 0 115 23.5t70 58.5h222q-53 -280 -407 -280t-406 280h222q17 -35 69.5 -58.5t114.5 -23.5z" />
    <glyph glyph-name="dotaccent" unicode="&#x2d9;" horiz-adv-x="573" 
d="M151 1575h274v-273h-274v273z" />
    <glyph glyph-name="ring" unicode="&#x2da;" horiz-adv-x="737" 
d="M370 1405q35 0 59 24t24 59t-24 59t-59 24t-59 -24t-24 -59t24 -59t59 -24zM370 1268q-92 0 -156 64t-64 156t64 156t156 64t156 -64t64 -156t-64 -156t-156 -64z" />
    <glyph glyph-name="ogonek" unicode="&#x2db;" horiz-adv-x="696" 
d="M324 -398q-93 0 -157 54q-63 54 -63 130t48.5 135.5t128.5 96.5h142q-82 -62 -107.5 -92t-25.5 -70t29.5 -65.5t74.5 -25.5t83 24v-160q-60 -27 -153 -27z" />
    <glyph glyph-name="tilde" unicode="&#x2dc;" horiz-adv-x="983" 
d="M202 1544.5q69 26.5 131 26.5q62 1 153 -29t133 -30q93 0 161 51l114 -162q-42 -42 -109.5 -70.5t-115.5 -28.5t-155 28t-176 28q-70 0 -139 -43l-109 165q43 38 112 64.5z" />
    <glyph glyph-name="hungarumlaut" unicode="&#x2dd;" horiz-adv-x="1434" 
d="M727 1390l370 373l153 -158l-387 -355zM270 1390l370 373l153 -158l-387 -355z" />
    <glyph glyph-name="pi" unicode="&#x3c0;" horiz-adv-x="1246" 
d="M669 206q0 180 101 599h-148l-116 -652q-18 -105 -45 -141.5t-89 -36.5t-73 45t28 165l211 620h-94q-75 0 -130.5 -31.5t-140.5 -121.5l-61 40q91 160 171.5 213.5t229.5 53.5l338 1q236 0 337 9l-30 -164h-301q-61 -325 14 -660q22 -99 7 -134.5t-78 -35.5
q-131 0 -131 231z" />
    <glyph glyph-name="endash" unicode="&#x2013;" horiz-adv-x="1024" 
d="M72 711h880v-241h-880v241z" />
    <glyph glyph-name="emdash" unicode="&#x2014;" horiz-adv-x="2048" 
d="M72 711h1904v-241h-1904v241z" />
    <glyph glyph-name="quoteleft" unicode="&#x2018;" horiz-adv-x="573" 
d="M419 1225v-273h-272v287q0 129 69 199.5t202 76.5v-138q-90 -14 -112 -60q-15 -30 -9 -92h122z" />
    <glyph glyph-name="quoteright" unicode="&#x2019;" horiz-adv-x="573" 
d="M147 1242v273h272v-287q0 -129 -69 -199.5t-202 -76.5v138q90 14 112 60q15 30 9 92h-122z" />
    <glyph glyph-name="quotesinglbase" unicode="&#x201a;" horiz-adv-x="573" 
d="M147 0v273h272v-287q0 -129 -69 -199.5t-202 -76.5v138q90 14 112 60q15 29 9 92h-122z" />
    <glyph glyph-name="quotedblleft" unicode="&#x201c;" horiz-adv-x="983" 
d="M840 1225v-273h-272v287q0 129 69 199.5t202 76.5v-138q-90 -14 -112 -60q-15 -30 -9 -92h122zM415 1225v-273h-272v287q0 129 69 199.5t202 76.5v-138q-90 -14 -112 -60q-15 -30 -9 -92h122z" />
    <glyph glyph-name="quotedblright" unicode="&#x201d;" horiz-adv-x="983" 
d="M568 1242v273h272v-287q0 -129 -69 -199.5t-202 -76.5v138q90 14 112 60q15 30 9 92h-122zM143 1242v273h272v-287q0 -129 -69 -199.5t-202 -76.5v138q90 14 112 60q15 30 9 92h-122z" />
    <glyph glyph-name="quotedblbase" unicode="&#x201e;" horiz-adv-x="983" 
d="M568 0v273h272v-287q0 -129 -69 -199.5t-202 -76.5v138q90 14 112 60q15 29 9 92h-122zM143 0v273h272v-287q0 -129 -69 -199.5t-202 -76.5v138q90 14 112 60q15 29 9 92h-122z" />
    <glyph glyph-name="dagger" unicode="&#x2020;" horiz-adv-x="1147" 
d="M104 1137h333v378h271v-378h335v-230h-335v-1195h-271v1195h-333v230z" />
    <glyph glyph-name="daggerdbl" unicode="&#x2021;" horiz-adv-x="1147" 
d="M104 1196h336v319h266v-319h337v-228h-337v-605h337v-223h-337v-428h-266v428h-336v223h336v605h-336v228z" />
    <glyph glyph-name="bullet" unicode="&#x2022;" horiz-adv-x="1229" 
d="M615 1090q131 0 221.5 -92.5t90.5 -226.5t-90.5 -226t-221.5 -92t-221.5 92t-90.5 226t90.5 226.5t221.5 92.5z" />
    <glyph glyph-name="ellipsis" unicode="&#x2026;" horiz-adv-x="2048" 
d="M1567 272h274v-272h-274v272zM886 272h274v-272h-274v272zM205 272h274v-272h-274v272z" />
    <glyph glyph-name="perthousand" unicode="&#x2030;" horiz-adv-x="2621" 
d="M2136 485q-58 0 -95 -40.5t-37 -102.5t37 -102t95 -40t95.5 40t37.5 102t-37.5 102.5t-95.5 40.5zM2136 -28q-160 0 -264 104t-104 266t104 266.5t264 104.5t264.5 -104.5t104.5 -266.5t-104.5 -266t-264.5 -104zM1313 485q-58 0 -95 -40.5t-37 -102.5t37 -102t95 -40
t95.5 40t37.5 102t-37.5 102.5t-95.5 40.5zM1314 -28q-160 0 -264.5 104t-104.5 266t104.5 266.5t264.5 104.5t264 -104.5t104 -266.5t-104 -266t-264 -104zM462 9l628 1504h204l-628 -1504h-204zM442 1323q-58 0 -95 -40.5t-37 -102.5t37 -102t95 -40t95.5 40t37.5 102
t-37.5 102.5t-95.5 40.5zM442 810q-160 0 -264 104t-104 266t104 266.5t264 104.5t264.5 -104.5t104.5 -266.5t-104.5 -266t-264.5 -104z" />
    <glyph glyph-name="guilsinglleft" unicode="&#x2039;" horiz-adv-x="492" 
d="M102 491v202l288 268v-248l-137 -121l137 -121v-248z" />
    <glyph glyph-name="guilsinglright" unicode="&#x203a;" horiz-adv-x="492" 
d="M390 693v-202l-288 -268v248l137 121l-137 121v248z" />
    <glyph glyph-name="fraction" unicode="&#x2044;" horiz-adv-x="328" 
d="M577 1515l-625 -1515h-203l625 1515h203z" />
    <glyph glyph-name="uni2074" unicode="&#x2074;" horiz-adv-x="688" 
d="M425 738h-406v153l428 624h161v-609h100v-168h-100v-132h-183v132z" />
    <glyph glyph-name="Euro" unicode="&#x20ac;" horiz-adv-x="1147" 
d="M651 -30q-229 0 -361 210q-74 119 -107 289h-166l34 222h108v116h-142l34 222h130q34 176 112 302q134 214 358 214q191 0 321 -125.5t156 -336.5h-291q-28 207 -183 207q-146 0 -198 -261h326l-34 -222h-314v-39l1 -77h294l-34 -222h-233q60 -244 196 -244
q149 0 173 199h291q-23 -207 -151 -330.5t-320 -123.5z" />
    <glyph glyph-name="trademark" unicode="&#x2122;" horiz-adv-x="2048" 
d="M201 606v737h-183v172h551v-172h-184v-737h-184zM877 606h-193v909h127l372 -656l243 656h255v-909h-193v623l-231 -623h-148l-232 624v-624z" />
    <glyph glyph-name="Omega" unicode="&#x2126;" horiz-adv-x="1246" 
d="M101 952q0 209 149.5 334.5t397.5 127.5t404 -127t156 -328q0 -168 -141 -399q-81 -133 -199 -345h79q75 -1 112 42.5t64 164.5l73 -12l-74 -410h-412q127 352 167 479q88 285 88 460t-86.5 279.5t-224.5 108.5q-138 -4 -224 -107t-86 -265q0 -78 39.5 -284t215.5 -671
h-413l-74 410l74 12q33 -138 61.5 -171t114.5 -36h79q-81 154 -172 303q-168 271 -168 434z" />
    <glyph glyph-name="partialdiff" unicode="&#x2202;" horiz-adv-x="1020" 
d="M683 654q0 246 -156 247q-107 0 -181.5 -167.5t-74.5 -409.5q0 -114 44 -193t108 -79q108 0 184 178t76 424zM545 1434q393 0 391 -620q0 -372 -145.5 -609t-372.5 -237q-148 0 -242.5 117t-94.5 300q0 234 139.5 416.5t317.5 182.5q92 0 201 -66q21 190 -16.5 302
t-122.5 112q-28 0 -60.5 -29t-56.5 -81t-44.5 -71.5t-70.5 -19.5t-76 48.5t4 108.5t102.5 103t146.5 43z" />
    <glyph glyph-name="Delta" unicode="&#x2206;" horiz-adv-x="1360" 
d="M667 1077l-446 -883h799zM740 1391l582 -1391h-1285z" />
    <glyph glyph-name="product" unicode="&#x220f;" horiz-adv-x="2039" 
d="M197 -315v65q151 17 197.5 88.5t46.5 289.5v901q3 217 -43.5 288.5t-200.5 88.5v65h1645v-65q-151 -17 -197.5 -88.5t-46.5 -288.5v-901q0 -218 46.5 -289.5t197.5 -88.5v-65h-704v65q157 17 202 87t42 291v1262h-725v-1262q0 -218 46.5 -289.5t197.5 -88.5v-65h-704z
" />
    <glyph glyph-name="summation" unicode="&#x2211;" horiz-adv-x="2039" 
d="M1110 1389h-403l370 -740l-451 -756h524q138 0 219 51t149 180l22 41l70 -21l-117 -459h-1077l491 838l-482 948h1119l46 -366l-70 -14l-17 39q-54 142 -142.5 200.5t-250.5 58.5z" />
    <glyph glyph-name="minus" unicode="&#x2212;" horiz-adv-x="1229" 
d="M115 638h1032v-246h-1032v246z" />
    <glyph glyph-name="uni2215" unicode="&#x2215;" horiz-adv-x="328" 
d="M577 1515l-625 -1515h-203l625 1515h203z" />
    <glyph glyph-name="uni2219" unicode="&#x2219;" horiz-adv-x="573" 
d="M150 893h274v-272h-274v272z" />
    <glyph glyph-name="radical" unicode="&#x221a;" horiz-adv-x="1473" 
d="M1722 1529v-86h-281l-553 -1817h-74l-570 821l-145 -105l-43 96l298 194l506 -750l480 1647h382z" />
    <glyph glyph-name="infinity" unicode="&#x221e;" horiz-adv-x="2039" 
d="M1643 569q0 97 -59.5 156.5t-150.5 59.5t-153 -50.5t-122 -168.5q41 -100 111.5 -154t164.5 -54t151.5 57t57.5 154zM394 569q0 -109 69 -183t173 -74t189 73t160 232q-63 113 -138 163.5t-185 50.5t-189 -76.5t-79 -185.5zM1754 573q0 -164 -97 -271t-243 -107
q-105 0 -189 56.5t-135 161.5q-106 -156 -186.5 -210t-206.5 -54q-174 0 -294 121.5t-120 299.5t116.5 301t285.5 123q122 0 210.5 -60.5t175.5 -202.5q147 217 335 217q153 0 250.5 -105.5t97.5 -269.5z" />
    <glyph glyph-name="integral" unicode="&#x222b;" horiz-adv-x="2039" 
d="M1187 1321q-84 0 -84 77q0 10 16 72q2 8 -5.5 14t-20.5 6q-77 0 -80 -131t58 -453t75 -638t-14 -464t-79 -208t-127 -60t-125 42t-49 94t28 82t64 30t61 -25.5t25 -61.5l-9 -60q-1 -9 6 -15.5t19 -6.5q52 -1 69 87t-13 250q-80 427 -110 817q-63 800 231 800
q66 0 112 -42t46 -102q0 -104 -94 -104z" />
    <glyph glyph-name="approxequal" unicode="&#x2248;" horiz-adv-x="2039" 
d="M742 865q128 0 336 -67t292 -67q85 0 157 35.5t116 86.5l37 -22q-48 -115 -136 -182.5t-178 -67.5t-334 67t-313 67t-147 -35t-127 -86l-31 32q57 100 156.5 169.5t171.5 69.5zM742 514q128 0 336 -67t292 -67q85 0 157 35.5t116 86.5l37 -22q-48 -115 -136 -182.5
t-178 -67.5t-334 67t-313 67t-147 -35t-127 -86l-31 32q57 100 156.5 169.5t171.5 69.5z" />
    <glyph glyph-name="notequal" unicode="&#x2260;" horiz-adv-x="2039" 
d="M407 279v135h437l236 276h-673v135h788l317 367h164l-315 -367h312v-135h-427l-236 -276h663v-135h-779l-318 -372h-166l318 372h-321z" />
    <glyph glyph-name="lessequal" unicode="&#x2264;" horiz-adv-x="2039" 
d="M417 135h1266v-135h-1266v135zM1683 1235v-135l-1063 -410l1063 -309v-135l-1266 377v135z" />
    <glyph glyph-name="greaterequal" unicode="&#x2265;" horiz-adv-x="2039" 
d="M417 135h1266v-135h-1266v135zM417 1235l1266 -477v-135l-1266 -377v135l1063 309l-1063 410v135z" />
    <glyph glyph-name="lozenge" unicode="&#x25ca;" horiz-adv-x="1171" 
d="M585 1324l-349 -613l349 -615l349 615zM530 1423h110l404 -712l-404 -711h-110l-404 711z" />
    <glyph glyph-name="uniEFED" unicode="&#xefed;" horiz-adv-x="1106" 
d="M415 1923h274v-273h-274v273z" />
    <glyph glyph-name="uniEFEE" unicode="&#xefee;" horiz-adv-x="983" 
d="M492 1843q62 0 115 23.5t70 58.5h222q-53 -280 -407 -280t-406 280h222q17 -35 69.5 -58.5t114.5 -23.5z" />
    <glyph glyph-name="uniEFEF" unicode="&#xefef;" horiz-adv-x="860" 
d="M100 1889h660v-216h-660v216z" />
    <glyph glyph-name="uniEFF0" unicode="&#xeff0;" horiz-adv-x="1434" 
d="M727 1738l370 373l153 -158l-387 -355zM270 1738l370 373l153 -158l-387 -355z" />
    <glyph glyph-name="uniEFF1" unicode="&#xeff1;" horiz-adv-x="696" 
d="M324 -398q-93 0 -157 54q-63 54 -63 130t48.5 135.5t128.5 96.5h142q-82 -62 -107.5 -92t-25.5 -70t29.5 -65.5t74.5 -25.5t83 24v-160q-60 -27 -153 -27z" />
    <glyph glyph-name="uniEFF2" unicode="&#xeff2;" horiz-adv-x="696" 
d="M406 -411q43 0 69 27t26 71t-27.5 73t-63.5 29q-76 0 -94 -46l-99 39l99 230l103 -14l-48 -108l51 2q84 0 137 -58t53 -148t-58 -145t-144 -55t-144.5 51t-64.5 128h109q19 -76 96 -76z" />
    <glyph glyph-name="uniEFF3" unicode="&#xeff3;" horiz-adv-x="737" 
d="M370 1683q35 0 59 24t24 59t-24 59t-59 24t-59 -24t-24 -59t24 -59t59 -24zM370 1546q-92 0 -156 64t-64 156t64 156t156 64t156 -64t64 -156t-64 -156t-156 -64z" />
    <glyph glyph-name="uniEFF4" unicode="&#xeff4;" horiz-adv-x="1106" 
d="M662 1652h-216l-301 283h296l113 -131l113 131h296z" />
    <glyph glyph-name="uniEFF5" unicode="&#xeff5;" horiz-adv-x="983" 
d="M202 1892.5q69 26.5 131 26.5q62 1 153 -29t133 -30q93 0 161 51l114 -162q-42 -42 -109.5 -70.5t-115.5 -28.5t-155 28t-176 28q-70 0 -139 -43l-109 165q43 38 112 64.5z" />
    <glyph glyph-name="uniEFF6" unicode="&#xeff6;" horiz-adv-x="1024" 
d="M590 1923h274v-272h-274v272zM160 1923h274v-272h-274v272z" />
    <glyph glyph-name="uniEFF7" unicode="&#xeff7;" horiz-adv-x="1106" 
d="M446 1934h216l301 -283h-296l-113 131l-113 -131h-296z" />
    <glyph glyph-name="uniEFF8" unicode="&#xeff8;" horiz-adv-x="860" 
d="M566 1630l-464 255l119 209l453 -276z" />
    <glyph glyph-name="uniEFF9" unicode="&#xeff9;" horiz-adv-x="860" 
d="M186 1818l458 266l117 -212l-472 -242z" />
    <glyph glyph-name="uniF001" unicode="&#xf001;" horiz-adv-x="1065" 
d="M673 1515h272v-250h-272v250zM421 896v-896h-273v896h-97v240h97q8 183 108 296t282 113l55 -1v-265h-14q-84 0 -121 -33t-37 -107v-3h525v-1136h-273v896h-252z" />
    <glyph glyph-name="uniF002" unicode="&#xf002;" horiz-adv-x="1065" 
d="M422 896v-896h-273v896h-98v240h98q7 183 107 296t283 113l54 -1v-265h-13q-84 0 -121 -33t-37 -107v-3h250v379h273v-1515h-273v896h-250z" />
    <glyph glyph-name="uniFB01" unicode="&#xfb01;" horiz-adv-x="1065" 
d="M673 1515h272v-250h-272v250zM421 896v-896h-273v896h-97v240h97q8 183 108 296t282 113l55 -1v-265h-14q-84 0 -121 -33t-37 -107v-3h525v-1136h-273v896h-252z" />
    <glyph glyph-name="uniFB02" unicode="&#xfb02;" horiz-adv-x="1065" 
d="M422 896v-896h-273v896h-98v240h98q7 183 107 296t283 113l54 -1v-265h-13q-84 0 -121 -33t-37 -107v-3h250v379h273v-1515h-273v896h-250z" />
    <glyph glyph-name="glyph106" 
d="M597 758q0 254 -173 429t-424 175t-424 -175t-173 -429t173.5 -429t423.5 -175t423.5 175t173.5 429zM0 1540q328 0 555 -227t227 -555t-226.5 -555t-555.5 -227t-555.5 227t-226.5 555t227 555t555 227z" />
    <glyph glyph-name="glyph107" 
d="M11 444q160 0 210 159h181q-21 -137 -133.5 -225.5t-264.5 -88.5q-191 0 -314.5 132t-123.5 336t123.5 336.5t314.5 132.5q157 0 268.5 -86t133.5 -224h-188q-49 155 -207 155q-114 0 -186.5 -86.5t-72.5 -226.5t70 -227t189 -87z" />
    <glyph glyph-name="glyph113" 
d="M602 758q0 255 -174.5 430.5t-427.5 175.5t-427.5 -175.5t-174.5 -430.5t175 -430.5t427 -175.5t427 175.5t175 430.5zM0 1540q328 0 555 -227t227 -555t-226.5 -555t-555.5 -227t-555.5 227t-226.5 555t227 555t555 227z" />
    <glyph glyph-name="glyph114" 
d="M-153 803h199q64 0 99 32.5t35 92.5t-35 93t-99 33h-199v-251zM46 1199q314 0 314 -230q0 -128 -76 -189q-43 -32 -111 -50h7q66 0 113 -54t52 -135l5 -81q7 -131 24 -159h-174q-21 4 -36 187l-4 57q-4 55 -52.5 85t-132.5 30h-128v-359h-179v898h378z" />
    <glyph glyph-name="glyph130" horiz-adv-x="688" 
d="M261 606v735h-114v174h311v-909h-197z" />
    <glyph glyph-name="glyph131" horiz-adv-x="688" 
d="M425 738h-406v153l428 624h161v-609h100v-168h-100v-132h-183v132z" />
    <glyph glyph-name="glyph133" horiz-adv-x="688" 
d="M261 606v735h-114v174h311v-909h-197z" />
    <glyph glyph-name="glyph134" horiz-adv-x="688" 
d="M345 1359q-119 0 -119 -165h-199q0 155 85.5 248t222.5 93t230 -84t93 -207q0 -124 -72 -210t-263 -252h335v-176h-619v165q294 269 360 341t66 126t-33.5 87.5t-86.5 33.5z" />
    <glyph glyph-name="glyph136" horiz-adv-x="688" 
d="M306 1203q102 0 102 82q0 74 -70 74q-55 0 -59 -75h-194q3 109 75.5 180t184.5 71t187 -69t75 -170t-74 -165q25 -12 47 -31q92 -76 92 -204t-92.5 -219t-233.5 -91t-230 82.5t-100 221.5h196q16 -124 129 -124q63 0 98.5 35t35.5 95t-40.5 97.5t-104.5 37.5h-59v172h35z
" />
    <glyph glyph-name="glyph137" horiz-adv-x="688" 
d="M425 738h-406v153l428 624h161v-609h100v-168h-100v-132h-183v132z" />
    <glyph glyph-name="glyph140" 
d="M138 -21l-464 255l119 209l453 -276z" />
    <glyph glyph-name="glyph142" 
d="M-241 167l458 266l117 -212l-472 -242z" />
    <glyph glyph-name="glyph144" 
d="M-108 283h216l301 -283h-296l-113 131l-113 -131h-296z" />
    <glyph glyph-name="glyph146" 
d="M-290 241.5q69 26.5 131 26.5t153 -30t133 -29q93 0 161 51l114 -162q-42 -42 -109.5 -70.5t-115.5 -28.5t-155 28t-176 28q-70 0 -139 -43l-109 165q43 38 112 64.5z" />
    <glyph glyph-name="glyph148" 
d="M78 272h274v-272h-274v272zM-352 272h274v-272h-274v272z" />
    <glyph glyph-name="glyph150" 
d="M0 32q35 0 59 24t24 59t-24 59t-59 24t-59 -24t-24 -59t24 -59t59 -24zM0 -105q-92 0 -156 64t-64 156t64 156t156 64t156 -64t64 -156t-64 -156t-156 -64z" />
    <glyph glyph-name="glyph153" 
d="M-15 -411q43 0 69 27t26 71t-27 73t-63 29q-76 0 -95 -46l-99 39l99 230l103 -14l-48 -108l51 2q84 0 137 -58t53 -148t-57.5 -145t-143.5 -55t-145 51t-65 128h109q19 -76 96 -76z" />
    <glyph glyph-name="glyph179" 
d="M121 -21l-464 255l119 209l453 -276z" />
    <glyph glyph-name="glyph181" 
d="M-253 167l458 266l117 -212l-472 -242z" />
    <glyph glyph-name="glyph183" 
d="M-108 283h216l301 -283h-296l-113 131l-113 -131h-296z" />
    <glyph glyph-name="glyph185" 
d="M-290 241.5q69 26.5 131 26.5t153 -30t133 -29q93 0 161 51l114 -162q-42 -42 -109.5 -70.5t-115.5 -28.5t-155 28t-176 28q-70 0 -139 -43l-109 165q43 38 112 64.5z" />
    <glyph glyph-name="glyph187" 
d="M78 272h274v-272h-274v272zM-352 272h274v-272h-274v272z" />
    <glyph glyph-name="glyph189" 
d="M-13 102q35 0 59 24t24 59t-24 59t-59 24t-59 -24t-24 -59t24 -59t59 -24zM-13 -35q-92 0 -156 64t-64 156t64 156t156 64t156 -64t64 -156t-64 -156t-156 -64z" />
    <glyph glyph-name="glyph192" 
d="M1 -411q43 0 69 27t26 71t-27 73t-63 29q-76 0 -95 -46l-99 39l99 230l103 -14l-48 -108l51 2q84 0 137 -58t53 -148t-57.5 -145t-143.5 -55t-145 51t-65 128h109q19 -76 96 -76z" />
    <glyph glyph-name="glyph219" 
d="M-330 238h660v-216h-660v216z" />
    <glyph glyph-name="glyph221" 
d="M-330 216h660v-216h-660v216z" />
    <glyph glyph-name="glyph223" 
d="M407 274q-53 -280 -407 -280t-406 280h222q17 -35 69.5 -58.5t114.5 -23.5t115 23.5t70 58.5h222z" />
    <glyph glyph-name="glyph225" 
d="M407 274q-53 -280 -407 -280t-406 280h222q17 -35 69.5 -58.5t114.5 -23.5t115 23.5t70 58.5h222z" />
    <glyph glyph-name="glyph227" 
d="M-5 -398q-93 0 -157 54q-63 54 -63 130t48.5 135.5t128.5 96.5h142q-82 -62 -107.5 -92t-25.5 -70t29.5 -65.5t74.5 -25.5t83 24v-160q-60 -27 -153 -27z" />
    <glyph glyph-name="glyph229" 
d="M43 -398q-93 0 -157 54q-63 54 -63 130t48.5 135.5t128.5 96.5h142q-82 -62 -107.5 -92t-25.5 -70t29.5 -65.5t74.5 -25.5t83 24v-160q-60 -27 -153 -27z" />
    <glyph glyph-name="glyph233" 
d="M116 1h-216l-301 283h296l113 -131l113 131h296z" />
    <glyph glyph-name="glyph235" 
d="M100 1h-216l-301 283h296l113 -131l113 131h296z" />
    <glyph glyph-name="glyph238" 
d="M-316 927q-142 0 -237.5 -103.5t-95.5 -255.5t94.5 -255.5t236.5 -103.5t238 103t96 256t-95 256t-237 103zM-366 -38q-228 0 -392.5 176.5t-164.5 428.5t171 429.5t414 177.5q195 -2 338 -129v470h273v-1515h-251v123q-160 -161 -388 -161z" />
    <glyph glyph-name="glyph239" 
d="M0 0l152 405h196l-154 -405h-194z" />
    <glyph glyph-name="glyph245" 
d="M-137 272h274v-273h-274v273z" />
    <glyph glyph-name="glyph247" 
d="M-137 272h274v-273h-274v273z" />
    <glyph glyph-name="glyph255" 
d="M0 0l152 405h235l-154 -405h-233z" />
    <glyph glyph-name="glyph257" 
d="M209 405l-152 -405h-196l154 405h194z" />
    <glyph glyph-name="glyph282" 
d="M107 87l370 373l153 -158l-387 -355zM-350 87l370 373l153 -158l-387 -355z" />
    <glyph glyph-name="glyph284" 
d="M100 87l370 373l153 -158l-387 -355zM-357 87l370 373l153 -158l-387 -355z" />
    <glyph glyph-name="glyph300" 
d="M-15 -411q43 0 69 27t26 71t-27 73t-63 29q-76 0 -95 -46l-99 39l99 230l103 -14l-48 -108l51 2q84 0 137 -58t53 -148t-57.5 -145t-143.5 -55t-145 51t-65 128h109q19 -76 96 -76z" />
    <glyph glyph-name="glyph302" 
d="M1 -411q43 0 69 27t26 71t-27 73t-63 29q-76 0 -95 -46l-99 39l99 230l103 -14l-48 -108l51 2q84 0 137 -58t53 -148t-57.5 -145t-143.5 -55t-145 51t-65 128h109q19 -76 96 -76z" />
    <glyph glyph-name="glyph350" 
d="M-92 606v737h-183v172h551v-172h-184v-737h-184z" />
    <glyph glyph-name="glyph351" 
d="M-306 606h-193v909h127l372 -656l243 656h255v-909h-193v623l-231 -623h-148l-232 624v-624z" />
  </font>
</defs>
</svg>
